<?xml version="1.0" encoding="utf-8"?>
<!-- Generator: Adobe Illustrator 19.0.0, SVG Export Plug-In . SVG Version: 6.00 Build 0)  -->
<svg version="1.1" id="Layer_1" xmlns="http://www.w3.org/2000/svg" xmlns:xlink="http://www.w3.org/1999/xlink" x="0px" y="0px"
	 viewBox="-267 372.9 61 97" style="enable-background:new -267 372.9 61 97;" xml:space="preserve">
<style type="text/css">
	.st0{fill:#FF4B64;stroke:#FF4B64;stroke-miterlimit:10;}
	.st1{fill:#222222;}
</style>
<path class="st0" d="M-226.3,457.3c-3.7,0.3-7.5,0.5-11.3,0.6c-0.7,0.1-4.2,0.5-10.5,1.2c-4.2,0.5-7.7,0.7-10.5,0.7
	c-0.3,0-0.8,0-1.3-0.1c-0.5-0.1-0.9-0.1-1.2-0.1c-1.2-4.9-2-8.6-2.6-11.1c2.7-0.1,8.2-0.6,16.4-1.6l1-0.7c0.2-5.8,0.3-10.3,0.1-13.3
	c0.1-1.1,0.3-3.9,0.7-8.5c0.3-3.5,0.5-6.3,0.5-8.5c0-10.8-0.5-16.6-1.5-17.5l-1.2-0.3c-0.9,0-2.4,1-4.4,3c-1.4,1.4-2.8,2.8-4.1,4.1
	c-3.2-3.8-5.5-6.7-7-8.7c1.9-2.2,3.9-5,6-8.6c1.7-3.1,3.5-6.1,5.2-9.1c0.8-0.4,3.2-0.9,7.1-1.4c3.9-0.5,6.6-0.7,8-0.7
	c0.7,0,1.9,0.2,3.4,0.5c-0.1,16.5,0.4,36.6,1.4,60.1c0.2,4.4,1.2,6.6,3.1,6.6c5.1,0,9.4-0.3,12.9-0.9c0.3,5.5,0.7,9.6,1,12.5
	C-218.1,456.4-221.8,456.9-226.3,457.3z"/>
<path class="st1" d="M-206.9,450.3c-0.7-3.8-2.6-7-5.6-9.5c-0.7-0.5-1.7-0.7-3.1-0.7c-0.4,0-2.7,0.2-6.7,0.6
	c-0.5-2.1-0.8-4.3-0.9-6.6c-0.1-1.6,0-3.7,0.1-6.4c0.2-3.2,0.2-5.4,0.2-6.7c0-2.1,0-5.4-0.1-10c-0.1-4.6-0.1-8-0.1-10
	c0-7.7-0.3-13.2-1-16.5c-0.3-1.4-1.4-3.5-3.1-6.4c-2-3.1-3.6-4.6-4.7-4.6c-1.2,0-4.9,0.3-11,0.8c-6.1,0.5-9.4,0.9-10.1,1.1
	c-1.2,1.7-2.1,3.2-2.7,4.6c-0.2,0.3-2.1,3.3-5.7,9.1c-3.1,4.9-4.6,7.6-4.6,8.2c0,1.2,1.2,3.3,3.6,6.3c2.4,3,4.2,4.9,5.5,5.5
	c3,1.6,5.2,2.7,6.7,3.4c1.1-0.7,1.8-1.3,2.1-2c0.2,1.4,0.4,2.8,0.4,4.2c0,2.2-0.2,5.3-0.6,9.5c-0.4,4.2-0.6,7.3-0.6,9.4
	c0,0.2,0.1,1.3,0.2,3.1c0.1,1.8,0.2,3.1,0.2,4.1c0,1.4-0.2,2.2-0.5,2.5c-1.2,0-4.1,0.3-8.7,0.9c-5,0.6-7.6,1-8,1.2
	c-0.9,1-1.4,2.1-1.4,3.2c0,2.6,1,6.7,3.1,12.2c5.5,6.1,8.5,9.1,9.2,9.1c10.9-0.4,18.4-0.9,22.7-1.5c5.3-0.5,9.3-0.8,12-1
	c0.4-0.1,1.2-0.3,2.5-0.6c1.2-0.3,2.2-0.4,2.9-0.4c3,0,4.9-0.2,5.7-0.5c1.7-0.7,2.5-2.2,2.5-4.5
	C-206.6,455.6-206.7,451.9-206.9,450.3L-206.9,450.3z M-226.1,440.9l-2.1-1.2c-0.3-7.9-0.7-15.8-1.1-23.6
	c-0.4-9.6-0.6-17.7-0.6-24.3c0-1.2,0-3.1,0.1-5.7c0.1-2.5,0.1-4.4,0.1-5.5c2,2.8,3,4.4,3,4.6v11.1c0,2.6,0.1,6.8,0.4,12.5
	c0.3,5.8,0.4,10,0.4,12.7c0,7.4,0.1,12.3,0.2,14.6c0.2,2.7,0.2,3.7,0.2,3v1.6L-226.1,440.9z M-225.9,457.9
	c-3.7,0.3-7.5,0.5-11.3,0.6c-0.7,0.1-4.2,0.5-10.5,1.2c-4.2,0.5-7.7,0.7-10.5,0.7c-0.3,0-0.8,0-1.3-0.1c-0.5-0.1-0.9-0.1-1.2-0.1
	c-1.2-4.9-2-8.6-2.6-11.1c2.7-0.1,8.2-0.6,16.4-1.6l1-0.7c0.2-5.8,0.3-10.3,0.1-13.3c0.1-1.1,0.3-3.9,0.7-8.5
	c0.3-3.5,0.5-6.3,0.5-8.5c0-10.8-0.5-16.6-1.5-17.5l-1.2-0.3c-0.9,0-2.4,1-4.4,3c-1.4,1.4-2.8,2.8-4.1,4.1c-3.2-3.8-5.5-6.7-7-8.7
	c1.9-2.2,3.9-5,6-8.6c1.7-3.1,3.5-6.1,5.2-9.1c0.8-0.4,3.2-0.9,7.1-1.4c3.9-0.5,6.6-0.7,8-0.7c0.7,0,1.9,0.2,3.4,0.5
	c-0.1,16.5,0.4,36.6,1.4,60.1c0.2,4.4,1.2,6.6,3.1,6.6c5.1,0,9.4-0.3,12.9-0.9c0.3,5.5,0.7,9.6,1,12.5l0,0
	C-217.6,457-221.4,457.6-225.9,457.9L-225.9,457.9z M-209.2,455.1c0.2,2.5,0.3,4.3,0.3,5.4c-1.9-1.7-2.9-3.2-2.9-4.5v-9.4
	c0.2,0.3,0.6,0.7,1.3,1.3c0.7,0.6,1,1.3,1,1.9C-209.5,450.9-209.4,452.6-209.2,455.1z"/>
</svg>
