<?xml version="1.0" encoding="utf-8"?>
<!-- Generator: Adobe Illustrator 19.0.0, SVG Export Plug-In . SVG Version: 6.00 Build 0)  -->
<svg version="1.1" id="Layer_1" xmlns="http://www.w3.org/2000/svg" xmlns:xlink="http://www.w3.org/1999/xlink" x="0px" y="0px"
	 viewBox="-260.2 374.6 70.2 92.5" style="enable-background:new -260.2 374.6 70.2 92.5;" xml:space="preserve">
<style type="text/css">
	.st0{fill:#2E95FF;stroke:#2E95FF;stroke-miterlimit:10;}
	.st1{fill:#2E95FF;}
	.st2{fill:#222222;}
</style>
<g>
	<g>
		<path class="st0" d="M-221.3,407.7c1.4-1.9,2-3.4,2-4.6c0-0.8-0.5-1.5-1.5-2.2c-1-0.7-1.9-1.1-2.7-1.1c-0.5,0-1.5,0.8-2.9,2.3
			c1.4,0,2.7,0.6,3.8,1.8C-221.5,405-221,406.3-221.3,407.7z"/>
		<path class="st0" d="M-255.7,391.8c-0.9,2.7-1.3,4.3-1.3,4.9c0,0.3,0.7,1.7,2.2,4c1.4,2.3,2.4,3.8,2.9,4.5
			c0.8-1.7,1.3-2.9,1.3-3.6c0-0.5-0.7-2.1-2.2-4.9C-254.2,394.2-255.1,392.6-255.7,391.8z"/>
		<path class="st1" d="M-251.4,440.3c-2.3,4.5-3.5,6.8-3.5,6.7l6.1,15.9l1.5-2.3c-0.3-0.9-0.8-2.2-1.3-3.9
			C-249.2,453-250.2,447.5-251.4,440.3z"/>
		<path class="st0" d="M-210.4,441.1c-0.9,0-2.3,0-4.2,0c-1.9,0-3.3,0-4.2,0c-0.9,0-2,0-3.6,0c-1.5-0.1-2.7-0.1-3.6-0.1
			c-2.1,0-3.2-0.6-3.2-1.9c0-0.6,2.4-2.9,7.3-6.9c5.4-4.5,11.1-6.9,11.6-7.4c3.5-4,6-10.8,8.3-16.9c1.9-4.7,1.7-9.8,1.7-11.1
			c0-6.7-3-8.5-7-12.6c-4-4.2-9.2-6.3-15.9-6.3c-4.7,0-9.6,0.6-14.7,1.9c-2.1,0.5-5.3,1.8-9.4,3.8c-4.9,2.3-7.4,4-7.4,5.2
			c1.3,2.4,3.3,5.9,6.1,10.7l1.4,0.5c10.8-4.9,17.4-4.9,20.9-4.9c2.7,0,5.5-1.5,7.5,0.5c1.9,2,2.9,4.4,2.9,7.1
			c0,5.3-5.6,12.1-16.8,20.4c-2.3,1.7-5,4.1-8.2,7.3c-2.6,2.6-5.1,5.2-7.7,7.8c0,2.4,0.3,5.5,1,9.2c1,5,1.6,8,1.8,9.1l0.1,4.8
			c1.8,0,4.4-2,7.7-2c3.3,0,6.8-0.8,8.6-0.8c2.7,0,7.3,0.4,12.7,0.7c5.4,0.3,9.3,0,12,0c3.2,0,6.7-0.1,9.7-0.2l2.1-10.4
			c0.1-1.8-0.2-4.8,0-8.2c-1.8,0-5.8,0.3-9.4,0.5C-205.9,441-208.7,441.1-210.4,441.1z"/>
	</g>
	<path class="st2" d="M-193.5,437.2c-1.8-0.5-3.2-0.8-4.3-0.8c-1.4,0-3.6,0.2-6.4,0.5c-2.8,0.3-4.9,0.5-6.3,0.5c-1.2,0-3.2,0-6.1,0
		c-2.6,0-4.7,0-6.1,0c0.8-0.9,3.2-2.9,7.1-6c3-2.3,5.2-4.4,6.8-6.4c3.2-4.4,5.8-8.6,7.8-12.8c2-4.2,3-8,3-11.5
		c0-7.7-2.3-14-6.9-18.8c-4.6-4.9-10.7-7.3-18.2-7.3c-5.8,0-11.8,1-18.1,3.1c-7.1,2.3-12.4,5.3-15.7,9.1c-1,1.1-1.7,2.4-1.9,3.8
		c-0.3,1.4-0.6,2.8-0.9,4.3c-0.3,1.4-0.5,2.2-0.5,2.3c0,0.4,1.4,2.6,4.1,6.4c3.4,4.7,5.1,7.1,5.1,7.2c2-0.3,5.4-1.4,10.5-3.3
		c4.4-1.7,8-2.6,10.7-2.6c3.6,0,5.4,0.9,5.4,2.6c0,0.7-0.3,1.9-1,3.6c-0.7,1.7-1.2,2.8-1.7,3.3c-5.1,4.7-9.1,8-12.1,10
		c-3.5,3.6-6,6.3-7.7,8.2c-3.8,3.6-6,5.7-6.6,6.4c-2.4,2.9-3.6,5.7-3.6,8.3c0,1.5,1.1,5.2,3.2,10.9c2.1,5.7,3.6,8.6,4.3,8.6
		c5.9,0,14.7,0.1,26.4,0.3c11.7,0.2,20.6,0.3,26.5,0.3c3.8,0,5.7-4.4,5.7-13.2c0-0.6,0-1.4,0-2.6c0-1.2,0-2.1,0-2.7
		c0-0.9,0.1-2.5,0.4-4.6c0.3-2.1,0.4-3.7,0.4-4.7C-190,438.6-191.2,437.9-193.5,437.2L-193.5,437.2z M-221.2,407.9
		c0.3-1.4-0.2-2.6-1.3-3.8c-1.1-1.2-2.4-1.8-3.8-1.8c1.4-1.5,2.4-2.3,2.9-2.3c0.8,0,1.7,0.4,2.7,1.1c1,0.7,1.5,1.5,1.5,2.2
		C-219.1,404.4-219.8,406-221.2,407.9L-221.2,407.9z M-194.4,448.5l-0.7,8.9c-3,0.1-6.1,0.1-9.3,0.1c-2.7,0-6.8-0.1-12.2-0.4
		c-5.4-0.3-9.5-0.4-12.2-0.4c-1.8,0-4.3,0-7.6,0s-5.9,0-7.6,0h-1.5c-0.2-1-0.8-4-1.8-9.1c-0.7-3.7-1-6.8-1-9.2
		c2.6-2.6,5.1-5.2,7.7-7.8c3.1-3.1,5.9-5.6,8.2-7.3c11.2-8.3,16.8-15.2,16.8-20.4c0-2.7-1-5.1-2.9-7.1c-1.9-2-4.2-3-7-3
		c-3.5,0-10.6,2.5-21.4,7.4l-1.4-0.5c-2.8-4.7-4.8-8.3-6.1-10.7c0-1.2,2.5-2.9,7.4-5.2c4.2-2,7.3-3.3,9.4-3.8
		c5.1-1.3,10-1.9,14.7-1.9c6.6,0,11.9,2.1,15.9,6.3c4,4.2,5.9,9.6,5.9,16.4c0,1.3-0.9,4.3-2.8,8.9c-2.4,6.1-5.3,11.2-8.8,15.2
		c-0.5,0.5-3.5,3-8.9,7.5c-4.8,4-7.3,6.3-7.3,6.9c0,1.3,1.1,1.9,3.2,1.9c0.8,0,2,0,3.6,0.1c1.5,0,2.7,0,3.6,0c0.9,0,2.3,0,4.2,0
		c1.9,0,3.3,0,4.2,0c1.8,0,4.5-0.1,8.2-0.3c3.7-0.2,6.4-0.3,8.2-0.3C-194.2,444.1-194.3,446.7-194.4,448.5L-194.4,448.5z
		 M-251.8,405.3c-0.5-0.7-1.5-2.2-2.9-4.5c-1.4-2.3-2.2-3.6-2.2-4c0-0.5,0.4-2.1,1.3-4.9c0.6,0.8,1.6,2.4,2.9,4.9
		c1.4,2.7,2.2,4.3,2.2,4.9C-250.5,402.4-250.9,403.6-251.8,405.3L-251.8,405.3z M-249.3,461.2l-4.7-14.1c0,0.1,0.9-1.9,2.7-5.9
		c0.9,6.4,1.7,11.2,2.2,14.4c0.4,1.5,0.8,2.7,1,3.4l0,0L-249.3,461.2z"/>
</g>
</svg>
