<?xml version="1.0" encoding="utf-8"?>
<!-- Generator: Adobe Illustrator 19.0.0, SVG Export Plug-In . SVG Version: 6.00 Build 0)  -->
<svg version="1.1" id="Layer_1" xmlns="http://www.w3.org/2000/svg" xmlns:xlink="http://www.w3.org/1999/xlink" x="0px" y="0px"
	 viewBox="-269.2 377 54.2 88.9" style="enable-background:new -269.2 377 54.2 88.9;" xml:space="preserve">
<style type="text/css">
	.st0{fill:#9DCB45;stroke:#9DCB45;stroke-miterlimit:10;}
	.st1{fill:#222222;}
</style>
<g>
	<path class="st0" d="M-226.3,444.9c-2.9,4.2-5.8,7-8.9,8.3c-4.2,1.8-9.8,2.7-16.9,2.7c-2.1,0-4.9-0.8-8.4-2.3c2.2-4.6,3.9-8,5-10.2
		c4.8,0.9,7.2,1.4,7.2,1.4c2.8,0,5.3-1.1,7.6-3.3c2.2-2.2,3.3-4.7,3.3-7.4c0-2.5-1-4.6-3-6.4c-2-1.8-4.2-2.6-6.6-2.6h-2.2
		c-0.8-5.5-1.3-9.6-1.7-12.4c8.9-2.7,13.4-7.1,13.4-13.2c0-3.5-1.7-6.1-5.2-7.7c-2.6-1.3-5.8-1.9-9.5-1.9c-1.2,0-3,0.3-5.5,0.9
		c-2.4,0.6-4.2,0.9-5.5,0.9h-0.5c-1-5.2-1.5-7.7-1.5-7.5v-0.9c5-2,10.9-3,17.8-3c5.1,0,9.7,1.1,13.9,3.2c5.1,2.7,7.6,6.3,7.6,10.8
		c0,5.9-3.5,12.2-10.6,18.9c-1.4,1.4-2,2.1-2,2.3c0,1.1,0.8,1.9,2.4,2.2c1.2,0.2,2.5,0.3,3.7,0.3c2.8,0.5,5.3,2.6,7.4,6.1
		c1.9,3.2,2.8,6.4,2.8,9.6C-222,436.9-223.4,440.6-226.3,444.9z"/>
	<path class="st1" d="M-227.1,461.4c8.1-4.1,12.2-10.6,12.2-19.4c0-9.9-4-18.2-12-24.8c2.6-2.3,4.8-5.2,6.6-8.5
		c1.9-3.6,2.8-7.1,2.8-10.3c0-1.9-0.8-4.2-2.4-6.8c-1.4-2.3-2.9-4.2-4.5-5.8c-2.6-2.5-6.1-4.6-10.6-6.2c-4.5-1.6-8.6-2.4-12.4-2.4
		c-7.9,0-15.2,1.6-21.7,4.9c1.1,6.7,1.9,10.8,2.3,12.2c0.3,1,1.4,2.8,3.3,5.3c2,2.8,3.4,4.3,4.2,4.5c5.9-2.4,10-3.6,12.3-3.6
		c3.2,0,4.8,0.9,4.8,2.7c0,1.4-1.4,2.8-4.3,4.3c-2.1,0.8-4.2,1.7-6.4,2.6c-1.4,0.7-2.2,1.3-2.2,1.8c0,0.8,0.2,1.7,0.5,2.7
		c0.5,1.4,0.7,2.4,0.8,2.7c0.8,4.7,1.4,7.5,1.6,8.5c0.6,2.1,1.7,4.8,3.4,8.1c3.9,0.2,5.9,1.5,5.9,3.9c0,1.1-0.6,2-1.9,2.7
		c-1.2,0.6-2.6,1-4,1c-0.8,0-2.1-0.3-3.7-0.8c-1.7-0.5-2.9-0.8-3.7-0.8c-1,0-2.6,2.1-4.8,6.4c-1.2,2.7-2.5,5.4-3.7,8.1
		c0.1,1,0.4,2,1.1,2.9c0.6,0.9,1.3,1.9,2,2.8c1.1,1.6,1.9,2.7,2.4,3.3c1.1,1.4,2.3,2.2,3.7,2.6c0.6,0.1,2.2,0.1,4.8,0.1
		C-241.3,466-233.4,464.4-227.1,461.4L-227.1,461.4z M-221.1,398.4c0,2.4-1.1,5.6-3.2,9.8c-2.3,4.6-4.4,7-6.2,7.1l-2-0.6
		c6.4-5.5,9.7-12.4,10-20.7C-221.6,395.6-221.1,397.1-221.1,398.4L-221.1,398.4z M-225.2,424.3c1.9,3.2,2.8,6.4,2.8,9.6
		c0,3.3-1.4,7-4.3,11.3c-2.9,4.2-5.8,7-8.9,8.3c-4.2,1.8-9.8,2.7-16.9,2.7c-2.1,0-4.9-0.8-8.4-2.3c2.2-4.6,3.9-8,5-10.2
		c4.8,0.9,7.2,1.4,7.2,1.4c2.8,0,5.3-1.1,7.6-3.3c2.2-2.2,3.4-4.7,3.4-7.4c0-2.5-1-4.6-3-6.4c-2-1.8-4.2-2.6-6.6-2.6h-2.2
		c-0.8-5.5-1.3-9.6-1.7-12.4c8.9-2.7,13.4-7.1,13.4-13.2c0-3.5-1.7-6.1-5.2-7.7c-2.6-1.3-5.8-1.9-9.5-1.9c-1.2,0-3,0.3-5.5,0.9
		c-2.4,0.6-4.2,0.9-5.5,0.9h-0.5c-1-5.2-1.5-7.7-1.5-7.5v-0.9c5-2,10.9-3,17.8-3c5.1,0,9.7,1.1,13.9,3.2c5.1,2.7,7.6,6.3,7.6,10.8
		c0,5.9-3.5,12.2-10.6,18.9c-1.4,1.4-2,2.1-2,2.3c0,1.1,0.8,1.9,2.4,2.2c1.2,0.2,2.5,0.3,3.7,0.3
		C-229.8,418.7-227.3,420.8-225.2,424.3L-225.2,424.3z M-218.5,442.1c0,1.7-0.4,3.8-1.2,6.4c-1,3.1-2.1,4.7-3.4,4.7
		c-1.5,0-2.4-0.9-2.7-2.8c4.2-5.9,6.5-10.2,6.9-12.9C-218.7,439.2-218.5,440.7-218.5,442.1L-218.5,442.1z"/>
</g>
</svg>
