<?xml version="1.0" encoding="utf-8"?>
<!-- Generator: Adobe Illustrator 19.0.0, SVG Export Plug-In . SVG Version: 6.00 Build 0)  -->
<svg version="1.2" baseProfile="tiny" id="Слой_2"
	 xmlns="http://www.w3.org/2000/svg" xmlns:xlink="http://www.w3.org/1999/xlink" x="0px" y="0px"
	 viewBox="-834.5 676.7 515.6 228.6" xml:space="preserve">
<path fill="#9EC94F" stroke="#9EC94F" stroke-miterlimit="10" d="M-577.6,879.1c-18.4,0-36.9,0-55.3,0c-8.8,0-17.6,0.1-26.4,0.1
	c-15.4,0-30.8,0.1-46.2,0c-12.3-0.1-24.5-0.5-36.8-0.7c-6.8-0.1-13.7-0.3-20.5-0.5c-7.5-0.2-14.8-1.6-21.9-3.9
	c-7.6-2.5-12.6-7.7-15.7-14.9c-2.7-6.3-4.1-12.9-4.8-19.7c-1.1-10.8-2.4-21.6-3.3-32.4c-0.8-9.2-1.2-18.4-1.6-27.6
	c-0.5-12.4-0.9-24.8-1.2-37.1c-0.2-7.2-0.1-14.5,0.1-21.7c0.1-4.9,1-9.8,2.6-14.5c1.5-4.4,3.7-8.3,7.6-11c0.7-0.5,1.4-1,1-2.1
	c-0.1-0.2,0.3-0.7,0.6-0.9c4.4-3.8,9.5-6.1,15-7.6c6.1-1.7,12.4-2.3,18.7-2.5c3.7-0.1,7.4-0.1,11-0.1c1.4,0,2.8,0.1,3.7-1.4
	c0.1-0.2,0.7-0.2,1-0.2c11.6,0,23.2-0.1,34.8-0.1c3.1,0,6.2,0.1,9.2,0.1c34.1,0,68.2,0.1,102.4,0.1c27,0,54,0,81,0
	c14.7,0,29.4,0,44,0c16,0,32,0,48,0c13.2,0,26.3,0,39.5,0c5,0,10.1-0.1,15.1,0.2c6.6,0.4,13,2,18.2,6.4c1.3,1.1,2.5,2.4,3.7,3.6
	c0.2,0.2,0.3,0.6,0.5,0.9c0.2,0.4,0.2,0.8,0.5,1c2.5,2,3.6,5,4.8,7.8c2.3,5.4,3.6,11,4.3,16.8c1.5,12.3,2.4,24.7,2.7,37.1
	c0.3,12.6,0.6,25.2,0.4,37.8c-0.2,12.5-0.9,25-1.5,37.5c-0.3,5.9-0.7,11.7-1.9,17.5c-1.5,7.1-4.3,13.5-9.9,18.3
	c-5,4.4-10.8,6.9-17.4,8c-10.4,1.9-21,2.3-31.5,2.6c-11.6,0.3-23.2,0.8-34.9,1.1c-6.4,0.2-12.7,0.2-19.1,0.3
	c-11.2,0.2-22.5,0.3-33.7,0.5c-5.8,0.1-11.7,0.2-17.5,0.2c-10.2,0.1-20.4,0.2-30.6,0.3c-4.7,0-9.4,0.1-14,0.2c-8.2,0-16.5,0-24.7,0
	C-577.6,878.8-577.6,879-577.6,879.1z"/>
<g>
	<path fill="none" d="M-827.2,762.1c-0.3,0.4-0.3,1-0.5,1.5c0.4,0,0.6-0.2,0.7-0.4c3-3.7,5.9-7.4,8.9-11c0-0.5,0-1.7,0-3.3
		C-821.1,753.3-824.2,757.7-827.2,762.1z"/>
	<path fill="none" d="M-818.1,762.5c-3.2,3.5-6.4,7-8.4,11.5c-0.5,1.2-0.5,2.5-0.7,3.8c0.2,0.1,0.4,0.1,0.5,0.2
		c0.2-0.4,0.5-0.7,0.7-1.1c2.7-3.6,5.4-7.2,8.2-10.8C-817.9,764.5-818,763.2-818.1,762.5C-818.1,762.5-818.1,762.5-818.1,762.5z"/>
	<path fill="none" d="M-825.2,794.8c-0.5,0.7-1,1.4-0.4,2.3c0.1-0.1,0.2-0.1,0.3-0.1c2.7-3.5,5.8-6.7,9.1-9.5
		c-0.1-1.1-0.3-2.3-0.4-3.4C-819.5,787.7-822.4,791.2-825.2,794.8z"/>
	<path fill="none" d="M-826.4,782.1c-0.4,0.7-0.3,1.7-0.4,2.5c0.1,0,0.3,0.1,0.4,0.1c3-4.2,6-8.4,8.9-12.7c-0.1-1-0.1-1.9-0.2-2.8
		C-820.9,773.3-823.8,777.6-826.4,782.1z"/>
	<path fill="none" d="M-826.3,747.2c0.4-0.2,0.5-0.2,0.5-0.3c2.6-3,5.2-6,7.7-9c0-0.8,0-1.5,0-2.3
		C-821.4,739-824.1,742.8-826.3,747.2z"/>
	<path fill="none" d="M-827,752.5c-1.3,1.6-0.6,3.5-0.6,5.3c0.4-0.3,0.6-0.5,0.8-0.8c2.9-3.9,5.7-7.9,8.7-11.7c0-1.3,0-2.6,0-4
		C-821.1,745-824.1,748.7-827,752.5z"/>
	<path fill="none" d="M-820.7,820.1c-0.6,0.9-1.5,1.6-2.5,2.6c0.1,0.7,0.3,2.1,0.5,3.5c0.1,0,0.2,0.1,0.3,0.1c0.3-0.5,0.7-1,1-1.4
		c2.2-3.1,4.3-6.3,6.5-9.4c-0.1-1.1-0.1-2.2-0.2-3.3C-817,814.9-818.8,817.5-820.7,820.1z"/>
	<path fill="none" d="M-822.9,805.2c-1.7,2-2.2,4.5-1.2,7.3c0.3-0.5,0.5-0.8,0.8-1.1c2.5-3.5,5.1-7,7.7-10.5c0-1.5-0.1-2.9-0.1-4.3
		C-818.1,799.5-820.6,802.3-822.9,805.2z"/>
	<path fill="none" d="M-821.8,829.5c-0.2,0.4-0.4,0.9-0.3,1.3c0,0.9,0.2,1.8,0.4,2.9c0.3-0.2,0.4-0.3,0.4-0.4c2-3.1,4.3-6,7.1-8.5
		c-0.2-1.9-0.3-3.8-0.5-5.7C-817.1,822.6-819.5,826-821.8,829.5z"/>
	<path fill="none" d="M-819.5,846.1c-0.2,0.5-0.1,1.2-0.2,2c0.4-0.3,0.5-0.4,0.6-0.5c2-3.3,4.1-6.4,6.6-9.2
		c-0.2-1.1-0.4-2.2-0.5-3.4C-815.6,838.5-817.7,842.2-819.5,846.1z"/>
	<path fill="none" d="M-819.9,835.5c-1.2,2-1.2,4.1-0.5,6.5c0.4-0.7,0.7-1.2,1-1.7c1.8-2.6,3.5-5.3,5.3-7.8c0.2-0.3,0.4-0.5,0.6-0.8
		c-0.2-1.4-0.3-2.8-0.5-4.2C-816.2,830-818.1,832.7-819.9,835.5z"/>
	<path fill="none" d="M-823.3,816.1c-0.6,1-0.5,2.1,0,3.3c0.3-0.4,0.6-0.7,0.8-1c2.4-3.3,4.8-6.7,7.2-10c-0.1-1.4-0.1-2.9-0.2-4.3
		C-818.4,808-821,812-823.3,816.1z"/>
	<path fill="none" d="M-826.7,742.6c0.1-0.1,0.2-0.1,0.3-0.2c2.4-3.6,5.1-6.8,8.3-9.7c0-0.6,0-1.2,0-1.7
		C-821.6,734.5-824.8,738-826.7,742.6z"/>
	<path fill="none" d="M-815.9,790.2c-3.4,3.1-6.4,6.6-9,10.6c-0.5,0.8-0.6,1.9-0.1,3.1c0.4-0.4,0.7-0.8,1-1.2c2.8-3,5.4-6.1,8.2-9
		c0-0.9,0-1.7-0.1-2.6C-815.8,790.9-815.9,790.6-815.9,790.2z"/>
	<path fill="none" d="M-733,884c-0.8,3.6-1.5,7.2-2.3,10.9c0.7,0,1.3,0,2,0c1.2-3.5,2.4-7.1,3.5-10.7
		C-731.8,884.1-733,884.1-733,884L-733,884z"/>
	<path fill="none" d="M-749.5,883.5c-0.8,3.6-1.7,7.1-2.7,10.7c0.8,0,1.6,0.1,2.3,0c0.3,0,0.8-0.4,0.9-0.7c0.8-2.5,1.6-5.1,2.3-7.7
		c0.2-0.7,0.4-1.3,0.6-2.2c-1.8-0.1-3.2-0.1-3.2-0.1H-749.5z"/>
	<path fill="none" d="M-737.7,884c-0.1,0.1-0.1,0.2-0.2,0.3c-1,3.5-1.9,6.8-2.9,10.4c0.7,0,1.2-0.1,1.7,0c0.9,0.2,1.3-0.1,1.4-1
		c0.1-0.9,0.4-1.7,0.5-2.6c0.5-2.3,1-4.6,1.4-7.1h-0.5C-736.3,884-736.8,884-737.7,884z"/>
	<path fill="none" d="M-826,733.9c-0.6,0.8-0.7,1.9-1,2.9c0.1,0,0.3,0.1,0.4,0.1s0.1-0.1,0.2-0.1c2.8-2.9,5.6-5.8,8.3-8.6
		c0-1.6,0-3,0-4.2C-820.8,727.3-823.4,730.6-826,733.9z"/>
	<path fill="none" d="M-774.5,881.3c-1.2-0.4-2-0.2-2.4,1.1c-0.3,0.8-0.9,1.5-1.2,2.3c-1.2,2.5-2.3,5-3.5,7.6
		c1.3,0.1,2.2,0.2,3.1,0.3c1,0.2,1.6,0,1.9-1.1c0.2-0.8,0.6-1.6,0.8-2.4c0.9-2.5,1.7-4.9,2.7-7.5
		C-773.7,881.5-774.1,881.4-774.5,881.3z"/>
	<path fill="none" d="M-412.1,883.4c0.3,3.9,0.5,7.8,0.8,11.7c0,0.6,0,1-0.7,1.2c-1.3,0.3-1.8,0-1.9-1.4c-0.2-2.5-0.3-5-0.5-7.5
		c-0.1-1.5-0.2-3-0.4-4.6c-1.7,0.1-3.4,0.2-5.1,0.2c0.6,4.9,1.3,9.5,1.8,14.4c3.9-0.2,7.8-0.6,11.8-1c-0.4-4.7-0.8-9.3-1.2-14
		c-1.6,0.1-3.2,0.2-4.8,0.3C-412.2,883-412.1,883.2-412.1,883.4z"/>
	<path fill="none" d="M-703.4,885.2c-0.7,3.6-1.4,7.3-2.2,11.1c2,0,3.8,0,5.7,0c0.6-3.6,1.1-7.3,1.7-11c-0.3,0-0.4,0-0.4,0
		C-698.9,885.4-700.7,885.3-703.4,885.2z"/>
	<path fill="none" d="M-755.4,883.3c-1.3,0-2.7,0-4.1,0c-0.9,3.4-1.9,6.9-2.8,10.4c1.4,0.5,1.9,0.1,2.1-0.9c0.7-2.7,1.5-5.3,2.3-7.9
		c0.5-1.7,1.2-1.9,2.9-0.8c-0.9,3.3-1.9,6.5-2.8,9.8c2.8,0.5,2.8,0.5,3.4-1.9c0-0.2,0.1-0.3,0.1-0.5c0.7-2.6,1.3-5.2,2.1-8
		C-753.2,883.5-754.3,883.4-755.4,883.3C-755.4,883.3-755.4,883.3-755.4,883.3z"/>
	<path fill="none" d="M-818,755.3c-3.9,4.4-7.4,9-9.4,14.4c0.1,0.1,0.2,0.1,0.3,0.2c0.4-0.4,0.7-0.8,1.1-1.3
		c2.7-3.1,5.4-6.3,8.1-9.5C-817.9,757.8-818,756.4-818,755.3z"/>
	<path fill="none" d="M-817.5,716.8c-2.8,3.5-5.5,7.1-7.5,11.1c0.1,0.1,0.2,0.2,0.3,0.2c0.3-0.3,0.7-0.7,1-1
		c1.9-2.1,3.8-4.2,5.6-6.3c0,0,0-0.1,0-0.1C-818.1,720.6-817.9,719.1-817.5,716.8z"/>
	<path fill="none" d="M-817.3,776c-2.9,4.3-5.8,8.6-8.6,12.9c-0.4,0.7-0.3,1.6-0.5,2.5c0.1,0,0.3,0.1,0.4,0.1c3-3.6,6-7.1,8.9-10.6
		c0,0,0-0.1,0-0.1C-817,780.2-817.1,778.4-817.3,776z"/>
	<path fill="none" d="M-818.4,851.7c-0.4,0.8-0.1,1.8-0.2,2.7c0.1,0,0.2,0,0.4,0c2.3-3.2,4.6-6.4,6.9-9.6c-0.3-1.2-0.5-2.4-0.7-3.6
		C-814.6,844.5-816.7,848-818.4,851.7z"/>
	<path fill="none" d="M-800.3,869.4c-3.4,4.6-6.5,9.4-9.2,14.5c0.9,0.8,1.7,1.6,2.5,2.4c0.3-0.5,0.5-0.8,0.7-1.1
		c2.6-4.7,5.1-9.4,7.7-14.1C-799.1,870.6-799.7,870-800.3,869.4z"/>
	<path fill="none" d="M-726.8,884.5c-1.7,3.3-2.9,6.8-3.4,10.6c1.1,0.1,2.1,0.1,3.1,0.1c1.9,0,1.7,0.3,2-1.7
		c0.1-0.6,0.2-1.2,0.3-1.8c0.3-2.3,0.8-4.7,1.2-7.3c-1.1,0-2.1-0.1-3.1-0.1C-726.8,884.4-726.8,884.5-726.8,884.5z"/>
	<path fill="none" d="M-448.8,885c0.1,3.1,0.2,6.3,0.4,9.4c0.1,1.7,0.5,3.4,0.8,5.1c1.7,0,3.3-0.1,5.1-0.2c-0.5-5.1-1-10.3-1.5-15.3
		c-1.6,0-3.1,0.1-4.6,0.1C-448.7,884.3-448.8,884.6-448.8,885z"/>
	<path fill="none" d="M-689.8,897c1.6,0,3.1,0,4.7,0c0.3-3.1,0.6-6.1,0.8-9.1c0.1-1.4,0.1-2.2-0.2-2.6c-1.3,0-2.6,0-3.7,0
		C-688.8,889.3-689.2,893.1-689.8,897z"/>
	<path fill="none" d="M-439.9,899.2c1.7-0.1,3.2-0.2,4.7-0.4c-0.2-2.2-0.4-4.2-0.6-6.2c-0.3-2.7-0.5-5.4-0.8-8.1
		c0-0.2-0.2-0.6-0.4-0.8c-1.5,0.1-2.9,0.1-4.3,0.1C-440.9,889.3-440.4,894.2-439.9,899.2z"/>
	<path fill="none" d="M-682.4,897.3c1,0,1.9,0,3,0c0.6-3.9,1.2-7.9,1.8-12c-1.3,0-2.6,0-3.8,0C-681.7,889.3-682.1,893.3-682.4,897.3
		z"/>
	<path fill="none" d="M-432.6,898.8c1.6-0.1,2.9-0.2,4.4-0.3c-0.5-5-0.9-10-1.3-15c-1.6,0.1-3.2,0.1-4.7,0.2
		C-433.7,888.8-433.2,893.7-432.6,898.8z"/>
	<path fill="none" d="M-465.9,884.6c0.2,5.4,0.5,10.5,0.7,15.6c2,0,3.7,0,5.5,0c-0.4-5.4-0.8-10.5-1.2-15.8c-0.7,0-1.4,0-2.1,0
		C-463.9,884.6-464.9,884.6-465.9,884.6z"/>
	<path fill="none" d="M-676.7,897.6c1.7,0,3.3,0,5,0c0.5-4.1,1-8.2,1.6-12.3c-1.7,0-3.3,0-4.8,0
		C-675.5,889.4-676.1,893.5-676.7,897.6z"/>
	<path fill="none" d="M-457.1,899.5c0,0.2,0.4,0.6,0.5,0.6c2.1-0.1,4.2-0.2,6.1-0.4c-0.5-5.2-1-10.3-1.4-15.4c-1.4,0-2.8,0-4.3,0
		c-0.7,0-1.4,0-2,0.1C-457.8,889.6-457.5,894.6-457.1,899.5z"/>
	<path fill="none" d="M-426.6,888c0.1,1.2,0.2,2.4,0.3,3.6c0.2,2.3,0.5,4.5,0.7,6.8c1.7-0.2,3.2-0.3,4.8-0.5
		c-0.7-5-1.3-9.8-1.9-14.7c-1.1,0-2.2,0.1-3.3,0.1C-426.9,884.9-426.8,886.5-426.6,888z"/>
	<path fill="none" d="M-384.5,894.2c1.2-0.1,2.2-0.2,3.4-0.4c0-0.4,0-0.7-0.1-1c-0.7-3.4-1.3-6.7-2-10.1c-0.2-1-0.3-1.6-0.6-2
		c-0.9,0.1-1.9,0.2-2.9,0.3C-386.3,885.5-385.8,889.8-384.5,894.2z"/>
	<path fill="none" d="M-378.3,893.5c1.1-0.1,2.1-0.3,3.1-0.4c-0.8-4.5-1.6-8.7-2.4-13.1c-1,0.1-2.2,0.3-3.4,0.4
		C-380.1,884.9-379.2,889.1-378.3,893.5z"/>
	<path fill="none" d="M-390.9,894.9c1.2-0.1,2.4-0.3,3.7-0.4c-0.7-4.4-1.4-8.9-2.1-13.2c-1,0.1-2,0.2-3.1,0.2
		C-392.5,886.1-392,890.5-390.9,894.9z"/>
	<path fill="none" d="M-396.9,895.6c1-0.1,2-0.3,3.1-0.4c-0.5-4.5-1-9-1.5-13.5c-0.9,0.1-1.8,0.1-2.8,0.2
		C-398.2,886.6-397.8,891.1-396.9,895.6z"/>
	<path fill="none" d="M-403.3,896.2c1.1-0.1,2.2-0.2,3.5-0.3c-0.4-4.7-0.8-9.2-1.2-13.8c-1.2,0.1-2.4,0.1-3.6,0.2
		C-404.5,887.1-404.3,891.6-403.3,896.2z"/>
	<path fill="none" d="M-815,862.5c-1.5,1.8-1.6,3.7-0.8,6c0.3-0.4,0.5-0.6,0.6-0.8c2.1-3.8,4.6-7.5,7.4-10.8
		c-0.3-0.8-0.6-1.7-0.9-2.6C-810.9,857.1-812.9,859.8-815,862.5z"/>
	<path fill="none" d="M-804.8,887.7c0.9,0.4,1.8,0.8,2.7,1.1c2.4-5,4.7-9.9,7-15c-0.5-0.4-1.1-0.8-1.6-1.2
		C-799.4,877.7-802.1,882.6-804.8,887.7z"/>
	<path fill="none" d="M-799.7,889.6c1.6,0.4,2.9,0.7,4.3,1c1.8-4.7,3.5-9.3,5.2-14c-0.8-0.4-1.7-0.8-2.5-1.3
		C-795.1,880.1-797.4,884.8-799.7,889.6z"/>
	<path fill="none" d="M-792.8,891c0.6,0.1,0.9,0.2,1.2,0.3c1.1,0.3,1.7,0,2.2-1.2c1.5-3.6,3.1-7.1,4.7-10.6c0.1-0.2,0.2-0.4,0.3-0.7
		c-1.2-0.3-2.3-0.7-3.4-1.2C-789.5,882.2-791.2,886.5-792.8,891z"/>
	<path fill="none" d="M-811.9,879c-0.4,1.1,0,1.8,0.8,2.3c3-4.6,6.1-9.2,9.2-13.8c-0.7-0.9-1.4-1.8-2-2.8
		C-807.2,869.2-809.9,873.9-811.9,879z"/>
	<path fill="none" d="M-817.3,858c-0.5,0.9-0.5,1.9,0.1,2.8c2.5-3.1,5.1-6.2,7.6-9.2c-0.4-1.3-0.7-2.6-1-3.9
		C-813.2,851-815.4,854.4-817.3,858z"/>
	<path fill="none" d="M-813.6,869.8c-1.3,2.2,0,3.9,0.1,6c0.3-0.2,0.3-0.3,0.4-0.3c2.2-4.6,4.8-8.9,7.9-12.8
		c-0.6-1.1-1.1-2.2-1.6-3.3C-809.4,862.7-811.5,866.3-813.6,869.8z"/>
	<path fill="none" d="M-709.3,885.2c-0.6,3.5-1,7.1-1.6,10.9c1.1,0,1.8,0,2.7,0c0.8-3.6,1.4-7.3,2.2-11c-1,0-2.1-0.1-3.2-0.1
		C-709.3,885.1-709.3,885.2-709.3,885.2z"/>
	<path fill="none" d="M-722.9,895.5c1.3,0,2.3,0,3.4,0c0.6-3.6,1.1-7.2,1.6-10.9c-1,0-2-0.1-3-0.1
		C-721.6,888.2-722.2,891.8-722.9,895.5z"/>
	<path fill="none" d="M-716.9,895.8c1.2,0.1,2.3,0.1,3.5,0.2c0.5-3.7,1-7.4,1.4-11.1c-1.1,0-2.2-0.1-3.3-0.1
		C-715.9,888.4-716.3,892.1-716.9,895.8z"/>
	<path fill="none" d="M-695.3,885.4c-0.3,1.2-0.6,2.5-0.8,3.7c-0.4,2.4-0.7,4.9-1,7.5c1.7,0,3.2,0,4.8,0c0.4-3.6,0.9-7.3,1.5-11.3
		C-692.6,885.4-694.1,885.4-695.3,885.4C-695.3,885.4-695.3,885.4-695.3,885.4z"/>
	<path fill="none" d="M-787.5,891.7c1,0.1,1.8,0.3,2.5,0.3c0.3,0,0.8-0.3,1-0.6c1.7-3.6,3.4-7.3,5.1-11.1c-0.2-0.1-0.4-0.1-0.6-0.2
		c-0.9-0.2-1.8-0.4-2.7-0.6C-783.9,883.6-785.6,887.7-787.5,891.7z"/>
	<path fill="none" d="M-769.9,882.2c-0.3,0-0.7,0.2-0.8,0.5c-1.3,3.4-2.5,6.8-3.7,10.2c3.5,1,3.6,0.9,4.8-2.3c0-0.1,0.1-0.2,0.1-0.3
		c0.9-2.5,1.8-5.1,2.8-7.7C-767.9,882.5-768.9,882.3-769.9,882.2z"/>
	<path fill="none" d="M-743.6,884.5c-0.8,2.4-1.6,4.7-2.4,7c-0.2,0.7-0.3,1.5-0.2,2.2c0.1,0.3,0.7,0.7,1.1,0.8
		c0.6,0,1.6-0.2,1.7-0.5c1.1-3.3,2-6.6,2.9-10.1c-0.8,0-1.7-0.1-2.6-0.1C-743.3,884-743.5,884.2-743.6,884.5z"/>
	<path fill="none" d="M-328.1,796.8c-0.7-0.6-1.3-1.3-2-1.9c-0.4-0.5-1-1-1.6-1.5c-0.1,0.1-0.2,0.1-0.4,0.2c0.1,0.8,0,1.7,0.4,2.2
		c1.4,1.8,3,3.5,4.5,5.3c0.3,0.3,0.6,0.6,0.9,0.9C-325.9,799.8-326.4,798.1-328.1,796.8z"/>
	<path fill="none" d="M-483.6,885.1c0.5,5.4,1.1,10.7,1.6,15.9c1.7,0,3.2,0,4.9,0c-0.4-5.4-0.7-10.7-1.1-15.9
		C-480,885.1-481.7,885.1-483.6,885.1z"/>
	<path fill="none" d="M-492.4,885.3c0.5,5.3,0.9,10.3,1.4,15.4c0,0.2,0.4,0.6,0.7,0.6c1.9,0.1,3.7,0,5.7,0
		c-0.6-5.6-1.1-10.8-1.6-16.1C-488.2,885.3-490.1,885.3-492.4,885.3z"/>
	<path fill="none" d="M-499.6,885.5c0.2,2.1,0.3,4.1,0.4,6c0.3,3,0.6,6,0.9,9c0,0.3,0.4,0.9,0.7,0.9c1.3,0.1,2.6,0,3.9,0
		c-0.5-5.6-0.9-10.8-1.3-16C-496.6,885.5-498.1,885.5-499.6,885.5z"/>
	<path fill="none" d="M-629.2,887c-0.2,3.1-0.4,6.2-0.5,9.3c-0.1,3.4-0.7,3.5,3.5,3.2c0-4.5,0-9,0-13.6c-1,0-1.9,0-2.8,0
		C-629.1,886.3-629.1,886.7-629.2,887z"/>
	<path fill="none" d="M-516.4,885.8c0.8,5.2,1.6,10.2,2.4,15.2c0,0.2,0.3,0.6,0.5,0.6c1.7,0.1,3.3,0,5.1,0
		c-0.6-5.5-1.3-10.7-1.9-15.9C-512.3,885.8-514.2,885.8-516.4,885.8z"/>
	<path fill="none" d="M-620.5,886c-2.9-0.1-2.9-0.1-3,2.8c-0.1,2.8-0.2,5.6-0.2,8.4c0,1.1,0.1,2.3,1.3,2.7c0.9,0.3,1.9,0.1,3,0.1
		c-0.1-4.7-0.1-9.3-0.1-14C-619.9,886-620.2,886-620.5,886z"/>
	<path fill="none" d="M-507.5,885.7c0,0.1-0.1,0.1-0.1,0.2c0.6,4.9,1.1,9.9,1.7,14.8c0,0.3,0.4,0.7,0.6,0.7c1.5,0.1,2.9,0.1,4.3,0.1
		c-0.4-5.3-0.8-10.5-1.2-15.8C-504.1,885.7-505.8,885.7-507.5,885.7z"/>
	<path fill="none" d="M-616.7,900.2c1.5,0,2.8,0,4.3,0c0.1-4.7,0.2-9.3,0.4-14c-1.6,0-3.1,0-4.7,0
		C-616.7,890.9-616.7,895.5-616.7,900.2z"/>
	<path fill="none" d="M-589.5,886.2c-0.3,0-0.8,0.4-0.8,0.7c-0.2,4.5-0.3,9.1-0.4,13.6c0,0.3,0.4,0.8,0.6,0.8c1.2,0.1,2.4,0,3.4,0
		c0-5,0-10,0-15C-587.8,886.2-588.7,886.1-589.5,886.2z"/>
	<path fill="none" d="M-636.2,897.7c0,0.9-0.5,1.3-1.2,1.3s-1.7,0-1.7-1.1c0-1.8,0.1-3.7,0.1-5.5c0-2.2,0-4.4,0-6.7
		c-1.4,0-2.6,0.1-3.9,0c-0.9-0.1-1.2,0.3-1.3,1.1c-0.2,2-0.5,4-0.7,6.1c-0.2,2-0.2,4-0.3,6.2c4.3,0,8.5,0,12.8,0
		c0.2-4.3,0.5-8.6,0.7-13.1c-1.5,0-2.9,0-4.5,0C-636.2,889.9-636.2,893.8-636.2,897.7z"/>
	<path fill="none" d="M-330.1,811.1c-0.6-0.8-1.2-1.6-1.8-2.3c-0.1,0-0.3,0.1-0.4,0.1c0,1.1,0,2.3,0,3.4c0,0.1,0.1,0.3,0.2,0.4
		c1.4,1.6,2.8,3.1,4.2,4.7c0.5,0.6,1.1,1.3,1.9,2.2c0.4-1.8,0.1-3.1-0.8-4.3C-327.9,813.9-329,812.5-330.1,811.1z"/>
	<path fill="none" d="M-331.1,825.3c-0.6-0.6-1.2-1.2-1.8-1.8c-0.1,0.1-0.2,0.1-0.3,0.2c0.2,0.6,0.2,1.3,0.5,1.7c2,2.4,4,4.8,6,7.2
		c0.3,0.2,0.6,0.6,1.1,1.1c0.3-1.8-0.2-3-1.3-4.1C-328.3,828.2-329.7,826.7-331.1,825.3z"/>
	<path fill="none" d="M-468.5,884.8c-2.4,0-4.6,0-7,0c0.3,5.4,0.6,10.6,1,15.8c2.1,0,4,0,5.8,0c0.6,0,0.9-0.3,0.9-1
		c-0.1-2.2-0.2-4.4-0.3-6.6C-468.2,890.2-468.4,887.4-468.5,884.8z"/>
	<path fill="none" d="M-764.2,883.4c-1.3,3.2-2.5,6.5-3.8,10c3,0.4,3,0.4,3.7-2.1c0.8-2.7,1.5-5.4,2.4-8.5
		C-762.9,883.1-764,883.1-764.2,883.4z"/>
	<path fill="none" d="M-567.9,888c0.3,3.9,0.7,7.9,1,11.8c0,0.6-0.2,1.2-0.4,1.9c1.2,0,2.7,0,4.2,0c0-5.1,0-10.2,0-15.4
		c-1.6,0-3.1,0-4.8,0C-567.9,886.9-567.9,887.5-567.9,888z"/>
	<path fill="none" d="M-570.4,891.2c-0.1-1.6-0.3-3.2-0.4-4.8c-1,0-1.9,0-3.1,0c0.4,4.3,0.7,8.5,1.1,12.6c0.3,2.6,0.4,2.6,3,2.7
		c0.4,0,0.8,0,0.9,0c-0.2-0.7-0.6-1.4-0.7-2.2C-569.9,896.7-570.1,893.9-570.4,891.2z"/>
	<path fill="none" d="M-578.1,887.5c0,2.4-0.1,4.7,0,7.1c0,2.3,0.2,4.5,0.3,6.9c0.9,0,1.7,0,2.6,0c-0.5-5.2-0.9-10.1-1.3-15.1
		C-578.1,886.1-578.1,886.1-578.1,887.5z"/>
	<path fill="none" d="M-331.7,798.9c-0.1,0.3-0.2,0.5-0.2,0.7c-0.4,3-0.4,5.9,2.1,8.3c1.3,1.2,2.2,2.9,3.4,4.4
		c0.1,0,0.3-0.1,0.4-0.1c0-1.1,0-2.3,0-3.4c0-1,0.1-2.2-0.4-2.9C-328,803.5-329.9,801.3-331.7,798.9z"/>
	<path fill="none" d="M-601.8,886.2c-0.8-0.1-1,0.3-1,0.9c-0.2,4.3-0.3,8.6-0.5,12.9c0,0.2,0.1,0.5,0.1,0.7c1,0,2,0,3.2,0
		c0.3-4.8,0.6-9.5,0.9-14.5C-600.1,886.2-601,886.3-601.8,886.2z"/>
	<path fill="none" d="M-596.3,887.2c-0.3,4.4-0.5,8.7-0.7,13.1c0,0.2,0.1,0.4,0.2,0.7c1.1,0,2.2,0,3.4,0c0-5,0.1-9.8,0.3-14.8
		c-0.8,0-1.5,0-2.2,0S-596.3,886.5-596.3,887.2z"/>
	<path fill="none" d="M-519.3,886c-0.7-0.5-2.1,0-3.1,0c-0.1,0-0.1,0.1-0.4,0.2c0.5,5,0.9,10.2,1.4,15.4c1.6,0.1,3.1,0.1,4.6,0.1
		c-0.6-4.3-1.2-8.5-1.8-12.7C-518.8,888-518.7,886.5-519.3,886z"/>
	<path fill="none" d="M-583.6,886.3c-0.1,0-0.2,0.1-0.2,0.1c0,5,0,10,0,15c1.2-0.1,2.1-0.1,3.2-0.1c0-0.4,0-0.8,0-1.1
		c-0.1-3.7-0.2-7.4-0.2-11.1C-580.8,886.3-580.8,886.3-583.6,886.3z"/>
	<path fill="none" d="M-528.7,886c-0.7,0.1-1,0.3-1,1c0,3.5,0,6.9,0.1,10.4c0,1.4,0.4,2.9,0.6,4.3c1.7,0.1,3.2,0.1,4.9,0.1
		c-0.4-4.5-0.8-8.8-1.2-13.2C-525.6,885.7-525.7,885.6-528.7,886z"/>
	<path fill="none" d="M-609.7,900.5c1.3,0,2.4,0,3.7,0c0.1-4.8,0.3-9.6,0.4-14.4c-1.2,0-2.3,0-3.6,0
		C-609.6,890.9-610.1,895.6-609.7,900.5z"/>
	<path fill="none" d="M-537,886.2c-0.7,0-1,0.2-1.1,0.9c-0.9,4.7-1,9.4-0.2,14c0.1,0.3,0.4,0.8,0.7,0.8c1.9,0.1,3.9,0,5.6,0
		c-0.2-5.3-0.4-10.4-0.6-15.7C-534,886.2-535.5,886.2-537,886.2z"/>
	<path fill="none" d="M-560.4,901.6c1.2,0,2.3,0,3.2,0c0.3-5.1,0.6-10.2,0.9-15.3c-1.2,0-2.5,0-4.1,0
		C-560.4,891.4-560.4,896.5-560.4,901.6z"/>
	<path fill="none" d="M-553.1,886.3c0,0-0.1,0-0.3,0.1c-0.9,4.9-1.3,10-0.8,15.3c1.4,0,2.7,0,4,0c0.1-4.1,0.2-8.3,0.3-12.4
		C-549.8,886.2-549.9,886.2-553.1,886.3z"/>
	<path fill="none" d="M-547,886.2c-0.7,5.2-0.8,10.3-0.2,15.5c2.1,0,4.1,0,6.3,0c-0.8-5.2-0.7-10.3,0.2-15.5
		C-542.9,886.2-544.9,886.2-547,886.2z"/>
	<path fill="none" d="M-331.8,816.3c-0.2-0.2-0.5-0.5-0.9-0.8c0,0.6,0,1-0.1,1.4c-0.7,2.7,0.4,4.6,2.4,6.3c1.7,1.3,3,2.9,4.4,4.4
		c0.1-0.1,0.2-0.1,0.3-0.2c0-0.8,0-1.5,0-2.3c0.1-1.3-0.4-2.3-1.3-3.3C-328.6,820-330.2,818.1-331.8,816.3z"/>
	<path fill="none" d="M-341.9,866.4c1.3,1.9,2.5,3.8,3.9,5.6c1.5,2,3.2,3.9,4.9,5.9c0.8-1.3,1.5-2.4,2.3-3.5
		c-3.6-3.8-7.1-7.6-10.7-11.5C-343.1,864.6-343.1,864.6-341.9,866.4z"/>
	<path fill="none" d="M-346.2,868.8c3.2,4.4,6.3,8.7,9.6,13.2c0.8-0.9,1.4-1.6,2-2.2c-3.4-4.3-6.7-8.5-10-12.7
		C-345.1,867.6-345.6,868.1-346.2,868.8z"/>
	<path fill="none" d="M-329.9,867.7c-2-1.9-4-3.8-6-5.7c-1.1-1.1-2.2-2.1-3.6-3.3c-0.1,1.1-1.5,1.7-0.4,2.8c2.1,2.3,4.2,4.6,6.2,6.9
		c1.3,1.2,2.5,2.5,3.8,3.9c0.3-0.6,0.4-1.1,0.6-1.5C-328.5,869.5-328.9,868.6-329.9,867.7z"/>
	<path fill="none" d="M-350.4,872.1c2.2,4.5,4.8,8.6,8,12.5c1.2-0.7,2.2-1.3,3.4-2c-3.1-4.2-6-8.2-9-12.3
		C-348.8,870.9-349.6,871.5-350.4,872.1z"/>
	<path fill="none" d="M-355.1,874.7c2.5,4.1,5,8.1,7.5,12.1c1.1-0.5,1.9-0.8,2.8-1.3c-2.7-4.1-5.3-8-8-12.1
		C-353.5,873.9-354.2,874.3-355.1,874.7z"/>
	<path fill="none" d="M-331.3,860.1c-2-2-4-3.9-6.1-6c-0.4,0.9-0.6,1.5-0.8,2.1c-0.1,0.2,0,0.6,0.2,0.8c3.3,3.1,6.7,6.2,10.1,9.4
		c0.8-1,0.6-1.9-0.2-2.8C-329.2,862.4-330.2,861.2-331.3,860.1z"/>
	<path fill="none" d="M-666.9,885.3c-0.3,0-0.8,0.4-0.8,0.7c-0.5,3.9-1,7.7-1.5,11.9c1.2,0.1,2.2,0.2,3.2,0.1c0.3,0,0.7-0.4,0.7-0.7
		c0.3-1.2,0.4-2.4,0.6-3.5c0.4-2.8,0.9-5.6,1.3-8.5C-664.6,885.3-665.8,885.2-666.9,885.3z"/>
	<path fill="none" d="M-332.7,852.6c-1-1-2.2-2-3.3-3.1c-0.9,1.6-0.7,2.8,0.7,3.9c1.4,1,2.5,2.3,3.7,3.5c1.6,1.5,3.2,3,4.8,4.5
		c0.8-1.7,0.4-2.9-0.9-4.1C-329.4,855.8-331,854.2-332.7,852.6z"/>
	<path fill="none" d="M-360.5,876.9c2.3,3.9,4.4,7.7,6.7,11.4c0.1,0.2,0.6,0.5,0.8,0.4c1-0.3,2-0.6,3.2-1c-2.5-4.1-5-8-7.5-12
		C-358.3,876.1-359.2,876.4-360.5,876.9z"/>
	<path fill="none" d="M-333,837.8c-0.2-0.3-0.6-0.6-1-1c-0.1,1.1-0.4,1.9-0.3,2.8c0,0.6,0.2,1.4,0.5,1.9c1.4,1.9,2.9,3.7,4.5,5.4
		c1.1,1.3,2.5,2.3,3.7,3.4c0.5-1.6,0.3-2.9-0.7-4.2C-328.5,843.3-330.8,840.6-333,837.8z"/>
	<path fill="none" d="M-662.4,898.2c1.9,0,3.7,0,5.7,0c0.4-4.2,0.8-8.4,1.2-12.7c-1.8,0-3.3,0-4.9,0
		C-661.5,889.6-662.3,893.8-662.4,898.2z"/>
	<path fill="none" d="M-332.5,846.5c-0.8-0.8-1.7-1.5-2.5-2.3c-0.1,0.2-0.1,0.6-0.2,0.8c-0.6,1.4-0.1,2.4,1,3.3
		c1.5,1.3,2.9,2.7,4.3,4c1.2,1.3,2.5,2.4,3.8,3.6c0.6-1.2,0.6-2.1-0.3-3C-328.5,850.8-330.4,848.6-332.5,846.5z"/>
	<path fill="none" d="M-331.5,779.8c-0.5,1.6-0.4,2.6,0.4,3.7c1.2,1.6,2.4,3.2,3.6,4.8c0.2,0.3,0.5,0.5,0.7,0.8
		c0.1-0.1,0.3-0.1,0.4-0.2c-0.1-0.8,0-1.7-0.4-2.3C-328.2,784.4-329.8,782.2-331.5,779.8z"/>
	<path fill="none" d="M-332.6,747.4c-0.1,1.6-0.2,3,1.4,4c0.6,0.4,1.1,1.2,1.6,1.8c0.7,0.9,1.4,1.8,2.3,3
		C-327.2,754.8-331.1,748.5-332.6,747.4z"/>
	<path fill="none" d="M-330.9,774.1c-0.2-0.3-0.4-0.6-0.7-0.9c-0.5,1.7-0.2,3,0.9,4.2c0.6,0.7,1.2,1.5,1.8,2.3
		c0.7,0.9,1.4,1.8,2.4,3c0.2-1.6,0-2.7-0.8-3.7C-328.5,777.4-329.7,775.7-330.9,774.1z"/>
	<path fill="none" d="M-331.3,756.9c1.1,1.3,2.2,2.6,3.3,3.9c0.3,0.5,0.4,0.9,0.7,1.3c0.2-0.2,0.4-0.4,0.6-0.6
		c-1-3.1-3.6-5.2-5.5-7.8C-332.5,755-332.1,756-331.3,756.9z"/>
	<path fill="none" d="M-331.8,765.7c-0.4,2.1-0.1,3.6,1.2,5c0.9,1,1.6,2.2,2.4,3.2c0.4,0.6,0.9,1.1,1.4,1.7c0.4-1.7,0.4-3.4-0.4-4.4
		C-328.6,769.4-330.1,767.7-331.8,765.7z"/>
	<path fill="none" d="M-329.8,789c-0.6-0.7-1.2-1.4-1.8-2.1c-0.1,0-0.3,0.1-0.4,0.1c0.2,1.2-0.1,2.7,0.6,3.6c1.3,1.7,3.2,3.2,5,4.9
		c0.2-1.7,0-2.8-1-3.8C-328.2,790.8-329,789.9-329.8,789z"/>
	<path fill="none" d="M-326.8,768.1c0.2-1.5-0.1-2.6-1-3.5c-1.1-1.3-2.2-2.6-3.3-3.9c-0.2-0.3-0.3-0.7-0.5-1.1
		c-0.2,0.1-0.3,0.3-0.5,0.4c-0.3,1.1-0.2,2.1,0.5,3C-330,764.7-328.5,766.3-326.8,768.1z"/>
	<path fill="none" d="M-333.2,741.1c1.1,3.4,3.6,5.9,5.6,8.7c-0.1-3.9-3.2-6-5-9C-332.8,740.9-333,741-333.2,741.1z"/>
	<path fill="none" d="M-372.8,879.4c-0.7,0-1.3,0.1-2.2,0.3c0.8,4.4,1.6,8.7,2.4,13.1c1.1-0.2,2.1-0.3,3.1-0.5
		c-1-4.4-1.9-8.6-2.9-12.8C-372.6,879.5-372.7,879.4-372.8,879.4z"/>
	<path fill="none" d="M-369.8,879.1c0.9,4.2,1.9,8.5,2.9,12.9c0.9-0.3,1.8-0.5,2.8-0.6c-1.3-3.9-2.5-7.6-3.6-11.3
		C-368.1,878.9-368.6,878.6-369.8,879.1z"/>
	<path fill="none" d="M-365.4,878.1c-0.1,0-0.1,0.1-0.2,0.2c1.3,4.2,2.7,8.3,4,12.7c1.9-0.5,3.6-0.9,5.5-1.4
		c-2-3.5-3.8-6.8-5.7-10.1C-363,877.3-363,877.3-365.4,878.1z"/>
	<path fill="none" d="M-654.2,898.6c2.1,0,4.1,0,6.3,0c0.4-4.3,0.7-8.6,1.1-13c-2.2,0-4.1,0-6.1,0
		C-653.3,889.9-653.8,894.2-654.2,898.6z"/>
	<path fill="none" d="M-329,739.4c-1.1-1.2-2.2-2.4-3.4-3.6c-0.2-0.3-0.6-0.5-0.8-0.7c-0.1,0.1-0.2,0.2-0.3,0.3
		c0.7,3,3.6,4.6,5.2,7.1C-327.9,741.3-328.2,740.3-329,739.4z"/>
	<path fill="none" d="M-326.3,842.6c0.1,0.4,0.4,0.7,0.8,1.2c0-1.8,0.1-3.4,0-4.9c-0.1-0.8-0.4-1.7-0.8-2.4
		c-1.9-2.5-3.9-4.9-5.9-7.4c-0.3-0.3-0.6-0.6-1-1.1c-0.1,1.7-0.3,3.1-0.3,4.5c0,0.5,0.3,1.2,0.6,1.6
		C-330.7,837-328.5,839.8-326.3,842.6z"/>
	<path d="M-814.9,751.8c-1,1.1-2.1,2.3-3.1,3.4c0,1.2,0.1,2.6,0,3.8c0.7-0.9,1.5-1.7,2.2-2.6C-814.5,755-814.7,753.6-814.9,751.8z"
		/>
	<path d="M-814.6,758.7c-1.3,1.4-2.4,2.6-3.4,3.7c0,0.7,0.1,2,0.2,3.7c0.7-0.9,1.4-1.8,2.1-2.6C-814.5,762-814.5,760.6-814.6,758.7z
		"/>
	<path d="M-814.2,765.9c-0.1,0-0.2-0.1-0.4-0.1c-0.1,0.1-0.3,0.1-0.4,0.2c-0.9,1-1.8,2.1-2.6,3.2c0.1,0.9,0.1,1.9,0.2,2.8
		c0.9-1.2,1.7-2.4,2.6-3.6C-814.4,767.7-814.4,766.7-814.2,765.9z"/>
	<path d="M-815,724.6c0.1-1.3,0.1-2.6,0.2-4c-0.1-0.1-0.3-0.1-0.4-0.2c-1,1.2-1.9,2.4-2.9,3.6c0,1.2,0,2.6,0,4.2
		c0.9-0.9,1.7-1.8,2.6-2.7C-815.3,725.3-815,724.9-815,724.6z"/>
	<path d="M-814.1,712.4c-1.1,1.5-2.3,2.9-3.4,4.3c-0.4,2.3-0.6,3.8-0.6,3.8c0,0,0,0,0,0.1c0.9-1,1.8-2,2.7-3
		C-814.2,716.3-813.7,714.5-814.1,712.4z"/>
	<path d="M-815,745.3c-0.2-0.2-0.3-0.3-0.5-0.5c-0.2,0.4-0.3,0.8-0.6,1.2c-0.6,1-1.3,1.9-2,2.9c0,1.6,0,2.8,0,3.3
		c0.5-0.6,1-1.3,1.6-1.9C-815.1,748.7-814.5,747.3-815,745.3z"/>
	<path d="M-815.2,728.2c-1,0.9-1.9,1.9-2.9,2.8c0,0.6,0,1.1,0,1.7c0.7-0.7,1.5-1.3,2.3-1.9C-815,730.2-814.8,729.3-815.2,728.2z"/>
	<path d="M-815.1,737.8c-0.3,0.2-0.5,0.4-0.6,0.5c-0.8,1-1.6,2-2.4,2.9c0,1.4,0,2.8,0,4c0.6-0.8,1.2-1.6,1.9-2.4
		C-815,741.2-814.8,739.7-815.1,737.8z"/>
	<path d="M-815,733.2c-0.1,0-0.2-0.1-0.4-0.1c-0.9,0.8-1.8,1.7-2.7,2.5c0,0.8,0,1.5,0,2.3c0.9-1,1.7-2,2.6-3
		C-815.1,734.5-815.2,733.8-815,733.2z"/>
	<path d="M-708.6,884.5c-0.2,0-0.5,0.2-0.6,0.5c1.1,0,2.2,0.1,3.2,0.1c0-0.2,0.1-0.3,0.1-0.5C-706.9,884.5-707.8,884.4-708.6,884.5z
		"/>
	<path d="M-458.2,884.4c0.6,0,1.3,0,2-0.1C-456.9,884.3-457.5,884.3-458.2,884.4C-458.2,884.4-458.2,884.4-458.2,884.4z"/>
	<path d="M-674.9,885.2C-674.9,885.3-674.9,885.3-674.9,885.2c1.5,0.1,3.1,0.1,4.8,0.1c0,0,0,0,0-0.1
		C-671.9,885.2-673.3,885.2-674.9,885.2z"/>
	<path d="M-463,884.5c0.7,0,1.4,0,2.1,0c0,0,0-0.1,0-0.1C-461.6,884.4-462.3,884.5-463,884.5z"/>
	<path d="M-425.9,883c-0.1,0.1-0.1,0.2-0.2,0.3c1.1,0,2.2-0.1,3.3-0.1c0-0.1,0-0.3-0.1-0.4C-423.9,882.8-424.9,882.9-425.9,883z"/>
	<path d="M-441.4,883.5c0,0.1,0,0.2,0,0.4c1.4,0,2.9-0.1,4.3-0.1c-0.1-0.1-0.3-0.2-0.4-0.2C-438.6,883.5-439.8,883.5-441.4,883.5z"
		/>
	<path d="M-434.2,883.3c0,0.1,0,0.2,0,0.3c1.5-0.1,3.1-0.1,4.7-0.2c0-0.1,0-0.2,0-0.4C-430.9,883.2-432.5,883.2-434.2,883.3z"/>
	<path d="M-447.5,883.8c-0.5,0-0.8,0.1-1,0.3c1.5,0,3-0.1,4.6-0.1c0-0.1,0-0.1,0-0.2C-445.3,883.8-446.4,883.8-447.5,883.8z"/>
	<path d="M-703.3,884.7c0,0.2-0.1,0.3-0.1,0.5c2.7,0.1,4.5,0.2,4.7,0.2c0,0,0.2,0,0.4,0c0-0.2,0.1-0.4,0.1-0.6
		C-699.9,884.7-701.5,884.7-703.3,884.7z"/>
	<path d="M-715.2,884.4c0,0.1,0,0.2-0.1,0.3c1.1,0,2.2,0.1,3.3,0.1c0-0.2,0-0.3,0.1-0.5C-713.1,884.4-714.1,884.4-715.2,884.4z"/>
	<path d="M-694.5,884.7c-0.3,0-0.6,0.3-0.8,0.6c1.2,0,2.7,0,4.5,0c0-0.2,0.1-0.4,0.1-0.6C-692.1,884.7-693.3,884.7-694.5,884.7z"/>
	<path d="M-681.4,885.1c0,0.1,0,0.1,0,0.2c1.2,0,2.5,0,3.8,0c0-0.1,0-0.1,0-0.2C-679,885.1-680.1,885.1-681.4,885.1z"/>
	<path d="M-687.2,884.8c-0.2,0-0.5,0-0.9,0c0,0.2,0,0.3-0.1,0.5c1.2,0,2.4,0,3.7,0C-684.8,884.8-685.6,884.8-687.2,884.8z"/>
	<path d="M-805.3,693.6c0.9-1.3,2.1-2.4,3.4-3.4c7.3-6.1,15.9-9,25.2-10.3c4.1-0.6,8.3-0.8,12.4-1.2c0.4,0,0.8-0.2,1.2-0.4
		c0.4-0.4,1-0.9,1.6-1.3h-3.2c-0.6,0.4-1.2,0.9-1.6,1.3c-0.4,0.2-0.8,0.4-1.2,0.4c-4.1,0.4-8.3,0.6-12.4,1.2
		c-9.3,1.3-17.9,4.2-25.2,10.3c-1.3,1-2.1,2.5-3.4,3.4c-2.2,1.5-4,4.9-5.4,8.8c0.2-0.1,0.3-0.3,0.5-0.4
		C-810.7,699.3-807.6,696.8-805.3,693.6z"/>
	<path d="M-720.8,884.1c0,0.1-0.1,0.3-0.1,0.4c1,0,2,0.1,3,0.1c0-0.1,0-0.2,0.1-0.3C-718.8,884.2-719.7,884.2-720.8,884.1z"/>
	<path d="M-660,879.2c-10.6,0-21.2,0-31.7,0c11.7,0,23.3,0,35,0c8.8,0,17.6-0.1,26.4-0.1h-3.2C-642.4,879.1-651.2,879.2-660,879.2z"
		/>
	<path d="M-414.8,882.2c-1.7,0.1-3.2,0.2-5.1,0.3c0,0.2,0,0.4,0.1,0.6c1.7-0.1,3.4-0.2,5.1-0.2
		C-414.8,882.7-414.8,882.5-414.8,882.2z"/>
	<path d="M-381,880.2c0,0.1,0,0.2,0,0.2c1.2-0.1,2.3-0.3,3.4-0.4c0,0,0-0.1,0-0.1C-378.8,880-379.8,880.1-381,880.2z"/>
	<path d="M-412.2,882.2c0,0.2,0,0.3,0,0.5c1.6-0.1,3.2-0.2,4.8-0.3c0-0.2,0-0.4,0-0.6C-409.1,882-410.6,882.1-412.2,882.2z"/>
	<path d="M-404.6,881.8c0,0.2,0,0.3,0,0.5c1.2-0.1,2.4-0.1,3.6-0.2c0-0.2,0-0.4,0-0.6C-402.3,881.6-403.4,881.7-404.6,881.8z"/>
	<path d="M-398.1,881.4c0,0.2,0,0.3,0,0.5c0.9-0.1,1.9-0.1,2.8-0.2c0-0.2,0-0.3-0.1-0.5C-396.3,881.3-397.2,881.3-398.1,881.4z"/>
	<path d="M-392.4,881c0,0.2,0,0.3,0,0.5c1-0.1,2.1-0.2,3.1-0.2c0-0.1,0-0.3-0.1-0.5C-390.5,880.9-391.4,881-392.4,881z"/>
	<path d="M-386.4,880.5c-0.1,0-0.1,0.1-0.3,0.2c0,0.1,0,0.2,0,0.3c1-0.1,1.9-0.2,2.9-0.3C-384.2,880.3-384.9,880.4-386.4,880.5z"/>
	<path d="M-814,775c0.2-0.9,0-1.8-0.1-2.8c-0.1-0.1-0.2-0.2-0.4-0.3c-0.2,0.3-0.4,0.6-0.6,0.9c-0.7,1.1-1.4,2.1-2.1,3.2
		c0.1,2.3,0.2,4.2,0.2,4.8c0,0,0,0,0,0.1c0.7-0.8,1.3-1.6,2-2.5C-814.3,777.5-814.1,776.1-814,775z"/>
	<path d="M-809.6,834.6c0-0.9-0.2-2-0.3-3.1c-0.3,0.2-0.4,0.2-0.5,0.3c-0.9,1-1.8,2.1-2.6,3.2c0.2,1.1,0.3,2.3,0.5,3.4
		c0.8-0.9,1.6-1.8,2.5-2.7C-809.7,835.4-809.5,835-809.6,834.6z"/>
	<path d="M-811,820.6c0-1.9-0.3-3.8-0.5-5.8c-0.3,0.2-0.4,0.3-0.5,0.4c-0.9,1.3-1.8,2.6-2.7,3.9c0.1,1.9,0.3,3.8,0.5,5.7
		c0.7-0.6,1.4-1.2,2.1-1.8C-811.5,822.5-811,821.4-811,820.6z"/>
	<path d="M-810.7,824.8c-0.2,0.1-0.3,0.1-0.4,0.1c-0.4,0.3-0.8,0.7-1.2,1c-0.6,0.5-1.1,1.1-1.6,1.6c0.1,1.4,0.3,2.8,0.5,4.2
		c0.6-0.7,1.3-1.3,1.9-2C-810.4,828.3-810,826.6-810.7,824.8z"/>
	<path d="M-809.3,838.4c-0.1,0.1-0.2,0.1-0.3,0.1c-0.8,0.9-1.6,1.8-2.4,2.8c0.2,1.2,0.5,2.4,0.7,3.6c0.4-0.6,0.8-1.2,1.3-1.7
		C-808.9,841.6-808.6,840.2-809.3,838.4z"/>
	<path d="M-807.6,848.2c-0.1-1.2-0.4-2.2-0.7-3.6c-0.8,1-1.6,2-2.3,3c0.3,1.3,0.7,2.7,1,3.9c0.6-0.7,1.1-1.4,1.7-2.1
		C-807.6,849.2-807.5,848.6-807.6,848.2z"/>
	<path d="M-806,854c-0.1-0.7-0.4-1.4-0.7-2.5c-0.3,0.4-0.4,0.7-0.6,0.9c-0.5,0.6-1,1.3-1.4,1.9c0.3,0.9,0.6,1.7,0.9,2.6
		c0.5-0.6,1-1.2,1.5-1.8C-806.1,854.9-806,854.4-806,854z"/>
	<path d="M-812.6,800.7c-0.2,0.2-0.4,0.3-0.5,0.5c-0.8,1-1.6,2-2.4,3c0.1,1.4,0.1,2.8,0.2,4.3c0.4-0.6,0.9-1.2,1.3-1.7
		C-812.6,804.9-811.9,803.1-812.6,800.7z"/>
	<path d="M-813.5,784.5c0.1-1.1-0.1-2.3-0.2-3.8c-0.9,1.1-1.7,1.9-2.4,2.7c-0.2,0.2-0.3,0.4-0.5,0.6c0.1,1.1,0.3,2.3,0.4,3.4
		c0.7-0.6,1.4-1.2,2.1-1.8C-813.8,785.4-813.5,784.9-813.5,784.5z"/>
	<path d="M-813.4,788.1c-0.2,0.1-0.4,0.2-0.5,0.3c-0.7,0.6-1.3,1.1-2,1.7c0,0.4,0.1,0.8,0.1,0.9c0,0.9,0,1.7,0.1,2.6
		c0.4-0.4,0.7-0.7,1.1-1.1C-813.4,791.2-812.9,789.9-813.4,788.1z"/>
	<path d="M-813.1,793.9c-0.9,0.8-1.7,1.7-2.5,2.6c0,0-0.1,0.1-0.1,0.1c0,1.4,0.1,2.8,0.1,4.3c0.5-0.6,1-1.3,1.5-1.9
		C-812.7,797.4-812.6,795.9-813.1,793.9z"/>
	<path d="M-812,807.9c-0.5,0.6-0.8,1.1-1.2,1.6c-0.6,0.9-1.3,1.8-1.9,2.7c0.1,1.1,0.1,2.2,0.2,3.3c0.7-1,1.5-2.1,2.2-3.1
		C-811.7,811-811.7,809.7-812,807.9z"/>
	<path d="M-803.8,860.1c-0.4-1-0.8-1.9-1.3-3c-0.5,0.6-0.9,1-1.2,1.5c-0.2,0.2-0.3,0.5-0.5,0.7c0.5,1.2,1.1,2.3,1.6,3.3
		c0.4-0.5,0.8-1,1.2-1.6C-803.8,860.9-803.7,860.4-803.8,860.1z"/>
	<path d="M-796,871.4c-0.2,0.4-0.4,0.8-0.7,1.2c0.5,0.4,1.1,0.8,1.6,1.2c0.2-0.4,0.4-0.8,0.6-1.2
		C-794.9,872.3-795.4,871.9-796,871.4z"/>
	<path d="M-802.5,863c-0.2,0.1-0.3,0.1-0.3,0.2c-0.4,0.5-0.8,1-1.2,1.5c0.6,1,1.3,1.9,2,2.8c0.4-0.6,0.8-1.1,1.1-1.7
		C-801.3,865-801.9,864-802.5,863z"/>
	<path d="M-782.2,879.5c0.9,0.2,1.8,0.4,2.7,0.6c-0.7-0.2-1.6-0.5-2.6-0.8C-782.1,879.4-782.2,879.5-782.2,879.5z"/>
	<path d="M-755.4,883.3C-755.4,883.3-755.4,883.3-755.4,883.3c1.1,0.1,2.1,0.1,3.2,0.2c0-0.1,0-0.1,0-0.2
		C-753.2,883.3-754.3,883.3-755.4,883.3z"/>
	<path d="M-749.4,883.5c0,0,1.4,0.1,3.2,0.1c0-0.1,0-0.1,0-0.1C-747.3,883.5-748.2,883.5-749.4,883.5z"/>
	<path d="M-733,884c0,0,1.2,0.1,3.2,0.2c0-0.1,0-0.1,0.1-0.2C-731,884-731.9,884-733,884z"/>
	<path d="M-737.7,884c0.9,0,1.5,0,1.5,0h0.5c0-0.1,0-0.2,0.1-0.3C-736.5,884-737.3,883.4-737.7,884z"/>
	<path d="M-742.3,883.6c-0.4-0.1-0.6,0-0.8,0.2c0.9,0,1.8,0.1,2.6,0.1c0-0.1,0-0.2,0.1-0.3C-741.1,883.6-741.7,883.7-742.3,883.6z"
		/>
	<path d="M-787.6,877.1c-0.1,0.2-0.1,0.4-0.2,0.6c1.1,0.4,2.2,0.8,3.4,1.2c0-0.1,0.1-0.2,0.1-0.2
		C-785.4,878.1-786.4,877.6-787.6,877.1z"/>
	<path d="M-726.1,884c-0.2,0-0.4,0.1-0.6,0.3c1,0,2,0.1,3.1,0.1c0-0.1,0.1-0.3,0.1-0.4C-724.5,884-725.3,884-726.1,884z"/>
	<path d="M-799.3,868.1c-0.3,0.4-0.6,0.9-0.9,1.3c0.6,0.6,1.2,1.1,1.7,1.7c0-0.1,0.1-0.1,0.1-0.2
		C-797.6,869.5-797.7,869.2-799.3,868.1z"/>
	<path d="M-792.2,874.3c-0.2,0.3-0.3,0.7-0.5,1c0.8,0.5,1.6,0.9,2.5,1.3c0.1-0.3,0.2-0.6,0.3-0.8
		C-790.7,875.3-791.4,874.9-792.2,874.3z"/>
	<path d="M-319.2,827.2c-0.2-12.3-0.5-24.6-0.7-36.9c-0.2-8.1-0.3-16.1-0.5-24.2c-0.2-9.8-0.3-19.5-1.6-29.2
		c-1.6-11.7-4.6-23-11.1-33.1c-2.6-4-5.7-7.5-9.2-10.6c-0.4-0.4-0.9-0.8-1.2-1.3c-5.2-7.4-12.4-11.7-21.1-13.2
		c-4.3-0.8-8.7-1.2-13.1-1.3c-16.2-0.2-32.4-0.2-48.6-0.2c-1.1,0-2.2,0-3.2,0c16.2,0,32.4,0,48.6,0.2c4.4,0.1,8.7,0.9,13.1,1.3
		c15.9,1.6,21.9,14.1,22.3,14.5c10.2,12.3,10.2,100.4,10.2,100.4c0,0,0,0,0,0c0,0-0.2,18.7-0.2,18.7c0,0-1.2,23.6-1.4,24.8
		c-0.1-0.1-2.6,11.4-3.8,15.2c-2.3,7.1-5.4,14-11.4,18.6c-6.7,5-13.3,6.1-19.4,8c-1.4,0.4-3.5,0.8-6,1.2c0.8,4.4,1.6,8.6,2.4,13.1
		c-1,0.1-2,0.3-3.1,0.4c-0.9-4.4-1.8-8.6-2.7-13.1c-0.9,0.1-1.9,0.2-2.9,0.3c0.3,0.3,0.4,0.9,0.6,2c0.7,3.4,1.3,6.7,2,10.1
		c0.1,0.3,0.1,0.6,0.1,1c-1.2,0.2-2.2,0.3-3.4,0.4c-1.3-4.4-1.8-8.8-2.2-13.2c-0.9,0.1-1.7,0.2-2.7,0.2c0.7,4.4,1.5,8.8,2.1,13.2
		c-1.3,0.1-2.5,0.3-3.7,0.4c-1.1-4.4-1.6-8.9-1.5-13.4c-1,0.1-1.9,0.1-2.9,0.2c0.6,4.5,1.1,9,1.5,13.5c-1.1,0.1-2.1,0.3-3.1,0.4
		c-0.9-4.5-1.3-9-1.2-13.7c-0.9,0.1-1.9,0.1-2.9,0.2c0.4,4.6,0.8,9.1,1.2,13.8c-1.3,0.1-2.4,0.2-3.5,0.3c-1-4.6-1.2-9.2-1.3-13.9
		c-0.9,0.1-1.8,0.1-2.8,0.2c0.4,4.7,0.8,9.3,1.2,14c-4,0.4-7.9,0.8-11.8,1c-0.6-4.9-1.2-9.5-1.8-14.4c-1,0-1.9,0.1-2.9,0.1
		c0.7,4.9,1.3,9.7,1.9,14.7c-1.6,0.2-3.1,0.3-4.8,0.5c-0.2-2.3-0.5-4.5-0.7-6.8c-0.1-1.2-0.2-2.4-0.3-3.6c-0.2-1.6-0.3-3.2,0.5-4.7
		c-1.1,0-2.3,0.1-3.4,0.1c0.4,5.1,0.8,10.1,1.3,15c-1.5,0.1-2.8,0.2-4.4,0.3c-0.6-5.1-1.1-10-1.6-15.2c-1,0-1.9,0.1-2.8,0.1
		c0.2,0.2,0.4,0.5,0.4,0.8c0.3,2.7,0.5,5.4,0.8,8.1c0.2,2,0.4,4,0.6,6.2c-1.5,0.2-3,0.3-4.7,0.4c-0.5-5.1-1-10-1.5-15.3
		c-0.9,0-1.8,0.1-2.6,0.1c0.5,5.1,1,10.2,1.5,15.3c-1.8,0.1-3.4,0.2-5.1,0.2c-0.3-1.7-0.7-3.4-0.8-5.1c-0.2-3.1-0.3-6.3-0.4-9.4
		c0-0.4,0.1-0.7,0.3-0.9c-2.8,0.1-5.3,0.1-7.7,0.2c1.5,0,2.9,0,4.3,0c0.4,5.1,0.9,10.2,1.4,15.4c-1.9,0.2-4,0.3-6.1,0.4
		c-0.1,0-0.5-0.4-0.5-0.6c-0.4-5-0.7-10-1.1-15.1c-0.9,0-1.8,0-2.7,0.1c0.4,5.3,0.8,10.4,1.2,15.8c-1.8,0-3.5,0-5.5,0
		c-0.2-5.1-0.5-10.2-0.7-15.6c1-0.1,2-0.1,2.9-0.1c-3.8,0.1-6.1,0.1-6.2,0.1c0,0.1-139.5,0.5-201,0.7c-0.6,4.2-1.1,8.3-1.6,12.3
		c-1.7,0-3.3,0-5,0c0.6-4.2,1.2-8.3,1.8-12.3c-0.9,0-1.8,0-2.7,0c-0.6,4.1-1.2,8.1-1.8,12c-1.1,0-2,0-3,0c0.3-4,0.7-8.1,1-12
		c-1.1,0-2.1,0-3.1,0c0.3,0.4,0.3,1.2,0.2,2.6c-0.2,3-0.5,6-0.8,9.1c-1.6,0-3.1,0-4.7,0c0.6-3.9,1.1-7.8,1.6-11.7
		c-0.9,0-1.8,0-2.6,0c-0.6,4-1.1,7.7-1.5,11.3c-1.6,0-3.1,0-4.8,0c0.3-2.6,0.6-5.1,1-7.5c0.2-1.2,0.5-2.5,0.8-3.7c0,0,0,0,0-0.1
		c-1.4,0-2.4,0-2.9,0c-0.6,3.7-1.1,7.4-1.7,11c-1.9,0-3.7,0-5.7,0c0.8-3.8,1.5-7.5,2.2-11.1c-0.8,0-1.7-0.1-2.6-0.1
		c-0.8,3.7-1.4,7.4-2.2,11c-0.9,0-1.6,0-2.7,0c0.6-3.8,1-7.4,1.6-10.9c0-0.1,0-0.2,0.1-0.2c-0.9,0-1.8-0.1-2.7-0.1
		c-0.5,3.7-1,7.4-1.4,11.1c-1.2-0.1-2.3-0.1-3.5-0.2c0.6-3.8,1.1-7.5,1.6-11.1c-0.9,0-1.7-0.1-2.6-0.1c-0.6,3.7-1.1,7.3-1.6,10.9
		c-1.1,0-2.1,0-3.4,0c0.7-3.8,1.3-7.3,2-11c-0.9,0-1.8-0.1-2.7-0.1c-0.5,2.6-0.9,5-1.2,7.3c-0.1,0.6-0.2,1.2-0.3,1.8
		c-0.3,2-0.1,1.7-2,1.7c-1,0-2,0-3.1-0.1c0.5-3.8,1.7-7.3,3.4-10.6c0-0.1,0.1-0.1,0.1-0.2c-1.1,0-2.2-0.1-3.1-0.1
		c-1.2,3.6-2.4,7.2-3.5,10.7c-0.7,0-1.3,0-2,0c0.8-3.7,1.5-7.3,2.3-10.9h-2.8c-0.5,2.5-1,4.8-1.4,7.1c-0.1,0.9-0.4,1.7-0.5,2.6
		c-0.1,0.9-0.5,1.2-1.4,1c-0.5-0.1-1,0-1.7,0c1-3.6,1.9-6.9,2.9-10.4c0.1-0.1,0.1-0.3,0.2-0.3c-0.7,0-1.7-0.1-2.8-0.1
		c-1,3.5-1.9,6.8-2.9,10.1c-0.1,0.3-1.1,0.5-1.7,0.5c-0.4-0.1-1-0.5-1.1-0.8c-0.1-0.7,0-1.5,0.2-2.2c0.8-2.3,1.6-4.6,2.4-7
		c0.1-0.3,0.3-0.6,0.5-0.7c-1.1,0-2.1-0.1-3-0.1c-0.2,0.8-0.4,1.5-0.6,2.2c-0.7,2.6-1.5,5.2-2.3,7.7c-0.1,0.3-0.6,0.7-0.9,0.7
		c-0.7,0.1-1.5,0-2.3,0c1-3.6,1.9-7.1,2.7-10.7h-2.4c-0.1,0-0.2,0-0.3,0c-0.8,2.8-1.4,5.4-2.1,8c0,0.2-0.1,0.3-0.1,0.5
		c-0.6,2.4-0.6,2.4-3.4,1.9c0.9-3.3,1.9-6.5,2.8-9.8c-1.7-1.1-2.4-0.9-2.9,0.8c-0.8,2.6-1.6,5.2-2.3,7.9c-0.2,1-0.7,1.4-2.1,0.9
		c0.9-3.5,1.9-7,2.8-10.4c1.4,0,2.7,0,4.1,0l0,0h-0.1c-8.1-0.5-16.2-1.5-24.1-3.2c0.2,0.1,0.4,0.1,0.6,0.2
		c-1.7,3.8-3.4,7.5-5.1,11.1c-0.2,0.3-0.7,0.6-1,0.6c-0.7,0-1.5-0.2-2.5-0.3c1.9-4,3.6-8.1,5.3-12.2c-0.1,0-0.1,0-0.2,0
		c-0.7-0.2-1.4-0.4-2.1-0.6c-0.1,0.2-0.2,0.4-0.3,0.7c-1.6,3.5-3.2,7-4.7,10.6c-0.5,1.2-1.1,1.5-2.2,1.2c-0.3-0.1-0.6-0.2-1.2-0.3
		c1.6-4.5,3.3-8.8,5-13.3c-0.8-0.3-1.6-0.7-2.4-1c-1.7,4.6-3.4,9.2-5.2,14c-1.4-0.3-2.7-0.6-4.3-1c2.3-4.9,4.7-9.5,7-14.3
		c-0.8-0.5-1.6-1-2.4-1.5c-2.3,5.1-4.6,10-7,15c-0.9-0.3-1.8-0.7-2.7-1.1c2.7-5.1,5.4-10,8.1-15.1c-0.6-0.5-1.2-1-1.8-1.5
		c-2.6,4.7-5.1,9.4-7.7,14.1c-0.2,0.3-0.4,0.6-0.7,1.1c-0.8-0.8-1.6-1.6-2.5-2.4c2.7-5.1,5.7-9.9,9.2-14.5c-0.4-0.4-0.8-0.8-1.1-1.2
		c-0.2-0.2-0.4-0.5-0.6-0.7c-3,4.6-6.1,9.2-9.2,13.8c-0.8-0.5-1.2-1.2-0.8-2.3c2.1-5.1,4.7-9.9,7.9-14.3c-0.4-0.7-0.8-1.4-1.2-2.1
		c-3.1,4-5.7,8.2-7.9,12.8c-0.1,0-0.1,0.1-0.4,0.3c-0.1-2.1-1.4-3.8-0.1-6c2.1-3.6,4.2-7.2,6.8-10.5c-0.3-0.8-0.7-1.6-1-2.4
		c-2.8,3.3-5.3,7-7.4,10.8c-0.1,0.2-0.3,0.4-0.6,0.8c-0.8-2.3-0.7-4.2,0.8-6c2.1-2.8,4.2-5.5,6.3-8.2c-0.3-0.9-0.6-1.8-0.9-2.7
		c-2.5,3.1-5.1,6.1-7.6,9.2c-0.6-0.9-0.6-1.9-0.1-2.8c1.9-3.6,4.2-7,6.7-10.4c-0.2-0.9-0.4-1.9-0.6-2.8c-2.3,3.2-4.6,6.4-6.9,9.6
		c-0.2,0-0.3,0-0.4,0c0.1-0.9-0.2-1.9,0.2-2.7c1.7-3.8,3.9-7.2,6.4-10.4c-0.2-1-0.3-1.9-0.5-2.9c-2.5,2.9-4.6,6-6.6,9.2
		c-0.1,0.1-0.2,0.2-0.6,0.5c0.1-0.8,0-1.5,0.2-2c1.8-3.9,3.9-7.7,6.5-11.1c-0.2-1.1-0.3-2.2-0.4-3.3c-0.2,0.3-0.5,0.5-0.6,0.8
		c-1.8,2.5-3.5,5.2-5.3,7.8c-0.3,0.5-0.6,1-1,1.7c-0.7-2.4-0.7-4.5,0.5-6.5c1.9-2.8,3.7-5.5,6-8c-0.1-0.9-0.2-1.8-0.3-2.8
		c-2.8,2.5-5.1,5.4-7.1,8.5c0,0.1-0.1,0.2-0.4,0.4c-0.2-1.1-0.4-2-0.4-2.9c-0.1-0.4,0.1-0.9,0.3-1.3c2.3-3.5,4.7-7,7.1-10.4
		c-0.1-1.2-0.2-2.4-0.2-3.6c-2.2,3.1-4.3,6.3-6.5,9.4c-0.3,0.4-0.7,0.9-1,1.4c-0.1,0-0.2-0.1-0.3-0.1c-0.2-1.4-0.4-2.8-0.5-3.5
		c1-1,1.9-1.7,2.5-2.6c1.9-2.6,3.8-5.3,5.6-7.9c-0.1-1.3-0.1-2.5-0.2-3.8c-2.4,3.3-4.8,6.7-7.2,10c-0.2,0.3-0.5,0.6-0.8,1
		c-0.5-1.2-0.6-2.3,0-3.3c2.4-4.1,4.9-8.1,7.8-11.9c0-1.1-0.1-2.2-0.1-3.3c-2.7,3.4-5.2,7-7.7,10.5c-0.3,0.3-0.5,0.6-0.8,1.1
		c-1-2.8-0.5-5.3,1.2-7.3c2.4-3,4.8-5.7,7.2-8.6c0-1,0-2-0.1-3c-2.8,2.9-5.5,6-8.2,9c-0.3,0.4-0.6,0.8-1,1.2
		c-0.5-1.2-0.4-2.3,0.1-3.1c2.6-3.9,5.6-7.5,9-10.6c-0.1-0.7-0.2-1.6-0.3-2.7c-3.3,2.9-6.4,6.1-9.1,9.5c-0.1,0-0.2,0-0.3,0.1
		c-0.6-0.9-0.1-1.6,0.4-2.3c2.8-3.6,5.7-7.2,8.6-10.8c-0.2-1.6-0.3-2.8-0.4-3.2c-2.9,3.6-5.9,7.1-8.9,10.6c-0.1,0-0.3-0.1-0.4-0.1
		c0.2-0.9,0.1-1.8,0.5-2.5c2.8-4.3,5.7-8.6,8.6-12.9c-0.1-1.2-0.1-2.6-0.2-3.9c-3,4.2-6,8.5-8.9,12.7c-0.1,0-0.3-0.1-0.4-0.1
		c0.1-0.8,0-1.8,0.4-2.5c2.6-4.5,5.5-8.8,8.8-12.9c-0.1-1.1-0.1-2.1-0.2-3.1c-2.8,3.6-5.5,7.2-8.2,10.8c-0.2,0.4-0.5,0.7-0.7,1.1
		c-0.1-0.1-0.3-0.1-0.5-0.2c0.2-1.3,0.2-2.6,0.7-3.8c2-4.5,5.2-8,8.4-11.5c0,0,0,0,0.1-0.1c0-0.3,0-0.5,0-0.5
		c0.1-0.3,0.1-1.5,0.2-2.9c-2.7,3.2-5.4,6.4-8.1,9.5c-0.4,0.5-0.7,0.9-1.1,1.3c-0.1-0.1-0.2-0.1-0.3-0.2c2.1-5.4,5.5-9.9,9.4-14.4
		c0-1.4-0.1-2.5-0.1-2.7c0,0,0-0.1,0-0.3c-3,3.6-5.9,7.4-8.9,11c-0.1,0.2-0.3,0.4-0.7,0.4c0.2-0.5,0.2-1.1,0.5-1.5
		c3-4.4,6.1-8.8,9.1-13.2c0-1,0-2.3,0-3.6c-3,3.9-5.8,7.8-8.7,11.7c-0.2,0.3-0.4,0.5-0.8,0.8c0-1.8-0.7-3.7,0.6-5.3
		c2.9-3.8,5.9-7.5,8.9-11.3c0-1.1,0-2.2,0-3.3c-2.6,3-5.2,6-7.7,9c0,0.1-0.1,0.1-0.5,0.3c2.2-4.4,5-8.2,8.2-11.6c0-1,0-2,0-2.9
		c-3.2,2.9-6,6.1-8.3,9.7c-0.1,0.1-0.2,0.1-0.3,0.2c1.9-4.6,5.1-8.2,8.6-11.6c0-1,0-1.9,0-2.8c-2.8,2.9-5.6,5.7-8.3,8.6
		c-0.1,0-0.1,0.1-0.2,0.1s-0.3-0.1-0.4-0.1c0.3-1,0.4-2.1,1-2.9c2.6-3.3,5.3-6.6,7.9-9.9c0-1.8,0-3.1,0-3.3
		c-1.9,2.1-3.7,4.3-5.6,6.3c-0.3,0.3-0.7,0.7-1,1c-0.1,0-0.2-0.1-0.3-0.2c2.1-4,4.7-7.5,7.5-11.1c0.6-3.7,1.8-9.4,3.5-14.3
		c-6.1,6-11.6,12.3-15.2,20.2c-2.4,5.1-3.7,10.5-4.3,16.1c-0.4,2.6-0.7,5.3-1,7.9c0,2,0,4,0,6c0.1,1,0.4,1.9,0.4,2.9
		c0.4,9.1,0.6,18.2,1.3,27.3c0.5,8.8,1.2,17.6,2.1,26.4c0.9,8.8,1.9,17.7,3.2,26.5c1.7,12.2,3.4,24.4,6.5,36.3
		c0.8,3.2,2,6.4,3.5,9.3c3,5.9,8.1,9.3,14.4,11c7.1,1.9,14.3,3,21.7,3.4c5.8,0.3,11.5,1,17.3,1.4c8.1,0.6,16.3,1.1,24.4,1.6
		c8.3,0.5,16.5,0.8,24.7,1.2c13.3,0.6,26.6,1.2,39.9,1.7c13.8,0.6,27.6,1.1,41.4,1.6c12.5,0.4,25.1,0.8,37.7,1.2
		c3,0.1,6.1,0.1,9.2,0.2c0.4,0,0.8,0.5,1.2,0.7c0.6,0,1.1,0,1.7,0c0.6-0.2,1.1-0.6,1.6-0.6c12.3,0.1,24.5,0.3,36.7,0.4
		c0.4,0,0.7,0.1,1.1,0.2c7.2,0,14.5,0,21.8,0c0.5-0.1,0.9-0.2,1.3-0.2c8.9-0.2,17.7-0.2,26.6-0.4c10.5-0.2,21-0.6,31.5-1.1
		c15.9-0.9,31.9-1.7,47.8-2.9c14.4-1.1,28.8-2.6,43.2-4.1c6.6-0.7,13.3-1.5,19.8-2.7c6.2-1.1,12.1-3.3,17.4-7c2.8-1.9,5.2-4.3,7.3-7
		c0.6-0.7,1.3-1.3,1.9-2c0.1-0.1,0.2-0.3,0.3-0.4c1.8-4.7,4.3-9.2,5-14.2c0.6-4.5,1-9.1,1.5-13.6c0-0.3,0.1-0.7,0.2-1.1
		c0-5.4,0-10.7,0-16.1C-319,830.8-319.2,829-319.2,827.2z M-776.6,891.5c-0.3,1.1-0.9,1.3-1.9,1.1c-0.9-0.1-1.8-0.2-3.1-0.3
		c1.2-2.6,2.3-5.1,3.5-7.6c0.3-0.8,0.9-1.5,1.2-2.3c0.4-1.3,1.2-1.5,2.4-1.1c0.4,0.1,0.8,0.2,1.4,0.3c-1,2.6-1.8,5-2.7,7.5
		C-776,889.9-776.4,890.7-776.6,891.5z M-769.6,890.6c-1.2,3.2-1.3,3.3-4.8,2.3c1.2-3.4,2.4-6.8,3.7-10.2c0.1-0.3,0.5-0.5,0.8-0.5
		c1,0.1,2,0.3,3.2,0.4c-1,2.6-1.9,5.2-2.8,7.7C-769.5,890.4-769.6,890.5-769.6,890.6z M-764.3,891.3c-0.7,2.5-0.7,2.5-3.7,2.1
		c1.3-3.5,2.5-6.8,3.8-10c0.2-0.3,1.3-0.3,2.3-0.6C-762.8,885.9-763.5,888.6-764.3,891.3z M-664.7,893.8c-0.2,1.1-0.3,2.3-0.6,3.5
		c0,0.3-0.4,0.7-0.7,0.7c-1,0.1-2,0-3.2-0.1c0.5-4.2,1-8,1.5-11.9c0-0.3,0.5-0.7,0.8-0.7c1.1-0.1,2.3,0,3.5,0
		C-663.8,888.2-664.3,891-664.7,893.8z M-656.7,898.2c-2,0-3.8,0-5.7,0c0.1-4.4,0.9-8.6,2-12.7c1.6,0,3.1,0,4.9,0
		C-655.9,889.8-656.3,894-656.7,898.2z M-647.9,898.6c-2.2,0-4.2,0-6.3,0c0.4-4.4,0.9-8.7,1.3-13c2,0,3.9,0,6.1,0
		C-647.2,890-647.5,894.3-647.9,898.6z M-632.4,899.1c-4.3,0-8.5,0-12.8,0c0.1-2.2,0.1-4.2,0.3-6.2c0.2-2.1,0.5-4.1,0.7-6.1
		c0.1-0.8,0.4-1.2,1.3-1.1c1.3,0.1,2.5,0,3.9,0c0,2.3,0,4.5,0,6.7c0,1.8-0.1,3.7-0.1,5.5c0,1.1,1,1.1,1.7,1.1s1.2-0.4,1.2-1.3
		c0-3.9,0-7.8,0-11.7c1.6,0,3,0,4.5,0C-631.9,890.5-632.2,894.8-632.4,899.1z M-626.2,899.5c-4.2,0.3-3.6,0.2-3.5-3.2
		c0.1-3.1,0.3-6.2,0.5-9.3c0.1-0.3,0.1-0.7,0.2-1.1c0.9,0,1.8,0,2.8,0C-626.2,890.5-626.2,895-626.2,899.5z M-622.4,899.9
		c-1.2-0.4-1.3-1.6-1.3-2.7c0-2.8,0.1-5.6,0.2-8.4c0.1-2.9,0.1-2.9,3-2.8c0.3,0,0.6,0,1,0c0,4.7,0,9.3,0.1,14
		C-620.5,900-621.5,900.2-622.4,899.9z M-612.4,900.2c-1.5,0-2.8,0-4.3,0c0-4.7,0-9.3,0-14c1.6,0,3.1,0,4.7,0
		C-612.2,890.9-612.3,895.5-612.4,900.2z M-606,900.5c-1.3,0-2.4,0-3.7,0c-0.4-4.9,0.1-9.6,0.5-14.4c1.3,0,2.4,0,3.6,0
		C-605.7,890.9-605.9,895.7-606,900.5z M-600,900.7c-1.2,0-2.2,0-3.2,0c0-0.2-0.1-0.5-0.1-0.7c0.2-4.3,0.3-8.6,0.5-12.9
		c0-0.6,0.2-1,1-0.9s1.7,0,2.7,0C-599.4,891.2-599.7,895.9-600,900.7z M-593.4,901c-1.2,0-2.3,0-3.4,0c-0.1-0.3-0.2-0.5-0.2-0.7
		c0.2-4.4,0.4-8.7,0.7-13.1c0-0.7,0.3-1,1-1s1.4,0,2.2,0C-593.3,891.2-593.4,896-593.4,901z M-586.7,901.3c-1,0-2.2,0.1-3.4,0
		c-0.2,0-0.6-0.5-0.6-0.8c0.1-4.5,0.2-9.1,0.4-13.6c0-0.3,0.5-0.7,0.8-0.7c0.8-0.1,1.7,0,2.8,0.1
		C-586.7,891.3-586.7,896.3-586.7,901.3z M-580.6,901.3c-1.1,0-2,0-3.2,0.1c0-5,0-10,0-15c0,0,0.1-0.1,0.2-0.1c2.8,0,2.8,0,2.8,2.8
		c0,3.7,0.1,7.4,0.2,11.1C-580.6,900.5-580.6,900.9-580.6,901.3z M-577.8,901.5c-0.1-2.4-0.3-4.6-0.3-6.9c-0.1-2.4,0-4.7,0-7.1
		c0-1.4,0-1.4,1.6-1.1c0.4,5,0.8,9.9,1.3,15.1C-576.1,901.5-576.9,901.5-577.8,901.5z M-569.8,901.7c-2.6-0.1-2.7-0.1-3-2.7
		c-0.4-4.1-0.7-8.3-1.1-12.6c1.2,0,2.1,0,3.1,0c0.1,1.6,0.3,3.2,0.4,4.8c0.3,2.7,0.5,5.5,0.8,8.3c0.1,0.8,0.5,1.5,0.7,2.2
		C-569,901.7-569.4,901.7-569.8,901.7z M-563.1,901.7c-1.5,0-3,0-4.2,0c0.2-0.7,0.4-1.3,0.4-1.9c-0.3-3.9-0.7-7.9-1-11.8
		c0-0.5,0-1.1,0-1.7c1.7,0,3.2,0,4.8,0C-563.1,891.5-563.1,896.6-563.1,901.7z M-557.2,901.6c-0.9,0-2,0-3.2,0c0-5.1,0-10.2,0-15.3
		c1.6,0,2.9,0,4.1,0C-556.6,891.4-556.9,896.5-557.2,901.6z M-549.9,889.3c-0.1,4.1-0.2,8.3-0.3,12.4c-1.3,0-2.6,0-4,0
		c-0.5-5.3-0.1-10.4,0.8-15.3c0.2-0.1,0.3-0.1,0.3-0.1C-549.9,886.2-549.8,886.2-549.9,889.3z M-540.9,901.7c-2.2,0-4.2,0-6.3,0
		c-0.6-5.2-0.5-10.3,0.2-15.5c2.1,0,4.1,0,6.3,0C-541.6,891.4-541.7,896.5-540.9,901.7z M-537.6,901.9c-0.3,0-0.6-0.5-0.7-0.8
		c-0.8-4.6-0.7-9.3,0.2-14c0.1-0.7,0.4-0.9,1.1-0.9c1.5,0,3,0,4.4,0c0.2,5.3,0.4,10.4,0.6,15.7C-533.7,901.9-535.7,902-537.6,901.9z
		 M-529,901.7c-0.2-1.4-0.6-2.9-0.6-4.3c-0.1-3.5-0.1-6.9-0.1-10.4c0-0.7,0.3-0.9,1-1c3-0.4,3.1-0.3,3.4,2.6
		c0.4,4.4,0.8,8.7,1.2,13.2C-525.8,901.8-527.3,901.8-529,901.7z M-521.4,901.6c-0.5-5.2-0.9-10.4-1.4-15.4c0.3-0.1,0.3-0.2,0.4-0.2
		c1,0,2.4-0.5,3.1,0c0.6,0.5,0.5,2,0.7,3c0.6,4.2,1.2,8.4,1.8,12.7C-518.3,901.7-519.8,901.7-521.4,901.6z M-513.5,901.6
		c-0.2,0-0.5-0.4-0.5-0.6c-0.8-5-1.6-10-2.4-15.2c2.2,0,4.1,0,6.1-0.1c0.6,5.2,1.3,10.4,1.9,15.9
		C-510.2,901.6-511.8,901.7-513.5,901.6z M-505.3,901.4c-0.2,0-0.6-0.4-0.6-0.7c-0.6-4.9-1.1-9.9-1.7-14.8c0-0.1,0.1-0.1,0.1-0.2
		c1.7,0,3.4,0,5.3,0c0.4,5.3,0.8,10.5,1.2,15.8C-502.4,901.5-503.8,901.5-505.3,901.4z M-497.6,901.4c-0.3,0-0.7-0.6-0.7-0.9
		c-0.3-3-0.6-6-0.9-9c-0.1-1.9-0.2-3.9-0.4-6c1.5,0,3,0,4.6-0.1c0.4,5.2,0.8,10.4,1.3,16C-495,901.4-496.3,901.5-497.6,901.4z
		 M-490.3,901.3c-0.3,0-0.7-0.4-0.7-0.6c-0.5-5.1-0.9-10.1-1.4-15.4c2.3,0,4.2,0,6.2-0.1c0.5,5.3,1,10.5,1.6,16.1
		C-486.6,901.3-488.4,901.4-490.3,901.3z M-482,901c-0.5-5.2-1.1-10.5-1.6-15.9c1.9,0,3.6,0,5.4,0c0.4,5.2,0.7,10.5,1.1,15.9
		C-478.8,901-480.3,901-482,901z M-468.7,900.6c-1.8,0-3.7,0-5.8,0c-0.4-5.2-0.7-10.4-1-15.8c2.4,0,4.6,0,7,0
		c0.1,2.6,0.3,5.4,0.4,8.2c0.1,2.2,0.2,4.4,0.3,6.6C-467.8,900.3-468.1,900.6-468.7,900.6z M-325.6,833.7c-0.5-0.5-0.8-0.9-1.1-1.1
		c-2-2.4-4-4.8-6-7.2c-0.3-0.4-0.3-1.1-0.5-1.7c0.1-0.1,0.2-0.1,0.3-0.2c0.6,0.6,1.2,1.2,1.8,1.8c1.4,1.4,2.8,2.9,4.2,4.3
		C-325.8,830.7-325.3,831.9-325.6,833.7z M-325.7,827.4c-0.1,0.1-0.2,0.1-0.3,0.2c-1.4-1.5-2.7-3.1-4.4-4.4c-2-1.7-3.1-3.6-2.4-6.3
		c0.1-0.4,0.1-0.8,0.1-1.4c0.4,0.3,0.7,0.6,0.9,0.8c1.6,1.8,3.2,3.7,4.8,5.5c0.9,1,1.4,2,1.3,3.3
		C-325.7,825.9-325.7,826.6-325.7,827.4z M-326,819.6c-0.8-0.9-1.4-1.6-1.9-2.2c-1.4-1.6-2.8-3.1-4.2-4.7c-0.1-0.1-0.2-0.3-0.2-0.4
		c0-1.1,0-2.3,0-3.4c0.1,0,0.3-0.1,0.4-0.1c0.6,0.7,1.2,1.5,1.8,2.3c1.1,1.4,2.2,2.8,3.3,4.2C-325.9,816.5-325.6,817.8-326,819.6z
		 M-326,808.8c0,1.1,0,2.3,0,3.4c-0.1,0-0.3,0.1-0.4,0.1c-1.2-1.5-2.1-3.2-3.4-4.4c-2.5-2.4-2.5-5.3-2.1-8.3c0-0.2,0.1-0.4,0.2-0.7
		c1.8,2.4,3.7,4.6,5.3,7C-325.9,806.6-326,807.8-326,808.8z M-326.3,802c-0.3-0.3-0.6-0.6-0.9-0.9c-1.5-1.8-3.1-3.5-4.5-5.3
		c-0.4-0.5-0.3-1.4-0.4-2.2c0.2-0.1,0.3-0.1,0.4-0.2c0.6,0.5,1.2,1,1.6,1.5c0.7,0.6,1.3,1.3,2,1.9
		C-326.4,798.1-325.9,799.8-326.3,802z M-332.1,760c0.2-0.1,0.3-0.3,0.5-0.4c0.2,0.4,0.3,0.8,0.5,1.1c1.1,1.3,2.2,2.6,3.3,3.9
		c0.9,0.9,1.2,2,1,3.5c-1.7-1.8-3.2-3.4-4.8-5.1C-332.3,762.1-332.4,761.1-332.1,760z M-326.4,795.5c-1.8-1.7-3.7-3.2-5-4.9
		c-0.7-0.9-0.4-2.4-0.6-3.6c0.1,0,0.3-0.1,0.4-0.1c0.6,0.7,1.2,1.4,1.8,2.1c0.8,0.9,1.6,1.8,2.4,2.7
		C-326.4,792.7-326.2,793.8-326.4,795.5z M-326.8,789.1c-0.2-0.3-0.5-0.5-0.7-0.8c-1.2-1.6-2.4-3.2-3.6-4.8
		c-0.8-1.1-0.9-2.1-0.4-3.7c1.7,2.4,3.3,4.6,4.7,6.8c0.4,0.6,0.3,1.5,0.4,2.3C-326.5,789-326.7,789-326.8,789.1z M-326.5,782.7
		c-1-1.2-1.7-2.1-2.4-3c-0.6-0.8-1.2-1.6-1.8-2.3c-1.1-1.2-1.4-2.5-0.9-4.2c0.3,0.3,0.5,0.6,0.7,0.9c1.2,1.6,2.4,3.3,3.6,4.9
		C-326.5,780-326.3,781.1-326.5,782.7z M-326.8,775.6c-0.5-0.6-1-1.1-1.4-1.7c-0.8-1-1.5-2.2-2.4-3.2c-1.3-1.4-1.6-2.9-1.2-5
		c1.7,2,3.2,3.7,4.6,5.5C-326.4,772.2-326.4,773.9-326.8,775.6z M-327.3,762.1c-0.3-0.4-0.4-0.8-0.7-1.3c-1.1-1.3-2.2-2.6-3.3-3.9
		c-0.8-0.9-1.2-1.9-0.9-3.2c1.9,2.6,4.5,4.7,5.5,7.8C-326.9,761.7-327.1,761.9-327.3,762.1z M-329.6,753.2c-0.5-0.6-1-1.4-1.6-1.8
		c-1.6-1-1.5-2.4-1.4-4c1.5,1.1,5.4,7.4,5.3,8.8C-328.2,755-328.9,754.1-329.6,753.2z M-333.2,741.1c0.2-0.1,0.4-0.2,0.6-0.3
		c1.8,3,4.9,5.1,5,9C-329.6,747-332.1,744.5-333.2,741.1z M-333.2,735.1c0.2,0.2,0.6,0.4,0.8,0.7c1.2,1.2,2.3,2.4,3.4,3.6
		c0.8,0.9,1.1,1.9,0.7,3.1c-1.6-2.5-4.5-4.1-5.2-7.1C-333.4,735.3-333.3,735.2-333.2,735.1z M-333.2,828c0.4,0.5,0.7,0.8,1,1.1
		c2,2.5,4,4.9,5.9,7.4c0.4,0.7,0.7,1.6,0.8,2.4c0.1,1.5,0,3.1,0,4.9c-0.4-0.5-0.7-0.8-0.8-1.2c-2.2-2.8-4.4-5.6-6.6-8.5
		c-0.3-0.4-0.6-1.1-0.6-1.6C-333.5,831.1-333.3,829.7-333.2,828z M-372.6,892.8c-0.8-4.4-1.6-8.7-2.4-13.1c0.9-0.2,1.5-0.3,2.2-0.3
		c0.1,0,0.2,0.1,0.4,0.1c1,4.2,1.9,8.4,2.9,12.8C-370.5,892.5-371.5,892.6-372.6,892.8z M-366.9,892c-1-4.4-2-8.7-2.9-12.9
		c1.2-0.5,1.7-0.2,2.1,1c1.1,3.7,2.3,7.4,3.6,11.3C-365.1,891.5-366,891.7-366.9,892z M-361.6,891c-1.3-4.4-2.7-8.5-4-12.7
		c0.1-0.1,0.1-0.2,0.2-0.2c2.4-0.8,2.4-0.8,3.6,1.4c1.9,3.3,3.7,6.6,5.7,10.1C-358,890.1-359.7,890.5-361.6,891z M-353,888.7
		c-0.2,0.1-0.7-0.2-0.8-0.4c-2.3-3.7-4.4-7.5-6.7-11.4c1.3-0.5,2.2-0.8,3.2-1.2c2.5,4,5,7.9,7.5,12C-351,888.1-352,888.4-353,888.7z
		 M-347.6,886.8c-2.5-4-5-8-7.5-12.1c0.9-0.4,1.6-0.8,2.3-1.3c2.7,4.1,5.3,8,8,12.1C-345.7,886-346.5,886.3-347.6,886.8z
		 M-342.4,884.6c-3.2-3.9-5.8-8-8-12.5c0.8-0.6,1.6-1.2,2.4-1.8c3,4.1,5.9,8.1,9,12.3C-340.2,883.3-341.2,883.9-342.4,884.6z
		 M-336.6,882c-3.3-4.5-6.4-8.8-9.6-13.2c0.6-0.7,1.1-1.2,1.6-1.7c3.3,4.2,6.6,8.4,10,12.7C-335.2,880.4-335.8,881.1-336.6,882z
		 M-333.1,877.9c-1.7-2-3.4-3.9-4.9-5.9c-1.4-1.8-2.6-3.7-3.9-5.6c-1.2-1.8-1.2-1.8,0.4-3.5c3.6,3.9,7.1,7.7,10.7,11.5
		C-331.6,875.5-332.3,876.6-333.1,877.9z M-329.3,870.8c-0.2,0.4-0.3,0.9-0.6,1.5c-1.3-1.4-2.5-2.7-3.8-3.9c-2-2.3-4.1-4.6-6.2-6.9
		c-1.1-1.1,0.3-1.7,0.4-2.8c1.4,1.2,2.5,2.2,3.6,3.3c2,1.9,4,3.8,6,5.7C-328.9,868.6-328.5,869.5-329.3,870.8z M-327.9,866.4
		c-3.4-3.2-6.8-6.3-10.1-9.4c-0.2-0.2-0.3-0.6-0.2-0.8c0.2-0.6,0.4-1.2,0.8-2.1c2.1,2.1,4.1,4,6.1,6c1.1,1.1,2.1,2.3,3.2,3.5
		C-327.3,864.5-327.1,865.4-327.9,866.4z M-326.8,861.4c-1.6-1.5-3.2-3-4.8-4.5c-1.2-1.2-2.3-2.5-3.7-3.5c-1.4-1.1-1.6-2.3-0.7-3.9
		c1.1,1.1,2.3,2.1,3.3,3.1c1.7,1.6,3.3,3.2,5,4.7C-326.4,858.5-326,859.7-326.8,861.4z M-326.1,855.9c-1.3-1.2-2.6-2.3-3.8-3.6
		c-1.4-1.3-2.8-2.7-4.3-4c-1.1-0.9-1.6-1.9-1-3.3c0.1-0.2,0.1-0.6,0.2-0.8c0.8,0.8,1.7,1.5,2.5,2.3c2.1,2.1,4,4.3,6.1,6.4
		C-325.5,853.8-325.5,854.7-326.1,855.9z M-325.6,850.3c-1.2-1.1-2.6-2.1-3.7-3.4c-1.6-1.7-3.1-3.5-4.5-5.4
		c-0.3-0.5-0.5-1.3-0.5-1.9c-0.1-0.9,0.2-1.7,0.3-2.8c0.4,0.4,0.8,0.7,1,1c2.2,2.8,4.5,5.5,6.7,8.3
		C-325.3,847.4-325.1,848.7-325.6,850.3z"/>
	<path d="M-413.9,894.9c0.1,1.4,0.6,1.7,1.9,1.4c0.7-0.2,0.7-0.6,0.7-1.2c-0.3-3.9-0.5-7.8-0.8-11.7c0-0.2,0-0.4-0.1-0.7
		c-0.9,0-1.7,0.1-2.6,0.1c0.1,1.6,0.3,3.1,0.4,4.6C-414.2,889.9-414.1,892.4-413.9,894.9z"/>
</g>
<path d="M-344.7,692.9c-0.4-0.4-6.4-12.9-22.4-14.5c-4.4-0.4-8.7-1.2-13.1-1.3c-16.2-0.2-32.5-0.2-48.7-0.2h-212.4
	c-0.5,0-0.9-0.1-1.4-0.2h-122.2c-0.6,0.4-1.2,0.9-1.6,1.3c-0.4,0.2-0.8,0.4-1.2,0.4c-4.1,0.4-8.3,0.6-12.4,1.2
	c-9.3,1.3-17.9,4.2-25.3,10.3c-1.3,1-2.1,2.5-3.4,3.4c-6.8,4.6-9.5,27-9.5,27c0,0,0,31.9,0,31.9c0.1,0.7,0.3,8.5,0,9.4
	c0,0,1.1,16.9,1.1,18.9c0,0,1.2,9.5,1.2,10.2c0.5,26.2,1.8,63.2,14.5,77.2c5.3,5.8,11.5,9.3,19,11.2c8.9,2.2,17.9,3.3,27,3.9h0.1
	c0,0,0,0,0,0c1.2,0.1,2.3,0.1,3.5,0.2h2.5c0,0,13.1,0.5,13.1,0.5h3.3c0,0.1,33.5,1.3,34.4,1.3c0,0,230-0.7,230-0.7
	c0.3,0,83.2-1.5,97.8-5.7c6.1-1.9,12.7-3,19.4-8c6.1-4.6,9.2-11.4,11.5-18.6c1.2-3.8,3.7-15.3,3.8-15.2c0.2-1.1,1.4-24.7,1.4-24.8
	c0,0,0.2-18.7,0.2-18.7c0,0,0,0,0,0C-334.4,793.3-334.4,705.2-344.7,692.9z M-340.6,791.8c-0.2,12.5-0.9,25-1.5,37.5
	c-0.2,5.9-0.7,11.7-1.9,17.5c-1.5,7.1-4.3,13.4-9.9,18.3c-5,4.3-10.9,6.8-17.4,8c-10.4,1.8-20.9,2.3-31.6,2.6
	c-11.7,0.3-23.4,0.8-35,1.1c-6.4,0.1-12.7,0.2-19.1,0.3c-11.2,0.2-22.6,0.3-33.8,0.5c-5.8,0-11.7,0.1-17.5,0.2
	c-10.2,0.1-20.4,0.2-30.7,0.3c-4.6,0.1-9.3,0.2-14,0.2h-24.8v0.5h-55.4c-8.8,0-17.6,0.1-26.5,0.1c-15.4,0-30.9,0.1-46.3,0
	c-12.3-0.1-24.6-0.4-36.9-0.7c-6.8-0.1-13.7-0.3-20.5-0.5c-7.5-0.2-14.8-1.6-22-3.9c-7.6-2.4-12.6-7.7-15.7-14.9
	c-2.7-6.3-4.1-12.9-4.8-19.7c-1.2-10.8-2.4-21.6-3.3-32.4c-0.8-9.1-1.2-18.4-1.6-27.6c-0.5-12.3-0.9-24.7-1.2-37.1
	c-0.1-7.2-0.1-14.5,0.1-21.7c0.2-4.9,1.1-9.8,2.6-14.5c1.5-4.4,3.7-8.3,7.6-11c0.7-0.5,1.4-1,1-2.1c-0.1-0.2,0.3-0.7,0.6-0.9
	c4.3-3.8,9.5-6.1,15-7.6c6.1-1.7,12.4-2.3,18.7-2.5c3.6-0.1,7.3-0.1,11-0.1c1.4-0.1,2.8,0.1,3.7-1.4c0.1-0.2,0.7-0.2,1-0.2
	c11.6-0.1,23.3-0.1,34.9-0.1c3,0,6.1,0.1,9.2,0.1c34.3,0,68.5,0.1,102.6,0.1h213c5,0,10.1-0.1,15.1,0.2c6.6,0.4,12.9,2,18.2,6.4
	c1.3,1.1,2.5,2.4,3.7,3.6c0.3,0.2,0.4,0.6,0.5,0.9c0.2,0.3,0.2,0.8,0.5,1c2.6,2.1,3.6,5,4.8,7.8c2.3,5.4,3.6,11,4.3,16.8
	c1.5,12.3,2.4,24.7,2.7,37.1C-340.7,766.6-340.4,779.2-340.6,791.8z"/>
</svg>
