<?xml version="1.0" encoding="utf-8"?>
<!-- Generator: Adobe Illustrator 19.0.0, SVG Export Plug-In . SVG Version: 6.00 Build 0)  -->
<svg version="1.2" baseProfile="tiny" id="Слой_1"
	 xmlns="http://www.w3.org/2000/svg" xmlns:xlink="http://www.w3.org/1999/xlink" x="0px" y="0px" viewBox="-231 409.3 131.3 22.6"
	 xml:space="preserve">
<g>
	<path fill="#9DCB45" d="M-99.7,419.3c-5.3,0-8-1.8-10.5-3.3c-2.3-1.4-4.2-2.7-8.3-2.7s-6.1,1.2-8.3,2.7c-2.4,1.6-5.2,3.3-10.5,3.3
		s-8-1.8-10.5-3.3c-2.1-1.5-4.1-2.7-8.2-2.7s-6,1.2-8.3,2.7c-2.4,1.5-5.2,3.3-10.4,3.3c-5.3,0-8-1.8-10.5-3.3
		c-2.2-1.5-4.2-2.7-8.3-2.7s-6,1.2-8.3,2.7c-2.4,1.5-5.2,3.3-10.4,3.3s-8-1.8-10.5-3.3c-2.3-1.5-4.2-2.7-8.3-2.7v-4
		c5.3,0,8,1.8,10.5,3.3c2.2,1.5,4.2,2.7,8.3,2.7c4.1,0,6-1.2,8.3-2.7c2.4-1.5,5.1-3.3,10.4-3.3s8,1.8,10.5,3.3
		c2.2,1.5,4.2,2.7,8.3,2.7c4.1,0,6.1-1.2,8.3-2.7c2.4-1.5,5.2-3.3,10.4-3.3c5.3,0,8,1.8,10.5,3.3c2.2,1.5,4.2,2.7,8.3,2.7
		c4.1,0,6.1-1.2,8.3-2.7c2.4-1.6,5.2-3.3,10.5-3.3s8,1.8,10.5,3.3c2.3,1.4,4.2,2.7,8.3,2.7v4H-99.7z"/>
</g>
<g>
	<path fill="#9DCB45" d="M-99.7,431.9c-5.3,0-8-1.8-10.5-3.3c-2.3-1.4-4.2-2.7-8.3-2.7s-6.1,1.2-8.3,2.7c-2.4,1.6-5.2,3.3-10.5,3.3
		s-8-1.8-10.5-3.3c-2.3-1.4-4.2-2.7-8.3-2.7s-6,1.2-8.3,2.7c-2.4,1.6-5.2,3.3-10.5,3.3s-8-1.8-10.5-3.3c-2.3-1.4-4.2-2.7-8.3-2.7
		c-4.1,0-6,1.2-8.3,2.7c-2.4,1.6-5.2,3.3-10.5,3.3c-5.3,0-8-1.8-10.5-3.3c-2-1.5-3.9-2.7-8-2.7v-4c5.3,0,8,1.8,10.5,3.3
		c2.3,1.4,4.2,2.7,8.3,2.7c4.1,0,6-1.2,8.3-2.7c2.4-1.6,5.2-3.3,10.5-3.3c5.3,0,8,1.8,10.5,3.3c2.3,1.4,4.2,2.7,8.3,2.7
		c4.1,0,6.1-1.2,8.3-2.7c2.4-1.6,5.2-3.3,10.5-3.3s8,1.8,10.5,3.3c2.3,1.4,4.2,2.7,8.3,2.7s6.1-1.2,8.3-2.7
		c2.4-1.6,5.2-3.3,10.5-3.3s8,1.8,10.5,3.3c2.3,1.4,4.2,2.7,8.3,2.7v4H-99.7z"/>
</g>
</svg>
