<?xml version="1.0" encoding="utf-8"?>
<!-- Generator: Adobe Illustrator 19.0.0, SVG Export Plug-In . SVG Version: 6.00 Build 0)  -->
<svg version="1.2" baseProfile="tiny" id="Layer_1" xmlns="http://www.w3.org/2000/svg" xmlns:xlink="http://www.w3.org/1999/xlink"
	 x="0px" y="0px" viewBox="-140 267.1 313.8 307.8" xml:space="preserve">
<g>
	<g>
		<path fill="#FFFFFF" d="M-20.8,554.1c4.1,4.4,8.2,8.8,12.3,13.1c1.2,0.2,2.3,0.4,3.5,0.6c-4-4.4-8.1-8.8-12.1-13.2
			C-18.3,554.5-19.6,554.3-20.8,554.1z"/>
		<path fill="#FFFFFF" d="M-29.2,552.5c5,4.4,9.9,8.9,14.7,13.5c0.6,0.2,1.3,0.3,1.9,0.4c-4.1-4.3-8.1-8.7-12.2-13
			C-26.2,553.1-27.7,552.8-29.2,552.5z"/>
		<path fill="#FFFFFF" d="M-20.7,564.3c0.5,0.2,1,0.3,1.5,0.4c-2.4-2.2-4.7-4.4-7.1-6.6L-20.7,564.3z"/>
		<path fill="#FFFFFF" d="M-13.4,555.2c4.1,4.4,8.1,8.9,12.2,13.3c0.9,0.1,1.8,0.2,2.7,0.3c-3.3-4.2-6.3-8.5-9.1-13.1
			C-9.6,555.5-11.5,555.4-13.4,555.2z"/>
		<path fill="#FFFFFF" d="M-40.2,549.5c3.1,4.2,6.6,8.1,10.3,11.8c1.5,0.6,3.1,1.1,4.6,1.6l-11.2-12.3
			C-37.7,550.2-38.9,549.9-40.2,549.5z"/>
		<path fill="#FFFFFF" d="M-4.5,555.8c2.9,4.6,6,9,9.4,13.2c1.2,0.1,2.4,0.2,3.6,0.3c-3.8-4.5-7.6-8.9-11.5-13.4
			C-3.4,555.9-3.9,555.9-4.5,555.8z"/>
		<path fill="#FFFFFF" d="M0.4,556c3.8,4.5,7.7,9,11.5,13.5c2.4,0.1,4.7,0.1,7.1,0c-4-4.2-7.6-8.8-10.8-13.6C5.6,556,3,556,0.4,556z
			"/>
		<path fill="#FFFFFF" d="M156.5,373.8c-0.2,0-0.3,0-0.5,0c0.2,0.3,0.4,0.7,0.6,1C156.6,374.5,156.6,374.2,156.5,373.8z"/>
		<path fill="#FFFFFF" d="M-46.4,547.3c2.4,3.1,4.6,6.4,6.7,9.7c1.4,0.7,2.8,1.3,4.1,1.9c-3.2-3.4-6.2-7-8.9-10.9
			C-45,547.8-45.7,547.6-46.4,547.3z"/>
		<path fill="#FFFFFF" d="M154.5,390.9c0.1,0.1,0.2,0.1,0.3,0.2c3,4.9,5.9,9.7,8.9,14.6c-0.1-2.4-0.2-4.9-0.3-7.3
			c-3.2-4.1-6.1-8.4-8.8-12.8C154.5,387.3,154.5,389.1,154.5,390.9z"/>
		<path fill="#FFFFFF" d="M11.2,555.7c3.3,4.9,6.9,9.4,11,13.6c1.4-0.1,2.7-0.2,4.1-0.3c-4-4.4-7.9-8.9-11.5-13.7
			C13.6,555.6,12.4,555.6,11.2,555.7z"/>
		<path fill="#FFFFFF" d="M161.7,381.9c-0.7-1.2-1.4-2.4-2.1-3.6c-0.2,0.1-0.4,0.2-0.7,0.2c1,1.5,1.9,3,2.9,4.4
			C161.8,382.5,161.7,382.2,161.7,381.9z"/>
		<path fill="#FFFFFF" d="M-50.8,546.5c-0.5-0.4-0.8-0.8-0.9-1.3c-0.4-0.2-0.9-0.3-1.3-0.5c1.9,1.9,3.9,3.9,5.8,5.8
			c-0.9-1.3-1.8-2.5-2.8-3.7C-50.3,546.8-50.6,546.7-50.8,546.5z"/>
		<path fill="#FFCC2B" d="M89.1,517.8c19.3-16,34.8-37,43.8-61.2c11.6-31.6,13-69.5,6-102.4c-6.7-31.3-26.7-54.7-54.1-68
			c-27.9-13.4-59.1-14.5-89.4-13.4c3.9,0.1,7.9,0.4,11.8,0.9c6.9,0.9,2,5.7-2.7,5.1c-32.3-4-65,7.4-89.9,29.1
			c-24.8,21.7-40,53.3-43.6,87c-6.4,59.1,24.2,115.7,74.6,142.1C-7.2,561.8,48.4,551.6,89.1,517.8z"/>
		<path fill="#FFFFFF" d="M147,343c-0.3-0.5-0.6-1.1-0.9-1.6c-0.3-0.3-0.5-0.6-0.8-1c0.1,0.3,0.2,0.5,0.3,0.8
			C146,341.8,146.5,342.4,147,343z"/>
		<path fill="#FFFFFF" d="M153.5,376.1c2.9,4.4,6,8.8,9.1,13.1c0-0.3-0.1-0.6-0.1-1c-3.2-4.3-6.2-8.8-9-13.5
			C153.4,375.2,153.4,375.6,153.5,376.1C153.4,376.1,153.5,376.1,153.5,376.1z"/>
		<path fill="#FFFFFF" d="M133.1,478.6c-1.2,2.2-2.6,4.3-3.9,6.4c3.7,4.6,7.2,9.5,10.4,14.5c2.2-3.5,4.3-7.1,6.3-10.8
			c-2.9-6.1-5.7-12.3-8.3-18.5C136.1,473.1,134.7,475.9,133.1,478.6z"/>
		<path fill="#FFFFFF" d="M139.1,466.8c2.7,6.3,5.4,12.6,8.4,18.8c1.8-3.7,3.4-7.4,4.9-11.2c-2.8-7.3-4-15.2-7.8-22
			C143,457.3,141.2,462.1,139.1,466.8z"/>
		<path fill="#FFFFFF" d="M149.4,433.5c0.2,0.1,0.3,0.2,0.4,0.3c2.2,4.1,4.4,8.1,6.6,12.2c0.9,1.7,1.9,3.5,2.8,5.2
			c0,0.1,0.1,0.1,0.1,0.2c0.8-3.4,1.4-6.8,2-10.3c-3.9-5.9-7.3-12.1-10-18.6C150.7,426.2,150.1,429.9,149.4,433.5z"/>
		<path fill="#FFFFFF" d="M38.4,567c-2.6-4.8-5.7-9.3-9-13.6c-3.9,0.8-7.8,1.4-11.7,1.8c3.6,4.7,7.5,9.3,11.5,13.7
			c3.3-0.3,6.7-0.8,10-1.4C38.9,567.3,38.6,567.2,38.4,567z"/>
		<path fill="#FFFFFF" d="M152.8,403c0.2,0.1,0.4,0.2,0.5,0.4c3.5,6,6.8,12.1,10,18.2c0.2-3.5,0.3-7.1,0.3-10.6
			c-3.6-5.9-7.2-11.8-10.7-17.7C152.9,396.5,152.9,399.7,152.8,403z"/>
		<path fill="#FFFFFF" d="M151.9,416.4c2.6,7.3,5.9,14.1,9.9,20.7c0.5-3.4,0.8-6.9,1.1-10.3c-3.3-6.5-6.8-12.9-10.4-19.2
			C152.4,410.5,152.2,413.5,151.9,416.4z"/>
		<path fill="#FFFFFF" d="M148.6,437.4c-0.9,3.9-1.8,7.8-3,11.7c4.5,6.3,6,13.9,8.3,21.2c1.6-4.6,3.1-9.4,4.3-14.3
			c-1.5-2.5-2.6-5.7-3.8-7.8C152.5,444.6,150.5,441,148.6,437.4z"/>
		<path fill="#FFFFFF" d="M80.5,533.1c-1.3,0.8-2.7,1.7-4.1,2.5c-2.6,1.5-5.3,3-8,4.3c0.5,0,1,0.1,1.2,0.4
			c3.5,4.3,6.9,8.8,10.1,13.4c3.7-1.9,7.3-3.9,10.8-6.1c-0.6,0-1.2-0.1-1.4-0.5C86.2,542.5,83.4,537.8,80.5,533.1z"/>
		<path fill="#FFFFFF" d="M56.4,545.4c2.6,4.8,5,10.5,8.5,14.9c4.2-1.6,8.4-3.4,12.5-5.4c-3.3-4.9-6.8-9.6-10.6-14.2
			C63.4,542.4,59.9,544,56.4,545.4z"/>
		<path fill="#FFFFFF" d="M119.2,498.9c3.2,5.1,6.4,10.3,9.6,15.4c3.2-3.9,6.3-8,9.1-12.3c-3.1-5.1-6.6-10-10.2-14.7
			C125.1,491.3,122.3,495.2,119.2,498.9z"/>
		<path fill="#FFFFFF" d="M95.2,522.7c0.2,0.1,0.3,0.2,0.3,0.3c2.4,5.3,5.3,10.5,8.4,15.4c1.1-0.9,2.2-1.7,3.3-2.6
			c2.7-2.2,5.3-4.5,7.9-6.9c-3.2-5.2-6.2-10.5-8.8-15.9C102.7,516.4,99,519.6,95.2,522.7z"/>
		<path fill="#FFFFFF" d="M82.7,531.6c3.1,5,6.2,10.1,9.3,15.1c3.3-2.1,6.6-4.4,9.8-6.7c-3.3-5-6.2-10.3-8.7-15.7
			C89.7,526.9,86.3,529.3,82.7,531.6z"/>
		<path fill="#FFFFFF" d="M107.8,511.5c0.5,0,1,0.2,1.2,0.5c2.5,5.1,5.2,10.1,8.2,15c3.5-3.4,6.8-6.9,9.9-10.6
			c-3.1-5.2-6.3-10.3-9.6-15.4C114.4,504.7,111.2,508.2,107.8,511.5z"/>
		<path fill="#FFFFFF" d="M44.3,549.6c0.8,0.9,1.4,2,2.1,3.2l6.3,10.8c0.5,0.9-2.4,1.3-2.9,0.4l-4.5-7.7c-0.8-1.4-1.9-4.3-3.5-5.9
			c-3.2,0.9-6.4,1.7-9.7,2.4c3.4,4.4,6.4,8.9,9.1,13.8c0.1,0.2,0.1,0.3,0,0.4c7.2-1.4,14.2-3.3,21.1-5.8c-3.6-4.4-6-9.9-8.6-14.8
			C50.7,547.6,47.5,548.7,44.3,549.6z"/>
		<path fill="#FFFFFF" d="M163.6,405.7c-3-4.9-5.9-9.7-8.9-14.6c-0.1-0.1-0.2-0.2-0.3-0.2c0-1.8,0-3.6,0-5.3
			c2.7,4.4,5.6,8.7,8.8,12.8C163.4,400.8,163.5,403.3,163.6,405.7z"/>
		<path fill="#FFFFFF" d="M159.6,378.2c0.7,1.2,1.4,2.4,2.1,3.6c0,0.3,0.1,0.7,0.1,1c-1-1.5-2-2.9-2.9-4.4
			C159.1,378.4,159.4,378.3,159.6,378.2z"/>
		<path fill="#FFFFFF" d="M156.5,373.8c0,0.4,0.1,0.7,0.1,1.1c-0.2-0.3-0.4-0.7-0.6-1C156.2,373.8,156.4,373.8,156.5,373.8z"/>
		<path fill="#FFFFFF" d="M162.4,388.2c0,0.3,0.1,0.6,0.1,1c-3.1-4.3-6.1-8.6-9.1-13.1l0,0c0-0.4,0-0.9,0-1.3
			C156.2,379.4,159.2,383.9,162.4,388.2z"/>
		<path fill="#FFFFFF" d="M146.1,341.3c0.3,0.5,0.6,1.1,0.9,1.6c-0.5-0.6-0.9-1.2-1.4-1.8c-0.1-0.3-0.2-0.5-0.3-0.8
			C145.6,340.7,145.8,341,146.1,341.3z"/>
		<path fill="#FFCC2B" d="M-129,394.9c3.6-33.6,18.8-65.3,43.6-87c24.9-21.8,57.6-33.1,89.9-29.1c4.7,0.6,9.6-4.2,2.7-5.1
			c-3.9-0.5-7.9-0.8-11.8-0.9c30.3-1.1,61.5,0,89.3,13.5c27.4,13.3,47.4,36.7,54.1,68c7,32.9,5.6,70.8-6,102.4
			c-8.9,24.2-24.5,45.2-43.8,61.2c-40.7,33.8-96.3,43.9-143.5,19.2C-104.7,510.6-135.3,454-129,394.9z"/>
		<path fill="#FFFFFF" d="M-53,544.7c0.4,0.2,0.9,0.3,1.3,0.5c0.1,0.5,0.4,0.9,0.9,1.3c0.2,0.2,0.5,0.2,0.8,0.3
			c1,1.2,1.9,2.5,2.8,3.7C-49.1,548.6-51.1,546.6-53,544.7z"/>
		<path fill="#FFFFFF" d="M-39.6,557c-2.1-3.4-4.3-6.6-6.7-9.7c0.7,0.2,1.3,0.5,2,0.7c2.7,3.8,5.7,7.5,8.9,10.9
			C-36.9,558.3-38.3,557.7-39.6,557z"/>
		<path fill="#FFFFFF" d="M-29.9,561.3c-3.8-3.7-7.2-7.6-10.3-11.8c1.3,0.4,2.5,0.8,3.8,1.1l11.2,12.3
			C-26.8,562.4-28.3,561.8-29.9,561.3z"/>
		<path fill="#FFFFFF" d="M-20.7,564.3l-5.6-6.2c2.4,2.2,4.8,4.4,7.1,6.6C-19.7,564.6-20.2,564.5-20.7,564.3z"/>
		<path fill="#FFFFFF" d="M-14.5,566c-4.8-4.6-9.8-9.1-14.7-13.5c1.5,0.3,3,0.6,4.5,0.9c4.1,4.3,8.1,8.7,12.2,13
			C-13.2,566.3-13.8,566.2-14.5,566z"/>
		<path fill="#FFFFFF" d="M-8.5,567.3c-4.1-4.4-8.2-8.8-12.3-13.1c1.2,0.2,2.4,0.4,3.7,0.6c4,4.4,8.1,8.8,12.1,13.2
			C-6.2,567.7-7.3,567.5-8.5,567.3z"/>
		<path fill="#FFFFFF" d="M-1.2,568.5c-4.1-4.4-8.1-8.9-12.2-13.3c1.9,0.2,3.8,0.4,5.7,0.5c2.8,4.5,5.8,8.9,9.1,13.1
			C0.6,568.7-0.3,568.6-1.2,568.5z"/>
		<path fill="#FFFFFF" d="M4.9,569.1c-3.4-4.2-6.5-8.6-9.4-13.2c0.5,0,1,0.1,1.6,0.1c3.8,4.5,7.6,9,11.5,13.4
			C7.3,569.3,6.1,569.2,4.9,569.1z"/>
		<path fill="#FFFFFF" d="M11.9,569.5c-3.8-4.5-7.7-9-11.5-13.5c2.6,0,5.2,0,7.8-0.1c3.2,4.8,6.9,9.4,10.8,13.6
			C16.6,569.6,14.3,569.6,11.9,569.5z"/>
		<path fill="#FFFFFF" d="M22.2,569.4c-4-4.2-7.7-8.8-11-13.6c1.2-0.1,2.4-0.2,3.5-0.3c3.6,4.7,7.4,9.3,11.5,13.7
			C24.9,569.2,23.5,569.3,22.2,569.4z"/>
		<path fill="#FFFFFF" d="M29.3,568.8c-4.1-4.4-7.9-8.9-11.5-13.7c3.9-0.4,7.8-1,11.7-1.8c3.3,4.3,6.3,8.8,9,13.6
			c0.1,0.2,0.4,0.4,0.8,0.5C35.9,568,32.6,568.5,29.3,568.8z"/>
		<path fill="#FFFFFF" d="M41.3,567c0.1-0.1,0.1-0.3,0-0.4c-2.7-4.8-5.7-9.4-9.1-13.8c3.2-0.7,6.5-1.5,9.7-2.4
			c1.5,1.6,2.6,4.5,3.5,5.9l4.5,7.7c0.5,0.9,3.4,0.5,2.9-0.4l-6.3-10.8c-0.7-1.1-1.3-2.3-2.1-3.2c3.2-1,6.3-2.1,9.5-3.3
			c2.6,4.9,5,10.5,8.6,14.8C55.5,563.7,48.5,565.6,41.3,567z"/>
		<path fill="#FFFFFF" d="M64.9,560.3c-3.5-4.4-5.9-10.1-8.5-14.9c3.5-1.4,7-3,10.4-4.7c3.7,4.6,7.2,9.3,10.6,14.2
			C73.3,556.9,69.1,558.7,64.9,560.3z"/>
		<path fill="#FFFFFF" d="M79.8,553.7c-3.2-4.6-6.5-9.1-10.1-13.4c-0.2-0.3-0.7-0.4-1.2-0.4c2.7-1.4,5.3-2.8,8-4.3
			c1.4-0.8,2.7-1.6,4.1-2.5c2.9,4.7,5.7,9.4,8.6,14.1c0.2,0.3,0.8,0.5,1.4,0.5C87,549.8,83.4,551.9,79.8,553.7z"/>
		<path fill="#FFFFFF" d="M92,546.7c-3.1-5-6.2-10.1-9.3-15.1c3.5-2.3,7-4.7,10.3-7.3c2.5,5.4,5.4,10.7,8.7,15.7
			C98.6,542.4,95.3,544.6,92,546.7z"/>
		<path fill="#FFFFFF" d="M107.2,535.8c-1.1,0.9-2.2,1.7-3.3,2.6c-3.2-4.9-6-10.1-8.4-15.4c-0.1-0.1-0.2-0.2-0.3-0.3
			c3.9-3.1,7.6-6.3,11.1-9.7c2.6,5.5,5.6,10.8,8.8,15.9C112.6,531.3,109.9,533.6,107.2,535.8z"/>
		<path fill="#FFFFFF" d="M117.1,527c-3-4.9-5.7-9.8-8.2-15c-0.2-0.3-0.6-0.5-1.2-0.5c3.4-3.3,6.6-6.8,9.7-10.5
			c3.2,5.1,6.4,10.2,9.6,15.4C123.9,520.1,120.6,523.7,117.1,527z"/>
		<path fill="#FFFFFF" d="M128.8,514.3c-3.2-5.2-6.4-10.3-9.6-15.4c3-3.7,5.8-7.6,8.5-11.6c3.7,4.7,7.1,9.6,10.2,14.7
			C135.1,506.3,132.1,510.4,128.8,514.3z"/>
		<path fill="#FFFFFF" d="M139.6,499.6c-3.2-5-6.7-9.8-10.4-14.5c1.4-2.1,2.7-4.3,3.9-6.4c1.6-2.8,3-5.6,4.4-8.4
			c2.7,6.2,5.4,12.4,8.3,18.5C143.9,492.5,141.8,496.1,139.6,499.6z"/>
		<path fill="#FFFFFF" d="M147.4,485.6c-2.9-6.2-5.7-12.5-8.4-18.8c2.1-4.7,3.9-9.5,5.5-14.4c3.8,6.8,5,14.7,7.8,22
			C150.9,478.2,149.2,482,147.4,485.6z"/>
		<path fill="#FFFFFF" d="M153.9,470.2c-2.3-7.3-3.8-14.9-8.3-21.2c1.1-3.8,2.1-7.7,3-11.7c1.9,3.6,3.9,7.1,5.8,10.7
			c1.2,2.1,2.3,5.3,3.8,7.8C157,460.8,155.6,465.6,153.9,470.2z"/>
		<path fill="#FFFFFF" d="M159.3,451.4c0-0.1-0.1-0.1-0.1-0.2c-0.9-1.7-1.9-3.5-2.8-5.2c-2.2-4.1-4.4-8.1-6.6-12.2
			c-0.1-0.1-0.2-0.2-0.4-0.3c0.7-3.7,1.3-7.4,1.8-11.1c2.7,6.5,6.1,12.7,10,18.6C160.7,444.6,160,448,159.3,451.4z"/>
		<path fill="#FFFFFF" d="M161.8,437.1c-4-6.5-7.3-13.4-9.9-20.7c0.3-2.9,0.5-5.9,0.7-8.9c3.6,6.3,7,12.7,10.4,19.2
			C162.7,430.2,162.3,433.7,161.8,437.1z"/>
		<path fill="#FFFFFF" d="M163.3,421.6c-3.2-6.1-6.6-12.2-10-18.2c-0.1-0.2-0.3-0.3-0.5-0.4c0.1-3.2,0.1-6.4,0.1-9.7
			c3.6,5.9,7.2,11.8,10.7,17.7C163.6,414.5,163.5,418,163.3,421.6z"/>
	</g>
	<path d="M173,390c-1.7-20.1-6.1-40.6-17.2-57.5c-9.5-14.4-22.6-25.7-37.3-34.1c-1.7-1-3.5-1.9-5.3-2.8c-4.2-3.3-8.7-6.3-13.3-9
		C65.3,266.5,24.4,265.9-14,267.8c-5.2,0.3-6,4.2-2.2,5.1c-51.9,3.3-99.7,38.6-116.8,91.9c-13.2,41.2-7.3,84.9,13.2,120.2
		c10.9,25.3,28.7,47.7,52.1,63.8c18.9,13.1,39.9,21.1,61.5,24.4c0.1,0.1,0.2,0.2,0.2,0.2c0.4,0.4,1.6,0.4,2.3,0.1
		c33.1,4.4,67.4-2.3,97.5-19.7c24.1-13.9,45.1-33.9,59.3-58.4C171.3,463.9,176,426.2,173,390 M163.5,405.6c-3-4.9-5.9-9.7-8.9-14.6
		c-0.1-0.1-0.2-0.2-0.3-0.2c0-1.8,0-3.6,0-5.3c2.7,4.4,5.6,8.7,8.8,12.8C163.3,400.7,163.4,403.1,163.5,405.6 M159.5,378.1
		c0.7,1.2,1.4,2.4,2.1,3.6c0,0.3,0.1,0.7,0.1,1c-1-1.5-2-2.9-2.9-4.4C159,378.3,159.3,378.2,159.5,378.1 M156.4,373.7
		c0,0.4,0.1,0.7,0.1,1.1c-0.2-0.3-0.4-0.7-0.6-1C156.1,373.7,156.3,373.7,156.4,373.7 M162.3,388.1c0,0.3,0.1,0.6,0.1,1
		c-3.1-4.3-6.1-8.6-9.1-13.1l0,0c0-0.4,0-0.9,0-1.3C156.1,379.3,159.1,383.8,162.3,388.1 M146,341.2c0.3,0.5,0.6,1.1,0.9,1.6
		c-0.5-0.6-0.9-1.2-1.4-1.8c-0.1-0.3-0.2-0.5-0.3-0.8C145.5,340.6,145.7,340.9,146,341.2 M-129.1,394.8c3.6-33.6,18.8-65.3,43.6-87
		c24.9-21.8,57.6-33.1,89.9-29.1c4.7,0.6,9.6-4.2,2.7-5.1c-3.9-0.5-7.9-0.8-11.8-0.9c30.3-1.1,61.5,0,89.3,13.5
		c27.4,13.3,47.4,36.7,54.1,68c7,32.9,5.6,70.8-6,102.4c-8.9,24.2-24.5,45.2-43.8,61.2C48.2,551.6-7.4,561.7-54.6,537
		C-104.8,510.5-135.4,453.9-129.1,394.8 M-53.1,544.5c0.4,0.2,0.9,0.4,1.3,0.5c0.1,0.5,0.4,0.9,0.9,1.3c0.2,0.2,0.5,0.2,0.8,0.3
		c1,1.2,1.9,2.5,2.8,3.7C-49.2,548.4-51.2,546.5-53.1,544.5 M-39.8,556.9c-2.1-3.4-4.3-6.6-6.7-9.7c0.7,0.2,1.3,0.5,2,0.7
		c2.7,3.8,5.7,7.5,8.9,10.9C-37,558.2-38.4,557.6-39.8,556.9 M-30,561.1c-3.8-3.7-7.2-7.6-10.3-11.8c1.3,0.4,2.5,0.8,3.8,1.1
		l11.2,12.3C-26.9,562.3-28.4,561.7-30,561.1 M-20.8,564.2l-5.6-6.2c2.4,2.2,4.8,4.4,7.1,6.6C-19.8,564.5-20.3,564.4-20.8,564.2
		 M-14.6,565.9c-4.8-4.6-9.8-9.1-14.7-13.5c1.5,0.3,3,0.6,4.5,0.9c4.1,4.3,8.1,8.7,12.2,13C-13.3,566.2-13.9,566-14.6,565.9
		 M-8.6,567.1c-4.1-4.4-8.2-8.8-12.3-13.1c1.2,0.2,2.4,0.4,3.7,0.6c4,4.4,8.1,8.8,12.1,13.2C-6.3,567.6-7.4,567.4-8.6,567.1
		 M-1.3,568.3c-4.1-4.4-8.1-8.9-12.2-13.3c1.9,0.2,3.8,0.4,5.7,0.5c2.8,4.5,5.8,8.9,9.1,13.1C0.5,568.5-0.4,568.4-1.3,568.3
		 M4.8,568.9c-3.4-4.2-6.5-8.6-9.4-13.2c0.5,0,1,0.1,1.6,0.1c3.8,4.5,7.6,8.9,11.5,13.4C7.2,569.1,6,569,4.8,568.9 M11.8,569.3
		c-3.8-4.5-7.7-9-11.5-13.5c2.6,0,5.2,0,7.8-0.1c3.2,4.8,6.9,9.4,10.8,13.6C16.5,569.4,14.2,569.4,11.8,569.3 M22.1,569.2
		c-4-4.2-7.7-8.8-11-13.6c1.2-0.1,2.4-0.2,3.5-0.3c3.6,4.7,7.4,9.3,11.5,13.7C24.8,569.1,23.4,569.2,22.1,569.2 M29.2,568.7
		c-4.1-4.4-7.9-8.9-11.5-13.7c3.9-0.4,7.8-1,11.7-1.8c3.3,4.3,6.3,8.8,9,13.6c0.1,0.2,0.4,0.4,0.8,0.5
		C35.8,567.9,32.5,568.3,29.2,568.7 M41.2,566.9c0.1-0.1,0.1-0.3,0-0.4c-2.7-4.8-5.7-9.4-9.1-13.8c3.2-0.7,6.5-1.5,9.7-2.4
		c1.5,1.6,2.6,4.5,3.5,5.9l4.5,7.7c0.5,0.9,3.4,0.5,2.9-0.4l-6.3-10.8c-0.7-1.1-1.3-2.3-2.1-3.2c3.2-1,6.3-2.1,9.5-3.3
		c2.6,4.9,5,10.5,8.6,14.8C55.4,563.6,48.4,565.5,41.2,566.9 M64.8,560.2c-3.5-4.4-5.9-10.1-8.5-14.9c3.5-1.4,7-3,10.4-4.7
		c3.7,4.6,7.2,9.3,10.6,14.2C73.2,556.7,69,558.6,64.8,560.2 M79.7,553.6c-3.2-4.6-6.5-9.1-10.1-13.4c-0.2-0.3-0.7-0.4-1.2-0.4
		c2.7-1.4,5.3-2.8,8-4.3c1.4-0.8,2.7-1.6,4.1-2.5c2.9,4.7,5.7,9.4,8.6,14.1c0.2,0.3,0.8,0.5,1.4,0.5
		C86.9,549.7,83.3,551.7,79.7,553.6 M91.9,546.6c-3.1-5-6.2-10.1-9.3-15.1c3.5-2.3,7-4.7,10.3-7.3c2.5,5.4,5.4,10.7,8.7,15.7
		C98.5,542.3,95.2,544.5,91.9,546.6 M107.1,535.7c-1.1,0.9-2.2,1.7-3.3,2.6c-3.2-4.9-6-10.1-8.4-15.4c-0.1-0.1-0.2-0.2-0.3-0.3
		c3.9-3.1,7.6-6.3,11.1-9.7c2.6,5.5,5.6,10.8,8.8,15.9C112.4,531.2,109.8,533.5,107.1,535.7 M117,526.9c-3-4.9-5.7-9.8-8.2-15
		c-0.2-0.3-0.6-0.5-1.2-0.5c3.4-3.3,6.6-6.8,9.7-10.5c3.2,5.1,6.4,10.2,9.6,15.4C123.8,520,120.5,523.5,117,526.9 M128.7,514.2
		c-3.2-5.2-6.4-10.3-9.6-15.4c3-3.7,5.8-7.6,8.5-11.6c3.7,4.7,7.1,9.6,10.2,14.7C135,506.1,132,510.2,128.7,514.2 M139.5,499.4
		c-3.2-5-6.7-9.8-10.4-14.5c1.4-2.1,2.7-4.3,3.9-6.4c1.6-2.8,3-5.6,4.4-8.4c2.7,6.2,5.4,12.4,8.3,18.5
		C143.8,492.3,141.7,495.9,139.5,499.4 M147.3,485.5c-2.9-6.2-5.7-12.5-8.4-18.8c2.1-4.7,3.9-9.5,5.5-14.4c3.8,6.8,5,14.7,7.8,22
		C150.8,478.1,149.1,481.8,147.3,485.5 M153.8,470.1c-2.3-7.3-3.8-14.9-8.3-21.2c1.1-3.8,2.1-7.7,3-11.7c1.9,3.6,3.9,7.1,5.8,10.7
		c1.2,2.1,2.3,5.3,3.8,7.8C156.9,460.7,155.5,465.5,153.8,470.1 M159.2,451.3c0-0.1-0.1-0.1-0.1-0.2c-0.9-1.7-1.9-3.5-2.8-5.2
		c-2.2-4.1-4.4-8.1-6.6-12.2c-0.1-0.1-0.2-0.2-0.4-0.3c0.7-3.7,1.3-7.4,1.8-11.1c2.7,6.5,6.1,12.7,10,18.6
		C160.6,444.4,159.9,447.9,159.2,451.3 M161.7,437c-4-6.5-7.3-13.4-9.9-20.7c0.3-2.9,0.5-5.9,0.7-8.9c3.6,6.3,7,12.7,10.4,19.2
		C162.6,430.1,162.2,433.6,161.7,437 M163.2,421.4c-3.2-6.1-6.6-12.2-10-18.2c-0.1-0.2-0.3-0.3-0.5-0.4c0.1-3.2,0.1-6.4,0.1-9.7
		c3.6,5.9,7.2,11.8,10.7,17.7C163.5,414.4,163.4,417.9,163.2,421.4"/>
	<path d="M-129.5,462.7c4.8,5.7,9.8,11.3,15,16.5c-0.2-0.6-0.4-1.1-0.5-1.7c-1-1.3-2.1-2.6-3.1-3.9c-2.8-3.1-5.7-6.2-8.5-9.3
		c-1-1-2.1-1.9-3.1-2.8C-129.6,461.8-129.6,462.3-129.5,462.7"/>
	<path fill="#9DCB45" stroke="#9DCB45" stroke-miterlimit="10" d="M6.1,406.4c-0.3-0.3-0.7-0.9-0.4-1.3c8.1-9.6,16.2-19.2,24.3-28.8
		c4.1-4.8,8.1-9.6,12.2-14.4c1.9-2.3,3.8-4.5,5.8-6.8c1.3-1.6,5.2-4.7,5.3-6.8c0.1-2-4-5.5-5.4-7c-1.8-2.1-3.7-4.2-5.5-6.3
		c-3.6-4.1-7.1-8.3-10.5-12.5c-6.2-7.5-12.1-15.2-17.9-23c-8.3,9.7-15.8,20.2-22.3,31.2c-0.7,1.2-3.4,1.4-5.2,0.9
		c-12.1,13.5-26.9,24.2-39.8,36.9c-4,3.9-7.8,8-11.2,12.4c-2.4,3.1-7.5,8.6-7.4,12.8c0,0.5,0.1,1.1,0.2,1.7c0.1,0.2,0.2,0.3,0.2,0.5
		c0,0.1,0,0.3,0.1,0.4c1.5,4.4,6.2,9.3,8.6,12.3c3.7,4.6,7.8,9,11.9,13.2c7.3,7.6,14.9,15,21.4,23.2c7.8,9.8,14.5,20.3,23.2,29.3
		c0.5,0.5,1,1,1.5,1.6c0.4,0.1,0.8,0.3,0.9,0.7c0,0.1,0,0.2,0.1,0.3c3.3,3.3,6.8,6.6,10.3,9.8c2.9,2.7,3.8,4.4,7.5,2.4
		c2.5-1.3,4.9-3.4,7.2-5.1c4.8-3.5,9.4-7.2,13.8-11.1c3.1-2.7,11.4-8.3,10.9-12.7c-0.3-2.6-2.6-5.8-3.8-8.1
		c-1.3-2.5-2.7-4.9-4.2-7.3c-2.6-4.3-5.4-8.5-8.4-12.5C22.5,422.8,14.7,414.2,6.1,406.4z"/>
	<path d="M64,469.1c-4.3-3.2-7.6-7.1-10.1-11.7c-0.3-0.6-1.2-1-2.2-1.1c-1.2-2.4-2.8-4.7-3.9-6.6c-3.6-6.3-7.6-12.4-11.9-18.3
		c-3-4-6.1-7.8-9.4-11.6l0,0c0.4-0.5,0.9-0.9,1.3-1.4c0.1,0,0.1,0.1,0.2,0.1c0.8,0.4,3.6-0.2,2.1-1c-0.3-0.2-0.6-0.4-0.9-0.6
		c1.9-2.1,3.9-4.2,5.8-6.3c0.9,0.5,3,0.1,2.6-0.7c-0.2-0.5-0.5-0.9-0.7-1.4c6.3-7.1,12.3-14.5,18.1-22c3.6-4.7,9.6-10.4,9.7-16.7
		c0.1-7.8-2-16.2-3.4-23.8c-0.2-1.2-2-1.7-3.7-1.7c-14-15.7-27.3-32-39.7-49c-1.1-1.5-5.1-1.9-6.4-0.4c-7.4,8.3-14.2,17-20.3,26.2
		c-1.5-0.1-3,0.2-3.6,1c-15.3,21.3-38.8,34.9-55.7,55c-3.5,4.2-9.1,10.1-10.3,15.6c-0.3,1.3-0.1,2.7,0.3,4.1
		c1.2,7.3,2.4,14.6,3.6,21.9c1,6.2,1.6,12.8,3.4,18.9c1.6,5.4,5,9,9.4,12.3c5,3.8,10,7.6,14.6,11.8c9.7,8.9,18.6,18.6,28.5,27.2
		c10.4,9,21.4,17.3,33,24.8c1.2,0.8,3.1,1.1,4.6,0.7c1,0.3,2.7-0.1,2.3-0.8c-0.1-0.1-0.2-0.3-0.3-0.4c16.1-12.6,30.6-26.9,43.4-42.8
		C64.7,470,64.3,469.3,64,469.1 M26.3,411.7c-0.7-1.7-1.2-3.5-1.7-4.8c-1.3-3.2-2.6-6.4-3.8-9.5l2.9-3.5c1.4-1.7,2.9-3.4,4.3-5.1
		c0.7,5.6,2.2,11,4.3,16.2C30.4,407.2,28.4,409.5,26.3,411.7 M24.3,413.9c-0.5,0.6-1,1.1-1.6,1.7c-0.6-0.7-1.2-1.3-1.8-2
		c-1.4-1.4-2.7-2.8-4.2-4.2s-3.2-2.2-2.7-4.2c0.4-1.7,3.1-3.9,4.6-5.5c1.4,3.6,2.9,7.2,4.3,10.8C23.5,411.6,23.9,412.8,24.3,413.9
		 M34.5,402.5c-2-5.4-3.3-11-3.7-16.9c1.9-2.3,3.8-4.6,5.8-6.8c0.8,5.8,2,11.4,3.6,17C38.2,398,36.4,400.3,34.5,402.5 M42.3,393
		c-1.5-5.7-2.6-11.5-3.2-17.4l5-5.9c1,5.5,2.2,11,3.6,16.5C45.9,388.5,44.1,390.8,42.3,393 M46.5,366.8c1.6-1.9,3.1-3.7,4.7-5.6
		c0.8,5.6,1.7,11.2,2.8,16.7c-1.3,1.8-2.7,3.6-4.1,5.4C48.7,377.9,47.5,372.4,46.5,366.8 M57.5,366.9c0.2,2.6-0.3,4.9-1.3,7.1
		c-0.9-5.2-1.8-10.5-2.4-15.8c0.7-0.9,1.5-1.7,2.2-2.6C56.7,359.4,57.2,363.1,57.5,366.9 M-71.2,396.4c0-0.2-0.1-0.4-0.2-0.5
		c-0.1-0.6-0.2-1.1-0.2-1.7c0-4.2,5-9.7,7.4-12.8c3.4-4.3,7.2-8.4,11.2-12.3c13-12.6,27.7-23.4,39.8-36.9c1.8,0.5,4.5,0.3,5.2-0.9
		c6.6-11,14-21.5,22.3-31.2c5.8,7.8,11.8,15.5,17.9,23c3.4,4.2,6.9,8.4,10.5,12.5c1.8,2.1,3.7,4.2,5.5,6.3c1.4,1.6,5.5,5.1,5.4,7
		c-0.1,2.1-4,5.3-5.3,6.8c-1.9,2.3-3.8,4.5-5.8,6.8c-4.1,4.8-8.1,9.6-12.2,14.4c-8.1,9.6-16.2,19.2-24.3,28.8
		c-0.4,0.4,0.1,1.1,0.4,1.3c8.6,7.8,16.4,16.4,23.3,25.7c3,4.1,5.8,8.2,8.4,12.5c1.5,2.4,2.9,4.8,4.2,7.3c1.3,2.3,3.5,5.4,3.8,8.1
		c0.5,4.4-7.9,10-10.9,12.7c-4.4,3.9-9,7.6-13.8,11.1c-2.3,1.7-4.7,3.8-7.2,5.1c-3.7,2-4.6,0.2-7.5-2.4c-3.5-3.2-6.9-6.4-10.3-9.8
		c0-0.1,0-0.2-0.1-0.3c-0.1-0.3-0.4-0.6-0.9-0.7c-0.5-0.5-1-1-1.5-1.6c-8.7-9.1-15.4-19.5-23.2-29.3c-6.6-8.3-14.1-15.7-21.4-23.2
		c-4.1-4.3-8.2-8.6-11.9-13.2c-2.4-3-7.1-7.9-8.6-12.3C-71.1,396.7-71.2,396.6-71.2,396.4 M-52.7,450.3c-4.5-3.3-9.1-6.5-11.1-12
		c-2.4-6.4-2.7-13.9-3.8-20.7l-1.2-7.2c2.8,3.4,5.7,6.7,8.8,9.9c-0.5,0.1-0.9,0.3-0.8,0.7c1.2,9.5,3.5,18.7,7,27.7
		c0.4,0.9,3.3,0.7,2.9-0.4c-3.2-8.2-5.4-16.7-6.7-25.4c3.6,3.7,7.2,7.4,10.8,11.2c-0.1,0.1-0.1,0.2-0.1,0.3
		c1.1,8.4,2.7,16.6,4.9,24.8C-45.4,456.1-49,453.1-52.7,450.3 M-37.9,463c-2.4-8.3-4.3-16.7-5.6-25.2c0.8,0.9,1.6,1.7,2.4,2.6
		c2.8,3.1,5.4,6.4,7.9,9.7c1.3,5.6,2.6,11.1,4,16.7c0.5,2.1,0.9,4.3,1.6,6.3C-30.9,469.8-34.4,466.4-37.9,463 M-22.7,477.8
		c0.5-0.2,0.7-0.5,0.4-0.9c-3.2-3.5-3.6-9.3-4.7-13.8c-0.6-2.4-1.1-4.7-1.7-7.1c3,4,5.9,8,9,11.8c-0.5,0.1-0.8,0.3-0.8,0.7
		c1.1,5.6,2.9,11.1,5.2,16.3C-17.8,482.5-20.3,480.2-22.7,477.8 M-9.9,489.5c-3.2-5.8-5.5-11.9-7-18.3c1.7,2.1,3.5,4.1,5.4,6
		c2.2,2.2,4.4,4.5,6.6,6.7c1.7,5.4,4,10.4,7.1,15.2C-1.8,496.1-5.9,492.9-9.9,489.5 M2.8,499.7c1,0.3,2.9,0,2.4-0.7
		c-2.2-3.4-4-6.9-5.5-10.5c1.8,1.6,3.6,3.2,5.4,4.6c0.9,0.7,1.9,1.2,2.8,1.6c2.1,4.7,4.4,9.2,6.9,13.6
		C10.8,505.5,6.8,502.6,2.8,499.7 M18.3,508.8c-2.6-4.4-4.9-8.9-7-13.6c2.2,0,4.5-0.9,6.7-2.4c0.5-0.3,1.1-0.7,1.6-1.1
		c1.2,3.6,2.8,7,4.7,10.2c0.2,0.4,0.8,0.5,1.5,0.5C23.3,504.6,20.8,506.7,18.3,508.8 M27.1,501.4c-2.1-3.5-3.8-7.3-5-11.2
		c2-1.4,3.9-2.8,5.8-4.2c1.7,3.3,3.4,6.7,4.9,10.1c0,0,0,0,0,0.1C30.9,497.9,29,499.7,27.1,501.4 M35,494.1
		c-1.5-3.3-3.1-6.6-4.9-9.9c2.2-1.7,4.3-3.4,6.4-5.1c0.2-0.1,0.3-0.3,0.5-0.4c1.3,3.2,2.6,6.4,3.8,9.6C38.9,490.3,37,492.2,35,494.1
		 M43.1,486.1c-1.2-3.1-2.5-6.2-3.7-9.2c1.8-1.5,3.7-3,5.5-4.6c1.1,2.6,2.4,5.1,4,7.5C47,481.9,45,484,43.1,486.1 M56.5,470.8
		c-0.1,0.8-2.8,3.4-3.4,4.1c-0.8,1-1.6,1.9-2.5,2.8c-1.4-2.4-2.6-4.9-3.6-7.5c1.7-1.6,3.3-3.4,4.7-5.2c0,0,0,0,0,0.1
		C53.1,466.7,56.8,468.9,56.5,470.8"/>
</g>
</svg>
