<?xml version="1.0" encoding="utf-8"?>
<!-- Generator: Adobe Illustrator 19.0.0, SVG Export Plug-In . SVG Version: 6.00 Build 0)  -->
<svg version="1.2" baseProfile="tiny" id="Layer_1" xmlns="http://www.w3.org/2000/svg" xmlns:xlink="http://www.w3.org/1999/xlink"
	 x="0px" y="0px" viewBox="0 0 301.2 220.9" xml:space="preserve">
<g id="XMLID_3_">
	<path id="XMLID_1_" fill="#9EC94F" stroke="#9EC94F" stroke-miterlimit="10" d="M295.1,102.7c-23.9-35.2-50.6-67.9-80.8-97.9
		c-2.8,3.2-5.5,6.2-8.1,9.3c-7.1,8.4-14.2,16.9-21.4,25.3c-0.7,0.8-0.7,1.3-0.1,2.2c11.9,16.4,22.9,33.3,33.1,50.8
		c0.9,1.6,0.9,1.7-0.5,2.9c-13.7,10.9-27,22.4-39.8,34.4c-1,0.9-2.1,1.7-3.1,2.7c-1.6,1.6-1.8,2.5-0.6,4.5c1.1,1.9,2.4,3.8,3.6,5.7
		c5.9,10,11.8,20,17.7,30c0.8,1.4,1.5,2.9,2.3,4.3c0.7,1.3,1.9,1.5,3,0.6c7.2-5.8,14.5-11.6,21.7-17.4
		c23.9-18.8,47.8-37.6,71.7-56.3C294.2,103.5,294.6,103.1,295.1,102.7"/>
	<path id="XMLID_2_" fill="#9EC94F" stroke="#9EC94F" stroke-miterlimit="10" d="M147,101.5C123.1,66.4,96.4,33.7,66.2,3.6
		c-2.8,3.2-5.5,6.2-8.1,9.3C51,21.3,43.9,29.8,36.7,38.2C36,39,36,39.5,36.6,40.4c11.9,16.4,22.9,33.3,33.1,50.8
		c0.9,1.6,0.9,1.7-0.5,2.9c-13.7,10.9-27,22.4-39.8,34.4c-1,0.9-2.1,1.7-3.1,2.7c-1.6,1.6-1.8,2.5-0.6,4.5c1.1,1.9,2.4,3.8,3.6,5.7
		c5.9,10,11.8,20,17.7,30c0.8,1.4,1.5,2.9,2.3,4.3c0.7,1.3,1.9,1.5,3,0.6c7.2-5.8,14.5-11.6,21.7-17.4
		c23.9-18.8,47.8-37.6,71.7-56.3C146.1,102.2,146.5,101.9,147,101.5"/>
	<path id="XMLID_44_" d="M65.3,0c0.6,0.1,1.3,0.1,1.8,0.3c0.8,0.2,1.8,0.4,2.3,1c11,10.8,21.5,22,31.6,33.6
		c18.4,21,35.4,43.2,51.1,66.3c1,1.4,1.1,2.7,0.7,4.3c-0.6,2.1-1.1,4.2-1.7,6.4c-3.4,12.4-6.7,24.8-10.1,37.2
		c-1.1,4.1-2.5,8.1-5.7,11.1c-1.7,1.6-3.6,3.2-5.5,4.6c-28.1,20-57.2,38.5-87.1,55.7c-1.1,0.6-2.2,0.7-3.3,0.5
		c-1.1-0.2-2.2-0.6-3.2-0.9c-0.5-0.2-0.9-0.5-1.2-0.9c-0.5-0.8-0.9-1.7-1.4-2.5c-10.3-15.3-20.7-30.6-31.1-45.8
		c-0.2-0.3-0.6-0.7-0.9-0.8c-1.7-0.7-1.9-1.1-1.2-2.8c4.7-11.7,10.1-23.1,16.2-34.2c1-1.9,1.8-2.3,4-2.1c0.4,0,1-0.2,1.3-0.4
		c3.3-3,6.6-6.1,9.9-9.2c2.3-2.1,4.5-4.1,6.8-6.2c-0.3-0.4-0.6-0.6-0.9-0.9c-5.9-7.8-12.2-15.2-19-22.2c-1.7-1.8-3-4.1-6-4.2
		c-1.3,0-1.5-1-0.8-2.3c7.2-13.9,12.7-28.5,17-43.6c0.4-1.3,0.5-2.6,2.1-3c0.3-0.1,0.4-0.5,0.6-0.7c10-11.7,20-23.5,30-35.2
		c1-1.1,1.9-2.4,3.6-2.6L65.3,0z M147,102.5C123.1,67.3,96.4,34.7,66.2,4.6c-2.8,3.2-5.5,6.2-8.1,9.3C51,22.3,43.9,30.8,36.7,39.2
		C36,40,36,40.5,36.6,41.4c11.9,16.4,22.9,33.3,33.1,50.8c0.9,1.6,0.9,1.7-0.5,2.9c-13.7,10.9-27,22.4-39.8,34.4
		c-1,0.9-2.1,1.7-3.1,2.7c-1.6,1.6-1.8,2.5-0.6,4.5c1.1,1.9,2.4,3.8,3.6,5.7c5.9,10,11.8,20,17.7,30c0.8,1.4,1.5,2.9,2.3,4.3
		c0.7,1.3,1.9,1.5,3,0.6c7.2-5.8,14.5-11.6,21.7-17.4c23.9-18.8,47.8-37.6,71.7-56.3C146.1,103.2,146.5,102.9,147,102.5 M22.9,142.6
		c-2.8,7-5.7,14-8.4,21c-1.2,3.2-2.2,6.5-3.2,9.8c-0.1,0.4-0.1,0.9,0.1,1.2c3,4.5,6,9,9.1,13.5c0.1,0.1,0.2,0.1,0.4,0.3
		c1.2-2.9,2.4-5.7,3.5-8.5c2.8-6.7,5.5-13.4,8.3-20.2c0.3-0.6,0.3-1.1-0.1-1.8c-1.4-2.3-2.7-4.6-4.2-7.1c-0.8,1.7-1.6,3.2-2.3,4.8
		c-3,7.3-6,14.6-9,21.9c-0.1,0.2-0.1,0.5-0.3,0.7c-0.4,0.3-0.8,0.4-1.2,0.6c-0.1-0.4-0.4-0.9-0.3-1.2c1.8-4.8,3.6-9.7,5.6-14.4
		c1.9-4.5,4-8.9,6.1-13.3c0.2-0.4,0.3-0.9,0.2-1.2c-1.2-2.1-2.4-4.1-3.6-6.2C23.2,142.7,23,142.6,22.9,142.6 M18.2,84.3
		c2.2,2.1,4.3,4.2,6.5,6.4c0.1-0.2,0.3-0.4,0.4-0.7c4.6-12,9.1-24,13.7-36c0.1-0.3,0.1-0.7,0-0.9c-1.7-2.5-3.5-5-5.3-7.6
		C29.4,59,24.4,71.9,18.2,84.3 M129.4,122c-2.1,1.7-4.1,3.2-6,4.8c-0.3,0.2-0.4,0.7-0.5,1c-4.2,14.7-8.4,29.4-12.6,44.1
		c-0.1,0.3-0.1,0.5-0.2,1.1c2.3-1.6,4.5-3.1,6.6-4.5c0.2-0.2,0.3-0.5,0.4-0.8c5.1-14.6,9.2-29.6,12.2-44.8
		C129.4,122.7,129.4,122.5,129.4,122 M30.8,97.6c1.9-4.2,4-8.2,5.6-12.4c2.8-7.4,5.3-14.9,8-22.3c0.3-0.7,0.2-1.3-0.3-2
		c-1.3-1.8-2.6-3.7-4-5.8c-0.4,1.1-0.7,2.1-1.1,3c-4.2,11.1-8.5,22.1-12.8,33.2C26,92,26,92.4,26.6,93C28,94.4,29.2,95.9,30.8,97.6
		 M120.7,128.9c-2.4,1.9-4.8,3.7-7.1,5.6c-0.4,0.4-0.4,1.3-0.6,2c-1.7,5.5-3.5,10.9-5.1,16.5c-2.4,8.5-4.5,17-6.8,25.6
		c0,0.1,0,0.2-0.1,0.6c2.2-1.5,4.3-2.9,6.4-4.3c0.2-0.2,0.4-0.5,0.5-0.8c4.2-14.8,8.5-29.7,12.7-44.6
		C120.7,129.3,120.7,129.2,120.7,128.9 M126.1,161.9c4.1-2.8,7.2-6.3,8.6-11c2-6.8,3.9-13.6,5.8-20.4c1.8-6.7,3.6-13.4,5.4-20.1
		c0.1-0.3,0.1-0.7,0.3-1.4c-2.1,1.7-3.9,3.1-5.8,4.6c-0.2,0.2-0.3,0.5-0.3,0.7c-4.6,15.7-9.2,31.3-13.8,47
		C126.1,161.4,126.1,161.5,126.1,161.9 M45.9,63.6c-0.9,2.9-1.8,5.5-2.6,8.1c-3,9-6.7,17.8-11,26.2c-0.3,0.6-0.3,1,0.2,1.6
		c1.1,1.2,2.1,2.5,3.3,3.8c0.3-0.5,0.5-0.8,0.8-1.2c5.6-9.6,10.2-19.6,13.9-30.1c0.2-0.5,0.1-1.3-0.2-1.7
		C48.9,68.1,47.4,66,45.9,63.6 M67.8,200.4c2.8-1.7,5.2-3.3,7.5-4.7c-0.1-0.5-0.4-1-0.2-1.3c2.7-5,3.8-10.5,5-15.9
		c1.5-6.9,2.9-13.9,4.4-21.1c-1.6,1.3-3,2.5-4.5,3.5c-1.6,1.1-2.4,2.5-2.8,4.4c-2.3,11.4-5.3,22.7-9,33.7
		C68.1,199.4,68,199.7,67.8,200.4 M93.4,184.2c1.9-1.2,3.6-2.3,5.2-3.5c0.3-0.2,0.5-0.5,0.6-0.8c3.4-14.5,7.4-28.8,12-42.9
		c0-0.1,0-0.2,0-0.6c-2.3,1.8-4.4,3.4-6.2,4.9c0.1,0.7,0.4,1.3,0.2,1.6c-3.9,7.9-6.2,16.3-8.1,24.9
		C95.8,173.1,94.6,178.5,93.4,184.2 M84.8,189.7c2.2-1.4,4.3-2.7,6.2-4c0.4-0.3,0.5-0.9,0.6-1.5c1.6-7.2,3.2-14.5,4.9-21.7
		c1.6-6.7,3.7-13.3,6.8-19.5c0-0.1,0-0.1,0-0.4c-0.3,0.2-0.6,0.4-0.9,0.6c-1.7,1.3-3.2,2.8-5,3.9c-2.1,1.3-3.2,3.2-3.7,5.6
		c-1.6,7.6-3.3,15.1-5,22.7c-1.1,4.5-2.4,8.8-3.6,13.3C85.1,188.9,85,189.2,84.8,189.7 M41.1,110c1.6-3,3.1-5.7,4.5-8.6
		c3.4-6.9,6.7-13.8,10-20.7c0.4-0.8,0.4-1.4-0.1-2.1c-1.2-1.8-2.3-3.7-3.6-5.7c-0.9,2.3-1.6,4.4-2.5,6.4
		c-3.4,8.5-7.4,16.6-12.1,24.4c-0.5,0.8-0.4,1.2,0.2,1.9C38.7,106.9,39.8,108.4,41.1,110 M67.1,171c-1.9,1.5-3.5,2.7-5.1,4
		c-0.2,0.2-0.3,0.4-0.4,0.7c-4.1,11.1-7.8,22.3-10.8,33.7c-0.1,0.4-0.1,0.8-0.2,1.4c2.2-1.3,4.3-2.6,6.3-3.8
		c0.2-0.1,0.4-0.5,0.5-0.8c4.2-11.1,7.4-22.6,9.6-34.3C67,171.7,67.1,171.5,67.1,171 M36.9,212.2c1.4-3.8,2.7-7.5,4-11.1
		c2.1-5.9,4.2-11.9,6.4-17.8c0.3-0.8,0.2-1.2-0.5-1.9c-1.2-1.1-2.1-2.5-3.2-3.8c-0.2,0.6-0.5,1.1-0.7,1.7
		c-3.2,8.1-6.9,16.1-11.1,23.7c-0.4,0.7-0.5,1.2,0.1,1.9C33.6,207.2,35.2,209.6,36.9,212.2 M26,196.4c1.9-4.5,3.9-8.5,5.4-12.7
		c2-5.5,3.6-11.2,5.4-16.9c0.2-0.5,0.1-1.2-0.2-1.7c-0.8-1.5-1.7-2.9-2.6-4.5c-0.9,2.2-1.7,4.1-2.5,6.1c-3.1,7.5-6.1,15-9.3,22.5
		c-0.3,0.8-0.3,1.3,0.2,2C23.6,192.7,24.7,194.4,26,196.4 M59.6,205.4c2.4-1.4,4.5-2.7,6.5-3.9c0.1-0.8,0.1-1.4,0.3-2
		c3.8-11.2,6.8-22.5,9.2-34.1c0.1-0.3,0.1-0.5,0.1-1.1c-2.2,1.8-4.3,3.4-6.3,5c-0.3,0.2-0.3,0.7-0.4,1.1c-2,11.6-5.1,22.9-9.1,34
		C59.8,204.6,59.7,204.9,59.6,205.4 M77.1,194.6c1.7-1.1,3.5-2.2,5.3-3.3c0.2-0.1,0.3-0.3,0.4-0.4c2.4-7.2,4.3-14.6,5.8-22.1
		c1.1-5.6,2.5-11.1,3.7-16.6c0.1-0.3,0.1-0.5,0.2-1.2c-2.1,1.7-4.1,3.1-5.8,4.7c-0.6,0.6-0.6,1.9-0.8,2.8c-2,9.2-3.9,18.5-6,27.7
		C79.3,189.1,78.1,191.8,77.1,194.6 M137.8,115.4c-2.1,1.7-4,3.1-5.9,4.6c-0.3,0.2-0.5,0.7-0.6,1.1c-2.9,15.2-6.9,30.1-11.9,44.7
		c-0.1,0.2-0.1,0.4-0.2,0.8c1.6-1.1,2.9-2,4.3-3c0.3-0.2,0.4-0.6,0.5-0.9c4.6-15.5,9.1-31.1,13.7-46.6
		C137.7,116,137.7,115.9,137.8,115.4 M38.4,168c-1.4,4.3-2.5,8.4-4,12.5c-1.9,5.1-4.2,10-6.3,15c-0.3,0.8-0.8,1.3-1.9,1
		c1.4,2.1,2.7,4,4.1,6.1c0.8-1.6,1.7-3,2.3-4.5c3.2-7.1,6.4-14.3,9.6-21.4c0.3-0.8,0.3-1.4-0.1-2.1C40.8,172.4,39.7,170.3,38.4,168
		 M59.2,177.3c-1.8,1.3-3.4,2.5-5,3.7c-0.3,0.2-0.5,0.5-0.6,0.9c-4,11.2-8,22.3-12,33.5c-0.1,0.1-0.1,0.3-0.1,0.7
		c2.5-1.4,4.7-2.8,7-4.1c0.2-0.1,0.4-0.5,0.4-0.8c2.3-11.4,6.3-22.3,10.1-33.2C59.1,177.8,59.1,177.7,59.2,177.3 M20,137
		c-3.5,7.5-7,14.7-10.3,21.9c-1.1,2.3-2.1,4.8-3,7.2c-0.2,0.4-0.1,1.1,0.1,1.5c0.9,1.5,1.9,3,3.1,4.7c0.2-0.6,0.4-1.1,0.5-1.5
		c3.1-9.8,6.7-19.3,11.3-28.4c0.6-1.2,0.6-2-0.2-3C20.9,138.7,20.6,138,20,137 M50.8,103.9c0.1-0.5,0.1-1,0.4-1.4
		c2.8-4.8,5.6-9.7,8.5-14.5c0.6-1,0.6-1.7,0-2.6c-0.9-1.3-1.6-2.6-2.4-4c-5,10-9.9,19.9-15,30.1c3.1-2.6,5.9-5.1,8.8-7.5
		C51,104,50.9,104,50.8,103.9 M53.3,102c3.3-2.5,6.4-4.7,9.4-7c1.2-0.9,1.4-1.7,0.8-3.2c-0.6-1.2-1.3-2.3-2.1-3.6
		C58.7,92.9,56.1,97.3,53.3,102"/>
	<path id="XMLID_19_" d="M213.4,0c0.3,0.1,0.6,0.3,0.9,0.2c1.9-0.3,3.1,0.7,4.4,2c30,29.9,56.8,62.5,80.7,97.5
		c0.6,0.9,1.3,1.8,1.9,2.7v2.4c-0.2,0.4-0.4,0.8-0.5,1.2c-3.1,11.9-6.2,23.8-9.4,35.7c-1,3.7-2.2,7.2-3.4,10.9
		c-1.6,5.2-5.3,8.7-9.6,11.7c-28.3,20-57.5,38.7-87.5,55.9c-1.1,0.6-2.1,0.8-3.2,0.5c-1.2-0.3-2.3-0.6-3.4-1c-0.4-0.2-0.9-0.6-1.1-1
		c-0.5-0.7-0.8-1.6-1.3-2.3c-10.4-15.4-20.8-30.7-31.2-46c-0.2-0.3-0.5-0.6-0.9-0.7c-1.8-0.7-1.9-1.1-1.2-2.9
		c4.7-11.7,10.1-23.1,16.2-34.2c0.9-1.6,2-2.3,3.7-2c0.9,0.2,1.4-0.2,2-0.8c3.1-2.9,6.2-5.8,9.4-8.7c2.3-2.1,4.7-4.2,7-6.3
		c-0.4-0.5-0.8-1-1.2-1.5c-6.4-8.4-13.3-16.3-20.7-23.8c-1-1-1.9-2-3.5-1.9c-0.3,0-0.6-0.1-0.9-0.3c-0.8-0.4-1.1-1-0.7-1.8
		c0.3-0.6,0.6-1.2,0.9-1.8c6.9-13.9,12.4-28.3,16.6-43.2c0.2-0.6,0.6-1.1,1-1.6c0.6-0.6,1.4-1.1,1.9-1.7c10-11.7,19.9-23.3,29.9-35
		c0.9-1,1.8-2,3.2-2.2L213.4,0z M295,102.5c-23.8-35.2-50.6-67.8-80.8-97.9c-2.3,2.6-4.5,5.1-6.7,7.7c-7.7,9-15.3,18.1-22.9,27.1
		c-0.6,0.7-0.6,1.2,0,1.9c11.8,16.3,22.8,33.1,32.9,50.5c1.2,2.1,1.2,2.1-0.6,3.6c-13.5,10.7-26.5,21.9-39,33.7
		c-0.9,0.9-1.9,1.7-2.9,2.5c-2.3,2.1-2.5,3.1-0.8,5.8c2,3.3,4.1,6.5,6,9.8c5,8.4,10,16.9,15,25.4c0.8,1.3,1.4,2.7,2.2,4
		c0.8,1.4,1.9,1.6,3.1,0.6c5.2-4.2,10.3-8.3,15.5-12.5c26.1-20.5,52.2-41,78.3-61.5C294.5,103,294.7,102.8,295,102.5 M168.8,188.6
		c2.5-6,4.8-11.7,7.2-17.4c1.6-3.8,3.1-7.6,4.7-11.4c0.3-0.7,0.3-1.2-0.1-1.8c-1.4-2.3-2.7-4.6-4.2-7.1c-0.8,1.7-1.6,3.2-2.3,4.8
		c-3,7.3-6,14.5-8.9,21.8c-0.1,0.3-0.1,0.6-0.3,0.8c-0.4,0.3-0.8,0.4-1.2,0.6c-0.1-0.4-0.4-0.8-0.3-1.1c1.8-4.7,3.5-9.4,5.4-14
		c2-4.6,4.2-9.2,6.2-13.7c0.2-0.4,0.3-0.9,0.2-1.2c-1.2-2.1-2.4-4.2-3.7-6.3l-0.4-0.1c-2.5,6.2-5.2,12.4-7.6,18.6
		c-1.5,3.9-2.7,8-4,12c-0.1,0.5-0.1,1.1,0.1,1.5c2.9,4.5,5.9,8.9,8.9,13.4C168.5,188.2,168.6,188.3,168.8,188.6 M181.4,45.7
		c-4,13.4-9,26.2-15.1,38.6c2.2,2.1,4.4,4.2,6.7,6.4c1.8-4.6,3.8-9.3,5.6-14.1c2.8-7.4,5.5-14.9,8.2-22.4c0.1-0.3,0.1-0.9-0.1-1.2
		c-1.6-2.3-3.2-4.6-4.8-6.9C181.8,46,181.6,45.9,181.4,45.7 M277.4,122.1c-2.1,1.6-4,3.2-6,4.7c-0.3,0.2-0.4,0.6-0.5,0.9
		c-4.2,14.8-8.5,29.7-12.7,44.5c-0.1,0.2-0.1,0.4-0.2,0.8c2.4-1.6,4.5-3.1,6.7-4.6c0.2-0.2,0.3-0.5,0.4-0.8
		c5.2-14.7,9.2-29.7,12.3-45C277.5,122.5,277.4,122.4,277.4,122.1 M178.7,97.5c3.9-7.6,7.2-15.2,9.9-23c1.3-3.8,2.5-7.7,3.8-11.6
		c0.2-0.7,0.2-1.3-0.3-1.9c-1.3-1.9-2.6-3.8-4-5.9c-1.2,3.3-2.2,6.5-3.4,9.6c-3.4,8.9-6.9,17.7-10.4,26.5c-0.3,0.8-0.3,1.3,0.3,1.9
		C176.1,94.5,177.3,95.9,178.7,97.5 M249.3,179c2.1-1.4,4.2-2.8,6.2-4.2c0.3-0.2,0.4-0.6,0.5-0.9c4.2-14.8,8.4-29.6,12.7-44.4
		c0-0.1,0-0.3,0.1-0.6c-2.5,1.9-4.8,3.7-7.1,5.7c-0.4,0.3-0.4,1.2-0.6,1.8c-1.7,5.5-3.5,11-5.1,16.6c-2.4,8.6-4.7,17.2-7,25.9
		C249.1,178.9,249.2,178.9,249.3,179 M274.1,161.9c4.4-3,7.5-6.8,8.9-11.8c3.7-13.3,7.3-26.7,11-40.1c0.1-0.3,0.1-0.5,0.2-1.1
		c-2,1.6-3.9,3-5.7,4.5c-0.2,0.2-0.3,0.5-0.4,0.8c-4.6,15.6-9.2,31.2-13.8,46.8C274.2,161.3,274.2,161.5,274.1,161.9 M179.9,98.8
		c1.3,1.5,2.6,3,3.9,4.6c0.5-0.8,0.9-1.5,1.3-2.2c5.4-9.3,9.8-19,13.3-29.2c0.2-0.5,0.1-1.3-0.2-1.7c-1.3-2.2-2.8-4.3-4.3-6.7
		C190.3,75.9,185.7,87.5,179.9,98.8 M215.8,200.4c2.7-1.7,5.2-3.2,7.5-4.7c-0.1-0.5-0.3-1-0.2-1.3c2.7-5,3.8-10.5,5-15.9
		c1.4-6.6,2.8-13.2,4.2-19.8c0.1-0.3,0.1-0.7,0.2-1.3c-2.3,1.8-4.4,3.4-6.5,5.1c-0.2,0.2-0.3,0.6-0.4,1c-2.4,12.2-5.6,24.2-9.6,35.9
		C216,199.6,216,199.9,215.8,200.4 M241.4,184.2c1.9-1.2,3.5-2.3,5.1-3.4c0.3-0.2,0.6-0.6,0.6-0.9c3.4-14.5,7.4-28.8,12-43
		c0-0.1,0-0.2,0-0.5c-2.2,1.7-4.4,3.4-6.3,4.9c0.1,0.7,0.4,1.2,0.3,1.5c-4,8.2-6.3,16.9-8.3,25.8
		C243.7,173.7,242.6,178.8,241.4,184.2 M232.8,189.7c2.2-1.4,4.2-2.6,6.1-4c0.4-0.2,0.6-0.8,0.7-1.3c1.5-6.5,2.9-13,4.4-19.5
		c1.7-7.4,3.9-14.7,7.2-21.7c0.1-0.1,0.1-0.3,0.2-0.6c-0.4,0.2-0.6,0.3-0.8,0.4c-2.4,1.8-4.7,3.7-7.1,5.6c-0.4,0.3-0.7,0.9-0.9,1.4
		c-1.6,6.8-3.1,13.6-4.8,20.4c-1.5,6.2-3.2,12.3-4.8,18.5C233,189.2,233,189.3,232.8,189.7 M184.9,104.7c1.4,1.8,2.8,3.5,4.3,5.3
		c1.5-2.9,3-5.6,4.4-8.3c3.4-6.9,6.7-13.9,10.1-20.9c0.4-0.8,0.4-1.4-0.1-2.2c-1.2-1.8-2.3-3.6-3.6-5.7
		C195.9,84.1,191,94.6,184.9,104.7 M215.1,171.1c-1.8,1.4-3.4,2.6-4.9,3.9c-0.3,0.3-0.5,0.7-0.7,1.1c-3.9,10.6-7.4,21.3-10.4,32.2
		c-0.2,0.7-0.3,1.5-0.6,2.5c2.3-1.4,4.4-2.6,6.4-3.8c0.3-0.2,0.5-0.6,0.6-1c4.2-11,7.3-22.3,9.4-33.9
		C215.1,171.9,215.1,171.6,215.1,171.1 M191.7,177.7c-2.4,5.4-4.9,11-7.4,16.5c-1.4,3-2.9,5.9-4.5,8.7c-0.4,0.8-0.4,1.4,0.1,2.1
		c1.7,2.3,3.2,4.6,4.9,7.1c0.2-0.5,0.4-0.9,0.5-1.3c3.3-9.2,6.6-18.4,9.9-27.6c0.3-0.8,0.2-1.2-0.5-1.9
		C193.7,180.3,192.8,178.9,191.7,177.7 M182,160.6c-1.3,3.2-2.5,6.2-3.7,9.1c-2.6,6.4-5.3,12.8-8,19.2c-0.4,1-0.3,1.7,0.3,2.5
		c1.1,1.5,2.1,3.1,3.3,4.8c0.3-0.7,0.6-1.2,0.9-1.7c4.3-8.9,7.6-18.1,10-27.6c0.1-0.6,0-1.3-0.3-1.9
		C183.8,163.5,183,162.2,182,160.6 M214.1,201.5c0.1-0.9,0.1-1.5,0.3-2c3.7-11.2,6.8-22.6,9.2-34.2c0.1-0.3,0.1-0.5,0.2-1.1
		c-2.2,1.8-4.3,3.4-6.3,5c-0.2,0.2-0.3,0.6-0.3,0.9c-2.1,11.8-5.2,23.4-9.3,34.6c0,0.1,0,0.2-0.1,0.6
		C210,204,212.2,202.6,214.1,201.5 M225.1,194.7c1.8-1.1,3.6-2.2,5.3-3.4c0.2-0.1,0.3-0.3,0.4-0.5c4-11.2,5.8-22.9,8.5-34.3
		c0.4-1.7,0.8-3.4,1.3-5.4c-2.1,1.7-4,3.1-5.8,4.7c-0.4,0.3-0.4,1.1-0.5,1.7c-1.8,8.7-3.7,17.3-5.5,26
		C227.9,187.2,226.8,190.9,225.1,194.7 M285.8,115.5c-2,1.6-4,3.1-5.9,4.7c-0.2,0.2-0.4,0.5-0.4,0.8c-2.9,15.3-6.9,30.3-12,45.1
		c0,0.1,0,0.2,0,0.6c1.5-1.1,2.9-2,4.3-3c0.2-0.2,0.3-0.5,0.4-0.8c4.6-15.7,9.2-31.3,13.8-47C285.8,115.8,285.8,115.8,285.8,115.5
		 M174.5,197c1.1,1.6,2.4,3.5,3.8,5.6c0.8-1.5,1.6-2.8,2.2-4.2c3.3-7.2,6.5-14.5,9.8-21.7c0.3-0.8,0.3-1.4-0.1-2.1
		c-1.3-2.1-2.4-4.3-3.8-6.7c-0.8,2.7-1.5,5.1-2.2,7.5c-2.1,6.9-4.8,13.5-8,20C175.8,196,175.1,196.4,174.5,197 M207.2,177.4
		c-1.8,1.3-3.4,2.5-5.1,3.8c-0.2,0.2-0.4,0.5-0.5,0.8c-4,11.1-7.9,22.2-11.9,33.3c-0.1,0.2-0.1,0.4-0.2,0.9c2.5-1.4,4.7-2.8,7-4.1
		c0.3-0.2,0.4-0.6,0.5-0.9c2.3-11.3,6.3-22.2,10.1-33.1C207.2,177.9,207.2,177.7,207.2,177.4 M170.4,140.9c-0.7-1.1-1.4-2.3-2.2-3.7
		c-1.3,2.4-2.5,4.7-3.6,7c-3.3,7.2-6.6,14.5-9.9,21.8c-0.3,0.7-0.3,1.1,0.2,1.7c1,1.4,1.9,2.9,3.1,4.6
		C161.3,161.4,165.3,151,170.4,140.9 M198.9,103.9c0.1-0.4,0.1-0.9,0.3-1.2c2.9-5,5.8-10,8.8-15c0.4-0.6,0.4-1.1,0-1.7
		c-1-1.5-1.8-3-2.7-4.5c-5,10-9.9,19.9-15,30.1c3.1-2.6,5.9-5.1,8.8-7.5C199,104,199,103.9,198.9,103.9 M209.4,88.3
		c-2.7,4.5-5.2,8.9-7.8,13.3c0,0.1,0.1,0.1,0.1,0.2c0.2-0.1,0.4-0.2,0.5-0.3c2.5-1.8,4.9-3.7,7.4-5.5c2.7-2,2.9-2.9,1.1-5.8
		C210.3,89.5,209.9,89,209.4,88.3"/>
</g>
</svg>
