<?xml version="1.0" encoding="utf-8"?>
<!-- Generator: Adobe Illustrator 19.0.0, SVG Export Plug-In . SVG Version: 6.00 Build 0)  -->
<svg version="1.2" baseProfile="tiny" id="Layer_1" xmlns="http://www.w3.org/2000/svg" xmlns:xlink="http://www.w3.org/1999/xlink"
	 x="0px" y="0px" viewBox="0 0 313.8 307.8" xml:space="preserve">
<g>
	<g>
		<path fill="#FFFFFF" d="M194.6,287c-4.1,4.4-8.2,8.8-12.3,13.1c-1.2,0.2-2.3,0.4-3.5,0.6c4-4.4,8.1-8.8,12.1-13.2
			C192.2,287.4,193.4,287.2,194.6,287z"/>
		<path fill="#FFFFFF" d="M203.1,285.4c-5,4.4-9.9,8.9-14.7,13.5c-0.6,0.2-1.3,0.3-1.9,0.4c4.1-4.3,8.1-8.7,12.2-13
			C200.1,286,201.6,285.7,203.1,285.4z"/>
		<path fill="#FFFFFF" d="M194.5,297.2c-0.5,0.2-1,0.3-1.5,0.4c2.4-2.2,4.7-4.4,7.1-6.6L194.5,297.2z"/>
		<path fill="#FFFFFF" d="M187.3,288.1c-4.1,4.4-8.1,8.9-12.2,13.3c-0.9,0.1-1.8,0.2-2.7,0.3c3.3-4.2,6.3-8.5,9.1-13.1
			C183.5,288.4,185.4,288.3,187.3,288.1z"/>
		<path fill="#FFFFFF" d="M214,282.4c-3.1,4.2-6.6,8.1-10.3,11.8c-1.5,0.6-3.1,1.1-4.6,1.6l11.2-12.3
			C211.5,283.1,212.8,282.8,214,282.4z"/>
		<path fill="#FFFFFF" d="M178.3,288.7c-2.9,4.6-6,9-9.4,13.2c-1.2,0.1-2.4,0.2-3.6,0.3c3.8-4.5,7.6-8.9,11.5-13.4
			C177.3,288.8,177.8,288.8,178.3,288.7z"/>
		<path fill="#FFFFFF" d="M173.5,288.9c-3.8,4.5-7.7,9-11.5,13.5c-2.4,0.1-4.7,0.1-7.1,0c4-4.2,7.6-8.8,10.8-13.6
			C168.3,288.9,170.9,288.9,173.5,288.9z"/>
		<path fill="#FFFFFF" d="M17.3,106.7c0.2,0,0.3,0,0.5,0c-0.2,0.3-0.4,0.7-0.6,1C17.2,107.4,17.3,107.1,17.3,106.7z"/>
		<path fill="#FFFFFF" d="M220.2,280.2c-2.4,3.1-4.6,6.4-6.7,9.7c-1.4,0.7-2.8,1.3-4.1,1.9c3.2-3.4,6.2-7,8.9-10.9
			C218.9,280.7,219.5,280.5,220.2,280.2z"/>
		<path fill="#FFFFFF" d="M19.4,123.8c-0.1,0.1-0.2,0.1-0.3,0.2c-3,4.9-5.9,9.7-8.9,14.6c0.1-2.4,0.2-4.9,0.3-7.3
			c3.2-4.1,6.1-8.4,8.8-12.8C19.4,120.2,19.4,122,19.4,123.8z"/>
		<path fill="#FFFFFF" d="M162.6,288.6c-3.3,4.9-6.9,9.4-11,13.6c-1.4-0.1-2.7-0.2-4.1-0.3c4-4.4,7.9-8.9,11.5-13.7
			C160.3,288.5,161.4,288.5,162.6,288.6z"/>
		<path fill="#FFFFFF" d="M12.2,114.8c0.7-1.2,1.4-2.4,2.1-3.6c0.2,0.1,0.4,0.2,0.7,0.2c-1,1.5-1.9,3-2.9,4.4
			C12.1,115.4,12.1,115.1,12.2,114.8z"/>
		<path fill="#FFFFFF" d="M224.7,279.4c0.5-0.4,0.8-0.8,0.9-1.3c0.4-0.2,0.9-0.3,1.3-0.5c-1.9,1.9-3.9,3.9-5.8,5.8
			c0.9-1.3,1.8-2.5,2.8-3.7C224.2,279.7,224.5,279.6,224.7,279.4z"/>
		<path fill="#FFCC2B" d="M84.8,250.7c-19.3-16-34.8-37-43.7-61.2c-11.6-31.6-13-69.5-6-102.4c6.7-31.3,26.7-54.7,54.1-68
			C117,5.7,148.2,4.6,178.4,5.7c-3.9,0.1-7.9,0.4-11.8,0.9c-6.9,0.9-2,5.7,2.7,5.1c32.3-4,65,7.4,89.9,29.1
			c24.8,21.7,40,53.3,43.6,87c6.4,59.1-24.2,115.7-74.6,142.1C181.1,294.7,125.5,284.5,84.8,250.7z"/>
		<path fill="#FFFFFF" d="M26.9,75.9c0.3-0.5,0.6-1.1,0.9-1.6c0.3-0.3,0.5-0.6,0.8-1c-0.1,0.3-0.2,0.5-0.3,0.8
			C27.8,74.7,27.3,75.3,26.9,75.9z"/>
		<path fill="#FFFFFF" d="M20.4,109c-2.9,4.4-6,8.8-9.1,13.1c0-0.3,0.1-0.6,0.1-1c3.2-4.3,6.2-8.8,9-13.5
			C20.4,108.1,20.4,108.5,20.4,109C20.4,109,20.4,109,20.4,109z"/>
		<path fill="#FFFFFF" d="M40.7,211.5c1.2,2.2,2.6,4.3,3.9,6.4c-3.7,4.6-7.2,9.5-10.4,14.5c-2.2-3.5-4.3-7.1-6.3-10.8
			c2.9-6.1,5.7-12.3,8.3-18.5C37.7,206,39.2,208.8,40.7,211.5z"/>
		<path fill="#FFFFFF" d="M34.8,199.7c-2.7,6.3-5.4,12.6-8.4,18.8c-1.8-3.7-3.4-7.4-4.9-11.2c2.8-7.3,4-15.2,7.8-22
			C30.9,190.2,32.7,195,34.8,199.7z"/>
		<path fill="#FFFFFF" d="M24.5,166.4c-0.2,0.1-0.3,0.2-0.4,0.3c-2.2,4.1-4.4,8.1-6.6,12.2c-0.9,1.7-1.9,3.5-2.8,5.2
			c0,0.1-0.1,0.1-0.1,0.2c-0.8-3.4-1.4-6.8-2-10.3c3.9-5.9,7.3-12.1,10-18.6C23.1,159.1,23.7,162.8,24.5,166.4z"/>
		<path fill="#FFFFFF" d="M135.4,299.9c2.6-4.8,5.7-9.3,9-13.6c3.9,0.8,7.8,1.4,11.7,1.8c-3.6,4.7-7.5,9.3-11.5,13.7
			c-3.3-0.3-6.7-0.8-10-1.4C135,300.2,135.3,300.1,135.4,299.9z"/>
		<path fill="#FFFFFF" d="M21.1,135.9c-0.2,0.1-0.4,0.2-0.5,0.4c-3.5,6-6.8,12.1-10,18.2c-0.2-3.5-0.3-7.1-0.3-10.6
			c3.6-5.9,7.2-11.8,10.7-17.7C20.9,129.4,20.9,132.6,21.1,135.9z"/>
		<path fill="#FFFFFF" d="M21.9,149.3c-2.6,7.3-5.9,14.1-9.9,20.7c-0.5-3.4-0.8-6.9-1.1-10.3c3.3-6.5,6.8-12.9,10.4-19.2
			C21.4,143.4,21.7,146.4,21.9,149.3z"/>
		<path fill="#FFFFFF" d="M25.3,170.3c0.9,3.9,1.8,7.8,3,11.7c-4.5,6.3-6,13.9-8.3,21.2c-1.6-4.6-3.1-9.4-4.3-14.3
			c1.5-2.5,2.6-5.7,3.8-7.8C21.4,177.5,23.3,173.9,25.3,170.3z"/>
		<path fill="#FFFFFF" d="M93.4,266c1.3,0.8,2.7,1.7,4.1,2.5c2.6,1.5,5.3,3,8,4.3c-0.5,0-1,0.1-1.2,0.4c-3.5,4.3-6.9,8.8-10.1,13.4
			c-3.7-1.9-7.3-3.9-10.8-6.1c0.6,0,1.2-0.1,1.4-0.5C87.6,275.4,90.5,270.7,93.4,266z"/>
		<path fill="#FFFFFF" d="M117.5,278.3c-2.6,4.8-5,10.5-8.5,14.9c-4.2-1.6-8.4-3.4-12.5-5.4c3.3-4.9,6.8-9.6,10.6-14.2
			C110.5,275.3,113.9,276.9,117.5,278.3z"/>
		<path fill="#FFFFFF" d="M54.6,231.8c-3.2,5.1-6.4,10.3-9.6,15.4c-3.2-3.9-6.3-8-9.1-12.3c3.1-5.1,6.6-10,10.2-14.7
			C48.8,224.2,51.6,228.1,54.6,231.8z"/>
		<path fill="#FFFFFF" d="M78.7,255.6c-0.2,0.1-0.3,0.2-0.3,0.3c-2.4,5.3-5.3,10.5-8.4,15.4c-1.1-0.9-2.2-1.7-3.3-2.6
			c-2.7-2.2-5.3-4.5-7.9-6.9c3.2-5.2,6.2-10.5,8.8-15.9C71.1,249.3,74.8,252.5,78.7,255.6z"/>
		<path fill="#FFFFFF" d="M91.1,264.5c-3.1,5-6.2,10.1-9.3,15.1c-3.3-2.1-6.6-4.4-9.8-6.7c3.3-5,6.2-10.3,8.7-15.7
			C84.1,259.8,87.6,262.2,91.1,264.5z"/>
		<path fill="#FFFFFF" d="M66.1,244.4c-0.5,0-1,0.2-1.2,0.5c-2.5,5.1-5.2,10.1-8.2,15c-3.5-3.4-6.8-6.9-9.9-10.6
			c3.1-5.2,6.3-10.3,9.6-15.4C59.5,237.6,62.7,241.1,66.1,244.4z"/>
		<path fill="#FFFFFF" d="M129.5,282.5c-0.8,0.9-1.4,2-2.1,3.2l-6.3,10.8c-0.5,0.9,2.4,1.3,2.9,0.4l4.5-7.7c0.8-1.4,1.9-4.3,3.5-5.9
			c3.2,0.9,6.4,1.7,9.7,2.4c-3.4,4.4-6.4,8.9-9.1,13.8c-0.1,0.2-0.1,0.3,0,0.4c-7.2-1.4-14.2-3.3-21.1-5.8c3.6-4.4,6-9.9,8.6-14.8
			C123.2,280.5,126.3,281.6,129.5,282.5z"/>
		<path fill="#FFFFFF" d="M10.6,131.3c3.2-4.1,6.1-8.4,8.8-12.8c0,1.8,0,3.6,0,5.3c-0.1,0.1-0.2,0.1-0.3,0.2
			c-3,4.9-5.9,9.7-8.9,14.6C10.3,136.2,10.4,133.7,10.6,131.3z"/>
		<path fill="#FFFFFF" d="M15,111.4c-1,1.5-1.9,3-2.9,4.4c0-0.3,0.1-0.7,0.1-1c0.7-1.2,1.4-2.4,2.1-3.6
			C14.5,111.2,14.7,111.3,15,111.4z"/>
		<path fill="#FFFFFF" d="M17.8,106.7c-0.2,0.3-0.4,0.7-0.6,1c0-0.4,0.1-0.7,0.1-1.1C17.5,106.7,17.7,106.7,17.8,106.7z"/>
		<path fill="#FFFFFF" d="M20.4,107.6c0,0.4,0,0.9,0,1.3c0,0,0,0,0,0c-2.9,4.4-6,8.8-9.1,13.1c0-0.3,0.1-0.6,0.1-1
			C14.6,116.8,17.6,112.3,20.4,107.6z"/>
		<path fill="#FFFFFF" d="M28.5,73.3c-0.1,0.3-0.2,0.5-0.3,0.8c-0.5,0.6-0.9,1.2-1.4,1.8c0.3-0.5,0.6-1.1,0.9-1.6
			C28,73.9,28.3,73.6,28.5,73.3z"/>
		<path fill="#FFCC2B" d="M228.2,269.9c-47.2,24.7-102.8,14.6-143.5-19.2c-19.3-16-34.8-37-43.7-61.2c-11.6-31.6-13-69.5-6-102.4
			c6.7-31.3,26.7-54.7,54.1-68C117,5.7,148.2,4.6,178.4,5.7c-3.9,0.1-7.9,0.4-11.8,0.9c-6.9,0.9-2,5.7,2.7,5.1
			c32.3-4,65,7.4,89.9,29.1c24.8,21.7,40,53.3,43.6,87C309.2,186.9,278.6,243.5,228.2,269.9z"/>
		<path fill="#FFFFFF" d="M221,283.4c0.9-1.3,1.8-2.5,2.8-3.7c0.3,0,0.7-0.1,0.8-0.3c0.5-0.4,0.8-0.8,0.9-1.3
			c0.4-0.2,0.9-0.3,1.3-0.5C224.9,279.5,223,281.5,221,283.4z"/>
		<path fill="#FFFFFF" d="M209.4,291.8c3.2-3.4,6.2-7,8.9-10.9c0.7-0.2,1.3-0.5,2-0.7c-2.4,3.1-4.6,6.4-6.7,9.7
			C212.1,290.6,210.7,291.2,209.4,291.8z"/>
		<path fill="#FFFFFF" d="M199.1,295.8l11.2-12.3c1.3-0.4,2.5-0.7,3.8-1.1c-3.1,4.2-6.6,8.1-10.3,11.8
			C202.2,294.7,200.6,295.3,199.1,295.8z"/>
		<path fill="#FFFFFF" d="M193,297.7c2.4-2.2,4.7-4.4,7.1-6.6l-5.6,6.2C194,297.4,193.5,297.5,193,297.7z"/>
		<path fill="#FFFFFF" d="M186.4,299.3c4.1-4.3,8.1-8.7,12.2-13c1.5-0.3,3-0.6,4.5-0.9c-5,4.4-9.9,8.9-14.7,13.5
			C187.7,299.1,187,299.2,186.4,299.3z"/>
		<path fill="#FFFFFF" d="M178.8,300.8c4-4.4,8.1-8.8,12.1-13.2c1.2-0.2,2.4-0.4,3.7-0.6c-4.1,4.4-8.2,8.8-12.3,13.1
			C181.2,300.4,180,300.6,178.8,300.8z"/>
		<path fill="#FFFFFF" d="M172.4,301.6c3.3-4.2,6.3-8.5,9.1-13.1c1.9-0.1,3.8-0.3,5.7-0.5c-4.1,4.4-8.1,8.9-12.2,13.3
			C174.2,301.5,173.3,301.6,172.4,301.6z"/>
		<path fill="#FFFFFF" d="M165.3,302.2c3.8-4.5,7.6-8.9,11.5-13.4c0.5,0,1-0.1,1.6-0.1c-2.9,4.6-6,9-9.4,13.2
			C167.7,302.1,166.5,302.2,165.3,302.2z"/>
		<path fill="#FFFFFF" d="M154.8,302.4c4-4.2,7.6-8.8,10.8-13.6c2.6,0.1,5.2,0.2,7.8,0.1c-3.8,4.5-7.7,9-11.5,13.5
			C159.6,302.5,157.2,302.5,154.8,302.4z"/>
		<path fill="#FFFFFF" d="M147.6,302c4-4.4,7.9-8.9,11.5-13.7c1.2,0.1,2.4,0.2,3.5,0.3c-3.3,4.9-6.9,9.4-11,13.6
			C150.3,302.2,148.9,302.1,147.6,302z"/>
		<path fill="#FFFFFF" d="M134.6,300.3c0.4-0.1,0.7-0.2,0.8-0.5c2.6-4.8,5.7-9.3,9-13.6c3.9,0.8,7.8,1.4,11.7,1.8
			c-3.6,4.7-7.5,9.3-11.5,13.7C141.2,301.4,137.9,300.9,134.6,300.3z"/>
		<path fill="#FFFFFF" d="M111.4,294.1c3.6-4.4,6-9.9,8.6-14.8c3.1,1.2,6.3,2.3,9.5,3.3c-0.8,0.9-1.4,2-2.1,3.2l-6.3,10.8
			c-0.5,0.9,2.4,1.3,2.9,0.4l4.5-7.7c0.8-1.4,1.9-4.3,3.5-5.9c3.2,0.9,6.4,1.7,9.7,2.4c-3.4,4.4-6.4,8.9-9.1,13.8
			c-0.1,0.2-0.1,0.3,0,0.4C125.4,298.5,118.3,296.6,111.4,294.1z"/>
		<path fill="#FFFFFF" d="M96.4,287.8c3.3-4.9,6.8-9.6,10.6-14.2c3.4,1.7,6.9,3.3,10.4,4.7c-2.6,4.8-5,10.5-8.5,14.9
			C104.7,291.6,100.5,289.8,96.4,287.8z"/>
		<path fill="#FFFFFF" d="M83.3,280.6c0.6,0,1.2-0.1,1.4-0.5c2.9-4.7,5.7-9.4,8.6-14.1c1.3,0.8,2.7,1.7,4.1,2.5c2.6,1.5,5.3,3,8,4.3
			c-0.5,0-1,0.1-1.2,0.4c-3.5,4.3-6.9,8.8-10.1,13.4C90.4,284.8,86.8,282.7,83.3,280.6z"/>
		<path fill="#FFFFFF" d="M72.1,272.9c3.3-5,6.2-10.3,8.7-15.7c3.4,2.6,6.8,5,10.3,7.3c-3.1,5-6.2,10.1-9.3,15.1
			C78.5,277.5,75.3,275.3,72.1,272.9z"/>
		<path fill="#FFFFFF" d="M58.7,261.8c3.2-5.2,6.2-10.5,8.8-15.9c3.6,3.4,7.3,6.7,11.1,9.7c-0.2,0.1-0.3,0.2-0.3,0.3
			c-2.4,5.3-5.3,10.5-8.4,15.4c-1.1-0.9-2.2-1.7-3.3-2.6C63.9,266.5,61.3,264.2,58.7,261.8z"/>
		<path fill="#FFFFFF" d="M46.8,249.3c3.1-5.2,6.3-10.3,9.6-15.4c3.1,3.6,6.3,7.1,9.7,10.5c-0.5,0-1,0.2-1.2,0.5
			c-2.5,5.1-5.2,10.1-8.2,15C53.3,256.6,50,253,46.8,249.3z"/>
		<path fill="#FFFFFF" d="M35.9,234.9c3.1-5.1,6.6-10,10.2-14.7c2.7,4,5.5,7.9,8.5,11.6c-3.2,5.1-6.4,10.3-9.6,15.4
			C41.8,243.3,38.7,239.2,35.9,234.9z"/>
		<path fill="#FFFFFF" d="M28,221.7c2.9-6.1,5.7-12.3,8.3-18.5c1.4,2.8,2.8,5.6,4.4,8.4c1.2,2.2,2.6,4.3,3.9,6.4
			c-3.7,4.6-7.2,9.5-10.4,14.5C32,229,29.9,225.4,28,221.7z"/>
		<path fill="#FFFFFF" d="M21.5,207.3c2.8-7.3,4-15.2,7.8-22c1.6,4.9,3.4,9.7,5.5,14.4c-2.7,6.3-5.4,12.6-8.4,18.8
			C24.6,214.9,23,211.1,21.5,207.3z"/>
		<path fill="#FFFFFF" d="M15.6,188.9c1.5-2.5,2.6-5.7,3.8-7.8c1.9-3.6,3.9-7.1,5.8-10.7c0.9,3.9,1.8,7.8,3,11.7
			c-4.5,6.3-6,13.9-8.3,21.2C18.3,198.5,16.9,193.7,15.6,188.9z"/>
		<path fill="#FFFFFF" d="M12.6,174c3.9-5.9,7.3-12.1,10-18.6c0.5,3.7,1.1,7.4,1.8,11.1c-0.2,0.1-0.3,0.2-0.4,0.3
			c-2.2,4.1-4.4,8.1-6.6,12.2c-0.9,1.7-1.9,3.5-2.8,5.2c0,0.1-0.1,0.1-0.1,0.2C13.8,180.9,13.2,177.5,12.6,174z"/>
		<path fill="#FFFFFF" d="M10.9,159.7c3.3-6.5,6.8-12.9,10.4-19.2c0.2,3,0.4,5.9,0.7,8.9c-2.6,7.3-5.9,14.1-9.9,20.7
			C11.6,166.6,11.2,163.1,10.9,159.7z"/>
		<path fill="#FFFFFF" d="M10.2,143.8c3.6-5.9,7.2-11.8,10.7-17.7c0,3.2,0,6.4,0.1,9.7c-0.2,0.1-0.4,0.2-0.5,0.4
			c-3.5,6-6.8,12.1-10,18.2C10.3,150.9,10.2,147.4,10.2,143.8z"/>
	</g>
	<path d="M0.9,122.9c-3,36.1,1.6,73.9,19.9,105.4c14.2,24.6,35.2,44.6,59.3,58.4c30.2,17.4,64.5,24.1,97.5,19.7
		c0.7,0.3,1.9,0.3,2.3-0.1c0.1-0.1,0.2-0.2,0.2-0.2c21.6-3.3,42.6-11.3,61.5-24.4c23.4-16.2,41.2-38.5,52.1-63.8
		c20.5-35.3,26.4-79,13.2-120.2c-17-53.2-64.9-88.5-116.7-91.9c3.8-0.9,3-4.9-2.2-5.1C149.4-1.2,108.6-0.6,74,19.5
		c-4.6,2.7-9.1,5.7-13.3,9c-1.8,0.9-3.5,1.8-5.3,2.8C40.7,39.8,27.5,51,18.1,65.4C7,82.4,2.6,102.8,0.9,122.9 M10.4,138.5
		c0.1-2.4,0.2-4.9,0.3-7.3c3.2-4.1,6.1-8.4,8.8-12.8c0,1.8,0,3.6,0,5.3c-0.1,0.1-0.2,0.1-0.3,0.2C16.3,128.8,13.3,133.6,10.4,138.5
		 M14.4,111c0.2,0.1,0.4,0.2,0.7,0.2c-1,1.5-1.9,3-2.9,4.4c0-0.3,0.1-0.7,0.1-1C13,113.4,13.7,112.2,14.4,111 M17.4,106.6
		c0.2,0,0.3,0,0.5,0c-0.2,0.3-0.4,0.7-0.6,1C17.4,107.3,17.4,106.9,17.4,106.6 M11.5,121c3.2-4.3,6.2-8.8,9-13.5c0,0.4,0,0.9,0,1.3
		c0,0,0,0,0,0c-2.9,4.4-6,8.8-9.1,13.1C11.4,121.6,11.5,121.3,11.5,121 M27.9,74.1c0.3-0.3,0.5-0.6,0.8-1c-0.1,0.3-0.2,0.5-0.3,0.8
		c-0.5,0.6-0.9,1.2-1.4,1.8C27.3,75.2,27.6,74.7,27.9,74.1 M302.9,127.7c6.4,59.1-24.2,115.7-74.6,142.1
		c-47.2,24.7-102.8,14.6-143.5-19.2c-19.3-16-34.8-37-43.8-61.2c-11.6-31.6-13-69.5-6-102.4c6.7-31.3,26.7-54.7,54.1-68
		c27.9-13.5,59.1-14.6,89.3-13.5c-3.9,0.1-7.9,0.4-11.8,0.9c-6.9,0.9-2,5.7,2.7,5.1c32.3-4,65,7.4,89.9,29.1
		C284.1,62.4,299.3,94,302.9,127.7 M227,277.4c-1.9,1.9-3.9,3.9-5.8,5.8c0.9-1.3,1.8-2.5,2.8-3.7c0.3,0,0.7-0.1,0.8-0.3
		c0.5-0.4,0.8-0.8,0.9-1.3C226.1,277.8,226.5,277.6,227,277.4 M213.6,289.8c-1.4,0.7-2.8,1.3-4.1,1.9c3.2-3.4,6.2-7,8.9-10.9
		c0.7-0.2,1.3-0.5,2-0.7C217.9,283.2,215.7,286.5,213.6,289.8 M203.8,294c-1.5,0.6-3.1,1.1-4.6,1.6l11.2-12.3
		c1.3-0.4,2.5-0.7,3.8-1.1C211,286.4,207.6,290.4,203.8,294 M194.6,297.1c-0.5,0.2-1,0.3-1.5,0.4c2.4-2.2,4.7-4.4,7.1-6.6
		L194.6,297.1 M188.4,298.8c-0.6,0.2-1.3,0.3-1.9,0.4c4.1-4.3,8.1-8.7,12.2-13c1.5-0.3,3-0.6,4.5-0.9
		C198.2,289.7,193.2,294.2,188.4,298.8 M182.4,300c-1.2,0.2-2.3,0.4-3.5,0.6c4-4.4,8.1-8.8,12.1-13.2c1.2-0.2,2.4-0.4,3.7-0.6
		C190.6,291.3,186.5,295.7,182.4,300 M175.2,301.2c-0.9,0.1-1.8,0.2-2.7,0.3c3.3-4.2,6.3-8.5,9.1-13.1c1.9-0.1,3.8-0.3,5.7-0.5
		C183.3,292.4,179.2,296.8,175.2,301.2 M169,301.8c-1.2,0.1-2.4,0.2-3.6,0.3c3.8-4.5,7.6-8.9,11.5-13.4c0.5,0,1-0.1,1.6-0.1
		C175.5,293.2,172.4,297.6,169,301.8 M162.1,302.2c-2.4,0.1-4.7,0.1-7.1,0c4-4.2,7.6-8.8,10.8-13.6c2.6,0.1,5.2,0.2,7.8,0.1
		C169.7,293.3,165.9,297.8,162.1,302.2 M151.8,302.1c-1.4-0.1-2.7-0.2-4.1-0.3c4-4.4,7.9-8.9,11.5-13.7c1.2,0.1,2.4,0.2,3.5,0.3
		C159.5,293.3,155.8,297.9,151.8,302.1 M144.7,301.6c-3.3-0.3-6.7-0.8-10-1.4c0.4-0.1,0.7-0.2,0.8-0.5c2.6-4.8,5.6-9.3,9-13.6
		c3.9,0.8,7.8,1.4,11.7,1.8C152.6,292.6,148.8,297.2,144.7,301.6 M132.6,299.8c-7.2-1.4-14.2-3.3-21.1-5.8c3.6-4.4,6-9.9,8.6-14.8
		c3.1,1.2,6.3,2.3,9.5,3.3c-0.8,0.9-1.4,2-2.1,3.2l-6.3,10.8c-0.5,0.9,2.4,1.3,2.9,0.4l4.5-7.7c0.8-1.4,1.9-4.3,3.5-5.9
		c3.2,0.9,6.4,1.7,9.7,2.4c-3.4,4.4-6.4,8.9-9.1,13.8C132.5,299.5,132.5,299.7,132.6,299.8 M109,293.1c-4.2-1.6-8.4-3.4-12.5-5.4
		c3.3-4.9,6.8-9.6,10.6-14.2c3.4,1.7,6.9,3.3,10.4,4.7C114.9,283,112.6,288.6,109,293.1 M94.2,286.5c-3.7-1.9-7.3-3.9-10.8-6.1
		c0.6,0,1.2-0.1,1.4-0.5c2.9-4.7,5.7-9.4,8.6-14.1c1.3,0.8,2.7,1.7,4.1,2.5c2.6,1.5,5.3,3,8,4.3c-0.5,0-1,0.1-1.2,0.4
		C100.7,277.4,97.4,281.9,94.2,286.5 M82,279.5c-3.3-2.1-6.6-4.4-9.8-6.7c3.3-5,6.2-10.3,8.7-15.7c3.4,2.6,6.8,5,10.3,7.3
		C88.1,269.4,85.1,274.5,82,279.5 M66.7,268.6c-2.7-2.2-5.3-4.5-7.9-6.9c3.2-5.2,6.2-10.5,8.8-15.9c3.6,3.4,7.3,6.7,11.1,9.7
		c-0.2,0.1-0.3,0.2-0.3,0.3c-2.4,5.3-5.3,10.5-8.4,15.4C68.9,270.3,67.8,269.5,66.7,268.6 M56.9,259.8c-3.5-3.4-6.8-6.9-9.9-10.6
		c3.1-5.2,6.3-10.3,9.6-15.4c3.1,3.6,6.3,7.1,9.7,10.5c-0.5,0-1,0.2-1.2,0.5C62.6,249.9,59.8,254.9,56.9,259.8 M45.1,247.1
		c-3.2-3.9-6.3-8-9.1-12.3c3.1-5.1,6.6-10,10.2-14.7c2.7,4,5.5,7.9,8.5,11.6C51.5,236.8,48.3,241.9,45.1,247.1 M34.4,232.3
		c-2.2-3.5-4.3-7.1-6.3-10.8c2.9-6.1,5.7-12.3,8.3-18.5c1.4,2.8,2.8,5.6,4.4,8.4c1.2,2.2,2.6,4.3,3.9,6.4
		C41,222.5,37.6,227.3,34.4,232.3 M26.5,218.4c-1.8-3.7-3.4-7.4-4.9-11.2c2.8-7.3,4-15.2,7.8-22c1.6,4.9,3.4,9.7,5.5,14.4
		C32.2,205.9,29.4,212.2,26.5,218.4 M20,203c-1.6-4.6-3.1-9.4-4.3-14.3c1.5-2.5,2.6-5.7,3.8-7.8c1.9-3.6,3.9-7.1,5.8-10.7
		c0.9,3.9,1.8,7.8,3,11.7C23.9,188.1,22.4,195.7,20,203 M14.7,184.2c-0.8-3.4-1.4-6.8-2-10.3c3.9-5.9,7.3-12.1,10-18.6
		c0.5,3.7,1.1,7.4,1.8,11.1c-0.2,0.1-0.3,0.2-0.4,0.3c-2.2,4.1-4.4,8.1-6.6,12.2c-0.9,1.7-1.9,3.5-2.8,5.2
		C14.7,184,14.7,184.1,14.7,184.2 M12.1,169.9c-0.5-3.4-0.8-6.9-1.1-10.3c3.3-6.5,6.8-12.9,10.4-19.2c0.2,3,0.4,5.9,0.7,8.9
		C19.5,156.5,16.1,163.4,12.1,169.9 M10.6,154.3c-0.2-3.5-0.3-7.1-0.3-10.6c3.6-5.9,7.2-11.8,10.7-17.7c0,3.2,0,6.4,0.1,9.7
		c-0.2,0.1-0.4,0.2-0.5,0.4C17.2,142.1,13.9,148.2,10.6,154.3"/>
	<path d="M303.3,195.6c-4.8,5.7-9.8,11.3-15,16.5c0.2-0.6,0.4-1.1,0.5-1.7c1-1.3,2.1-2.6,3.1-3.9c2.8-3.1,5.7-6.2,8.5-9.3
		c1-1,2.1-1.9,3.1-2.8C303.5,194.7,303.4,195.2,303.3,195.6"/>
	<path fill="#FFFFFF" stroke="#FFFFFF" stroke-miterlimit="10" d="M167.7,139.3c0.3-0.3,0.7-0.9,0.4-1.3
		c-8.1-9.6-16.2-19.2-24.3-28.8c-4.1-4.8-8.1-9.6-12.2-14.4c-1.9-2.3-3.8-4.5-5.8-6.8c-1.3-1.6-5.2-4.7-5.3-6.8c-0.1-2,4-5.5,5.4-7
		c1.8-2.1,3.7-4.2,5.5-6.3c3.6-4.1,7.1-8.3,10.5-12.5c6.2-7.5,12.1-15.2,17.9-23c8.3,9.7,15.8,20.2,22.3,31.2
		c0.7,1.2,3.4,1.4,5.2,0.9c12.1,13.5,26.9,24.2,39.8,36.9c4,3.9,7.8,8,11.2,12.4c2.4,3.1,7.5,8.6,7.4,12.8c0,0.5-0.1,1.1-0.2,1.7
		c-0.1,0.2-0.2,0.3-0.2,0.5c0,0.1,0,0.3-0.1,0.4c-1.5,4.4-6.2,9.3-8.6,12.3c-3.7,4.6-7.8,9-11.9,13.2c-7.3,7.6-14.9,15-21.4,23.2
		c-7.8,9.8-14.5,20.3-23.2,29.3c-0.5,0.5-1,1-1.5,1.6c-0.4,0.1-0.8,0.3-0.9,0.7c0,0.1,0,0.2-0.1,0.3c-3.3,3.3-6.8,6.6-10.3,9.8
		c-2.9,2.7-3.8,4.4-7.5,2.4c-2.5-1.3-4.9-3.4-7.2-5.1c-4.8-3.5-9.4-7.2-13.8-11.1c-3.1-2.7-11.4-8.3-10.9-12.7
		c0.3-2.6,2.6-5.8,3.8-8.1c1.3-2.5,2.7-4.9,4.2-7.3c2.6-4.3,5.4-8.5,8.4-12.5C151.3,155.7,159.1,147.1,167.7,139.3z"/>
	<path d="M109.8,202c-0.3,0.2-0.7,0.9-0.4,1.3c12.8,15.9,27.3,30.3,43.4,42.8c-0.1,0.1-0.2,0.3-0.3,0.4c-0.4,0.7,1.3,1.1,2.3,0.8
		c1.5,0.4,3.4,0.1,4.6-0.7c11.5-7.5,22.6-15.7,33-24.8c9.9-8.7,18.8-18.3,28.5-27.2c4.6-4.3,9.6-8,14.6-11.8
		c4.4-3.3,7.8-6.9,9.4-12.3c1.8-6.1,2.4-12.7,3.4-18.9c1.2-7.3,2.4-14.6,3.6-21.9c0.4-1.4,0.5-2.8,0.3-4.1
		c-1.2-5.5-6.7-11.4-10.3-15.6c-16.9-20.1-40.4-33.7-55.8-55.2c-0.6-0.8-2.1-1.1-3.6-1c-6.1-9.2-12.9-18-20.3-26.2
		c-1.3-1.5-5.3-1.1-6.4,0.4c-12.4,17-25.7,33.4-39.7,49c-1.7,0-3.4,0.5-3.7,1.7c-1.4,7.6-3.5,16-3.4,23.8c0.1,6.3,6.1,12,9.7,16.7
		c5.7,7.6,11.8,14.9,18.1,22c-0.2,0.5-0.4,0.9-0.7,1.4c-0.4,0.8,1.7,1.2,2.6,0.7c1.9,2.1,3.8,4.2,5.8,6.3c-0.3,0.2-0.6,0.5-0.9,0.6
		c-1.5,0.8,1.3,1.5,2.1,1c0.1,0,0.1-0.1,0.2-0.1c0.4,0.5,0.9,0.9,1.3,1.4c0,0,0,0,0,0c-3.3,3.7-6.4,7.6-9.4,11.6
		c-4.3,5.8-8.3,12-11.9,18.3c-1.1,1.9-2.7,4.2-3.9,6.6c-1,0.2-1.8,0.5-2.2,1.1C117.4,194.9,114.1,198.8,109.8,202 M147.5,144.6
		c-2-2.2-4.1-4.5-6.1-6.8c2.2-5.2,3.6-10.6,4.3-16.2c1.4,1.7,2.9,3.4,4.3,5.1l2.9,3.5c-1.3,3.2-2.6,6.4-3.8,9.5
		C148.7,141.1,148.2,142.9,147.5,144.6 M149.5,146.8c0.5-1.1,0.9-2.2,1.3-3.4c1.4-3.6,2.9-7.2,4.3-10.8c1.5,1.6,4.2,3.8,4.6,5.5
		c0.5,2-1.2,2.8-2.7,4.2c-1.4,1.4-2.8,2.7-4.2,4.2c-0.6,0.7-1.2,1.3-1.8,2C150.5,147.9,150,147.3,149.5,146.8 M139.4,135.4
		c-1.9-2.2-3.8-4.5-5.6-6.7c1.6-5.6,2.8-11.3,3.6-17c1.9,2.3,3.8,4.6,5.8,6.8C142.7,124.3,141.4,129.9,139.4,135.4 M131.5,125.9
		c-1.8-2.2-3.6-4.5-5.3-6.7c1.3-5.5,2.5-11,3.6-16.5l5,5.9C134.1,114.4,133,120.2,131.5,125.9 M127.3,99.7c-1,5.5-2.1,11-3.4,16.5
		c-1.4-1.8-2.8-3.5-4.1-5.4c1.1-5.6,2-11.1,2.8-16.7C124.2,96,125.7,97.9,127.3,99.7 M116.3,99.8c0.3-3.8,0.9-7.6,1.5-11.3
		c0.7,0.9,1.5,1.7,2.2,2.6c-0.7,5.3-1.5,10.5-2.4,15.8C116.6,104.7,116.1,102.4,116.3,99.8 M245,129.3c0,0.1,0,0.3-0.1,0.4
		c-1.5,4.4-6.2,9.3-8.6,12.3c-3.7,4.6-7.8,9-11.9,13.2c-7.3,7.6-14.9,15-21.4,23.2c-7.8,9.8-14.5,20.3-23.2,29.3
		c-0.5,0.5-1,1-1.5,1.6c-0.4,0.1-0.8,0.3-0.9,0.7c0,0.1,0,0.2-0.1,0.3c-3.3,3.3-6.8,6.6-10.3,9.8c-2.9,2.7-3.8,4.4-7.5,2.4
		c-2.5-1.3-4.9-3.4-7.2-5.1c-4.8-3.5-9.4-7.2-13.8-11.1c-3.1-2.7-11.4-8.3-10.9-12.7c0.3-2.6,2.6-5.8,3.8-8.1
		c1.3-2.5,2.7-4.9,4.2-7.3c2.6-4.3,5.4-8.5,8.4-12.5c6.9-9.3,14.7-17.9,23.3-25.7c0.3-0.3,0.7-0.9,0.4-1.3
		c-8.1-9.6-16.2-19.2-24.3-28.8c-4.1-4.8-8.1-9.6-12.2-14.4c-1.9-2.3-3.8-4.5-5.8-6.8c-1.3-1.6-5.2-4.7-5.3-6.8c-0.1-2,4-5.5,5.4-7
		c1.8-2.1,3.7-4.2,5.5-6.3c3.6-4.1,7.1-8.3,10.5-12.5c6.2-7.5,12.1-15.2,17.9-23c8.3,9.7,15.8,20.2,22.3,31.2
		c0.7,1.2,3.4,1.4,5.2,0.9c12.1,13.5,26.9,24.2,39.8,36.9c4,3.9,7.8,8,11.2,12.4c2.4,3.1,7.5,8.6,7.4,12.8c0,0.5-0.1,1.1-0.2,1.7
		C245.1,129,245.1,129.1,245,129.3 M226.6,183.2c-3.7,2.8-7.3,5.7-10.7,8.9c2.2-8.1,3.9-16.4,4.9-24.8c0-0.1,0-0.2-0.1-0.3
		c3.6-3.8,7.2-7.4,10.8-11.2c-1.2,8.7-3.4,17.2-6.7,25.4c-0.4,1.1,2.5,1.3,2.9,0.4c3.5-8.9,5.9-18.1,7-27.7c0-0.4-0.3-0.6-0.8-0.7
		c3-3.2,6-6.5,8.8-9.9l-1.2,7.2c-1.1,6.7-1.5,14.2-3.8,20.7C235.7,176.7,231.1,179.9,226.6,183.2 M211.7,195.9
		c-3.5,3.3-6.9,6.7-10.4,10.1c0.7-2,1.1-4.1,1.6-6.3c1.3-5.6,2.6-11.1,4-16.7c2.5-3.3,5.2-6.6,7.9-9.7c0.8-0.9,1.6-1.7,2.4-2.6
		C216,179.2,214.2,187.6,211.7,195.9 M196.5,210.7c-2.4,2.3-4.9,4.6-7.4,6.9c2.3-5.2,4.1-10.6,5.2-16.3c0.1-0.3-0.3-0.6-0.8-0.7
		c3.1-3.9,6-7.8,9-11.8c-0.6,2.4-1.1,4.7-1.7,7.1c-1.1,4.5-1.5,10.3-4.7,13.8C195.8,210.2,196.1,210.5,196.5,210.7 M183.7,222.4
		c-4,3.4-8,6.6-12.2,9.7c3.1-4.8,5.4-9.9,7.1-15.2c2.3-2.2,4.5-4.5,6.6-6.7c1.9-2,3.7-4,5.4-6C189.2,210.5,186.9,216.6,183.7,222.4
		 M171,232.6c-3.9,3-7.9,5.8-12,8.6c2.5-4.4,4.8-9,6.9-13.6c0.9-0.4,1.9-0.9,2.8-1.6c1.8-1.4,3.6-3,5.4-4.6
		c-1.5,3.6-3.3,7.2-5.5,10.5C168.2,232.6,170,232.9,171,232.6 M155.6,241.7c-2.5-2.1-5.1-4.2-7.5-6.3c0.6,0,1.3-0.1,1.5-0.5
		c2-3.2,3.5-6.6,4.7-10.2c0.5,0.3,1,0.7,1.6,1.1c2.2,1.4,4.5,2.3,6.7,2.4C160.4,232.8,158.1,237.3,155.6,241.7 M146.8,234.3
		c-1.9-1.7-3.9-3.5-5.8-5.2c0,0,0,0,0-0.1c1.5-3.4,3.2-6.8,4.9-10.1c1.9,1.4,3.9,2.8,5.8,4.2C150.6,227,148.9,230.7,146.8,234.3
		 M138.9,227c-2-1.9-4-3.9-5.9-5.8c1.3-3.2,2.6-6.4,3.8-9.6c0.2,0.1,0.3,0.3,0.5,0.4c2.1,1.7,4.2,3.4,6.4,5.1
		C142,220.4,140.4,223.7,138.9,227 M130.8,219c-2-2.1-3.9-4.2-5.8-6.3c1.6-2.4,2.9-4.9,4-7.5c1.8,1.6,3.7,3.1,5.5,4.6
		C133.3,212.9,132,215.9,130.8,219 M117.3,203.7c-0.3-1.9,3.4-4.2,4.7-5.7c0,0,0,0,0-0.1c1.3,1.8,2.9,3.5,4.7,5.2
		c-1,2.6-2.2,5.1-3.6,7.5c-0.8-0.9-1.7-1.9-2.5-2.8C120.1,207.1,117.4,204.6,117.3,203.7"/>
</g>
</svg>
