<?xml version="1.0" encoding="utf-8"?>
<!-- Generator: Adobe Illustrator 19.0.0, SVG Export Plug-In . SVG Version: 6.00 Build 0)  -->
<svg version="1.2" baseProfile="tiny" id="Layer_1" xmlns="http://www.w3.org/2000/svg" xmlns:xlink="http://www.w3.org/1999/xlink"
	 x="0px" y="0px" viewBox="0 0 313.8 307.8" xml:space="preserve">
<g>
	<g>
		<path fill="#FFFFFF" d="M119.2,287c4.1,4.4,8.2,8.8,12.3,13.1c1.2,0.2,2.3,0.4,3.5,0.6c-4-4.4-8.1-8.8-12.1-13.2
			C121.7,287.4,120.4,287.2,119.2,287z"/>
		<path fill="#FFFFFF" d="M110.8,285.4c5,4.4,9.9,8.9,14.7,13.5c0.6,0.2,1.3,0.3,1.9,0.4c-4.1-4.3-8.1-8.7-12.2-13
			C113.8,286,112.3,285.7,110.8,285.4z"/>
		<path fill="#FFFFFF" d="M119.3,297.2c0.5,0.2,1,0.3,1.5,0.4c-2.4-2.2-4.7-4.4-7.1-6.6L119.3,297.2z"/>
		<path fill="#FFFFFF" d="M126.6,288.1c4.1,4.4,8.1,8.9,12.2,13.3c0.9,0.1,1.8,0.2,2.7,0.3c-3.3-4.2-6.3-8.5-9.1-13.1
			C130.4,288.4,128.5,288.3,126.6,288.1z"/>
		<path fill="#FFFFFF" d="M99.8,282.4c3.1,4.2,6.6,8.1,10.3,11.8c1.5,0.6,3.1,1.1,4.6,1.6l-11.2-12.3
			C102.3,283.1,101.1,282.8,99.8,282.4z"/>
		<path fill="#FFFFFF" d="M135.5,288.7c2.9,4.6,6,9,9.4,13.2c1.2,0.1,2.4,0.2,3.6,0.3c-3.8-4.5-7.6-8.9-11.5-13.4
			C136.6,288.8,136.1,288.8,135.5,288.7z"/>
		<path fill="#FFFFFF" d="M140.4,288.9c3.8,4.5,7.7,9,11.5,13.5c2.4,0.1,4.7,0.1,7.1,0c-4-4.2-7.6-8.8-10.8-13.6
			C145.6,288.9,143,288.9,140.4,288.9z"/>
		<path fill="#FFFFFF" d="M296.5,106.7c-0.2,0-0.3,0-0.5,0c0.2,0.3,0.4,0.7,0.6,1C296.6,107.4,296.6,107.1,296.5,106.7z"/>
		<path fill="#FFFFFF" d="M93.6,280.2c2.4,3.1,4.6,6.4,6.7,9.7c1.4,0.7,2.8,1.3,4.1,1.9c-3.2-3.4-6.2-7-8.9-10.9
			C95,280.7,94.3,280.5,93.6,280.2z"/>
		<path fill="#FFFFFF" d="M294.5,123.8c0.1,0.1,0.2,0.1,0.3,0.2c3,4.9,5.9,9.7,8.9,14.6c-0.1-2.4-0.2-4.9-0.3-7.3
			c-3.2-4.1-6.1-8.4-8.8-12.8C294.5,120.2,294.5,122,294.5,123.8z"/>
		<path fill="#FFFFFF" d="M151.2,288.6c3.3,4.9,6.9,9.4,11,13.6c1.4-0.1,2.7-0.2,4.1-0.3c-4-4.4-7.9-8.9-11.5-13.7
			C153.6,288.5,152.4,288.5,151.2,288.6z"/>
		<path fill="#FFFFFF" d="M301.7,114.8c-0.7-1.2-1.4-2.4-2.1-3.6c-0.2,0.1-0.4,0.2-0.7,0.2c1,1.5,1.9,3,2.9,4.4
			C301.8,115.4,301.7,115.1,301.7,114.8z"/>
		<path fill="#FFFFFF" d="M89.2,279.4c-0.5-0.4-0.8-0.8-0.9-1.3c-0.4-0.2-0.9-0.3-1.3-0.5c1.9,1.9,3.9,3.9,5.8,5.8
			c-0.9-1.3-1.8-2.5-2.8-3.7C89.7,279.7,89.4,279.6,89.2,279.4z"/>
		<path fill="#FFCC2B" d="M229.1,250.7c19.3-16,34.8-37,43.8-61.2c11.6-31.6,13-69.5,6-102.4c-6.7-31.3-26.7-54.7-54.1-68
			C196.9,5.7,165.7,4.6,135.4,5.7c3.9,0.1,7.9,0.4,11.8,0.9c6.9,0.9,2,5.7-2.7,5.1c-32.3-4-65,7.4-89.9,29.1
			c-24.8,21.7-40,53.3-43.6,87c-6.4,59.1,24.2,115.7,74.6,142.1C132.8,294.7,188.4,284.5,229.1,250.7z"/>
		<path fill="#FFFFFF" d="M287,75.9c-0.3-0.5-0.6-1.1-0.9-1.6c-0.3-0.3-0.5-0.6-0.8-1c0.1,0.3,0.2,0.5,0.3,0.8
			C286,74.7,286.5,75.3,287,75.9z"/>
		<path fill="#FFFFFF" d="M293.5,109c2.9,4.4,6,8.8,9.1,13.1c0-0.3-0.1-0.6-0.1-1c-3.2-4.3-6.2-8.8-9-13.5
			C293.4,108.1,293.4,108.5,293.5,109C293.4,109,293.5,109,293.5,109z"/>
		<path fill="#FFFFFF" d="M273.1,211.5c-1.2,2.2-2.6,4.3-3.9,6.4c3.7,4.6,7.2,9.5,10.4,14.5c2.2-3.5,4.3-7.1,6.3-10.8
			c-2.9-6.1-5.7-12.3-8.3-18.5C276.1,206,274.7,208.8,273.1,211.5z"/>
		<path fill="#FFFFFF" d="M279.1,199.7c2.7,6.3,5.4,12.6,8.4,18.8c1.8-3.7,3.4-7.4,4.9-11.2c-2.8-7.3-4-15.2-7.8-22
			C283,190.2,281.2,195,279.1,199.7z"/>
		<path fill="#FFFFFF" d="M289.4,166.4c0.2,0.1,0.3,0.2,0.4,0.3c2.2,4.1,4.4,8.1,6.6,12.2c0.9,1.7,1.9,3.5,2.8,5.2
			c0,0.1,0.1,0.1,0.1,0.2c0.8-3.4,1.4-6.8,2-10.3c-3.9-5.9-7.3-12.1-10-18.6C290.7,159.1,290.1,162.8,289.4,166.4z"/>
		<path fill="#FFFFFF" d="M178.4,299.9c-2.6-4.8-5.7-9.3-9-13.6c-3.9,0.8-7.8,1.4-11.7,1.8c3.6,4.7,7.5,9.3,11.5,13.7
			c3.3-0.3,6.7-0.8,10-1.4C178.9,300.2,178.6,300.1,178.4,299.9z"/>
		<path fill="#FFFFFF" d="M292.8,135.9c0.2,0.1,0.4,0.2,0.5,0.4c3.5,6,6.8,12.1,10,18.2c0.2-3.5,0.3-7.1,0.3-10.6
			c-3.6-5.9-7.2-11.8-10.7-17.7C292.9,129.4,292.9,132.6,292.8,135.9z"/>
		<path fill="#FFFFFF" d="M291.9,149.3c2.6,7.3,5.9,14.1,9.9,20.7c0.5-3.4,0.8-6.9,1.1-10.3c-3.3-6.5-6.8-12.9-10.4-19.2
			C292.4,143.4,292.2,146.4,291.9,149.3z"/>
		<path fill="#FFFFFF" d="M288.6,170.3c-0.9,3.9-1.8,7.8-3,11.7c4.5,6.3,6,13.9,8.3,21.2c1.6-4.6,3.1-9.4,4.3-14.3
			c-1.5-2.5-2.6-5.7-3.8-7.8C292.5,177.5,290.5,173.9,288.6,170.3z"/>
		<path fill="#FFFFFF" d="M220.5,266c-1.3,0.8-2.7,1.7-4.1,2.5c-2.6,1.5-5.3,3-8,4.3c0.5,0,1,0.1,1.2,0.4c3.5,4.3,6.9,8.8,10.1,13.4
			c3.7-1.9,7.3-3.9,10.8-6.1c-0.6,0-1.2-0.1-1.4-0.5C226.2,275.4,223.4,270.7,220.5,266z"/>
		<path fill="#FFFFFF" d="M196.4,278.3c2.6,4.8,5,10.5,8.5,14.9c4.2-1.6,8.4-3.4,12.5-5.4c-3.3-4.9-6.8-9.6-10.6-14.2
			C203.4,275.3,199.9,276.9,196.4,278.3z"/>
		<path fill="#FFFFFF" d="M259.2,231.8c3.2,5.1,6.4,10.3,9.6,15.4c3.2-3.9,6.3-8,9.1-12.3c-3.1-5.1-6.6-10-10.2-14.7
			C265.1,224.2,262.3,228.1,259.2,231.8z"/>
		<path fill="#FFFFFF" d="M235.2,255.6c0.2,0.1,0.3,0.2,0.3,0.3c2.4,5.3,5.3,10.5,8.4,15.4c1.1-0.9,2.2-1.7,3.3-2.6
			c2.7-2.2,5.3-4.5,7.9-6.9c-3.2-5.2-6.2-10.5-8.8-15.9C242.7,249.3,239,252.5,235.2,255.6z"/>
		<path fill="#FFFFFF" d="M222.7,264.5c3.1,5,6.2,10.1,9.3,15.1c3.3-2.1,6.6-4.4,9.8-6.7c-3.3-5-6.2-10.3-8.7-15.7
			C229.7,259.8,226.3,262.2,222.7,264.5z"/>
		<path fill="#FFFFFF" d="M247.8,244.4c0.5,0,1,0.2,1.2,0.5c2.5,5.1,5.2,10.1,8.2,15c3.5-3.4,6.8-6.9,9.9-10.6
			c-3.1-5.2-6.3-10.3-9.6-15.4C254.4,237.6,251.2,241.1,247.8,244.4z"/>
		<path fill="#FFFFFF" d="M184.3,282.5c0.8,0.9,1.4,2,2.1,3.2l6.3,10.8c0.5,0.9-2.4,1.3-2.9,0.4l-4.5-7.7c-0.8-1.4-1.9-4.3-3.5-5.9
			c-3.2,0.9-6.4,1.7-9.7,2.4c3.4,4.4,6.4,8.9,9.1,13.8c0.1,0.2,0.1,0.3,0,0.4c7.2-1.4,14.2-3.3,21.1-5.8c-3.6-4.4-6-9.9-8.6-14.8
			C190.7,280.5,187.5,281.6,184.3,282.5z"/>
		<path fill="#FFFFFF" d="M303.6,138.6c-3-4.9-5.9-9.7-8.9-14.6c-0.1-0.1-0.2-0.2-0.3-0.2c0-1.8,0-3.6,0-5.3
			c2.7,4.4,5.6,8.7,8.8,12.8C303.4,133.7,303.5,136.2,303.6,138.6z"/>
		<path fill="#FFFFFF" d="M299.6,111.1c0.7,1.2,1.4,2.4,2.1,3.6c0,0.3,0.1,0.7,0.1,1c-1-1.5-2-2.9-2.9-4.4
			C299.1,111.3,299.4,111.2,299.6,111.1z"/>
		<path fill="#FFFFFF" d="M296.5,106.7c0,0.4,0.1,0.7,0.1,1.1c-0.2-0.3-0.4-0.7-0.6-1C296.2,106.7,296.4,106.7,296.5,106.7z"/>
		<path fill="#FFFFFF" d="M302.4,121.1c0,0.3,0.1,0.6,0.1,1c-3.1-4.3-6.1-8.6-9.1-13.1c0,0,0,0,0,0c0-0.4,0-0.9,0-1.3
			C296.2,112.3,299.2,116.8,302.4,121.1z"/>
		<path fill="#FFFFFF" d="M286.1,74.2c0.3,0.5,0.6,1.1,0.9,1.6c-0.5-0.6-0.9-1.2-1.4-1.8c-0.1-0.3-0.2-0.5-0.3-0.8
			C285.6,73.6,285.8,73.9,286.1,74.2z"/>
		<path fill="#FFCC2B" d="M11,127.8c3.6-33.6,18.8-65.3,43.6-87c24.9-21.8,57.6-33.1,89.9-29.1c4.7,0.6,9.6-4.2,2.7-5.1
			c-3.9-0.5-7.9-0.8-11.8-0.9c30.3-1.1,61.5,0,89.3,13.5c27.4,13.3,47.4,36.7,54.1,68c7,32.9,5.6,70.8-6,102.4
			c-8.9,24.2-24.5,45.2-43.8,61.2c-40.7,33.8-96.3,43.9-143.5,19.2C35.3,243.5,4.7,186.9,11,127.8z"/>
		<path fill="#FFFFFF" d="M87,277.6c0.4,0.2,0.9,0.3,1.3,0.5c0.1,0.5,0.4,0.9,0.9,1.3c0.2,0.2,0.5,0.2,0.8,0.3
			c1,1.2,1.9,2.5,2.8,3.7C90.9,281.5,88.9,279.5,87,277.6z"/>
		<path fill="#FFFFFF" d="M100.4,289.9c-2.1-3.4-4.3-6.6-6.7-9.7c0.7,0.2,1.3,0.5,2,0.7c2.7,3.8,5.7,7.5,8.9,10.9
			C103.1,291.2,101.7,290.6,100.4,289.9z"/>
		<path fill="#FFFFFF" d="M110.1,294.2c-3.8-3.7-7.2-7.6-10.3-11.8c1.3,0.4,2.5,0.8,3.8,1.1l11.2,12.3
			C113.2,295.3,111.7,294.7,110.1,294.2z"/>
		<path fill="#FFFFFF" d="M119.3,297.2l-5.6-6.2c2.4,2.2,4.8,4.4,7.1,6.6C120.3,297.5,119.8,297.4,119.3,297.2z"/>
		<path fill="#FFFFFF" d="M125.5,298.9c-4.8-4.6-9.8-9.1-14.7-13.5c1.5,0.3,3,0.6,4.5,0.9c4.1,4.3,8.1,8.7,12.2,13
			C126.8,299.2,126.2,299.1,125.5,298.9z"/>
		<path fill="#FFFFFF" d="M131.5,300.2c-4.1-4.4-8.2-8.8-12.3-13.1c1.2,0.2,2.4,0.4,3.7,0.6c4,4.4,8.1,8.8,12.1,13.2
			C133.8,300.6,132.7,300.4,131.5,300.2z"/>
		<path fill="#FFFFFF" d="M138.8,301.4c-4.1-4.4-8.1-8.9-12.2-13.3c1.9,0.2,3.8,0.4,5.7,0.5c2.8,4.5,5.8,8.9,9.1,13.1
			C140.6,301.6,139.7,301.5,138.8,301.4z"/>
		<path fill="#FFFFFF" d="M144.9,302c-3.4-4.2-6.5-8.6-9.4-13.2c0.5,0,1,0.1,1.6,0.1c3.8,4.5,7.6,9,11.5,13.4
			C147.3,302.2,146.1,302.1,144.9,302z"/>
		<path fill="#FFFFFF" d="M151.9,302.4c-3.8-4.5-7.7-9-11.5-13.5c2.6,0,5.2,0,7.8-0.1c3.2,4.8,6.9,9.4,10.8,13.6
			C156.6,302.5,154.3,302.5,151.9,302.4z"/>
		<path fill="#FFFFFF" d="M162.2,302.3c-4-4.2-7.7-8.8-11-13.6c1.2-0.1,2.4-0.2,3.5-0.3c3.6,4.7,7.4,9.3,11.5,13.7
			C164.9,302.1,163.5,302.2,162.2,302.3z"/>
		<path fill="#FFFFFF" d="M169.3,301.7c-4.1-4.4-7.9-8.9-11.5-13.7c3.9-0.4,7.8-1,11.7-1.8c3.3,4.3,6.3,8.8,9,13.6
			c0.1,0.2,0.4,0.4,0.8,0.5C175.9,300.9,172.6,301.4,169.3,301.7z"/>
		<path fill="#FFFFFF" d="M181.3,299.9c0.1-0.1,0.1-0.3,0-0.4c-2.7-4.8-5.7-9.4-9.1-13.8c3.2-0.7,6.5-1.5,9.7-2.4
			c1.5,1.6,2.6,4.5,3.5,5.9l4.5,7.7c0.5,0.9,3.4,0.5,2.9-0.4l-6.3-10.8c-0.7-1.1-1.3-2.3-2.1-3.2c3.2-1,6.3-2.1,9.5-3.3
			c2.6,4.9,5,10.5,8.6,14.8C195.5,296.6,188.5,298.5,181.3,299.9z"/>
		<path fill="#FFFFFF" d="M204.9,293.2c-3.5-4.4-5.9-10.1-8.5-14.9c3.5-1.4,7-3,10.4-4.7c3.7,4.6,7.2,9.3,10.6,14.2
			C213.3,289.8,209.1,291.6,204.9,293.2z"/>
		<path fill="#FFFFFF" d="M219.8,286.6c-3.2-4.6-6.5-9.1-10.1-13.4c-0.2-0.3-0.7-0.4-1.2-0.4c2.7-1.4,5.3-2.8,8-4.3
			c1.4-0.8,2.7-1.6,4.1-2.5c2.9,4.7,5.7,9.4,8.6,14.1c0.2,0.3,0.8,0.5,1.4,0.5C227,282.7,223.4,284.8,219.8,286.6z"/>
		<path fill="#FFFFFF" d="M232,279.6c-3.1-5-6.2-10.1-9.3-15.1c3.5-2.3,7-4.7,10.3-7.3c2.5,5.4,5.4,10.7,8.7,15.7
			C238.6,275.3,235.3,277.5,232,279.6z"/>
		<path fill="#FFFFFF" d="M247.2,268.7c-1.1,0.9-2.2,1.7-3.3,2.6c-3.2-4.9-6-10.1-8.4-15.4c-0.1-0.1-0.2-0.2-0.3-0.3
			c3.9-3.1,7.6-6.3,11.1-9.7c2.6,5.5,5.6,10.8,8.8,15.9C252.6,264.2,249.9,266.5,247.2,268.7z"/>
		<path fill="#FFFFFF" d="M257.1,259.9c-3-4.9-5.7-9.8-8.2-15c-0.2-0.3-0.6-0.5-1.2-0.5c3.4-3.3,6.6-6.8,9.7-10.5
			c3.2,5.1,6.4,10.2,9.6,15.4C263.9,253,260.6,256.6,257.1,259.9z"/>
		<path fill="#FFFFFF" d="M268.8,247.2c-3.2-5.2-6.4-10.3-9.6-15.4c3-3.7,5.8-7.6,8.5-11.6c3.7,4.7,7.1,9.6,10.2,14.7
			C275.1,239.2,272.1,243.3,268.8,247.2z"/>
		<path fill="#FFFFFF" d="M279.6,232.5c-3.2-5-6.7-9.8-10.4-14.5c1.4-2.1,2.7-4.3,3.9-6.4c1.6-2.8,3-5.6,4.4-8.4
			c2.7,6.2,5.4,12.4,8.3,18.5C283.9,225.4,281.8,229,279.6,232.5z"/>
		<path fill="#FFFFFF" d="M287.4,218.5c-2.9-6.2-5.7-12.5-8.4-18.8c2.1-4.7,3.9-9.5,5.5-14.4c3.8,6.8,5,14.7,7.8,22
			C290.9,211.1,289.2,214.9,287.4,218.5z"/>
		<path fill="#FFFFFF" d="M293.9,203.1c-2.3-7.3-3.8-14.9-8.3-21.2c1.1-3.8,2.1-7.7,3-11.7c1.9,3.6,3.9,7.1,5.8,10.7
			c1.2,2.1,2.3,5.3,3.8,7.8C297,193.7,295.6,198.5,293.9,203.1z"/>
		<path fill="#FFFFFF" d="M299.3,184.3c0-0.1-0.1-0.1-0.1-0.2c-0.9-1.7-1.9-3.5-2.8-5.2c-2.2-4.1-4.4-8.1-6.6-12.2
			c-0.1-0.1-0.2-0.2-0.4-0.3c0.7-3.7,1.3-7.4,1.8-11.1c2.7,6.5,6.1,12.7,10,18.6C300.7,177.5,300,180.9,299.3,184.3z"/>
		<path fill="#FFFFFF" d="M301.8,170c-4-6.5-7.3-13.4-9.9-20.7c0.3-2.9,0.5-5.9,0.7-8.9c3.6,6.3,7,12.7,10.4,19.2
			C302.7,163.1,302.3,166.6,301.8,170z"/>
		<path fill="#FFFFFF" d="M303.3,154.5c-3.2-6.1-6.6-12.2-10-18.2c-0.1-0.2-0.3-0.3-0.5-0.4c0.1-3.2,0.1-6.4,0.1-9.7
			c3.6,5.9,7.2,11.8,10.7,17.7C303.6,147.4,303.5,150.9,303.3,154.5z"/>
	</g>
	<path d="M313,122.9c-1.7-20.1-6.1-40.6-17.2-57.5c-9.5-14.4-22.6-25.7-37.3-34.1c-1.7-1-3.5-1.9-5.3-2.8c-4.2-3.3-8.7-6.3-13.3-9
		C205.3-0.6,164.4-1.2,126,0.7c-5.2,0.3-6,4.2-2.2,5.1C71.9,9.1,24.1,44.4,7,97.7c-13.2,41.2-7.3,84.9,13.2,120.2
		c10.9,25.3,28.7,47.7,52.1,63.8c18.9,13.1,39.9,21.1,61.5,24.4c0.1,0.1,0.2,0.2,0.2,0.2c0.4,0.4,1.6,0.4,2.3,0.1
		c33.1,4.4,67.4-2.3,97.5-19.7c24.1-13.9,45.1-33.9,59.3-58.4C311.3,196.8,316,159.1,313,122.9 M303.5,138.5
		c-3-4.9-5.9-9.7-8.9-14.6c-0.1-0.1-0.2-0.2-0.3-0.2c0-1.8,0-3.6,0-5.3c2.7,4.4,5.6,8.7,8.8,12.8C303.3,133.6,303.4,136,303.5,138.5
		 M299.5,111c0.7,1.2,1.4,2.4,2.1,3.6c0,0.3,0.1,0.7,0.1,1c-1-1.5-2-2.9-2.9-4.4C299,111.2,299.3,111.1,299.5,111 M296.4,106.6
		c0,0.4,0.1,0.7,0.1,1.1c-0.2-0.3-0.4-0.7-0.6-1C296.1,106.6,296.3,106.6,296.4,106.6 M302.3,121c0,0.3,0.1,0.6,0.1,1
		c-3.1-4.3-6.1-8.6-9.1-13.1c0,0,0,0,0,0c0-0.4,0-0.9,0-1.3C296.1,112.2,299.1,116.7,302.3,121 M286,74.1c0.3,0.5,0.6,1.1,0.9,1.6
		c-0.5-0.6-0.9-1.2-1.4-1.8c-0.1-0.3-0.2-0.5-0.3-0.8C285.5,73.5,285.7,73.8,286,74.1 M10.9,127.7c3.6-33.6,18.8-65.3,43.6-87
		c24.9-21.8,57.6-33.1,89.9-29.1c4.7,0.6,9.6-4.2,2.7-5.1c-3.9-0.5-7.9-0.8-11.8-0.9c30.3-1.1,61.5,0,89.3,13.5
		c27.4,13.3,47.4,36.7,54.1,68c7,32.9,5.6,70.8-6,102.4c-8.9,24.2-24.5,45.2-43.8,61.2c-40.7,33.8-96.3,43.9-143.5,19.2
		C35.2,243.4,4.6,186.8,10.9,127.7 M86.9,277.4c0.4,0.2,0.9,0.4,1.3,0.5c0.1,0.5,0.4,0.9,0.9,1.3c0.2,0.2,0.5,0.2,0.8,0.3
		c1,1.2,1.9,2.5,2.8,3.7C90.8,281.3,88.8,279.4,86.9,277.4 M100.2,289.8c-2.1-3.4-4.3-6.6-6.7-9.7c0.7,0.2,1.3,0.5,2,0.7
		c2.7,3.8,5.7,7.5,8.9,10.9C103,291.1,101.6,290.5,100.2,289.8 M110,294c-3.8-3.7-7.2-7.6-10.3-11.8c1.3,0.4,2.5,0.8,3.8,1.1
		l11.2,12.3C113.1,295.2,111.6,294.6,110,294 M119.2,297.1l-5.6-6.2c2.4,2.2,4.8,4.4,7.1,6.6C120.2,297.4,119.7,297.3,119.2,297.1
		 M125.4,298.8c-4.8-4.6-9.8-9.1-14.7-13.5c1.5,0.3,3,0.6,4.5,0.9c4.1,4.3,8.1,8.7,12.2,13C126.7,299.1,126.1,298.9,125.4,298.8
		 M131.4,300c-4.1-4.4-8.2-8.8-12.3-13.1c1.2,0.2,2.4,0.4,3.7,0.6c4,4.4,8.1,8.8,12.1,13.2C133.7,300.5,132.6,300.3,131.4,300
		 M138.7,301.2c-4.1-4.4-8.1-8.9-12.2-13.3c1.9,0.2,3.8,0.4,5.7,0.5c2.8,4.5,5.8,8.9,9.1,13.1C140.5,301.4,139.6,301.3,138.7,301.2
		 M144.8,301.8c-3.4-4.2-6.5-8.6-9.4-13.2c0.5,0,1,0.1,1.6,0.1c3.8,4.5,7.6,8.9,11.5,13.4C147.2,302,146,301.9,144.8,301.8
		 M151.8,302.2c-3.8-4.5-7.7-9-11.5-13.5c2.6,0,5.2,0,7.8-0.1c3.2,4.8,6.9,9.4,10.8,13.6C156.5,302.3,154.2,302.3,151.8,302.2
		 M162.1,302.1c-4-4.2-7.7-8.8-11-13.6c1.2-0.1,2.4-0.2,3.5-0.3c3.6,4.7,7.4,9.3,11.5,13.7C164.8,302,163.4,302.1,162.1,302.1
		 M169.2,301.6c-4.1-4.4-7.9-8.9-11.5-13.7c3.9-0.4,7.8-1,11.7-1.8c3.3,4.3,6.3,8.8,9,13.6c0.1,0.2,0.4,0.4,0.8,0.5
		C175.8,300.8,172.5,301.2,169.2,301.6 M181.2,299.8c0.1-0.1,0.1-0.3,0-0.4c-2.7-4.8-5.7-9.4-9.1-13.8c3.2-0.7,6.5-1.5,9.7-2.4
		c1.5,1.6,2.6,4.5,3.5,5.9l4.5,7.7c0.5,0.9,3.4,0.5,2.9-0.4l-6.3-10.8c-0.7-1.1-1.3-2.3-2.1-3.2c3.2-1,6.3-2.1,9.5-3.3
		c2.6,4.9,5,10.5,8.6,14.8C195.4,296.5,188.4,298.4,181.2,299.8 M204.8,293.1c-3.5-4.4-5.9-10.1-8.5-14.9c3.5-1.4,7-3,10.4-4.7
		c3.7,4.6,7.2,9.3,10.6,14.2C213.2,289.6,209,291.5,204.8,293.1 M219.7,286.5c-3.2-4.6-6.5-9.1-10.1-13.4c-0.2-0.3-0.7-0.4-1.2-0.4
		c2.7-1.4,5.3-2.8,8-4.3c1.4-0.8,2.7-1.6,4.1-2.5c2.9,4.7,5.7,9.4,8.6,14.1c0.2,0.3,0.8,0.5,1.4,0.5
		C226.9,282.6,223.3,284.6,219.7,286.5 M231.9,279.5c-3.1-5-6.2-10.1-9.3-15.1c3.5-2.3,7-4.7,10.3-7.3c2.5,5.4,5.4,10.7,8.7,15.7
		C238.5,275.2,235.2,277.4,231.9,279.5 M247.1,268.6c-1.1,0.9-2.2,1.7-3.3,2.6c-3.2-4.9-6-10.1-8.4-15.4c-0.1-0.1-0.2-0.2-0.3-0.3
		c3.9-3.1,7.6-6.3,11.1-9.7c2.6,5.5,5.6,10.8,8.8,15.9C252.4,264.1,249.8,266.4,247.1,268.6 M257,259.8c-3-4.9-5.7-9.8-8.2-15
		c-0.2-0.3-0.6-0.5-1.2-0.5c3.4-3.3,6.6-6.8,9.7-10.5c3.2,5.1,6.4,10.2,9.6,15.4C263.8,252.9,260.5,256.4,257,259.8 M268.7,247.1
		c-3.2-5.2-6.4-10.3-9.6-15.4c3-3.7,5.8-7.6,8.5-11.6c3.7,4.7,7.1,9.6,10.2,14.7C275,239,272,243.1,268.7,247.1 M279.5,232.3
		c-3.2-5-6.7-9.8-10.4-14.5c1.4-2.1,2.7-4.3,3.9-6.4c1.6-2.8,3-5.6,4.4-8.4c2.7,6.2,5.4,12.4,8.3,18.5
		C283.8,225.2,281.7,228.8,279.5,232.3 M287.3,218.4c-2.9-6.2-5.7-12.5-8.4-18.8c2.1-4.7,3.9-9.5,5.5-14.4c3.8,6.8,5,14.7,7.8,22
		C290.8,211,289.1,214.7,287.3,218.4 M293.8,203c-2.3-7.3-3.8-14.9-8.3-21.2c1.1-3.8,2.1-7.7,3-11.7c1.9,3.6,3.9,7.1,5.8,10.7
		c1.2,2.1,2.3,5.3,3.8,7.8C296.9,193.6,295.5,198.4,293.8,203 M299.2,184.2c0-0.1-0.1-0.1-0.1-0.2c-0.9-1.7-1.9-3.5-2.8-5.2
		c-2.2-4.1-4.4-8.1-6.6-12.2c-0.1-0.1-0.2-0.2-0.4-0.3c0.7-3.7,1.3-7.4,1.8-11.1c2.7,6.5,6.1,12.7,10,18.6
		C300.6,177.3,299.9,180.8,299.2,184.2 M301.7,169.9c-4-6.5-7.3-13.4-9.9-20.7c0.3-2.9,0.5-5.9,0.7-8.9c3.6,6.3,7,12.7,10.4,19.2
		C302.6,163,302.2,166.5,301.7,169.9 M303.2,154.3c-3.2-6.1-6.6-12.2-10-18.2c-0.1-0.2-0.3-0.3-0.5-0.4c0.1-3.2,0.1-6.4,0.1-9.7
		c3.6,5.9,7.2,11.8,10.7,17.7C303.5,147.3,303.4,150.8,303.2,154.3"/>
	<path d="M10.5,195.6c4.8,5.7,9.8,11.3,15,16.5c-0.2-0.6-0.4-1.1-0.5-1.7c-1-1.3-2.1-2.6-3.1-3.9c-2.8-3.1-5.7-6.2-8.5-9.3
		c-1-1-2.1-1.9-3.1-2.8C10.4,194.7,10.4,195.2,10.5,195.6"/>
	<path fill="#FFFFFF" stroke="#FFFFFF" stroke-miterlimit="10" d="M146.1,139.3c-0.3-0.3-0.7-0.9-0.4-1.3
		c8.1-9.6,16.2-19.2,24.3-28.8c4.1-4.8,8.1-9.6,12.2-14.4c1.9-2.3,3.8-4.5,5.8-6.8c1.3-1.6,5.2-4.7,5.3-6.8c0.1-2-4-5.5-5.4-7
		c-1.8-2.1-3.7-4.2-5.5-6.3c-3.6-4.1-7.1-8.3-10.5-12.5c-6.2-7.5-12.1-15.2-17.9-23c-8.3,9.7-15.8,20.2-22.3,31.2
		c-0.7,1.2-3.4,1.4-5.2,0.9c-12.1,13.5-26.9,24.2-39.8,36.9c-4,3.9-7.8,8-11.2,12.4c-2.4,3.1-7.5,8.6-7.4,12.8
		c0,0.5,0.1,1.1,0.2,1.7c0.1,0.2,0.2,0.3,0.2,0.5c0,0.1,0,0.3,0.1,0.4c1.5,4.4,6.2,9.3,8.6,12.3c3.7,4.6,7.8,9,11.9,13.2
		c7.3,7.6,14.9,15,21.4,23.2c7.8,9.8,14.5,20.3,23.2,29.3c0.5,0.5,1,1,1.5,1.6c0.4,0.1,0.8,0.3,0.9,0.7c0,0.1,0,0.2,0.1,0.3
		c3.3,3.3,6.8,6.6,10.3,9.8c2.9,2.7,3.8,4.4,7.5,2.4c2.5-1.3,4.9-3.4,7.2-5.1c4.8-3.5,9.4-7.2,13.8-11.1c3.1-2.7,11.4-8.3,10.9-12.7
		c-0.3-2.6-2.6-5.8-3.8-8.1c-1.3-2.5-2.7-4.9-4.2-7.3c-2.6-4.3-5.4-8.5-8.4-12.5C162.5,155.7,154.7,147.1,146.1,139.3z"/>
	<path d="M204,202c-4.3-3.2-7.6-7.1-10.1-11.7c-0.3-0.6-1.2-1-2.2-1.1c-1.2-2.4-2.8-4.7-3.9-6.6c-3.6-6.3-7.6-12.4-11.9-18.3
		c-3-4-6.1-7.8-9.4-11.6c0,0,0,0,0,0c0.4-0.5,0.9-0.9,1.3-1.4c0.1,0,0.1,0.1,0.2,0.1c0.8,0.4,3.6-0.2,2.1-1
		c-0.3-0.2-0.6-0.4-0.9-0.6c1.9-2.1,3.9-4.2,5.8-6.3c0.9,0.5,3,0.1,2.6-0.7c-0.2-0.5-0.5-0.9-0.7-1.4c6.3-7.1,12.3-14.5,18.1-22
		c3.6-4.7,9.6-10.4,9.7-16.7c0.1-7.8-2-16.2-3.4-23.8c-0.2-1.2-2-1.7-3.7-1.7c-14-15.7-27.3-32-39.7-49c-1.1-1.5-5.1-1.9-6.4-0.4
		c-7.4,8.3-14.2,17-20.3,26.2c-1.5-0.1-3,0.2-3.6,1C112.3,76.3,88.8,89.9,71.9,110c-3.5,4.2-9.1,10.1-10.3,15.6
		c-0.3,1.3-0.1,2.7,0.3,4.1c1.2,7.3,2.4,14.6,3.6,21.9c1,6.2,1.6,12.8,3.4,18.9c1.6,5.4,5,9,9.4,12.3c5,3.8,10,7.6,14.6,11.8
		c9.7,8.9,18.6,18.6,28.5,27.2c10.4,9,21.4,17.3,33,24.8c1.2,0.8,3.1,1.1,4.6,0.7c1,0.3,2.7-0.1,2.3-0.8c-0.1-0.1-0.2-0.3-0.3-0.4
		c16.1-12.6,30.6-26.9,43.4-42.8C204.7,202.9,204.3,202.2,204,202 M166.3,144.6c-0.7-1.7-1.2-3.5-1.7-4.8c-1.3-3.2-2.6-6.4-3.8-9.5
		l2.9-3.5c1.4-1.7,2.9-3.4,4.3-5.1c0.7,5.6,2.2,11,4.3,16.2C170.4,140.1,168.4,142.4,166.3,144.6 M164.3,146.8
		c-0.5,0.6-1,1.1-1.6,1.7c-0.6-0.7-1.2-1.3-1.8-2c-1.4-1.4-2.7-2.8-4.2-4.2c-1.5-1.4-3.2-2.2-2.7-4.2c0.4-1.7,3.1-3.9,4.6-5.5
		c1.4,3.6,2.9,7.2,4.3,10.8C163.5,144.5,163.9,145.7,164.3,146.8 M174.5,135.4c-2-5.4-3.3-11-3.7-16.9c1.9-2.3,3.8-4.6,5.8-6.8
		c0.8,5.8,2,11.4,3.6,17C178.2,130.9,176.4,133.2,174.5,135.4 M182.3,125.9c-1.5-5.7-2.6-11.5-3.2-17.4l5-5.9c1,5.5,2.2,11,3.6,16.5
		C185.9,121.4,184.1,123.7,182.3,125.9 M186.5,99.7c1.6-1.9,3.1-3.7,4.7-5.6c0.8,5.6,1.7,11.2,2.8,16.7c-1.3,1.8-2.7,3.6-4.1,5.4
		C188.7,110.8,187.5,105.3,186.5,99.7 M197.5,99.8c0.2,2.6-0.3,4.9-1.3,7.1c-0.9-5.2-1.8-10.5-2.4-15.8c0.7-0.9,1.5-1.7,2.2-2.6
		C196.7,92.3,197.2,96,197.5,99.8 M68.8,129.3c0-0.2-0.1-0.4-0.2-0.5c-0.1-0.6-0.2-1.1-0.2-1.7c0-4.2,5-9.7,7.4-12.8
		C79.2,110,83,105.9,87,102c13-12.6,27.7-23.4,39.8-36.9c1.8,0.5,4.5,0.3,5.2-0.9c6.6-11,14-21.5,22.3-31.2
		c5.8,7.8,11.8,15.5,17.9,23c3.4,4.2,6.9,8.4,10.5,12.5c1.8,2.1,3.7,4.2,5.5,6.3c1.4,1.6,5.5,5.1,5.4,7c-0.1,2.1-4,5.3-5.3,6.8
		c-1.9,2.3-3.8,4.5-5.8,6.8c-4.1,4.8-8.1,9.6-12.2,14.4c-8.1,9.6-16.2,19.2-24.3,28.8c-0.4,0.4,0.1,1.1,0.4,1.3
		c8.6,7.8,16.4,16.4,23.3,25.7c3,4.1,5.8,8.2,8.4,12.5c1.5,2.4,2.9,4.8,4.2,7.3c1.3,2.3,3.5,5.4,3.8,8.1c0.5,4.4-7.9,10-10.9,12.7
		c-4.4,3.9-9,7.6-13.8,11.1c-2.3,1.7-4.7,3.8-7.2,5.1c-3.7,2-4.6,0.2-7.5-2.4c-3.5-3.2-6.9-6.4-10.3-9.8c0-0.1,0-0.2-0.1-0.3
		c-0.1-0.3-0.4-0.6-0.9-0.7c-0.5-0.5-1-1-1.5-1.6c-8.7-9.1-15.4-19.5-23.2-29.3c-6.6-8.3-14.1-15.7-21.4-23.2
		c-4.1-4.3-8.2-8.6-11.9-13.2c-2.4-3-7.1-7.9-8.6-12.3C68.9,129.6,68.8,129.5,68.8,129.3 M87.3,183.2c-4.5-3.3-9.1-6.5-11.1-12
		c-2.4-6.4-2.7-13.9-3.8-20.7l-1.2-7.2c2.8,3.4,5.7,6.7,8.8,9.9c-0.5,0.1-0.9,0.3-0.8,0.7c1.2,9.5,3.5,18.7,7,27.7
		c0.4,0.9,3.3,0.7,2.9-0.4c-3.2-8.2-5.4-16.7-6.7-25.4c3.6,3.7,7.2,7.4,10.8,11.2c-0.1,0.1-0.1,0.2-0.1,0.3
		c1.1,8.4,2.7,16.6,4.9,24.8C94.6,189,91,186,87.3,183.2 M102.1,195.9c-2.4-8.3-4.3-16.7-5.6-25.2c0.8,0.9,1.6,1.7,2.4,2.6
		c2.8,3.1,5.4,6.4,7.9,9.7c1.3,5.6,2.6,11.1,4,16.7c0.5,2.1,0.9,4.3,1.6,6.3C109.1,202.7,105.6,199.3,102.1,195.9 M117.3,210.7
		c0.5-0.2,0.7-0.5,0.4-0.9c-3.2-3.5-3.6-9.3-4.7-13.8c-0.6-2.4-1.1-4.7-1.7-7.1c3,4,5.9,8,9,11.8c-0.5,0.1-0.8,0.3-0.8,0.7
		c1.1,5.6,2.9,11.1,5.2,16.3C122.2,215.4,119.7,213.1,117.3,210.7 M130.1,222.4c-3.2-5.8-5.5-11.9-7-18.3c1.7,2.1,3.5,4.1,5.4,6
		c2.2,2.2,4.4,4.5,6.6,6.7c1.7,5.4,4,10.4,7.1,15.2C138.2,229,134.1,225.8,130.1,222.4 M142.8,232.6c1,0.3,2.9,0,2.4-0.7
		c-2.2-3.4-4-6.9-5.5-10.5c1.8,1.6,3.6,3.2,5.4,4.6c0.9,0.7,1.9,1.2,2.8,1.6c2.1,4.7,4.4,9.2,6.9,13.6
		C150.8,238.4,146.8,235.5,142.8,232.6 M158.3,241.7c-2.6-4.4-4.9-8.9-7-13.6c2.2,0,4.5-0.9,6.7-2.4c0.5-0.3,1.1-0.7,1.6-1.1
		c1.2,3.6,2.8,7,4.7,10.2c0.2,0.4,0.8,0.5,1.5,0.5C163.3,237.5,160.8,239.6,158.3,241.7 M167.1,234.3c-2.1-3.5-3.8-7.3-5-11.2
		c2-1.4,3.9-2.8,5.8-4.2c1.7,3.3,3.4,6.7,4.9,10.1c0,0,0,0,0,0.1C170.9,230.8,169,232.6,167.1,234.3 M175,227
		c-1.5-3.3-3.1-6.6-4.9-9.9c2.2-1.7,4.3-3.4,6.4-5.1c0.2-0.1,0.3-0.3,0.5-0.4c1.3,3.2,2.6,6.4,3.8,9.6
		C178.9,223.2,177,225.1,175,227 M183.1,219c-1.2-3.1-2.5-6.2-3.7-9.2c1.8-1.5,3.7-3,5.5-4.6c1.1,2.6,2.4,5.1,4,7.5
		C187,214.8,185,216.9,183.1,219 M196.5,203.7c-0.1,0.8-2.8,3.4-3.4,4.1c-0.8,1-1.6,1.9-2.5,2.8c-1.4-2.4-2.6-4.9-3.6-7.5
		c1.7-1.6,3.3-3.4,4.7-5.2c0,0,0,0,0,0.1C193.1,199.6,196.8,201.8,196.5,203.7"/>
</g>
</svg>
