<?xml version="1.0" encoding="utf-8"?>
<!-- Generator: Adobe Illustrator 19.0.0, SVG Export Plug-In . SVG Version: 6.00 Build 0)  -->
<svg version="1.2" baseProfile="tiny" id="Layer_1" xmlns="http://www.w3.org/2000/svg" xmlns:xlink="http://www.w3.org/1999/xlink"
	 x="0px" y="0px" viewBox="-140 267.1 313.8 307.8" xml:space="preserve">
<g>
	<g>
		<path fill="#FFFFFF" d="M-17.1,287.3c4-4.4,8.1-8.8,12.1-13.2c-1.2,0.2-2.3,0.4-3.5,0.6c-4.1,4.3-8.2,8.7-12.3,13.1
			C-19.6,287.6-18.3,287.4-17.1,287.3z"/>
		<path fill="#FFFFFF" d="M-24.8,288.5c4.1-4.3,8.1-8.7,12.2-13c-0.6,0.1-1.3,0.2-1.9,0.4c-4.8,4.6-9.7,9.1-14.7,13.5
			C-27.7,289.1-26.2,288.8-24.8,288.5z"/>
		<path fill="#FFFFFF" d="M-26.3,283.8c2.4-2.2,4.7-4.4,7.1-6.6c-0.5,0.1-1,0.2-1.5,0.4L-26.3,283.8z"/>
		<path fill="#FFFFFF" d="M-7.6,286.2c2.8-4.6,5.8-8.9,9.1-13.1c-0.9,0.1-1.8,0.2-2.7,0.3c-4.1,4.4-8.1,8.9-12.2,13.3
			C-11.5,286.5-9.6,286.4-7.6,286.2z"/>
		<path fill="#FFFFFF" d="M-36.5,291.3l11.2-12.3c-1.5,0.5-3.1,1-4.6,1.6c-3.7,3.7-7.2,7.6-10.3,11.8
			C-38.9,292-37.7,291.7-36.5,291.3z"/>
		<path fill="#FFFFFF" d="M-3,286c3.9-4.5,7.7-8.9,11.5-13.4c-1.2,0.1-2.4,0.2-3.6,0.3c-3.4,4.2-6.5,8.6-9.4,13.2
			C-3.9,286-3.4,286-3,286z"/>
		<path fill="#FFFFFF" d="M8.2,286c3.2-4.8,6.8-9.4,10.8-13.6c-2.4-0.1-4.7-0.1-7.1,0c-3.8,4.5-7.7,9-11.5,13.5
			C3,285.9,5.6,285.9,8.2,286z"/>
		<path fill="#FFFFFF" d="M156.6,467.1c-0.2,0.3-0.4,0.7-0.6,1c0.2,0,0.3,0,0.5,0C156.6,467.7,156.6,467.4,156.6,467.1z"/>
		<path fill="#FFFFFF" d="M-44.5,293.9c2.7-3.9,5.7-7.5,8.9-10.9c-1.3,0.6-2.7,1.2-4.1,1.9c-2.1,3.3-4.3,6.6-6.7,9.7
			C-45.7,294.3-45,294.1-44.5,293.9z"/>
		<path fill="#FFFFFF" d="M154.6,456.3c2.7-4.4,5.6-8.7,8.8-12.8c0.1-2.4,0.2-4.9,0.3-7.3c-3,4.9-5.9,9.7-8.9,14.6
			c-0.1,0.1-0.2,0.1-0.3,0.2C154.5,452.8,154.5,454.6,154.6,456.3z"/>
		<path fill="#FFFFFF" d="M14.8,286.6c3.6-4.8,7.5-9.3,11.5-13.7c-1.4-0.1-2.7-0.2-4.1-0.3c-4.1,4.2-7.7,8.7-11,13.6
			C12.4,286.3,13.6,286.3,14.8,286.6z"/>
		<path fill="#FFFFFF" d="M161.8,459c-1,1.4-1.9,2.9-2.9,4.4c0.3,0,0.5,0.1,0.7,0.2c0.7-1.2,1.4-2.4,2.1-3.6
			C161.7,459.7,161.8,459.4,161.8,459z"/>
		<path fill="#FFFFFF" d="M-50,295.1c1-1.2,1.9-2.4,2.8-3.7c-1.9,1.9-3.9,3.9-5.8,5.8c0.4-0.2,0.9-0.3,1.3-0.5
			c0.1-0.5,0.4-0.9,0.9-1.3C-50.6,295.2-50.3,295.1-50,295.1z"/>
		<path fill="#FFCC2B" d="M-54.4,304.9c-50.4,26.4-81,83-74.6,142.1c3.6,33.7,18.8,65.3,43.6,87c24.9,21.7,57.6,33.1,89.9,29.1
			c4.7-0.6,9.6,4.2,2.7,5.1c-3.9,0.5-7.9,0.8-11.8,0.9c30.3,1.1,61.5,0,89.4-13.4c27.4-13.3,47.4-36.7,54.1-68
			c7-32.9,5.6-70.8-6-102.4c-9-24.2-24.5-45.2-43.8-61.2C48.4,290.3-7.2,280.1-54.4,304.9z"/>
		<path fill="#FFFFFF" d="M145.6,500.7c-0.1,0.3-0.2,0.5-0.3,0.8c0.3-0.4,0.5-0.7,0.8-1c0.3-0.5,0.6-1.1,0.9-1.6
			C146.5,499.5,146,500.1,145.6,500.7z"/>
		<path fill="#FFFFFF" d="M153.5,465.8c-0.1,0.5-0.1,0.9,0,1.4c2.8-4.7,5.8-9.2,9-13.5c0-0.4,0.1-0.7,0.1-1
			C159.5,457,156.4,461.4,153.5,465.8C153.5,465.8,153.4,465.8,153.5,465.8z"/>
		<path fill="#FFFFFF" d="M137.6,371.7c2.6-6.2,5.4-12.4,8.3-18.5c-2-3.7-4.1-7.3-6.3-10.8c-3.2,5-6.7,9.9-10.4,14.5
			c1.3,2.1,2.7,4.2,3.9,6.4C134.7,366,136.1,368.8,137.6,371.7z"/>
		<path fill="#FFFFFF" d="M144.6,389.5c3.8-6.8,5-14.7,7.8-22c-1.5-3.8-3.1-7.5-4.9-11.2c-3,6.2-5.7,12.5-8.4,18.8
			C141.2,379.8,143,384.6,144.6,389.5z"/>
		<path fill="#FFFFFF" d="M151.3,419.4c2.7-6.5,6.1-12.7,10-18.6c-0.6-3.5-1.2-6.9-2-10.3c0,0.1-0.1,0.1-0.1,0.2
			c-0.9,1.7-1.9,3.5-2.8,5.2c-2.2,4.1-4.4,8.1-6.6,12.2c-0.1,0.1-0.2,0.2-0.4,0.3C150.1,412,150.7,415.7,151.3,419.4z"/>
		<path fill="#FFFFFF" d="M39.2,274.4c-3.3-0.6-6.7-1.1-10-1.4c-4,4.4-7.9,9-11.5,13.7c3.9,0.4,7.8,1,11.7,1.8
			c3.3-4.3,6.4-8.8,9-13.6C38.6,274.7,38.9,274.6,39.2,274.4z"/>
		<path fill="#FFFFFF" d="M152.9,448.6c3.5-5.9,7.1-11.8,10.7-17.7c0-3.5-0.1-7.1-0.3-10.6c-3.2,6.1-6.5,12.2-10,18.2
			c-0.1,0.2-0.3,0.3-0.5,0.4C152.9,442.2,152.9,445.4,152.9,448.6z"/>
		<path fill="#FFFFFF" d="M152.5,434.3c3.6-6.3,7.1-12.7,10.4-19.2c-0.3-3.4-0.6-6.9-1.1-10.3c-4,6.6-7.3,13.4-9.9,20.7
			C152.2,428.4,152.4,431.4,152.5,434.3z"/>
		<path fill="#FFFFFF" d="M154.4,393.7c1.2-2.1,2.3-5.3,3.8-7.8c-1.2-4.9-2.7-9.7-4.3-14.3c-2.3,7.3-3.8,14.9-8.3,21.2
			c1.2,3.9,2.1,7.8,3,11.7C150.5,400.9,152.5,397.3,154.4,393.7z"/>
		<path fill="#FFFFFF" d="M89.1,294.8c0.2-0.4,0.8-0.5,1.4-0.5c-3.5-2.2-7.1-4.2-10.8-6.1c-3.2,4.6-6.6,9.1-10.1,13.4
			c-0.2,0.3-0.7,0.4-1.2,0.4c2.7,1.3,5.4,2.8,8,4.3c1.4,0.8,2.8,1.7,4.1,2.5C83.4,304.1,86.2,299.4,89.1,294.8z"/>
		<path fill="#FFFFFF" d="M66.8,301.2c3.8-4.6,7.3-9.3,10.6-14.2c-4.1-2-8.3-3.8-12.5-5.4c-3.5,4.4-5.9,10.1-8.5,14.9
			C59.9,297.9,63.4,299.5,66.8,301.2z"/>
		<path fill="#FFFFFF" d="M127.7,354.6c3.6-4.7,7.1-9.6,10.2-14.7c-2.8-4.3-5.9-8.4-9.1-12.3c-3.2,5.1-6.4,10.3-9.6,15.4
			C122.3,346.7,125.1,350.6,127.7,354.6z"/>
		<path fill="#FFFFFF" d="M106.3,328.9c2.6-5.4,5.6-10.7,8.8-15.9c-2.6-2.4-5.2-4.7-7.9-6.9c-1.1-0.9-2.2-1.7-3.3-2.6
			c-3.1,4.9-6,10.1-8.4,15.4c0,0.1-0.1,0.2-0.3,0.3C99,322.3,102.7,325.5,106.3,328.9z"/>
		<path fill="#FFFFFF" d="M93.1,317.6c2.5-5.4,5.4-10.7,8.7-15.7c-3.2-2.3-6.5-4.6-9.8-6.7c-3.1,5-6.2,10.1-9.3,15.1
			C86.3,312.6,89.7,315,93.1,317.6z"/>
		<path fill="#FFFFFF" d="M117.5,340.9c3.3-5.1,6.5-10.2,9.6-15.4c-3.1-3.7-6.4-7.2-9.9-10.6c-3,4.9-5.7,9.9-8.2,15
			c-0.2,0.3-0.7,0.5-1.2,0.5C111.2,333.7,114.4,337.2,117.5,340.9z"/>
		<path fill="#FFFFFF" d="M53.7,295.5c2.6-4.9,5-10.4,8.6-14.8c-6.9-2.5-13.9-4.4-21.1-5.8c0.1,0.1,0.1,0.2,0,0.4
			c-2.7,4.9-5.7,9.4-9.1,13.8c3.3,0.7,6.5,1.5,9.7,2.4c1.6-1.6,2.7-4.5,3.5-5.9l4.5-7.7c0.5-0.9,3.4-0.5,2.9,0.4l-6.3,10.8
			c-0.7,1.2-1.3,2.3-2.1,3.2C47.5,293.2,50.7,294.3,53.7,295.5z"/>
		<path fill="#FFFFFF" d="M163.2,443.5c-3.2,4.1-6.1,8.4-8.8,12.8c0-1.7,0-3.5,0-5.3c0.1,0,0.2-0.1,0.3-0.2c3-4.9,5.9-9.7,8.9-14.6
			C163.5,438.6,163.4,441.1,163.2,443.5z"/>
		<path fill="#FFFFFF" d="M158.9,463.5c0.9-1.5,1.9-2.9,2.9-4.4c0,0.3-0.1,0.7-0.1,1c-0.7,1.2-1.4,2.4-2.1,3.6
			C159.4,463.6,159.1,463.5,158.9,463.5z"/>
		<path fill="#FFFFFF" d="M156,468c0.2-0.3,0.4-0.7,0.6-1c0,0.4-0.1,0.7-0.1,1.1C156.4,468.1,156.2,468.1,156,468z"/>
		<path fill="#FFFFFF" d="M153.4,467.1c0-0.4,0-0.9,0-1.3l0,0c3-4.5,6-8.8,9.1-13.1c0,0.4-0.1,0.7-0.1,1
			C159.2,458,156.2,462.5,153.4,467.1z"/>
		<path fill="#FFFFFF" d="M145.3,501.6c0.1-0.3,0.2-0.5,0.3-0.8c0.5-0.6,0.9-1.2,1.4-1.8c-0.3,0.5-0.6,1.1-0.9,1.6
			C145.8,500.9,145.6,501.2,145.3,501.6z"/>
		<path fill="#FFCC2B" d="M-54.5,304.8C-7.3,280.1,48.3,290.2,89,324c19.3,16,34.9,37,43.8,61.2c11.6,31.6,13,69.5,6,102.4
			c-6.7,31.3-26.7,54.7-54.1,68c-27.8,13.5-59,14.6-89.3,13.5c3.9-0.1,7.9-0.4,11.8-0.9c6.9-0.9,2-5.7-2.7-5.1
			c-32.3,4-65-7.3-89.9-29.1c-24.8-21.7-40-53.4-43.6-87C-135.3,387.9-104.7,331.3-54.5,304.8z"/>
		<path fill="#FFFFFF" d="M-47.2,291.4c-0.9,1.2-1.8,2.5-2.8,3.7c-0.3,0.1-0.6,0.1-0.8,0.3c-0.5,0.4-0.8,0.8-0.9,1.3
			c-0.4,0.2-0.9,0.3-1.3,0.5C-51.1,295.3-49.1,293.3-47.2,291.4z"/>
		<path fill="#FFFFFF" d="M-35.4,283c-3.2,3.4-6.2,7.1-8.9,10.9c-0.7,0.2-1.3,0.5-2,0.7c2.4-3.1,4.6-6.3,6.7-9.7
			C-38.3,284.2-36.9,283.6-35.4,283z"/>
		<path fill="#FFFFFF" d="M-25.2,279l-11.2,12.3c-1.3,0.3-2.5,0.7-3.8,1.1c3.1-4.2,6.5-8.1,10.3-11.8
			C-28.3,280.1-26.8,279.5-25.2,279z"/>
		<path fill="#FFFFFF" d="M-19.2,277.2c-2.3,2.2-4.7,4.4-7.1,6.6l5.6-6.2C-20.2,277.4-19.7,277.3-19.2,277.2z"/>
		<path fill="#FFFFFF" d="M-12.5,275.5c-4.1,4.3-8.1,8.7-12.2,13c-1.5,0.3-3,0.6-4.5,0.9c4.9-4.4,9.9-8.9,14.7-13.5
			C-13.8,275.7-13.2,275.6-12.5,275.5z"/>
		<path fill="#FFFFFF" d="M-5,273.9c-4,4.4-8.1,8.8-12.1,13.2c-1.3,0.2-2.5,0.4-3.7,0.6c4.1-4.3,8.2-8.7,12.3-13.1
			C-7.3,274.4-6.2,274.2-5,273.9z"/>
		<path fill="#FFFFFF" d="M1.4,273.1c-3.3,4.2-6.3,8.6-9.1,13.1c-1.9,0.1-3.8,0.3-5.7,0.5c4.1-4.4,8.1-8.9,12.2-13.3
			C-0.3,273.3,0.6,273.2,1.4,273.1z"/>
		<path fill="#FFFFFF" d="M8.6,272.5c-3.9,4.4-7.7,8.9-11.5,13.4c-0.6,0-1.1,0.1-1.6,0.1c2.9-4.6,6-9,9.4-13.2
			C6.1,272.7,7.3,272.6,8.6,272.5z"/>
		<path fill="#FFFFFF" d="M19,272.4c-3.9,4.2-7.6,8.8-10.8,13.6c-2.6-0.1-5.2-0.1-7.8-0.1c3.8-4.5,7.7-9,11.5-13.5
			C14.3,272.3,16.6,272.3,19,272.4z"/>
		<path fill="#FFFFFF" d="M26.2,272.7c-4.1,4.4-7.9,9-11.5,13.7c-1.1-0.1-2.3-0.2-3.5-0.3c3.3-4.8,7-9.4,11-13.6
			C23.5,272.6,24.9,272.7,26.2,272.7z"/>
		<path fill="#FFFFFF" d="M39.3,274.5c-0.4,0.1-0.7,0.3-0.8,0.5c-2.7,4.8-5.7,9.3-9,13.6c-3.9-0.8-7.8-1.4-11.7-1.8
			c3.6-4.8,7.4-9.3,11.5-13.7C32.6,273.4,35.9,273.9,39.3,274.5z"/>
		<path fill="#FFFFFF" d="M62.5,280.8c-3.6,4.3-6,9.9-8.6,14.8c-3.2-1.2-6.3-2.3-9.5-3.3c0.8-0.9,1.4-2.1,2.1-3.2l6.3-10.8
			c0.5-0.9-2.4-1.3-2.9-0.4l-4.5,7.7c-0.9,1.4-2,4.3-3.5,5.9c-3.2-0.9-6.5-1.7-9.7-2.4c3.4-4.4,6.4-9,9.1-13.8
			c0.1-0.1,0.1-0.3,0-0.4C48.5,276.3,55.5,278.2,62.5,280.8z"/>
		<path fill="#FFFFFF" d="M77.4,287c-3.4,4.9-6.9,9.6-10.6,14.2c-3.4-1.7-6.9-3.3-10.4-4.7c2.6-4.8,5-10.5,8.5-14.9
			C69.1,283.2,73.3,285,77.4,287z"/>
		<path fill="#FFFFFF" d="M90.6,294.2c-0.6,0-1.2,0.2-1.4,0.5c-2.9,4.7-5.7,9.4-8.6,14.1c-1.4-0.9-2.7-1.7-4.1-2.5
			c-2.7-1.5-5.3-2.9-8-4.3c0.5,0,1-0.1,1.2-0.4c3.6-4.3,6.9-8.8,10.1-13.4C83.4,290,87,292.1,90.6,294.2z"/>
		<path fill="#FFFFFF" d="M101.7,301.9c-3.3,5-6.2,10.3-8.7,15.7c-3.3-2.6-6.8-5-10.3-7.3c3.1-5,6.2-10.1,9.3-15.1
			C95.3,297.3,98.6,299.5,101.7,301.9z"/>
		<path fill="#FFFFFF" d="M115.1,313c-3.2,5.1-6.2,10.4-8.8,15.9c-3.5-3.4-7.2-6.6-11.1-9.7c0.1-0.1,0.2-0.2,0.3-0.3
			c2.4-5.3,5.2-10.5,8.4-15.4c1.1,0.9,2.2,1.7,3.3,2.6C109.9,308.3,112.6,310.6,115.1,313z"/>
		<path fill="#FFFFFF" d="M127,325.5c-3.2,5.2-6.4,10.3-9.6,15.4c-3.1-3.7-6.3-7.2-9.7-10.5c0.6,0,1-0.2,1.2-0.5
			c2.5-5.2,5.2-10.1,8.2-15C120.6,318.2,123.9,321.8,127,325.5z"/>
		<path fill="#FFFFFF" d="M137.9,339.9c-3.1,5.1-6.5,10-10.2,14.7c-2.7-4-5.5-7.9-8.5-11.6c3.2-5.1,6.4-10.2,9.6-15.4
			C132.1,331.5,135.1,335.6,137.9,339.9z"/>
		<path fill="#FFFFFF" d="M145.8,353.1c-2.9,6.1-5.6,12.3-8.3,18.5c-1.4-2.8-2.8-5.6-4.4-8.4c-1.2-2.1-2.5-4.3-3.9-6.4
			c3.7-4.7,7.2-9.5,10.4-14.5C141.8,345.8,143.9,349.4,145.8,353.1z"/>
		<path fill="#FFFFFF" d="M152.3,367.5c-2.8,7.3-4,15.2-7.8,22c-1.6-4.9-3.4-9.7-5.5-14.4c2.7-6.3,5.5-12.6,8.4-18.8
			C149.2,359.9,150.9,363.7,152.3,367.5z"/>
		<path fill="#FFFFFF" d="M158.2,386.1c-1.5,2.5-2.6,5.7-3.8,7.8c-1.9,3.6-3.9,7.1-5.8,10.7c-0.9-4-1.9-7.9-3-11.7
			c4.5-6.3,6-13.9,8.3-21.2C155.6,376.3,157,381.1,158.2,386.1z"/>
		<path fill="#FFFFFF" d="M161.2,400.9c-3.9,5.9-7.3,12.1-10,18.6c-0.5-3.7-1.1-7.4-1.8-11.1c0.2-0.1,0.3-0.2,0.4-0.3
			c2.2-4.1,4.4-8.1,6.6-12.2c0.9-1.7,1.9-3.5,2.8-5.2c0-0.1,0.1-0.1,0.1-0.2C160,393.9,160.7,397.3,161.2,400.9z"/>
		<path fill="#FFFFFF" d="M163,415.2c-3.4,6.5-6.8,12.9-10.4,19.2c-0.2-3-0.4-6-0.7-8.9c2.6-7.3,5.9-14.2,9.9-20.7
			C162.3,408.2,162.7,411.7,163,415.2z"/>
		<path fill="#FFFFFF" d="M163.6,430.9c-3.5,5.9-7.1,11.8-10.7,17.7c0-3.3,0-6.5-0.1-9.7c0.2-0.1,0.4-0.2,0.5-0.4
			c3.4-6,6.8-12.1,10-18.2C163.5,423.9,163.6,427.4,163.6,430.9z"/>
	</g>
	<path d="M173,451.9c3-36.2-1.7-73.9-19.9-105.4c-14.2-24.5-35.2-44.5-59.3-58.4C63.7,270.7,29.4,264-3.7,268.4
		c-0.7-0.3-1.9-0.3-2.3,0.1c0,0-0.1,0.1-0.2,0.2c-21.6,3.3-42.6,11.3-61.5,24.4c-23.4,16.1-41.2,38.5-52.1,63.8
		c-20.5,35.3-26.4,79-13.2,120.2c17.1,53.3,64.9,88.6,116.8,91.9c-3.8,0.9-3,4.8,2.2,5.1c38.4,1.9,79.3,1.3,113.9-18.8
		c4.6-2.7,9.1-5.7,13.3-9c1.8-0.9,3.6-1.8,5.3-2.8c14.7-8.4,27.8-19.7,37.3-34.1C166.9,492.5,171.3,472,173,451.9 M163.5,436.3
		c-0.1,2.5-0.2,4.9-0.4,7.3c-3.2,4.1-6.1,8.4-8.8,12.8c0-1.7,0-3.5,0-5.3c0.1,0,0.2-0.1,0.3-0.2C157.6,446,160.5,441.2,163.5,436.3
		 M159.5,463.8c-0.2-0.1-0.5-0.2-0.7-0.2c0.9-1.5,1.9-2.9,2.9-4.4c0,0.3-0.1,0.7-0.1,1C160.9,461.4,160.2,462.6,159.5,463.8
		 M156.4,468.2c-0.1,0-0.3,0-0.5-0.1c0.2-0.3,0.4-0.7,0.6-1C156.5,467.5,156.4,467.8,156.4,468.2 M162.3,453.8
		c-3.2,4.3-6.2,8.8-9,13.4c0-0.4,0-0.9,0-1.3l0,0c3-4.5,6-8.8,9.1-13.1C162.4,453.2,162.3,453.5,162.3,453.8 M146,500.7
		c-0.3,0.3-0.5,0.6-0.8,1c0.1-0.3,0.2-0.5,0.3-0.8c0.5-0.6,0.9-1.2,1.4-1.8C146.6,499.6,146.3,500.2,146,500.7 M-129.1,447.1
		c-6.3-59.1,24.3-115.7,74.5-142.2c47.2-24.7,102.8-14.6,143.5,19.2c19.3,16,34.9,37,43.8,61.2c11.6,31.6,13,69.5,6,102.4
		c-6.7,31.3-26.7,54.7-54.1,68c-27.8,13.5-59,14.6-89.3,13.5c3.9-0.1,7.9-0.4,11.8-0.9c6.9-0.9,2-5.7-2.7-5.1
		c-32.3,4-65-7.3-89.9-29.1C-110.3,512.4-125.5,480.7-129.1,447.1 M-53.1,297.4c1.9-2,3.9-3.9,5.8-5.8c-0.9,1.2-1.8,2.5-2.8,3.7
		c-0.3,0.1-0.6,0.1-0.8,0.3c-0.5,0.4-0.8,0.8-0.9,1.3C-52.2,297-52.7,297.2-53.1,297.4 M-39.8,285c1.4-0.7,2.8-1.3,4.2-1.9
		c-3.2,3.4-6.2,7.1-8.9,10.9c-0.7,0.2-1.3,0.5-2,0.7C-44.1,291.6-41.9,288.4-39.8,285 M-30,280.8c1.6-0.6,3.1-1.2,4.7-1.6
		l-11.2,12.3c-1.3,0.3-2.5,0.7-3.8,1.1C-37.2,288.4-33.8,284.5-30,280.8 M-20.8,277.7c0.5-0.2,1-0.3,1.5-0.4
		c-2.3,2.2-4.7,4.4-7.1,6.6L-20.8,277.7 M-14.6,276c0.7-0.1,1.3-0.3,2-0.4c-4.1,4.3-8.1,8.7-12.2,13c-1.5,0.3-3,0.6-4.5,0.9
		C-24.4,285.1-19.4,280.6-14.6,276 M-8.6,274.8c1.2-0.3,2.3-0.5,3.5-0.7c-4,4.4-8.1,8.8-12.1,13.2c-1.3,0.2-2.5,0.4-3.7,0.6
		C-16.8,283.6-12.7,279.2-8.6,274.8 M-1.3,273.6c0.9-0.1,1.8-0.2,2.6-0.3c-3.3,4.2-6.3,8.6-9.1,13.1c-1.9,0.1-3.8,0.3-5.7,0.5
		C-9.4,282.5-5.4,278-1.3,273.6 M4.8,273c1.2-0.1,2.4-0.2,3.7-0.3c-3.9,4.5-7.7,8.9-11.5,13.4c-0.6,0-1.1,0.1-1.6,0.1
		C-1.7,281.6,1.4,277.2,4.8,273 M11.8,272.6c2.4-0.1,4.7-0.1,7.1,0c-3.9,4.2-7.6,8.8-10.8,13.6c-2.6-0.1-5.2-0.1-7.8-0.1
		C4.1,281.6,8,277.1,11.8,272.6 M22.1,272.7c1.3,0,2.7,0.1,4,0.2c-4.1,4.4-7.9,9-11.5,13.7c-1.1-0.1-2.3-0.2-3.5-0.3
		C14.4,281.5,18.1,276.9,22.1,272.7 M29.2,273.2c3.3,0.4,6.6,0.8,10,1.4c-0.4,0.1-0.7,0.3-0.8,0.5c-2.7,4.8-5.7,9.3-9,13.6
		c-3.9-0.8-7.8-1.4-11.7-1.8C21.3,282.1,25.1,277.6,29.2,273.2 M41.2,275c7.2,1.4,14.2,3.3,21.2,5.9c-3.6,4.3-6,9.9-8.6,14.8
		c-3.2-1.2-6.3-2.3-9.5-3.3c0.8-0.9,1.4-2.1,2.1-3.2l6.3-10.8c0.5-0.9-2.4-1.3-2.9-0.4l-4.5,7.7c-0.9,1.4-2,4.3-3.5,5.9
		c-3.2-0.9-6.5-1.7-9.7-2.4c3.4-4.4,6.4-9,9.1-13.8C41.3,275.3,41.3,275.1,41.2,275 M64.8,281.7c4.2,1.6,8.4,3.5,12.5,5.4
		c-3.4,4.9-6.9,9.6-10.6,14.2c-3.4-1.7-6.9-3.3-10.4-4.7C58.9,291.8,61.3,286.1,64.8,281.7 M79.7,288.3c3.6,1.9,7.2,3.9,10.8,6
		c-0.6,0-1.2,0.2-1.4,0.5c-2.9,4.7-5.7,9.4-8.6,14.1c-1.4-0.9-2.7-1.7-4.1-2.5c-2.7-1.5-5.3-2.9-8-4.3c0.5,0,1-0.1,1.2-0.4
		C73.2,297.4,76.5,292.9,79.7,288.3 M91.9,295.3c3.3,2.1,6.6,4.3,9.7,6.7c-3.3,5-6.2,10.3-8.7,15.7c-3.3-2.6-6.8-5-10.3-7.3
		C85.7,305.4,88.8,300.3,91.9,295.3 M107.1,306.2c2.7,2.2,5.3,4.5,7.9,6.9c-3.2,5.1-6.2,10.4-8.8,15.9c-3.5-3.4-7.2-6.6-11.1-9.7
		c0.1-0.1,0.2-0.2,0.3-0.3c2.4-5.3,5.2-10.5,8.4-15.4C104.9,304.5,106,305.3,107.1,306.2 M117,315c3.5,3.4,6.8,6.9,9.9,10.6
		c-3.2,5.2-6.4,10.3-9.6,15.4c-3.1-3.7-6.3-7.2-9.7-10.5c0.6,0,1-0.2,1.2-0.5C111.3,324.8,114,319.9,117,315 M128.7,327.7
		c3.3,4,6.3,8.1,9.1,12.3c-3.1,5.1-6.5,10-10.2,14.7c-2.7-4-5.5-7.9-8.5-11.6C122.3,338,125.5,332.9,128.7,327.7 M139.5,342.5
		c2.2,3.5,4.3,7.1,6.2,10.8c-2.9,6.1-5.6,12.3-8.3,18.5c-1.4-2.8-2.8-5.6-4.4-8.4c-1.2-2.1-2.5-4.3-3.9-6.4
		C132.8,352.3,136.3,347.5,139.5,342.5 M147.3,356.4c1.8,3.7,3.5,7.4,4.9,11.2c-2.8,7.3-4,15.2-7.8,22c-1.6-4.9-3.4-9.7-5.5-14.4
		C141.6,368.9,144.4,362.6,147.3,356.4 M153.8,371.8c1.7,4.6,3.1,9.4,4.3,14.4c-1.5,2.5-2.6,5.7-3.8,7.8c-1.9,3.6-3.9,7.1-5.8,10.7
		c-0.9-4-1.9-7.9-3-11.7C150,386.7,151.5,379.1,153.8,371.8 M159.2,390.6c0.7,3.4,1.4,6.9,1.9,10.4c-3.9,5.9-7.3,12.1-10,18.6
		c-0.5-3.7-1.1-7.4-1.8-11.1c0.2-0.1,0.3-0.2,0.4-0.3c2.2-4.1,4.4-8.1,6.6-12.2c0.9-1.7,1.9-3.5,2.8-5.2
		C159.1,390.7,159.2,390.7,159.2,390.6 M161.7,404.9c0.5,3.4,0.9,6.9,1.2,10.4c-3.4,6.5-6.8,12.9-10.4,19.2c-0.2-3-0.4-6-0.7-8.9
		C154.4,418.3,157.7,411.4,161.7,404.9 M163.2,420.5c0.2,3.5,0.3,7,0.3,10.6c-3.5,5.9-7.1,11.8-10.7,17.7c0-3.3,0-6.5-0.1-9.7
		c0.2-0.1,0.4-0.2,0.5-0.4C156.6,432.7,160,426.6,163.2,420.5"/>
	<path d="M-129.5,379.2c-0.1,0.4-0.1,0.9-0.2,1.2c1-0.9,2.1-1.8,3.1-2.8c2.8-3.1,5.7-6.2,8.5-9.3c1-1.3,2.1-2.6,3.1-3.9
		c0.1-0.6,0.3-1.1,0.5-1.7C-119.7,367.9-124.7,373.5-129.5,379.2"/>
	<path fill="#FFFFFF" stroke="#FFFFFF" stroke-miterlimit="10" d="M29.5,409.6c3-4,5.8-8.2,8.4-12.5c1.5-2.4,2.9-4.8,4.2-7.3
		c1.2-2.3,3.5-5.5,3.8-8.1c0.5-4.4-7.8-10-10.9-12.7c-4.4-3.9-9-7.6-13.8-11.1c-2.3-1.7-4.7-3.8-7.2-5.1c-3.7-2-4.6-0.3-7.5,2.4
		c-3.5,3.2-7,6.5-10.3,9.8c-0.1,0.1-0.1,0.2-0.1,0.3c-0.1,0.4-0.5,0.6-0.9,0.7c-0.5,0.6-1,1.1-1.5,1.6c-8.7,9-15.4,19.5-23.2,29.3
		c-6.5,8.2-14.1,15.6-21.4,23.2c-4.1,4.2-8.2,8.6-11.9,13.2c-2.4,3-7.1,7.9-8.6,12.3c-0.1,0.1-0.1,0.3-0.1,0.4
		c0,0.2-0.1,0.3-0.2,0.5c-0.1,0.6-0.2,1.2-0.2,1.7c-0.1,4.2,5,9.7,7.4,12.8c3.4,4.4,7.2,8.5,11.2,12.4
		c12.9,12.7,27.7,23.4,39.8,36.9c1.8-0.5,4.5-0.3,5.2,0.9c6.5,11,14,21.5,22.3,31.2c5.8-7.8,11.7-15.5,17.9-23
		c3.4-4.2,6.9-8.4,10.5-12.5c1.8-2.1,3.7-4.2,5.5-6.3c1.4-1.5,5.5-5,5.4-7c-0.1-2.1-4-5.2-5.3-6.8c-2-2.3-3.9-4.5-5.8-6.8
		c-4.1-4.8-8.1-9.6-12.2-14.4c-8.1-9.6-16.2-19.2-24.3-28.8c-0.3-0.4,0.1-1,0.4-1.3C14.7,427.7,22.5,419.1,29.5,409.6z"/>
	<path d="M64,372.8c0.3-0.2,0.7-0.9,0.4-1.3c-12.8-15.9-27.3-30.2-43.4-42.8c0.1-0.1,0.2-0.3,0.3-0.4c0.4-0.7-1.3-1.1-2.3-0.8
		c-1.5-0.4-3.4-0.1-4.6,0.7C2.8,335.7-8.2,344-18.6,353c-9.9,8.6-18.8,18.3-28.5,27.2c-4.6,4.2-9.6,8-14.6,11.8
		c-4.4,3.3-7.8,6.9-9.4,12.3c-1.8,6.1-2.4,12.7-3.4,18.9c-1.2,7.3-2.4,14.6-3.6,21.9c-0.4,1.4-0.6,2.8-0.3,4.1
		c1.2,5.5,6.8,11.4,10.3,15.6c16.9,20.1,40.4,33.7,55.7,55c0.6,0.8,2.1,1.1,3.6,1c6.1,9.2,12.9,17.9,20.3,26.2
		c1.3,1.5,5.3,1.1,6.4-0.4c12.4-17,25.7-33.3,39.7-49c1.7,0,3.5-0.5,3.7-1.7c1.4-7.6,3.5-16,3.4-23.8c-0.1-6.3-6.1-12-9.7-16.7
		c-5.8-7.5-11.8-14.9-18.1-22c0.2-0.5,0.5-0.9,0.7-1.4c0.4-0.8-1.7-1.2-2.6-0.7c-1.9-2.1-3.9-4.2-5.8-6.3c0.3-0.2,0.6-0.4,0.9-0.6
		c1.5-0.8-1.3-1.4-2.1-1c-0.1,0-0.1,0.1-0.2,0.1c-0.4-0.5-0.9-0.9-1.3-1.4l0,0c3.3-3.8,6.4-7.6,9.4-11.6c4.3-5.9,8.3-12,11.9-18.3
		c1.1-1.9,2.7-4.2,3.9-6.6c1-0.1,1.9-0.5,2.2-1.1C56.4,379.9,59.7,376,64,372.8 M26.3,430.2c2.1,2.2,4.1,4.5,6,6.7
		c-2.1,5.2-3.6,10.6-4.3,16.2c-1.4-1.7-2.9-3.4-4.3-5.1l-2.9-3.5c1.2-3.1,2.5-6.3,3.8-9.5C25.1,433.7,25.6,431.9,26.3,430.2
		 M24.3,428c-0.4,1.1-0.8,2.3-1.4,3.4c-1.4,3.6-2.9,7.2-4.3,10.8c-1.5-1.6-4.2-3.8-4.6-5.5c-0.5-2,1.2-2.8,2.7-4.2s2.8-2.8,4.2-4.2
		c0.6-0.7,1.2-1.3,1.8-2C23.3,426.9,23.8,427.4,24.3,428 M34.5,439.4c1.9,2.2,3.7,4.5,5.7,6.7c-1.6,5.6-2.8,11.2-3.6,17
		c-2-2.2-3.9-4.5-5.8-6.8C31.2,450.4,32.5,444.8,34.5,439.4 M42.3,448.9c1.8,2.2,3.6,4.5,5.4,6.8c-1.4,5.5-2.6,11-3.6,16.5l-5-5.9
		C39.7,460.4,40.8,454.6,42.3,448.9 M46.5,475.1c1-5.6,2.2-11.1,3.4-16.5c1.4,1.8,2.8,3.6,4.1,5.4c-1.1,5.5-2,11.1-2.8,16.7
		C49.6,478.8,48.1,477,46.5,475.1 M57.5,475c-0.3,3.8-0.8,7.5-1.5,11.3c-0.7-0.9-1.5-1.7-2.2-2.6c0.6-5.3,1.5-10.6,2.4-15.8
		C57.2,470.1,57.7,472.4,57.5,475 M-71.2,445.5c0-0.2,0.1-0.3,0-0.3c1.5-4.4,6.2-9.3,8.6-12.3c3.7-4.6,7.8-8.9,11.9-13.2
		c7.3-7.5,14.8-14.9,21.4-23.2c7.8-9.8,14.5-20.2,23.2-29.3c0.5-0.6,1-1.1,1.5-1.6c0.5-0.1,0.8-0.4,0.9-0.7c0.1-0.1,0.1-0.2,0.1-0.3
		c3.4-3.4,6.8-6.6,10.3-9.8c2.9-2.6,3.8-4.4,7.5-2.4c2.5,1.3,4.9,3.4,7.2,5.1c4.8,3.5,9.4,7.2,13.8,11.1c3,2.7,11.4,8.3,10.9,12.7
		c-0.3,2.7-2.5,5.8-3.8,8.1c-1.3,2.5-2.7,4.9-4.2,7.3c-2.6,4.3-5.4,8.4-8.4,12.5c-6.9,9.3-14.7,17.9-23.3,25.7
		c-0.3,0.2-0.8,0.9-0.4,1.3c8.1,9.6,16.2,19.2,24.3,28.8c4.1,4.8,8.1,9.6,12.2,14.4c2,2.3,3.9,4.5,5.8,6.8c1.3,1.5,5.2,4.7,5.3,6.8
		c0.1,1.9-4,5.4-5.4,7c-1.8,2.1-3.7,4.2-5.5,6.3c-3.6,4.1-7.1,8.3-10.5,12.5c-6.1,7.5-12.1,15.2-17.9,23C6,532.1-1.4,521.6-8,510.6
		c-0.7-1.2-3.4-1.4-5.2-0.9C-25.3,496.2-40,485.4-53,472.8c-4-3.9-7.8-8-11.2-12.3c-2.4-3.1-7.4-8.6-7.4-12.8c0-0.6,0.1-1.1,0.2-1.7
		C-71.3,445.9-71.2,445.7-71.2,445.5 M-52.7,391.6c3.7-2.8,7.3-5.8,10.7-8.9c-2.2,8.2-3.8,16.4-4.9,24.8c0,0.1,0,0.2,0.1,0.3
		c-3.6,3.8-7.2,7.5-10.8,11.2c1.3-8.7,3.5-17.2,6.7-25.4c0.4-1.1-2.5-1.3-2.9-0.4c-3.5,9-5.8,18.2-7,27.7c-0.1,0.4,0.3,0.6,0.8,0.7
		c-3.1,3.2-6,6.5-8.8,9.9l1.2-7.2c1.1-6.8,1.4-14.3,3.8-20.7C-61.8,398.1-57.2,394.9-52.7,391.6 M-37.9,378.9
		c3.5-3.4,7-6.8,10.3-10.1c-0.7,2-1.1,4.2-1.6,6.3c-1.4,5.6-2.7,11.1-4,16.7c-2.5,3.3-5.1,6.6-7.9,9.7c-0.8,0.9-1.6,1.7-2.4,2.6
		C-42.2,395.6-40.3,387.2-37.9,378.9 M-22.7,364.1c2.4-2.4,4.9-4.7,7.4-7c-2.3,5.2-4.1,10.7-5.2,16.3c0,0.4,0.3,0.6,0.8,0.7
		c-3.1,3.8-6,7.8-9,11.8c0.6-2.4,1.1-4.7,1.7-7.1c1.1-4.5,1.5-10.3,4.7-13.8C-22,364.6-22.2,364.3-22.7,364.1 M-9.9,352.4
		c4-3.4,8.1-6.6,12.1-9.6c-3.1,4.8-5.4,9.8-7.1,15.2c-2.2,2.2-4.4,4.5-6.6,6.7c-1.9,1.9-3.7,3.9-5.4,6
		C-15.4,364.3-13.1,358.2-9.9,352.4 M2.8,342.2c4-2.9,8-5.8,12-8.6c-2.5,4.4-4.8,8.9-6.9,13.6c-0.9,0.4-1.9,0.9-2.8,1.6
		c-1.8,1.4-3.6,3-5.4,4.6c1.5-3.6,3.3-7.1,5.5-10.5C5.7,342.2,3.8,341.9,2.8,342.2 M18.3,333.1c2.5,2.1,5,4.2,7.5,6.4
		c-0.7,0-1.3,0.1-1.5,0.5c-1.9,3.2-3.5,6.6-4.7,10.2c-0.5-0.4-1.1-0.8-1.6-1.1c-2.2-1.5-4.5-2.4-6.7-2.4
		C13.4,342,15.7,337.5,18.3,333.1 M27.1,340.5c1.9,1.7,3.8,3.5,5.7,5.2c0,0.1,0,0.1,0,0.1c-1.5,3.4-3.2,6.8-4.9,10.1
		c-1.9-1.4-3.8-2.8-5.8-4.2C23.3,347.8,25,344,27.1,340.5 M35,347.8c2,1.9,3.9,3.8,5.8,5.8c-1.2,3.2-2.5,6.4-3.8,9.6
		c-0.2-0.1-0.3-0.3-0.5-0.4c-2.1-1.7-4.2-3.4-6.4-5.1C31.9,354.4,33.5,351.1,35,347.8 M43.1,355.8c1.9,2.1,3.9,4.2,5.8,6.3
		c-1.6,2.4-2.9,4.9-4,7.5c-1.8-1.6-3.7-3.1-5.5-4.6C40.6,362,41.9,358.9,43.1,355.8 M56.5,371.1c0.3,1.9-3.4,4.1-4.8,5.7
		c0,0.1,0,0.1,0,0.1c-1.4-1.8-3-3.6-4.7-5.2c1-2.6,2.2-5.1,3.6-7.5c0.9,0.9,1.7,1.8,2.5,2.8C53.7,367.7,56.4,370.3,56.5,371.1"/>
</g>
</svg>
