<?xml version="1.0" encoding="utf-8"?>
<!-- Generator: Adobe Illustrator 19.0.0, SVG Export Plug-In . SVG Version: 6.00 Build 0)  -->
<svg version="1.2" baseProfile="tiny" id="Layer_1" xmlns="http://www.w3.org/2000/svg" xmlns:xlink="http://www.w3.org/1999/xlink"
	 x="0px" y="0px" viewBox="-140 267.1 313.8 307.8" xml:space="preserve">
<g>
	<g>
		<path fill="#FFFFFF" d="M50.9,287.3c-4-4.4-8.1-8.8-12.1-13.2c1.2,0.2,2.3,0.4,3.5,0.6c4.1,4.3,8.2,8.7,12.3,13.1
			C53.4,287.6,52.2,287.4,50.9,287.3z"/>
		<path fill="#FFFFFF" d="M58.7,288.5c-4.1-4.3-8.1-8.7-12.2-13c0.6,0.1,1.3,0.2,1.9,0.4c4.8,4.6,9.7,9.1,14.7,13.5
			C61.6,289.1,60.1,288.8,58.7,288.5z"/>
		<path fill="#FFFFFF" d="M60.1,283.8c-2.4-2.2-4.7-4.4-7.1-6.6c0.5,0.1,1,0.2,1.5,0.4L60.1,283.8z"/>
		<path fill="#FFFFFF" d="M41.5,286.2c-2.8-4.6-5.8-8.9-9.1-13.1c0.9,0.1,1.8,0.2,2.7,0.3c4.1,4.4,8.1,8.9,12.2,13.3
			C45.4,286.5,43.5,286.4,41.5,286.2z"/>
		<path fill="#FFFFFF" d="M70.3,291.3L59.1,279c1.5,0.5,3.1,1,4.6,1.6c3.7,3.7,7.2,7.6,10.3,11.8C72.8,292,71.5,291.7,70.3,291.3z"
			/>
		<path fill="#FFFFFF" d="M36.8,286c-3.9-4.5-7.7-8.9-11.5-13.4c1.2,0.1,2.4,0.2,3.6,0.3c3.4,4.2,6.5,8.6,9.4,13.2
			C37.8,286,37.3,286,36.8,286z"/>
		<path fill="#FFFFFF" d="M25.7,286c-3.2-4.8-6.8-9.4-10.8-13.6c2.4-0.1,4.7-0.1,7.1,0c3.8,4.5,7.7,9,11.5,13.5
			C30.9,285.9,28.3,285.9,25.7,286z"/>
		<path fill="#FFFFFF" d="M-122.8,467.1c0.2,0.3,0.4,0.7,0.6,1c-0.2,0-0.3,0-0.5,0C-122.7,467.7-122.8,467.4-122.8,467.1z"/>
		<path fill="#FFFFFF" d="M78.3,293.9c-2.7-3.9-5.7-7.5-8.9-10.9c1.3,0.6,2.7,1.2,4.1,1.9c2.1,3.3,4.3,6.6,6.7,9.7
			C79.5,294.3,78.9,294.1,78.3,293.9z"/>
		<path fill="#FFFFFF" d="M-120.7,456.3c-2.7-4.4-5.6-8.7-8.8-12.8c-0.1-2.4-0.2-4.9-0.3-7.3c3,4.9,5.9,9.7,8.9,14.6
			c0.1,0.1,0.2,0.1,0.3,0.2C-120.6,452.8-120.6,454.6-120.7,456.3z"/>
		<path fill="#FFFFFF" d="M19,286.6c-3.6-4.8-7.5-9.3-11.5-13.7c1.4-0.1,2.7-0.2,4.1-0.3c4.1,4.2,7.7,8.7,11,13.6
			C21.4,286.3,20.3,286.3,19,286.6z"/>
		<path fill="#FFFFFF" d="M-127.9,459c1,1.4,1.9,2.9,2.9,4.4c-0.3,0-0.5,0.1-0.7,0.2c-0.7-1.2-1.4-2.4-2.1-3.6
			C-127.9,459.7-127.9,459.4-127.9,459z"/>
		<path fill="#FFFFFF" d="M83.9,295.1c-1-1.2-1.9-2.4-2.8-3.7c1.9,1.9,3.9,3.9,5.8,5.8c-0.4-0.2-0.9-0.3-1.3-0.5
			c-0.1-0.5-0.4-0.9-0.9-1.3C84.5,295.2,84.2,295.1,83.9,295.1z"/>
		<path fill="#FFCC2B" d="M88.2,304.9c50.4,26.4,81,83,74.6,142.1c-3.6,33.7-18.8,65.3-43.6,87c-24.9,21.7-57.6,33.1-89.9,29.1
			c-4.7-0.6-9.6,4.2-2.7,5.1c3.9,0.5,7.9,0.8,11.8,0.9c-30.2,1.1-61.4,0-89.2-13.4c-27.4-13.3-47.4-36.7-54.1-68
			c-7-32.9-5.6-70.8,6-102.4c8.9-24.2,24.4-45.2,43.7-61.2C-14.5,290.3,41.1,280.1,88.2,304.9z"/>
		<path fill="#FFFFFF" d="M-111.7,500.7c0.1,0.3,0.2,0.5,0.3,0.8c-0.3-0.4-0.5-0.7-0.8-1c-0.3-0.5-0.6-1.1-0.9-1.6
			C-112.7,499.5-112.2,500.1-111.7,500.7z"/>
		<path fill="#FFFFFF" d="M-119.6,465.8c0,0.5,0,0.9,0,1.4c-2.8-4.7-5.8-9.2-9-13.5c0-0.4-0.1-0.7-0.1-1
			C-125.6,457-122.5,461.4-119.6,465.8L-119.6,465.8z"/>
		<path fill="#FFFFFF" d="M-103.8,371.7c-2.6-6.2-5.4-12.4-8.3-18.5c2-3.7,4.1-7.3,6.3-10.8c3.2,5,6.7,9.9,10.4,14.5
			c-1.3,2.1-2.7,4.2-3.9,6.4C-100.8,366-102.3,368.8-103.8,371.7z"/>
		<path fill="#FFFFFF" d="M-110.7,389.5c-3.8-6.8-5-14.7-7.8-22c1.5-3.8,3.1-7.5,4.9-11.2c3,6.2,5.7,12.5,8.4,18.8
			C-107.3,379.8-109.1,384.6-110.7,389.5z"/>
		<path fill="#FFFFFF" d="M-117.4,419.4c-2.7-6.5-6.1-12.7-10-18.6c0.6-3.5,1.2-6.9,2-10.3c0,0.1,0.1,0.1,0.1,0.2
			c0.9,1.7,1.9,3.5,2.8,5.2c2.2,4.1,4.4,8.1,6.6,12.2c0.1,0.1,0.2,0.2,0.4,0.3C-116.3,412-116.9,415.7-117.4,419.4z"/>
		<path fill="#FFFFFF" d="M-5.4,274.4c3.3-0.6,6.7-1.1,10-1.4c4,4.4,7.9,9,11.5,13.7c-3.9,0.4-7.8,1-11.7,1.8
			c-3.3-4.3-6.4-8.8-9-13.6C-4.7,274.7-5,274.6-5.4,274.4z"/>
		<path fill="#FFFFFF" d="M-119,448.6c-3.5-5.9-7.1-11.8-10.7-17.7c0-3.5,0.1-7.1,0.3-10.6c3.2,6.1,6.5,12.2,10,18.2
			c0.1,0.2,0.3,0.3,0.5,0.4C-119.1,442.2-119.1,445.4-119,448.6z"/>
		<path fill="#FFFFFF" d="M-118.7,434.3c-3.6-6.3-7.1-12.7-10.4-19.2c0.3-3.4,0.6-6.9,1.1-10.3c4,6.6,7.3,13.4,9.9,20.7
			C-118.3,428.4-118.6,431.4-118.7,434.3z"/>
		<path fill="#FFFFFF" d="M-120.5,393.7c-1.2-2.1-2.3-5.3-3.8-7.8c1.2-4.9,2.7-9.7,4.3-14.3c2.3,7.3,3.8,14.9,8.3,21.2
			c-1.2,3.9-2.1,7.8-3,11.7C-116.7,400.9-118.6,397.3-120.5,393.7z"/>
		<path fill="#FFFFFF" d="M-55.2,294.8c-0.2-0.4-0.8-0.5-1.4-0.5c3.5-2.2,7.1-4.2,10.8-6.1c3.2,4.6,6.6,9.1,10.1,13.4
			c0.2,0.3,0.7,0.4,1.2,0.4c-2.7,1.3-5.4,2.8-8,4.3c-1.4,0.8-2.8,1.7-4.1,2.5C-49.5,304.1-52.4,299.4-55.2,294.8z"/>
		<path fill="#FFFFFF" d="M-32.9,301.2c-3.8-4.6-7.3-9.3-10.6-14.2c4.1-2,8.3-3.8,12.5-5.4c3.5,4.4,5.9,10.1,8.5,14.9
			C-26.1,297.9-29.5,299.5-32.9,301.2z"/>
		<path fill="#FFFFFF" d="M-93.9,354.6c-3.6-4.7-7.1-9.6-10.2-14.7c2.8-4.3,5.9-8.4,9.1-12.3c3.2,5.1,6.4,10.3,9.6,15.4
			C-88.4,346.7-91.2,350.6-93.9,354.6z"/>
		<path fill="#FFFFFF" d="M-72.4,328.9c-2.6-5.4-5.6-10.7-8.8-15.9c2.6-2.4,5.2-4.7,7.9-6.9c1.1-0.9,2.2-1.7,3.3-2.6
			c3.1,4.9,6,10.1,8.4,15.4c0,0.1,0.1,0.2,0.3,0.3C-65.2,322.3-68.9,325.5-72.4,328.9z"/>
		<path fill="#FFFFFF" d="M-59.3,317.6c-2.5-5.4-5.4-10.7-8.7-15.7c3.2-2.3,6.5-4.6,9.8-6.7c3.1,5,6.2,10.1,9.3,15.1
			C-52.4,312.6-55.9,315-59.3,317.6z"/>
		<path fill="#FFFFFF" d="M-83.6,340.9c-3.3-5.1-6.5-10.2-9.6-15.4c3.1-3.7,6.4-7.2,9.9-10.6c3,4.9,5.7,9.9,8.2,15
			c0.2,0.3,0.7,0.5,1.2,0.5C-77.3,333.7-80.5,337.2-83.6,340.9z"/>
		<path fill="#FFFFFF" d="M-19.9,295.5c-2.6-4.9-5-10.4-8.6-14.8c6.9-2.5,13.9-4.4,21.1-5.8c-0.1,0.1-0.1,0.2,0,0.4
			c2.7,4.9,5.7,9.4,9.1,13.8c-3.3,0.7-6.5,1.5-9.7,2.4c-1.6-1.6-2.7-4.5-3.5-5.9l-4.5-7.7c-0.5-0.9-3.4-0.5-2.9,0.4l6.3,10.8
			c0.7,1.2,1.3,2.3,2.1,3.2C-13.7,293.2-16.8,294.3-19.9,295.5z"/>
		<path fill="#FFFFFF" d="M-129.8,436.2c3,4.9,5.9,9.7,8.9,14.6c0.1,0.1,0.2,0.1,0.3,0.2c0,1.7,0,3.5,0,5.3
			c-2.7-4.4-5.6-8.7-8.8-12.8C-129.6,441.1-129.7,438.6-129.8,436.2z"/>
		<path fill="#FFFFFF" d="M-125.7,463.6c-0.7-1.2-1.4-2.4-2.1-3.6c0-0.3-0.1-0.7-0.1-1c1,1.4,1.9,2.9,2.9,4.4
			C-125.3,463.5-125.5,463.6-125.7,463.6z"/>
		<path fill="#FFFFFF" d="M-122.7,468.2c0-0.4-0.1-0.7-0.1-1.1c0.2,0.3,0.4,0.7,0.6,1C-122.3,468.1-122.5,468.1-122.7,468.2z"/>
		<path fill="#FFFFFF" d="M-128.6,453.8c0-0.4-0.1-0.7-0.1-1c3.1,4.3,6.2,8.7,9.1,13.1l0,0c0,0.4,0,0.9,0,1.3
			C-122.4,462.5-125.4,458-128.6,453.8z"/>
		<path fill="#FFFFFF" d="M-112.3,500.5c-0.3-0.5-0.6-1.1-0.9-1.6c0.5,0.6,0.9,1.2,1.4,1.8c0.1,0.3,0.2,0.5,0.3,0.8
			C-111.7,501.2-112,500.9-112.3,500.5z"/>
		<path fill="#FFCC2B" d="M162.8,447c-3.6,33.7-18.8,65.3-43.6,87c-24.9,21.7-57.6,33.1-89.9,29.1c-4.7-0.6-9.6,4.2-2.7,5.1
			c3.9,0.5,7.9,0.8,11.8,0.9c-30.2,1.1-61.4,0-89.3-13.4c-27.4-13.3-47.4-36.7-54.1-68c-7-32.9-5.6-70.8,6-102.4
			c8.9-24.2,24.4-45.2,43.7-61.2c40.7-33.8,96.3-43.9,143.5-19.2C138.6,331.3,169.2,387.9,162.8,447z"/>
		<path fill="#FFFFFF" d="M86.8,297.2c-0.4-0.2-0.9-0.3-1.3-0.5c-0.1-0.5-0.4-0.9-0.9-1.3c-0.1-0.2-0.5-0.3-0.8-0.3
			c-1-1.2-1.9-2.4-2.8-3.7C83,293.3,84.9,295.3,86.8,297.2z"/>
		<path fill="#FFFFFF" d="M73.6,284.9c2.1,3.3,4.3,6.6,6.7,9.7c-0.7-0.2-1.3-0.5-2-0.7c-2.7-3.9-5.7-7.5-8.9-10.9
			C70.7,283.6,72.1,284.2,73.6,284.9z"/>
		<path fill="#FFFFFF" d="M63.8,280.6c3.7,3.7,7.2,7.6,10.3,11.8c-1.3-0.4-2.5-0.7-3.8-1.1L59.1,279
			C60.6,279.5,62.2,280.1,63.8,280.6z"/>
		<path fill="#FFFFFF" d="M54.5,277.5l5.6,6.2c-2.4-2.2-4.7-4.4-7.1-6.6C53.5,277.3,54,277.4,54.5,277.5z"/>
		<path fill="#FFFFFF" d="M48.4,275.9c4.8,4.6,9.7,9.1,14.7,13.5c-1.5-0.3-3-0.6-4.5-0.9c-4.1-4.3-8.1-8.7-12.2-13
			C47,275.6,47.7,275.7,48.4,275.9z"/>
		<path fill="#FFFFFF" d="M42.3,274.7c4.1,4.3,8.2,8.7,12.3,13.1c-1.3-0.2-2.5-0.4-3.7-0.6c-4-4.4-8.1-8.8-12.1-13.2
			C40,274.2,41.2,274.4,42.3,274.7z"/>
		<path fill="#FFFFFF" d="M35,273.5c4.1,4.4,8.1,8.9,12.2,13.3c-1.9-0.2-3.8-0.4-5.7-0.5c-2.8-4.6-5.8-8.9-9.1-13.1
			C33.3,273.2,34.2,273.3,35,273.5z"/>
		<path fill="#FFFFFF" d="M29,272.9c3.4,4.2,6.5,8.6,9.4,13.2c-0.6,0-1.1-0.1-1.6-0.1c-3.9-4.5-7.7-8.9-11.5-13.4
			C26.5,272.6,27.7,272.7,29,272.9z"/>
		<path fill="#FFFFFF" d="M21.9,272.4c3.8,4.5,7.7,9,11.5,13.5c-2.6-0.1-5.2,0-7.8,0.1c-3.2-4.8-6.8-9.4-10.8-13.6
			C17.2,272.3,19.6,272.3,21.9,272.4z"/>
		<path fill="#FFFFFF" d="M11.6,272.6c4.1,4.2,7.7,8.7,11,13.6c-1.1,0.1-2.3,0.2-3.5,0.3c-3.6-4.8-7.5-9.3-11.5-13.7
			C8.9,272.7,10.3,272.6,11.6,272.6z"/>
		<path fill="#FFFFFF" d="M4.6,273.1c4,4.4,7.9,9,11.5,13.7c-3.9,0.4-7.8,1-11.7,1.8c-3.3-4.3-6.4-8.8-9-13.6
			c-0.1-0.3-0.4-0.4-0.8-0.5C-2.1,273.9,1.2,273.4,4.6,273.1z"/>
		<path fill="#FFFFFF" d="M-7.4,274.8c-0.1,0.1-0.1,0.2,0,0.4c2.7,4.9,5.7,9.4,9.1,13.8c-3.3,0.7-6.5,1.5-9.7,2.4
			c-1.6-1.6-2.7-4.5-3.5-5.9l-4.5-7.7c-0.5-0.9-3.4-0.5-2.9,0.4l6.3,10.8c0.7,1.2,1.3,2.3,2.1,3.2c-3.2,1-6.4,2.1-9.5,3.3
			c-2.6-4.9-5-10.4-8.6-14.8C-21.7,278.2-14.6,276.3-7.4,274.8z"/>
		<path fill="#FFFFFF" d="M-31.1,281.6c3.5,4.4,5.9,10.1,8.5,14.9c-3.5,1.4-7,3-10.4,4.7c-3.8-4.6-7.3-9.3-10.6-14.2
			C-39.5,285-35.3,283.2-31.1,281.6z"/>
		<path fill="#FFFFFF" d="M-45.9,288.2c3.2,4.6,6.6,9.1,10.1,13.4c0.2,0.3,0.7,0.4,1.2,0.4c-2.7,1.3-5.4,2.8-8,4.3
			c-1.4,0.8-2.8,1.7-4.1,2.5c-2.9-4.7-5.7-9.4-8.6-14.1c-0.2-0.4-0.8-0.5-1.4-0.5C-53.2,292.1-49.6,290-45.9,288.2z"/>
		<path fill="#FFFFFF" d="M-58.2,295.2c3.1,5,6.2,10.1,9.3,15.1c-3.5,2.3-6.9,4.7-10.3,7.3c-2.5-5.4-5.4-10.7-8.7-15.7
			C-64.7,299.5-61.5,297.3-58.2,295.2z"/>
		<path fill="#FFFFFF" d="M-73.4,306.1c1.1-0.9,2.2-1.7,3.3-2.6c3.1,4.9,6,10.1,8.4,15.4c0,0.1,0.1,0.2,0.3,0.3
			c-3.8,3-7.5,6.3-11.1,9.7c-2.6-5.4-5.6-10.7-8.8-15.9C-78.7,310.6-76.1,308.3-73.4,306.1z"/>
		<path fill="#FFFFFF" d="M-83.3,314.9c3,4.9,5.7,9.9,8.2,15c0.2,0.3,0.7,0.5,1.2,0.5c-3.4,3.4-6.6,6.9-9.7,10.5
			c-3.3-5.1-6.5-10.2-9.6-15.4C-90,321.8-86.7,318.2-83.3,314.9z"/>
		<path fill="#FFFFFF" d="M-95,327.6c3.2,5.1,6.4,10.3,9.6,15.4c-3,3.7-5.8,7.6-8.5,11.6c-3.6-4.7-7.1-9.6-10.2-14.7
			C-101.3,335.6-98.2,331.5-95,327.6z"/>
		<path fill="#FFFFFF" d="M-105.8,342.3c3.2,5,6.7,9.9,10.4,14.5c-1.3,2.1-2.7,4.2-3.9,6.4c-1.6,2.8-3,5.6-4.4,8.4
			c-2.6-6.2-5.4-12.4-8.3-18.5C-110.1,349.4-108,345.8-105.8,342.3z"/>
		<path fill="#FFFFFF" d="M-113.6,356.3c3,6.2,5.7,12.5,8.4,18.8c-2.1,4.7-3.9,9.5-5.5,14.4c-3.8-6.8-5-14.7-7.8-22
			C-117,363.7-115.4,359.9-113.6,356.3z"/>
		<path fill="#FFFFFF" d="M-120.1,371.5c2.3,7.3,3.8,14.9,8.3,21.2c-1.2,3.9-2.1,7.8-3,11.7c-1.9-3.6-3.9-7.1-5.8-10.7
			c-1.2-2.1-2.3-5.3-3.8-7.8C-123.1,381.1-121.7,376.3-120.1,371.5z"/>
		<path fill="#FFFFFF" d="M-125.5,390.4c0,0.1,0.1,0.1,0.1,0.2c0.9,1.7,1.9,3.5,2.8,5.2c2.2,4.1,4.4,8.1,6.6,12.2
			c0.1,0.1,0.2,0.2,0.4,0.3c-0.7,3.7-1.3,7.4-1.8,11.1c-2.7-6.5-6.1-12.7-10-18.6C-126.8,397.3-126.2,393.9-125.5,390.4z"/>
		<path fill="#FFFFFF" d="M-127.9,404.7c4,6.6,7.3,13.4,9.9,20.7c-0.3,3-0.5,5.9-0.7,8.9c-3.6-6.3-7.1-12.7-10.4-19.2
			C-128.8,411.7-128.4,408.2-127.9,404.7z"/>
		<path fill="#FFFFFF" d="M-129.5,420.4c3.2,6.1,6.5,12.2,10,18.2c0.1,0.2,0.3,0.3,0.5,0.4c-0.1,3.3-0.1,6.5-0.1,9.7
			c-3.5-5.9-7.1-11.8-10.7-17.7C-129.8,427.4-129.7,423.9-129.5,420.4z"/>
	</g>
	<path d="M-139.1,451.9c1.7,20.1,6.1,40.5,17.2,57.5c9.4,14.4,22.6,25.6,37.3,34.1c1.8,1,3.5,1.9,5.3,2.8c4.2,3.3,8.7,6.3,13.3,9
		c34.6,20.1,75.4,20.7,114,18.8c5.2-0.2,6-4.2,2.2-5.1c51.8-3.4,99.7-38.7,116.7-91.9c13.2-41.2,7.3-84.9-13.2-120.2
		c-10.9-25.3-28.7-47.6-52.1-63.8C82.7,280,61.7,272,40.1,268.7c0,0-0.1-0.1-0.2-0.2c-0.4-0.4-1.6-0.4-2.3-0.1
		c-33-4.4-67.3,2.3-97.5,19.7c-24.1,13.8-45.1,33.8-59.3,58.4C-137.5,378-142.1,415.8-139.1,451.9 M-129.6,436.3
		c2.9,4.9,5.9,9.7,8.8,14.6c0.1,0.1,0.2,0.1,0.3,0.2c0,1.7,0,3.5,0,5.3c-2.7-4.4-5.6-8.7-8.8-12.8
		C-129.4,441.2-129.5,438.7-129.6,436.3 M-125.6,463.8c-0.7-1.2-1.4-2.4-2.1-3.6c0-0.3-0.1-0.7-0.1-1c1,1.4,1.9,2.9,2.9,4.4
		C-125.2,463.6-125.4,463.7-125.6,463.8 M-122.6,468.2c0-0.3,0-0.7-0.1-1c0.2,0.3,0.4,0.7,0.6,1
		C-122.3,468.2-122.4,468.2-122.6,468.2 M-128.5,453.8c0-0.3-0.1-0.6-0.1-0.9c3.1,4.3,6.2,8.7,9.1,13.1l0,0c0,0.4,0,0.9,0,1.3
		C-122.3,462.6-125.3,458.1-128.5,453.8 M-112.1,500.7c-0.3-0.6-0.6-1.1-0.9-1.6c0.5,0.6,0.9,1.2,1.4,1.8c0.1,0.3,0.2,0.5,0.3,0.8
		C-111.6,501.3-111.8,501-112.1,500.7 M162.9,447.1c-3.6,33.7-18.8,65.3-43.7,87.1c-24.9,21.7-57.6,33.1-89.9,29.1
		c-4.7-0.6-9.6,4.2-2.7,5.1c3.9,0.5,7.9,0.8,11.8,0.9c-30.2,1.1-61.4,0-89.3-13.5c-27.4-13.3-47.4-36.7-54.1-68
		c-7-32.9-5.6-70.8,6-102.4c9-24.2,24.5-45.2,43.8-61.2c40.7-33.8,96.3-43.9,143.5-19.2C138.7,331.4,169.3,388,162.9,447.1
		 M87,297.4c-0.5-0.2-0.9-0.4-1.3-0.5c-0.1-0.5-0.4-0.9-0.9-1.3c-0.1-0.2-0.5-0.3-0.8-0.3c-1-1.2-1.9-2.4-2.8-3.7
		C83.1,293.5,85.1,295.5,87,297.4 M73.6,285c2.1,3.3,4.3,6.6,6.8,9.7c-0.7-0.2-1.3-0.5-2-0.7c-2.7-3.9-5.7-7.5-8.9-10.9
		C70.8,283.7,72.2,284.3,73.6,285 M63.8,280.8c3.8,3.6,7.2,7.6,10.4,11.8c-1.3-0.4-2.5-0.7-3.8-1.1l-11.2-12.3
		C60.7,279.7,62.3,280.2,63.8,280.8 M54.6,277.7l5.6,6.2c-2.4-2.2-4.7-4.4-7.1-6.6C53.6,277.4,54.1,277.5,54.6,277.7 M48.4,276
		c4.8,4.6,9.8,9.1,14.8,13.5c-1.5-0.3-3-0.6-4.5-0.9c-4.1-4.3-8.1-8.7-12.2-13C47.1,275.7,47.8,275.8,48.4,276 M42.4,274.8
		c4.1,4.3,8.2,8.7,12.3,13.2c-1.3-0.2-2.5-0.4-3.7-0.6c-4-4.4-8.1-8.8-12.1-13.2C40.1,274.4,41.2,274.6,42.4,274.8 M35.2,273.6
		c4,4.4,8.1,8.8,12.1,13.3c-1.9-0.2-3.8-0.4-5.7-0.5c-2.8-4.6-5.8-8.9-9.1-13.1C33.4,273.4,34.3,273.5,35.2,273.6 M29,273
		c3.4,4.2,6.5,8.6,9.5,13.2c-0.6,0-1.1-0.1-1.6-0.1c-3.9-4.5-7.7-8.9-11.5-13.4C26.6,272.8,27.8,272.9,29,273 M22.1,272.6
		c3.8,4.4,7.6,8.9,11.5,13.5c-2.6-0.1-5.2,0-7.8,0.1c-3.2-4.8-6.8-9.4-10.8-13.6C17.4,272.5,19.7,272.5,22.1,272.6 M11.8,272.7
		c4,4.2,7.7,8.8,10.9,13.7c-1.1,0.1-2.3,0.2-3.5,0.3c-3.6-4.8-7.5-9.3-11.5-13.7C9.1,272.9,10.4,272.8,11.8,272.7 M4.7,273.2
		c4.1,4.4,7.9,9,11.5,13.7c-3.9,0.4-7.8,1-11.7,1.8c-3.4-4.3-6.4-8.8-9-13.6c-0.1-0.3-0.4-0.4-0.8-0.5C-2,274,1.4,273.5,4.7,273.2
		 M-7.4,275c-0.1,0.1-0.1,0.3,0.1,0.3c2.7,4.9,5.7,9.4,9.1,13.8c-3.3,0.7-6.5,1.5-9.7,2.4c-1.6-1.6-2.7-4.5-3.5-5.9l-4.5-7.7
		c-0.5-0.9-3.4-0.5-2.9,0.4l6.3,10.8c0.7,1.2,1.3,2.3,2.1,3.2c-3.2,1-6.4,2.1-9.5,3.3c-2.6-4.9-5-10.4-8.6-14.8
		C-21.6,278.3-14.6,276.4-7.4,275 M-31,281.7c3.6,4.5,5.9,10.1,8.5,14.9c-3.5,1.4-7,3-10.4,4.7c-3.8-4.6-7.3-9.3-10.6-14.2
		C-39.4,285.1-35.2,283.3-31,281.7 M-45.8,288.3c3.2,4.6,6.5,9.1,10.1,13.5c0.2,0.3,0.7,0.4,1.2,0.4c-2.7,1.3-5.4,2.8-8,4.3
		c-1.4,0.8-2.8,1.7-4.1,2.5c-2.9-4.7-5.7-9.4-8.6-14.1c-0.2-0.4-0.8-0.5-1.4-0.5C-53.1,292.2-49.5,290.2-45.8,288.3 M-58,295.3
		c3.1,5,6.1,10.1,9.2,15.1c-3.5,2.3-6.9,4.7-10.3,7.3c-2.5-5.4-5.4-10.7-8.7-15.7C-64.6,299.7-61.3,297.4-58,295.3 M-73.3,306.2
		c1.1-0.9,2.2-1.7,3.3-2.6c3.1,4.9,6,10.1,8.4,15.4c0,0.1,0.1,0.2,0.3,0.3c-3.8,3-7.5,6.3-11.1,9.7c-2.6-5.4-5.6-10.7-8.8-15.9
		C-78.6,310.7-76,308.4-73.3,306.2 M-83.1,315c2.9,4.9,5.7,9.9,8.2,15c0.2,0.3,0.7,0.5,1.2,0.5c-3.4,3.4-6.6,6.9-9.7,10.5
		c-3.3-5.1-6.5-10.2-9.6-15.4C-89.9,321.9-86.6,318.4-83.1,315 M-94.9,327.7c3.2,5.2,6.4,10.3,9.6,15.4c-3,3.7-5.8,7.6-8.5,11.6
		c-3.6-4.7-7.1-9.6-10.2-14.7C-101.2,335.7-98.1,331.6-94.9,327.7 M-105.6,342.5c3.2,5,6.6,9.8,10.3,14.5c-1.3,2.1-2.7,4.2-3.9,6.4
		c-1.6,2.8-3,5.6-4.4,8.4c-2.6-6.2-5.4-12.4-8.3-18.5C-109.9,349.6-107.8,346-105.6,342.5 M-113.5,356.4c2.9,6.2,5.7,12.5,8.4,18.8
		c-2.1,4.7-3.9,9.5-5.5,14.4c-3.8-6.8-5-14.7-7.8-22C-116.9,363.8-115.3,360.1-113.5,356.4 M-120,371.8c2.4,7.3,3.9,14.9,8.3,21.1
		c-1.2,3.9-2.1,7.8-3,11.7c-1.9-3.6-3.9-7.1-5.8-10.7c-1.2-2.1-2.3-5.3-3.8-7.8C-123.1,381.2-121.6,376.4-120,371.8 M-125.3,390.6
		c0,0.1,0,0.2,0,0.1c0.9,1.7,1.9,3.5,2.8,5.2c2.2,4.1,4.4,8.1,6.6,12.2c0.1,0.1,0.2,0.2,0.4,0.3c-0.7,3.7-1.3,7.4-1.8,11.1
		c-2.7-6.5-6.1-12.7-10-18.6C-126.7,397.4-126.1,394-125.3,390.6 M-127.9,404.9c4,6.5,7.4,13.4,10,20.6c-0.3,3-0.5,5.9-0.7,8.9
		c-3.6-6.3-7.1-12.7-10.4-19.2C-128.7,411.8-128.4,408.3-127.9,404.9 M-129.4,420.5c3.3,6.1,6.6,12.2,10,18.2
		c0.1,0.2,0.3,0.3,0.5,0.4c-0.1,3.3-0.1,6.5-0.1,9.7c-3.5-5.9-7.1-11.8-10.7-17.7C-129.7,427.6-129.6,424-129.4,420.5"/>
	<path d="M163.3,379.2c0.1,0.4,0.2,0.9,0.2,1.2c-1-0.9-2.1-1.8-3.1-2.8c-2.8-3.1-5.7-6.2-8.5-9.3c-1-1.3-2.1-2.6-3.1-3.9
		c-0.1-0.6-0.3-1.1-0.5-1.7C153.5,367.9,158.5,373.5,163.3,379.2"/>
	<path fill="#FFFFFF" stroke="#FFFFFF" stroke-miterlimit="10" d="M4.3,409.6c-3-4-5.8-8.2-8.4-12.5c-1.5-2.4-2.9-4.8-4.2-7.3
		c-1.2-2.3-3.5-5.5-3.8-8.1c-0.5-4.4,7.8-10,10.9-12.7c4.4-3.9,9-7.6,13.8-11.1c2.3-1.7,4.7-3.8,7.2-5.1c3.7-2,4.6-0.3,7.5,2.4
		c3.5,3.2,7,6.5,10.3,9.8c0.1,0.1,0.1,0.2,0.1,0.3c0.1,0.4,0.5,0.6,0.9,0.7c0.5,0.6,1,1.1,1.5,1.6c8.7,9,15.4,19.5,23.2,29.3
		c6.5,8.2,14.1,15.6,21.4,23.2c4.1,4.2,8.2,8.6,11.9,13.2c2.4,3,7.1,7.9,8.6,12.3c0.1,0.1,0.1,0.3,0.1,0.4c0,0.2,0.1,0.3,0.2,0.5
		c0.1,0.6,0.2,1.2,0.2,1.7c0.1,4.2-5,9.7-7.4,12.8c-3.4,4.4-7.2,8.5-11.2,12.4c-12.9,12.7-27.7,23.4-39.8,36.9
		c-1.8-0.5-4.5-0.3-5.2,0.9c-6.5,11-14,21.5-22.3,31.2c-5.8-7.8-11.7-15.5-17.9-23c-3.4-4.2-6.9-8.4-10.5-12.5
		c-1.8-2.1-3.7-4.2-5.5-6.3c-1.4-1.5-5.5-5-5.4-7c0.1-2.1,4-5.2,5.3-6.8c2-2.3,3.9-4.5,5.8-6.8c4.1-4.8,8.1-9.6,12.2-14.4
		c8.1-9.6,16.2-19.2,24.3-28.8c0.3-0.4-0.1-1-0.4-1.3C19.1,427.7,11.3,419.1,4.3,409.6z"/>
	<path d="M-30.2,372.8c4.3,3.2,7.6,7.1,10,11.9c0.4,0.6,1.2,0.9,2.2,1.1c1.2,2.4,2.8,4.7,3.9,6.6c3.6,6.3,7.6,12.5,11.9,18.3
		c3,4,6.1,7.9,9.4,11.6l0,0c-0.4,0.5-0.9,0.9-1.3,1.4c-0.1,0-0.1-0.1-0.2-0.1c-0.8-0.5-3.6,0.2-2.1,1c0.3,0.1,0.6,0.4,0.9,0.6
		c-2,2.1-3.9,4.2-5.8,6.3c-0.9-0.5-3-0.1-2.6,0.7c0.3,0.5,0.5,0.9,0.7,1.4c-6.3,7.1-12.4,14.4-18.1,22c-3.6,4.7-9.6,10.4-9.7,16.7
		c-0.1,7.8,2,16.2,3.4,23.8c0.3,1.2,2,1.7,3.7,1.7c14,15.6,27.3,32,39.7,49c1.1,1.5,5.1,1.9,6.4,0.4c7.4-8.2,14.2-17,20.3-26.2
		c1.5,0.1,3-0.2,3.6-1c15.4-21.5,38.9-35.1,55.8-55.2c3.6-4.2,9.1-10.1,10.3-15.6c0.2-1.3,0.1-2.7-0.3-4.1
		c-1.2-7.3-2.4-14.6-3.6-21.9c-1-6.2-1.6-12.8-3.4-18.9c-1.6-5.4-5-9-9.4-12.3c-5-3.8-10-7.5-14.6-11.8
		c-9.7-8.9-18.6-18.5-28.5-27.2c-10.4-9.1-21.5-17.3-33-24.8c-1.2-0.8-3.1-1.1-4.6-0.7c-1-0.3-2.7,0.1-2.3,0.8
		c0.1,0.1,0.2,0.3,0.3,0.4c-16.1,12.5-30.6,26.9-43.4,42.8C-30.9,371.9-30.5,372.6-30.2,372.8 M7.5,430.2c0.7,1.7,1.2,3.5,1.6,4.9
		c1.2,3.1,2.5,6.3,3.8,9.5l-2.9,3.5c-1.4,1.7-2.9,3.4-4.3,5.1c-0.7-5.6-2.1-11-4.3-16.2C3.4,434.7,5.5,432.4,7.5,430.2 M9.5,428
		c0.5-0.5,1-1.1,1.5-1.7c0.6,0.7,1.2,1.3,1.8,2c1.4,1.5,2.8,2.8,4.2,4.2c1.5,1.4,3.2,2.2,2.7,4.2c-0.4,1.7-3.1,3.9-4.6,5.5
		c-1.4-3.6-2.9-7.2-4.3-10.8C10.4,430.2,10,429.1,9.5,428 M-0.6,439.4c2,5.5,3.3,11.1,3.8,16.9c-2,2.2-3.9,4.5-5.8,6.8
		c-0.8-5.7-2-11.4-3.6-17C-4.4,443.9-2.5,441.6-0.6,439.4 M-8.5,448.9c1.5,5.7,2.6,11.5,3.3,17.3l-5,5.9c-1.1-5.5-2.3-11-3.6-16.5
		C-12.1,453.4-10.3,451.1-8.5,448.9 M-12.7,475.1c-1.6,1.8-3.1,3.7-4.7,5.6c-0.8-5.6-1.7-11.1-2.8-16.7c1.3-1.9,2.7-3.6,4.1-5.4
		C-14.8,464.1-13.7,469.6-12.7,475.1 M-23.7,475c-0.2-2.6,0.3-4.9,1.3-7.1c0.9,5.3,1.7,10.5,2.4,15.8c-0.7,0.9-1.5,1.7-2.2,2.6
		C-22.8,482.6-23.4,478.8-23.7,475 M105,445.5c0.1,0.2,0.1,0.3,0.1,0.3c0.1,0.6,0.2,1.2,0.2,1.7c0.1,4.2-5,9.7-7.4,12.8
		c-3.4,4.4-7.2,8.5-11.2,12.4c-12.9,12.7-27.7,23.4-39.8,36.9c-1.8-0.5-4.5-0.3-5.2,0.9c-6.5,11-14,21.5-22.3,31.2
		c-5.8-7.8-11.7-15.5-17.9-23c-3.4-4.2-6.9-8.4-10.5-12.5c-1.8-2.1-3.7-4.2-5.5-6.3c-1.4-1.5-5.5-5-5.4-7c0.1-2.1,4-5.2,5.3-6.8
		c2-2.3,3.9-4.5,5.8-6.8c4.1-4.8,8.1-9.6,12.2-14.4c8.1-9.6,16.2-19.2,24.3-28.8c0.3-0.4-0.1-1-0.4-1.3C18.7,427,10.9,418.4,4,409.1
		c-3-4-5.8-8.2-8.4-12.5c-1.5-2.4-2.9-4.8-4.2-7.3c-1.2-2.3-3.5-5.5-3.8-8.1c-0.5-4.4,7.8-10,10.9-12.7c4.4-3.9,9-7.6,13.8-11.1
		c2.3-1.7,4.7-3.8,7.2-5.1c3.7-2,4.6-0.3,7.5,2.4c3.5,3.2,7,6.5,10.3,9.8c0.1,0.1,0.1,0.2,0.1,0.3c0.1,0.4,0.5,0.6,0.9,0.7
		c0.5,0.6,1,1.1,1.5,1.6c8.7,9,15.4,19.5,23.2,29.3c6.5,8.2,14.1,15.6,21.4,23.2c4.1,4.2,8.2,8.6,11.9,13.2c2.4,3,7.1,7.9,8.6,12.3
		C105,445.2,105,445.4,105,445.5 M86.6,391.6c4.5,3.3,9.1,6.5,11.1,12c2.3,6.5,2.7,14,3.8,20.7l1.2,7.2c-2.8-3.4-5.8-6.7-8.8-9.9
		c0.5-0.1,0.8-0.3,0.8-0.7c-1.1-9.6-3.5-18.8-7-27.7c-0.4-0.9-3.3-0.7-2.9,0.4c3.3,8.2,5.5,16.7,6.7,25.4
		c-3.6-3.8-7.2-7.4-10.8-11.2c0.1-0.1,0.1-0.2,0.1-0.3c-1-8.4-2.7-16.7-4.9-24.8C79.3,385.9,82.9,388.8,86.6,391.6 M71.7,378.9
		c2.5,8.3,4.3,16.7,5.5,25.2c-0.8-0.9-1.6-1.7-2.4-2.6c-2.7-3.1-5.4-6.4-7.9-9.7c-1.4-5.6-2.7-11.1-4-16.7c-0.5-2.2-0.9-4.3-1.6-6.3
		C64.8,372.2,68.2,375.6,71.7,378.9 M56.5,364.1c-0.4,0.2-0.7,0.5-0.4,1c3.2,3.5,3.6,9.3,4.7,13.8c0.6,2.4,1.1,4.7,1.7,7.1
		c-3-4-5.9-7.9-9-11.8c0.5-0.1,0.9-0.4,0.8-0.7c-1.1-5.7-2.9-11.1-5.2-16.3C51.6,359.5,54.1,361.8,56.5,364.1 M43.7,352.4
		c3.2,5.8,5.5,11.9,6.9,18.2c-1.7-2-3.5-4-5.4-6c-2.1-2.2-4.3-4.5-6.6-6.7c-1.7-5.3-4-10.4-7.1-15.2C35.7,345.8,39.7,349,43.7,352.4
		 M31,342.2c-1-0.3-2.8,0-2.4,0.7c2.2,3.3,4,6.9,5.5,10.5c-1.8-1.6-3.6-3.2-5.4-4.6c-0.9-0.7-1.9-1.2-2.8-1.6
		c-2.1-4.6-4.4-9.2-6.9-13.6C23.1,336.4,27.1,339.2,31,342.2 M15.6,333.1c2.5,4.4,4.8,8.9,7,13.5c-2.2,0.1-4.5,1-6.7,2.4
		c-0.6,0.4-1.1,0.8-1.6,1.1c-1.2-3.6-2.7-7-4.7-10.2c-0.2-0.4-0.9-0.5-1.5-0.5C10.5,337.3,13.1,335.2,15.6,333.1 M6.8,340.5
		c2.1,3.6,3.8,7.3,4.9,11.2c-1.9,1.4-3.9,2.8-5.8,4.2c-1.7-3.3-3.4-6.7-4.9-10.1c0-0.1,0-0.1,0-0.1C2.9,344,4.9,342.2,6.8,340.5
		 M-1.1,347.8c1.5,3.3,3.1,6.6,4.8,9.9c-2.2,1.7-4.3,3.4-6.4,5.1c-0.2,0.1-0.3,0.3-0.5,0.4c-1.2-3.2-2.5-6.4-3.8-9.6
		C-5.1,351.7-3.1,349.7-1.1,347.8 M-9.2,355.8c1.2,3.1,2.5,6.1,3.7,9.2c-1.8,1.5-3.7,3-5.5,4.6c-1.1-2.6-2.4-5.1-4-7.5
		C-13.1,360-11.2,357.9-9.2,355.8 M-22.7,371.1c0.1-0.9,2.8-3.4,3.3-4.1c0.8-0.9,1.7-1.9,2.5-2.8c1.4,2.4,2.6,4.9,3.6,7.5
		c-1.8,1.7-3.4,3.4-4.7,5.2c0-0.1,0-0.1,0-0.1C-19.3,375.3-23,373-22.7,371.1"/>
</g>
</svg>
