<?xml version="1.0" encoding="utf-8"?>
<!-- Generator: Adobe Illustrator 21.1.0, SVG Export Plug-In . SVG Version: 6.00 Build 0)  -->
<svg version="1.1" id="Слой_2" xmlns="http://www.w3.org/2000/svg" xmlns:xlink="http://www.w3.org/1999/xlink" x="0px" y="0px"
	 viewBox="0 0 106.7 79.4" style="enable-background:new 0 0 106.7 79.4;" xml:space="preserve">
<path d="M105.4,26.2c0.4-3.5,0.8-7,1.2-10.5c0.1-0.7-0.2-1.1-0.7-1.3c-0.1-0.3-0.3-0.5-0.6-0.7C97.1,8.4,88.5,3.9,79.6,0.1
	C79-0.2,78.4,0,78,0.3c-0.2,0-0.5,0.1-0.8,0.3C67.1,7.9,57.8,16.1,49.4,25.2c-3-1.8-5.9-3.6-8.8-5.5c-6-4.1-11.4-8.9-17.2-13.2
	c-4.3-3.1-6.7-0.9-9.6,2.8C9.2,15,4.7,20.9,0.3,26.8c-0.5,0.6-0.3,1.2,0,1.6C0.1,28.7,0,29.2,0,29.6c-0.1,0.3,0,0.6,0.2,1
	C3.5,36.7,6.4,42.9,9,49.3c0.3,0.8,1.1,1.1,1.7,1c14.5,11.3,30.6,19.9,46.9,28.3c0.5,0.7,1.7,1.1,2.4,0.3c0.2-0.2,0.4-0.4,0.6-0.7
	c6.8-9.1,16-15.8,24-23.8c7.9-7.9,14.4-17,20.8-26.1c0.4-0.6,0.3-1.2-0.1-1.6C105.3,26.5,105.3,26.3,105.4,26.2z M2.8,28.2
	c3.9-5.1,7.8-10.3,11.8-15.3c0.6-0.7,1.9-3,2.8-3.6c1.9-1.1,5,0.6,6.8,1.8s3.5,2.8,5.3,4.2c6.6,5.1,13.6,9.7,20.8,13.9
	c0.8-0.7,1.7-1.4,2.6-2c-0.3-0.2-0.6-0.3-0.8-0.5c8.2-8.7,17-16.5,26.7-23.5l0.1-0.1c8.1,3.5,15.8,7.6,23.3,12.2
	c0,0.1,0,0.2,0.1,0.3l0.1,0.2c0,0.1,0.1,0.2,0.1,0.2c-1.1,1.9-4.6,5.1-5.6,6.2c-1.8,2.1-3.6,4.2-5.5,6.3c-3.9,4.4-7.8,8.8-11.8,13.1
	c-8,8.6-16.2,16.9-24.9,24.7C37.5,53.4,20.2,40.7,2.8,28.2C2.8,28.3,2.8,28.3,2.8,28.2z M11.6,47c-0.1-0.1-0.2-0.2-0.4-0.2
	c-1.8-4.4-3.8-8.7-5.9-12.9c1.5,1.1,3,2.2,4.5,3.3c0,0.1,0,0.1,0,0.2c0.7,3.5,1.5,6.9,2.5,10.3C12.1,47.4,11.8,47.2,11.6,47z
	 M13.7,48.7c-1.1-3.5-2-7.1-2.7-10.7c0.8,0.6,1.6,1.1,2.4,1.7c0.4,3.6,1.1,7.1,2.4,10.5C15.1,49.7,14.4,49.2,13.7,48.7z M17.2,51.3
	c-1.4-3.5-2.3-7-2.7-10.7c0.7,0.5,1.5,1.1,2.2,1.6c-0.2,0.9,0.4,2.3,0.5,3c0.5,2.6,1.3,5.2,2.2,7.7C18.7,52.3,17.9,51.8,17.2,51.3z
	 M20.5,53.5c0.1-0.1,0.2-0.3,0.1-0.4c-0.7-1.8-1.3-3.6-1.8-5.5c-0.1-0.6-1-3.6-1.2-4.8c0.7,0.5,1.5,1.1,2.2,1.6c0,0.1,0,0.1,0,0.2
	c0.7,3.6,1.7,7.1,3,10.5C22,54.6,21.3,54.1,20.5,53.5z M23.9,55.8c0.1-0.1,0.2-0.3,0.1-0.5c-1.3-3.3-2.3-6.7-3-10.1
	c0.7,0.5,1.4,1,2.1,1.5c0,0,0,0,0,0.1c1,3.5,2.1,7,3.1,10.4C25.4,56.8,24.6,56.3,23.9,55.8z M27.3,58.1c0-0.1,0-0.2,0-0.2
	c-1-3.4-2-6.7-3-10.1c0.9,0.6,1.7,1.3,2.6,1.9l2.8,9.9C28.9,59.1,28.1,58.6,27.3,58.1z M31,60.3c-0.9-3.2-1.8-6.5-2.7-9.7
	c0.8,0.5,1.5,1.1,2.3,1.7l2.9,9.5C32.6,61.3,31.8,60.8,31,60.3z M34.5,62.4c0-0.1,0.1-0.2,0-0.3c-0.9-3-1.8-5.9-2.7-8.9
	c0.7,0.5,1.3,1,2,1.5c0.7,3.1,1.6,6.1,2.9,9C36,63.3,35.2,62.9,34.5,62.4z M38.2,64.6c-1.3-2.9-2.4-5.9-3.1-8.9
	c0.8,0.6,1.7,1.2,2.5,1.8c0.6,2.9,1.6,5.7,2.8,8.4C39.7,65.4,38.9,65,38.2,64.6z M41.8,66.6c0-0.1,0-0.1,0-0.2
	c-1.3-2.6-2.3-5.3-3-8.1c0.9,0.7,1.9,1.4,2.8,2.1c0.8,2.6,1.7,5.1,2.7,7.6C43.5,67.5,42.7,67.1,41.8,66.6z M45.8,68.8
	c-1.1-2.4-2.1-4.9-2.9-7.4c0.9,0.7,1.8,1.3,2.7,2c0.8,2.3,1.8,4.6,2.9,6.8C47.6,69.8,46.7,69.3,45.8,68.8z M50,71.1
	c-1.1-2.1-2.1-4.3-2.9-6.6c0.6,0.4,1.2,0.9,1.7,1.3c0.7,2.1,1.7,4.2,2.8,6.1C51.1,71.6,50.5,71.3,50,71.1z M53.3,72.8
	c-1.2-1.9-2.2-3.9-3.1-6c1.1,0.8,2.1,1.6,3.2,2.4c0.1,0.1,0.3,0.2,0.4,0.2c1,1.8,2.1,3.6,3.1,5.3C55.8,74.1,54.5,73.5,53.3,72.8z
	 M60,73.9c-1.1-1.8-2.1-3.6-3.2-5.4c0.4-0.4,0.8-0.8,1.3-1.2c0.7,2,1.5,4,2.5,5.9C60.4,73.5,60.2,73.7,60,73.9z M61.3,72.4
	c-0.9-1.9-1.7-3.8-2.4-5.8c0.4-0.4,0.8-0.8,1.3-1.2c0.5,1.9,1.2,3.8,1.9,5.6c0.1,0.1,0.1,0.2,0.2,0.3C62,71.7,61.6,72.1,61.3,72.4z
	 M63.1,70.5c0-0.3,0-0.5,0.1-0.8c0-0.4-0.4-0.6-0.7-0.4c-0.6-1.5-1-3.1-1.5-4.6c0.8-0.8,1.6-1.6,2.5-2.4c0.2,2.1,0.7,4.2,1.5,6.2
	C64.3,69.2,63.7,69.8,63.1,70.5z M65.7,67.8c-0.7-2.1-1.2-4.2-1.3-6.4c0.7-0.7,1.4-1.4,2.1-2c0.3,2.1,0.9,4.1,1.7,6.1
	C67.3,66.2,66.5,67,65.7,67.8z M68.9,64.7c-0.8-2-1.3-4-1.6-6.2c0.9-0.9,1.8-1.8,2.7-2.7c0.6,2.1,1.1,4.2,1.7,6.3
	C70.8,63,69.8,63.8,68.9,64.7z M72.5,61.3c-0.6-2.1-1.1-4.2-1.7-6.3c0.9-0.9,1.7-1.7,2.5-2.6c0.3,1.4,0.6,2.8,0.9,4.2
	c0.2,0.7,0.2,1.8,0.5,2.6C74.1,60,73.3,60.7,72.5,61.3z M75.8,58.4c-0.1-0.4-0.2-0.7-0.2-1.1c-0.1-0.7-0.3-1.3-0.4-2
	c-0.3-1.3-0.6-2.5-0.9-3.8c0.8-0.8,1.5-1.5,2.2-2.3c0.5,2.3,1.1,4.5,2,6.7C77.5,56.8,76.7,57.6,75.8,58.4z M80,54.5
	c-0.3,0.2-0.5,0.5-0.8,0.7c-0.8-2.2-1.5-4.5-1.9-6.9c0.6-0.7,1.3-1.3,1.9-2c0.3,1.3,0.6,2.5,0.9,3.7c0.2,0.8,0.4,2.5,1.1,3.1
	C80.8,53.7,80.4,54.1,80,54.5z M82.1,52.5c-0.1-0.1-0.2-0.2-0.4-0.2c0,0,0,0-0.1,0c-0.5-0.9-0.9-3.5-1.1-4.1
	c-0.2-0.9-0.4-1.8-0.6-2.7c0.9-0.9,1.8-1.9,2.6-2.8c0.4,2.5,0.9,5.1,1.6,7.5C83.5,51,82.8,51.7,82.1,52.5z M85,49.4
	c-0.7-2.5-1.1-5.1-1.5-7.7c0.4-0.5,0.9-0.9,1.3-1.4c0.4-0.5,0.9-1,1.3-1.5c0,1.6,0.2,3.2,0.5,4.7c0.2,0.8,0.2,2.2,0.6,3.3
	C86.5,47.8,85.8,48.6,85,49.4z M88.2,45.9c-0.3-1.5-0.6-3.2-0.7-3.4c-0.3-1.6-0.4-3.1-0.3-4.7c0.9-1,1.8-2,2.7-3
	c-0.1,2.8,0.1,5.6,0.5,8.4C89.6,44.1,88.9,45,88.2,45.9z M93.6,36.5c0,0.7-0.1,1.7,0,2.6c-0.8,1-1.6,2-2.4,3
	c-0.4-2.8-0.5-5.7-0.3-8.6c1-1.1,1.9-2.2,2.9-3.3C93.7,32.4,93.6,34.4,93.6,36.5z M94.8,37.7c0-1.5-0.1-3.1-0.1-3.3
	c0-1.8,0.1-3.5,0.3-5.3c0.6-0.7,1.2-1.4,1.8-2c0.2,2.4,0.3,4.8,0.5,7.2c0,0.1,0,0.1,0,0.2C96.4,35.5,95.6,36.6,94.8,37.7z
	 M98.1,33.2c-0.2-2.4-0.3-4.8-0.5-7.2c0-0.1,0.1-0.1,0.1-0.2c0.6-0.8,1.3-1.5,1.9-2.3c0.2,2.4,0.2,4.7,0.2,7.1
	C99.3,31.5,98.7,32.4,98.1,33.2z M102.5,27c-0.5,0.7-1.1,1.5-1.6,2.2c0-2.2-0.1-4.4-0.3-6.5c0-0.1,0-0.2-0.1-0.2c0.9-1,1.7-2,2.6-3
	c-0.3,2.2-0.5,4.5-0.8,6.7C102.3,26.5,102.4,26.8,102.5,27z"/>
</svg>
