<?xml version="1.0" encoding="utf-8"?>
<!-- Generator: Adobe Illustrator 19.0.0, SVG Export Plug-In . SVG Version: 6.00 Build 0)  -->
<svg version="1.2" baseProfile="tiny" id="Layer_1" xmlns="http://www.w3.org/2000/svg" xmlns:xlink="http://www.w3.org/1999/xlink"
	 x="0px" y="0px" viewBox="-140 267.1 313.8 307.8" xml:space="preserve">
<g>
	<g>
		<path fill="#FFFFFF" d="M54.6,554.1c-4.1,4.4-8.2,8.8-12.3,13.1c-1.2,0.2-2.3,0.4-3.5,0.6c4-4.4,8.1-8.8,12.1-13.2
			C52.2,554.5,53.4,554.3,54.6,554.1z"/>
		<path fill="#FFFFFF" d="M63.1,552.5c-5,4.4-9.9,8.9-14.7,13.5c-0.6,0.2-1.3,0.3-1.9,0.4c4.1-4.3,8.1-8.7,12.2-13
			C60.1,553.1,61.6,552.8,63.1,552.5z"/>
		<path fill="#FFFFFF" d="M54.5,564.3c-0.5,0.2-1,0.3-1.5,0.4c2.4-2.2,4.7-4.4,7.1-6.6L54.5,564.3z"/>
		<path fill="#FFFFFF" d="M47.3,555.2c-4.1,4.4-8.1,8.9-12.2,13.3c-0.9,0.1-1.8,0.2-2.7,0.3c3.3-4.2,6.3-8.5,9.1-13.1
			C43.5,555.5,45.4,555.4,47.3,555.2z"/>
		<path fill="#FFFFFF" d="M74,549.5c-3.1,4.2-6.6,8.1-10.3,11.8c-1.5,0.6-3.1,1.1-4.6,1.6l11.2-12.3C71.5,550.2,72.8,549.9,74,549.5
			z"/>
		<path fill="#FFFFFF" d="M38.3,555.8c-2.9,4.6-6,9-9.4,13.2c-1.2,0.1-2.4,0.2-3.6,0.3c3.8-4.5,7.6-8.9,11.5-13.4
			C37.3,555.9,37.8,555.9,38.3,555.8z"/>
		<path fill="#FFFFFF" d="M33.5,556c-3.8,4.5-7.7,9-11.5,13.5c-2.4,0.1-4.7,0.1-7.1,0c4-4.2,7.6-8.8,10.8-13.6
			C28.3,556,30.9,556,33.5,556z"/>
		<path fill="#FFFFFF" d="M-122.7,373.8c0.2,0,0.3,0,0.5,0c-0.2,0.3-0.4,0.7-0.6,1C-122.8,374.5-122.7,374.2-122.7,373.8z"/>
		<path fill="#FFFFFF" d="M80.2,547.3c-2.4,3.1-4.6,6.4-6.7,9.7c-1.4,0.7-2.8,1.3-4.1,1.9c3.2-3.4,6.2-7,8.9-10.9
			C78.9,547.8,79.5,547.6,80.2,547.3z"/>
		<path fill="#FFFFFF" d="M-120.6,390.9c-0.1,0.1-0.2,0.1-0.3,0.2c-3,4.9-5.9,9.7-8.9,14.6c0.1-2.4,0.2-4.9,0.3-7.3
			c3.2-4.1,6.1-8.4,8.8-12.8C-120.6,387.3-120.6,389.1-120.6,390.9z"/>
		<path fill="#FFFFFF" d="M22.6,555.7c-3.3,4.9-6.9,9.4-11,13.6c-1.4-0.1-2.7-0.2-4.1-0.3c4-4.4,7.9-8.9,11.5-13.7
			C20.3,555.6,21.4,555.6,22.6,555.7z"/>
		<path fill="#FFFFFF" d="M-127.8,381.9c0.7-1.2,1.4-2.4,2.1-3.6c0.2,0.1,0.4,0.2,0.7,0.2c-1,1.5-1.9,3-2.9,4.4
			C-127.9,382.5-127.9,382.2-127.8,381.9z"/>
		<path fill="#FFFFFF" d="M84.7,546.5c0.5-0.4,0.8-0.8,0.9-1.3c0.4-0.2,0.9-0.3,1.3-0.5c-1.9,1.9-3.9,3.9-5.8,5.8
			c0.9-1.3,1.8-2.5,2.8-3.7C84.2,546.8,84.5,546.7,84.7,546.5z"/>
		<path fill="#FFCC2B" d="M-55.2,517.8c-19.3-16-34.8-37-43.7-61.2c-11.6-31.6-13-69.5-6-102.4c6.7-31.3,26.7-54.7,54.1-68
			c27.8-13.4,59-14.5,89.2-13.4c-3.9,0.1-7.9,0.4-11.8,0.9c-6.9,0.9-2,5.7,2.7,5.1c32.3-4,65,7.4,89.9,29.1
			c24.8,21.7,40,53.3,43.6,87c6.4,59.1-24.2,115.7-74.6,142.1C41.1,561.8-14.5,551.6-55.2,517.8z"/>
		<path fill="#FFFFFF" d="M-113.1,343c0.3-0.5,0.6-1.1,0.9-1.6c0.3-0.3,0.5-0.6,0.8-1c-0.1,0.3-0.2,0.5-0.3,0.8
			C-112.2,341.8-112.7,342.4-113.1,343z"/>
		<path fill="#FFFFFF" d="M-119.6,376.1c-2.9,4.4-6,8.8-9.1,13.1c0-0.3,0.1-0.6,0.1-1c3.2-4.3,6.2-8.8,9-13.5
			C-119.6,375.2-119.6,375.6-119.6,376.1L-119.6,376.1z"/>
		<path fill="#FFFFFF" d="M-99.3,478.6c1.2,2.2,2.6,4.3,3.9,6.4c-3.7,4.6-7.2,9.5-10.4,14.5c-2.2-3.5-4.3-7.1-6.3-10.8
			c2.9-6.1,5.7-12.3,8.3-18.5C-102.3,473.1-100.8,475.9-99.3,478.6z"/>
		<path fill="#FFFFFF" d="M-105.2,466.8c-2.7,6.3-5.4,12.6-8.4,18.8c-1.8-3.7-3.4-7.4-4.9-11.2c2.8-7.3,4-15.2,7.8-22
			C-109.1,457.3-107.3,462.1-105.2,466.8z"/>
		<path fill="#FFFFFF" d="M-115.5,433.5c-0.2,0.1-0.3,0.2-0.4,0.3c-2.2,4.1-4.4,8.1-6.6,12.2c-0.9,1.7-1.9,3.5-2.8,5.2
			c0,0.1-0.1,0.1-0.1,0.2c-0.8-3.4-1.4-6.8-2-10.3c3.9-5.9,7.3-12.1,10-18.6C-116.9,426.2-116.3,429.9-115.5,433.5z"/>
		<path fill="#FFFFFF" d="M-4.6,567c2.6-4.8,5.7-9.3,9-13.6c3.9,0.8,7.8,1.4,11.7,1.8c-3.6,4.7-7.5,9.3-11.5,13.7
			c-3.3-0.3-6.7-0.8-10-1.4C-5,567.3-4.7,567.2-4.6,567z"/>
		<path fill="#FFFFFF" d="M-118.9,403c-0.2,0.1-0.4,0.2-0.5,0.4c-3.5,6-6.8,12.1-10,18.2c-0.2-3.5-0.3-7.1-0.3-10.6
			c3.6-5.9,7.2-11.8,10.7-17.7C-119.1,396.5-119.1,399.7-118.9,403z"/>
		<path fill="#FFFFFF" d="M-118.1,416.4c-2.6,7.3-5.9,14.1-9.9,20.7c-0.5-3.4-0.8-6.9-1.1-10.3c3.3-6.5,6.8-12.9,10.4-19.2
			C-118.6,410.5-118.3,413.5-118.1,416.4z"/>
		<path fill="#FFFFFF" d="M-114.7,437.4c0.9,3.9,1.8,7.8,3,11.7c-4.5,6.3-6,13.9-8.3,21.2c-1.6-4.6-3.1-9.4-4.3-14.3
			c1.5-2.5,2.6-5.7,3.8-7.8C-118.6,444.6-116.7,441-114.7,437.4z"/>
		<path fill="#FFFFFF" d="M-46.6,533.1c1.3,0.8,2.7,1.7,4.1,2.5c2.6,1.5,5.3,3,8,4.3c-0.5,0-1,0.1-1.2,0.4
			c-3.5,4.3-6.9,8.8-10.1,13.4c-3.7-1.9-7.3-3.9-10.8-6.1c0.6,0,1.2-0.1,1.4-0.5C-52.4,542.5-49.5,537.8-46.6,533.1z"/>
		<path fill="#FFFFFF" d="M-22.5,545.4c-2.6,4.8-5,10.5-8.5,14.9c-4.2-1.6-8.4-3.4-12.5-5.4c3.3-4.9,6.8-9.6,10.6-14.2
			C-29.5,542.4-26.1,544-22.5,545.4z"/>
		<path fill="#FFFFFF" d="M-85.4,498.9c-3.2,5.1-6.4,10.3-9.6,15.4c-3.2-3.9-6.3-8-9.1-12.3c3.1-5.1,6.6-10,10.2-14.7
			C-91.2,491.3-88.4,495.2-85.4,498.9z"/>
		<path fill="#FFFFFF" d="M-61.3,522.7c-0.2,0.1-0.3,0.2-0.3,0.3c-2.4,5.3-5.3,10.5-8.4,15.4c-1.1-0.9-2.2-1.7-3.3-2.6
			c-2.7-2.2-5.3-4.5-7.9-6.9c3.2-5.2,6.2-10.5,8.8-15.9C-68.9,516.4-65.2,519.6-61.3,522.7z"/>
		<path fill="#FFFFFF" d="M-48.9,531.6c-3.1,5-6.2,10.1-9.3,15.1c-3.3-2.1-6.6-4.4-9.8-6.7c3.3-5,6.2-10.3,8.7-15.7
			C-55.9,526.9-52.4,529.3-48.9,531.6z"/>
		<path fill="#FFFFFF" d="M-73.9,511.5c-0.5,0-1,0.2-1.2,0.5c-2.5,5.1-5.2,10.1-8.2,15c-3.5-3.4-6.8-6.9-9.9-10.6
			c3.1-5.2,6.3-10.3,9.6-15.4C-80.5,504.7-77.3,508.2-73.9,511.5z"/>
		<path fill="#FFFFFF" d="M-10.5,549.6c-0.8,0.9-1.4,2-2.1,3.2l-6.3,10.8c-0.5,0.9,2.4,1.3,2.9,0.4l4.5-7.7c0.8-1.4,1.9-4.3,3.5-5.9
			c3.2,0.9,6.4,1.7,9.7,2.4c-3.4,4.4-6.4,8.9-9.1,13.8c-0.1,0.2-0.1,0.3,0,0.4c-7.2-1.4-14.2-3.3-21.1-5.8c3.6-4.4,6-9.9,8.6-14.8
			C-16.8,547.6-13.7,548.7-10.5,549.6z"/>
		<path fill="#FFFFFF" d="M-129.4,398.4c3.2-4.1,6.1-8.4,8.8-12.8c0,1.8,0,3.6,0,5.3c-0.1,0.1-0.2,0.1-0.3,0.2
			c-3,4.9-5.9,9.7-8.9,14.6C-129.7,403.3-129.6,400.8-129.4,398.4z"/>
		<path fill="#FFFFFF" d="M-125,378.5c-1,1.5-1.9,3-2.9,4.4c0-0.3,0.1-0.7,0.1-1c0.7-1.2,1.4-2.4,2.1-3.6
			C-125.5,378.3-125.3,378.4-125,378.5z"/>
		<path fill="#FFFFFF" d="M-122.2,373.8c-0.2,0.3-0.4,0.7-0.6,1c0-0.4,0.1-0.7,0.1-1.1C-122.5,373.8-122.3,373.8-122.2,373.8z"/>
		<path fill="#FFFFFF" d="M-119.6,374.7c0,0.4,0,0.9,0,1.3l0,0c-2.9,4.4-6,8.8-9.1,13.1c0-0.3,0.1-0.6,0.1-1
			C-125.4,383.9-122.4,379.4-119.6,374.7z"/>
		<path fill="#FFFFFF" d="M-111.5,340.4c-0.1,0.3-0.2,0.5-0.3,0.8c-0.5,0.6-0.9,1.2-1.4,1.8c0.3-0.5,0.6-1.1,0.9-1.6
			C-112,341-111.7,340.7-111.5,340.4z"/>
		<path fill="#FFCC2B" d="M88.2,537C41,561.7-14.6,551.6-55.3,517.8c-19.3-16-34.8-37-43.7-61.2c-11.6-31.6-13-69.5-6-102.4
			c6.7-31.3,26.7-54.7,54.1-68c27.9-13.4,59.1-14.5,89.3-13.4c-3.9,0.1-7.9,0.4-11.8,0.9c-6.9,0.9-2,5.7,2.7,5.1
			c32.3-4,65,7.4,89.9,29.1c24.8,21.7,40,53.3,43.6,87C169.2,454,138.6,510.6,88.2,537z"/>
		<path fill="#FFFFFF" d="M81,550.5c0.9-1.3,1.8-2.5,2.8-3.7c0.3,0,0.7-0.1,0.8-0.3c0.5-0.4,0.8-0.8,0.9-1.3
			c0.4-0.2,0.9-0.3,1.3-0.5C84.9,546.6,83,548.6,81,550.5z"/>
		<path fill="#FFFFFF" d="M69.4,558.9c3.2-3.4,6.2-7,8.9-10.9c0.7-0.2,1.3-0.5,2-0.7c-2.4,3.1-4.6,6.4-6.7,9.7
			C72.1,557.7,70.7,558.3,69.4,558.9z"/>
		<path fill="#FFFFFF" d="M59.1,562.9l11.2-12.3c1.3-0.4,2.5-0.7,3.8-1.1c-3.1,4.2-6.6,8.1-10.3,11.8
			C62.2,561.8,60.6,562.4,59.1,562.9z"/>
		<path fill="#FFFFFF" d="M53,564.8c2.4-2.2,4.7-4.4,7.1-6.6l-5.6,6.2C54,564.5,53.5,564.6,53,564.8z"/>
		<path fill="#FFFFFF" d="M46.4,566.4c4.1-4.3,8.1-8.7,12.2-13c1.5-0.3,3-0.6,4.5-0.9c-5,4.4-9.9,8.9-14.7,13.5
			C47.7,566.2,47,566.3,46.4,566.4z"/>
		<path fill="#FFFFFF" d="M38.8,567.9c4-4.4,8.1-8.8,12.1-13.2c1.2-0.2,2.4-0.4,3.7-0.6c-4.1,4.4-8.2,8.8-12.3,13.1
			C41.2,567.5,40,567.7,38.8,567.9z"/>
		<path fill="#FFFFFF" d="M32.4,568.7c3.3-4.2,6.3-8.5,9.1-13.1c1.9-0.1,3.8-0.3,5.7-0.5c-4.1,4.4-8.1,8.9-12.2,13.3
			C34.2,568.6,33.3,568.7,32.4,568.7z"/>
		<path fill="#FFFFFF" d="M25.3,569.3c3.8-4.5,7.6-8.9,11.5-13.4c0.5,0,1-0.1,1.6-0.1c-2.9,4.6-6,9-9.4,13.2
			C27.7,569.2,26.5,569.3,25.3,569.3z"/>
		<path fill="#FFFFFF" d="M14.8,569.5c4-4.2,7.6-8.8,10.8-13.6c2.6,0.1,5.2,0.2,7.8,0.1c-3.8,4.5-7.7,9-11.5,13.5
			C19.6,569.6,17.2,569.6,14.8,569.5z"/>
		<path fill="#FFFFFF" d="M7.6,569.1c4-4.4,7.9-8.9,11.5-13.7c1.2,0.1,2.4,0.2,3.5,0.3c-3.3,4.9-6.9,9.4-11,13.6
			C10.3,569.3,8.9,569.2,7.6,569.1z"/>
		<path fill="#FFFFFF" d="M-5.4,567.4c0.4-0.1,0.7-0.2,0.8-0.5c2.6-4.8,5.7-9.3,9-13.6c3.9,0.8,7.8,1.4,11.7,1.8
			c-3.6,4.7-7.5,9.3-11.5,13.7C1.2,568.5-2.1,568-5.4,567.4z"/>
		<path fill="#FFFFFF" d="M-28.6,561.2c3.6-4.4,6-9.9,8.6-14.8c3.1,1.2,6.3,2.3,9.5,3.3c-0.8,0.9-1.4,2-2.1,3.2l-6.3,10.8
			c-0.5,0.9,2.4,1.3,2.9,0.4l4.5-7.7c0.8-1.4,1.9-4.3,3.5-5.9c3.2,0.9,6.4,1.7,9.7,2.4c-3.4,4.4-6.4,8.9-9.1,13.8
			c-0.1,0.2-0.1,0.3,0,0.4C-14.6,565.6-21.7,563.7-28.6,561.2z"/>
		<path fill="#FFFFFF" d="M-43.6,554.9c3.3-4.9,6.8-9.6,10.6-14.2c3.4,1.7,6.9,3.3,10.4,4.7c-2.6,4.8-5,10.5-8.5,14.9
			C-35.3,558.7-39.5,556.9-43.6,554.9z"/>
		<path fill="#FFFFFF" d="M-56.7,547.7c0.6,0,1.2-0.1,1.4-0.5c2.9-4.7,5.7-9.4,8.6-14.1c1.3,0.8,2.7,1.7,4.1,2.5
			c2.6,1.5,5.3,3,8,4.3c-0.5,0-1,0.1-1.2,0.4c-3.5,4.3-6.9,8.8-10.1,13.4C-49.6,551.9-53.2,549.8-56.7,547.7z"/>
		<path fill="#FFFFFF" d="M-67.9,540c3.3-5,6.2-10.3,8.7-15.7c3.4,2.6,6.8,5,10.3,7.3c-3.1,5-6.2,10.1-9.3,15.1
			C-61.5,544.6-64.7,542.4-67.9,540z"/>
		<path fill="#FFFFFF" d="M-81.3,528.9c3.2-5.2,6.2-10.5,8.8-15.9c3.6,3.4,7.3,6.7,11.1,9.7c-0.2,0.1-0.3,0.2-0.3,0.3
			c-2.4,5.3-5.3,10.5-8.4,15.4c-1.1-0.9-2.2-1.7-3.3-2.6C-76.1,533.6-78.7,531.3-81.3,528.9z"/>
		<path fill="#FFFFFF" d="M-93.2,516.4c3.1-5.2,6.3-10.3,9.6-15.4c3.1,3.6,6.3,7.1,9.7,10.5c-0.5,0-1,0.2-1.2,0.5
			c-2.5,5.1-5.2,10.1-8.2,15C-86.7,523.7-90,520.1-93.2,516.4z"/>
		<path fill="#FFFFFF" d="M-104.1,502c3.1-5.1,6.6-10,10.2-14.7c2.7,4,5.5,7.9,8.5,11.6c-3.2,5.1-6.4,10.3-9.6,15.4
			C-98.2,510.4-101.3,506.3-104.1,502z"/>
		<path fill="#FFFFFF" d="M-112,488.8c2.9-6.1,5.7-12.3,8.3-18.5c1.4,2.8,2.8,5.6,4.4,8.4c1.2,2.2,2.6,4.3,3.9,6.4
			c-3.7,4.6-7.2,9.5-10.4,14.5C-108,496.1-110.1,492.5-112,488.8z"/>
		<path fill="#FFFFFF" d="M-118.5,474.4c2.8-7.3,4-15.2,7.8-22c1.6,4.9,3.4,9.7,5.5,14.4c-2.7,6.3-5.4,12.6-8.4,18.8
			C-115.4,482-117,478.2-118.5,474.4z"/>
		<path fill="#FFFFFF" d="M-124.4,456c1.5-2.5,2.6-5.7,3.8-7.8c1.9-3.6,3.9-7.1,5.8-10.7c0.9,3.9,1.8,7.8,3,11.7
			c-4.5,6.3-6,13.9-8.3,21.2C-121.7,465.6-123.1,460.8-124.4,456z"/>
		<path fill="#FFFFFF" d="M-127.4,441.1c3.9-5.9,7.3-12.1,10-18.6c0.5,3.7,1.1,7.4,1.8,11.1c-0.2,0.1-0.3,0.2-0.4,0.3
			c-2.2,4.1-4.4,8.1-6.6,12.2c-0.9,1.7-1.9,3.5-2.8,5.2c0,0.1-0.1,0.1-0.1,0.2C-126.2,448-126.8,444.6-127.4,441.1z"/>
		<path fill="#FFFFFF" d="M-129.1,426.8c3.3-6.5,6.8-12.9,10.4-19.2c0.2,3,0.4,5.9,0.7,8.9c-2.6,7.3-5.9,14.1-9.9,20.7
			C-128.4,433.7-128.8,430.2-129.1,426.8z"/>
		<path fill="#FFFFFF" d="M-129.8,410.9c3.6-5.9,7.2-11.8,10.7-17.7c0,3.2,0,6.4,0.1,9.7c-0.2,0.1-0.4,0.2-0.5,0.4
			c-3.5,6-6.8,12.1-10,18.2C-129.7,418-129.8,414.5-129.8,410.9z"/>
	</g>
	<path d="M-139.1,390c-3,36.1,1.6,73.9,19.9,105.4C-105,520-84,540-59.9,553.8c30.2,17.4,64.5,24.1,97.5,19.7
		c0.7,0.3,1.9,0.3,2.3-0.1c0.1-0.1,0.2-0.2,0.2-0.2c21.6-3.3,42.6-11.3,61.5-24.4c23.4-16.2,41.2-38.5,52.1-63.8
		c20.5-35.3,26.4-79,13.2-120.2c-17-53.2-64.9-88.5-116.7-91.9c3.8-0.9,3-4.9-2.2-5.1c-38.6-1.9-79.4-1.3-114,18.8
		c-4.6,2.7-9.1,5.7-13.3,9c-1.8,0.9-3.5,1.8-5.3,2.8c-14.7,8.5-27.9,19.7-37.3,34.1C-133,349.5-137.4,369.9-139.1,390 M-129.6,405.6
		c0.1-2.4,0.2-4.9,0.3-7.3c3.2-4.1,6.1-8.4,8.8-12.8c0,1.8,0,3.6,0,5.3c-0.1,0.1-0.2,0.1-0.3,0.2
		C-123.7,395.9-126.7,400.7-129.6,405.6 M-125.6,378.1c0.2,0.1,0.4,0.2,0.7,0.2c-1,1.5-1.9,3-2.9,4.4c0-0.3,0.1-0.7,0.1-1
		C-127,380.5-126.3,379.3-125.6,378.1 M-122.6,373.7c0.2,0,0.3,0,0.5,0c-0.2,0.3-0.4,0.7-0.6,1C-122.6,374.4-122.6,374-122.6,373.7
		 M-128.5,388.1c3.2-4.3,6.2-8.8,9-13.5c0,0.4,0,0.9,0,1.3l0,0c-2.9,4.4-6,8.8-9.1,13.1C-128.6,388.7-128.5,388.4-128.5,388.1
		 M-112.1,341.2c0.3-0.3,0.5-0.6,0.8-1c-0.1,0.3-0.2,0.5-0.3,0.8c-0.5,0.6-0.9,1.2-1.4,1.8C-112.7,342.3-112.4,341.8-112.1,341.2
		 M162.9,394.8c6.4,59.1-24.2,115.7-74.6,142.1c-47.2,24.7-102.8,14.6-143.5-19.2c-19.3-16-34.8-37-43.8-61.2
		c-11.6-31.6-13-69.5-6-102.4c6.7-31.3,26.7-54.7,54.1-68c27.9-13.5,59.1-14.6,89.3-13.5c-3.9,0.1-7.9,0.4-11.8,0.9
		c-6.9,0.9-2,5.7,2.7,5.1c32.3-4,65,7.4,89.9,29.1C144.1,329.5,159.3,361.1,162.9,394.8 M87,544.5c-1.9,1.9-3.9,3.9-5.8,5.8
		c0.9-1.3,1.8-2.5,2.8-3.7c0.3,0,0.7-0.1,0.8-0.3c0.5-0.4,0.8-0.8,0.9-1.3C86.1,544.9,86.5,544.7,87,544.5 M73.6,556.9
		c-1.4,0.7-2.8,1.3-4.1,1.9c3.2-3.4,6.2-7,8.9-10.9c0.7-0.2,1.3-0.5,2-0.7C77.9,550.3,75.7,553.6,73.6,556.9 M63.8,561.1
		c-1.5,0.6-3.1,1.1-4.6,1.6l11.2-12.3c1.3-0.4,2.5-0.7,3.8-1.1C71,553.5,67.6,557.5,63.8,561.1 M54.6,564.2c-0.5,0.2-1,0.3-1.5,0.4
		c2.4-2.2,4.7-4.4,7.1-6.6L54.6,564.2 M48.4,565.9c-0.6,0.2-1.3,0.3-1.9,0.4c4.1-4.3,8.1-8.7,12.2-13c1.5-0.3,3-0.6,4.5-0.9
		C58.2,556.8,53.2,561.3,48.4,565.9 M42.4,567.1c-1.2,0.2-2.3,0.4-3.5,0.6c4-4.4,8.1-8.8,12.1-13.2c1.2-0.2,2.4-0.4,3.7-0.6
		C50.6,558.4,46.5,562.8,42.4,567.1 M35.2,568.3c-0.9,0.1-1.8,0.2-2.7,0.3c3.3-4.2,6.3-8.5,9.1-13.1c1.9-0.1,3.8-0.3,5.7-0.5
		C43.3,559.5,39.2,563.9,35.2,568.3 M29,568.9c-1.2,0.1-2.4,0.2-3.6,0.3c3.8-4.5,7.6-8.9,11.5-13.4c0.5,0,1-0.1,1.6-0.1
		C35.5,560.3,32.4,564.7,29,568.9 M22.1,569.3c-2.4,0.1-4.7,0.1-7.1,0c4-4.2,7.6-8.8,10.8-13.6c2.6,0.1,5.2,0.2,7.8,0.1
		C29.7,560.4,25.9,564.9,22.1,569.3 M11.8,569.2c-1.4-0.1-2.7-0.2-4.1-0.3c4-4.4,7.9-8.9,11.5-13.7c1.2,0.1,2.4,0.2,3.5,0.3
		C19.5,560.4,15.8,565,11.8,569.2 M4.7,568.7c-3.3-0.3-6.7-0.8-10-1.4c0.4-0.1,0.7-0.2,0.8-0.5c2.6-4.8,5.6-9.3,9-13.6
		c3.9,0.8,7.8,1.4,11.7,1.8C12.6,559.7,8.8,564.3,4.7,568.7 M-7.4,566.9c-7.2-1.4-14.2-3.3-21.1-5.8c3.6-4.4,6-9.9,8.6-14.8
		c3.1,1.2,6.3,2.3,9.5,3.3c-0.8,0.9-1.4,2-2.1,3.2l-6.3,10.8c-0.5,0.9,2.4,1.3,2.9,0.4l4.5-7.7c0.8-1.4,1.9-4.3,3.5-5.9
		c3.2,0.9,6.4,1.7,9.7,2.4c-3.4,4.4-6.4,8.9-9.1,13.8C-7.5,566.6-7.5,566.8-7.4,566.9 M-31,560.2c-4.2-1.6-8.4-3.4-12.5-5.4
		c3.3-4.9,6.8-9.6,10.6-14.2c3.4,1.7,6.9,3.3,10.4,4.7C-25.1,550.1-27.4,555.7-31,560.2 M-45.8,553.6c-3.7-1.9-7.3-3.9-10.8-6.1
		c0.6,0,1.2-0.1,1.4-0.5c2.9-4.7,5.7-9.4,8.6-14.1c1.3,0.8,2.7,1.7,4.1,2.5c2.6,1.5,5.3,3,8,4.3c-0.5,0-1,0.1-1.2,0.4
		C-39.3,544.5-42.6,549-45.8,553.6 M-58,546.6c-3.3-2.1-6.6-4.4-9.8-6.7c3.3-5,6.2-10.3,8.7-15.7c3.4,2.6,6.8,5,10.3,7.3
		C-51.9,536.5-54.9,541.6-58,546.6 M-73.3,535.7c-2.7-2.2-5.3-4.5-7.9-6.9c3.2-5.2,6.2-10.5,8.8-15.9c3.6,3.4,7.3,6.7,11.1,9.7
		c-0.2,0.1-0.3,0.2-0.3,0.3c-2.4,5.3-5.3,10.5-8.4,15.4C-71.1,537.4-72.2,536.6-73.3,535.7 M-83.1,526.9c-3.5-3.4-6.8-6.9-9.9-10.6
		c3.1-5.2,6.3-10.3,9.6-15.4c3.1,3.6,6.3,7.1,9.7,10.5c-0.5,0-1,0.2-1.2,0.5C-77.4,517-80.2,522-83.1,526.9 M-94.9,514.2
		c-3.2-3.9-6.3-8-9.1-12.3c3.1-5.1,6.6-10,10.2-14.7c2.7,4,5.5,7.9,8.5,11.6C-88.5,503.9-91.7,509-94.9,514.2 M-105.6,499.4
		c-2.2-3.5-4.3-7.1-6.3-10.8c2.9-6.1,5.7-12.3,8.3-18.5c1.4,2.8,2.8,5.6,4.4,8.4c1.2,2.2,2.6,4.3,3.9,6.4
		C-99,489.6-102.4,494.4-105.6,499.4 M-113.5,485.5c-1.8-3.7-3.4-7.4-4.9-11.2c2.8-7.3,4-15.2,7.8-22c1.6,4.9,3.4,9.7,5.5,14.4
		C-107.8,473-110.6,479.3-113.5,485.5 M-120,470.1c-1.6-4.6-3.1-9.4-4.3-14.3c1.5-2.5,2.6-5.7,3.8-7.8c1.9-3.6,3.9-7.1,5.8-10.7
		c0.9,3.9,1.8,7.8,3,11.7C-116.1,455.2-117.6,462.8-120,470.1 M-125.3,451.3c-0.8-3.4-1.4-6.8-2-10.3c3.9-5.9,7.3-12.1,10-18.6
		c0.5,3.7,1.1,7.4,1.8,11.1c-0.2,0.1-0.3,0.2-0.4,0.3c-2.2,4.1-4.4,8.1-6.6,12.2c-0.9,1.7-1.9,3.5-2.8,5.2
		C-125.3,451.1-125.3,451.2-125.3,451.3 M-127.9,437c-0.5-3.4-0.8-6.9-1.1-10.3c3.3-6.5,6.8-12.9,10.4-19.2c0.2,3,0.4,5.9,0.7,8.9
		C-120.5,423.6-123.9,430.5-127.9,437 M-129.4,421.4c-0.2-3.5-0.3-7.1-0.3-10.6c3.6-5.9,7.2-11.8,10.7-17.7c0,3.2,0,6.4,0.1,9.7
		c-0.2,0.1-0.4,0.2-0.5,0.4C-122.8,409.2-126.1,415.3-129.4,421.4"/>
	<path d="M163.3,462.7c-4.8,5.7-9.8,11.3-15,16.5c0.2-0.6,0.4-1.1,0.5-1.7c1-1.3,2.1-2.6,3.1-3.9c2.8-3.1,5.7-6.2,8.5-9.3
		c1-1,2.1-1.9,3.1-2.8C163.5,461.8,163.4,462.3,163.3,462.7"/>
	<path fill="#9DCB45" stroke="#9DCB45" stroke-miterlimit="10" d="M27.7,406.4c0.3-0.3,0.7-0.9,0.4-1.3
		c-8.1-9.6-16.2-19.2-24.3-28.8c-4.1-4.8-8.1-9.6-12.2-14.4c-1.9-2.3-3.8-4.5-5.8-6.8c-1.3-1.6-5.2-4.7-5.3-6.8c-0.1-2,4-5.5,5.4-7
		c1.8-2.1,3.7-4.2,5.5-6.3c3.6-4.1,7.1-8.3,10.5-12.5c6.2-7.5,12.1-15.2,17.9-23c8.3,9.7,15.8,20.2,22.3,31.2
		c0.7,1.2,3.4,1.4,5.2,0.9c12.1,13.5,26.9,24.2,39.8,36.9c4,3.9,7.8,8,11.2,12.4c2.4,3.1,7.5,8.6,7.4,12.8c0,0.5-0.1,1.1-0.2,1.7
		c-0.1,0.2-0.2,0.3-0.2,0.5c0,0.1,0,0.3-0.1,0.4c-1.5,4.4-6.2,9.3-8.6,12.3c-3.7,4.6-7.8,9-11.9,13.2c-7.3,7.6-14.9,15-21.4,23.2
		c-7.8,9.8-14.5,20.3-23.2,29.3c-0.5,0.5-1,1-1.5,1.6c-0.4,0.1-0.8,0.3-0.9,0.7c0,0.1,0,0.2-0.1,0.3c-3.3,3.3-6.8,6.6-10.3,9.8
		c-2.9,2.7-3.8,4.4-7.5,2.4c-2.5-1.3-4.9-3.4-7.2-5.1c-4.8-3.5-9.4-7.2-13.8-11.1c-3.1-2.7-11.4-8.3-10.9-12.7
		c0.3-2.6,2.6-5.8,3.8-8.1c1.3-2.5,2.7-4.9,4.2-7.3c2.6-4.3,5.4-8.5,8.4-12.5C11.3,422.8,19.1,414.2,27.7,406.4z"/>
	<path d="M-30.2,469.1c-0.3,0.2-0.7,0.9-0.4,1.3c12.8,15.9,27.3,30.3,43.4,42.8c-0.1,0.1-0.2,0.3-0.3,0.4c-0.4,0.7,1.3,1.1,2.3,0.8
		c1.5,0.4,3.4,0.1,4.6-0.7c11.5-7.5,22.6-15.7,33-24.8c9.9-8.7,18.8-18.3,28.5-27.2c4.6-4.3,9.6-8,14.6-11.8
		c4.4-3.3,7.8-6.9,9.4-12.3c1.8-6.1,2.4-12.7,3.4-18.9c1.2-7.3,2.4-14.6,3.6-21.9c0.4-1.4,0.5-2.8,0.3-4.1
		c-1.2-5.5-6.7-11.4-10.3-15.6C85,357,61.5,343.4,46.1,321.9c-0.6-0.8-2.1-1.1-3.6-1c-6.1-9.2-12.9-18-20.3-26.2
		c-1.3-1.5-5.3-1.1-6.4,0.4c-12.4,17-25.7,33.4-39.7,49c-1.7,0-3.4,0.5-3.7,1.7c-1.4,7.6-3.5,16-3.4,23.8c0.1,6.3,6.1,12,9.7,16.7
		c5.7,7.6,11.8,14.9,18.1,22c-0.2,0.5-0.4,0.9-0.7,1.4c-0.4,0.8,1.7,1.2,2.6,0.7c1.9,2.1,3.8,4.2,5.8,6.3c-0.3,0.2-0.6,0.5-0.9,0.6
		c-1.5,0.8,1.3,1.5,2.1,1c0.1,0,0.1-0.1,0.2-0.1c0.4,0.5,0.9,0.9,1.3,1.4l0,0c-3.3,3.7-6.4,7.6-9.4,11.6c-4.3,5.8-8.3,12-11.9,18.3
		c-1.1,1.9-2.7,4.2-3.9,6.6c-1,0.2-1.8,0.5-2.2,1.1C-22.6,462-25.9,465.9-30.2,469.1 M7.5,411.7c-2-2.2-4.1-4.5-6.1-6.8
		c2.2-5.2,3.6-10.6,4.3-16.2c1.4,1.7,2.9,3.4,4.3,5.1l2.9,3.5c-1.3,3.2-2.6,6.4-3.8,9.5C8.7,408.2,8.2,410,7.5,411.7 M9.5,413.9
		c0.5-1.1,0.9-2.2,1.3-3.4c1.4-3.6,2.9-7.2,4.3-10.8c1.5,1.6,4.2,3.8,4.6,5.5c0.5,2-1.2,2.8-2.7,4.2c-1.4,1.4-2.8,2.7-4.2,4.2
		c-0.6,0.7-1.2,1.3-1.8,2C10.5,415,10,414.4,9.5,413.9 M-0.6,402.5c-1.9-2.2-3.8-4.5-5.6-6.7c1.6-5.6,2.8-11.3,3.6-17
		c1.9,2.3,3.8,4.6,5.8,6.8C2.7,391.4,1.4,397-0.6,402.5 M-8.5,393c-1.8-2.2-3.6-4.5-5.3-6.7c1.3-5.5,2.5-11,3.6-16.5l5,5.9
		C-5.9,381.5-7,387.3-8.5,393 M-12.7,366.8c-1,5.5-2.1,11-3.4,16.5c-1.4-1.8-2.8-3.5-4.1-5.4c1.1-5.6,2-11.1,2.8-16.7
		C-15.8,363.1-14.3,365-12.7,366.8 M-23.7,366.9c0.3-3.8,0.9-7.6,1.5-11.3c0.7,0.9,1.5,1.7,2.2,2.6c-0.7,5.3-1.5,10.5-2.4,15.8
		C-23.4,371.8-23.9,369.5-23.7,366.9 M105,396.4c0,0.1,0,0.3-0.1,0.4c-1.5,4.4-6.2,9.3-8.6,12.3c-3.7,4.6-7.8,9-11.9,13.2
		c-7.3,7.6-14.9,15-21.4,23.2c-7.8,9.8-14.5,20.3-23.2,29.3c-0.5,0.5-1,1-1.5,1.6c-0.4,0.1-0.8,0.3-0.9,0.7c0,0.1,0,0.2-0.1,0.3
		c-3.3,3.3-6.8,6.6-10.3,9.8c-2.9,2.7-3.8,4.4-7.5,2.4c-2.5-1.3-4.9-3.4-7.2-5.1c-4.8-3.5-9.4-7.2-13.8-11.1
		c-3.1-2.7-11.4-8.3-10.9-12.7c0.3-2.6,2.6-5.8,3.8-8.1c1.3-2.5,2.7-4.9,4.2-7.3c2.6-4.3,5.4-8.5,8.4-12.5
		c6.9-9.3,14.7-17.9,23.3-25.7c0.3-0.3,0.7-0.9,0.4-1.3c-8.1-9.6-16.2-19.2-24.3-28.8c-4.1-4.8-8.1-9.6-12.2-14.4
		c-1.9-2.3-3.8-4.5-5.8-6.8c-1.3-1.6-5.2-4.7-5.3-6.8c-0.1-2,4-5.5,5.4-7c1.8-2.1,3.7-4.2,5.5-6.3c3.6-4.1,7.1-8.3,10.5-12.5
		c6.2-7.5,12.1-15.2,17.9-23c8.3,9.7,15.8,20.2,22.3,31.2c0.7,1.2,3.4,1.4,5.2,0.9c12.1,13.5,26.9,24.2,39.8,36.9
		c4,3.9,7.8,8,11.2,12.4c2.4,3.1,7.5,8.6,7.4,12.8c0,0.5-0.1,1.1-0.2,1.7C105.1,396.1,105.1,396.2,105,396.4 M86.6,450.3
		c-3.7,2.8-7.3,5.7-10.7,8.9c2.2-8.1,3.9-16.4,4.9-24.8c0-0.1,0-0.2-0.1-0.3c3.6-3.8,7.2-7.4,10.8-11.2c-1.2,8.7-3.4,17.2-6.7,25.4
		c-0.4,1.1,2.5,1.3,2.9,0.4c3.5-8.9,5.9-18.1,7-27.7c0-0.4-0.3-0.6-0.8-0.7c3-3.2,6-6.5,8.8-9.9l-1.2,7.2
		c-1.1,6.7-1.5,14.2-3.8,20.7C95.7,443.8,91.1,447,86.6,450.3 M71.7,463c-3.5,3.3-6.9,6.7-10.4,10.1c0.7-2,1.1-4.1,1.6-6.3
		c1.3-5.6,2.6-11.1,4-16.7c2.5-3.3,5.2-6.6,7.9-9.7c0.8-0.9,1.6-1.7,2.4-2.6C76,446.3,74.2,454.7,71.7,463 M56.5,477.8
		c-2.4,2.3-4.9,4.6-7.4,6.9c2.3-5.2,4.1-10.6,5.2-16.3c0.1-0.3-0.3-0.6-0.8-0.7c3.1-3.9,6-7.8,9-11.8c-0.6,2.4-1.1,4.7-1.7,7.1
		c-1.1,4.5-1.5,10.3-4.7,13.8C55.8,477.3,56.1,477.6,56.5,477.8 M43.7,489.5c-4,3.4-8,6.6-12.2,9.7c3.1-4.8,5.4-9.9,7.1-15.2
		c2.3-2.2,4.5-4.5,6.6-6.7c1.9-2,3.7-4,5.4-6C49.2,477.6,46.9,483.7,43.7,489.5 M31,499.7c-3.9,3-7.9,5.8-12,8.6
		c2.5-4.4,4.8-9,6.9-13.6c0.9-0.4,1.9-0.9,2.8-1.6c1.8-1.4,3.6-3,5.4-4.6c-1.5,3.6-3.3,7.2-5.5,10.5C28.2,499.7,30,500,31,499.7
		 M15.6,508.8c-2.5-2.1-5.1-4.2-7.5-6.3c0.6,0,1.3-0.1,1.5-0.5c2-3.2,3.5-6.6,4.7-10.2c0.5,0.3,1,0.7,1.6,1.1
		c2.2,1.4,4.5,2.3,6.7,2.4C20.4,499.9,18.1,504.4,15.6,508.8 M6.8,501.4c-1.9-1.7-3.9-3.5-5.8-5.2c0,0,0,0,0-0.1
		c1.5-3.4,3.2-6.8,4.9-10.1c1.9,1.4,3.9,2.8,5.8,4.2C10.6,494.1,8.9,497.8,6.8,501.4 M-1.1,494.1c-2-1.9-4-3.9-5.9-5.8
		c1.3-3.2,2.6-6.4,3.8-9.6c0.2,0.1,0.3,0.3,0.5,0.4c2.1,1.7,4.2,3.4,6.4,5.1C2,487.5,0.4,490.8-1.1,494.1 M-9.2,486.1
		c-2-2.1-3.9-4.2-5.8-6.3c1.6-2.4,2.9-4.9,4-7.5c1.8,1.6,3.7,3.1,5.5,4.6C-6.7,480-8,483-9.2,486.1 M-22.7,470.8
		c-0.3-1.9,3.4-4.2,4.7-5.7c0,0,0,0,0-0.1c1.3,1.8,2.9,3.5,4.7,5.2c-1,2.6-2.2,5.1-3.6,7.5c-0.8-0.9-1.7-1.9-2.5-2.8
		C-19.9,474.2-22.6,471.7-22.7,470.8"/>
</g>
</svg>
