<?xml version="1.0" encoding="utf-8"?>
<!-- Generator: Adobe Illustrator 19.0.0, SVG Export Plug-In . SVG Version: 6.00 Build 0)  -->
<svg version="1.2" baseProfile="tiny" id="Layer_1" xmlns="http://www.w3.org/2000/svg" xmlns:xlink="http://www.w3.org/1999/xlink"
	 x="0px" y="0px" viewBox="0 0 301.2 220.9" xml:space="preserve">
<g id="XMLID_3_">
	<path id="XMLID_1_" fill="#9EC94F" stroke="#9EC94F" stroke-miterlimit="10" d="M6.2,102.7c0.5,0.4,0.9,0.7,1.3,1
		c23.9,18.8,47.8,37.5,71.7,56.3c7.3,5.7,14.5,11.6,21.7,17.4c1.1,0.9,2.3,0.7,3-0.6c0.8-1.4,1.5-2.9,2.3-4.3
		c5.9-10,11.8-20,17.7-30c1.1-1.9,2.4-3.8,3.6-5.7c1.1-1.9,1-2.9-0.6-4.5c-1-0.9-2.1-1.8-3.1-2.7c-12.8-12-26.1-23.5-39.8-34.4
		c-1.4-1.1-1.4-1.3-0.5-2.9c10.2-17.5,21.2-34.4,33.1-50.8c0.6-0.9,0.6-1.4-0.1-2.2c-7.1-8.4-14.2-16.9-21.4-25.3
		C92.4,11,89.7,8,86.9,4.8C56.8,34.9,30,67.6,6.2,102.7"/>
	<path id="XMLID_2_" fill="#9EC94F" stroke="#9EC94F" stroke-miterlimit="10" d="M154.2,101.5c0.5,0.4,0.9,0.7,1.3,1
		c23.9,18.8,47.8,37.5,71.7,56.3c7.3,5.7,14.5,11.6,21.7,17.4c1.1,0.9,2.3,0.7,3-0.6c0.8-1.4,1.5-2.9,2.3-4.3
		c5.9-10,11.8-20,17.7-30c1.1-1.9,2.4-3.8,3.6-5.7c1.1-1.9,1-2.9-0.6-4.5c-1-0.9-2.1-1.8-3.1-2.7c-12.8-12-26.1-23.5-39.8-34.4
		c-1.4-1.1-1.4-1.3-0.5-2.9c10.2-17.5,21.2-34.4,33.1-50.8c0.6-0.9,0.6-1.4-0.1-2.2c-7.1-8.4-14.2-16.9-21.4-25.3
		c-2.6-3.1-5.4-6.1-8.1-9.3C204.9,33.7,178.1,66.4,154.2,101.5"/>
	<path id="XMLID_44_" d="M236.2,0c1.7,0.2,2.6,1.4,3.6,2.6c10,11.7,20,23.5,30,35.2c0.2,0.2,0.4,0.6,0.6,0.7c1.6,0.4,1.7,1.8,2.1,3
		c4.3,15.1,9.8,29.6,17,43.6c0.7,1.3,0.5,2.3-0.8,2.3c-3,0.1-4.3,2.4-6,4.2c-6.8,7-13.1,14.4-19,22.2c-0.2,0.3-0.5,0.6-0.9,0.9
		c2.3,2.1,4.6,4.1,6.8,6.2c3.3,3.1,6.6,6.2,9.9,9.2c0.3,0.3,0.9,0.5,1.3,0.4c2.1-0.2,2.9,0.2,4,2.1c6.1,11.1,11.5,22.5,16.2,34.2
		c0.7,1.7,0.5,2.1-1.2,2.8c-0.4,0.2-0.7,0.5-0.9,0.8c-10.4,15.3-20.7,30.6-31.1,45.8c-0.5,0.8-0.9,1.7-1.4,2.5
		c-0.3,0.4-0.7,0.7-1.2,0.9c-1,0.4-2.1,0.7-3.2,0.9c-1.1,0.2-2.2,0.1-3.3-0.5c-29.9-17.2-59-35.7-87.1-55.7
		c-1.9-1.4-3.8-2.9-5.5-4.6c-3.2-3-4.6-7-5.7-11.1c-3.4-12.4-6.7-24.8-10.1-37.2c-0.6-2.1-1.1-4.2-1.7-6.4c-0.4-1.5-0.3-2.9,0.7-4.3
		c15.7-23.1,32.7-45.2,51.1-66.3c10.1-11.6,20.7-22.8,31.6-33.6c0.6-0.5,1.5-0.7,2.3-1c0.6-0.2,1.2-0.2,1.8-0.3H236.2z M154.2,102.5
		c0.5,0.4,0.9,0.7,1.3,1c23.9,18.8,47.8,37.5,71.7,56.3c7.3,5.7,14.5,11.6,21.7,17.4c1.1,0.9,2.3,0.7,3-0.6c0.8-1.4,1.5-2.9,2.3-4.3
		c5.9-10,11.8-20,17.7-30c1.1-1.9,2.4-3.8,3.6-5.7c1.1-1.9,1-2.9-0.6-4.5c-1-0.9-2.1-1.8-3.1-2.7c-12.8-12-26.1-23.5-39.8-34.4
		c-1.4-1.1-1.4-1.3-0.5-2.9c10.2-17.5,21.2-34.4,33.1-50.8c0.6-0.9,0.6-1.4-0.1-2.2c-7.1-8.4-14.2-16.9-21.4-25.3
		c-2.6-3.1-5.4-6.1-8.1-9.3C204.9,34.7,178.1,67.3,154.2,102.5 M278.4,142.6c-0.2,0-0.3,0.1-0.5,0.1c-1.2,2.1-2.5,4.1-3.6,6.2
		c-0.2,0.3,0,0.8,0.2,1.2c2,4.4,4.2,8.8,6.1,13.3c2,4.7,3.8,9.6,5.6,14.4c0.1,0.3-0.2,0.8-0.3,1.2c-0.4-0.2-0.9-0.4-1.2-0.6
		c-0.2-0.1-0.2-0.4-0.3-0.7c-3-7.3-6-14.6-9-21.9c-0.7-1.6-1.5-3.1-2.3-4.8c-1.5,2.5-2.8,4.8-4.2,7.1c-0.4,0.6-0.4,1.1-0.1,1.8
		c2.8,6.7,5.5,13.4,8.3,20.2c1.2,2.8,2.3,5.6,3.5,8.5c0.2-0.2,0.3-0.2,0.4-0.3c3-4.5,6.1-9,9.1-13.5c0.2-0.3,0.2-0.8,0.1-1.2
		c-1-3.3-2-6.6-3.2-9.8C284,156.5,281.2,149.6,278.4,142.6 M283.1,84.3c-6.2-12.4-11.2-25.3-15.2-38.8c-1.9,2.7-3.6,5.2-5.3,7.6
		c-0.1,0.2-0.1,0.6,0,0.9c4.5,12,9.1,24,13.7,36c0.1,0.3,0.3,0.5,0.4,0.7C278.7,88.6,280.9,86.5,283.1,84.3 M171.8,122
		c0,0.4,0,0.6,0.1,0.8c3,15.2,7.1,30.1,12.2,44.8c0.1,0.3,0.2,0.7,0.4,0.8c2.1,1.5,4.2,2.9,6.6,4.5c-0.1-0.6-0.1-0.8-0.2-1.1
		c-4.2-14.7-8.4-29.4-12.6-44.1c-0.1-0.4-0.3-0.8-0.5-1C175.9,125.3,174,123.7,171.8,122 M270.4,97.6c1.5-1.7,2.8-3.1,4.2-4.5
		c0.6-0.6,0.6-1,0.3-1.8c-4.3-11.1-8.5-22.1-12.8-33.2c-0.4-0.9-0.7-1.8-1.1-3c-1.4,2.1-2.7,4-4,5.8c-0.5,0.7-0.5,1.2-0.3,2
		c2.7,7.4,5.2,14.9,8,22.3C266.4,89.4,268.5,93.3,270.4,97.6 M180.5,128.9c0,0.3,0,0.4,0,0.5c4.2,14.9,8.5,29.7,12.7,44.6
		c0.1,0.3,0.2,0.6,0.5,0.8c2.1,1.4,4.2,2.8,6.4,4.3c0-0.3,0-0.4-0.1-0.6c-2.2-8.5-4.4-17.1-6.8-25.6c-1.5-5.5-3.4-11-5.1-16.5
		c-0.2-0.7-0.2-1.6-0.6-2C185.4,132.6,183,130.8,180.5,128.9 M175.2,161.9c-0.1-0.3-0.1-0.5-0.1-0.6c-4.6-15.7-9.2-31.3-13.8-47
		c-0.1-0.3-0.2-0.6-0.3-0.7c-1.8-1.5-3.7-2.9-5.8-4.6c0.1,0.7,0.2,1,0.3,1.4c1.8,6.7,3.5,13.4,5.4,20.1c1.9,6.8,3.8,13.6,5.8,20.4
		C168,155.5,171,159,175.2,161.9 M255.3,63.6c-1.5,2.3-3,4.5-4.3,6.7c-0.3,0.5-0.4,1.2-0.2,1.7c3.7,10.5,8.2,20.5,13.9,30.1
		c0.2,0.4,0.5,0.8,0.8,1.2c1.2-1.4,2.2-2.6,3.3-3.8c0.5-0.5,0.5-0.9,0.2-1.6c-4.3-8.5-8-17.2-11-26.2
		C257.1,69.1,256.3,66.5,255.3,63.6 M233.4,200.4c-0.2-0.7-0.3-1-0.4-1.4c-3.7-11.1-6.7-22.3-9-33.7c-0.4-2-1.2-3.3-2.8-4.4
		c-1.5-1-2.9-2.2-4.5-3.5c1.5,7.2,3,14.2,4.4,21.1c1.1,5.5,2.3,11,5,15.9c0.1,0.3-0.1,0.8-0.2,1.3
		C228.2,197.1,230.6,198.7,233.4,200.4 M207.9,184.2c-1.3-5.7-2.4-11.1-3.6-16.4c-2-8.5-4.3-17-8.1-24.9c-0.2-0.3,0.1-0.8,0.2-1.6
		c-1.8-1.4-4-3.1-6.2-4.9c0,0.4,0,0.5,0,0.6c4.6,14.1,8.5,28.4,12,42.9c0.1,0.3,0.3,0.7,0.6,0.8C204.3,181.9,206,182.9,207.9,184.2
		 M216.4,189.7c-0.2-0.5-0.2-0.8-0.3-1.1c-1.2-4.4-2.6-8.8-3.6-13.3c-1.8-7.5-3.4-15.1-5-22.7c-0.5-2.4-1.6-4.2-3.7-5.6
		c-1.8-1.1-3.3-2.6-5-3.9c-0.3-0.2-0.5-0.4-0.9-0.6c0,0.2,0,0.3,0,0.4c3,6.2,5.1,12.8,6.8,19.5c1.7,7.2,3.3,14.5,4.9,21.7
		c0.1,0.5,0.3,1.2,0.6,1.5C212.1,187,214.2,188.3,216.4,189.7 M260.2,110c1.3-1.6,2.4-3,3.6-4.4c0.6-0.6,0.6-1.1,0.2-1.9
		c-4.7-7.8-8.7-16-12.1-24.4c-0.8-2.1-1.6-4.1-2.5-6.4c-1.3,2.1-2.4,3.9-3.6,5.7c-0.5,0.7-0.5,1.3-0.1,2.1c3.4,6.9,6.6,13.8,10,20.7
		C257,104.2,258.6,107,260.2,110 M234.1,171c0.1,0.5,0.1,0.7,0.1,0.9c2.1,11.7,5.3,23.2,9.6,34.3c0.1,0.3,0.3,0.6,0.5,0.8
		c2,1.3,4.1,2.5,6.3,3.8c-0.1-0.6-0.1-1-0.2-1.4c-3.1-11.4-6.7-22.6-10.8-33.7c-0.1-0.3-0.2-0.5-0.4-0.7
		C237.6,173.7,235.9,172.5,234.1,171 M264.3,212.2c1.8-2.6,3.4-5,5.1-7.3c0.5-0.7,0.4-1.2,0.1-1.9c-4.2-7.7-7.8-15.6-11.1-23.7
		c-0.2-0.6-0.5-1.1-0.7-1.7c-1.1,1.4-2,2.7-3.2,3.8c-0.7,0.6-0.8,1.1-0.5,1.9c2.2,5.9,4.3,11.9,6.4,17.8
		C261.6,204.7,262.9,208.4,264.3,212.2 M275.2,196.4c1.4-2,2.5-3.7,3.6-5.3c0.5-0.7,0.5-1.2,0.2-2c-3.1-7.5-6.2-15-9.3-22.5
		c-0.8-2-1.6-3.9-2.5-6.1c-1,1.6-1.9,3-2.6,4.5c-0.2,0.5-0.3,1.2-0.2,1.7c1.7,5.6,3.4,11.3,5.4,16.9
		C271.3,187.8,273.3,191.9,275.2,196.4 M241.7,205.4c-0.2-0.5-0.2-0.8-0.3-1c-4-11-7.1-22.4-9.1-34c-0.1-0.4-0.1-0.9-0.4-1.1
		c-2-1.7-4.1-3.3-6.3-5c0.1,0.6,0.1,0.8,0.1,1.1c2.4,11.5,5.4,22.9,9.2,34.1c0.2,0.6,0.2,1.2,0.3,2
		C237.1,202.7,239.3,203.9,241.7,205.4 M224.2,194.6c-1-2.8-2.2-5.5-2.8-8.3c-2.1-9.2-4-18.5-6-27.7c-0.2-1-0.2-2.2-0.8-2.8
		c-1.7-1.7-3.7-3-5.8-4.7c0.1,0.6,0.2,0.9,0.2,1.2c1.2,5.5,2.6,11,3.7,16.6c1.5,7.5,3.4,14.8,5.8,22.1c0.1,0.2,0.2,0.3,0.4,0.4
		C220.6,192.4,222.4,193.5,224.2,194.6 M163.4,115.4c0.1,0.4,0.1,0.6,0.1,0.7c4.6,15.5,9.1,31.1,13.7,46.6c0.1,0.3,0.2,0.7,0.5,0.9
		c1.3,1,2.7,1.9,4.3,3c-0.1-0.5-0.1-0.6-0.2-0.8c-5-14.6-9-29.5-11.9-44.7c-0.1-0.4-0.3-0.9-0.6-1.1
		C167.4,118.5,165.5,117.1,163.4,115.4 M262.9,168c-1.3,2.3-2.5,4.5-3.7,6.6c-0.4,0.7-0.5,1.4-0.1,2.1c3.2,7.1,6.4,14.3,9.6,21.4
		c0.7,1.5,1.5,2.9,2.3,4.5c1.4-2.1,2.7-4,4.1-6.1c-1.2,0.3-1.6-0.3-1.9-1c-2.1-5-4.3-10-6.3-15C265.4,176.4,264.2,172.2,262.9,168
		 M242.1,177.3c0.1,0.3,0.1,0.5,0.1,0.6c3.8,10.9,7.8,21.8,10.1,33.2c0.1,0.3,0.2,0.7,0.4,0.8c2.3,1.4,4.5,2.7,7,4.1
		c-0.1-0.4-0.1-0.6-0.1-0.7c-4-11.2-8-22.3-12-33.5c-0.1-0.3-0.3-0.7-0.6-0.9C245.5,179.8,243.8,178.7,242.1,177.3 M281.3,137
		c-0.6,1-1,1.8-1.5,2.4c-0.8,1-0.8,1.8-0.2,3c4.6,9.2,8.2,18.7,11.3,28.4c0.1,0.4,0.3,0.8,0.5,1.5c1.1-1.7,2.2-3.2,3.1-4.7
		c0.2-0.4,0.3-1.1,0.1-1.5c-0.9-2.4-1.9-4.8-3-7.2C288.2,151.7,284.8,144.5,281.3,137 M250.4,103.9c-0.1,0.1-0.1,0.1-0.2,0.2
		c2.9,2.5,5.8,4.9,8.8,7.5c-5.1-10.2-10-20.1-15-30.1c-0.8,1.3-1.5,2.7-2.4,4c-0.7,0.9-0.6,1.6,0,2.6c2.9,4.8,5.7,9.6,8.5,14.5
		C250.3,102.9,250.3,103.4,250.4,103.9 M247.9,102c-2.8-4.7-5.4-9.1-8.1-13.8c-0.8,1.3-1.5,2.4-2.1,3.6c-0.7,1.4-0.5,2.2,0.8,3.2
		C241.6,97.3,244.6,99.6,247.9,102"/>
	<path id="XMLID_19_" d="M88.1,0c1.4,0.2,2.4,1.1,3.2,2.2c9.9,11.7,19.9,23.4,29.9,35c0.6,0.6,1.3,1.1,1.9,1.7c0.4,0.4,0.8,1,1,1.6
		c4.2,14.9,9.6,29.4,16.6,43.2c0.3,0.6,0.6,1.2,0.9,1.8c0.5,0.9,0.1,1.5-0.7,1.8c-0.3,0.1-0.6,0.3-0.9,0.3c-1.6-0.1-2.5,0.9-3.5,1.9
		c-7.4,7.5-14.3,15.4-20.7,23.8c-0.4,0.5-0.8,0.9-1.2,1.5c2.3,2.1,4.7,4.2,7,6.3c3.1,2.9,6.3,5.8,9.4,8.7c0.6,0.5,1,0.9,2,0.8
		c1.6-0.3,2.8,0.4,3.7,2c6.1,11.1,11.5,22.5,16.2,34.2c0.7,1.8,0.5,2.2-1.2,2.9c-0.3,0.1-0.7,0.4-0.9,0.7
		c-10.4,15.3-20.8,30.7-31.2,46c-0.5,0.7-0.8,1.6-1.3,2.3c-0.3,0.4-0.7,0.8-1.1,1c-1.1,0.4-2.3,0.7-3.4,1c-1.1,0.2-2.2,0.1-3.2-0.5
		c-30.1-17.3-59.3-35.9-87.5-55.9c-4.3-3-8-6.5-9.6-11.7c-1.1-3.6-2.4-7.2-3.4-10.9c-3.2-11.9-6.3-23.8-9.4-35.7
		c-0.1-0.4-0.3-0.8-0.5-1.2v-2.4c0.6-0.9,1.3-1.8,1.9-2.7c23.9-35,50.7-67.6,80.7-97.5C83.8,1,85.1,0,87,0.2c0.3,0,0.6-0.1,0.9-0.2
		H88.1z M6.2,102.5c0.3,0.3,0.6,0.5,0.8,0.7c26.1,20.5,52.2,41,78.3,61.5c5.2,4.1,10.4,8.3,15.5,12.5c1.3,1,2.3,0.8,3.1-0.6
		c0.7-1.3,1.4-2.7,2.2-4c5-8.5,10-16.9,15-25.4c2-3.3,4-6.5,6-9.8c1.6-2.7,1.5-3.7-0.8-5.8c-1-0.9-2-1.6-2.9-2.5
		c-12.6-11.8-25.6-23-39-33.7c-1.9-1.5-1.9-1.5-0.6-3.6c10.1-17.4,21.1-34.2,32.9-50.5c0.5-0.7,0.6-1.2,0-1.9
		c-7.7-9-15.3-18.1-22.9-27.1c-2.2-2.6-4.4-5-6.7-7.7C56.8,34.7,30,67.4,6.2,102.5 M132.5,188.6c0.2-0.3,0.3-0.4,0.3-0.5
		c3-4.4,6-8.9,8.9-13.4c0.3-0.4,0.3-1.1,0.1-1.5c-1.3-4-2.5-8.1-4-12c-2.4-6.2-5-12.4-7.6-18.6l-0.4,0.1c-1.2,2.1-2.5,4.2-3.7,6.3
		c-0.2,0.3,0,0.8,0.2,1.2c2.1,4.6,4.3,9.1,6.2,13.7c1.9,4.6,3.6,9.3,5.4,14c0.1,0.3-0.2,0.8-0.3,1.1c-0.4-0.2-0.9-0.4-1.2-0.6
		c-0.2-0.1-0.2-0.5-0.3-0.8c-3-7.3-5.9-14.6-8.9-21.8c-0.7-1.6-1.5-3.1-2.3-4.8c-1.5,2.5-2.8,4.8-4.2,7.1c-0.4,0.6-0.4,1.1-0.1,1.8
		c1.6,3.8,3.1,7.6,4.7,11.4C127.6,176.9,130,182.6,132.5,188.6 M119.8,45.7c-0.2,0.2-0.4,0.3-0.5,0.4c-1.6,2.3-3.2,4.6-4.8,6.9
		c-0.2,0.3-0.2,0.8-0.1,1.2c2.7,7.5,5.4,14.9,8.2,22.4c1.8,4.8,3.8,9.6,5.6,14.1c2.2-2.1,4.4-4.2,6.7-6.4
		C128.8,71.9,123.8,59,119.8,45.7 M23.8,122.1c0,0.3,0,0.4,0,0.6c3,15.3,7.1,30.3,12.3,45c0.1,0.3,0.2,0.7,0.4,0.8
		c2.1,1.5,4.3,3,6.7,4.6c-0.1-0.5-0.1-0.7-0.2-0.8c-4.2-14.8-8.5-29.7-12.7-44.5c-0.1-0.3-0.2-0.7-0.5-0.9
		C27.9,125.2,25.9,123.7,23.8,122.1 M122.5,97.5c1.4-1.5,2.7-3,4-4.4c0.6-0.6,0.6-1.1,0.3-1.9c-3.5-8.8-7-17.7-10.4-26.5
		c-1.2-3.1-2.2-6.2-3.4-9.6c-1.4,2.1-2.7,4-4,5.9c-0.4,0.6-0.5,1.2-0.3,1.9c1.3,3.9,2.4,7.8,3.8,11.6
		C115.3,82.3,118.6,89.9,122.5,97.5 M51.9,179c0.1-0.1,0.2-0.1,0.3-0.2c-2.3-8.6-4.6-17.3-7-25.9c-1.6-5.6-3.4-11.1-5.1-16.6
		c-0.2-0.6-0.2-1.5-0.6-1.8c-2.3-1.9-4.7-3.7-7.1-5.7c0,0.3,0,0.5,0.1,0.6c4.2,14.8,8.4,29.6,12.7,44.4c0.1,0.3,0.3,0.7,0.5,0.9
		C47.8,176.2,49.8,177.6,51.9,179 M27.1,161.9c-0.1-0.4-0.1-0.5-0.2-0.7c-4.6-15.6-9.2-31.2-13.8-46.8c-0.1-0.3-0.2-0.7-0.4-0.8
		c-1.8-1.5-3.7-2.9-5.7-4.5c0.1,0.5,0.1,0.8,0.2,1.1c3.7,13.4,7.3,26.7,11,40.1C19.7,155.1,22.7,158.9,27.1,161.9 M121.3,98.8
		c-5.8-11.2-10.4-22.9-14-35.2c-1.6,2.4-3,4.5-4.3,6.7c-0.3,0.5-0.4,1.2-0.2,1.7c3.5,10.1,7.9,19.9,13.3,29.2
		c0.4,0.7,0.8,1.4,1.3,2.2C118.8,101.8,120.1,100.3,121.3,98.8 M85.4,200.4c-0.1-0.6-0.2-0.8-0.3-1c-3.9-11.8-7.1-23.8-9.6-35.9
		c-0.1-0.3-0.2-0.8-0.4-1c-2.1-1.7-4.2-3.3-6.5-5.1c0.1,0.6,0.1,1,0.2,1.3c1.4,6.6,2.8,13.2,4.2,19.8c1.1,5.5,2.3,10.9,5,15.9
		c0.1,0.3-0.1,0.8-0.2,1.3C80.2,197.2,82.7,198.7,85.4,200.4 M59.8,184.2c-1.2-5.4-2.3-10.5-3.4-15.6c-2-8.8-4.3-17.6-8.3-25.8
		c-0.2-0.3,0.2-0.9,0.3-1.5c-1.9-1.5-4-3.2-6.3-4.9c0,0.3-0.1,0.4,0,0.5c4.6,14.2,8.6,28.5,12,43c0.1,0.3,0.4,0.7,0.6,0.9
		C56.3,181.9,57.9,183,59.8,184.2 M68.4,189.7c-0.1-0.4-0.2-0.6-0.2-0.7c-1.6-6.2-3.3-12.3-4.8-18.5c-1.7-6.8-3.2-13.6-4.8-20.4
		c-0.1-0.5-0.5-1-0.9-1.4c-2.3-1.9-4.7-3.7-7.1-5.6c-0.2-0.2-0.4-0.2-0.8-0.4c0.1,0.3,0.1,0.5,0.2,0.6c3.3,6.9,5.5,14.2,7.2,21.7
		c1.5,6.5,2.9,13,4.4,19.5c0.1,0.5,0.4,1,0.7,1.3C64.2,187.1,66.2,188.3,68.4,189.7 M116.4,104.7c-6.1-10.1-11-20.6-15.1-31.8
		c-1.3,2.1-2.4,3.9-3.6,5.7c-0.5,0.8-0.5,1.4-0.1,2.2c3.4,6.9,6.7,13.9,10.1,20.9c1.4,2.8,2.9,5.5,4.4,8.3
		C113.6,108.1,114.9,106.4,116.4,104.7 M86.1,171.1c0,0.5,0,0.8,0.1,1.1c2.2,11.6,5.3,22.9,9.4,33.9c0.1,0.4,0.3,0.8,0.6,1
		c2,1.3,4.1,2.5,6.4,3.8c-0.2-1-0.4-1.8-0.6-2.5c-3-10.9-6.5-21.6-10.4-32.2c-0.1-0.4-0.3-0.8-0.7-1.1
		C89.5,173.7,87.9,172.5,86.1,171.1 M109.5,177.7c-1,1.2-1.9,2.6-3.1,3.7c-0.7,0.6-0.8,1.1-0.5,1.9c3.3,9.2,6.6,18.4,9.9,27.6
		c0.1,0.4,0.3,0.8,0.5,1.3c1.7-2.5,3.3-4.8,4.9-7.1c0.5-0.7,0.6-1.3,0.1-2.1c-1.6-2.9-3.1-5.8-4.5-8.7
		C114.3,188.7,111.9,183.2,109.5,177.7 M119.2,160.6c-1,1.6-1.8,3-2.5,4.4c-0.3,0.5-0.4,1.3-0.3,1.9c2.4,9.5,5.7,18.8,10,27.6
		c0.3,0.5,0.6,1.1,0.9,1.7c1.2-1.7,2.2-3.3,3.3-4.8c0.6-0.8,0.7-1.5,0.3-2.5c-2.7-6.4-5.3-12.8-8-19.2
		C121.7,166.7,120.5,163.8,119.2,160.6 M87.2,201.5c1.9,1.2,4.1,2.5,6.4,3.9c-0.1-0.4-0.1-0.5-0.1-0.6c-4.1-11.3-7.2-22.8-9.3-34.6
		c-0.1-0.3-0.1-0.7-0.3-0.9c-2-1.6-4.1-3.3-6.3-5c0.1,0.5,0.1,0.8,0.2,1.1c2.4,11.6,5.5,23,9.2,34.2C87,200,87,200.6,87.2,201.5
		 M76.2,194.6c-1.7-3.7-2.9-7.5-3.7-11.3c-1.9-8.7-3.7-17.3-5.5-26c-0.1-0.6-0.2-1.3-0.5-1.7c-1.8-1.6-3.7-3-5.8-4.7
		c0.5,2,1,3.7,1.3,5.4c2.7,11.5,4.5,23.2,8.5,34.4c0.1,0.2,0.2,0.4,0.4,0.5C72.6,192.4,74.4,193.5,76.2,194.6 M15.5,115.5
		c0,0.3-0.1,0.3,0,0.3c4.6,15.7,9.2,31.3,13.8,47c0.1,0.3,0.2,0.7,0.4,0.8c1.4,1,2.7,1.9,4.3,3c0-0.4,0-0.5,0-0.6
		c-5.1-14.7-9.1-29.8-12-45.1c-0.1-0.3-0.2-0.6-0.4-0.8C19.4,118.6,17.5,117.1,15.5,115.5 M126.7,197c-0.6-0.6-1.3-1-1.6-1.6
		c-3.2-6.4-5.9-13.1-8-20c-0.8-2.4-1.4-4.9-2.2-7.5c-1.3,2.4-2.5,4.6-3.8,6.7c-0.4,0.7-0.5,1.3-0.1,2.1c3.3,7.2,6.5,14.5,9.8,21.7
		c0.6,1.4,1.4,2.7,2.2,4.2C124.3,200.5,125.6,198.6,126.7,197 M94,177.4c0.1,0.3,0.1,0.5,0.1,0.7c3.8,10.9,7.7,21.7,10.1,33.1
		c0.1,0.3,0.3,0.7,0.5,0.9c2.2,1.4,4.5,2.7,7,4.1c-0.1-0.5-0.2-0.7-0.2-0.9c-4-11.1-7.9-22.2-11.9-33.3c-0.1-0.3-0.2-0.6-0.5-0.8
		C97.5,179.9,95.8,178.7,94,177.4 M130.9,140.9c5.1,10.1,9.1,20.6,12.5,31.5c1.1-1.7,2-3.2,3.1-4.6c0.4-0.6,0.5-1.1,0.2-1.7
		c-3.3-7.3-6.6-14.5-9.9-21.8c-1.1-2.3-2.3-4.6-3.6-7C132.2,138.6,131.5,139.7,130.9,140.9 M102.3,103.9c-0.1,0.1-0.1,0.1-0.2,0.2
		c2.9,2.5,5.8,4.9,8.8,7.5c-5.1-10.2-10-20.1-15-30.1c-0.9,1.5-1.8,3-2.7,4.5c-0.4,0.6-0.4,1.1,0,1.7c3,5,5.9,10,8.8,15
		C102.2,103,102.2,103.5,102.3,103.9 M91.8,88.3c-0.5,0.7-0.9,1.2-1.2,1.8c-1.9,2.9-1.7,3.8,1.1,5.8c2.5,1.8,4.9,3.7,7.4,5.5
		c0.2,0.1,0.3,0.2,0.5,0.3c0-0.1,0.1-0.1,0.1-0.2C97.1,97.2,94.5,92.8,91.8,88.3"/>
</g>
</svg>
