<?xml version="1.0" encoding="utf-8"?>
<!-- Generator: Adobe Illustrator 19.0.0, SVG Export Plug-In . SVG Version: 6.00 Build 0)  -->
<svg version="1.2" baseProfile="tiny" id="Слой_2"
	 xmlns="http://www.w3.org/2000/svg" xmlns:xlink="http://www.w3.org/1999/xlink" x="0px" y="0px" viewBox="-460 392.2 94.1 41.8"
	 xml:space="preserve">
<g>
	<path fill="#5F93FF" d="M-367.3,414.6c0,1,0,1.9,0,2.9c-0.4-0.5-0.8-0.9-1.3-1.4c-0.1-0.1-0.3-0.3-0.4-0.5
		c-0.1-0.7-0.2-1.4-0.3-2.1c0.3,0.2,0.8,0.4,1.1,0.6C-367.9,414.2-367.6,414.4-367.3,414.6z"/>
	<path fill="#5F93FF" d="M-367.3,417.7c0,0.4,0,0.8,0,1.2s0,0.8-0.1,1.1c-0.3-0.3-0.5-0.7-0.8-1c-0.2-0.3-0.4-0.7-0.7-1
		c0-0.4,0-0.9,0-1.3c0-0.1,0-0.2,0-0.3C-368.4,416.9-367.8,417.3-367.3,417.7z"/>
	<path fill="#5F93FF" d="M-367.4,412.2c0,0.5,0,1,0.1,1.6c-0.2-0.1-0.4-0.2-0.5-0.3c-0.5-0.3-1-0.7-1.6-0.7c-0.1-0.7-0.3-1.3-0.4-2
		c0.1,0,0.2,0.1,0.2,0.2C-368.9,411.4-368.2,412-367.4,412.2z"/>
	<path fill="#5F93FF" d="M-367.5,409.9c0,0.6,0.1,1.3,0.1,1.9c-0.4-0.6-1.1-1.1-1.7-1.6c-0.3-0.3-0.6-0.5-1-0.8
		c-0.1-0.4-0.2-0.9-0.3-1.3c0.2,0.2,0.5,0.3,0.6,0.4C-369,409.1-368.3,409.6-367.5,409.9z"/>
	<path fill="#5F93FF" d="M-367.4,420.4c0,0.5-0.1,1.1-0.2,1.6c-0.1-0.2-0.3-0.3-0.4-0.4c-0.3-0.3-0.7-0.7-1.1-0.8l0,0
		c0.1-0.6,0.2-1.2,0.3-1.8c0.1,0.2,0.3,0.3,0.4,0.5C-368.1,419.8-367.8,420.1-367.4,420.4z"/>
	<path fill="#5F93FF" d="M-367.8,407.4c0.1,0.6,0.1,1.2,0.2,1.8c-0.5-0.5-1.2-0.9-1.7-1.3c-0.4-0.3-0.8-0.7-1.2-1.1
		c-0.1-0.5-0.2-1-0.3-1.5c0.3,0.2,0.6,0.4,0.8,0.6C-369.3,406.4-368.6,406.9-367.8,407.4z"/>
	<path fill="#5F93FF" d="M-367.7,422.6c-0.1,0.4-0.2,0.9-0.3,1.3c-0.3-0.4-0.7-0.8-1.1-1.2c-0.2-0.2-0.4-0.4-0.6-0.6
		c0.1-0.3,0.2-0.6,0.3-0.9c0.3,0.3,0.7,0.5,1,0.8C-368.1,422.2-367.9,422.4-367.7,422.6z"/>
	<path fill="#5F93FF" d="M-368,406c0.1,0.3,0.1,0.6,0.1,0.9c-0.6-0.5-1.2-1-1.8-1.5c-0.5-0.4-0.9-0.9-1.5-1.2c0-0.2-0.1-0.5-0.1-0.7
		c0.1,0.1,0.2,0.1,0.3,0.2c0.5,0.3,1,0.6,1.5,0.9c0.4,0.3,0.8,0.6,1.2,0.7C-368.1,405.5-368,405.7-368,406z"/>
	<path fill="#5F93FF" d="M-368.1,424.2L-368.1,424.2c-0.1,0.3-0.2,0.7-0.4,1c-0.1,0.4-0.3,0.7-0.5,1l0,0c-0.4-0.5-0.7-1.1-1.1-1.6
		c-0.2-0.3-0.4-0.5-0.6-0.8c0.2-0.3,0.4-0.6,0.6-0.9c0.2,0.1,0.3,0.2,0.5,0.4C-369,423.6-368.6,424-368.1,424.2z"/>
	<path fill="#5F93FF" d="M-368.7,402.9c0.1,0.5,0.3,1,0.4,1.5c-0.4-0.4-1-0.8-1.5-1c-0.5-0.3-1-0.6-1.5-0.9l-0.1-0.1
		c0-0.3-0.1-0.6-0.1-0.8c0.3,0.2,0.6,0.3,0.9,0.5C-369.9,402.3-369.3,402.6-368.7,402.9z"/>
	<path fill="#5F93FF" d="M-369.1,426.4L-369.1,426.4c-0.3,0.6-0.7,1.1-1.4,1.5h-0.1c-0.1-0.7-0.5-1.4-0.9-2
		c-0.2-0.3-0.3-0.6-0.5-0.8c0.3-0.2,0.6-0.4,0.8-0.6c0.1-0.1,0.2-0.2,0.2-0.2c0.2,0.2,0.4,0.4,0.5,0.6
		C-370,425.4-369.5,425.9-369.1,426.4z"/>
	<path fill="#5F93FF" d="M-369.4,400.9c0.2,0.4,0.3,0.8,0.5,1.2c-0.3-0.3-0.7-0.5-1-0.8c-0.5-0.3-1-0.8-1.6-0.9
		c0-0.2-0.1-0.4-0.1-0.5l0.1,0.1C-370.9,400.3-370.2,400.6-369.4,400.9z"/>
	<path fill="#5F93FF" d="M-372,426.6c0.3,0.5,0.6,1.1,1.1,1.5c-0.5,0.2-1.1,0.3-1.6,0.4c-0.3-0.9-0.7-1.8-1.2-2.5
		c0.3-0.1,0.7-0.3,1-0.5C-372.5,425.9-372.2,426.2-372,426.6z"/>
	<path fill="#5F93FF" d="M-373.7,427.4c0.3,0.4,0.5,0.8,0.8,1.1c-0.6,0-1.2,0.1-1.8,0.1c-0.4-0.7-0.8-1.4-1.3-2.1
		c0.5-0.1,0.9-0.2,1.4-0.3C-374.3,426.7-374,427.1-373.7,427.4z"/>
	<path fill="#5F93FF" d="M-375.2,428.7c-0.5,0-1,0.1-1.5,0.1c-0.3-0.5-0.5-1-0.9-1.5c-0.1-0.1-0.2-0.3-0.3-0.4
		c0.4,0,0.7-0.1,1.1-0.1C-376.2,427.4-375.7,428-375.2,428.7z"/>
	<path fill="#5F93FF" d="M-377,428.8c-0.7,0-1.3,0.1-2,0.1c-0.3-0.5-0.5-1-0.7-1.5c-0.1-0.2-0.2-0.3-0.3-0.5c0.5,0,0.9-0.1,1.4-0.1
		c0.2,0.2,0.3,0.4,0.5,0.7C-377.8,428-377.4,428.4-377,428.8z"/>
	<path fill="#5F93FF" d="M-379.4,428.9c-0.4,0-0.8,0-1.3,0.1c-0.1-0.5-0.5-1-0.7-1.4c-0.1-0.1-0.2-0.3-0.3-0.5c0.3,0,0.5,0,0.8,0
		c0.1,0.3,0.4,0.6,0.6,0.8C-380,428.2-379.7,428.6-379.4,428.9z"/>
	<path fill="#5F93FF" d="M-381.1,429c-0.4,0-0.9,0-1.3,0.1c-0.2-0.4-0.3-0.9-0.5-1.3c-0.1-0.2-0.2-0.4-0.3-0.6c0.2,0,0.4,0,0.7,0
		c0.2,0.3,0.5,0.6,0.7,0.9C-381.7,428.4-381.5,428.8-381.1,429z"/>
	<path fill="#5F93FF" d="M-382.7,429.1c-0.7,0-1.3,0.1-2,0.1v-0.1c0.1,0,0.1,0,0.1-0.1c-0.1-0.4-0.2-0.7-0.4-1
		c-0.2-0.3-0.3-0.5-0.5-0.8c0.2,0,0.4,0,0.5,0c0.1,0.1,0.2,0.3,0.3,0.4c0,0.1,0.1,0,0.1-0.1c-0.1-0.1-0.1-0.2-0.1-0.3
		c0.3,0,0.5,0,0.8,0c0.1,0.3,0.3,0.5,0.4,0.8C-383.2,428.4-383,428.8-382.7,429.1z"/>
	<path fill="#5F93FF" d="M-384.7,429.2L-384.7,429.2c-1.4,0.1-2.8,0.2-4.3,0.3c-9.1,0.6-18.3,1.1-27.4,1.7
		c-8.3,0.5-16.8,1.5-25.2,1.5v-0.1c-0.4-0.9-1.2-1.6-1.7-2.4c-0.4-0.5-0.7-1.1-1-1.7c0.4,0,0.8,0,1.2,0c0.7,1.5,1.6,2.9,2.9,3.9
		c0.1,0.1,0.3,0,0.2-0.2c-1-1.2-1.8-2.4-2.5-3.7c0.5,0,1,0,1.5,0v0.1c0.3,1.1,1.2,2.2,2.1,3c0.1,0.1,0.1,0,0.1-0.1
		c-0.4-0.5-0.8-1-1.1-1.5c-0.3-0.5-0.5-1-0.8-1.5l0,0c0.5,0,0.9,0,1.4,0c0.4,1.1,1.2,2.1,2,3c0,0,0.1,0,0,0c-0.7-1-1.2-2-1.7-3
		c2,0,3.9,0,5.9,0c15.7-0.1,31.4-0.3,47.1-1.1c0.1,0.4,0.4,0.6,0.6,1C-385.2,428.8-385.1,428.9-384.7,429.2
		C-384.8,429.2-384.7,429.2-384.7,429.2z M-435.7,431.2c0.1,0.1,0.3,0,0.2-0.1c-0.4-0.6-0.7-1.3-1.2-1.8c-0.1-0.1-0.3,0-0.3,0.2
		C-436.8,430.1-436.1,430.6-435.7,431.2z"/>
	<path d="M-435.5,431.1c0.1,0.1-0.1,0.2-0.2,0.1c-0.4-0.6-1-1.1-1.3-1.8c-0.1-0.2,0.2-0.3,0.3-0.2
		C-436.2,429.7-435.9,430.5-435.5,431.1z"/>
	<path fill="#5F93FF" d="M-442.2,432.7c-0.2,0-0.3,0-0.5,0c-0.1,0-0.2,0-0.4,0c-0.8-0.7-1.4-1.3-2-2.2c-0.4-0.7-0.9-1.4-1.4-2.1
		c0.3,0,0.6,0,0.8,0c0.2,0,0.3,0,0.5,0c0.2,0.8,0.7,1.5,1.1,2.2C-443.5,431.4-443,432.2-442.2,432.7z"/>
	<path fill="#5F93FF" d="M-445.3,431.6c0.2,0.4,0.5,0.7,0.8,1c-0.4,0-0.7,0-1-0.1c-0.2-0.3-0.5-0.5-0.7-0.7
		c-0.4-0.5-0.8-1.1-1.1-1.6c-0.4-0.7-0.8-1.4-1.3-2c0.5,0.1,0.9,0.1,1.4,0.2C-446.8,429.5-446,430.7-445.3,431.6z"/>
	<path fill="#5F93FF" d="M-447.7,431.3c0.2,0.3,0.5,0.8,0.8,1.1c-0.4-0.1-0.9-0.2-1.3-0.3c-0.4-0.8-1.3-1.5-1.9-2.2
		c-0.7-0.8-1.3-1.6-1.9-2.4c0.8,0.3,1.6,0.4,2.5,0.6C-449.1,429.2-448.3,430.3-447.7,431.3z"/>
	<path fill="#5F93FF" stroke="#5F93FF" stroke-miterlimit="10" d="M-450.9,430.1c0.4,0.5,0.8,1,1.3,1.5c-0.8-0.3-1.6-0.7-2.3-1.2
		c-0.5-0.9-1.1-1.7-1.7-2.5c-0.3-0.5-0.6-1.1-0.9-1.7c0.2,0.1,0.4,0.3,0.7,0.4c0.5,0.3,1,0.5,1.5,0.6
		C-452.1,428.3-451.5,429.2-450.9,430.1z"/>
	<path fill="#5F93FF" d="M-454.5,428.2c-0.4-0.4-0.7-0.9-1-1.4c-0.5-0.7-0.9-1.5-1.2-2.3c0.3,0.3,0.5,0.6,0.8,0.9l0,0
		C-455.5,426.3-455.1,427.3-454.5,428.2z"/>
	<g>
		<path fill="none" d="M-383.5,428c-0.2-0.2-0.3-0.5-0.4-0.8c-0.3,0-0.5,0-0.8,0c0,0.1,0.1,0.2,0.1,0.3c0,0.1-0.1,0.1-0.1,0.1
			c-0.1-0.1-0.2-0.3-0.3-0.4c-0.2,0-0.4,0-0.5,0c0.2,0.2,0.4,0.5,0.5,0.8c0.2,0.3,0.4,0.6,0.4,1c0,0.2-0.1,0.2-0.1,0.3
			c0.7,0,1.3-0.1,2-0.1C-383,428.8-383.2,428.4-383.5,428z"/>
		<path fill="none" d="M-381.3,427.5c0.2,0.5,0.5,1,0.7,1.5c0.4,0,0.8-0.1,1.3-0.1c-0.3-0.4-0.6-0.7-0.9-1.1
			c-0.2-0.3-0.4-0.5-0.6-0.8c-0.2,0-0.5,0-0.8,0C-381.5,427.2-381.4,427.4-381.3,427.5z"/>
		<path fill="none" d="M-369.4,412.7c0.6,0,1.1,0.4,1.6,0.7c0.2,0.1,0.4,0.2,0.5,0.3c0-0.4-0.1-1-0.1-1.5c-0.8-0.2-1.5-0.8-2.2-1.3
			c-0.1,0-0.1-0.1-0.2-0.2c0.1,0.6,0.2,1.1,0.3,1.6C-369.5,412.4-369.4,412.6-369.4,412.7z"/>
		<path fill="none" d="M-383.1,427.7c0.3,0.6,0.5,1,0.7,1.4c0.4,0,0.9-0.1,1.3-0.1c-0.3-0.3-0.6-0.7-0.9-1c-0.2-0.3-0.5-0.6-0.7-0.9
			c-0.2,0-0.5,0-0.7,0C-383.3,427.3-383.2,427.5-383.1,427.7z"/>
		<path fill="none" d="M-447.2,430.2c0.3,0.5,0.7,1.1,1.1,1.6c0.2,0.3,0.5,0.5,0.7,0.7c0.2,0.1,0.6,0.1,0.9,0.2
			c-0.3-0.3-0.6-0.7-0.8-1c-0.7-1-1.4-2.1-1.8-3.3c-0.5,0-0.9-0.1-1.4-0.2c0,0,0,0,0,0C-448,428.8-447.6,429.6-447.2,430.2z"/>
		<path fill="none" d="M-452,427.4c0.6,0.8,1.2,1.6,1.9,2.4c0.6,0.7,1.5,1.3,1.9,2.2c0.4,0.2,0.9,0.3,1.3,0.3
			c-0.3-0.3-0.6-0.7-0.8-1.1c-0.6-1-1.4-2.1-1.8-3.2c-0.2-0.1-0.5-0.1-0.8-0.2C-450.9,427.7-451.4,427.6-452,427.4z"/>
		<path fill="none" d="M-439.1,428.4c0.6,1,1.1,2,1.7,3c-0.8-0.9-1.5-1.9-2-3c-0.5,0-0.9,0-1.4,0c0.3,0.5,0.5,1,0.8,1.5
			c0.3,0.5,0.7,1,1.1,1.5c0,0.1,0,0.1-0.1,0.1c-0.8-0.8-1.7-1.9-2.1-3v-0.1c-0.5,0-1,0-1.5,0c0.7,1.3,1.5,2.5,2.5,3.7
			c0.1,0.1-0.1,0.3-0.2,0.2c-1.3-1-2.3-2.4-2.9-3.9c-0.2,0-0.4,0-0.7,0c-0.2,0-0.4,0-0.5,0c0.4,0.5,0.7,1.2,1,1.7
			c0.6,0.8,1.4,1.5,1.7,2.4c0,0.1,0,0.1,0,0.1c8.4,0,16.8-1,25.2-1.5c9.1-0.6,18.3-1.1,27.4-1.7c1.6,0,3,0,4.4-0.1
			c-0.4-0.3-0.6-0.7-0.8-1c-0.2-0.3-0.4-0.6-0.6-1c-15.7,0.9-31.4,1-47.1,1.1h0C-433.2,428.4-435.9,428.4-439.1,428.4z"/>
		<path fill="none" d="M-455.5,426.8c0.3,0.5,0.6,1,1,1.4c-0.5-0.8-0.9-1.7-1.2-2.6c-0.2-0.1-0.5-0.3-0.7-0.5
			C-456.2,425.8-455.9,426.3-455.5,426.8z"/>
		<path fill="none" d="M-384.7,429.3C-384.7,429.2-384.8,429.2-384.7,429.3L-384.7,429.3z"/>
		<path fill="none" d="M-369.8,403.3c0.5,0.3,1.1,0.6,1.5,1.1c-0.1-0.5-0.3-1-0.4-1.5c-0.7-0.3-1.3-0.6-1.9-0.9
			c-0.3-0.2-0.5-0.3-0.8-0.4c0.1,0.5,0.1,0.8,0.1,0.8C-370.8,402.7-370.3,403-369.8,403.3z"/>
		<path fill="none" d="M-380,427c0.1,0.2,0.2,0.3,0.3,0.5c0.3,0.4,0.5,0.9,0.7,1.4c0.7,0,1.3-0.1,2-0.1c-0.4-0.4-0.8-0.8-1.1-1.2
			c-0.2-0.2-0.4-0.4-0.5-0.7c-0.3,0-0.5,0-0.7,0.1C-379.6,427-379.8,427-380,427L-380,427z"/>
		<path fill="none" d="M-369.5,405.3c0.5,0.5,1.1,1,1.6,1.6c0-0.3-0.1-0.6-0.1-0.9s-0.1-0.5-0.1-0.8c-0.5-0.1-0.8-0.4-1.2-0.7
			c-0.5-0.3-1-0.6-1.5-0.9c-0.1,0-0.2-0.1-0.3-0.2c0,0.1,0,0.2,0.1,0.4c0,0.1,0,0.2,0.1,0.3C-370.5,404.5-370,405-369.5,405.3z"/>
		<path fill="none" d="M-370,401.3c0.4,0.3,0.7,0.5,1.1,0.8c-0.2-0.4-0.3-0.8-0.5-1.2c-0.7-0.3-1.4-0.6-2.1-1c0,0-0.1,0-0.1-0.1
			c0,0.2,0.1,0.4,0.1,0.5C-371,400.5-370.5,401-370,401.3z"/>
		<path fill="none" d="M-369.4,407.9c0.6,0.5,1.3,0.9,1.8,1.3c0-0.6-0.1-1.2-0.2-1.8c-0.8-0.4-1.5-0.9-2.3-1.5
			c-0.2-0.2-0.4-0.3-0.6-0.5c0.1,0.5,0.2,1,0.3,1.5C-370.1,407.2-369.8,407.6-369.4,407.9z"/>
		<path fill="none" d="M-369,422.7c0.4,0.4,0.8,0.8,1,1.2c0.1-0.4,0.2-0.9,0.3-1.3c-0.2-0.2-0.4-0.4-0.6-0.6c-0.3-0.3-0.7-0.5-1-0.8
			c-0.1,0.4-0.2,0.7-0.3,0.9C-369.4,422.3-369.2,422.5-369,422.7z"/>
		<path fill="none" d="M-369,415.4c0.2,0.2,0.3,0.4,0.4,0.5c0.5,0.6,0.9,1.1,1.3,1.5c0-0.9,0-1.9,0-2.9c-0.3-0.2-0.6-0.4-0.9-0.6
			c-0.3-0.2-0.8-0.4-1.1-0.6C-369.1,414.1-369,414.9-369,415.4C-369,415.4-369,415.4-369,415.4z"/>
		<path fill="none" d="M-368.9,416.7c0,0.4,0,0.9,0,1.3c0.3,0.3,0.5,0.6,0.7,1c0.2,0.4,0.5,0.7,0.8,1c0.1-0.3,0.1-0.7,0.1-1.1
			c0-0.4,0-0.8,0-1.2c-0.5-0.4-1.1-0.8-1.6-1.3C-368.9,416.5-368.9,416.6-368.9,416.7z"/>
		<path fill="none" d="M-372.7,425.6c-0.3,0.2-0.7,0.3-1,0.5c0.5,0.7,0.9,1.7,1.2,2.5c0.5-0.1,1.1-0.2,1.6-0.5
			c-0.5-0.4-0.7-1-1.1-1.5C-372.2,426.2-372.5,425.9-372.7,425.6z"/>
		<path fill="none" d="M-377.9,426.8c0.1,0.1,0.2,0.3,0.3,0.4c0.4,0.5,0.6,1.1,0.9,1.6c0.5,0,1-0.1,1.5-0.1c-0.6-0.6-1.1-1.3-1.6-2
			C-377.2,426.7-377.5,426.8-377.9,426.8z"/>
		<path fill="none" d="M-374.5,426.3c-0.5,0.1-0.9,0.2-1.4,0.3c0.5,0.7,0.9,1.3,1.3,2.1c0.5-0.1,1.1-0.1,1.7-0.1
			c-0.3-0.4-0.5-0.8-0.8-1.1C-374,427.1-374.3,426.7-374.5,426.3z"/>
		<path fill="none" d="M-370.4,425c-0.2-0.2-0.4-0.4-0.5-0.6c-0.1,0.1-0.1,0.2-0.2,0.2c-0.3,0.2-0.5,0.4-0.8,0.6
			c0.2,0.3,0.4,0.6,0.5,0.8c0.3,0.6,0.8,1.3,0.9,2h0.1c0.6-0.5,1-1,1.4-1.6h-0.1C-369.5,425.9-370,425.5-370.4,425z"/>
		<path fill="none" d="M-444,430.6c-0.4-0.6-0.9-1.4-1.1-2.2c-0.1,0-0.3,0-0.5,0c-0.3,0-0.5,0-0.8,0c0.5,0.7,0.9,1.4,1.4,2.1
			c0.6,0.9,1.2,1.5,2,2.2c0.1,0,0.2,0,0.4,0c0,0,0.2,0,0.4,0C-443,432.2-443.5,431.3-444,430.6z"/>
		<path fill="none" d="M-369.6,408.6c-0.2-0.1-0.4-0.3-0.6-0.4c0.1,0.4,0.2,0.9,0.3,1.3c0.3,0.3,0.7,0.5,1,0.8
			c0.4,0.4,1.1,0.9,1.5,1.5c0-0.6-0.1-1.3-0.1-1.9C-368.3,409.6-369,409.1-369.6,408.6z"/>
		<path fill="none" d="M-453,426c0.8,0.4,1.6,0.6,2.5,0.8s1.7,0.3,2.6,0.4c0.4,0,0.9,0.1,1.3,0.1c5.8,0.4,11.7,0.2,17.6,0
			c2-0.1,3.9-0.1,5.8-0.1c15-0.3,30.2-0.3,45.2-1.6c0.4,0,0.8-0.1,1.3-0.1c0.4-0.1,0.8-0.1,1.2-0.2c0.8-0.2,1.6-0.5,2.3-0.8
			c0-0.2,0.2-0.3,0.3-0.3c0.9-0.6,1.7-1.3,2.2-2.3c-0.1-0.2,0-0.3,0.2-0.4c0-0.2,0.1-0.3,0.2-0.5s0.1-0.4,0.1-0.7
			c0.2-0.8,0.2-1.7,0.2-2.5c0-0.9-0.1-1.7-0.3-2.6c-0.2-1.3-0.5-2.6-0.8-3.8c-0.1-0.4-0.2-0.8-0.2-1.3c-0.1-0.7-0.2-1.4-0.4-2
			c-0.2-1.4-0.5-2.7-0.7-4c-0.1-0.7-0.3-1.4-0.4-2c0-0.1-0.1-0.2-0.1-0.4v-0.1c-0.1-0.5-0.2-0.9-0.3-1.4c-0.1-0.5-0.2-1-0.3-1.4
			c-0.3-1.1-0.7-2-1.2-2.7c0,0-0.1,0-0.2,0c-0.1,0-0.2,0-0.2,0c-0.1,0-0.2-0.1-0.2-0.1c-0.1-0.1-0.2-0.2-0.2-0.4c0-0.1,0-0.1,0-0.2
			c-0.6-0.5-1.4-0.8-2.2-1c-1.1-0.3-2.3-0.4-3.6-0.5c-0.3,0-0.6,0-1-0.1c-14.7-1-29.4,0.2-44,1.6c-2.8,0.3-5.7,0.4-8.5,0.5
			c-4.8,0.2-9.6,0.2-14.3,0.7c-0.5,0.1-1,0.1-1.4,0.2c-1.4,0.2-2.9,0.2-4.3,0.6c-2.5,0.8-3.3,3-3.5,5.4c-0.2,2.3-0.1,6.8,0,9.1v0.8
			c0.1-0.5,0.2-1.1,0.3-1.6c0,0,0.1,0,0.1,0c0.1,0,0.2,0,0.3,0.1c0,0,0,0.1,0,0.1c-0.1,0.8-0.2,1.6-0.3,2.4
			c-0.1,0.8-0.2,1.7-0.2,2.5c0,0.8,0.1,1.7,0.2,2.5c0.1,0.8,0.2,1.6,0.4,2.5c0.3,1,0.8,1.9,1.5,2.7
			C-455.2,424.7-454.2,425.5-453,426z"/>
		<path fill="none" d="M-452.5,427.3c-0.5-0.2-1-0.4-1.5-0.6c-0.2-0.1-0.4-0.3-0.7-0.4c0.3,0.6,0.6,1.1,0.9,1.7
			c0.5,0.8,1.2,1.7,1.7,2.5c0.9,0.4,1.7,0.8,2.5,1.1c-0.5-0.5-0.9-1-1.3-1.5C-451.6,429.2-452.1,428.3-452.5,427.3z"/>
		<path fill="none" d="M-369.9,422.8c-0.2,0.3-0.4,0.7-0.6,0.9c0.2,0.3,0.4,0.5,0.6,0.8c0.4,0.5,0.7,1.1,1.1,1.6
			c0.2-0.3,0.4-0.7,0.5-1c0-0.2,0.1-0.6,0.3-0.9c0,0-0.1,0-0.1,0s0,0,0.1,0c-0.5-0.2-1-0.6-1.4-1
			C-369.5,423.1-369.7,423-369.9,422.8z"/>
		<path fill="none" d="M-368.9,419c0,0.6-0.1,1.2-0.3,1.8c0.4,0.1,0.8,0.5,1.1,0.8c0.3,0.1,0.4,0.3,0.5,0.4c0.1-0.5,0.1-1.1,0.2-1.6
			c-0.4-0.3-0.8-0.6-1.1-0.9C-368.6,419.3-368.8,419.2-368.9,419z"/>
		<path d="M-439.4,428.4c-0.5,0-0.9,0-1.4,0c0,0,0,0,0,0C-440.3,428.4-439.8,428.4-439.4,428.4
			C-439.4,428.4-439.4,428.4-439.4,428.4z"/>
		<path d="M-441.1,428.4c-0.5,0-1,0-1.5,0c0,0,0,0,0,0C-442.1,428.4-441.6,428.4-441.1,428.4L-441.1,428.4z"/>
		<path d="M-450.3,427.9c0.3,0.1,0.6,0.1,0.8,0.2c0,0,0,0,0,0C-449.7,428-450,427.9-450.3,427.9z"/>
		<path d="M-439.1,428.4c3.2,0,5.9,0,5.9,0C-435.2,428.4-437.1,428.4-439.1,428.4C-439.1,428.4-439.1,428.4-439.1,428.4z"/>
		<path d="M-443.2,428.4c-0.2,0-0.4,0-0.7,0C-443.6,428.4-443.4,428.4-443.2,428.4C-443.2,428.4-443.2,428.4-443.2,428.4z"/>
		<polygon points="-448.5,428.2 -448.5,428.2 -448.5,428.2 		"/>
		<path d="M-458.1,410.9c0,0,0.1,0,0.1,0C-458,410.9-458.1,410.9-458.1,410.9z"/>
		<path d="M-429.5,394.1c2.6-0.1,5.1-0.3,7.6-0.6C-424.4,393.7-427,393.9-429.5,394.1z"/>
		<path d="M-448.7,395.1c2.5-0.2,5.1-0.4,7.7-0.5C-443.6,394.7-446.2,394.9-448.7,395.1z"/>
		<path d="M-379.3,427c-0.2,0-0.4,0-0.7,0C-379.8,427-379.6,427-379.3,427z"/>
		<path d="M-437.2,394.4c2.6-0.1,5.1-0.2,7.7-0.4C-432.1,394.2-434.6,394.3-437.2,394.4z"/>
		<path d="M-460,408c0-0.7,0-1.4,0-2C-460,406.6-460,407.3-460,408z"/>
		<path d="M-411.8,392.8c2.2-0.1,4.5-0.2,6.7-0.2C-407.4,392.7-409.6,392.7-411.8,392.8z"/>
		<path d="M-383.4,427.1C-383.4,427.1-383.4,427.1-383.4,427.1c0.3,0,0.5,0,0.7,0c0,0,0,0,0,0C-382.9,427.1-383.1,427.1-383.4,427.1
			z"/>
		<path d="M-456.6,424.4c0.1,0.3,0.1,0.5,0.2,0.8c0.2,0.2,0.4,0.3,0.7,0.5c0-0.1-0.1-0.2-0.1-0.3
			C-456.1,425-456.4,424.8-456.6,424.4z"/>
		<path d="M-381.4,393.7c1.3,0.1,2.5,0.2,3.6,0.5C-378.9,393.9-380.1,393.8-381.4,393.7z"/>
		<path d="M-375.6,395.4c0,0.1,0.1,0.3,0.2,0.4C-375.5,395.7-375.5,395.6-375.6,395.4z"/>
		<path d="M-371.4,402.3l0.1,0.1c0,0,0-0.4-0.1-0.8c0,0-0.1,0-0.1-0.1C-371.5,401.8-371.4,402.1-371.4,402.3z"/>
		<path d="M-381.6,427C-381.6,427-381.6,427-381.6,427c0.3,0.1,0.6,0,0.8,0c0,0,0,0,0,0C-381.1,427-381.3,427-381.6,427z"/>
		<path d="M-452.5,395.5c1.3-0.2,2.5-0.3,3.8-0.4C-450,395.2-451.2,395.3-452.5,395.5c-3,0.3-5.6,1.2-6.7,4.2
			c-0.6,1.7-0.8,3.9-0.8,6.3c0-2.3,0.2-4.6,0.8-6.3C-458.1,396.7-455.5,395.8-452.5,395.5z"/>
		<path d="M-459.7,414.4c0-1.8-0.2-4.1-0.3-6.4C-459.9,410.3-459.7,412.6-459.7,414.4c0,0.4,0.3,0.6,0.6,0.6
			C-459.4,415-459.7,414.8-459.7,414.4z"/>
		<path d="M-459.1,415c0,2.6,0.1,5.3,0.8,7.8c0,0,0,0,0,0c0,0,0,0,0,0C-458.9,420.3-459.1,417.6-459.1,415z"/>
		<path d="M-372.4,404c0.3,1.4,0.5,2.7,0.7,4C-371.9,406.7-372.1,405.4-372.4,404z"/>
		<path d="M-371.1,411.4c0.3,1.3,0.5,2.6,0.8,3.8C-370.5,413.9-370.8,412.6-371.1,411.4z"/>
		<path d="M-373.5,398.7c0.1,0.5,0.2,0.9,0.3,1.4C-373.3,399.6-373.4,399.1-373.5,398.7c-0.3-1.1-0.7-2-1.2-2.7c0,0-0.1,0-0.2,0
			c0.1,0,0.1,0,0.2,0C-374.2,396.7-373.8,397.6-373.5,398.7z"/>
		<path d="M-370.7,421.9c-0.5,1-1.3,1.7-2.2,2.3C-372,423.6-371.2,422.9-370.7,421.9c-0.1-0.2,0-0.3,0.2-0.4c0-0.2,0.1-0.3,0.1-0.5
			c0,0.2-0.1,0.4-0.2,0.5C-370.7,421.6-370.8,421.7-370.7,421.9z"/>
		<path d="M-370.3,421c0-0.2,0.1-0.4,0.2-0.7c0.2-0.8,0.2-1.7,0.2-2.5c0,0.9,0,1.7-0.2,2.5C-370.3,420.5-370.3,420.8-370.3,421z"/>
		<path d="M-373.2,424.5c-0.7,0.3-1.5,0.6-2.3,0.8C-374.7,425.1-373.9,424.8-373.2,424.5c0-0.2,0.2-0.3,0.3-0.3
			C-373,424.2-373.2,424.3-373.2,424.5z"/>
		<path d="M-423.2,427.3c-1.9,0-3.9,0.1-5.8,0.1C-427.1,427.4-425.1,427.3-423.2,427.3c15-0.3,30.2-0.3,45.2-1.6
			c0.4,0,0.8-0.1,1.3-0.1c-0.4,0.1-0.8,0.1-1.3,0.1C-393,427-408.2,427-423.2,427.3z"/>
		<path d="M-458.1,410.9c-0.1,0.5-0.2,1.1-0.3,1.6C-458.3,412-458.2,411.4-458.1,410.9z"/>
		<path d="M-370.6,406.8c0,0,0.1,0.1,0.1,0.1c-0.1-0.5-0.2-1-0.3-1.5c-0.1,0-0.1-0.1-0.2-0.1C-370.8,405.8-370.7,406.3-370.6,406.8z
			"/>
		<path d="M-369.4,412.7C-369.4,412.7-369.4,412.7-369.4,412.7c0-0.1-0.1-0.3-0.1-0.4C-369.5,412.4-369.4,412.6-369.4,412.7z"/>
		<path d="M-369.6,422.1c0.1-0.2,0.2-0.5,0.3-0.9c0,0,0,0,0,0C-369.4,421.5-369.5,421.8-369.6,422.1z"/>
		<path d="M-369,415.4c0-0.5-0.1-1.3-0.3-2.1c0,0,0,0,0,0C-369.2,414-369.1,414.7-369,415.4z"/>
		<path d="M-371,404.1c0-0.1,0-0.2-0.1-0.3C-371,403.9-371,404-371,404.1C-371,404.1-371,404.1-371,404.1z"/>
		<path d="M-439,431.5C-438.9,431.5-438.9,431.5-439,431.5c-0.3-0.6-0.7-1.1-1-1.6c-0.3-0.5-0.5-1-0.8-1.5c-0.1,0-0.2,0-0.3,0v0.1
			C-440.7,429.6-439.8,430.7-439,431.5z"/>
		<path d="M-439.1,428.4c-0.1,0-0.2,0-0.3,0c0.5,1.1,1.2,2.1,2,3C-438,430.4-438.5,429.4-439.1,428.4z"/>
		<path d="M-434.9,395.7c-4.8,0.2-9.6,0.2-14.3,0.7c-0.5,0.1-1,0.1-1.4,0.2c0.5,0,1-0.1,1.4-0.2C-444.5,396-439.7,395.9-434.9,395.7
			z"/>
		<path d="M-440.3,432.3c0.1,0.1,0.3-0.1,0.2-0.2c-1-1.2-1.8-2.4-2.5-3.7c-0.2,0-0.4,0-0.6,0C-442.6,429.9-441.6,431.3-440.3,432.3z
			"/>
		<path d="M-457.7,411c0,0,0,0.1,0,0.1c-0.1,0.8-0.2,1.6-0.3,2.4c0.1-0.8,0.2-1.6,0.3-2.4C-457.7,411-457.7,411-457.7,411z"/>
		<path d="M-458,410.9c0.1,0,0.2,0,0.3,0.1C-457.8,410.9-457.9,410.9-458,410.9z"/>
		<path d="M-458,413.5c-0.1,0.8-0.2,1.7-0.2,2.5c0.1,0.8,0.1,1.7,0.2,2.5c-0.1-0.8-0.2-1.7-0.2-2.5
			C-458.2,415.1-458.1,414.3-458,413.5z"/>
		<path d="M-369.8,410.7c0,0.3,0.2,0.9,0.3,1.6C-369.6,411.8-369.7,411.3-369.8,410.7z"/>
		<path d="M-367,404c-0.8-3.9-2.9-7.5-6.6-8.9c0-0.1-0.1-0.1-0.1-0.2c-1.9-2.3-5.5-2.3-8.2-2.5c-2.2-0.2-4.4-0.2-6.6-0.2
			c2.2,0,4.4,0.1,6.6,0.2c2.7,0.2,6.3,0.2,8.2,2.5c0,0.1,0.1,0.1,0.1,0.2c0.8,0.3,2,4.8,2,4.7c0,0.1,0.1,0.1,0.1,0.1
			c0.7,0.4,1.4,0.7,2.1,1c0.2,0.4,0.3,0.8,0.5,1.2c-0.4-0.3-0.7-0.5-1.1-0.8c-0.5-0.3-1-0.8-1.5-1c0-0.1-0.1-0.3-0.1-0.5
			c0,0.1,0.1,1,0.2,1.8c0.3,0.2,0.5,0.3,0.8,0.4c0.6,0.3,1.2,0.6,1.9,0.9c0.1,0.5,0.3,1,0.4,1.5c-0.4-0.5-1-0.8-1.5-1.1
			c-0.5-0.3-1-0.6-1.5-0.9c0,0,0.1,0.6,0.3,1.4c0-0.1-0.1-0.3-0.1-0.4c0.1,0.1,0.2,0.2,0.3,0.2c0.5,0.3,1,0.6,1.5,0.9
			c0.4,0.3,0.7,0.6,1.2,0.7c0,0.3,0.1,0.5,0.1,0.8s0.1,0.6,0.1,0.9c-0.5-0.6-1.1-1.1-1.6-1.6c-0.5-0.3-1-0.8-1.5-1.2
			c0.1,0.4,0.2,0.8,0.2,1.3c0.2,0.2,0.5,0.3,0.6,0.5c0.8,0.6,1.5,1.1,2.3,1.5c0.1,0.6,0.2,1.2,0.2,1.8c-0.5-0.4-1.2-0.8-1.8-1.3
			c-0.4-0.3-0.7-0.7-1.1-1c0.3,1.7,0.6,3.4,0.7,3.8c0.1,0.1,0.1,0.2,0.2,0.2c0.7,0.5,1.4,1.1,2.2,1.3c0,0.5,0.1,1.1,0.1,1.5
			c-0.1-0.1-0.3-0.2-0.5-0.3c-0.5-0.3-1-0.7-1.6-0.7c0,0.2,0.1,0.4,0.1,0.6c0.3,0.2,0.8,0.4,1.1,0.6c0.3,0.2,0.6,0.4,0.9,0.6
			c0,1,0,2,0,2.9c-0.4-0.4-0.8-0.9-1.3-1.5c-0.1-0.1-0.2-0.3-0.4-0.5c0,0,0,0,0,0c0,0,0,0,0,0c0.2,0.2,0,4.8-0.2,5.4
			c0,0.1,0,0.3-0.1,0.4c0.3,0.3,0.7,0.5,1,0.8c0.2,0.2,0.4,0.4,0.6,0.6c-0.1,0.4-0.2,0.9-0.3,1.3c-0.2-0.4-0.6-0.8-1-1.2
			c-0.2-0.2-0.4-0.4-0.6-0.6c0,0-1.5,2.7-3.1,3.5c-0.3,0.2-4.7,1.1-6.6,1.4c0.2,0,0.5-0.1,0.7-0.1c0.1,0.3,0.3,0.5,0.5,0.7
			c0.3,0.4,0.7,0.8,1.1,1.2c-0.7,0-1.3,0.1-2,0.1c-0.2-0.5-0.4-1-0.7-1.4c-0.1-0.2-0.2-0.3-0.3-0.5h0h0c-0.1,0-0.3,0-0.8,0
			c0.2,0.3,0.4,0.5,0.6,0.8c0.3,0.4,0.6,0.7,0.9,1.1c-0.5,0-0.9,0.1-1.3,0.1c-0.2-0.5-0.5-1-0.7-1.5c-0.1-0.1-0.2-0.3-0.3-0.4
			c-0.3,0-0.7,0-1.1,0c0.2,0.3,0.5,0.6,0.7,0.9c0.3,0.3,0.6,0.7,0.9,1c-0.4,0-0.9,0.1-1.3,0.1c-0.2-0.4-0.4-0.8-0.7-1.4
			c-0.1-0.2-0.2-0.4-0.3-0.6c-9.5,0.3-36.8,1.2-49.8,1.3h0c15.7-0.1,31.4-0.2,47.1-1.1c0.2,0.4,0.4,0.7,0.6,1c0.2,0.3,0.4,0.7,0.8,1
			c-0.1-0.1,0-0.1,0,0c0-0.1,0.1-0.1,0.1-0.3c0-0.4-0.2-0.7-0.4-1c-0.1-0.3-0.3-0.6-0.5-0.8c0.1,0,0.3,0,0.5,0
			c0.1,0.1,0.2,0.3,0.3,0.4c0,0,0.1,0,0.1-0.1c0-0.1-0.1-0.2-0.1-0.3c0.3,0,0.5,0,0.8,0c0.1,0.3,0.2,0.6,0.4,0.8
			c0.3,0.4,0.5,0.8,0.8,1.2c-0.7,0-1.3,0.1-2,0.1c-1.4,0.1-2.8,0.1-4.4,0.1c-9.1,0.6-18.3,1.1-27.4,1.7c-8.4,0.5-16.8,1.5-25.2,1.5
			c0,0,0,0,0-0.1c-0.3-0.9-1.1-1.6-1.7-2.4c-0.3-0.5-0.6-1.2-1-1.7c0.2,0,0.4,0,0.5,0c-2.2,0-4.1-0.1-4.6-0.2
			c0.5,0.1,0.9,0.2,1.4,0.2c0.4,1.2,1.1,2.3,1.8,3.3c0.2,0.3,0.5,0.7,0.8,1c-0.3-0.1-0.7-0.1-0.9-0.2c-0.2-0.2-0.5-0.4-0.7-0.7
			c-0.4-0.5-0.8-1.1-1.1-1.6c-0.4-0.6-0.8-1.4-1.3-2h0c-0.3,0-0.6-0.1-1-0.2c0.4,1.1,1.2,2.2,1.8,3.2c0.2,0.4,0.5,0.8,0.8,1.1
			c-0.4,0-0.9-0.1-1.3-0.3c-0.4-0.9-1.3-1.5-1.9-2.2c-0.7-0.8-1.3-1.6-1.9-2.4c0.6,0.2,1.1,0.3,1.7,0.5c-1.6-0.4-3.7-1.2-5.4-2.2
			c0.3,0.8,0.7,1.8,1.2,2.6c-0.4-0.4-0.7-0.9-1-1.4c-0.4-0.5-0.7-1-0.9-1.6c-0.9-0.7-1.7-1.5-1.9-2.4c1.2,4.7,3.8,8.7,9.1,10.3
			c4.4,1.3,9,0.8,13.5,0.5c5.8-0.4,11.6-0.7,17.4-1.1c11.2-0.7,22.5-1.4,33.8-2.1c2.7-0.2,5.3-0.3,8-0.5c1.9-0.1,4.6,0.2,6.4-0.7
			c3.1-1.5,3.8-6.1,4-9.1C-365.7,414.9-365.9,409.2-367,404z M-368.9,410.3c-0.3-0.3-0.7-0.5-1-0.8c-0.1-0.4-0.2-0.9-0.3-1.3
			c0.2,0.1,0.4,0.3,0.6,0.4c0.6,0.5,1.3,1,2.1,1.3c0,0.6,0.1,1.3,0.1,1.9C-367.8,411.2-368.5,410.7-368.9,410.3z M-452.1,430.5
			c-0.5-0.8-1.2-1.7-1.7-2.5c-0.3-0.6-0.6-1.1-0.9-1.7c0.3,0.1,0.5,0.3,0.7,0.4c0.5,0.2,1,0.4,1.5,0.6c0.4,1,0.9,1.9,1.6,2.8
			c0.4,0.5,0.8,1,1.3,1.5C-450.4,431.3-451.2,430.9-452.1,430.5z M-442.6,432.7c-0.2,0-0.3,0-0.4,0c-0.8-0.7-1.4-1.3-2-2.2
			c-0.5-0.7-0.9-1.4-1.4-2.1c0.3,0,0.5,0,0.8,0c0.2,0,0.4,0,0.5,0c0.2,0.8,0.7,1.6,1.1,2.2c0.5,0.7,1,1.6,1.8,2.1
			C-442.4,432.7-442.6,432.7-442.6,432.7z M-376.7,428.8c-0.3-0.5-0.5-1.1-0.9-1.6c-0.1-0.1-0.2-0.3-0.3-0.4c0.4,0,0.7-0.1,1.1-0.1
			c0.5,0.7,1,1.4,1.6,2C-375.7,428.7-376.2,428.8-376.7,428.8z M-374.6,428.7c-0.4-0.8-0.8-1.4-1.3-2.1c0.5-0.1,0.9-0.2,1.4-0.3
			c0.2,0.4,0.5,0.8,0.8,1.2c0.3,0.3,0.5,0.7,0.8,1.1C-373.5,428.6-374.1,428.6-374.6,428.7z M-372.5,428.6c-0.3-0.8-0.7-1.8-1.2-2.5
			c0.3-0.2,0.7-0.3,1-0.5c0.2,0.3,0.5,0.6,0.7,1c0.4,0.5,0.6,1.1,1.1,1.5C-371.4,428.4-372,428.5-372.5,428.6z M-370.4,428
			L-370.4,428c-0.2-0.7-0.7-1.4-1-2c-0.1-0.2-0.3-0.5-0.5-0.8c0.3-0.2,0.5-0.4,0.8-0.6c0.1,0,0.1-0.1,0.2-0.2
			c0.1,0.2,0.3,0.4,0.5,0.6c0.4,0.5,0.9,0.9,1.3,1.4h0.1C-369.4,427-369.8,427.5-370.4,428z M-368.3,425.1c-0.1,0.3-0.3,0.7-0.5,1
			c-0.4-0.5-0.7-1.1-1.1-1.6c-0.2-0.3-0.4-0.5-0.6-0.8c0.2-0.2,0.4-0.6,0.6-0.9c0.2,0.2,0.4,0.3,0.5,0.4c0.4,0.4,0.9,0.8,1.4,1
			C-368.2,424.5-368.3,424.9-368.3,425.1z M-367.6,422c-0.1-0.1-0.2-0.3-0.5-0.4c-0.3-0.3-0.7-0.7-1.1-0.8c0.2-0.6,0.3-1.2,0.3-1.8
			c0.1,0.2,0.3,0.3,0.4,0.5c0.3,0.3,0.7,0.6,1.1,0.9C-367.5,420.9-367.5,421.5-367.6,422z M-367.3,418.9c0,0.4,0,0.8-0.1,1.1
			c-0.3-0.3-0.6-0.6-0.8-1c-0.2-0.4-0.4-0.7-0.7-1c0-0.4,0-0.9,0-1.3c0-0.1,0-0.2,0-0.3c0.5,0.5,1.1,0.9,1.6,1.3
			C-367.3,418.1-367.3,418.5-367.3,418.9z"/>
		<path d="M-447.9,427.3c-0.9-0.1-1.7-0.2-2.6-0.4C-449.6,427.1-448.8,427.2-447.9,427.3z"/>
		<path d="M-450.5,426.9c-0.9-0.2-1.7-0.5-2.5-0.8C-452.2,426.4-451.4,426.7-450.5,426.9z"/>
	</g>
	<g>
		<path fill="#5F93FF" stroke="#5F93FF" stroke-miterlimit="10" d="M-371.3,409.8c0.6,3.2,1.7,6.9,1.1,10.2
			c-0.1,0.5-0.2,0.9-0.4,1.3c-0.1,0.1-0.2,0.2-0.2,0.4c-0.5,1-1.3,1.8-2.2,2.3l0,0c-0.2-0.1-0.3,0.1-0.3,0.3
			c-1.4,0.7-3.1,1.1-4.8,1.2c-14.9,1.3-30.2,1.3-45.2,1.6c-7.7,0.1-15.7,0.6-23.4,0.1c-3.4-0.2-7.2-1-9.5-3.7
			c-0.7-0.8-1.2-1.8-1.5-2.7c-0.3-1.6-0.5-3.3-0.6-5c0.1-1.7,0.3-3.3,0.5-4.9c0-0.3-0.4-0.4-0.4-0.1c-0.1,0.5-0.2,1.1-0.3,1.6
			c0-0.3,0-0.5,0-0.8l0,0c-0.1-2.3-0.2-6.8,0-9.1c0.2-2.4,1-4.6,3.5-5.4c1.8-0.6,3.9-0.6,5.7-0.8c7.6-0.8,15.3-0.5,22.8-1.2
			c14.6-1.4,29.3-2.6,44-1.6c2.6,0.2,5.1,0.3,6.8,1.6c0,0.3,0.1,0.6,0.5,0.7c0.2,0,0.3,0.1,0.4,0.1c0.6,0.7,1,1.5,1.2,2.7
			c0.2,0.9,0.4,1.9,0.6,2.8v0.1c0,0.1,0.1,0.3,0.1,0.4C-372.3,404.4-371.8,407.1-371.3,409.8z"/>
		<path d="M-456.4,425.2c-0.1-0.2-0.2-0.5-0.2-0.8c0.2,0.4,0.5,0.6,0.8,0.9c0,0.1,0.1,0.2,0.1,0.3c1.7,1.1,3.8,1.8,5.4,2.2
			c0.3,0.1,0.5,0.1,0.8,0.1c0,0,0,0,0,0c0.4,0.1,0.7,0.1,1,0.2h0l0,0c0,0,0,0,0,0c0.5,0.1,2.4,0.2,4.6,0.2c0.2,0,0.4,0,0.7,0
			c0,0,0,0,0,0c0.2,0,0.4,0,0.6,0c0,0,0,0,0,0c0.5,0,1,0,1.5,0v0c0.1,0,0.2,0,0.3,0c0,0,0,0,0,0c0.5,0,0.9,0,1.4,0c0,0,0,0,0,0
			c0.1,0,0.2,0,0.3,0c0,0,0,0,0,0c2,0,3.9,0,5.9,0c13-0.1,40.3-0.9,49.8-1.3c0,0,0,0,0,0c0.3,0,0.5,0,0.7,0c0,0,0,0,0,0
			c0.4,0,0.8,0,1.1,0c0,0,0,0,0-0.1c0.3,0,0.5,0,0.8,0c0,0,0,0,0,0c0.4,0,0.7,0,0.8,0h0c0.2,0,0.5,0,0.7,0c1.9-0.2,6.4-1.2,6.6-1.4
			c1.6-0.8,3.1-3.5,3.1-3.5c0.1-0.3,0.2-0.6,0.3-0.9c0,0,0,0,0,0c0-0.1,0.1-0.3,0.1-0.4c0.2-0.6,0.4-5.2,0.2-5.4c0,0,0,0,0,0
			c-0.1-0.7-0.2-1.4-0.3-2.1c0,0,0,0,0,0c0-0.2-0.1-0.4-0.1-0.6c0,0,0,0,0,0c0-0.1-0.1-0.3-0.1-0.4c-0.1-0.7-0.3-1.3-0.3-1.6
			c-0.1-0.4-0.4-2.1-0.7-3.8c0,0-0.1-0.1-0.1-0.1c-0.1-0.5-0.2-1-0.3-1.5c0.1,0,0.1,0.1,0.2,0.1c-0.1-0.5-0.2-0.9-0.2-1.3
			c0,0,0,0,0,0c0-0.1,0-0.2,0-0.3c-0.2-0.8-0.3-1.4-0.3-1.4l-0.1-0.1c0-0.2-0.1-0.5-0.1-0.8c0,0,0.1,0,0.1,0.1
			c-0.1-0.7-0.2-1.6-0.2-1.8c0,0.1-1.2-4.4-2-4.7c0-0.1-0.1-0.1-0.1-0.2c-1.9-2.3-5.5-2.3-8.2-2.5c-2.2-0.1-4.4-0.2-6.6-0.2
			c-1.1,0-2.2,0-3.3,0s-2.2,0.1-3.3,0.1c-3.4,0.2-6.7,0.2-10.1,0.3c-2.2,0.1-4.5,0.1-6.7,0.2c-3.3,0.1-6.7,0.3-10.1,0.7
			c-2.5,0.3-5.1,0.4-7.6,0.6s-5.1,0.2-7.7,0.4c-1.3,0.1-2.6,0.1-3.8,0.2c-2.6,0.1-5.1,0.3-7.7,0.5c-1.3,0.1-2.5,0.2-3.8,0.4
			c-3,0.3-5.6,1.2-6.7,4.2c-0.6,1.7-0.8,3.9-0.8,6.3c0,0.7,0,1.3,0,2c0.1,2.4,0.2,4.7,0.3,6.4c0,0.4,0.3,0.6,0.6,0.6
			c0,2.6,0.2,5.3,0.8,7.8c0,0,0,0,0,0C-458,423.7-457.3,424.5-456.4,425.2z M-458,418.5c-0.1-0.8-0.2-1.7-0.2-2.5
			c0-0.9,0.1-1.7,0.2-2.5c0.1-0.8,0.2-1.6,0.3-2.4c0,0,0-0.1,0-0.1c0-0.1-0.2-0.1-0.3-0.1c0,0-0.1,0-0.1,0c-0.1,0.5-0.2,1.1-0.3,1.6
			v-0.8c-0.1-2.3-0.2-6.8,0-9.1c0.2-2.4,1-4.6,3.5-5.4c1.3-0.4,2.8-0.5,4.3-0.6c0.5,0,1-0.1,1.4-0.2c4.7-0.4,9.5-0.5,14.3-0.7
			c2.9-0.1,5.7-0.2,8.5-0.5c14.6-1.4,29.3-2.6,44-1.6c0.3,0,0.6,0,1,0.1c1.3,0.1,2.5,0.2,3.6,0.5c0.8,0.2,1.6,0.5,2.2,1
			c0,0.1,0,0.2,0,0.2c0,0.1,0.1,0.3,0.2,0.4c0.1,0,0.1,0.1,0.2,0.1c0,0,0.1,0,0.2,0c0.1,0,0.2,0,0.2,0c0.5,0.7,0.9,1.6,1.2,2.7
			c0.1,0.5,0.2,0.9,0.3,1.4c0.1,0.5,0.2,0.9,0.3,1.4v0.1c0,0.2,0.1,0.3,0.1,0.4c0.2,0.7,0.3,1.4,0.4,2c0.3,1.4,0.5,2.7,0.7,4
			c0.1,0.7,0.2,1.4,0.4,2c0.1,0.4,0.2,0.8,0.2,1.3c0.3,1.3,0.5,2.6,0.8,3.8c0.1,0.9,0.2,1.7,0.3,2.6c0,0.9,0,1.7-0.2,2.5
			c0,0.3-0.1,0.5-0.2,0.7c-0.1,0.2-0.1,0.4-0.1,0.5c-0.2,0.1-0.3,0.2-0.2,0.4c-0.5,1-1.3,1.7-2.2,2.3c-0.1,0-0.3,0.1-0.3,0.3
			c-0.7,0.3-1.5,0.6-2.3,0.8c-0.4,0.1-0.8,0.2-1.2,0.2s-0.8,0.1-1.3,0.1c-15,1.3-30.2,1.3-45.2,1.6c-1.9,0-3.9,0.1-5.8,0.1
			c-5.9,0.2-11.8,0.3-17.6,0c-0.4,0-0.9-0.1-1.3-0.1c-0.9-0.1-1.7-0.2-2.6-0.4s-1.7-0.5-2.5-0.8c-1.2-0.5-2.3-1.3-3.1-2.3
			c-0.7-0.8-1.2-1.7-1.5-2.7C-457.7,420.1-457.9,419.3-458,418.5z"/>
	</g>
</g>
</svg>
