<?xml version="1.0" encoding="utf-8"?>
<!-- Generator: Adobe Illustrator 19.0.0, SVG Export Plug-In . SVG Version: 6.00 Build 0)  -->
<svg version="1.1" id="Слой_2" xmlns="http://www.w3.org/2000/svg" xmlns:xlink="http://www.w3.org/1999/xlink" x="0px" y="0px"
	 viewBox="-250 400.1 94.1 41.8" style="enable-background:new -250 400.1 94.1 41.8;" xml:space="preserve">
<style type="text/css">
	.st0{fill:#5F93FF;}
</style>
<g id="XMLID_1_">
	<g>
		<path class="st0" d="M-161.5,434.1l-0.1,0.1c0-0.1,0.1-0.3,0.1-0.5c0.6-0.1,1.1-0.6,1.6-0.9c0.3-0.3,0.7-0.5,1-0.8
			c-0.2,0.4-0.3,0.8-0.5,1.2C-160.2,433.5-160.9,433.8-161.5,434.1z"/>
		<path class="st0" d="M-160.6,432c-0.3,0.2-0.6,0.3-0.9,0.5c0-0.2,0.1-0.5,0.1-0.8l0.1-0.1c0.5-0.3,1-0.6,1.5-0.9
			c0.5-0.2,1.1-0.6,1.5-1c-0.1,0.5-0.3,1-0.4,1.5C-159.3,431.5-159.9,431.8-160.6,432z"/>
		<path class="st0" d="M-158.3,428.8c-0.4,0.1-0.8,0.4-1.2,0.7c-0.5,0.3-1,0.6-1.5,0.9c-0.1,0.1-0.2,0.1-0.3,0.2
			c0-0.2,0.1-0.5,0.1-0.7c0.6-0.3,1-0.8,1.5-1.2c0.6-0.5,1.2-1,1.8-1.5c0,0.3,0,0.6-0.1,0.9C-158,428.4-158.1,428.6-158.3,428.8z"/>
		<path class="st0" d="M-160,428.2c-0.2,0.2-0.5,0.4-0.8,0.6c0.1-0.5,0.2-1,0.3-1.5c0.4-0.4,0.8-0.8,1.2-1.1
			c0.5-0.4,1.2-0.8,1.7-1.3c-0.1,0.6-0.1,1.2-0.2,1.8C-158.6,427.2-159.3,427.7-160,428.2z"/>
		<path class="st0" d="M-159.8,425.6c-0.1,0.1-0.4,0.2-0.6,0.4c0.1-0.4,0.2-0.9,0.3-1.3c0.4-0.3,0.7-0.5,1-0.8
			c0.6-0.5,1.3-1,1.7-1.6c0,0.6-0.1,1.3-0.1,1.9C-158.3,424.5-159,425-159.8,425.6z"/>
		<path class="st0" d="M-159.6,423.1c0,0.1-0.1,0.2-0.2,0.2c0.1-0.7,0.3-1.3,0.4-2c0.6,0,1.1-0.4,1.6-0.7c0.1-0.1,0.3-0.2,0.5-0.3
			c-0.1,0.6-0.1,1.1-0.1,1.6C-158.2,422.1-158.9,422.7-159.6,423.1z"/>
		<path class="st0" d="M-158.2,420c-0.3,0.2-0.8,0.4-1.1,0.6c0.1-0.7,0.2-1.4,0.3-2.1c0.1-0.2,0.3-0.4,0.4-0.5
			c0.5-0.5,0.9-0.9,1.3-1.4c0,1,0,1.9,0,2.9C-157.6,419.7-157.9,419.9-158.2,420z"/>
		<path class="st0" d="M-158.9,417.7c0-0.1,0-0.2,0-0.3c0-0.4,0-0.9,0-1.3c0.3-0.3,0.5-0.7,0.7-1c0.3-0.3,0.5-0.7,0.8-1
			c0.1,0.3,0.1,0.7,0.1,1.1s0,0.8,0,1.2C-157.8,416.8-158.4,417.2-158.9,417.7z"/>
		<path class="st0" d="M-158.4,414.6c-0.1,0.2-0.3,0.3-0.4,0.5c-0.1-0.6-0.2-1.2-0.3-1.8l0,0c0.4-0.1,0.8-0.5,1.1-0.8
			c0.1-0.1,0.3-0.2,0.4-0.4c0.1,0.5,0.2,1.1,0.2,1.6C-157.8,414-158.1,414.3-158.4,414.6z"/>
		<path class="st0" d="M-158.4,412.1c-0.3,0.3-0.7,0.5-1,0.8c-0.1-0.3-0.2-0.6-0.3-0.9c0.2-0.2,0.4-0.4,0.6-0.6
			c0.4-0.4,0.8-0.8,1.1-1.2c0.1,0.4,0.2,0.9,0.3,1.3C-157.9,411.7-158.1,411.9-158.4,412.1z"/>
		<path class="st0" d="M-159.6,410.8c-0.2,0.2-0.3,0.3-0.5,0.4c-0.2-0.3-0.4-0.6-0.6-0.9c0.2-0.3,0.4-0.5,0.6-0.8
			c0.4-0.5,0.7-1.1,1.1-1.6l0,0c0.2,0.3,0.4,0.6,0.5,1c0.2,0.3,0.3,0.7,0.4,1l0,0C-158.6,410.1-159,410.5-159.6,410.8z"/>
		<path class="st0" d="M-160.5,409.2c-0.1,0.2-0.3,0.4-0.5,0.6c0,0-0.1-0.1-0.2-0.2c-0.2-0.2-0.5-0.4-0.8-0.6
			c0.2-0.2,0.3-0.5,0.5-0.8c0.4-0.6,0.8-1.3,0.9-2h0.1c0.7,0.4,1.1,0.9,1.5,1.5h-0.1C-159.5,408.2-160,408.7-160.5,409.2z"/>
		<path class="st0" d="M-162.7,408.6c-0.3-0.2-0.7-0.4-1-0.5c0.5-0.7,0.9-1.6,1.2-2.5c0.5,0.1,1.1,0.2,1.6,0.4
			c-0.5,0.4-0.8,1-1.1,1.5C-162.2,407.9-162.5,408.2-162.7,408.6z"/>
		<path class="st0" d="M-164.6,407.9c-0.5-0.1-0.9-0.2-1.4-0.3c0.5-0.7,0.9-1.4,1.3-2.1c0.6,0,1.2,0.1,1.8,0.1
			c-0.3,0.3-0.5,0.7-0.8,1.1C-164,407-164.3,407.4-164.6,407.9z"/>
		<path class="st0" d="M-166.8,407.3c-0.4,0-0.7-0.1-1.1-0.1c0.1-0.1,0.2-0.3,0.3-0.4c0.4-0.5,0.6-1,0.9-1.5c0.5,0,1,0.1,1.5,0.1
			C-165.7,406.1-166.2,406.7-166.8,407.3z"/>
		<path class="st0" d="M-168.1,406.6c-0.2,0.3-0.3,0.5-0.5,0.7c-0.5,0-0.9-0.1-1.4-0.1c0.1-0.2,0.2-0.3,0.3-0.5
			c0.2-0.5,0.4-1,0.7-1.5c0.7,0,1.3,0.1,2,0.1C-167.4,405.7-167.8,406.1-168.1,406.6z"/>
		<path class="st0" d="M-170.3,406.2c-0.2,0.2-0.5,0.5-0.6,0.8c-0.3,0-0.5,0-0.8,0c0.1-0.2,0.2-0.4,0.3-0.5c0.2-0.4,0.6-0.9,0.7-1.4
			c0.5,0.1,0.9,0.1,1.3,0.1C-169.7,405.5-170,405.9-170.3,406.2z"/>
		<path class="st0" d="M-171.8,406c-0.2,0.3-0.5,0.6-0.7,0.9c-0.3,0-0.5,0-0.7,0c0.1-0.2,0.2-0.4,0.3-0.6c0.2-0.4,0.3-0.9,0.5-1.3
			c0.4,0.1,0.9,0.1,1.3,0.1C-171.5,405.3-171.7,405.7-171.8,406z"/>
		<path class="st0" d="M-173.5,406.1c-0.1,0.3-0.3,0.5-0.4,0.8c-0.3,0-0.5,0-0.8,0c0-0.1,0-0.2,0.1-0.3c0-0.1-0.1-0.2-0.1-0.1
			c-0.1,0.1-0.2,0.3-0.3,0.4c-0.1,0-0.3,0-0.5,0c0.2-0.3,0.3-0.5,0.5-0.8c0.2-0.3,0.3-0.6,0.4-1c0-0.1,0-0.1-0.1-0.1v-0.1
			c0.7,0,1.3,0.1,2,0.1C-173,405.3-173.2,405.7-173.5,406.1z"/>
		<path d="M-157.3,420.4c-0.1,0.1-0.3,0.2-0.5,0.3c-0.5,0.3-1,0.7-1.6,0.7c-0.1,0.7-0.3,1.3-0.4,2c0.1-0.1,0.1-0.2,0.2-0.2
			c0.7-0.5,1.4-1.1,2.2-1.3C-157.4,421.4-157.3,420.8-157.3,420.4z M-232.6,401.4c-0.2,0-0.3,0-0.4,0c-0.8,0.7-1.4,1.3-2,2.2
			c-0.5,0.7-0.9,1.4-1.4,2.1c0.3,0,0.5,0,0.8,0c0.2,0,0.4,0,0.5,0c0.2-0.8,0.7-1.6,1.1-2.2c0.5-0.7,1-1.6,1.8-2.1
			C-232.4,401.4-232.6,401.4-232.6,401.4z M-163.6,439c0,0.1-0.1,0.1-0.1,0.2c-1.9,2.3-5.5,2.3-8.2,2.5c-4.4,0.3-8.8,0.3-13.2,0.1
			c-9-0.4-17.8-0.3-26.8-1.2c-10.1-1-20.5-0.8-30.6-2c-3-0.3-5.6-1.2-6.7-4.2c-1.4-3.8-0.6-10.7-0.5-14.7c0-0.4,0.3-0.6,0.6-0.6
			c-0.1-7.5,1.8-15.6,9.9-18.1c4.4-1.3,9-0.8,13.5-0.5c5.8,0.4,11.6,0.7,17.4,1.1c11.2,0.7,22.5,1.4,33.8,2.1c2.7,0.2,5.3,0.3,8,0.5
			c1.9,0.1,4.6-0.2,6.4,0.7c3.1,1.5,3.8,6.1,4,9.1c0.4,5.2,0.2,10.9-0.9,16.1C-157.8,434-159.9,437.6-163.6,439z M-158.6,418.2
			c-0.1,0.1-0.2,0.3-0.4,0.5c-0.1,0.7-0.2,1.4-0.3,2.1c0.3-0.2,0.8-0.4,1.1-0.6c0.3-0.2,0.6-0.4,0.9-0.6c0-1,0-2,0-2.9
			C-157.7,417.1-158.1,417.6-158.6,418.2z M-157.4,414.1c-0.3,0.3-0.6,0.6-0.8,1c-0.2,0.4-0.4,0.7-0.7,1c0,0.4,0,0.9,0,1.3
			c0,0.1,0,0.2,0,0.3c0.5-0.5,1.1-0.9,1.6-1.3c0-0.4,0-0.8,0-1.2S-157.3,414.4-157.4,414.1z M-158.9,423.8c-0.3,0.3-0.7,0.5-1,0.8
			c-0.1,0.4-0.2,0.9-0.3,1.3c0.2-0.1,0.4-0.3,0.6-0.4c0.6-0.5,1.3-1,2.1-1.3c0-0.6,0.1-1.3,0.1-1.9
			C-157.8,422.9-158.5,423.4-158.9,423.8z M-158.1,412.5c-0.3,0.3-0.7,0.7-1.1,0.8l0,0c0.2,0.6,0.3,1.2,0.3,1.8
			c0.1-0.2,0.3-0.3,0.4-0.5c0.3-0.3,0.7-0.6,1.1-0.9c-0.1-0.5-0.1-1.1-0.2-1.6C-157.7,412.2-157.8,412.4-158.1,412.5z M-159.4,426.2
			c-0.4,0.3-0.8,0.8-1.2,1.1c-0.1,0.5-0.2,1-0.3,1.5c0.3-0.2,0.6-0.4,0.8-0.6c0.8-0.6,1.5-1.1,2.3-1.5c0.1-0.6,0.2-1.2,0.2-1.8
			C-158.1,425.3-158.8,425.7-159.4,426.2z M-159,411.4c-0.2,0.2-0.4,0.4-0.6,0.6c0.1,0.3,0.2,0.6,0.3,0.9c0.3-0.3,0.7-0.5,1-0.8
			c0.2-0.2,0.4-0.4,0.6-0.6c-0.1-0.4-0.2-0.9-0.3-1.3C-158.2,410.6-158.6,411-159,411.4z M-159.5,428.8c-0.5,0.3-1,0.8-1.5,1.2
			c0,0.2-0.1,0.5-0.1,0.7c0.1-0.1,0.2-0.2,0.3-0.2c0.5-0.3,1-0.6,1.5-0.9c0.4-0.3,0.7-0.6,1.2-0.7c0-0.3,0.1-0.5,0.1-0.8
			c0-0.3,0.1-0.6,0.1-0.9C-158.4,427.8-159,428.3-159.5,428.8z M-158.3,409c-0.1-0.3-0.3-0.7-0.5-1l0,0c-0.4,0.5-0.7,1.1-1.1,1.6
			c-0.2,0.3-0.4,0.5-0.6,0.8c0.2,0.2,0.4,0.6,0.6,0.9c0.2-0.2,0.4-0.3,0.5-0.4c0.4-0.4,0.9-0.8,1.4-1c-0.1,0-0.1,0,0,0
			C-158.2,409.6-158.3,409.2-158.3,409z M-159.8,430.8c-0.5,0.3-1,0.6-1.5,0.9l-0.1,0.1c0,0.2-0.1,0.5-0.1,0.8
			c0.3-0.2,0.6-0.3,0.9-0.5c0.6-0.3,1.2-0.6,1.9-0.9c0.1-0.5,0.3-1,0.4-1.5C-158.7,430.2-159.3,430.5-159.8,430.8z M-160.4,406.1
			h-0.1c-0.1,0.7-0.6,1.4-0.9,2c-0.1,0.2-0.3,0.5-0.5,0.8c0.3,0.2,0.5,0.4,0.8,0.6c0.1,0,0.1,0.1,0.2,0.2c0.1-0.2,0.3-0.4,0.5-0.6
			c0.4-0.5,0.9-0.9,1.3-1.4h0.1C-159.4,407.1-159.8,406.6-160.4,406.1z M-160,432.8c-0.5,0.3-1,0.8-1.5,1c0,0.1-0.1,0.3-0.1,0.5
			c0-0.1,0.1-0.1,0.1-0.1c0.7-0.4,1.4-0.7,2.1-1c0.2-0.4,0.3-0.8,0.5-1.2C-159.3,432.3-159.6,432.5-160,432.8z M-160.5,412.6
			c-0.2-0.1-0.3-0.2-0.2-0.4c-0.5-1-1.3-1.7-2.2-2.3l0,0c-0.1,0-0.3-0.1-0.3-0.3c-1.4-0.7-3.1-1.1-4.8-1.2
			c-15-1.3-30.2-1.3-45.2-1.6c-7.7-0.1-15.7-0.6-23.4-0.1c-3.4,0.2-7.2,0.9-9.5,3.7c-0.7,0.8-1.2,1.7-1.5,2.7
			c-0.3,1.7-0.5,3.3-0.6,5c0,1.7,0.3,3.4,0.5,4.9c0.1,0.2-0.3,0.3-0.4,0.2c-0.1-0.5-0.2-1.1-0.3-1.6c0,0.3,0,0.5,0,0.8l0,0
			c-0.1,2.3-0.2,6.8,0,9.1c0.2,2.4,1,4.6,3.5,5.4c1.8,0.5,3.8,0.5,5.7,0.8c7.5,0.7,15.3,0.4,22.8,1.2c14.6,1.4,29.3,2.6,44,1.6
			c2.6-0.2,5.1-0.3,6.8-1.6c0-0.3,0.1-0.6,0.5-0.7c0.1,0,0.3-0.1,0.4-0.1c0.5-0.7,0.9-1.6,1.2-2.7c0.2-0.9,0.4-1.9,0.6-2.8v-0.1
			c0-0.2,0.1-0.3,0.1-0.4c0.6-2.7,1-5.4,1.5-8.1c0.6-3.3,1.7-6.9,1.1-10.2C-160.3,413.3-160.4,412.9-160.5,412.6z M-162.5,405.5
			c-0.3,0.8-0.7,1.8-1.2,2.5c0.3,0.2,0.7,0.3,1,0.5c0.2-0.3,0.5-0.6,0.7-1c0.4-0.5,0.6-1.1,1.1-1.5
			C-161.4,405.7-162,405.6-162.5,405.5z M-164.6,405.4c-0.4,0.8-0.8,1.4-1.3,2.1c0.5,0.1,0.9,0.2,1.4,0.3c0.2-0.4,0.5-0.8,0.8-1.2
			c0.3-0.3,0.5-0.7,0.8-1.1C-163.5,405.5-164.1,405.5-164.6,405.4z M-167.6,406.9c-0.1,0.1-0.2,0.3-0.3,0.4c0.4,0,0.7,0.1,1.1,0.1
			c0.5-0.7,1-1.4,1.6-2c-0.5,0-1-0.1-1.5-0.1C-167,405.8-167.2,406.4-167.6,406.9z M-169.7,406.6c-0.1,0.2-0.2,0.3-0.3,0.5
			c0.5,0,0.9,0.1,1.4,0.1c0.1-0.3,0.3-0.5,0.5-0.7c0.3-0.4,0.7-0.8,1.1-1.2c-0.7,0-1.3-0.1-2-0.1
			C-169.2,405.7-169.4,406.2-169.7,406.6z M-171.3,406.6c-0.1,0.1-0.2,0.3-0.3,0.5c0.3,0,0.5,0,0.8,0c0.2-0.3,0.4-0.5,0.6-0.8
			c0.3-0.4,0.6-0.7,0.9-1.1c-0.5,0-0.9-0.1-1.3-0.1C-170.8,405.6-171.1,406.1-171.3,406.6z M-173.1,406.4c-0.1,0.2-0.2,0.4-0.3,0.6
			c0.3,0,0.5,0,0.7,0c0.2-0.3,0.5-0.6,0.7-0.9c0.3-0.3,0.6-0.7,0.9-1c-0.4,0-0.9-0.1-1.3-0.1C-172.6,405.4-172.8,405.8-173.1,406.4z
			 M-179.1,404.7c-9.1-0.6-18.3-1.1-27.4-1.7c-8.4-0.5-16.8-1.5-25.2-1.5c0,0,0,0,0,0.1c-0.3,0.9-1.1,1.6-1.7,2.4
			c-0.3,0.5-0.6,1.2-1,1.7c0.4,0,0.8,0,1.2,0c0.6-1.5,1.6-2.9,2.9-3.9c0.1-0.1,0.3,0.1,0.2,0.2c-1,1.2-1.8,2.4-2.5,3.7
			c0.5,0,1,0,1.5,0v-0.1c0.4-1.1,1.3-2.2,2.1-3c0.1,0,0.1,0,0.1,0.1c-0.4,0.5-0.8,1-1.1,1.5c-0.3,0.5-0.5,1-0.8,1.5l0,0
			c0.5,0,0.9,0,1.4,0c0.5-1.1,1.2-2.1,2-3l0,0c-0.6,1-1.1,2-1.7,3c2,0,3.9,0,5.9,0c15.7,0.1,31.4,0.2,47.1,1.1
			c0.2-0.4,0.4-0.7,0.6-1c0.2-0.3,0.4-0.7,0.8-1c-0.1,0.1,0,0.1,0,0c0,0.1,0.1,0.1,0.1,0.3c0,0.4-0.2,0.7-0.4,1
			c-0.1,0.3-0.3,0.6-0.5,0.8c0.1,0,0.3,0,0.5,0c0.1-0.1,0.2-0.3,0.3-0.4c0,0,0.1,0,0.1,0.1s-0.1,0.2-0.1,0.3c0.3,0,0.5,0,0.8,0
			c0.1-0.3,0.2-0.6,0.4-0.8c0.3-0.4,0.5-0.8,0.8-1.2c-0.7,0-1.3-0.1-2-0.1C-176.1,404.7-177.5,404.7-179.1,404.7z M-235.4,401.6
			c-0.2,0.2-0.5,0.4-0.7,0.7c-0.4,0.5-0.8,1.1-1.1,1.6c-0.4,0.6-0.8,1.4-1.3,2c0.5-0.1,0.9-0.2,1.4-0.2c0.4-1.2,1.1-2.3,1.8-3.3
			c0.2-0.3,0.5-0.7,0.8-1C-234.8,401.5-235.2,401.5-235.4,401.6z M-238.2,402.1c-0.4,0.9-1.3,1.5-1.9,2.2c-0.7,0.8-1.3,1.6-1.9,2.4
			c0.8-0.3,1.7-0.5,2.5-0.6c0.4-1.1,1.2-2.2,1.8-3.2c0.2-0.4,0.5-0.8,0.8-1.1C-237.3,401.8-237.8,401.9-238.2,402.1z M-242.1,403.6
			c-0.5,0.8-1.2,1.7-1.7,2.5c-0.3,0.6-0.6,1.1-0.9,1.7c0.3-0.1,0.5-0.3,0.7-0.4c0.5-0.2,1-0.4,1.5-0.6c0.4-1,0.9-1.9,1.6-2.8
			c0.4-0.5,0.8-1,1.3-1.5C-240.4,402.8-241.2,403.2-242.1,403.6z M-246.6,409.7c0.2-0.4,0.5-0.6,0.8-0.9l0,0c0.3-0.9,0.7-2,1.3-2.9
			c-0.4,0.4-0.7,0.9-1,1.4C-246,408-246.4,408.8-246.6,409.7z"/>
		<path class="st0" d="M-162.9,431.9c0,0.1-0.1,0.3-0.1,0.4v0.1c-0.2,0.9-0.4,1.9-0.6,2.8c-0.2,1.2-0.6,2-1.2,2.7
			c-0.1,0-0.2,0.1-0.4,0.1c-0.4,0.1-0.5,0.4-0.5,0.7c-1.7,1.3-4.2,1.4-6.8,1.6c-14.7,1-29.4-0.2-44-1.6c-7.5-0.7-15.2-0.4-22.8-1.2
			c-1.8-0.2-3.9-0.2-5.7-0.8c-2.5-0.8-3.3-3-3.5-5.4c-0.2-2.3-0.1-6.8,0-9.1l0,0c0-0.3,0-0.5,0-0.8c0.1,0.5,0.2,1.1,0.3,1.6
			c0,0.3,0.4,0.2,0.4-0.1c-0.2-1.6-0.4-3.2-0.5-4.9c0.1-1.7,0.3-3.4,0.6-5c0.3-0.9,0.8-1.9,1.5-2.7c2.3-2.7,6.1-3.5,9.5-3.7
			c7.7-0.5,15.7,0,23.4,0.1c15,0.3,30.3,0.3,45.2,1.6c1.7,0.1,3.4,0.5,4.8,1.2c0,0.2,0.1,0.4,0.3,0.3l0,0c0.9,0.5,1.7,1.3,2.2,2.3
			c0,0.2,0.1,0.3,0.2,0.4c0.2,0.4,0.3,0.8,0.4,1.3c0.6,3.3-0.5,7-1.1,10.2C-161.8,426.7-162.3,429.4-162.9,431.9z"/>
		<path class="st0" d="M-174.7,404.9c-0.4,0.3-0.5,0.4-0.7,0.8c-0.2,0.4-0.5,0.6-0.6,1c-15.7-0.8-31.4-1-47.1-1.1c-2,0-3.9,0-5.9,0
			c0.5-1,1-2,1.7-3c0.1,0,0,0,0,0c-0.8,0.9-1.6,1.9-2,3c-0.5,0-0.9,0-1.4,0l0,0c0.3-0.5,0.5-1,0.8-1.5c0.3-0.5,0.7-1,1.1-1.5
			c0-0.1,0-0.2-0.1-0.1c-0.9,0.8-1.8,1.9-2.1,3v0.1c-0.5,0-1,0-1.5,0c0.7-1.3,1.5-2.5,2.5-3.7c0.1-0.2-0.1-0.3-0.2-0.2
			c-1.3,1-2.2,2.4-2.9,3.9c-0.4,0-0.8,0-1.2,0c0.3-0.6,0.6-1.2,1-1.7c0.5-0.8,1.3-1.5,1.7-2.4v-0.1c8.4,0,16.9,1,25.2,1.5
			c9.1,0.6,18.3,1.1,27.4,1.7C-177.5,404.7-176.1,404.8-174.7,404.9L-174.7,404.9C-174.7,404.9-174.8,404.9-174.7,404.9z
			 M-227,404.6c0,0.2,0.2,0.3,0.3,0.2c0.5-0.5,0.8-1.2,1.2-1.8c0.1-0.1-0.1-0.2-0.2-0.1C-226.1,403.5-226.8,404-227,404.6z"/>
		<path d="M-226.7,404.9c-0.1,0.1-0.4,0-0.3-0.2c0.3-0.7,0.9-1.2,1.3-1.8c0.1-0.1,0.3,0,0.2,0.1
			C-225.9,403.6-226.2,404.4-226.7,404.9z"/>
		<path class="st0" d="M-234.1,403.5c-0.4,0.7-0.9,1.4-1.1,2.2c-0.2,0-0.3,0-0.5,0s-0.5,0-0.8,0c0.5-0.7,1-1.4,1.4-2.1
			c0.6-0.9,1.2-1.5,2-2.2c0.2,0,0.3,0,0.4,0c0.2,0,0.3,0,0.5,0C-233,401.9-233.5,402.7-234.1,403.5z"/>
		<path class="st0" d="M-237.2,405.7c-0.5,0.1-0.9,0.1-1.4,0.2c0.5-0.6,0.9-1.3,1.3-2c0.3-0.5,0.7-1.1,1.1-1.6
			c0.2-0.2,0.5-0.4,0.7-0.7c0.3-0.1,0.6-0.1,1-0.1c-0.3,0.3-0.6,0.6-0.8,1C-236,403.4-236.8,404.6-237.2,405.7z"/>
		<path class="st0" d="M-239.5,406c-0.9,0.2-1.7,0.3-2.5,0.6c0.6-0.8,1.2-1.6,1.9-2.4c0.6-0.7,1.5-1.4,1.9-2.2
			c0.4-0.1,0.9-0.2,1.3-0.3c-0.3,0.3-0.6,0.8-0.8,1.1C-238.3,403.8-239.1,404.9-239.5,406z"/>
		<path class="st0" d="M-242.3,406.9c-0.5,0.1-1,0.3-1.5,0.6c-0.3,0.1-0.5,0.3-0.7,0.4c0.3-0.6,0.6-1.2,0.9-1.7
			c0.6-0.8,1.2-1.6,1.7-2.5c0.7-0.5,1.5-0.9,2.3-1.2c-0.5,0.5-0.9,1-1.3,1.5C-241.5,404.9-242.1,405.8-242.3,406.9z"/>
		<path class="st0" d="M-245.9,408.7L-245.9,408.7c-0.3,0.3-0.5,0.6-0.8,0.9c0.3-0.8,0.7-1.6,1.2-2.3c0.3-0.5,0.6-1,1-1.4
			C-245.1,406.8-245.5,407.8-245.9,408.7z"/>
	</g>
</g>
</svg>
