<?xml version="1.0" encoding="utf-8"?>
<!-- Generator: Adobe Illustrator 21.1.0, SVG Export Plug-In . SVG Version: 6.00 Build 0)  -->
<svg version="1.1" id="Слой_2" xmlns="http://www.w3.org/2000/svg" xmlns:xlink="http://www.w3.org/1999/xlink" x="0px" y="0px"
	 viewBox="0 0 94.1 41.8" style="enable-background:new 0 0 94.1 41.8;" xml:space="preserve">
<style type="text/css">
	.st0{fill:#5F93FF;}
	.st1{fill:#1B57AF;}
</style>
<g id="XMLID_1_">
	<g>
		<path class="st0" d="M90.6,8.8c0.2,0.4,0.3,0.8,0.5,1.2c-0.3-0.3-0.7-0.5-1-0.8c-0.5-0.3-1-0.8-1.6-0.9c0-0.2-0.1-0.4-0.1-0.5
			l0.1,0.1C89.1,8.2,89.8,8.5,90.6,8.8z"/>
		<path class="st0" d="M91.3,10.8c0.1,0.5,0.3,1,0.4,1.5c-0.4-0.4-1-0.8-1.5-1c-0.5-0.3-1-0.6-1.5-0.9l-0.1-0.1
			c0-0.3-0.1-0.6-0.1-0.8c0.3,0.2,0.6,0.3,0.9,0.5C90.1,10.2,90.7,10.5,91.3,10.8z"/>
		<path class="st0" d="M92,13.9c0.1,0.3,0.1,0.6,0.1,0.9c-0.6-0.5-1.2-1-1.8-1.5c-0.5-0.4-0.9-0.9-1.5-1.2c0-0.2-0.1-0.5-0.1-0.7
			c0.1,0.1,0.2,0.1,0.3,0.2c0.5,0.3,1,0.6,1.5,0.9c0.4,0.3,0.8,0.6,1.2,0.7C91.9,13.4,92,13.6,92,13.9z"/>
		<path class="st0" d="M92.2,15.3c0.1,0.6,0.1,1.2,0.2,1.8c-0.5-0.5-1.2-0.9-1.7-1.3c-0.4-0.3-0.8-0.7-1.2-1.1
			c-0.1-0.5-0.2-1-0.3-1.5c0.3,0.2,0.6,0.4,0.8,0.6C90.7,14.3,91.4,14.8,92.2,15.3z"/>
		<path class="st0" d="M92.5,17.8c0,0.6,0.1,1.3,0.1,1.9c-0.4-0.6-1.1-1.1-1.7-1.6c-0.3-0.3-0.6-0.5-1-0.8c-0.1-0.4-0.2-0.9-0.3-1.3
			c0.2,0.2,0.5,0.3,0.6,0.4C91,17,91.7,17.5,92.5,17.8z"/>
		<path class="st0" d="M92.6,20.1c0,0.5,0,1,0.1,1.6c-0.2-0.1-0.4-0.2-0.5-0.3c-0.5-0.3-1-0.7-1.6-0.7c-0.1-0.7-0.3-1.3-0.4-2
			c0.1,0,0.2,0.1,0.2,0.2C91.1,19.3,91.8,19.9,92.6,20.1z"/>
		<path class="st0" d="M92.7,22.5c0,1,0,1.9,0,2.9c-0.4-0.5-0.8-0.9-1.3-1.4c-0.1-0.1-0.3-0.3-0.4-0.5c-0.1-0.7-0.2-1.4-0.3-2.1
			c0.3,0.2,0.8,0.4,1.1,0.6C92.1,22.1,92.4,22.3,92.7,22.5z"/>
		<path class="st0" d="M92.7,25.6c0,0.4,0,0.8,0,1.2c0,0.4,0,0.8-0.1,1.1c-0.3-0.3-0.5-0.7-0.8-1c-0.2-0.3-0.4-0.7-0.7-1
			c0-0.4,0-0.9,0-1.3c0-0.1,0-0.2,0-0.3C91.6,24.8,92.2,25.2,92.7,25.6z"/>
		<path class="st0" d="M92.6,28.3c0,0.5-0.1,1.1-0.2,1.6c-0.1-0.2-0.3-0.3-0.4-0.4c-0.3-0.3-0.7-0.7-1.1-0.8l0,0
			c0.1-0.6,0.2-1.2,0.3-1.8c0.1,0.2,0.3,0.3,0.4,0.5C91.9,27.7,92.2,28,92.6,28.3z"/>
		<path class="st0" d="M92.3,30.5c-0.1,0.4-0.2,0.9-0.3,1.3c-0.3-0.4-0.7-0.8-1.1-1.2c-0.2-0.2-0.4-0.4-0.6-0.6
			c0.1-0.3,0.2-0.6,0.3-0.9c0.3,0.3,0.7,0.5,1,0.8C91.9,30.1,92.1,30.3,92.3,30.5z"/>
		<path class="st0" d="M91.9,32.1L91.9,32.1c-0.1,0.3-0.2,0.7-0.4,1c-0.1,0.4-0.3,0.7-0.5,1l0,0c-0.4-0.5-0.7-1.1-1.1-1.6
			c-0.2-0.3-0.4-0.5-0.6-0.8c0.2-0.3,0.4-0.6,0.6-0.9c0.2,0.1,0.3,0.2,0.5,0.4C91,31.5,91.4,31.9,91.9,32.1z"/>
		<path class="st0" d="M90.9,34.3L90.9,34.3c-0.3,0.6-0.7,1.1-1.4,1.5h-0.1c-0.1-0.7-0.5-1.4-0.9-2c-0.2-0.3-0.3-0.6-0.5-0.8
			c0.3-0.2,0.6-0.4,0.8-0.6c0.1-0.1,0.2-0.2,0.2-0.2c0.2,0.2,0.4,0.4,0.5,0.6C90,33.3,90.5,33.8,90.9,34.3z"/>
		<path class="st0" d="M88,34.5c0.3,0.5,0.6,1.1,1.1,1.5c-0.5,0.2-1.1,0.3-1.6,0.4c-0.3-0.9-0.7-1.8-1.2-2.5c0.3-0.1,0.7-0.3,1-0.5
			C87.5,33.8,87.8,34.1,88,34.5z"/>
		<path class="st0" d="M86.3,35.3c0.3,0.4,0.5,0.8,0.8,1.1c-0.6,0-1.2,0.1-1.8,0.1c-0.4-0.7-0.8-1.4-1.3-2.1
			c0.5-0.1,0.9-0.2,1.4-0.3C85.7,34.6,86,35,86.3,35.3z"/>
		<path class="st0" d="M84.8,36.6c-0.5,0-1,0.1-1.5,0.1c-0.3-0.5-0.5-1-0.9-1.5c-0.1-0.1-0.2-0.3-0.3-0.4c0.4,0,0.7-0.1,1.1-0.1
			C83.8,35.3,84.3,35.9,84.8,36.6z"/>
		<path class="st0" d="M83,36.7c-0.7,0-1.3,0.1-2,0.1c-0.3-0.5-0.5-1-0.7-1.5c-0.1-0.2-0.2-0.3-0.3-0.5c0.5,0,0.9-0.1,1.4-0.1
			c0.2,0.2,0.3,0.4,0.5,0.7C82.2,35.9,82.6,36.3,83,36.7z"/>
		<path class="st0" d="M80.6,36.8c-0.4,0-0.8,0-1.3,0.1c-0.1-0.5-0.5-1-0.7-1.4c-0.1-0.1-0.2-0.3-0.3-0.5c0.3,0,0.5,0,0.8,0
			c0.1,0.3,0.4,0.6,0.6,0.8C80,36.1,80.3,36.5,80.6,36.8z"/>
		<path class="st0" d="M78.9,36.9c-0.4,0-0.9,0-1.3,0.1c-0.2-0.4-0.3-0.9-0.5-1.3c-0.1-0.2-0.2-0.4-0.3-0.6c0.2,0,0.4,0,0.7,0
			c0.2,0.3,0.5,0.6,0.7,0.9C78.3,36.3,78.5,36.7,78.9,36.9z"/>
		<path class="st0" d="M77.3,37c-0.7,0-1.3,0.1-2,0.1V37c0.1,0,0.1,0,0.1-0.1c-0.1-0.4-0.2-0.7-0.4-1c-0.2-0.3-0.3-0.5-0.5-0.8
			c0.2,0,0.4,0,0.5,0c0.1,0.1,0.2,0.3,0.3,0.4c0,0.1,0.1,0,0.1-0.1c-0.1-0.1-0.1-0.2-0.1-0.3c0.3,0,0.5,0,0.8,0
			c0.1,0.3,0.3,0.5,0.4,0.8C76.8,36.3,77,36.7,77.3,37z"/>
		<path d="M92.6,20.1c-0.8-0.2-1.5-0.8-2.2-1.3c-0.1,0-0.1-0.1-0.2-0.2c0.1,0.7,0.3,1.3,0.4,2c0.6,0,1.1,0.4,1.6,0.7
			c0.2,0.1,0.4,0.2,0.5,0.3C92.7,21.2,92.6,20.6,92.6,20.1z M17.8,40.6c-0.8-0.5-1.3-1.4-1.8-2.1c-0.4-0.6-0.9-1.4-1.1-2.2
			c-0.1,0-0.3,0-0.5,0c-0.3,0-0.5,0-0.8,0c0.5,0.7,0.9,1.4,1.4,2.1c0.6,0.9,1.2,1.5,2,2.2c0.1,0,0.2,0,0.4,0
			C17.4,40.6,17.6,40.6,17.8,40.6z M93,11.9c1.1,5.2,1.3,10.9,0.9,16.1c-0.2,3-0.9,7.6-4,9.1c-1.8,0.9-4.5,0.6-6.4,0.7
			c-2.7,0.2-5.3,0.3-8,0.5c-11.3,0.7-22.6,1.4-33.8,2.1c-5.8,0.4-11.6,0.7-17.4,1.1c-4.5,0.3-9.1,0.8-13.5-0.5
			c-8.1-2.5-10-10.6-9.9-18.1c-0.3,0-0.6-0.2-0.6-0.6c-0.1-4-0.9-10.9,0.5-14.7c1.1-3,3.7-3.9,6.7-4.2c10.1-1.2,20.5-1,30.6-2
			c9-0.9,17.8-0.8,26.8-1.2C69.3,0,73.7,0,78.1,0.3c2.7,0.2,6.3,0.2,8.2,2.5c0,0.1,0.1,0.1,0.1,0.2C90.1,4.4,92.2,8,93,11.9z
			 M92.7,25.3c0-0.9,0-1.9,0-2.9c-0.3-0.2-0.6-0.4-0.9-0.6s-0.8-0.4-1.1-0.6c0.1,0.7,0.2,1.4,0.3,2.1c0.2,0.2,0.3,0.4,0.4,0.5
			C91.9,24.4,92.3,24.9,92.7,25.3z M92.7,26.8c0-0.4,0-0.8,0-1.2c-0.5-0.4-1.1-0.8-1.6-1.3c0,0.1,0,0.2,0,0.3c0,0.4,0,0.9,0,1.3
			c0.3,0.3,0.5,0.6,0.7,1s0.5,0.7,0.8,1C92.7,27.6,92.7,27.2,92.7,26.8z M92.6,19.7c0-0.6-0.1-1.3-0.1-1.9c-0.8-0.3-1.5-0.8-2.1-1.3
			c-0.2-0.1-0.4-0.3-0.6-0.4c0.1,0.4,0.2,0.9,0.3,1.3c0.3,0.3,0.7,0.5,1,0.8C91.5,18.6,92.2,19.1,92.6,19.7z M92.4,29.9
			c0.1-0.5,0.1-1.1,0.2-1.6c-0.4-0.3-0.8-0.6-1.1-0.9c-0.1-0.2-0.3-0.3-0.4-0.5c0,0.6-0.1,1.2-0.3,1.8l0,0c0.4,0.1,0.8,0.5,1.1,0.8
			C92.2,29.6,92.3,29.8,92.4,29.9z M92.4,17.1c0-0.6-0.1-1.2-0.2-1.8c-0.8-0.4-1.5-0.9-2.3-1.5c-0.2-0.2-0.5-0.4-0.8-0.6
			c0.1,0.5,0.2,1,0.3,1.5c0.4,0.3,0.8,0.8,1.2,1.1C91.2,16.3,91.9,16.7,92.4,17.1z M92,31.8c0.1-0.4,0.2-0.9,0.3-1.3
			c-0.2-0.2-0.4-0.4-0.6-0.6c-0.3-0.3-0.7-0.5-1-0.8c-0.1,0.3-0.2,0.6-0.3,0.9c0.2,0.2,0.4,0.4,0.6,0.6C91.4,31,91.8,31.4,92,31.8z
			 M92.1,14.8c0-0.3-0.1-0.6-0.1-0.9c0-0.3-0.1-0.5-0.1-0.8c-0.5-0.1-0.8-0.4-1.2-0.7c-0.5-0.3-1-0.6-1.5-0.9
			c-0.1,0-0.2-0.1-0.3-0.2c0,0.2,0.1,0.5,0.1,0.7c0.5,0.4,1,0.9,1.5,1.2C91,13.7,91.6,14.2,92.1,14.8z M92,32.1
			C91.9,32.1,91.9,32.1,92,32.1c-0.5-0.2-1-0.6-1.4-1c-0.1-0.1-0.3-0.2-0.5-0.4c-0.2,0.3-0.4,0.7-0.6,0.9c0.2,0.3,0.4,0.5,0.6,0.8
			c0.4,0.5,0.7,1.1,1.1,1.6l0,0c0.2-0.3,0.4-0.7,0.5-1C91.7,32.8,91.8,32.4,92,32.1z M91.7,12.3c-0.1-0.5-0.3-1-0.4-1.5
			c-0.7-0.3-1.3-0.6-1.9-0.9c-0.3-0.2-0.6-0.3-0.9-0.5c0,0.3,0.1,0.6,0.1,0.8l0.1,0.1c0.5,0.3,1,0.6,1.5,0.9
			C90.7,11.5,91.3,11.8,91.7,12.3z M91,34.3L91,34.3c-0.5-0.5-1-0.9-1.4-1.4c-0.2-0.2-0.4-0.4-0.5-0.6c-0.1,0.1-0.1,0.2-0.2,0.2
			c-0.3,0.2-0.5,0.4-0.8,0.6c0.2,0.3,0.4,0.6,0.5,0.8c0.3,0.6,0.8,1.3,0.9,2h0.1C90.2,35.4,90.6,34.9,91,34.3z M91.1,10
			c-0.2-0.4-0.3-0.8-0.5-1.2c-0.7-0.3-1.4-0.6-2.1-1c0,0-0.1,0-0.1-0.1c0,0.2,0.1,0.4,0.1,0.5c0.5,0.2,1,0.7,1.5,1
			C90.4,9.5,90.7,9.7,91.1,10z M89.8,28.2c0.6-3.3-0.5-6.9-1.1-10.2c-0.5-2.7-0.9-5.4-1.5-8.1c0-0.1-0.1-0.2-0.1-0.4V9.4
			c-0.2-0.9-0.4-1.9-0.6-2.8c-0.3-1.1-0.7-2-1.2-2.7c-0.1,0-0.3-0.1-0.4-0.1c-0.4-0.1-0.5-0.4-0.5-0.7c-1.7-1.3-4.2-1.4-6.8-1.6
			c-14.7-1-29.4,0.2-44,1.6c-7.5,0.8-15.3,0.5-22.8,1.2C8.9,4.6,6.9,4.6,5.1,5.1c-2.5,0.8-3.3,3-3.5,5.4c-0.2,2.3-0.1,6.8,0,9.1l0,0
			c0,0.3,0,0.5,0,0.8c0.1-0.5,0.2-1.1,0.3-1.6c0.1-0.1,0.5,0,0.4,0.2c-0.2,1.5-0.5,3.2-0.5,4.9c0.1,1.7,0.3,3.3,0.6,5
			c0.3,1,0.8,1.9,1.5,2.7c2.3,2.8,6.1,3.5,9.5,3.7c7.7,0.5,15.7,0,23.4-0.1c15-0.3,30.2-0.3,45.2-1.6c1.7-0.1,3.4-0.5,4.8-1.2
			c0-0.2,0.2-0.3,0.3-0.3l0,0c0.9-0.6,1.7-1.3,2.2-2.3c-0.1-0.2,0-0.3,0.2-0.4C89.6,29.1,89.7,28.7,89.8,28.2z M89.1,36
			c-0.5-0.4-0.7-1-1.1-1.5c-0.2-0.4-0.5-0.7-0.7-1c-0.3,0.2-0.7,0.3-1,0.5c0.5,0.7,0.9,1.7,1.2,2.5C88,36.4,88.6,36.3,89.1,36z
			 M87.1,36.5c-0.3-0.4-0.5-0.8-0.8-1.1c-0.3-0.4-0.6-0.8-0.8-1.2c-0.5,0.1-0.9,0.2-1.4,0.3c0.5,0.7,0.9,1.3,1.3,2.1
			C85.9,36.5,86.5,36.5,87.1,36.5z M83.3,36.7c0.5,0,1-0.1,1.5-0.1c-0.6-0.6-1.1-1.3-1.6-2c-0.4,0-0.7,0.1-1.1,0.1
			c0.1,0.1,0.2,0.3,0.3,0.4C82.8,35.6,83,36.2,83.3,36.7z M81,36.8c0.7,0,1.3-0.1,2-0.1c-0.4-0.4-0.8-0.8-1.1-1.2
			c-0.2-0.2-0.4-0.4-0.5-0.7c-0.5,0-0.9,0.1-1.4,0.1c0.1,0.2,0.2,0.3,0.3,0.5C80.6,35.8,80.8,36.3,81,36.8z M79.4,36.9
			c0.4,0,0.8-0.1,1.3-0.1c-0.3-0.4-0.6-0.7-0.9-1.1c-0.2-0.3-0.4-0.5-0.6-0.8c-0.3,0-0.5,0-0.8,0c0.1,0.2,0.2,0.4,0.3,0.5
			C78.9,35.9,79.2,36.4,79.4,36.9z M77.6,37c0.4,0,0.9-0.1,1.3-0.1c-0.3-0.3-0.6-0.7-0.9-1c-0.2-0.3-0.5-0.6-0.7-0.9
			c-0.2,0-0.4,0-0.7,0c0.1,0.2,0.2,0.4,0.3,0.6C77.2,36.2,77.4,36.6,77.6,37z M75.3,37.2c0.7,0,1.3-0.1,2-0.1
			c-0.3-0.4-0.5-0.8-0.8-1.2c-0.2-0.2-0.3-0.5-0.4-0.8c-0.3,0-0.5,0-0.8,0c0,0.1,0.1,0.2,0.1,0.3s-0.1,0.1-0.1,0.1
			c-0.1-0.1-0.2-0.3-0.3-0.4c-0.2,0-0.4,0-0.5,0c0.2,0.2,0.4,0.5,0.5,0.8c0.2,0.3,0.4,0.6,0.4,1C75.4,37.1,75.3,37.1,75.3,37.2
			C75.3,37.1,75.2,37.1,75.3,37.2c-0.4-0.3-0.6-0.7-0.8-1s-0.4-0.6-0.6-1c-15.7,0.9-31.4,1-47.1,1.1c-2,0-3.9,0-5.9,0
			c0.6,1,1.1,2,1.7,3l0,0c-0.8-0.9-1.5-1.9-2-3c-0.5,0-0.9,0-1.4,0l0,0c0.3,0.5,0.5,1,0.8,1.5s0.7,1,1.1,1.5c0,0.1,0,0.1-0.1,0.1
			c-0.8-0.8-1.7-1.9-2.1-3v-0.1c-0.5,0-1,0-1.5,0c0.7,1.3,1.5,2.5,2.5,3.7c0.1,0.1-0.1,0.3-0.2,0.2c-1.3-1-2.3-2.4-2.9-3.9
			c-0.4,0-0.8,0-1.2,0c0.4,0.5,0.7,1.2,1,1.7c0.6,0.8,1.4,1.5,1.7,2.4c0,0.1,0,0.1,0,0.1c8.4,0,16.8-1,25.2-1.5
			c9.1-0.6,18.3-1.1,27.4-1.7C72.5,37.3,73.9,37.3,75.3,37.2z M15.5,40.6c-0.3-0.3-0.6-0.7-0.8-1c-0.7-1-1.4-2.1-1.8-3.3
			c-0.5,0-0.9-0.1-1.4-0.2c0.5,0.6,0.9,1.4,1.3,2c0.3,0.5,0.7,1.1,1.1,1.6c0.2,0.3,0.5,0.5,0.7,0.7C14.8,40.5,15.2,40.5,15.5,40.6z
			 M13.1,40.2c-0.3-0.3-0.6-0.7-0.8-1.1c-0.6-1-1.4-2.1-1.8-3.2c-0.8-0.1-1.7-0.3-2.5-0.6c0.6,0.8,1.2,1.6,1.9,2.4
			c0.6,0.7,1.5,1.3,1.9,2.2C12.2,40.1,12.7,40.2,13.1,40.2z M10.4,39.5c-0.5-0.5-0.9-1-1.3-1.5c-0.7-0.9-1.2-1.8-1.6-2.8
			C7,35,6.5,34.8,6,34.6c-0.2-0.1-0.4-0.3-0.7-0.4c0.3,0.6,0.6,1.1,0.9,1.7c0.5,0.8,1.2,1.7,1.7,2.5C8.8,38.8,9.6,39.2,10.4,39.5z
			 M4.5,34.7c0.3,0.5,0.6,1,1,1.4c-0.6-0.9-1-2-1.3-2.9l0,0c-0.3-0.3-0.6-0.5-0.8-0.9C3.6,33.2,4,34,4.5,34.7z"/>
		<path class="st1" d="M88.7,18c0.6,3.2,1.7,6.9,1.1,10.2c-0.1,0.5-0.2,0.9-0.4,1.3c-0.1,0.1-0.2,0.2-0.2,0.4
			c-0.5,1-1.3,1.8-2.2,2.3l0,0c-0.2-0.1-0.3,0.1-0.3,0.3c-1.4,0.7-3.1,1.1-4.8,1.2C67,35,51.7,35,36.7,35.3
			C29,35.4,21,35.9,13.3,35.4c-3.4-0.2-7.2-1-9.5-3.7c-0.7-0.8-1.2-1.8-1.5-2.7c-0.3-1.6-0.5-3.3-0.6-5c0.1-1.7,0.3-3.3,0.5-4.9
			c0-0.3-0.4-0.4-0.4-0.1c-0.1,0.5-0.2,1.1-0.3,1.6c0-0.3,0-0.5,0-0.8l0,0c-0.1-2.3-0.2-6.8,0-9.1c0.2-2.4,1-4.6,3.5-5.4
			c1.8-0.6,3.9-0.6,5.7-0.8C18.3,3.7,26,4,33.5,3.3c14.6-1.4,29.3-2.6,44-1.6c2.6,0.2,5.1,0.3,6.8,1.6c0,0.3,0.1,0.6,0.5,0.7
			c0.2,0,0.3,0.1,0.4,0.1c0.6,0.7,1,1.5,1.2,2.7c0.2,0.9,0.4,1.9,0.6,2.8v0.1c0,0.1,0.1,0.3,0.1,0.4C87.7,12.6,88.2,15.3,88.7,18z"
			/>
		<path class="st0" d="M75.3,37.1L75.3,37.1c-1.4,0.1-2.8,0.2-4.3,0.3c-9.1,0.6-18.3,1.1-27.4,1.7c-8.3,0.5-16.8,1.5-25.2,1.5v-0.1
			c-0.4-0.9-1.2-1.6-1.7-2.4c-0.4-0.5-0.7-1.1-1-1.7c0.4,0,0.8,0,1.2,0c0.7,1.5,1.6,2.9,2.9,3.9c0.1,0.1,0.3,0,0.2-0.2
			c-1-1.2-1.8-2.4-2.5-3.7c0.5,0,1,0,1.5,0v0.1c0.3,1.1,1.2,2.2,2.1,3c0.1,0.1,0.1,0,0.1-0.1c-0.4-0.5-0.8-1-1.1-1.5
			c-0.3-0.5-0.5-1-0.8-1.5l0,0c0.5,0,0.9,0,1.4,0c0.4,1.1,1.2,2.1,2,3c0,0,0.1,0,0,0c-0.7-1-1.2-2-1.7-3c2,0,3.9,0,5.9,0
			c15.7-0.1,31.4-0.3,47.1-1.1c0.1,0.4,0.4,0.6,0.6,1S74.9,36.8,75.3,37.1C75.2,37.1,75.3,37.1,75.3,37.1z M24.3,39.1
			c0.1,0.1,0.3,0,0.2-0.1c-0.4-0.6-0.7-1.3-1.2-1.8c-0.1-0.1-0.3,0-0.3,0.2C23.2,38,23.9,38.5,24.3,39.1z"/>
		<path d="M24.5,39c0.1,0.1-0.1,0.2-0.2,0.1c-0.4-0.6-1-1.1-1.3-1.8c-0.1-0.2,0.2-0.3,0.3-0.2C23.8,37.6,24.1,38.4,24.5,39z"/>
		<path class="st0" d="M17.8,40.6c-0.2,0-0.3,0-0.5,0c-0.1,0-0.2,0-0.4,0c-0.8-0.7-1.4-1.3-2-2.2c-0.4-0.7-0.9-1.4-1.4-2.1
			c0.3,0,0.6,0,0.8,0s0.3,0,0.5,0c0.2,0.8,0.7,1.5,1.1,2.2C16.5,39.3,17,40.1,17.8,40.6z"/>
		<path class="st0" d="M14.7,39.5c0.2,0.4,0.5,0.7,0.8,1c-0.4,0-0.7,0-1-0.1c-0.2-0.3-0.5-0.5-0.7-0.7c-0.4-0.5-0.8-1.1-1.1-1.6
			c-0.4-0.7-0.8-1.4-1.3-2c0.5,0.1,0.9,0.1,1.4,0.2C13.2,37.4,14,38.6,14.7,39.5z"/>
		<path class="st0" d="M12.3,39.2c0.2,0.3,0.5,0.8,0.8,1.1c-0.4-0.1-0.9-0.2-1.3-0.3c-0.4-0.8-1.3-1.5-1.9-2.2
			C9.2,37,8.6,36.2,8,35.4c0.8,0.3,1.6,0.4,2.5,0.6C10.9,37.1,11.7,38.2,12.3,39.2z"/>
		<path class="st0" d="M9.1,38c0.4,0.5,0.8,1,1.3,1.5c-0.8-0.3-1.6-0.7-2.3-1.2c-0.5-0.9-1.1-1.7-1.7-2.5c-0.3-0.5-0.6-1.1-0.9-1.7
			c0.2,0.1,0.4,0.3,0.7,0.4c0.5,0.3,1,0.5,1.5,0.6C7.9,36.2,8.5,37.1,9.1,38z"/>
		<path class="st0" d="M5.5,36.1c-0.4-0.4-0.7-0.9-1-1.4C4,34,3.6,33.2,3.3,32.4c0.3,0.3,0.5,0.6,0.8,0.9l0,0
			C4.5,34.2,4.9,35.2,5.5,36.1z"/>
	</g>
</g>
</svg>
