<?xml version="1.0" encoding="utf-8"?>
<!-- Generator: Adobe Illustrator 21.1.0, SVG Export Plug-In . SVG Version: 6.00 Build 0)  -->
<svg version="1.2" baseProfile="tiny" xmlns="http://www.w3.org/2000/svg" xmlns:xlink="http://www.w3.org/1999/xlink" x="0px"
	 y="0px" viewBox="0 0 2590.8 1477.7" overflow="scroll" xml:space="preserve" preserveAspectRatio="none">
<g id="Слой_2">
	<path fill="#F3F3F3" d="M2098.2,1276.7c16.6-1,33.2-1.9,49.8-3.4c19.4-1.7,38.8-4.1,58.1-7.2c25.1-4,49.9-9.3,74.4-16.3
		c32.8-9.4,64.3-21.9,94.1-38.6c42.3-23.7,78.2-54.5,106.7-93.5c20.4-27.9,35.8-58.4,47.4-90.8c12-33.5,19.5-68.1,23.9-103.3
		c2.3-18.4,3.9-36.9,5.9-55.4c1.1-10.2,2.4-20.3,3.6-30.5c1.3-11.3,2.8-22.5,4.1-33.8c1.2-11,2.3-21.9,3.2-32.9
		c1.3-16,2.6-32,3.3-48c1-21.1,1.6-42.2,2-63.2c0.3-14.3,0.3-28.7-0.2-43c-0.7-17.9-2-35.8-3.3-53.7c-1.1-16-2.3-32-3.9-48
		c-1.4-13.9-3.1-27.8-5.2-41.7c-3.4-22.6-7.8-45-13.1-67.2c-8.2-34.4-18.5-68.1-31.7-100.9c-14.9-37-33.5-72.1-56.7-104.8
		c-23.7-33.4-51.6-62.9-84.4-87.9c-37-28.1-78-48.6-122.4-62.5c-24.6-7.7-49.6-13.4-75.1-17.2c-17.4-2.6-34.9-4.4-52.5-5.1
		c-12.5-0.5-24.9-0.6-37.4-0.5c-19.4,0.1-38.7,0.5-58.1,0.7c-17.6,0.2-35.2,0.3-52.8,0.4c-28,0.1-56,0.2-84,0.3
		c-25.8,0.1-51.5,0.2-77.3,0.3c-15.2,0.1-30.4,0.1-45.6,0.2c-15.7,0-31.4,0.1-47,0.1c-33.3,0.1-66.6,0.1-99.8,0.2
		c-31,0.1-62.1,0.1-93.1,0.2c-29,0.1-57.9,0.2-86.9,0.3c-12.8,0-25.6,0.1-38.4,0.2c-13.1,0.1-26.2,0.1-39.4,0.1
		c-21.8,0.1-43.5,0.1-65.3,0.2c-47.2,0.2-94.4,0.4-141.6,0.7c-22.9,0.1-45.8,0.2-68.6,0.3c-38.4,0.2-76.8,0.5-115.2,0.8
		c-40.5,0.3-80.9,0.6-121.4,0.9c-28.3,0.2-56.6,0.5-84.9,0.8c-26.6,0.3-53.1,0.6-79.7,0.9c-22.1,0.3-44.1,0.6-66.2,1
		c-34.7,0.6-69.4,1.2-104.1,1.9c-19.2,0.4-38.4,0.9-57.6,1.3c-1.9,0-3.8,0.1-5.8,0.2c-13.2,1.1-26.5,2.1-39.7,3.3
		c-13.5,1.2-27,3.2-40.4,5.6c-32.8,5.9-64.7,15.2-95.5,27.7c-48.4,19.6-91.3,47.4-128.1,84c-27.8,27.6-50.7,58.7-69.6,92.8
		c-18.3,33.2-32.4,68.1-43.3,104.2c-10.9,35.8-18.3,72.3-23.2,109.4c-2.3,17.8-4.2,35.6-5.3,53.6c-0.9,15.9-1.5,31.8-2,47.6
		c-0.3,9.4-0.5,18.9-0.6,28.3c-0.1,13.2-0.2,26.4-0.1,39.7c0.2,14,1.1,28,2.3,42c1.1,12.9,2,25.7,3.3,38.6
		c1.6,15.7,3.3,31.3,5.4,46.9c1.8,14.2,4.1,28.3,6.3,42.5c1.6,10.6,3.8,21.1,5.1,31.7c2.3,18.4,3.9,36.9,6,55.4
		c1,9.4,2.2,18.8,3.6,28.1c1.2,8.3,2.7,16.5,4.1,24.7c2.8,16.3,5.6,32.6,9.5,48.7c8.8,36.3,21.9,71,40.4,103.7
		c15.1,26.7,33.5,51,55.6,72.5c21.9,21.3,46.4,39,73.4,53.6c33.6,18.2,69.3,30.7,106.5,39.5c18.2,4.3,36.6,7.7,55.1,10.2
		c11.7,1.6,23.5,2.9,35.3,3.9c12.1,1,24.3,1.6,36.4,2.3c24.9,1.5,49.9,1.4,74.8,0.4c19.8-0.8,39.6-1.7,59.5-2.4
		c20.1-0.8,40.3-1.5,60.4-2.3c9.6-0.4,19.2-0.9,28.8-1.3c10.7-0.4,21.4-0.8,32.1-1.1c1.2,0,2.5,0.2,3.9,0.2c0,1.2,0.1,2.1,0,3.1
		c-0.3,3.8-0.7,7.5-1,11.3c-1.5,15.4-1.5,30.8,0.1,46.2c2.2,20.5,7.3,40.2,15.5,59.2c9.5,22,23.6,40.7,42.7,55.5
		c6.2,4.8,12.5,9.3,19.6,12.7c0.8,0.4,1.7,0.7,2.9,1.1c0.5-4.6,0.4-8.8-0.1-12.9c-1.9-13.8-2.5-27.6-1.8-41.4
		c0.7-14.8,2.9-29.5,7-43.7c11.1-38.8,34.6-68,70.8-87c14.3-7.5,29.6-12.7,45.3-16.6c10-2.5,20.1-3.9,30.4-3.9
		c10.1,0,20.2-0.1,30.2,0.1c26.7,0.5,53.4,1.1,80.1,1.7c28.8,0.6,57.6,1.3,86.4,1.9c31.5,0.7,63,1.3,94.5,1.9c32,0.6,64,1.3,96,1.9
		c33.6,0.6,67.2,1.3,100.8,1.9c25.8,0.5,51.5,1,77.2,1.5c24.5,0.5,48.9,1,73.4,1.3c25.4,0.4,50.9,0.6,76.3,1c23,0.3,46.1,0.6,69.1,1
		c35.3,0.6,70.7,1.2,106,1.9c21.3,0.4,42.5,0.9,63.8,1.5c30.5,0.8,61.1,1.8,91.6,2.7c17.1,0.5,34.2,1,51.3,1.2
		C2062.1,1278,2080.2,1277.8,2098.2,1276.7z"/>
	<path d="M2590.5,634.7c-0.4-25.3-1.6-50.5-3.3-75.7c-1-15.5-2.3-30.9-3.9-46.4c-2-18.9-4.7-37.8-8.1-56.5
		c-5.3-29.3-12-58.2-20.2-86.8c-9.4-32.6-20.8-64.5-35.4-95.2c-5.8-12.1-12-24-18.3-35.9c-5.5-10.3-11-20.6-17-30.6
		c-19.7-33.2-43.1-63.5-71-90.3c-44.2-42.6-95.7-73-153.9-92.1c-37.4-12.3-75.8-19.5-115-22.8c-19.3-1.6-38.6-2.6-58-2.4
		c-16.2,0.1-32.3,0.6-48.5,0.9c-22.4,0.5-44.8,0.9-67.2,1.4c-26.4,0.5-52.8,1-79.2,1.5c-23.4,0.4-46.7,0.7-70.1,1
		c-32.8,0.4-65.6,0.8-98.4,1.1c-37.3,0.4-74.5,0.7-111.8,1c-42.6,0.3-85.1,0.6-127.7,0.8c-21.6,0.1-43.2,0.2-64.8,0.3
		c-44.2,0.2-88.3,0.5-132.5,0.7c-20.6,0.1-41.3,0.2-61.9,0.2c-35,0.1-70.1,0.2-105.1,0.3c-26.1,0.1-52.2,0.2-78.2,0.3
		c-13.8,0.1-27.5,0.2-41.3,0.2c-23.2,0.1-46.4,0.1-69.6,0.1c-18.2,0-36.5,0.1-54.7,0.2C824.4,10,773.2,10.2,722,10.3
		c-16.6,0.1-33.3,0.1-49.9,0.2c-9,0-17.9,0.1-26.9,0.1c-38.1,0.3-76.1,0.5-114.2,0.8c-13.8,0.1-27.5,0.3-41.3,0.4
		c-10.6,0.1-21.1,0.3-31.7,0.5c-2.1,0-4.2,0-6.1-1c-1.3-0.7-2.5-0.2-3.7,0.2c-2.6,0.7-5.2,1.6-7.9,2c-5.5,0.8-11.1,1.3-16.7,1.8
		c-14.7,1.3-29.2,3.3-43.7,5.8c-34,5.9-67,15.1-99,28c-67.6,27.3-123.8,69.6-168.1,127.4c-22.5,29.3-40.6,61.3-55.5,95.1
		C38.5,314,25.8,358.2,17,403.5c-5.1,26.2-9.3,52.6-11.7,79.2c-1.4,14.8-2.6,29.6-3.4,44.5c-0.8,14.7-1.2,29.4-1.6,44.1
		C0,578.2,0,585.1,0,592c0.1,8.5,0.4,17,0.5,25.4c0.2,16.6,1,33.3,2.3,49.8c1.1,14.7,2.5,29.3,3.8,44c0.6,6.8,1.3,13.7,2.1,20.5
		c1.4,11.8,2.8,23.5,4.4,35.2c2,14.1,4.2,28.1,6.3,42.2c2,13.4,4.2,26.9,6.1,40.3c1.9,13.8,3.5,27.6,5.2,41.4
		c1.8,14.4,3.6,28.9,5.4,43.3c1.9,15.7,4.2,31.4,7.7,46.8c10.6,47.7,27.7,92.8,53.7,134.3c0.6,0.9,1.1,1.9,1.6,2.9
		c0.6,1.4,1.1,3,1.8,4.4c23.7,40.7,54.4,75,92.7,102.4c31.1,22.3,65,38.8,101.2,51c34.8,11.7,70.7,19,107,23.9
		c22.1,3,44.2,4.4,66.5,5.1c13,0.4,25.9,0.9,38.8,1.3c12.2,0.3,24.3,0.5,36.5-0.1c13.3-0.7,26.5-1.4,39.8-1.9
		c12.9-0.5,25.9-0.9,38.8-1.3c10.1-0.4,20.1-0.7,30.2-1.2c16.3-0.8,32.6-1.6,48.9-2.4c1.6-0.1,3.1,0,5,0c0.1,1.7,0.2,3.1,0.2,4.5
		c-0.2,11.7,0.2,23.3,1.7,35c2,16.3,5.5,32.2,10.9,47.6c8.1,23.1,20.4,43.7,38,60.9c12.3,12.1,26.4,21.7,41.8,29.4
		c2.6,1.3,5.1,1.3,8.1-0.2c-2-7.6-3-14.8-3.4-22.2c-1.3-21.7,0.3-43.2,5.7-64.3c5.4-21.2,14.5-40.6,29.3-57
		c10.8-12,23.3-21.9,37.2-30c24.4-14.1,50.9-20.5,78.9-21.1c15.5-0.3,31-0.1,46.6,0.2c29.3,0.6,58.5,1.6,87.8,2.3
		c31.5,0.7,63,1.3,94.5,1.9c23.2,0.5,46.4,0.8,69.6,1.3c25.3,0.5,50.5,1.1,75.8,1.6c25.3,0.5,50.5,0.9,75.8,1.4
		c23.3,0.5,46.7,1,70,1.5c27.7,0.5,55.3,0.9,83,1.4c25.6,0.5,51.2,1,76.8,1.5c17.1,0.3,34.2,0.7,51.3,0.9c32,0.4,64,0.7,96,1.1
		c13.4,0.1,26.9,0.1,40.3,0.5c25.7,0.7,51.5,1.6,77.2,2.3c29.5,0.9,59,1.8,88.5,2.6c0.1,0.1,0.2,0.2,0.4,0.3
		c0.5,0.3,1.2,0.2,1.7-0.2c2.3,0.1,4.6,0.1,6.9,0.2c23.2,0.6,46.4,1,69.6,0.6c9.4-0.2,18.9-0.3,28.3-0.7c15.7-0.7,31.3-1.4,47-2.4
		c12.9-0.8,25.8-1.9,38.7-3.2c14.5-1.5,28.9-3.8,43.2-6.3c25-4.5,49.8-10.1,74.2-17.5c33.2-10.1,65-23.4,94.9-41
		c43.1-25.4,79.3-58.2,107.8-99.4c20.6-29.8,35.9-62.2,47.4-96.6c7.4-22.3,13-45.2,17-68.3c2.7-15.1,4.8-30.3,6.1-45.6
		c0.7-8,1.1-16,1.9-23.9c0.7-7.5,1.5-14.9,2.5-22.4c1.3-10.2,2.8-20.3,4-30.4c1.2-10.2,2.2-20.3,3.3-30.5c1.2-11,2.4-21.9,3.4-32.9
		c0.9-10,1.7-20.1,2.3-30.1c0.9-15.3,2.1-30.7,2.3-46C2590.9,682.1,2590.9,658.4,2590.5,634.7z M704,1291.9
		c-1.4,0.2-2.9,0.2-4.3,0.3c-19.5,0.8-39,1.6-58.5,2.3c-25.3,1-50.5,1.9-75.8,3c-21.4,0.9-42.8,2.1-64.3,1.8
		c-16.2-0.2-32.3-0.7-48.4-1.8c-10.4-0.7-20.8-1.3-31.1-2.4c-12.9-1.4-25.7-3-38.5-4.9c-19.4-3-38.7-7-57.7-12.1
		c-35.5-9.5-69.5-22.9-101.3-41.5c-13.8-8.1-27-17.1-39.5-27.2c-1.1-0.8-2-1.8-3.1-2.7c0.4-0.2,0.6-0.4,0.6-0.4
		c1.2,0.7,2.4,1.5,3.6,2.3c16.4,11.5,33.6,21.6,51.7,30.3c26.5,12.7,54.1,22.3,82.5,29.5c21.7,5.5,43.7,9.6,65.9,12.8
		c21.9,3.1,43.9,4.9,65.9,5.7c16.9,0.6,33.9,1.2,50.8,1.7c18.4,0.5,36.8-0.2,55.2-1.4c7.5-0.5,15-0.8,22.5-1.1
		c12.6-0.5,25.3-0.8,37.9-1.3c18.4-0.8,36.8-1.7,55.1-2.5c8.5-0.4,16.9-0.8,25.4-1.1c2.4-0.1,4.8-0.3,7.6,0.7
		c0.2,3.2,0.4,6.2,0.6,9.5C705.8,1291.5,704.9,1291.8,704,1291.9z M1853.7,1291.2c-33.6-0.7-67.2-1.3-100.8-1.9
		c-22.1-0.4-44.1-0.7-66.2-1c-25.8-0.3-51.5-0.6-77.3-1c-21.8-0.3-43.5-0.6-65.3-1c-22.4-0.4-44.8-1-67.2-1.5
		c-24.6-0.5-49.3-0.9-73.9-1.4c-33.9-0.6-67.8-1.3-101.7-1.9c-31.7-0.6-63.3-1.3-95-1.9c-30.7-0.6-61.4-1.3-92.1-1.9
		c-28.6-0.6-57.2-1.3-85.9-1.9c-19.2-0.4-38.4-1-57.6-1.3c-10.2-0.1-20.5,0.2-30.7,0.7c-8.5,0.5-16.8,2.3-25,4.6
		c-16.4,4.6-32.3,10.4-47,19c-26.1,15.3-45.3,36.7-57.7,64.3c-0.6,1.4-1.3,2.9-2,4.3c-1.1-0.7-0.6-1.5-0.4-2.1
		c6.6-22.2,17.6-41.8,34.4-57.9c23.5-22.4,51.3-36.1,83.3-41.3c11.4-1.9,22.9-2.5,34.4-2.6c24.5-0.1,48.9,0.7,73.4,1.5
		c11.7,0.4,23.3,0.6,35,0.8c28.9,0.6,57.9,1.2,86.8,1.7c32.3,0.6,64.6,1.3,96.9,1.9c31.8,0.6,63.6,1.3,95.4,1.9
		c32.3,0.6,64.6,1.3,96.9,1.9c16.8,0.3,33.6,0.6,50.4,1c25.4,0.5,50.9,1,76.3,1.5c27.5,0.5,55,0.9,82.5,1.4
		c24.1,0.4,48.3,0.9,72.4,1.3c14.2,0.2,28.5,0.3,42.7,0.3c29.9,0,59.8,0.8,89.7,1.8c14.1,0.5,28.3,0.9,42.4,1.4
		c0.4,3.5,0.8,7.1,1.9,10.4C1886.7,1292,1870.2,1291.6,1853.7,1291.2z M1905.6,1292.5c-0.2-1.9-0.7-3.9-1.1-5.8
		c-0.3-1.5-0.6-3-0.9-4.6c2.4,0.1,4.8,0.1,7.1,0.2c-0.4,3.3-0.3,8,1.9,10.3C1910.3,1292.7,1908,1292.6,1905.6,1292.5z
		 M1929.5,1293.2c-4.9-0.1-9.8-0.3-14.8-0.4c0-0.1,0.1-0.2,0.1-0.3c0.2-1.7-0.6-3.4-1-5c-0.4-1.6-0.5-3.3-0.6-5
		c4.2,0.1,8.4,0.3,12.5,0.4c-0.1,0.6-0.1,1.3-0.1,1.9c-0.1,1.7-0.5,3.7,0.5,5.1c0.4,0.7,1.4,0.7,1.8,0c0.9-1.5,0.6-3.5,0.5-5.1
		c0-0.6-0.1-1.2-0.1-1.9c2.4,0.1,4.9,0.1,7.3,0.2c0,1.9,0.1,3.8,0.5,5.7c0.3,1.4,0.6,3.1,1.1,4.6
		C1934.6,1293.3,1932,1293.3,1929.5,1293.2z M1941.2,1293.5c-0.6-1.6-1.5-3.2-2-4.9c-0.5-1.8-0.8-3.6-0.9-5.4
		c2.9,0.1,5.7,0.2,8.6,0.3c-0.3,3.3-0.4,6.9,0,10.2C1945,1293.6,1943.1,1293.6,1941.2,1293.5z M1950.4,1293.8
		c-0.2-1-0.5-2.1-0.6-3.1c-0.4-2.4-0.6-4.7-0.8-7.1c1,0,2,0.1,3,0.1c1.1,0,2.3,0.1,3.4,0.1c-0.4,3.1-0.4,6.9,0.4,10.2
		C1954.1,1293.9,1952.3,1293.8,1950.4,1293.8z M1960.1,1294c-0.3-1-0.7-2.1-0.9-3.1c-0.5-2.3-0.6-4.7-0.8-7.1
		c2.4,0.1,4.9,0.1,7.3,0.2c-0.2,2.2-0.3,4.4-0.1,6.6c0.1,1.1,0.1,2.4,0.3,3.5C1964,1294.1,1962,1294.1,1960.1,1294z M1974.5,1294.4
		c-1.8-0.1-3.5-0.1-5.3-0.2c-0.2-1.4-0.5-2.8-0.7-4.3c-0.2-2-0.4-4-0.5-6c2.2,0.1,4.3,0.1,6.5,0.2
		C1974,1287.3,1973.8,1291.2,1974.5,1294.4z M1978.7,1294.6c-0.3-1.1-0.6-2.2-0.8-3.4c-0.4-2.3-0.5-4.6-0.6-6.9
		c1.8,0,3.5,0.1,5.3,0.1c-0.3,2.9-0.1,6.8,0.8,10.3C1981.8,1294.6,1980.2,1294.6,1978.7,1294.6z M1987.6,1294.8
		c-0.2-0.4-0.4-0.8-0.5-1.3c-1-2.9-1.5-6-1.8-9c3.2,0.1,6.4,0.2,9.6,0.2c-0.4,3.4-0.3,7.3,0.9,10.3
		C1993.2,1295,1990.4,1294.9,1987.6,1294.8z M1992.3,1277.2c-30.5-0.9-61.1-1.9-91.6-2.7c-21.3-0.6-42.5-1.1-63.8-1.5
		c-35.3-0.7-70.7-1.3-106-1.9c-23-0.4-46.1-0.7-69.1-1c-25.4-0.3-50.9-0.6-76.3-1c-24.5-0.4-48.9-0.9-73.4-1.4
		c-25.8-0.5-51.5-1-77.2-1.5c-33.6-0.6-67.2-1.3-100.8-1.9c-32-0.6-64-1.3-96-1.9c-31.5-0.6-63-1.3-94.5-1.9
		c-28.8-0.6-57.6-1.3-86.4-1.9c-26.7-0.6-53.4-1.2-80.1-1.7c-10.1-0.2-20.2-0.1-30.2-0.1c-10.3,0-20.4,1.5-30.4,4
		c-15.7,3.9-31,9.2-45.3,16.9c-36.2,19.3-59.7,49-70.8,88.4c-4.1,14.5-6.3,29.4-7,44.4c-0.6,14.1,0,28.1,1.8,42.1
		c0.6,4.2,0.6,8.5,0.1,13.1c-1.2-0.5-2.1-0.7-2.9-1.1c-7.1-3.4-13.5-8-19.6-12.9c-19.1-15.1-33.2-34.1-42.7-56.4
		c-8.2-19.3-13.3-39.3-15.5-60.2c-1.6-15.7-1.6-31.3-0.1-46.9c0.4-3.8,0.7-7.6,1-11.5c0.1-0.9,0-1.9,0-3.1c-1.4-0.1-2.7-0.3-3.9-0.3
		c-10.7,0.3-21.4,0.7-32.1,1.1c-9.6,0.4-19.2,1-28.8,1.4c-20.1,0.8-40.3,1.5-60.4,2.3c-19.8,0.8-39.6,1.7-59.5,2.5
		c-24.9,1-49.9,1.1-74.8-0.4c-12.1-0.7-24.3-1.3-36.4-2.3c-11.8-1-23.6-2.4-35.3-4c-18.5-2.5-36.9-6-55.1-10.3
		c-37.2-8.9-72.9-21.6-106.5-40.1c-26.9-14.8-51.5-32.8-73.4-54.4c-22.1-21.9-40.5-46.5-55.6-73.7c-18.5-33.2-31.6-68.5-40.4-105.4
		c-3.9-16.3-6.8-32.9-9.5-49.4c-1.4-8.4-2.9-16.7-4.1-25.1c-1.4-9.5-2.5-19-3.6-28.6c-2-18.8-3.7-37.6-6-56.3
		c-1.3-10.8-3.5-21.5-5.1-32.2c-2.2-14.4-4.4-28.8-6.3-43.2c-2-15.9-3.8-31.8-5.4-47.7c-1.3-13-2.2-26.1-3.3-39.2
		c-1.2-14.2-2.1-28.4-2.3-42.6c-0.2-13.4-0.1-26.9,0.1-40.3c0.1-9.6,0.3-19.2,0.6-28.8c0.6-16.1,1.1-32.3,2-48.4
		c1.1-18.2,2.9-36.3,5.3-54.4C20.7,416.1,28.2,379,39,342.6c11-36.7,25-72.2,43.3-105.9c18.8-34.7,41.8-66.3,69.6-94.3
		C188.8,105.2,231.7,77,280,57c30.8-12.7,62.7-22.1,95.5-28.2c13.4-2.5,26.8-4.4,40.4-5.7c13.2-1.2,26.4-2.3,39.7-3.4
		c1.9-0.2,3.8-0.2,5.8-0.2c19.2-0.5,38.4-1,57.6-1.3c34.7-0.7,69.4-1.3,104.1-1.9c22.1-0.4,44.1-0.7,66.2-1
		c26.6-0.3,53.1-0.7,79.7-1c28.3-0.3,56.6-0.6,84.9-0.8c40.5-0.3,80.9-0.7,121.4-1c38.4-0.3,76.8-0.5,115.2-0.8
		c22.9-0.1,45.8-0.2,68.6-0.3c47.2-0.2,94.4-0.5,141.6-0.7c21.8-0.1,43.5-0.1,65.3-0.2c13.1,0,26.2-0.1,39.4-0.1
		c12.8,0,25.6-0.1,38.4-0.2c29-0.1,57.9-0.2,86.9-0.3c31-0.1,62.1-0.1,93.1-0.2c33.3-0.1,66.6-0.1,99.8-0.2c15.7,0,31.4-0.1,47-0.1
		c15.2,0,30.4-0.1,45.6-0.2c25.8-0.1,51.5-0.2,77.3-0.3c28-0.1,56-0.1,84-0.3c17.6-0.1,35.2-0.2,52.8-0.4
		c19.4-0.2,38.7-0.6,58.1-0.7c12.5-0.1,25,0,37.4,0.5c17.6,0.8,35.1,2.6,52.5,5.2c25.5,3.9,50.5,9.7,75.1,17.5
		c44.5,14.1,85.5,34.9,122.4,63.5c32.8,25.3,60.7,55.4,84.4,89.3c23.2,33.2,41.8,68.9,56.7,106.5c13.2,33.4,23.5,67.6,31.7,102.5
		c5.3,22.6,9.7,45.3,13.1,68.3c2.1,14.1,3.8,28.2,5.2,42.4c1.6,16.2,2.8,32.5,3.9,48.8c1.3,18.2,2.6,36.4,3.3,54.6
		c0.6,14.5,0.5,29.1,0.2,43.7c-0.4,21.4-1,42.9-2,64.3c-0.7,16.3-2.1,32.6-3.3,48.8c-0.9,11.2-2,22.3-3.2,33.4
		c-1.2,11.4-2.7,22.9-4.1,34.3c-1.2,10.3-2.5,20.6-3.6,31c-2,18.8-3.6,37.6-5.9,56.3c-4.4,35.8-11.8,70.9-23.9,105
		c-11.6,32.9-27,63.9-47.4,92.3c-28.5,39.6-64.4,70.9-106.7,95c-29.7,17-61.3,29.6-94.1,39.2c-24.4,7.1-49.3,12.5-74.4,16.6
		c-19.3,3.1-38.6,5.6-58.1,7.3c-16.6,1.4-33.2,2.4-49.8,3.4c-18.1,1.1-36.1,1.3-54.2,1.1C2026.6,1278.2,2009.5,1277.7,1992.3,1277.2
		z M1999.7,1295.2c-0.5-1.7-1.2-3.3-1.6-4.9c-0.4-1.8-0.6-3.6-0.6-5.4c2.3,0.1,4.5,0.1,6.8,0.1c0.1,3.3,0.6,7,1.6,10.4
		C2003.8,1295.3,2001.7,1295.2,1999.7,1295.2z M2013.4,1295.6c-1.3,0-2.5-0.1-3.8-0.1c-0.5-1.3-0.9-2.5-1.3-3.8
		c-0.6-2.2-1.1-4.4-1.7-6.7c3.7,0.1,7.5,0.2,11.2,0.2c-0.4,3.3-0.4,7.2,0.4,10.5C2016.6,1295.7,2015,1295.7,2013.4,1295.6z
		 M2020.8,1292.4c-0.5-2.4-0.8-4.8-0.9-7.2c1.4,0,2.7,0.1,4.1,0.1c0.9,0,1.8,0,2.8,0c0,2.8,0.9,5.5,1.4,8.2c0.1,0.8,0.2,1.6,0.3,2.4
		c-2.2-0.1-4.4-0.1-6.6-0.2C2021.5,1294.7,2021.1,1293.6,2020.8,1292.4z M2584.1,657.3c-0.3,16.3-0.6,32.6-1,48.9
		c-0.5,20.6-1.4,41.3-3.1,61.8c-1.5,17.8-3.4,35.7-5.3,53.5c-2.1,18.8-4.5,37.5-6.6,56.2c-1.2,10.8-2.2,21.6-3.2,32.5
		c-3.8,41.8-10.8,83.1-24,123.1c-10.8,32.7-25.3,63.6-44.6,92.1c-29,42.9-66.5,76.7-111.3,102.5c-28.6,16.4-58.8,28.9-90.3,38.4
		c-25,7.6-50.4,13.3-76.1,17.6c-15.1,2.5-30.3,4.7-45.6,6.3c-13,1.4-26.1,2.4-39.2,3.4c-16.9,1.4-33.8,2.3-50.8,2.6
		c-16.9,0.3-33.9,0.2-50.8-0.2c-0.3-1.1-0.6-2.3-0.9-3.3c-0.7-2.5-1.6-5.2-3.2-7.3c22.8,0.3,45.6-0.2,68.3-1.3
		c9.3-0.5,18.5-0.8,27.8-1.3c17.7-1,35.4-2.3,53.1-4.5c28.4-3.5,56.6-8.7,84.3-15.7c34.5-8.6,68-20.3,99.8-36.5
		c40.5-20.6,76.3-47.3,106.2-81.7c23.6-27.1,42.2-57.4,56.5-90.3c12.1-27.8,21-56.6,27.2-86.3c4.2-20,7.2-40.3,9.4-60.7
		c0.8-8,1.5-15.9,1.9-23.9c0.6-12.6,2.6-25.1,4.4-37.6c1-6.8,1.7-13.6,2.5-20.5c1.2-10.6,2.4-21.3,3.5-32
		c1.1-11.1,2.3-22.3,3.3-33.4c1-11,1.8-22,2.5-33c0.5-6.4,0.8-12.8,1.1-19.2c1-23.3,1.6-46.7,1.1-70c-0.5-22.4-1.2-44.8-2-67.1
		c-0.4-12.1-1.3-24.3-1.9-36.4c0-0.4,0-0.9,0.1-1.4c1.2,0.7,0.9,1.8,0.9,2.6c1.6,21.9,3.3,43.7,4.7,65.6
		C2584,619.6,2584.5,638.5,2584.1,657.3z"/>
</g>
<g id="Слой_4">
	<path d="M1474.7,1279.3c-0.2-2.3-0.5-4.6-0.8-6.9c-0.2-1.5-2.5-1.5-2.3,0c0.2,2.3,0.3,4.6,0.5,6.9c0.2,1.9,0.1,3.8,1.2,5.4
		c0.3,0.4,1,0.5,1.2,0C1475.3,1283,1474.9,1281.2,1474.7,1279.3z"/>
	<path d="M1480.4,1273c-0.4-1.5-2.5-0.8-2.3,0.6c0.6,3.8,0.9,8.9,3.1,12.2c0.4,0.6,1.5,0.6,1.6-0.2
		C1483.5,1281.6,1481.5,1276.8,1480.4,1273z"/>
	<path d="M1490.5,1279.2c-0.7-2.3-0.5-4.5-0.6-6.8c0-0.7-1.1-1.1-1.5-0.4c-1.8,3.6-1.4,11.8,2.8,13.6c0.6,0.3,1.2-0.4,1.2-0.9
		C1492.5,1282.7,1491.1,1281.1,1490.5,1279.2z"/>
	<path d="M1499.3,1273.3c-0.2-0.6-1.2-0.5-1.2,0.2c-0.1,4.1-0.1,9.7,1.6,13.5c0.3,0.7,1.6,0.6,1.7-0.2
		C1502.2,1282.5,1500.6,1277.2,1499.3,1273.3z"/>
	<path d="M1509.7,1280.6c-0.5-2.5-0.4-5-0.8-7.5c-0.1-0.9-1.5-0.8-1.7,0c-1.3,4.2-1,11.6,1.9,15.1c0.7,0.8,2.1,0.1,2.1-0.9
		C1511.2,1285.1,1510.1,1282.9,1509.7,1280.6z"/>
	<path d="M1517,1271.8c-1.9,4.3-3.3,11.1-0.5,15.3c0.5,0.8,2.1,0.9,2.3-0.3c0.3-2.2-0.2-4.2-0.2-6.4c-0.1-2.6,0.3-5.1,0.7-7.7
		C1519.6,1271.4,1517.6,1270.3,1517,1271.8z"/>
	<path d="M1525.6,1280.8c-0.6-2.1-0.8-4.3-1.2-6.5c-0.1-0.3-0.5-0.3-0.6,0c-1,3.6-0.8,10.2,2.3,12.8c0.5,0.4,1.4,0.2,1.4-0.6
		C1527.3,1284.5,1526.1,1282.8,1525.6,1280.8z"/>
	<path d="M1535,1274.1c-0.4-1.1-2-0.9-2,0.3c-0.1,4.1,0.3,9.5,1.8,13.3c0.5,1.4,2.5,1.2,2.6-0.3
		C1537.7,1283.2,1536.4,1278,1535,1274.1z"/>
	<path d="M1548.1,1289.1c-0.7-2.2-1.6-4.2-2.3-6.4c-0.7-2.4-0.8-4.8-1-7.3c-0.1-0.9-1.2-1-1.5-0.2c-1.8,4.8-1.1,11.4,2.8,15.1
		C1546.9,1291.1,1548.4,1290.3,1548.1,1289.1z"/>
	<path d="M1555.8,1279.3c-0.8-2.9-1.1-5.9-1.4-9c0-0.4-0.7-0.6-0.8-0.1c-1.2,4.9-1,12.9,2.6,16.9c0.6,0.6,1.9,0.2,1.8-0.7
		C1557.7,1283.9,1556.5,1281.7,1555.8,1279.3z"/>
	<path d="M1567.3,1279.6c-0.3-2.7-0.1-5.5,0.2-8.2c0.2-1.4-2-1.6-2.4-0.3c-1.4,5.4-1.9,12.2,1.3,17.1c0.6,0.9,2.2,0.6,2.1-0.6
		C1568.3,1284.9,1567.5,1282.3,1567.3,1279.6z"/>
	<path d="M1577.4,1273c-0.4-1.5-2.5-0.8-2.2,0.6c1,5,1.5,10.4,3.5,15.1c0.4,1,2.2,1,2.1-0.3
		C1580.5,1283.2,1578.7,1278.1,1577.4,1273z"/>
	<path d="M1589,1273.1c-0.4-1-1.8-0.6-1.6,0.4c0.5,2.7,0.7,5.6,0.9,8.3c0.1,2.3-0.2,4.7,0.5,6.8c0.3,0.9,1.8,1.3,2.2,0.3
		C1593.1,1284.3,1590.8,1277.6,1589,1273.1z"/>
	<path d="M1603.6,1280.8c-0.1-1.9-0.1-3.8-0.3-5.7c-0.2-1.3-2.4-1.3-2.6,0c-0.3,1.9-0.3,3.8-0.3,5.7c-0.1,1.8-0.2,3.6,0.5,5.3
		c0.4,0.9,1.9,0.9,2.3,0C1603.9,1284.3,1603.7,1282.6,1603.6,1280.8z"/>
	<path d="M1615.9,1288.2c-0.6-2.2-1.8-4.2-2.5-6.4c-0.7-2.5-1-4.9-1.1-7.4c-0.1-1.3-2-1.7-2.4-0.3c-1.2,5-0.1,12.3,4.4,15.4
		C1615.1,1290.1,1616.1,1289.1,1615.9,1288.2z"/>
	<path d="M1625.2,1288c-0.8-2.6-2-5.1-2.5-7.8c-0.6-3-0.3-5.9-0.3-8.9c0-0.8-1.2-1.2-1.6-0.4c-2.4,5.5-1.5,13.7,2.4,18.3
		C1624,1290,1625.6,1289.1,1625.2,1288z"/>
	<path d="M1637,1289.1c-1.7-6-3.6-11.1-2.7-17.4c0.2-1.4-1.9-2.1-2.2-0.6c-1.1,6.1-1,13.7,2.8,18.9
		C1635.6,1291.1,1637.4,1290.5,1637,1289.1z"/>
	<path d="M1650.2,1289c-1.3-5-3.1-9.5-3.3-14.7c-0.1-1.2-1.7-1.2-1.9,0c-0.6,5.3-0.2,11.1,3,15.6
		C1648.8,1291,1650.5,1290.4,1650.2,1289z"/>
	<path d="M1659.9,1283.2c-0.5-2.9-0.8-5.9-0.9-8.9c0-1.2-1.8-1.2-1.9,0c-0.3,5-0.9,12.1,1.8,16.6c0.6,1,2.1,0.5,2.2-0.6
		C1661.1,1288,1660.3,1285.6,1659.9,1283.2z"/>
	<path d="M1671.9,1282.1c-0.8-2.3-1.2-4.7-2-7c-0.3-0.8-1.8-1.1-1.9,0c-0.4,2.6,0.1,5.4,0.8,7.9c0.6,2.3,1.3,5.3,3.4,6.5
		c0.8,0.5,1.8-0.1,1.8-1C1674.2,1286.3,1672.6,1284.2,1671.9,1282.1z"/>
	<path d="M1683.9,1282c-0.5-2.2-0.7-4.4-0.6-6.6c0-1.7-2.5-1.7-2.6,0c-0.3,3.9-0.4,9.8,2.4,12.9c0.7,0.8,2,0.1,2.1-0.9
		C1685.2,1285.5,1684.3,1283.8,1683.9,1282z"/>
	<path d="M1698.7,1283.7c-0.5-2.7-0.8-5.5-1.2-8.3c-0.1-0.5-0.7-0.6-0.9-0.1c-1.6,4.4-2.2,12.3,1.6,15.9c0.7,0.7,1.7,0.1,1.8-0.7
		C1700.2,1288.1,1699.1,1285.9,1698.7,1283.7z"/>
	<path d="M1707.4,1278c-0.4-1.1-2.4-1-2.2,0.3c0.4,3.7,0.7,8.4,2.5,11.8c0.6,1.2,2.3,0.6,2.4-0.6
		C1710.3,1285.8,1708.5,1281.5,1707.4,1278z"/>
	<path d="M1719,1281.9c-0.2-2.2-0.3-4.4-0.1-6.6c0-0.9-1.5-1.1-1.6-0.2c-0.7,4.1-1.6,10,0.5,13.8c0.6,1,2,0.5,2-0.6
		C1720,1286.3,1719.3,1284.1,1719,1281.9z"/>
	<path d="M1730.1,1287.1c-0.5-1.8-1.2-3.6-1.5-5.4c-0.3-1.8-0.1-3.7-0.4-5.5c-0.1-0.6-1.1-0.7-1.3-0.2c-1.6,3.4-0.8,8.9,1.3,11.9
		C1728.8,1288.8,1730.4,1288.3,1730.1,1287.1z"/>
	<path d="M1738.7,1282.5c-0.5-2.3-0.6-4.7-0.4-7.1c0.1-1.4-2.1-1.7-2.5-0.3c-1,4.2-1.3,11,2.1,14.3c0.8,0.8,2.4,0.3,2.3-1
		C1740.2,1286.3,1739.2,1284.5,1738.7,1282.5z"/>
	<path d="M1751.8,1282.2c-0.5-2.9-0.7-5.9-0.7-8.8c0-1.1-1.7-1.4-2-0.3c-1.2,5.3-1.6,12.3,1.8,16.9c0.7,0.9,2.4,0.7,2.3-0.6
		C1753,1286.9,1752.2,1284.6,1751.8,1282.2z"/>
	<path d="M1764.5,1282.5c-0.5-2.5-1.1-4.9-1.8-7.4c-0.3-1.1-2.1-0.9-2,0.3c0.1,2.7,0.4,5.4,0.7,8c0.3,2.3,0.4,4.5,1.4,6.6
		c0.7,1.4,2.4,0.5,2.6-0.7C1765.7,1287.1,1765,1284.7,1764.5,1282.5z"/>
	<path d="M1774.7,1283.8c-0.4-2.8-0.5-5.7-0.2-8.5c0.1-1.1-1.7-1.3-2-0.3c-1.4,5-2.3,13.1,1.5,17.3c0.8,0.8,2.1,0.2,2.2-0.9
		C1776.3,1288.8,1775.1,1286.3,1774.7,1283.8z"/>
	<path d="M1786.7,1285c-0.5-2.6-0.4-5.1-0.4-7.6c0-1.4-2.1-1.7-2.5-0.3c-1.3,4.4-1.3,11.8,2.1,15.3c0.8,0.8,2.4,0.2,2.3-1
		C1788.2,1289.2,1787.2,1287.2,1786.7,1285z"/>
	<path d="M1798.2,1287.1c-0.8-4-2.2-7.4-1.8-11.7c0.2-1.6-2.5-1.9-2.8-0.4c-0.9,4.4-0.8,9.8,2.3,13.3
		C1797,1289.4,1798.5,1288.3,1798.2,1287.1z"/>
	<path d="M1804.7,1273.2c-0.3-1.1-2.3-1-2.1,0.3c0.6,4.9,0.8,11.2,3.1,15.6c0.6,1.2,2.4,0.6,2.5-0.7
		C1808.5,1283.5,1806.1,1277.8,1804.7,1273.2z"/>
	<path d="M1817.1,1284.2c-0.5-2.9-0.8-5.9-1.1-8.8c-0.1-1-1.7-1.4-1.9-0.3c-0.9,5.3-1.1,12.2,1.9,16.9c0.6,1,2.2,0.6,2.2-0.6
		C1818.2,1288.9,1817.5,1286.6,1817.1,1284.2z"/>
	<path d="M1828.8,1283.8c-0.6-3.1-0.8-6.3-1.2-9.4c-0.1-0.7-1.3-1.1-1.4-0.2c-0.8,5.4-1,12.8,1.7,17.8c0.6,1.1,2.4,0.6,2.3-0.6
		C1830.2,1288.8,1829.3,1286.3,1828.8,1283.8z"/>
	<path d="M1839.7,1286.5c-0.2-2.4,0-4.7,0-7.1c0-1.7-2.6-2.1-3-0.4c-0.5,2.4-0.6,5-0.6,7.5c0,2.2-0.1,4.8,1.3,6.7
		c0.7,0.9,2,0.8,2.4-0.3C1840.5,1290.8,1839.8,1288.6,1839.7,1286.5z"/>
	<path d="M1852.6,1286.1c-0.7-2.5-1.1-5.1-1.4-7.7c-0.1-1.6-2.5-1.7-2.5,0c-0.2,4.7-0.1,11.2,3.3,14.9c0.7,0.7,2,0.2,2-0.8
		C1854,1290.2,1853.2,1288.2,1852.6,1286.1z"/>
	<path d="M1863.9,1286.3c-0.6-3.3-1-6.6-1.1-10c0-1.1-1.6-1.1-1.7,0c-0.5,5.6-1.2,13.6,2,18.5c0.6,0.9,2,0.6,2.1-0.6
		C1865.3,1291.7,1864.4,1289,1863.9,1286.3z"/>
	<path d="M1876,1294.1c-0.9-5-2.7-9.6-3.3-14.7c-0.1-1.1-1.8-1.2-1.8,0c0.3,5.2,0.8,10.8,3.3,15.4
		C1874.8,1295.8,1876.2,1295.1,1876,1294.1z"/>
	<path d="M1884.3,1296c-0.9-4.3-2.3-8.3-2.8-12.6c-0.1-0.5-0.9-0.8-1-0.1c-0.6,4.6-0.6,9.5,1.5,13.8
		C1882.6,1298.4,1884.5,1297.4,1884.3,1296z"/>
	<path d="M1889.5,1281.1c-0.3-0.5-1.2-0.2-1,0.4c1.6,5,1.9,10.1,3.1,15.2c0.3,1.3,2.1,0.9,2.3-0.3
		C1894.4,1291,1892.1,1285.7,1889.5,1281.1z"/>
	<path d="M1372.6,1271.4c-0.1-0.8-1.1-0.8-1.2,0c-0.6,5.9-0.7,12.2,0,18c0.1,0.8,1.1,0.8,1.2,0
		C1373.3,1283.5,1373.1,1277.2,1372.6,1271.4z"/>
	<path d="M1386.6,1282.2c-1.2-4-1.9-7.7-2-11.9c0-0.6-1-0.8-1.2-0.2c-0.7,4.2-0.2,8.8,1.8,12.6
		C1385.6,1283.6,1386.8,1283,1386.6,1282.2z"/>
	<path d="M1403.6,1270.4c0-0.7-1.1-0.9-1.2-0.2c-0.6,4.4-0.7,9.1,0.7,13.4c0.3,0.9,1.8,0.8,1.7-0.2
		C1404.3,1279,1403.6,1274.8,1403.6,1270.4z"/>
	<path d="M1422.6,1273.2c-0.1-0.6-1.2-0.6-1.2,0c-0.3,2.3-0.6,5,0,7.3c0.2,0.6,1.1,0.6,1.2,0
		C1423.2,1278.2,1422.9,1275.6,1422.6,1273.2z"/>
	<path d="M1437.5,1282.4c-0.6-3-0.9-6-0.8-9c0-0.6-1-0.8-1.1-0.1c-1,5.6-1.2,13.1,2.6,17.9c0.6,0.8,1.6-0.1,1.5-0.9
		C1439.2,1287.6,1438,1285.1,1437.5,1282.4z"/>
	<path d="M1451.2,1289.1c-0.7-2.4-2-4.5-2.9-6.8c-0.9-2.3-1.4-4.8-2.3-7.1c-0.4-1-1.7-0.8-1.8,0.2c-0.6,4.7,1.5,11.6,4.8,15
		C1449.9,1291.3,1451.6,1290.4,1451.2,1289.1z"/>
	<path d="M1462.7,1291.3c-0.8-3.3-2.5-6.3-3.4-9.6c-1-3.7-1.4-7.5-1.4-11.3c0-1.1-1.6-1.1-1.7,0c-0.8,7-0.1,16.4,4.6,21.9
		C1461.6,1293.2,1463,1292.3,1462.7,1291.3z"/>
	<path d="M1464.8,1269.2c-0.2-0.8-1.6-0.7-1.5,0.2c0.8,6.7,1.5,13.9,3.8,20.3c0.3,1,1.9,0.9,1.9-0.3
		C1468.7,1282.6,1466.5,1275.6,1464.8,1269.2z"/>
</g>
<g id="Слой_3">
	<path d="M190.6,1217.2c-0.3-1.7-1.3-3.3-1.8-5.1c-0.6-1.9-0.8-3.9-1-5.9c-0.1-1-1.7-1-1.7,0.1c0,3.7,0.7,8.9,3.4,11.7
		C190,1218.6,190.7,1217.8,190.6,1217.2z"/>
	<path d="M200.3,1225.2c-1-1.9-2.3-3.5-3-5.7c-0.7-2.3-0.7-4.6-0.3-7c0.2-1-1.5-1.5-1.8-0.4c-1.2,4.6-0.3,11.3,3.8,14.2
		C199.9,1226.9,200.8,1226.1,200.3,1225.2z"/>
	<path d="M207.5,1229.4c-0.8-2.1-2.1-3.9-2.9-5.9c-0.9-2.3-1.3-4.7-1.6-7.2c-0.1-0.9-1.6-0.9-1.6,0c-0.2,4.6,1.2,10.8,4.6,14.1
		C206.6,1231,207.8,1230.2,207.5,1229.4z"/>
	<path d="M216.6,1234.4c-0.9-1.8-2.3-3.2-3.1-5.1c-0.9-2-1.3-4.1-1.9-6.2c-0.2-0.6-1.1-0.3-1.2,0.2c-0.7,3.9,1.3,10.1,4.9,12.1
		C215.9,1235.8,216.9,1235.1,216.6,1234.4z"/>
	<path d="M226.8,1241.1c-0.9-2-2-3.8-2.7-5.8c-0.8-2.3-1.1-4.6-1.3-7c-0.1-1.1-1.9-1-1.9,0.1c-0.2,4.7,1.1,10.3,4.5,13.8
		C226,1242.7,227.2,1241.9,226.8,1241.1z"/>
	<path d="M236.6,1246c-1.8-3.1-3.1-5.8-2.5-9.5c0.2-1.3-1.8-1.5-2.1-0.2c-0.7,3.7,0.1,8.4,3.1,10.9
		C236,1248,237.2,1246.9,236.6,1246z"/>
	<path d="M243.8,1249.9c-1.6-3.2-3.2-6.1-3.8-9.6c-0.2-1.3-2.1-1-2,0.3c0.5,3.8,1.8,7.6,4.4,10.5
		C243.1,1251.9,244.2,1250.7,243.8,1249.9z"/>
	<path d="M249.5,1246.7c-0.7-2.1-1.2-4.2-1.6-6.4c-0.2-1.2-1.9-0.9-1.8,0.3c0.2,2.3,0.8,4.6,1.5,6.8c0.6,2,1.3,4.2,2.8,5.7
		c0.5,0.5,1.4,0,1.3-0.6C251.3,1250.4,250.2,1248.6,249.5,1246.7z"/>
	<path d="M254.7,1243.1c-0.3-0.9-1.8-0.5-1.6,0.5c1,5,2.1,10.5,4,15.1c0.3,0.9,1.8,0.7,1.7-0.3
		C258.1,1253.3,256.3,1247.9,254.7,1243.1z"/>
	<path d="M266.5,1262.2c-1.1-5-3.1-10-4.4-15c-0.2-1-1.7-0.8-1.6,0.3c0.8,5.1,1.9,11,4.5,15.5
		C265.5,1263.8,266.7,1263.1,266.5,1262.2z"/>
	<path d="M272.8,1265.1c-0.5-2.3-1.4-4.6-2-6.9c-0.5-2.3-0.6-4.8-1.4-7.1c-0.2-0.6-1.1-0.4-1.2,0.2c-0.5,2.3,0.1,4.7,0.5,7
		c0.5,2.6,1.1,5.2,2.4,7.6C271.7,1266.9,273,1266,272.8,1265.1z"/>
	<path d="M279.8,1268.1c-0.7-2.2-1.6-4.2-2.2-6.4c-0.6-2.5-0.8-5-0.9-7.5c0-0.9-1.6-0.9-1.6,0c-0.3,4.8,0.5,10.5,3.2,14.5
		C278.9,1269.6,280.1,1269,279.8,1268.1z"/>
	<path d="M287.9,1271.1c-0.7-2.5-1.8-4.8-2.3-7.3c-0.6-2.8-0.7-5.5-0.7-8.3c0-1.1-1.7-1.3-1.8-0.2c-0.5,5.3,0.2,12,3.2,16.6
		C286.9,1272.7,288.2,1272,287.9,1271.1z"/>
	<path d="M294.7,1271.2c-1.1-5-3.2-10.3-5.3-15c-0.3-0.7-1.5-0.4-1.3,0.4c1.3,5.1,2.8,10.6,5.1,15.3
		C293.6,1272.8,294.8,1272,294.7,1271.2z"/>
	<path d="M301.8,1277.1c-1.1-2.9-2.4-5.6-3.1-8.6c-0.8-3.3-0.8-6.7-0.9-10.1c0-0.9-1.3-1.1-1.5-0.1c-1.1,6.3,0.3,14.2,4,19.5
		C300.8,1278.6,302.1,1278,301.8,1277.1z"/>
	<path d="M308.4,1279.3c-1.4-6.4-3.2-12.4-3.7-19c-0.1-0.8-1.4-0.8-1.5,0c-0.2,6.4,0.6,13.9,3.7,19.7
		C307.4,1280.8,308.6,1280.1,308.4,1279.3z"/>
	<path d="M315.8,1280.1c-0.7-2.5-1.6-4.9-2.2-7.4c-0.6-2.5-0.7-5.1-1.5-7.6c-0.2-0.6-1.1-0.4-1.2,0.2c-0.6,4.8,1.1,11.2,3.4,15.5
		C314.8,1281.7,316,1281,315.8,1280.1z"/>
	<path d="M322.1,1274.3c-0.7-3-1.1-6-1.4-9.1c-0.1-0.8-1.5-0.8-1.5,0c0.1,5.3,0.7,11.8,3.3,16.5c0.4,0.7,1.5,0.3,1.4-0.5
		C323.5,1278.9,322.6,1276.7,322.1,1274.3z"/>
	<path d="M327.9,1269c-0.3-0.6-1.4-0.4-1.2,0.4c1.5,5.4,2.8,10.5,3.5,16.1c0.2,1.1,1.8,1.1,1.8-0.1
		C331.7,1279.8,330.4,1273.9,327.9,1269z"/>
	<path d="M338.6,1273.3c-0.2-0.9-1.7-0.7-1.5,0.2c0.8,3.9,1.1,7.9,1.2,11.9c0,1,1.4,0.9,1.5-0.1
		C340.1,1281.3,339.6,1277.2,338.6,1273.3z"/>
	<path d="M652.7,1296.2c-1.4-4.6-2.6-9-3-13.9c-0.1-0.9-1.6-0.9-1.6,0c0.1,4.9,1.1,10.1,3.4,14.4
		C651.8,1297.5,652.9,1296.9,652.7,1296.2z"/>
	<path d="M662.5,1296.3c-0.5-2.1-1.4-4-1.7-6.2c-0.3-2.2-0.1-4.4,0.4-6.5c0.2-1-1.5-1.4-1.8-0.4c-1.1,4.2-1.2,10.3,1.8,13.8
		C661.7,1297.6,662.7,1297.1,662.5,1296.3z"/>
	<path d="M674.7,1296.2c-2-5.4-3.7-10.1-3.9-15.9c0-0.8-1.5-0.8-1.5,0c0,5.6,1,11.7,4,16.5C673.7,1297.6,675,1297,674.7,1296.2z"/>
	<path d="M683.4,1297.3c-0.7-2.7-1.9-5.1-2.5-7.8c-0.7-3-1-6.1-1.2-9.2c0-0.8-1.5-0.8-1.5,0c-0.2,5.7,0.7,12.7,3.8,17.6
		C682.6,1298.6,683.6,1298.1,683.4,1297.3z"/>
	<path d="M686.6,1279.3c-0.2-0.8-1.4-0.7-1.3,0.2c1,6,2.1,12.3,3.8,18.2c0.2,0.8,1.6,0.6,1.5-0.3
		C689.8,1291.4,688.2,1285.2,686.6,1279.3z"/>
	<path d="M699.8,1297.1c-1.4-6.3-3.2-12.4-4.3-18.8c-0.1-0.9-1.5-0.7-1.4,0.2c0.7,6.4,1.8,13.1,4.1,19.1
		C698.6,1298.6,700,1298.1,699.8,1297.1z"/>
	<path d="M705.7,1297.1c-1.7-5.2-2.8-10.4-3.2-15.9c-0.1-0.7-1.2-0.7-1.2,0c-0.1,5.6,0.8,11.1,2.9,16.3
		C704.5,1298.6,706.1,1298.2,705.7,1297.1z"/>
	<path d="M809.6,1354.1c-0.2-0.8-1.5-0.4-1.4,0.4c0.6,3,1.2,6.2,2.4,9c0.3,0.6,1.4,0.5,1.3-0.2
		C811.5,1360.2,810.5,1357.1,809.6,1354.1z"/>
	<path d="M817.6,1359.2c-2.2-4.9-4.1-9.6-5.1-14.9c-0.1-0.8-1.3-0.6-1.2,0.2c0.7,5.3,2.1,10.8,5,15.3
		C816.7,1360.5,817.9,1360,817.6,1359.2z"/>
	<path d="M820.5,1350.2c-1.5-5-2.7-9.7-3-14.9c0-0.7-1.2-0.6-1.2,0c-0.2,5.1,0.6,10.7,2.8,15.3
		C819.5,1351.5,820.7,1351.1,820.5,1350.2z"/>
	<path d="M826.7,1343.2c-0.7-2.8-1.9-5.5-2.5-8.4c-0.7-2.8-1-5.7-1.6-8.5c-0.1-0.6-1.1-0.7-1.2,0c-0.2,5.6,1.3,12.6,4,17.5
		C825.8,1344.6,826.8,1343.9,826.7,1343.2z"/>
	<path d="M832.8,1337.1c-2.1-4.7-3.2-9.4-3.2-14.6c0-0.8-1.2-1-1.3-0.1c-0.5,5.3,0.6,10.7,3.2,15.4
		C831.9,1338.5,833.2,1337.9,832.8,1337.1z"/>
	<path d="M839.7,1327.2c-2-4.8-3-9.5-3-14.7c0-0.8-1.2-1-1.3-0.1c-0.5,5.3,0.5,10.7,3.1,15.5C838.8,1328.5,840,1327.9,839.7,1327.2z
		"/>
	<path d="M846.7,1320.1c-1.8-5.2-2.9-10.3-3.2-15.9c0-0.7-1.2-0.7-1.2,0c-0.1,5.6,0.8,11.1,3.1,16.3
		C845.7,1321.4,847,1321,846.7,1320.1z"/>
	<path d="M855.5,1310.2c-1.8-4.6-3-9.1-3.6-14c-0.1-1-1.6-0.7-1.5,0.2c0.3,5,1.6,9.9,3.9,14.4C854.6,1311.6,855.8,1311,855.5,1310.2
		z"/>
	<path d="M862.7,1306.2c-1.4-4.7-2.7-8.9-3.1-13.9c-0.1-0.8-1.3-0.7-1.4,0c-0.2,4.7,0.6,10.4,3.2,14.4
		C861.9,1307.4,862.9,1306.9,862.7,1306.2z"/>
	<path d="M865.7,1285.1c-0.2-0.7-1.5-0.4-1.3,0.4c1.1,5,2.1,10.3,3.9,15.1c0.3,0.7,1.6,0.6,1.4-0.3
		C868.8,1295.2,867.2,1290.1,865.7,1285.1z"/>
	<path d="M877.7,1300.1c-1.9-6.3-3.2-12.1-3.1-18.7c0-0.9-1.2-1-1.3-0.1c-0.8,6.4,0,13.7,3.1,19.4
		C876.9,1301.5,878,1300.9,877.7,1300.1z"/>
	<path d="M886.7,1293.2c-2-5.8-3.2-11.5-3.1-17.7c0-0.8-1.3-1-1.3-0.1c-0.3,6.3,0.5,12.5,3,18.3
		C885.7,1294.5,887,1294.1,886.7,1293.2z"/>
	<path d="M894.7,1289.1c-2-5.9-3.1-11.5-3-17.7c0-0.9-1.4-1.1-1.4-0.1c-0.5,6.2,0.4,12.7,2.9,18.3
		C893.6,1290.6,895.1,1290.2,894.7,1289.1z"/>
	<path d="M904.3,1286.4c-2-5.8-3.6-10.7-3.4-16.9c0.1-1.2-1.7-1.4-1.8-0.2c-0.6,5.8,0.1,12.9,3.5,17.9
		C903.2,1288.1,904.7,1287.4,904.3,1286.4z"/>
	<path d="M2584.6,726c-0.9-1.1-1.9-2-2.7-3.1c-0.9-1.2-1.6-2.5-2.2-3.9c-0.4-0.9-1.7-0.3-1.4,0.6c0.8,2.8,2.7,5.9,5.2,7.5
		C2584.2,727.7,2585.1,726.6,2584.6,726z"/>
	<path d="M2585.5,714.8c-2.5-2.3-4.6-4.5-5.9-7.7c-0.4-0.9-1.7-0.3-1.4,0.6c1.1,3.3,3.4,6.6,6.4,8.3
		C2585.4,716.5,2586.2,715.3,2585.5,714.8z"/>
	<path d="M2585.4,704.1c-1.8-3.5-4.5-7-6.9-10.1c-0.5-0.6-1.6,0-1.2,0.7c1.9,3.5,4.2,7.2,6.7,10.3
		C2584.7,705.8,2585.9,705.1,2585.4,704.1z"/>
	<path d="M2587.4,695.2c-1.4-1.8-2.9-3.4-4.1-5.3c-1.2-2.1-2-4.3-2.6-6.6c-0.2-1-1.7-0.8-1.6,0.2c0.7,4.6,3.1,10,7,12.8
		C2586.9,696.7,2588,696,2587.4,695.2z"/>
	<path d="M2588.3,679.3c-1.4-2.1-3.2-3.9-4.6-6c-1.6-2.3-2.9-4.7-4.1-7.2c-0.4-0.9-1.8-0.3-1.4,0.6c1.8,4.8,4.7,10.5,8.8,13.6
		C2587.8,680.9,2588.9,680.1,2588.3,679.3z"/>
	<path d="M2588.6,664.2c-1.7-4.3-4.5-8.5-7-12.4c-0.5-0.8-1.9,0-1.5,0.9c2.1,4.1,4.1,8.6,6.8,12.3
		C2587.5,665.8,2589,665.3,2588.6,664.2z"/>
	<path d="M2589.6,647.3c-0.7-1.8-2.1-3.4-3.2-5c-1.3-1.8-2.5-3.6-3.8-5.3c-0.7-0.9-1.9,0.2-1.4,1.1c1.1,1.8,2.3,3.6,3.5,5.4
		c1.1,1.6,2.1,3.5,3.5,4.8C2588.8,648.7,2589.9,648,2589.6,647.3z"/>
	<path d="M2587.6,622.3c-0.6-1.3-1.8-2.2-2.7-3.3c-1.1-1.2-2.2-2.3-3.3-3.4c-0.8-0.7-2,0.6-1.3,1.3c1,1.2,2.1,2.3,3.1,3.5
		c0.9,1,1.8,2.3,3,3C2587,623.7,2587.9,623,2587.6,622.3z"/>
	<path d="M2585.7,606.2c-0.8-1.8-2.1-3.4-3.3-5c-1.3-1.8-2.5-3.6-3.8-5.3c-0.6-0.9-1.8,0.2-1.3,1c1.1,1.8,2.4,3.6,3.5,5.3
		c1.1,1.6,2.1,3.4,3.5,4.8C2584.9,607.6,2586.1,606.9,2585.7,606.2z"/>
	<path d="M2586.4,589.3c-2.3-5.3-5.8-10.5-9-15.4c-0.5-0.8-1.9,0-1.5,0.9c2.7,5,5.4,10.6,8.9,15.2
		C2585.5,590.8,2586.8,590.3,2586.4,589.3z"/>
	<path d="M2586.4,571.2c-1.2-2.3-3-4.4-4.4-6.6c-1.4-2.2-2.6-4.7-4.2-6.8c-0.5-0.6-1.3,0-1.1,0.7c0.8,2.5,2.3,4.9,3.7,7.1
		c1.4,2.3,2.8,4.8,4.8,6.5C2585.9,572.8,2586.7,571.9,2586.4,571.2z"/>
	<path d="M2585.8,551.1c-1.9-4.2-4.7-8.3-7.2-12.2c-0.5-0.8-1.9,0-1.4,0.9c2.2,4,4.3,8.5,7.1,12.1
		C2584.8,552.6,2586.2,552.1,2585.8,551.1z"/>
	<path d="M2577.7,527.9c-0.4-0.9-0.8-1.8-1.2-2.7c-0.5-1-2-0.3-1.6,0.7c0.4,0.9,0.8,1.8,1.2,2.7c0.4,0.8,0.7,1.7,1.3,2.4
		c0.4,0.5,1.2,0,1.2-0.6C2578.6,529.5,2578.1,528.7,2577.7,527.9z"/>
	<path d="M2576.5,850.8c-3.6-4-7.2-8-11-11.9c-0.6-0.7-1.8,0.2-1.2,0.9c3.6,4.1,7.3,8.2,11.1,12.1
		C2576.2,852.7,2577.2,851.5,2576.5,850.8z"/>
	<path d="M2577.9,840.7c-3.5-4.6-7.3-8.9-10.6-13.6c-0.4-0.6-1.6,0-1.2,0.7c2.9,4.9,6.5,9.9,10.6,13.9
		C2577.4,842.3,2578.4,841.4,2577.9,840.7z"/>
	<path d="M2579.4,830.1c-3.4-5.3-8-10.2-12.1-15c-0.5-0.6-1.5,0.1-1,0.8c3.8,5.1,7.6,10.6,12,15.1
		C2579,831.6,2579.8,830.8,2579.4,830.1z"/>
	<path d="M2581.3,817.2c-1.5-2.1-3.6-3.9-5.4-5.8c-1.9-2.1-3.8-4.2-5.6-6.3c-0.6-0.7-1.7,0.2-1.2,0.9c1.6,2.1,3.2,4.1,5,6.1
		c1.9,2.1,3.7,4.5,6.1,6.1C2580.9,818.7,2581.9,818,2581.3,817.2z"/>
	<path d="M2579.4,803.3c-1.3-1.9-3.3-3.3-4.9-4.9c-1.8-1.7-3.7-3.4-5.7-5c-0.6-0.4-1.3,0.4-0.9,0.9c1.7,1.9,3.5,3.7,5.3,5.4
		c1.6,1.6,3.2,3.4,5.1,4.6C2579,804.8,2579.8,803.9,2579.4,803.3z"/>
	<path d="M2583.6,795c-1.4-2-3.7-3.6-5.5-5.2c-2.1-1.8-4.2-3.7-6.4-5.4c-0.7-0.6-1.9,0.5-1.2,1.2c2,2,4.1,3.8,6.2,5.7
		c1.8,1.6,3.6,3.7,5.8,4.8C2583.3,796.6,2584.1,795.7,2583.6,795z"/>
	<path d="M2583.7,783.1c-1.5-1.9-3.7-3.2-5.6-4.7c-2.1-1.6-4.3-3.2-6.5-4.8c-1-0.7-1.9,0.7-1.1,1.5c1.9,1.8,4,3.4,6,5.1
		c1.9,1.5,3.7,3.4,5.9,4.4C2583.2,785,2584.3,783.9,2583.7,783.1z"/>
	<path d="M2584.4,772.3c-1.4-1.4-3.3-2.1-4.8-3.5c-1.6-1.5-2.6-3.2-3.7-5c-0.6-1-1.9,0-1.6,1c0.7,2.1,2.1,4,3.6,5.6
		c1.4,1.5,3.5,3.4,5.7,3.7C2584.5,774.1,2585.1,773,2584.4,772.3z"/>
	<path d="M2585.5,761.2c-1.5-1.8-3.4-3.2-5.1-4.8c-1.9-1.7-3.6-3.5-5.5-5.1c-0.8-0.7-1.9,0.5-1.3,1.3c1.5,1.9,3.2,3.6,5,5.3
		c1.8,1.7,3.5,3.5,5.6,4.8C2585,763.2,2586.2,762,2585.5,761.2z"/>
	<path d="M2585.8,746.9c-1-1.7-2.8-2.9-4.2-4.2c-1.6-1.5-3.1-2.9-4.8-4.3c-0.8-0.7-2.1,0.6-1.3,1.4c1.5,1.6,3,3.1,4.6,4.7
		c1.4,1.4,2.7,3.1,4.4,4C2585.4,748.8,2586.3,747.7,2585.8,746.9z"/>
	<path d="M2041.1,1286.7c-0.5-2.8-0.8-5.8-1.7-8.5c-0.2-0.5-1-0.4-1,0.2c-0.1,3.3,0.6,6.6,1.1,9.8c0.4,2.8,0.7,5.8,1.6,8.5
		c0.2,0.8,1.4,0.5,1.4-0.3C2042.4,1293.1,2041.7,1289.9,2041.1,1286.7z"/>
	<path d="M2051.8,1294.1c-1.8-4.9-2.9-9.4-2.8-14.7c0-1.2-1.8-1.4-1.9-0.2c-0.4,5.3,0.4,10.9,3.2,15.6
		C2050.8,1295.6,2052.1,1295,2051.8,1294.1z"/>
	<path d="M2058.4,1298.3c-2-6.1-3.7-11.3-3.5-17.9c0-1-1.5-1.2-1.6-0.2c-0.7,6.1,0.1,13.5,3.7,18.7
		C2057.4,1299.8,2058.7,1299.2,2058.4,1298.3z"/>
	<path d="M2066.7,1298.1c-1.9-5.9-3.3-11.4-2.9-17.7c0.1-1.1-1.6-1.3-1.7-0.2c-0.7,6.2,0,13,3.1,18.6
		C2065.7,1299.7,2067,1299,2066.7,1298.1z"/>
	<path d="M2072.5,1280.3c-0.1-0.7-1.3-0.7-1.3,0c0,5.5,0.9,12.2,3.1,17.3c0.3,0.7,1.6,0.7,1.5-0.3
		C2074.9,1291.6,2073.4,1286,2072.5,1280.3z"/>
	<path d="M2085.6,1300.2c-1.8-7-3-13.4-2.8-20.7c0-0.9-1.3-1.1-1.4-0.1c-1,7.1-0.3,15,2.9,21.5
		C2084.6,1301.7,2085.8,1301,2085.6,1300.2z"/>
	<path d="M2095.4,1299.3c-2.4-6.3-3.9-12-3.6-18.8c0-1-1.4-1.2-1.5-0.2c-0.9,6.5,0.2,14,3.7,19.7
		C2094.5,1300.8,2095.8,1300.2,2095.4,1299.3z"/>
	<path d="M2104.7,1296.1c-1.5-5-2.8-9.6-3-14.9c0-0.9-1.6-0.9-1.6,0c-0.2,5.2,0.5,10.9,3,15.6
		C2103.7,1297.7,2105,1297,2104.7,1296.1z"/>
	<path d="M2110.9,1279c-0.2-0.8-1.6-0.4-1.4,0.4c1.2,5.7,2.3,11.8,4.4,17.3c0.3,0.7,1.5,0.6,1.4-0.3
		C2114.5,1290.6,2112.6,1284.7,2110.9,1279z"/>
	<path d="M2126.2,1297.3c-1.8-7-3.6-14-5.1-21.1c-0.2-0.7-1.2-0.6-1.2,0.2c0.6,7.2,2.2,14.7,4.8,21.4
		C2125.1,1298.7,2126.4,1298.3,2126.2,1297.3z"/>
	<path d="M2132.4,1294.1c-2.2-4.3-4.1-8-4.8-12.8c-0.1-1-1.6-0.7-1.5,0.2c0.3,4.7,1.8,10,5.1,13.6
		C2131.9,1295.7,2132.8,1294.8,2132.4,1294.1z"/>
	<path d="M2138.6,1295.2c-1.2-5.4-3-10.9-4.8-16.1c-0.3-0.8-1.7-0.4-1.4,0.4c1.4,5.4,2.7,11,4.6,16.2
		C2137.4,1296.7,2138.8,1296.2,2138.6,1295.2z"/>
	<path d="M2146.4,1298.2c-1.6-6.8-4.3-13.6-6.7-20.2c-0.3-0.9-1.5-0.3-1.3,0.6c2,6.7,3.8,13.7,6.6,20.1
		C2145.4,1299.6,2146.7,1299.2,2146.4,1298.2z"/>
	<path d="M2152.6,1296.2c-1.2-6-3.7-12.4-6-18.1c-0.2-0.6-1.3-0.3-1.1,0.3c1.4,6,3.1,12.6,5.6,18.2
		C2151.5,1297.6,2152.8,1297.2,2152.6,1296.2z"/>
	<path d="M2159.8,1295.1c-2.1-6.2-3.4-12.4-4.3-18.8c-0.1-0.7-1.3-0.7-1.3,0c0.1,6.6,1.7,13.2,4.1,19.3
		C2158.6,1296.6,2160.1,1296.1,2159.8,1295.1z"/>
	<path d="M2171.5,1291c-2.5-5.1-4.2-10.1-5-15.8c-0.1-0.9-1.3-0.6-1.3,0.2c0.3,5.8,2,11.4,5,16.4
		C2170.8,1292.7,2171.9,1291.9,2171.5,1291z"/>
	<path d="M2181.7,1290.1c-1.5-5.4-3.2-10.8-5.2-16c-0.3-0.7-1.4-0.4-1.2,0.4c1.3,5.4,3,10.9,4.9,16.1
		C2180.5,1291.6,2182,1291.2,2181.7,1290.1z"/>
	<path d="M2191.6,1290.2c-2.6-5.4-4.5-9.9-4.8-16c0-0.9-1.6-0.9-1.6,0c-0.2,5.6,1.2,12.3,4.9,16.7
		C2190.6,1291.6,2192.1,1291.2,2191.6,1290.2z"/>
	<path d="M2198.4,1287.4c-0.8-2.2-2.2-4-2.9-6.3c-0.5-1.9,0-4.5-1.2-6c-0.1-0.2-0.5-0.3-0.7-0.1c-1.5,1.6-0.8,4.4-0.3,6.4
		c0.6,2.4,1.6,5.4,3.6,6.9C2197.7,1288.8,2198.7,1288.3,2198.4,1287.4z"/>
	<path d="M2207.5,1284.3c-0.6-1.9-1.7-3.6-2.2-5.6c-0.6-2.4-0.7-4.8-0.4-7.3c0.1-1-1.4-1.1-1.6-0.2c-0.9,4.3-0.5,10.6,2.9,13.8
		C2206.8,1285.7,2207.7,1285,2207.5,1284.3z"/>
	<path d="M2217.6,1284.7c-0.1,0.1-0.2,0.2-0.3,0.2c-2.4-5.1-3.9-10-4.5-15.7c-0.1-1-1.7-1-1.7,0.1c-0.1,6.2,1.7,12.6,5,17.9
		c0.4,0.6,1.3,0.6,1.7,0.1c0.4-0.4,0.8-0.8,1.1-1.2C2219.5,1285.4,2218.5,1284.1,2217.6,1284.7z"/>
	<path d="M2226.5,1283.3c-0.7-2.1-2.1-3.9-2.7-6c-0.7-2.6-0.7-5.2-0.4-7.9c0.1-1-1.5-1.4-1.8-0.4c-1.3,4.6-0.6,12.1,3.4,15.3
		C2225.7,1284.8,2226.8,1284.2,2226.5,1283.3z"/>
	<path d="M2235.5,1283.4c-0.9-2.4-2.4-4.4-3-6.9c-0.7-2.8-0.4-5.4-0.5-8.2c0-0.8-1.3-0.8-1.5-0.2c-1.9,4.7-0.3,12.9,3.6,16.2
		C2234.7,1284.9,2235.9,1284.3,2235.5,1283.4z"/>
	<path d="M2245.5,1281.3c-0.5-2.5-2-5-2.8-7.5c-0.8-2.5-1-5.3-2-7.7c-0.3-0.7-1.2-0.5-1.4,0.2c-0.5,2.6,0.5,5.7,1.3,8.2
		c0.8,2.6,1.6,5.6,3.5,7.7C2244.7,1283,2245.6,1282,2245.5,1281.3z"/>
	<path d="M2254.2,1281.4c-0.5-2.7-1.8-5.3-2.6-8c-0.9-3-1.6-6.1-2.2-9.3c-0.2-1.3-2.2-1-2,0.3c0.8,5.7,1.9,12.9,5.2,17.7
		C2253.2,1283,2254.4,1282.3,2254.2,1281.4z"/>
	<path d="M2263.7,1281.2c-2.8-7.1-4.9-13-4.7-20.7c0-1.2-1.8-1.4-1.9-0.2c-0.8,7.2,0.4,15.8,4.8,21.8
		C2262.5,1282.9,2264.1,1282.3,2263.7,1281.2z"/>
	<path d="M2273.3,1276.6c-0.8,1.1-2.3-3.3-2.4-3.8c-0.6-1.9-1-3.9-1.4-5.9c-0.6-3.5-0.7-6.9-0.8-10.5c0-1-1.5-1.2-1.6-0.2
		c-0.7,6.5-0.1,14,2.5,20.1c1,2.3,4.2,4.7,5.3,1C2275.3,1276.5,2273.9,1275.8,2273.3,1276.6z"/>
	<path d="M2280.7,1272.9c-1.4-2.5-3.2-4.6-4.2-7.3c-1-2.6-1.4-5.3-1.5-8.1c0-1.3-2.1-1.6-2.1-0.2c-0.2,5.6,1.6,13.4,6.4,16.9
		C2280.1,1274.8,2281.2,1273.9,2280.7,1272.9z"/>
	<path d="M2287.4,1274.1c-1.5-2.9-3.5-5.3-4.6-8.4c-1.2-3.1-1.7-6.2-2-9.5c-0.1-1-1.8-1-1.8,0.1c0,6.4,2.1,14.6,7.1,19
		C2286.9,1276,2287.9,1275,2287.4,1274.1z"/>
	<path d="M2294.7,1269.9c-1.5-2.5-3.3-4.5-4.4-7.2c-1-2.6-1.4-5.4-1.4-8.2c0-1.3-1.9-1.5-2-0.2c-0.3,5.8,1.4,13.2,6.2,16.9
		C2294.1,1271.9,2295.4,1270.9,2294.7,1269.9z"/>
	<path d="M2303.1,1267.4c-1.5-2.9-3.3-5.4-4.3-8.5c-0.9-3.1-1-6.2-0.9-9.4c0-1-1.4-1.1-1.6-0.2c-1.3,6.2,0.3,14.9,5.4,19.2
		C2302.6,1269.3,2303.6,1268.3,2303.1,1267.4z"/>
	<path d="M2310.5,1264c-1.5-2.8-3.3-5.4-4.4-8.4c-1.1-3-1.7-6.2-2.1-9.4c-0.1-1-1.7-1-1.7,0c0,6.5,2.2,14.2,6.7,19.1
		C2309.9,1266.2,2311,1265,2310.5,1264z"/>
	<path d="M2321.5,1262.3c-3.2-7.1-6.3-13.6-8.4-21.1c-0.3-1-1.9-0.8-1.7,0.3c1.3,7.4,3.8,15.6,8.3,21.7
		C2320.4,1264,2322,1263.4,2321.5,1262.3z"/>
	<path d="M2332.3,1258.4c-1.3-3.5-3.2-6.7-4.7-10.1c-1.5-3.4-2.7-7-4.2-10.5c-0.4-0.9-1.9-0.5-1.7,0.5c1.5,6.9,4.6,15.2,8.8,20.9
		C2331.2,1260.1,2332.7,1259.5,2332.3,1258.4z"/>
	<path d="M2339.3,1254.2c-1.6-2.9-3.6-5.4-4.9-8.4c-1.3-3-2.2-6.2-2.8-9.5c-0.2-1.1-1.7-0.8-1.6,0.3c0.6,6.4,3.2,14.4,8.1,18.7
		C2338.8,1255.9,2339.8,1255,2339.3,1254.2z"/>
	<path d="M2346.2,1253.5c-1.4-3.3-3.3-6.3-4.6-9.6c-1.4-3.8-2.2-7.6-2.8-11.6c-0.2-1.1-1.7-0.8-1.7,0.3c0.4,7.2,2.6,16.2,7.5,21.8
		C2345.2,1254.9,2346.6,1254.5,2346.2,1253.5z"/>
	<path d="M2352.7,1249.9c-1.9-3.2-4.3-5.6-5.7-9.1c-1.2-3.1-1.3-6.3-2-9.5c-0.2-0.7-1.3-1-1.5-0.1c-1.5,6.4,2.5,16.5,8,20.1
		C2352.4,1251.7,2353.1,1250.6,2352.7,1249.9z"/>
	<path d="M2358.5,1245.3c-1.1-3.4-3.1-6.5-4.3-9.9c-1.3-3.3-2.3-6.7-3.1-10.2c-0.3-1.1-1.9-0.8-1.7,0.3c1.3,6.7,3.3,15.1,7.7,20.5
		C2357.5,1246.8,2358.8,1246.3,2358.5,1245.3z"/>
	<path d="M2368.3,1244.3c-4.4-7-6.6-13.4-6.3-21.8c0-1-1.4-1.1-1.5-0.2c-1.3,8,0.8,17.1,6.3,23.3
		C2367.5,1246.5,2368.8,1245.2,2368.3,1244.3z"/>
	<path d="M2374.7,1235.9c-1.9-3.1-4.1-5.9-5.5-9.3c-1.3-3-2.1-6.1-2.9-9.3c-0.2-0.7-1.1-0.5-1.1,0.2c0.3,6.7,3.4,14.8,8.3,19.4
		C2374.2,1237.6,2375.2,1236.7,2374.7,1235.9z"/>
	<path d="M2380.1,1228.4c-1.7-5.8-4-11.2-5.4-17.2c-0.3-1.1-1.9-0.9-1.8,0.3c0.8,5.9,2.4,12.6,5.7,17.6
		C2379.1,1230,2380.4,1229.4,2380.1,1228.4z"/>
	<path d="M2393.8,1226.5c-0.2-1-1.6-1-1.6,0.1c-0.2,0.3-0.3,0.5-0.5,0.8c-3.9-6.8-6.8-13.8-9.4-21.1c-0.3-0.8-1.6-0.4-1.4,0.4
		c2,8.3,5.5,16.1,9.8,23.3c0.3,0.5,1.1,0.7,1.5,0.3C2393.6,1229.1,2394,1228.3,2393.8,1226.5z"/>
	<path d="M2398.6,1223c-1.9-2.7-4-5.1-5.5-8.1c-1.4-3.1-2.1-6.3-2.4-9.6c-0.1-0.9-1.6-0.9-1.6,0c0,6.6,2.7,14.7,8.2,18.9
		C2398,1224.8,2399.2,1223.9,2398.6,1223z"/>
	<path d="M2405.1,1218.4c-1.4-2.8-3.2-5.3-4.4-8.2c-1.1-2.6-1.8-5.2-2.5-8c-0.3-1.1-2-0.9-1.8,0.3c0.8,5.8,3.1,12.8,7.2,17.2
		C2404.4,1220.5,2405.5,1219.3,2405.1,1218.4z"/>
	<path d="M2412.7,1210.6c-1.7-1.8-3.4-3.3-4.5-5.6c-0.9-2-1.4-4.4-1.5-6.7c-0.1-0.9-1.4-0.8-1.5,0c-0.9,5,1.5,11.5,6.3,14
		C2412.6,1212.9,2413.5,1211.4,2412.7,1210.6z"/>
	<path d="M2422.2,1204.6c-1-2.2-2.6-4.2-4-6.1c-1.2-1.7-2.4-4.2-4.3-5.1c-0.5-0.2-0.9,0.3-0.9,0.7c0.2,2.1,2.1,4,3.3,5.6
		c1.4,2,2.6,4.2,4.4,5.9C2421.3,1206.2,2422.5,1205.5,2422.2,1204.6z"/>
	<path d="M2430.2,1198.4c-1.4-2.2-3.1-4.1-4-6.5c-0.9-2.4-1.2-4.9-1.2-7.4c0-1.2-1.8-1.4-1.9-0.2c-0.6,5.4,1.3,12.2,6.1,15.3
		C2429.9,1200.1,2430.6,1199.1,2430.2,1198.4z"/>
	<path d="M2437.3,1193.2c-2.8-5-5.1-9.1-5.7-15c-0.1-0.9-1.5-0.8-1.5,0c-0.2,5.6,1.5,12.3,5.9,16.1
		C2436.8,1195.1,2437.8,1194.1,2437.3,1193.2z"/>
	<path d="M2446.3,1189.4c-0.2-0.3-0.5-0.8-1-0.7c-0.1,0-0.2,0-0.3,0.1c-0.1,0-0.1,0-0.2,0.1c-1.9-2-3.7-7.1-4.5-8.9
		c-1.4-3.2-2.7-6.5-3.8-9.8c-0.3-0.9-2-0.5-1.7,0.5c1.3,4.6,2.9,9,4.9,13.3c1.1,2.4,2.4,6.9,5.2,7.6c0.5,0.1,1-0.2,1.2-0.6
		C2446.6,1190.3,2446.6,1190,2446.3,1189.4z"/>
	<path d="M2452.7,1180.5c-0.3-0.9-1.8-0.7-1.7,0.3c-0.3-2.8-2.5-5.9-3.6-8.6c-1-2.4-1.8-4.8-2.9-7.1c-0.4-0.8-1.8-0.5-1.6,0.5
		c0.6,3.1,1.8,6.1,3,9c0.9,2.2,1.8,5.1,3.3,7.1C2450.4,1183.3,2453.7,1183.1,2452.7,1180.5z"/>
	<path d="M2459.2,1174.3c-1.5-2.7-3.5-5.2-5-7.9c-1.7-3-2.9-6.2-4.1-9.5c-0.4-1-2.1-0.5-1.8,0.5c1.5,6.3,4.6,13.6,9.4,18.1
		C2458.6,1176.4,2459.8,1175.2,2459.2,1174.3z"/>
	<path d="M2469.4,1165.2c-1.4-2.6-3.6-4.9-5.2-7.4c-1.7-2.6-2.9-5.4-4.5-7.9c-0.5-0.7-1.7-0.1-1.5,0.7c0.8,3,2.5,5.9,4.1,8.5
		c1.6,2.6,3.3,5.6,5.7,7.4C2468.8,1167.2,2469.9,1166.2,2469.4,1165.2z"/>
	<path d="M2480.8,1158.8c-2.2-3-4.8-5.6-6.9-8.7c-2.2-3.5-3.9-7.2-5.3-11c-0.4-1-2.1-0.5-1.8,0.5c2,7.3,6.3,15.8,12.7,20.4
		C2480.2,1160.5,2481.4,1159.7,2480.8,1158.8z"/>
	<path d="M2565.5,941.4c-0.6-1.5-1.8-2.7-2.8-3.9c-0.5-0.6-0.9-1.2-1.4-1.8c-0.3-0.3-0.5-0.7-0.8-1c-0.3-0.3-0.7-0.4-0.9-0.7
		c-0.5-0.5-1.5,0-1.1,0.6c0.4,0.6,0.5,1.3,1,1.9c0.5,0.7,1,1.4,1.6,2.1c0.9,1.2,1.8,2.8,3.1,3.8
		C2564.7,942.8,2565.8,942.3,2565.5,941.4z"/>
	<path d="M2565.9,924.8c-1-1.4-2.1-2.8-3.2-4.2c-0.5-0.7-1-1.3-1.5-2c-0.5-0.7-1.1-1-1.7-1.6c-0.5-0.5-1.6,0-1.2,0.7
		c0.4,0.6,0.5,1.2,0.9,1.8c0.5,0.8,1.1,1.5,1.7,2.3c1.1,1.4,2.1,2.9,3.2,4.2C2565,927,2566.7,926,2565.9,924.8z"/>
	<path d="M2569.9,907.3c-1.8-2-4.6-3.5-6.9-4.9c-2-1.2-4.3-2.9-6.7-3.1c-0.5,0-0.8,0.6-0.5,1c1.5,1.8,3.9,2.7,5.8,3.9
		c2.4,1.5,4.6,3.6,7.2,4.8C2569.9,909.5,2570.7,908.1,2569.9,907.3z"/>
	<path d="M2571,890.6c-1.5-1.8-3.6-3.1-5.6-4.3c-2.4-1.3-4.6-1.8-7.2-2.2c-0.7-0.1-1,1-0.3,1.2c4.3,1.3,7.9,4.1,11.4,6.7
		C2570.3,892.8,2571.9,891.7,2571,890.6z"/>
	<path d="M2573.7,873.9c-1.5-2-3.7-3.5-5.6-5.1c-2.1-1.8-4.2-3.6-6.4-5.3c-0.7-0.5-1.7,0.5-1.1,1.2c2,2,4,3.9,6.1,5.8
		c1.8,1.7,3.6,3.7,5.8,5C2573.3,875.9,2574.3,874.7,2573.7,873.9z"/>
	<path d="M2572.5,856.2c-1.4-3.8-4.4-6.5-8.1-8.1c-1.2-0.5-1.9,1.4-0.7,1.9c3.2,1.3,5.7,3.9,7.3,6.9
		C2571.5,857.7,2572.9,857.1,2572.5,856.2z"/>
</g>
</svg>
