<?xml version="1.0" encoding="utf-8"?>
<!-- Generator: Adobe Illustrator 19.0.0, SVG Export Plug-In . SVG Version: 6.00 Build 0)  -->
<svg version="1.2" baseProfile="tiny" id="Layer_1" xmlns="http://www.w3.org/2000/svg" xmlns:xlink="http://www.w3.org/1999/xlink"
	 x="0px" y="0px" viewBox="-250 411.1 94.1 41.8" xml:space="preserve">
<path d="M-225.5,439.1c-0.4-0.6-0.7-1.3-1.2-1.8c-0.1-0.1-0.3,0-0.3,0.2c0.3,0.7,0.9,1.2,1.3,1.8
	C-225.6,439.3-225.4,439.2-225.5,439.1"/>
<g>
	<path d="M-225.5,450c0.1,0.1-0.1,0.2-0.2,0.1c-0.4-0.6-1-1.1-1.3-1.8c-0.1-0.2,0.2-0.3,0.3-0.2C-226.2,448.6-225.9,449.4-225.5,450
		z"/>
	<g>
		<path fill="none" d="M-173.5,446.9c-0.2-0.2-0.3-0.5-0.4-0.8c-0.3,0-0.5,0-0.8,0c0,0.1,0.1,0.2,0.1,0.3c0,0.1-0.1,0.1-0.1,0.1
			c-0.1-0.1-0.2-0.3-0.3-0.4c-0.2,0-0.4,0-0.5,0c0.2,0.2,0.4,0.5,0.5,0.8c0.2,0.3,0.4,0.6,0.4,1c0,0.2-0.1,0.2-0.1,0.3
			c0.7,0,1.3-0.1,2-0.1C-173,447.7-173.2,447.3-173.5,446.9z"/>
		<path fill="none" d="M-171.3,446.4c0.2,0.5,0.5,1,0.7,1.5c0.4,0,0.8-0.1,1.3-0.1c-0.3-0.4-0.6-0.7-0.9-1.1
			c-0.2-0.3-0.4-0.5-0.6-0.8c-0.2,0-0.5,0-0.8,0C-171.5,446.2-171.4,446.3-171.3,446.4z"/>
		<path fill="none" d="M-159.4,431.6c0.6,0,1.1,0.4,1.6,0.7c0.2,0.1,0.4,0.2,0.5,0.3c0-0.4-0.1-1-0.1-1.5c-0.8-0.2-1.5-0.8-2.2-1.3
			c-0.1,0-0.1-0.1-0.2-0.2c0.1,0.6,0.2,1.1,0.3,1.6C-159.4,431.4-159.4,431.5-159.4,431.6z"/>
		<path fill="none" d="M-173.1,446.6c0.3,0.6,0.5,1,0.7,1.4c0.4,0,0.9-0.1,1.3-0.1c-0.3-0.3-0.6-0.7-0.9-1c-0.2-0.3-0.5-0.6-0.7-0.9
			c-0.2,0-0.5,0-0.7,0C-173.3,446.2-173.2,446.4-173.1,446.6z"/>
		<path fill="none" d="M-237.2,449.1c0.3,0.5,0.7,1.1,1.1,1.6c0.2,0.3,0.5,0.5,0.7,0.7c0.2,0.1,0.6,0.1,0.9,0.2
			c-0.3-0.3-0.6-0.7-0.8-1c-0.7-1-1.4-2.1-1.8-3.3c-0.5,0-0.9-0.1-1.4-0.2c0,0,0,0,0,0C-238,447.7-237.6,448.5-237.2,449.1z"/>
		<path fill="none" d="M-242,446.3c0.6,0.8,1.2,1.6,1.9,2.4c0.6,0.7,1.5,1.3,1.9,2.2c0.4,0.2,0.9,0.3,1.3,0.3
			c-0.3-0.3-0.6-0.7-0.8-1.1c-0.6-1-1.4-2.1-1.8-3.2c-0.2-0.1-0.5-0.1-0.8-0.2C-240.8,446.7-241.4,446.5-242,446.3z"/>
		<path fill="none" d="M-229.1,447.4c0.6,1,1.1,2,1.7,3c-0.8-0.9-1.5-1.9-2-3c-0.5,0-0.9,0-1.4,0c0.3,0.5,0.5,1,0.8,1.5
			c0.3,0.5,0.7,1,1.1,1.5c0,0.1,0,0.1-0.1,0.1c-0.8-0.8-1.7-1.9-2.1-3v-0.1c-0.5,0-1,0-1.5,0c0.7,1.3,1.5,2.5,2.5,3.7
			c0.1,0.1-0.1,0.3-0.2,0.2c-1.3-1-2.3-2.4-2.9-3.9c-0.2,0-0.4,0-0.7,0c-0.2,0-0.4,0-0.5,0c0.4,0.5,0.7,1.2,1,1.7
			c0.6,0.8,1.4,1.5,1.7,2.4c0,0.1,0,0.1,0,0.1c8.4,0,16.8-1,25.2-1.5c9.1-0.6,18.3-1.1,27.4-1.7c1.6,0,3,0,4.4-0.1
			c-0.4-0.3-0.6-0.7-0.8-1c-0.2-0.3-0.4-0.6-0.6-1c-15.7,0.9-31.4,1-47.1,1.1h0C-223.2,447.3-225.9,447.4-229.1,447.4z"/>
		<path fill="none" d="M-245.5,445.7c0.3,0.5,0.6,1,1,1.4c-0.5-0.8-0.9-1.7-1.2-2.6c-0.2-0.1-0.5-0.3-0.7-0.5
			C-246.1,444.7-245.8,445.2-245.5,445.7z"/>
		<path fill="none" d="M-174.7,448.2C-174.7,448.1-174.8,448.1-174.7,448.2L-174.7,448.2z"/>
		<path fill="none" d="M-159.8,422.2c0.5,0.3,1.1,0.6,1.5,1.1c-0.1-0.5-0.3-1-0.4-1.5c-0.7-0.3-1.3-0.6-1.9-0.9
			c-0.3-0.2-0.5-0.3-0.8-0.4c0.1,0.5,0.1,0.8,0.1,0.8C-160.8,421.6-160.3,421.9-159.8,422.2z"/>
		<path fill="none" d="M-170,445.9c0.1,0.2,0.2,0.3,0.3,0.5c0.3,0.4,0.5,0.9,0.7,1.4c0.7,0,1.3-0.1,2-0.1c-0.4-0.4-0.8-0.8-1.1-1.2
			c-0.2-0.2-0.4-0.4-0.5-0.7c-0.3,0-0.5,0-0.7,0.1C-169.6,445.9-169.8,445.9-170,445.9L-170,445.9z"/>
		<path fill="none" d="M-159.5,424.2c0.5,0.5,1.1,1,1.6,1.6c0-0.3-0.1-0.6-0.1-0.9s-0.1-0.5-0.1-0.8c-0.5-0.1-0.8-0.4-1.2-0.7
			c-0.5-0.3-1-0.6-1.5-0.9c-0.1,0-0.2-0.1-0.3-0.2c0,0.1,0,0.2,0.1,0.4c0,0.1,0,0.2,0.1,0.3C-160.5,423.4-160,423.9-159.5,424.2z"/>
		<path fill="none" d="M-160,420.2c0.4,0.3,0.7,0.5,1.1,0.8c-0.2-0.4-0.3-0.8-0.5-1.2c-0.7-0.3-1.4-0.6-2.1-1c0,0-0.1,0-0.1-0.1
			c0,0.2,0.1,0.4,0.1,0.5C-161,419.4-160.5,419.9-160,420.2z"/>
		<path fill="none" d="M-159.4,426.8c0.6,0.5,1.3,0.9,1.8,1.3c0-0.6-0.1-1.2-0.2-1.8c-0.8-0.4-1.5-0.9-2.3-1.5
			c-0.2-0.2-0.4-0.3-0.6-0.5c0.1,0.5,0.2,1,0.3,1.5C-160.1,426.1-159.7,426.6-159.4,426.8z"/>
		<path fill="none" d="M-159,441.6c0.4,0.4,0.8,0.8,1,1.2c0.1-0.4,0.2-0.9,0.3-1.3c-0.2-0.2-0.4-0.4-0.6-0.6c-0.3-0.3-0.7-0.5-1-0.8
			c-0.1,0.4-0.2,0.7-0.3,0.9C-159.4,441.2-159.2,441.4-159,441.6z"/>
		<path fill="none" d="M-159,434.3c0.2,0.2,0.3,0.4,0.4,0.5c0.5,0.6,0.9,1.1,1.3,1.5c0-0.9,0-1.9,0-2.9c-0.3-0.2-0.6-0.4-0.9-0.6
			c-0.3-0.2-0.8-0.4-1.1-0.6C-159.1,433-159,433.8-159,434.3C-159,434.3-159,434.3-159,434.3z"/>
		<path fill="none" d="M-158.9,435.6c0,0.4,0,0.9,0,1.3c0.3,0.3,0.5,0.6,0.7,1c0.2,0.4,0.5,0.7,0.8,1c0.1-0.3,0.1-0.7,0.1-1.1
			c0-0.4,0-0.8,0-1.2c-0.5-0.4-1.1-0.8-1.6-1.3C-158.9,435.4-158.9,435.5-158.9,435.6z"/>
		<path fill="none" d="M-162.7,444.5c-0.3,0.2-0.7,0.3-1,0.5c0.5,0.7,0.9,1.7,1.2,2.5c0.5-0.1,1.1-0.2,1.6-0.5
			c-0.5-0.4-0.7-1-1.1-1.5C-162.2,445.1-162.5,444.8-162.7,444.5z"/>
		<path fill="none" d="M-167.9,445.7c0.1,0.1,0.2,0.3,0.3,0.4c0.4,0.5,0.6,1.1,0.9,1.6c0.5,0,1-0.1,1.5-0.1c-0.6-0.6-1.1-1.3-1.6-2
			C-167.2,445.6-167.5,445.7-167.9,445.7z"/>
		<path fill="none" d="M-164.5,445.2c-0.5,0.1-0.9,0.2-1.4,0.3c0.5,0.7,0.9,1.3,1.3,2.1c0.5-0.1,1.1-0.1,1.7-0.1
			c-0.3-0.4-0.5-0.8-0.8-1.1C-164,446-164.3,445.6-164.5,445.2z"/>
		<path fill="none" d="M-160.4,443.9c-0.2-0.2-0.4-0.4-0.5-0.6c-0.1,0.1-0.1,0.2-0.2,0.2c-0.3,0.2-0.5,0.4-0.8,0.6
			c0.2,0.3,0.4,0.6,0.5,0.8c0.3,0.6,0.8,1.3,0.9,2h0.1c0.6-0.5,1-1,1.4-1.6h-0.1C-159.5,444.8-160,444.4-160.4,443.9z"/>
		<path fill="none" d="M-234,449.5c-0.4-0.6-0.9-1.4-1.1-2.2c-0.1,0-0.3,0-0.5,0c-0.3,0-0.5,0-0.8,0c0.5,0.7,0.9,1.4,1.4,2.1
			c0.6,0.9,1.2,1.5,2,2.2c0.1,0,0.2,0,0.4,0c0,0,0.2,0,0.4,0C-233,451.1-233.5,450.2-234,449.5z"/>
		<path fill="none" d="M-159.6,427.5c-0.2-0.1-0.4-0.3-0.6-0.4c0.1,0.4,0.2,0.9,0.3,1.3c0.3,0.3,0.7,0.5,1,0.8
			c0.4,0.4,1.1,0.9,1.5,1.5c0-0.6-0.1-1.3-0.1-1.9C-158.3,428.5-159,428-159.6,427.5z"/>
		<path fill="none" d="M-243,445c0.8,0.4,1.6,0.6,2.5,0.8s1.7,0.3,2.6,0.4c0.4,0,0.9,0.1,1.3,0.1c5.8,0.4,11.7,0.2,17.6,0
			c2-0.1,3.9-0.1,5.8-0.1c15-0.3,30.2-0.3,45.2-1.6c0.4,0,0.8-0.1,1.3-0.1c0.4-0.1,0.8-0.1,1.2-0.2c0.8-0.2,1.6-0.5,2.3-0.8
			c0-0.2,0.2-0.3,0.3-0.3c0.9-0.6,1.7-1.3,2.2-2.3c-0.1-0.2,0-0.3,0.2-0.4c0-0.2,0.1-0.3,0.2-0.5s0.1-0.4,0.1-0.7
			c0.2-0.8,0.2-1.7,0.2-2.5c0-0.9-0.1-1.7-0.3-2.6c-0.2-1.3-0.5-2.6-0.8-3.8c-0.1-0.4-0.2-0.8-0.2-1.3c-0.1-0.7-0.2-1.4-0.4-2
			c-0.2-1.4-0.5-2.7-0.7-4c-0.1-0.7-0.3-1.4-0.4-2c0-0.1-0.1-0.2-0.1-0.4v-0.1c-0.1-0.5-0.2-0.9-0.3-1.4c-0.1-0.5-0.2-1-0.3-1.4
			c-0.3-1.1-0.7-2-1.2-2.7c0,0-0.1,0-0.2,0c-0.1,0-0.2,0-0.2,0c-0.1,0-0.2-0.1-0.2-0.1c-0.1-0.1-0.2-0.2-0.2-0.4c0-0.1,0-0.1,0-0.2
			c-0.6-0.5-1.4-0.8-2.2-1c-1.1-0.3-2.3-0.4-3.6-0.5c-0.3,0-0.6,0-1-0.1c-14.7-1-29.4,0.2-44,1.6c-2.8,0.3-5.7,0.4-8.5,0.5
			c-4.8,0.2-9.6,0.2-14.3,0.7c-0.5,0.1-1,0.1-1.4,0.2c-1.4,0.2-2.9,0.2-4.3,0.6c-2.5,0.8-3.3,3-3.5,5.4c-0.2,2.3-0.1,6.8,0,9.1v0.8
			c0.1-0.5,0.2-1.1,0.3-1.6c0,0,0.1,0,0.1,0c0.1,0,0.2,0,0.3,0.1c0,0,0,0.1,0,0.1c-0.1,0.8-0.2,1.6-0.3,2.4
			c-0.1,0.8-0.2,1.7-0.2,2.5c0,0.8,0.1,1.7,0.2,2.5c0.1,0.8,0.2,1.6,0.4,2.5c0.3,1,0.8,1.9,1.5,2.7
			C-245.2,443.7-244.1,444.4-243,445z"/>
		<path fill="none" d="M-242.5,446.2c-0.5-0.2-1-0.4-1.5-0.6c-0.2-0.1-0.4-0.3-0.7-0.4c0.3,0.6,0.6,1.1,0.9,1.7
			c0.5,0.8,1.2,1.7,1.7,2.5c0.9,0.4,1.7,0.8,2.5,1.1c-0.5-0.5-0.9-1-1.3-1.5C-241.6,448.1-242.1,447.2-242.5,446.2z"/>
		<path fill="none" d="M-159.9,441.7c-0.2,0.3-0.4,0.7-0.6,0.9c0.2,0.3,0.4,0.5,0.6,0.8c0.4,0.5,0.7,1.1,1.1,1.6
			c0.2-0.3,0.4-0.7,0.5-1c0-0.2,0.1-0.6,0.3-0.9c0,0-0.1,0-0.1,0s0,0,0.1,0c-0.5-0.2-1-0.6-1.4-1
			C-159.5,442-159.7,441.9-159.9,441.7z"/>
		<path fill="none" d="M-158.9,437.9c0,0.6-0.1,1.2-0.3,1.8c0.4,0.1,0.8,0.5,1.1,0.8c0.3,0.1,0.4,0.3,0.5,0.4
			c0.1-0.5,0.1-1.1,0.2-1.6c-0.4-0.3-0.8-0.6-1.1-0.9C-158.6,438.2-158.8,438.1-158.9,437.9z"/>
		<path d="M-229.4,447.3c-0.5,0-0.9,0-1.4,0c0,0,0,0,0,0C-230.3,447.4-229.8,447.4-229.4,447.3
			C-229.4,447.3-229.4,447.3-229.4,447.3z"/>
		<path d="M-231.1,447.3c-0.5,0-1,0-1.5,0c0,0,0,0,0,0C-232.1,447.3-231.6,447.4-231.1,447.3L-231.1,447.3z"/>
		<path d="M-240.3,446.8c0.3,0.1,0.6,0.1,0.8,0.2c0,0,0,0,0,0C-239.7,446.9-240,446.8-240.3,446.8z"/>
		<path d="M-229.1,447.4c3.2,0,5.9,0,5.9,0C-225.2,447.3-227.1,447.3-229.1,447.4C-229.1,447.3-229.1,447.3-229.1,447.4z"/>
		<path d="M-233.2,447.3c-0.2,0-0.4,0-0.7,0C-233.6,447.3-233.4,447.3-233.2,447.3C-233.2,447.3-233.2,447.3-233.2,447.3z"/>
		<polygon points="-238.5,447.1 -238.5,447.1 -238.5,447.1 		"/>
		<path d="M-248.1,429.8c0,0,0.1,0,0.1,0C-248,429.8-248.1,429.8-248.1,429.8z"/>
		<path d="M-219.5,413c2.6-0.1,5.1-0.3,7.6-0.6C-214.4,412.7-217,412.9-219.5,413z"/>
		<path d="M-238.7,414c2.5-0.2,5.1-0.4,7.7-0.5C-233.6,413.7-236.1,413.8-238.7,414z"/>
		<path d="M-169.3,445.9c-0.2,0-0.4,0-0.7,0C-169.8,445.9-169.6,445.9-169.3,445.9z"/>
		<path d="M-227.2,413.4c2.6-0.1,5.1-0.2,7.7-0.4C-222.1,413.1-224.6,413.2-227.2,413.4z"/>
		<path d="M-250,426.9c0-0.7,0-1.4,0-2C-250,425.6-250,426.2-250,426.9z"/>
		<path d="M-201.8,411.8c2.2-0.1,4.5-0.2,6.7-0.2C-197.4,411.6-199.6,411.7-201.8,411.8z"/>
		<path d="M-173.4,446C-173.4,446-173.4,446-173.4,446c0.3,0,0.5,0,0.7,0c0,0,0,0,0,0C-172.9,446-173.1,446-173.4,446z"/>
		<path d="M-246.6,443.3c0.1,0.3,0.1,0.5,0.2,0.8c0.2,0.2,0.4,0.3,0.7,0.5c0-0.1-0.1-0.2-0.1-0.3
			C-246.1,443.9-246.4,443.7-246.6,443.3z"/>
		<path d="M-171.4,412.6c1.3,0.1,2.5,0.2,3.6,0.5C-168.9,412.8-170.1,412.7-171.4,412.6z"/>
		<path d="M-165.6,414.4c0,0.1,0.1,0.3,0.2,0.4C-165.5,414.6-165.5,414.5-165.6,414.4z"/>
		<path d="M-161.4,421.2l0.1,0.1c0,0,0-0.4-0.1-0.8c0,0-0.1,0-0.1-0.1C-161.5,420.7-161.4,421-161.4,421.2z"/>
		<path d="M-171.6,445.9C-171.6,446-171.6,446-171.6,445.9c0.3,0.1,0.6,0,0.8,0c0,0,0,0,0,0C-171.1,445.9-171.3,445.9-171.6,445.9z"
			/>
		<path d="M-242.5,414.4c1.3-0.2,2.5-0.3,3.8-0.4C-240,414.2-241.2,414.3-242.5,414.4c-3,0.3-5.6,1.2-6.7,4.2
			c-0.6,1.7-0.8,3.9-0.8,6.3c0-2.3,0.2-4.6,0.8-6.3C-248.1,415.6-245.5,414.7-242.5,414.4z"/>
		<path d="M-249.7,433.3c0-1.8-0.2-4.1-0.3-6.4C-249.9,429.3-249.7,431.6-249.7,433.3c0,0.4,0.3,0.6,0.6,0.6
			C-249.4,433.9-249.7,433.7-249.7,433.3z"/>
		<path d="M-249.1,433.9c0,2.6,0.1,5.3,0.8,7.8c0,0,0,0,0,0c0,0,0,0,0,0C-248.9,439.2-249.1,436.5-249.1,433.9z"/>
		<path d="M-162.4,423c0.3,1.4,0.5,2.7,0.7,4C-161.9,425.7-162.1,424.3-162.4,423z"/>
		<path d="M-161,430.3c0.3,1.3,0.5,2.6,0.8,3.8C-160.5,432.8-160.8,431.5-161,430.3z"/>
		<path d="M-163.5,417.6c0.1,0.5,0.2,0.9,0.3,1.4C-163.3,418.6-163.4,418.1-163.5,417.6c-0.3-1.1-0.7-2-1.2-2.7c0,0-0.1,0-0.2,0
			c0.1,0,0.1,0,0.2,0C-164.2,415.6-163.8,416.5-163.5,417.6z"/>
		<path d="M-160.7,440.8c-0.5,1-1.3,1.7-2.2,2.3C-162,442.5-161.2,441.8-160.7,440.8c-0.1-0.2,0-0.3,0.2-0.4c0-0.2,0.1-0.3,0.1-0.5
			c0,0.2-0.1,0.4-0.2,0.5C-160.7,440.5-160.8,440.6-160.7,440.8z"/>
		<path d="M-160.3,439.9c0-0.2,0.1-0.4,0.2-0.7c0.2-0.8,0.2-1.7,0.2-2.5c0,0.9,0,1.7-0.2,2.5C-160.2,439.5-160.3,439.7-160.3,439.9z
			"/>
		<path d="M-163.2,443.4c-0.7,0.3-1.5,0.6-2.3,0.8C-164.7,444.1-163.9,443.8-163.2,443.4c0-0.2,0.2-0.3,0.3-0.3
			C-163,443.1-163.2,443.2-163.2,443.4z"/>
		<path d="M-213.2,446.2c-1.9,0-3.9,0.1-5.8,0.1C-217.1,446.3-215.1,446.3-213.2,446.2c15-0.3,30.2-0.3,45.2-1.6
			c0.4,0,0.8-0.1,1.3-0.1c-0.4,0.1-0.8,0.1-1.3,0.1C-183,445.9-198.2,445.9-213.2,446.2z"/>
		<path d="M-248.1,429.8c-0.1,0.5-0.2,1.1-0.3,1.6C-248.3,430.9-248.2,430.3-248.1,429.8z"/>
		<path d="M-160.6,425.7c0,0,0.1,0.1,0.1,0.1c-0.1-0.5-0.2-1-0.3-1.5c-0.1,0-0.1-0.1-0.2-0.1C-160.8,424.7-160.7,425.2-160.6,425.7z
			"/>
		<path d="M-159.4,431.6C-159.4,431.6-159.4,431.6-159.4,431.6c0-0.1-0.1-0.3-0.1-0.4C-159.4,431.4-159.4,431.5-159.4,431.6z"/>
		<path d="M-159.6,441c0.1-0.2,0.2-0.5,0.3-0.9c0,0,0,0,0,0C-159.4,440.4-159.5,440.7-159.6,441z"/>
		<path d="M-159,434.3c0-0.5-0.1-1.3-0.3-2.1c0,0,0,0,0,0C-159.2,432.9-159.1,433.6-159,434.3z"/>
		<path d="M-161,423c0-0.1,0-0.2-0.1-0.3C-161,422.8-161,422.9-161,423C-161,423-161,423-161,423z"/>
		<path d="M-229,450.4C-228.9,450.4-228.9,450.4-229,450.4c-0.3-0.6-0.7-1.1-1-1.6c-0.3-0.5-0.5-1-0.8-1.5c-0.1,0-0.2,0-0.3,0v0.1
			C-230.7,448.5-229.8,449.6-229,450.4z"/>
		<path d="M-229.1,447.4c-0.1,0-0.2,0-0.3,0c0.5,1.1,1.2,2.1,2,3C-228,449.3-228.5,448.3-229.1,447.4z"/>
		<path d="M-224.9,414.7c-4.8,0.2-9.6,0.2-14.3,0.7c-0.5,0.1-1,0.1-1.4,0.2c0.5,0,1-0.1,1.4-0.2
			C-234.5,414.9-229.7,414.8-224.9,414.7z"/>
		<path d="M-230.3,451.2c0.1,0.1,0.3-0.1,0.2-0.2c-1-1.2-1.8-2.4-2.5-3.7c-0.2,0-0.4,0-0.6,0C-232.6,448.8-231.6,450.2-230.3,451.2z
			"/>
		<path d="M-247.7,429.9c0,0,0,0.1,0,0.1c-0.1,0.8-0.2,1.6-0.3,2.4c0.1-0.8,0.2-1.6,0.3-2.4C-247.7,430-247.7,429.9-247.7,429.9z"/>
		<path d="M-248,429.8c0.1,0,0.2,0,0.3,0.1C-247.7,429.8-247.9,429.8-248,429.8z"/>
		<path d="M-248,432.4c-0.1,0.8-0.2,1.7-0.2,2.5c0.1,0.8,0.1,1.7,0.2,2.5c-0.1-0.8-0.2-1.7-0.2-2.5
			C-248.2,434.1-248.1,433.2-248,432.4z"/>
		<path d="M-159.8,429.6c0,0.3,0.2,0.9,0.3,1.6C-159.6,430.7-159.7,430.2-159.8,429.6z"/>
		<path d="M-157,422.9c-0.8-3.9-2.9-7.5-6.6-8.9c0-0.1-0.1-0.1-0.1-0.2c-1.9-2.3-5.5-2.3-8.2-2.5c-2.2-0.2-4.4-0.2-6.6-0.2
			c2.2,0,4.4,0.1,6.6,0.2c2.7,0.2,6.3,0.2,8.2,2.5c0,0.1,0.1,0.1,0.1,0.2c0.8,0.3,2,4.8,2,4.7c0,0.1,0.1,0.1,0.1,0.1
			c0.7,0.4,1.4,0.7,2.1,1c0.2,0.4,0.3,0.8,0.5,1.2c-0.4-0.3-0.7-0.5-1.1-0.8c-0.5-0.3-1-0.8-1.5-1c0-0.1-0.1-0.3-0.1-0.5
			c0,0.1,0.1,1,0.2,1.8c0.3,0.2,0.5,0.3,0.8,0.4c0.6,0.3,1.2,0.6,1.9,0.9c0.1,0.5,0.3,1,0.4,1.5c-0.4-0.5-1-0.8-1.5-1.1
			c-0.5-0.3-1-0.6-1.5-0.9c0,0,0.1,0.6,0.3,1.4c0-0.1-0.1-0.3-0.1-0.4c0.1,0.1,0.2,0.2,0.3,0.2c0.5,0.3,1,0.6,1.5,0.9
			c0.4,0.3,0.7,0.6,1.2,0.7c0,0.3,0.1,0.5,0.1,0.8s0.1,0.6,0.1,0.9c-0.5-0.6-1.1-1.1-1.6-1.6c-0.5-0.3-1-0.8-1.5-1.2
			c0.1,0.4,0.2,0.8,0.2,1.3c0.2,0.2,0.5,0.3,0.6,0.5c0.8,0.6,1.5,1.1,2.3,1.5c0.1,0.6,0.2,1.2,0.2,1.8c-0.5-0.4-1.2-0.8-1.8-1.3
			c-0.4-0.3-0.7-0.7-1.1-1c0.3,1.7,0.6,3.4,0.7,3.8c0.1,0.1,0.1,0.2,0.2,0.2c0.7,0.5,1.4,1.1,2.2,1.3c0,0.5,0.1,1.1,0.1,1.5
			c-0.1-0.1-0.3-0.2-0.5-0.3c-0.5-0.3-1-0.7-1.6-0.7c0,0.2,0.1,0.4,0.1,0.6c0.3,0.2,0.8,0.4,1.1,0.6c0.3,0.2,0.6,0.4,0.9,0.6
			c0,1,0,2,0,2.9c-0.4-0.4-0.8-0.9-1.3-1.5c-0.1-0.1-0.2-0.3-0.4-0.5c0,0,0,0,0,0c0,0,0,0,0,0c0.2,0.2,0,4.8-0.2,5.4
			c0,0.1,0,0.3-0.1,0.4c0.3,0.3,0.7,0.5,1,0.8c0.2,0.2,0.4,0.4,0.6,0.6c-0.1,0.4-0.2,0.9-0.3,1.3c-0.2-0.4-0.6-0.8-1-1.2
			c-0.2-0.2-0.4-0.4-0.6-0.6c0,0-1.5,2.7-3.1,3.5c-0.3,0.2-4.7,1.1-6.6,1.4c0.2,0,0.5-0.1,0.7-0.1c0.1,0.3,0.3,0.5,0.5,0.7
			c0.3,0.4,0.7,0.8,1.1,1.2c-0.7,0-1.3,0.1-2,0.1c-0.2-0.5-0.4-1-0.7-1.4c-0.1-0.2-0.2-0.3-0.3-0.5h0h0c-0.1,0-0.3,0-0.8,0
			c0.2,0.3,0.4,0.5,0.6,0.8c0.3,0.4,0.6,0.7,0.9,1.1c-0.5,0-0.9,0.1-1.3,0.1c-0.2-0.5-0.5-1-0.7-1.5c-0.1-0.1-0.2-0.3-0.3-0.4
			c-0.3,0-0.7,0-1.1,0c0.2,0.3,0.5,0.6,0.7,0.9c0.3,0.3,0.6,0.7,0.9,1c-0.4,0-0.9,0.1-1.3,0.1c-0.2-0.4-0.4-0.8-0.7-1.4
			c-0.1-0.2-0.2-0.4-0.3-0.6c-9.5,0.3-36.8,1.2-49.8,1.3h0c15.7-0.1,31.4-0.2,47.1-1.1c0.2,0.4,0.4,0.7,0.6,1c0.2,0.3,0.4,0.7,0.8,1
			c-0.1-0.1,0-0.1,0,0c0-0.1,0.1-0.1,0.1-0.3c0-0.4-0.2-0.7-0.4-1c-0.1-0.3-0.3-0.6-0.5-0.8c0.1,0,0.3,0,0.5,0
			c0.1,0.1,0.2,0.3,0.3,0.4c0,0,0.1,0,0.1-0.1c0-0.1-0.1-0.2-0.1-0.3c0.3,0,0.5,0,0.8,0c0.1,0.3,0.2,0.6,0.4,0.8
			c0.3,0.4,0.5,0.8,0.8,1.2c-0.7,0-1.3,0.1-2,0.1c-1.4,0.1-2.8,0.1-4.4,0.1c-9.1,0.6-18.3,1.1-27.4,1.7c-8.4,0.5-16.8,1.5-25.2,1.5
			c0,0,0,0,0-0.1c-0.3-0.9-1.1-1.6-1.7-2.4c-0.3-0.5-0.6-1.2-1-1.7c0.2,0,0.4,0,0.5,0c-2.2,0-4.1-0.1-4.6-0.2
			c0.5,0.1,0.9,0.2,1.4,0.2c0.4,1.2,1.1,2.3,1.8,3.3c0.2,0.3,0.5,0.7,0.8,1c-0.3-0.1-0.7-0.1-0.9-0.2c-0.2-0.2-0.5-0.4-0.7-0.7
			c-0.4-0.5-0.8-1.1-1.1-1.6c-0.4-0.6-0.8-1.4-1.3-2h0c-0.3,0-0.6-0.1-1-0.2c0.4,1.1,1.2,2.2,1.8,3.2c0.2,0.4,0.5,0.8,0.8,1.1
			c-0.4,0-0.9-0.1-1.3-0.3c-0.4-0.9-1.3-1.5-1.9-2.2c-0.7-0.8-1.3-1.6-1.9-2.4c0.6,0.2,1.1,0.3,1.7,0.5c-1.6-0.4-3.7-1.2-5.4-2.2
			c0.3,0.8,0.7,1.8,1.2,2.6c-0.4-0.4-0.7-0.9-1-1.4c-0.4-0.5-0.7-1-0.9-1.6c-0.9-0.7-1.7-1.5-1.9-2.4c1.2,4.7,3.8,8.7,9.1,10.3
			c4.4,1.3,9,0.8,13.5,0.5c5.8-0.4,11.6-0.7,17.4-1.1c11.2-0.7,22.5-1.4,33.8-2.1c2.7-0.2,5.3-0.3,8-0.5c1.9-0.1,4.6,0.2,6.4-0.7
			c3.1-1.5,3.8-6.1,4-9.1C-155.7,433.8-155.9,428.1-157,422.9z M-158.9,429.2c-0.3-0.3-0.7-0.5-1-0.8c-0.1-0.4-0.2-0.9-0.3-1.3
			c0.2,0.1,0.4,0.3,0.6,0.4c0.6,0.5,1.3,1,2.1,1.3c0,0.6,0.1,1.3,0.1,1.9C-157.8,430.1-158.5,429.6-158.9,429.2z M-242.1,449.4
			c-0.5-0.8-1.2-1.7-1.7-2.5c-0.3-0.6-0.6-1.1-0.9-1.7c0.3,0.1,0.5,0.3,0.7,0.4c0.5,0.2,1,0.4,1.5,0.6c0.4,1,0.9,1.9,1.6,2.8
			c0.4,0.5,0.8,1,1.3,1.5C-240.4,450.2-241.2,449.8-242.1,449.4z M-232.6,451.6c-0.2,0-0.3,0-0.4,0c-0.8-0.7-1.4-1.3-2-2.2
			c-0.5-0.7-0.9-1.4-1.4-2.1c0.3,0,0.5,0,0.8,0c0.2,0,0.4,0,0.5,0c0.2,0.8,0.7,1.6,1.1,2.2c0.5,0.7,1,1.6,1.8,2.1
			C-232.4,451.6-232.6,451.6-232.6,451.6z M-166.7,447.7c-0.3-0.5-0.5-1.1-0.9-1.6c-0.1-0.1-0.2-0.3-0.3-0.4c0.4,0,0.7-0.1,1.1-0.1
			c0.5,0.7,1,1.4,1.6,2C-165.7,447.6-166.2,447.7-166.7,447.7z M-164.6,447.6c-0.4-0.8-0.8-1.4-1.3-2.1c0.5-0.1,0.9-0.2,1.4-0.3
			c0.2,0.4,0.5,0.8,0.8,1.2c0.3,0.3,0.5,0.7,0.8,1.1C-163.5,447.5-164.1,447.5-164.6,447.6z M-162.5,447.5c-0.3-0.8-0.7-1.8-1.2-2.5
			c0.3-0.2,0.7-0.3,1-0.5c0.2,0.3,0.5,0.6,0.7,1c0.4,0.5,0.6,1.1,1.1,1.5C-161.4,447.3-162,447.4-162.5,447.5z M-160.4,446.9
			L-160.4,446.9c-0.2-0.7-0.7-1.4-1-2c-0.1-0.2-0.3-0.5-0.5-0.8c0.3-0.2,0.5-0.4,0.8-0.6c0.1,0,0.1-0.1,0.2-0.2
			c0.1,0.2,0.3,0.4,0.5,0.6c0.4,0.5,0.9,0.9,1.3,1.4h0.1C-159.4,445.9-159.8,446.4-160.4,446.9z M-158.3,444c-0.1,0.3-0.3,0.7-0.5,1
			c-0.4-0.5-0.7-1.1-1.1-1.6c-0.2-0.3-0.4-0.5-0.6-0.8c0.2-0.2,0.4-0.6,0.6-0.9c0.2,0.2,0.4,0.3,0.5,0.4c0.4,0.4,0.9,0.8,1.4,1
			C-158.2,443.4-158.3,443.8-158.3,444z M-157.6,440.9c-0.1-0.1-0.2-0.3-0.5-0.4c-0.3-0.3-0.7-0.7-1.1-0.8c0.2-0.6,0.3-1.2,0.3-1.8
			c0.1,0.2,0.3,0.3,0.4,0.5c0.3,0.3,0.7,0.6,1.1,0.9C-157.5,439.8-157.5,440.4-157.6,440.9z M-157.3,437.8c0,0.4,0,0.8-0.1,1.1
			c-0.3-0.3-0.6-0.6-0.8-1c-0.2-0.4-0.4-0.7-0.7-1c0-0.4,0-0.9,0-1.3c0-0.1,0-0.2,0-0.3c0.5,0.5,1.1,0.9,1.6,1.3
			C-157.3,437-157.3,437.4-157.3,437.8z"/>
		<path d="M-237.9,446.2c-0.9-0.1-1.7-0.2-2.6-0.4C-239.6,446-238.7,446.1-237.9,446.2z"/>
		<path d="M-240.5,445.8c-0.9-0.2-1.7-0.5-2.5-0.8C-242.2,445.3-241.3,445.6-240.5,445.8z"/>
	</g>
	<g>
		<path fill="#FFFFFF" stroke="#FFFFFF" stroke-miterlimit="10" d="M-161.3,428.7c0.6,3.2,1.7,6.9,1.1,10.2
			c-0.1,0.5-0.2,0.9-0.4,1.3c-0.1,0.1-0.2,0.2-0.2,0.4c-0.5,1-1.3,1.8-2.2,2.3l0,0c-0.2-0.1-0.3,0.1-0.3,0.3
			c-1.4,0.7-3.1,1.1-4.8,1.2c-14.9,1.3-30.2,1.3-45.2,1.6c-7.7,0.1-15.7,0.6-23.4,0.1c-3.4-0.2-7.2-1-9.5-3.7
			c-0.7-0.8-1.2-1.8-1.5-2.7c-0.3-1.6-0.5-3.3-0.6-5c0.1-1.7,0.3-3.3,0.5-4.9c0-0.3-0.4-0.4-0.4-0.1c-0.1,0.5-0.2,1.1-0.3,1.6
			c0-0.3,0-0.5,0-0.8l0,0c-0.1-2.3-0.2-6.8,0-9.1c0.2-2.4,1-4.6,3.5-5.4c1.8-0.6,3.9-0.6,5.7-0.8c7.6-0.8,15.3-0.5,22.8-1.2
			c14.6-1.4,29.3-2.6,44-1.6c2.6,0.2,5.1,0.3,6.8,1.6c0,0.3,0.1,0.6,0.5,0.7c0.2,0,0.3,0.1,0.4,0.1c0.6,0.7,1,1.5,1.2,2.7
			c0.2,0.9,0.4,1.9,0.6,2.8v0.1c0,0.1,0.1,0.3,0.1,0.4C-162.3,423.3-161.8,426-161.3,428.7z"/>
		<path d="M-246.4,444.1c-0.1-0.2-0.2-0.5-0.2-0.8c0.2,0.4,0.5,0.6,0.8,0.9c0,0.1,0.1,0.2,0.1,0.3c1.7,1.1,3.8,1.8,5.4,2.2
			c0.3,0.1,0.5,0.1,0.8,0.1c0,0,0,0,0,0c0.4,0.1,0.7,0.1,1,0.2h0l0,0c0,0,0,0,0,0c0.5,0.1,2.4,0.2,4.6,0.2c0.2,0,0.4,0,0.7,0
			c0,0,0,0,0,0c0.2,0,0.4,0,0.6,0c0,0,0,0,0,0c0.5,0,1,0,1.5,0v0c0.1,0,0.2,0,0.3,0c0,0,0,0,0,0c0.5,0,0.9,0,1.4,0c0,0,0,0,0,0
			c0.1,0,0.2,0,0.3,0c0,0,0,0,0,0c2,0,3.9,0,5.9,0c13-0.1,40.3-0.9,49.8-1.3c0,0,0,0,0,0c0.3,0,0.5,0,0.7,0c0,0,0,0,0,0
			c0.4,0,0.8,0,1.1,0c0,0,0,0,0-0.1c0.3,0,0.5,0,0.8,0c0,0,0,0,0,0c0.4,0,0.7,0,0.8,0h0c0.2,0,0.5,0,0.7,0c1.9-0.2,6.4-1.2,6.6-1.4
			c1.6-0.8,3.1-3.5,3.1-3.5c0.1-0.3,0.2-0.6,0.3-0.9c0,0,0,0,0,0c0-0.1,0.1-0.3,0.1-0.4c0.2-0.6,0.4-5.2,0.2-5.4c0,0,0,0,0,0
			c-0.1-0.7-0.2-1.4-0.3-2.1c0,0,0,0,0,0c0-0.2-0.1-0.4-0.1-0.6c0,0,0,0,0,0c0-0.1-0.1-0.3-0.1-0.4c-0.1-0.7-0.3-1.3-0.3-1.6
			c-0.1-0.4-0.4-2.1-0.7-3.8c0,0-0.1-0.1-0.1-0.1c-0.1-0.5-0.2-1-0.3-1.5c0.1,0,0.1,0.1,0.2,0.1c-0.1-0.5-0.2-0.9-0.2-1.3
			c0,0,0,0,0,0c0-0.1,0-0.2,0-0.3c-0.2-0.8-0.3-1.4-0.3-1.4l-0.1-0.1c0-0.2-0.1-0.5-0.1-0.8c0,0,0.1,0,0.1,0.1
			c-0.1-0.7-0.2-1.6-0.2-1.8c0,0.1-1.2-4.4-2-4.7c0-0.1-0.1-0.1-0.1-0.2c-1.9-2.3-5.5-2.3-8.2-2.5c-2.2-0.1-4.4-0.2-6.6-0.2
			c-1.1,0-2.2,0-3.3,0s-2.2,0.1-3.3,0.1c-3.4,0.2-6.7,0.2-10.1,0.3c-2.2,0.1-4.5,0.1-6.7,0.2c-3.3,0.1-6.7,0.3-10.1,0.7
			c-2.5,0.3-5.1,0.4-7.6,0.6s-5.1,0.2-7.7,0.4c-1.3,0.1-2.6,0.1-3.8,0.2c-2.6,0.1-5.1,0.3-7.7,0.5c-1.3,0.1-2.5,0.2-3.8,0.4
			c-3,0.3-5.6,1.2-6.7,4.2c-0.6,1.7-0.8,3.9-0.8,6.3c0,0.7,0,1.3,0,2c0.1,2.4,0.2,4.7,0.3,6.4c0,0.4,0.3,0.6,0.6,0.6
			c0,2.6,0.2,5.3,0.8,7.8c0,0,0,0,0,0C-248,442.6-247.3,443.4-246.4,444.1z M-248,437.4c-0.1-0.8-0.2-1.7-0.2-2.5
			c0-0.9,0.1-1.7,0.2-2.5c0.1-0.8,0.2-1.6,0.3-2.4c0,0,0-0.1,0-0.1c0-0.1-0.2-0.1-0.3-0.1c0,0-0.1,0-0.1,0c-0.1,0.5-0.2,1.1-0.3,1.6
			v-0.8c-0.1-2.3-0.2-6.8,0-9.1c0.2-2.4,1-4.6,3.5-5.4c1.3-0.4,2.8-0.5,4.3-0.6c0.5,0,1-0.1,1.4-0.2c4.7-0.4,9.5-0.5,14.3-0.7
			c2.9-0.1,5.7-0.2,8.5-0.5c14.6-1.4,29.3-2.6,44-1.6c0.3,0,0.6,0,1,0.1c1.3,0.1,2.5,0.2,3.6,0.5c0.8,0.2,1.6,0.5,2.2,1
			c0,0.1,0,0.2,0,0.2c0,0.1,0.1,0.3,0.2,0.4c0.1,0,0.1,0.1,0.2,0.1c0,0,0.1,0,0.2,0c0.1,0,0.2,0,0.2,0c0.5,0.7,0.9,1.6,1.2,2.7
			c0.1,0.5,0.2,0.9,0.3,1.4c0.1,0.5,0.2,0.9,0.3,1.4v0.1c0,0.2,0.1,0.3,0.1,0.4c0.2,0.7,0.3,1.4,0.4,2c0.3,1.4,0.5,2.7,0.7,4
			c0.1,0.7,0.2,1.4,0.4,2c0.1,0.4,0.2,0.8,0.2,1.3c0.3,1.3,0.5,2.6,0.8,3.8c0.1,0.9,0.2,1.7,0.3,2.6c0,0.9,0,1.7-0.2,2.5
			c0,0.3-0.1,0.5-0.2,0.7c-0.1,0.2-0.1,0.4-0.1,0.5c-0.2,0.1-0.3,0.2-0.2,0.4c-0.5,1-1.3,1.7-2.2,2.3c-0.1,0-0.3,0.1-0.3,0.3
			c-0.7,0.3-1.5,0.6-2.3,0.8c-0.4,0.1-0.8,0.2-1.2,0.2s-0.8,0.1-1.3,0.1c-15,1.3-30.2,1.3-45.2,1.6c-1.9,0-3.9,0.1-5.8,0.1
			c-5.9,0.2-11.8,0.3-17.6,0c-0.4,0-0.9-0.1-1.3-0.1c-0.9-0.1-1.7-0.2-2.6-0.4s-1.7-0.5-2.5-0.8c-1.2-0.5-2.3-1.3-3.1-2.3
			c-0.7-0.8-1.2-1.7-1.5-2.7C-247.7,439.1-247.9,438.3-248,437.4z"/>
	</g>
</g>
</svg>
