<?xml version="1.0" encoding="utf-8"?>
<!-- Generator: Adobe Illustrator 19.0.0, SVG Export Plug-In . SVG Version: 6.00 Build 0)  -->
<svg version="1.2" baseProfile="tiny" id="Layer_1" xmlns="http://www.w3.org/2000/svg" xmlns:xlink="http://www.w3.org/1999/xlink"
	 x="0px" y="0px" viewBox="-250 400.1 94.1 41.8" xml:space="preserve">
<g>
	<path fill="#FFFFFF" stroke="#FFFFFF" stroke-miterlimit="10" d="M-246.2,410.6c-0.7,0.8-1.2,1.7-1.5,2.7c-0.3,1.6-0.5,3.2-0.6,4.9
		c0.1,1.7,0.4,3.4,0.6,4.9c0.1,0.3-0.3,0.4-0.4,0.1c-0.1-0.5-0.2-1.1-0.3-1.6c0,0.3,0,0.5,0,0.8l0,0c-0.1,2.3-0.2,6.8,0,9.1
		c0.2,2.4,1,4.6,3.5,5.4c1.8,0.6,3.8,0.6,5.7,0.8c7.5,0.7,15.3,0.5,22.8,1.2c14.6,1.4,29.3,2.6,44,1.6c2.6-0.2,5.1-0.3,6.8-1.6
		c0-0.3,0.1-0.6,0.5-0.7c0.2,0,0.3-0.1,0.5-0.1c0.5-0.7,0.9-1.6,1.2-2.7c0.2-0.9,0.4-1.9,0.6-2.8v-0.1c0-0.2,0-0.3,0.1-0.4
		c0.5-2.7,0.9-5.4,1.4-8.1c0.6-3.3,1.7-6.9,1.1-10.2c-0.1-0.5-0.2-0.9-0.4-1.3c-0.2,0-0.3-0.1-0.2-0.3c-0.5-1-1.3-1.7-2.2-2.3l0,0
		c-0.1,0.1-0.3,0-0.3-0.2c-1.4-0.7-3.1-1-4.8-1.2c-15-1.3-30.2-1.3-45.2-1.6c-7.7-0.1-15.7-0.6-23.4-0.1
		C-240,407-243.8,407.7-246.2,410.6z"/>
	<path d="M-157,430c1.1-5.2,1.3-10.9,1-16.1c-0.2-3-0.9-7.6-4-9.1c-1.8-0.9-4.4-0.6-6.4-0.7c-2.7-0.2-5.3-0.3-8-0.5
		c-11.3-0.7-22.6-1.4-33.9-2.1c-5.8-0.4-11.6-0.7-17.4-1.1c-4.5-0.3-9.2-0.8-13.5,0.5c-8.1,2.5-10,10.6-9.9,18.1
		c-0.3,0-0.6,0.2-0.6,0.6c0,4-0.9,10.9,0.5,14.7c1.1,3,3.7,3.9,6.6,4.2c10.1,1.1,20.5,1,30.6,2c9,0.9,17.8,0.8,26.9,1.3
		c4.4,0.2,8.8,0.2,13.2-0.1c2.7-0.2,6.2-0.3,8.2-2.5c0-0.1,0-0.1,0.1-0.2C-159.9,437.5-157.8,433.9-157,430 M-157.4,421.8
		L-157.4,421.8c-0.8,0.2-1.5,0.8-2.2,1.2c0,0.1-0.1,0.1-0.2,0.2c0.1-0.7,0.3-1.3,0.4-2c0.6,0,1.1-0.4,1.6-0.7
		c0.1-0.1,0.3-0.2,0.5-0.3C-157.4,420.7-157.4,421.3-157.4,421.8 M-157.4,422.2c0,0.6-0.1,1.2-0.3,1.9c-0.7,0.3-1.4,0.8-2.1,1.3
		c-0.2,0.2-0.4,0.3-0.6,0.5c0.1-0.4,0.2-0.9,0.3-1.3c0.4-0.3,0.7-0.5,1-0.8C-158.5,423.3-157.8,422.8-157.4,422.2 M-157.6,424.8
		c0,0.6-0.1,1.2-0.1,1.8c-0.8,0.5-1.6,1-2.3,1.5c-0.2,0.2-0.5,0.4-0.8,0.6c0.1-0.5,0.2-1,0.3-1.5c0.4-0.4,0.8-0.8,1.2-1.1
		C-158.8,425.7-158.2,425.3-157.6,424.8 M-158,428c0,0.3-0.1,0.5-0.3,0.7c-0.4,0.1-0.8,0.4-1.2,0.7c-0.5,0.3-1,0.6-1.5,0.9
		c-0.1,0.1-0.2,0.1-0.3,0.2c0-0.2,0.1-0.5,0.1-0.7c0.6-0.3,1-0.8,1.5-1.2c0.6-0.5,1.2-1,1.8-1.5C-157.9,427.4-158,427.7-158,428
		 M-158.3,429.6c-0.1,0.5-0.2,1-0.4,1.4c-0.7,0.3-1.3,0.5-1.9,0.9c-0.3,0.2-0.6,0.3-0.9,0.5c0-0.2,0.1-0.5,0.1-0.8l0.1-0.1
		c0.5-0.3,1-0.6,1.5-0.9C-159.3,430.4-158.7,430-158.3,429.6 M-161.6,434.1L-161.6,434.1c-0.1-0.1,0-0.3,0-0.5
		c0.6-0.1,1.1-0.6,1.6-0.9c0.3-0.3,0.7-0.5,1-0.8c-0.1,0.4-0.3,0.8-0.5,1.2C-160.2,433.4-160.9,433.7-161.6,434.1 M-248.2,418
		c0.1-1.7,0.2-3.3,0.6-5c0.3-0.9,0.8-1.9,1.5-2.7c2.3-2.7,6.1-3.5,9.5-3.7c7.7-0.5,15.7,0,23.4,0.1c15,0.3,30.2,0.3,45.2,1.6
		c1.7,0.1,3.4,0.5,4.8,1.2c0,0.1,0.1,0.3,0.3,0.2l0,0c0.9,0.5,1.7,1.3,2.2,2.3c0,0.1,0.1,0.3,0.2,0.3c0.2,0.4,0.3,0.8,0.4,1.3
		c0.6,3.3-0.5,7-1.1,10.2c-0.5,2.7-0.9,5.4-1.4,8.1c0,0.1-0.1,0.3-0.1,0.4v0.1c-0.2,0.9-0.4,1.9-0.6,2.8c-0.2,1.2-0.7,2-1.2,2.7
		c-0.2,0-0.3,0.1-0.5,0.1c-0.4,0.1-0.6,0.4-0.5,0.7c-1.7,1.3-4.2,1.4-6.8,1.6c-14.7,1-29.4-0.2-44-1.6c-7.5-0.7-15.3-0.5-22.8-1.2
		c-1.8-0.2-3.9-0.2-5.7-0.8c-2.5-0.8-3.3-3-3.5-5.4c-0.2-2.3-0.1-6.8,0-9.1l0,0c0-0.3,0-0.5,0-0.8c0.1,0.5,0.2,1.1,0.3,1.6
		c0,0.3,0.4,0.2,0.4-0.1C-247.9,421.3-248.1,419.7-248.2,418 M-245.5,407.2c0.3-0.5,0.6-1,0.9-1.4c-0.5,0.9-1,2-1.3,2.9l0,0
		c-0.3,0.2-0.5,0.5-0.8,0.8C-246.4,408.7-246,407.9-245.5,407.2 M-241.9,403.5c0.7-0.4,1.5-0.8,2.5-1.1c-0.5,0.5-0.9,1-1.3,1.5
		c-0.7,0.9-1.2,1.8-1.6,2.8c-0.5,0.2-1,0.4-1.5,0.6c-0.3,0.1-0.5,0.3-0.7,0.4c0.3-0.6,0.6-1.2,0.9-1.7
		C-243,405.2-242.4,404.4-241.9,403.5 M-238.2,401.9c0.4-0.1,0.9-0.2,1.3-0.3c-0.3,0.3-0.6,0.8-0.8,1.1c-0.6,1-1.4,2.1-1.8,3.2
		c-0.9,0.2-1.7,0.3-2.5,0.6c0.6-0.8,1.2-1.6,1.9-2.4C-239.5,403.4-238.6,402.7-238.2,401.9 M-235.5,401.4c0.3,0,0.7,0,0.9-0.2
		c-0.3,0.3-0.6,0.6-0.8,1c-0.6,1-1.4,2.1-1.8,3.3c-0.5,0.1-0.9,0.1-1.4,0.2c0.5-0.6,0.9-1.4,1.3-2c0.3-0.5,0.7-1.1,1.1-1.6
		C-236,401.9-235.7,401.7-235.5,401.4 M-232.7,401.3c0.1,0,0.3,0,0.5-0.1c-0.8,0.5-1.3,1.4-1.8,2.1c-0.4,0.7-0.9,1.4-1.1,2.2
		c-0.2,0-0.3,0-0.5,0c-0.2,0.1-0.5,0.1-0.8,0.1c0.4-0.7,0.9-1.4,1.3-2.1c0.6-0.9,1.2-1.5,2-2.2
		C-232.9,401.3-232.8,401.3-232.7,401.3 M-179,404.5c2.1,0.1,4.2,0.2,6.5,0.4c-0.3,0.4-0.6,0.8-0.8,1.2c-0.2,0.3-0.4,0.5-0.5,0.8
		c-0.3-0.1-0.5-0.1-0.8-0.1c0-0.1,0.1-0.2,0.1-0.3s-0.1-0.2-0.1-0.1c-0.1,0.1-0.2,0.3-0.3,0.4c-0.1,0-0.3,0-0.5,0
		c0.2-0.3,0.3-0.5,0.5-0.8c0.2-0.3,0.4-0.6,0.4-1c0-0.1-0.1-0.2-0.2-0.1c-0.3,0.2-0.5,0.6-0.7,0.9c-0.2,0.3-0.5,0.6-0.6,0.9
		c-15.7-0.8-31.4-1-47.1-1.1c-2,0-3.9,0-5.9,0c0.5-1,1-2.1,1.7-3c0.1,0,0,0,0,0c-0.8,0.9-1.6,1.9-2,3c-0.5,0-0.9,0-1.4,0l0,0
		c0.3-0.5,0.5-1,0.8-1.5c0.3-0.5,0.7-1,1.1-1.5c0-0.1,0-0.2-0.1-0.1c-0.9,0.8-1.8,1.9-2.1,3c-0.1,0,0,0.1,0,0.1c-0.5,0-1,0-1.5,0
		c0.7-1.3,1.6-2.5,2.5-3.7c0.1-0.2-0.1-0.3-0.2-0.2c-1.3,1-2.2,2.4-2.9,3.9c-0.4,0-0.8,0-1.2,0c0.3-0.6,0.6-1.2,1-1.7
		c0.5-0.8,1.3-1.5,1.7-2.4c0-0.1,0-0.2,0-0.2c8.4,0,16.9,1,25.2,1.5C-197.3,403.4-188.1,403.9-179,404.5 M-171,404.9
		c-0.4,0.3-0.7,0.7-0.9,1c-0.1,0.3-0.4,0.6-0.6,0.9c-0.3,0-0.5,0-0.7,0c0.1-0.2,0.2-0.4,0.3-0.6c0.2-0.4,0.3-0.9,0.5-1.3H-171z
		 M-170.6,405c0.4,0,0.8,0,1.2,0.1c-0.3,0.4-0.6,0.7-0.9,1.1c-0.1,0.2-0.4,0.5-0.5,0.8c-0.3-0.1-0.5-0.1-0.8-0.1
		c0.1-0.2,0.2-0.3,0.3-0.5C-171.1,406-170.7,405.5-170.6,405 M-169,405.1c0.7,0,1.4,0.1,2,0.2c-0.4,0.4-0.7,0.8-1.1,1.2
		c-0.2,0.3-0.3,0.5-0.5,0.7c-0.5,0-0.9-0.1-1.4-0.1c0.1-0.2,0.2-0.3,0.3-0.5C-169.5,406.1-169.3,405.6-169,405.1 M-166.7,405.2
		c0.5,0.1,1,0.1,1.5,0c-0.6,0.7-1.1,1.3-1.6,2c-0.4,0-0.7-0.1-1.1-0.1c0.1-0.1,0.2-0.3,0.3-0.4C-167.2,406.2-167,405.7-166.7,405.2
		 M-164.7,405.4c0.6,0,1.2,0,1.7,0.1c-0.3,0.3-0.5,0.7-0.8,1.1c-0.2,0.4-0.5,0.8-0.8,1.2c-0.5-0.1-0.9-0.2-1.4-0.3
		C-165.5,406.8-165.1,406.1-164.7,405.4 M-162.5,405.5c0.5,0,1.1,0.1,1.6,0.4c-0.5,0.5-0.8,1.1-1.1,1.6c-0.2,0.3-0.4,0.7-0.7,1
		c-0.3-0.2-0.6-0.4-1-0.5C-163.2,407.3-162.8,406.4-162.5,405.5 M-160.5,406.1c0.7,0.4,1.1,0.9,1.4,1.5h-0.1
		c-0.4,0.5-0.9,0.9-1.3,1.4c-0.1,0.3-0.3,0.5-0.5,0.7c-0.1,0-0.1-0.1-0.2-0.2c-0.3-0.2-0.5-0.4-0.8-0.6c0.2-0.2,0.3-0.5,0.5-0.8
		C-161.1,407.5-160.6,406.8-160.5,406.1C-160.6,406-160.5,406.1-160.5,406.1 M-158.4,408.8c0.1,0.3,0.2,0.7,0.3,0.9l0,0
		c-0.5,0.2-1,0.6-1.4,1c-0.1,0.2-0.2,0.3-0.4,0.4c-0.2-0.3-0.4-0.6-0.6-0.9c0.2-0.3,0.4-0.5,0.6-0.8c0.3-0.5,0.6-1.1,1-1.6l0,0
		C-158.7,408.1-158.6,408.4-158.4,408.8 M-158,410.1c0.2,0.4,0.3,0.8,0.3,1.3c-0.2,0.2-0.4,0.4-0.6,0.6c-0.3,0.3-0.7,0.5-1,0.8
		c-0.1-0.3-0.2-0.6-0.3-0.9c0.2-0.2,0.4-0.4,0.6-0.6C-158.7,410.9-158.3,410.5-158,410.1 M-157.6,412c0.1,0.5,0.2,1.1,0.3,1.6
		c-0.4,0.3-0.8,0.6-1.1,0.9c-0.1,0.2-0.3,0.3-0.4,0.5c-0.1-0.6-0.2-1.2-0.3-1.8l0,0c0.4-0.1,0.8-0.5,1.1-0.8
		C-157.9,412.3-157.7,412.2-157.6,412 M-157.3,415.1c0,0.4,0,0.8,0,1.2c-0.5,0.5-1.1,0.9-1.6,1.3c0-0.1,0-0.2,0-0.3
		c0-0.4,0-0.9,0-1.3c0.3-0.3,0.5-0.7,0.7-1c0.3-0.3,0.5-0.7,0.8-1C-157.3,414.3-157.3,414.7-157.3,415.1 M-158.6,418
		c0.5-0.5,0.9-1,1.2-1.5c0,1,0,1.9,0,2.9c-0.3,0.2-0.6,0.4-0.9,0.6c-0.3,0.2-0.7,0.4-1.1,0.6c0.1-0.7,0.2-1.4,0.3-2.1
		C-158.9,418.3-158.7,418.1-158.6,418"/>
	<path d="M-225.5,402.9c0.1-0.1-0.1-0.2-0.2-0.2c-0.4,0.6-1,1.1-1.3,1.8c0,0.2,0.2,0.3,0.3,0.2
		C-226.2,404.2-225.9,403.5-225.5,402.9"/>
</g>
</svg>
