<?xml version="1.0" encoding="utf-8"?>
<!-- Generator: Adobe Illustrator 19.0.0, SVG Export Plug-In . SVG Version: 6.00 Build 0)  -->
<svg version="1.1" id="Слой_2" xmlns="http://www.w3.org/2000/svg" xmlns:xlink="http://www.w3.org/1999/xlink" x="0px" y="0px"
	 viewBox="-165 385.1 263.2 72.8" style="enable-background:new -165 385.1 263.2 72.8;" xml:space="preserve">
<style type="text/css">
	.st0{fill:#9DCB45;}
</style>
<g>
	<g>
		<path class="st0" d="M87.8,455.7c0.6-0.6,1.7-0.9,2.5-1.3c1.2-0.7,2.2-1,3.1-2c1.7-1.7,1.4-4.4,1.9-6.6c0.3-1.3,0.4-2.5,0.7-3.8
			c0.1-0.5,0.2-0.8,0.4-1.2c0.2-0.6,0.2-1.2,0.3-1.8c0.3-1,0.6-2.1,0.7-3.2c0.1-1.3,0-2.7,0-4c0-2.7,0-5.3,0-7.9c0-1.3,0-2.5,0-3.7
			c0-0.7,0.2-1.2,0.3-1.9c0.1-0.7,0-1.5,0-2.2c0-2.4,0-4.9,0-7.3c0-2.4,0.2-4.8-0.3-7.1c-0.2-1.2,0.1-2.2-0.4-3.3
			c-0.4-1-1.4-1.5-2-2.4c-0.5-0.6-0.8-1.3-1.4-1.8c-0.9-0.8-1.5-1.8-2.5-2.4c-1-0.6-2.1-0.7-3.2-0.9c-0.9-0.1-1.7,0-2.5-0.2
			c-0.7-0.2-1.4-0.3-2-0.5c-2.1-0.6-4.1-1.8-6.3-2c-1.1-0.1-2.2,0.1-3.3,0.3c-1.3,0.3-2.8,0.1-4.1,0.1c-0.9,0-1.8,0.1-2.7-0.1
			c-0.5-0.1-0.8-0.3-1.3-0.3c-1.1,0-2.2,0-3.3,0c-2.2,0-17.7,0-19.9,0c-1,0-91.4,0.1-92.3,0c-1-0.1-2-0.2-3-0.4
			c-1.9-0.4-4-0.3-6-0.3c-4.4,0-8.8,0-13.2,0c-1.2,0-2.5-0.2-3.6-0.4c-1.3-0.3-2.4-0.3-3.7-0.3c-2.2,0-4.3,0-6.4,0c-2.6,0-5.3,0-8,0
			c-2.9,0-5.7-0.7-8.6-0.7c-2.4,0-4.7,0-7,0c-1.1-0.1-2.1-0.7-3.2-0.7c-1.2,0-2.3,0-3.4,0.3c-1.1,0.3-2.4,0.1-3.5,0.1
			c-1.2,0-2.3,0-3.4,0c-2.7,0-5.5,0-8.2,0c-4.9,0-9.8,0-14.7,0c-1,0-2.3-0.2-3.3,0c-0.5,0.1-0.9,0.4-1.3,0.5
			c-0.6,0.2-1.2,0.1-1.9,0.2c-1.1,0.3-1.8,1-2.7,1.6c-0.8,0.7-1.7,1-2.6,1.6c-0.8,0.6-2.4,0.9-2.9,1.8c-0.3,0.5-0.3,0.9-0.6,1.4
			s-0.3,0.9-0.5,1.5s-0.7,0.9-0.9,1.4c-0.1,0.4,0,0.9-0.1,1.3c-0.2,0.9-0.3,1.9-0.5,2.8c-0.4,1.9-0.1,4.2-0.1,6.2
			c0,1.9-0.3,3.6-0.3,5.6c0,2.5,0,5,0,7.5c-0.1,0.7-0.3,1.1-0.4,1.7c-0.1,0.6,0,1.3,0,1.9c0,1.2-0.3,2.4-0.3,3.6
			c0,0.6,0.1,1.3,0,1.9c-0.1,0.6-0.4,1.1-0.4,1.7c-0.1,1.1,0,2.3,0,3.4c0,1.4,0,2.9,0,4.4c0,0.8-0.1,1.9,0,2.7
			c0.2,0.8,0.7,1.5,1.1,2.3c0.8,1.4,1.4,2.9,2.1,4.2c0.6,0.9,1.4,1.6,2.1,2.3c0.6,0.5,1.1,1.8,2,1.6"/>
		<g>
			<path d="M-157.3,451.3c0.5,0.1,0.7-0.6,0.2-0.7c-5.1-1.6-6.8-10.8-6.8-15c0-4.3,0.3-8.6,0.7-12.8c0.4-4.3,0.2-8.6,0.4-13
				c0.2-4.8-0.3-9.8,1.3-14.3c1.3-4,6.3-7.3,10.3-8.3c4.4-1.1,9.2-0.6,13.8-0.6c9.4,0,18.8-0.1,28.1,0.3c42.7,1.9,85.4,2,128.2,1.9
				c13.5-0.1,26.9-0.1,40.4-0.1c2.5,0,5,0.1,7.5,0.3c3.8,0.2,8.7-0.6,12.3,0.4c2,0.5,3.8,1.5,5.8,1.9c2.3,0.4,4.3,0.1,6.3,1.7
				c2.7,2,4.5,5.6,5.2,8.8c1.1,4.9,0.6,11.3,0.2,16.3c-0.3,3.8-0.2,7.7-0.2,11.6c0,4.8-0.8,9.2-1.7,13.9c-0.4,1.7-0.3,4.3-1,6
				c-1.2,3.3-4,3.8-6.6,5.3c-0.8,0.5-0.1,1.8,0.7,1.3c3.5-2,6.4-2.7,7.3-6.9c0.9-4.4,2.1-9.2,2.6-13.6c0.6-5.7,0-11.6,0.3-17.3
				c0.2-5,0.3-10.2,0-15.1c-0.4-7-4.6-12.2-11.6-13.2c-2.7-0.4-5.1-1.6-7.7-2.2c-2.3-0.5-4-0.1-6.4,0.1c-3.7,0.3-7.4-0.3-11.1-0.3
				c-35.8,0.1-71.5,0-107.3-0.1c-12.1,0-24.2-1.3-36.3-1.3c-10,0-19.9-0.9-29.9-1.3c-4.4-0.2-9.1,0.3-13.6,0.3c-4.7,0-9.4,0-14.1,0
				c-4.2,0-8.3-0.4-12.3,0.8c-1.8,0.5-3.2,1.9-4.8,2.8c-1.3,0.7-2.7,1.1-3.7,2.2c-4.2,5-2.9,13.8-3.2,19.7c-0.3,8.5-0.9,17-1,25.5
				C-165,441.1-162.7,449.8-157.3,451.3L-157.3,451.3z"/>
		</g>
	</g>
	<g>
		<path class="st0" d="M-155.1,453.8c3.5,0.7,6.6,0.4,10-0.4c1.1-0.2,2.4-0.1,3.5-0.1c1.5,0,2.6,0.5,4.1,0.5c1.8,0,3.5-0.1,5.2,0.2
			c2.1,0.4,4.2,0.1,6.3,0.4c2.3,0.4,4.5,0.4,6.9,0.4c2.5-0.1,4.8,0.9,7.3,1c3.6,0.2,7.2,0,10.7,0c1.8,0,3.7,0,5.5,0
			c1.5,0,3-0.1,4.4,0c1.1,0.1,2.2,0.5,3.4,0.6c2.7,0.2,5.4,0,8,0c1.8,0,3.5,0.5,5.3,0.5c4.3,0,8.5,0,12.7,0c1.8,0,3.6-0.1,5.4,0
			c1.9,0.1,3.7,0.5,5.7,0.5c6.9,0,116.7-0.4,123.6-0.4c3,0,5.9,0,8.9,0c3.5,0,5.9-1.2,8.5-3.5c1-0.9,1.8-2.3,2-3.7
			c0.2-1.3-0.2-2.6,0-3.8c0.2-1.4,0.5-2.5,0.5-4c0-1.9,0.5-3.5,0.5-5.4c0-6.7,0-13.3,0-20c0-6.1,0.5-12.2-1.1-18
			c-0.3-1.4-1.1-2.9-2.3-3.6c-1.7-0.9-3.7-1.2-5.6-1.5c-1.6-0.3-3.2-0.5-4.9-0.5c-1.9,0-3.5-0.4-5.3-0.5c-3.6-0.3-7.5-0.9-11.1-1.6
			c-3.6-0.7-110.3,0-114,0c-7.8,0-15.5,0-23.3,0c-1.7,0-3.5,0.1-5.2,0c-2.1-0.1-3.9-0.5-6-0.5c-3.5,0-6.8-0.5-10.2-1.1
			c-3.5-0.6-6.9-0.9-10.5-0.9c-1.8,0-3.2-0.5-4.9-0.5c-1.4,0-2.7,0-4.1,0c-3.3,0-6.6,0-9.9,0c-1.7,0-3.2,0.5-4.9,0.5
			c-1.3,0-2.7,0-4,0c-1.8,0-3.7-0.1-5.5,0c-1.3,0.1-2.5,0.5-4,0.5s-3.2-0.3-4.7,0c-2.1,0.3-4.4,1.1-6.3,2.1
			c-1.1,0.6-1.8,1.3-2.5,2.5c-0.4,0.7-1.1,1.2-1.4,1.9c-0.3,0.5-0.3,1.3-0.5,1.9c-0.8,2.7-1.1,5.2-1.1,8.1c0,3.2-0.5,6.1-0.5,9.3
			c0,2.8,0,5.6,0,8.4c0,6.4,0,12.7,0,19.1c0,1.9,0.1,3.9,0.7,5.7c0.5,1.2,1.3,3,2.3,3.8c1.7,1.5,4.3,2,6.5,2"/>
		<g>
			<path d="M-151,454c0.5,0.1,0.5-0.6,0-0.7c-11.5-0.9-8.9-14.3-8.9-22.6c0-7.9,0-15.7,0.6-23.6c0.2-4.1,0.1-8.4,2.1-12.1
				c2.5-4.6,7.4-5.8,12.3-5.9c14.2-0.4,28.3-1.2,42.5-0.4c7.1,0.4,14.4,1.7,21.6,2.3c7.9,0.7,16.1,0.1,24.1,0.1c4.4,0,8.7,0,13.1,0
				c30.7-0.2,61.5-0.4,92.2-0.2c4.4,0,8.8-0.1,13.1,0.2c3.2,0.2,6.4,1,9.7,1.4c4.3,0.5,8.7,0.6,12.9,1.3c6.9,1.1,8.3,6.6,8.6,12.6
				c0.3,8.3-0.1,16.7-0.1,25c0,6.4,0.9,20-5.4,23.4c-5.4,3-13.9,1.4-20.2,1.4c-31.7,0.1-63.3,0.2-95,0.3c-12.5,0.1-25-0.4-37.5-0.4
				c-7.9,0-16.1,0.1-23.9-0.7c-6.9-0.8-13.8,0-20.7-0.3c-4.2-0.1-8.4-0.9-12.6-1.1c-3.2-0.1-6.5-0.4-9.7-0.7c-3.6-0.3-7.4-1-11-0.9
				c-4,0.1-7.6,1.2-11.6,0.6c-0.9-0.1-1.2,1.2-0.3,1.3c3.6,0.6,6.7,0.2,10.3-0.2c3.5-0.4,7.3,0.1,10.9,0.3c4.1,0.2,8.2,0.8,12.3,0.9
				c4.3,0.1,8.4,1.1,12.6,1.1s8.4-0.1,12.6-0.1c3.7,0,7.4,0.5,11.1,0.6c12.1,0,24.3,0.8,36.4,1c13.8,0.1,27.5-0.1,41.3-0.1
				c19.2-0.1,38.3-0.1,57.5-0.2c6.3-0.1,12.6-0.1,18.9-0.1c6.8,0,15.2,1.7,20.9-2.7c4.5-3.5,3.5-9.5,4-14.7
				c0.8-8.7,0.2-17.6,0.3-26.4c0-5.3,1.3-15.6-3.7-19.3c-4.4-3.1-13.1-2.2-18.1-2.8c-5.9-0.6-11-1.5-16.8-1.6
				c-7.1-0.1-14.2-0.1-21.3-0.1c-31.3,0-62.6,0.3-93.9,0.3c-8.3,0-16.6,0-24.9-0.5c-8.2-0.5-16.4-1.7-24.7-2.4
				c-7.8-0.6-15.6,0.4-23.3,0.4c-3.9-0.1-7.7,0.3-11.6,0.4c-3.2,0-5.9,0.2-8.9,1.5c-4.9,2.1-6.4,6.4-7.1,11.4
				c-1.1,7.6-0.8,15.4-0.8,23c0,4.8,0,9.5,0,14.3c0,3.2-0.2,6.6,0.8,9.7C-158.8,452.4-155.5,453.9-151,454L-151,454z"/>
		</g>
	</g>
	<g>
		<path d="M-142,387c0.5-0.2,0.3-1.2-0.3-0.9c-1.3,0.4-2.3-0.2-3.5,0.5c-0.4,0.3-0.4,1.2,0.2,1.3c3.4,0.5,6.3,1.4,9.4-0.1
			c0.8-0.4,0.2-1.5-0.6-1.4c-2.3,0.4-5.6,0.8-7.9,0.4c0,0.5,0,1.1,0,1.6c2.1-0.8,4.5-0.6,6.7-0.9c1-0.2,0.7-1.8-0.2-1.7
			c-3.4,0.4-6.8,0.5-10.2,0c-1.1-0.2-1.6,1.4-0.5,1.6c0.2,0,0.3,0.1,0.5,0.1c0-0.5,0-1.1,0-1.6c-0.8,0.2-0.9,0.2-1.6,0.6
			c-0.6,0.3-0.5,1.4,0.2,1.5c3.2,0.5,8.7,1.5,11.6-0.3c0.8-0.4,0.4-1.4-0.4-1.5c-0.2,0-0.4-0.1-0.6-0.1c0,0.6,0,1.1,0,1.7
			c2.8-0.1,5.6-0.6,8.4-0.7c1-0.1,1-1.6,0-1.6c-2.6,0.1-4.7,0.2-7.1,1.1c-0.8,0.3-0.7,1.5,0.2,1.5c3.7,0,7.5-0.1,11.1-0.7
			c0.8-0.2,0.6-1.6-0.2-1.5c-1.3,0.1-1.3,0.1-2.5,0.6c-0.8,0.3-0.2,1.4,0.6,1.3c2.1-0.4,6.9,0.1,8.8-1.2c0.6-0.4,0.3-1.2-0.4-1.3
			c-0.9-0.2-1.8-0.2-2.7-0.1c-0.9,0-0.9,1.4,0,1.4c3.2,0.2,6.5,0.6,9.7,0.7c0-0.5,0-0.9,0-1.4c-0.4,0-0.9,0-1.3,0
			c-0.9,0-0.9,1.4,0,1.4c1.2,0,2.5,0,3.8,0c0.9,0,0.9-1.4,0-1.4c-4.5,0-9.4-0.6-13.9,0.4c0.1,0.4,0.3,0.9,0.4,1.4
			c3.2-0.8,6.5,0,9.7,0.2c3.1,0.2,6.1,0.1,9.2,0.1c0.9,0,0.9-1.4,0-1.4c-3.7,0-7.4,0-11-0.3c-2.8-0.2-5.5-0.7-8.3,0
			c-0.9,0.2-0.5,1.6,0.4,1.4c4.2-1,9.1-0.4,13.5-0.4c0-0.4,0-0.9,0-1.4c-1.2,0-2.5,0-3.8,0c-0.9,0-0.9,1.4,0,1.4c0.4,0,0.9,0,1.3,0
			c0.9,0,0.9-1.4,0-1.4c-3.2-0.2-6.5-0.6-9.7-0.7c0,0.4,0,0.9,0,1.4c0.9-0.1,1.8,0,2.7,0.1c-0.2-0.4-0.3-0.9-0.4-1.3
			c-1.8,1.3-6.1,0.6-8.4,1c0.2,0.4,0.4,0.9,0.6,1.3c0.5-0.1,1.1-0.3,1.7-0.4c-0.1-0.5-0.1-1-0.2-1.5c-3.5,0.5-7.2,0.6-10.7,0.6
			c0.1,0.5,0.1,1,0.2,1.5c2.2-0.7,4.4-0.9,6.7-0.9c0-0.5,0-1.1,0-1.6c-2.8,0.1-5.6,0.5-8.4,0.6c-1.1,0.1-1,1.6,0,1.7
			c0.2,0,0.4,0.1,0.6,0.1c-0.1-0.5-0.3-1-0.4-1.5c-2.3,1.4-8,0.4-10.3,0.1c0.1,0.5,0.1,1,0.2,1.5c0.4-0.1,0.8-0.3,1.2-0.4
			c0.8-0.2,0.8-1.4,0-1.6c-0.2,0-0.3-0.1-0.5-0.1c-0.2,0.5-0.3,1.1-0.5,1.6c3.6,0.5,7,0.4,10.6,0c0-0.6-0.1-1.1-0.2-1.7
			c-2.3,0.3-4.6,0.1-6.7,0.9c-0.7,0.2-0.9,1.5,0,1.6c2.9,0.5,6,0,8.8-0.5c-0.2-0.5-0.4-0.9-0.6-1.4c-2.1,1-5.9,0.4-8.4,0.1
			c0.1,0.4,0.2,0.9,0.3,1.3C-144.2,387.2-143,387.4-142,387L-142,387z"/>
	</g>
	<g>
		<path d="M-106.2,386.8C-106.2,386.8-106.2,386.9-106.2,386.8c1,0.2,1.9,0.7,2.8,1.4c0.2-0.2,0.3-0.4,0.4-0.6
			c-0.2-0.1-0.4-0.2-0.6-0.3c-0.2,0.3-0.3,0.6-0.4,0.9c1.3,0.1,2.5,0.8,3.7,1.3c0.6,0.2,0.9-0.7,0.4-1c-0.2-0.1-0.3-0.2-0.5-0.3
			c-0.1,0.3-0.2,0.7-0.3,1c1.2-0.1,2.1,0.8,3.5,0.5c0.2,0,0.4-0.3,0.4-0.5c0-0.2,2.1-0.1,2.4-0.2c0.3,0,0.5-0.3,0.4-0.6
			c0,0-0.1-0.1-0.1-0.2c-0.1-0.3-0.4-0.4-0.6-0.2c-0.3,0.3-2.2,0.1-2.8,0.3c-1.1,0.3,1,0.8-1.1,0.3c-0.8-0.1-1.3-0.5-2.1-0.5
			c-0.6,0-0.8,0.7-0.3,1c0.2,0.1,0.3,0.2,0.5,0.3c0.1-0.3,0.3-0.7,0.4-1c-1.4-0.5-2.5-1.2-4-1.3c-0.5,0-0.8,0.8-0.3,1
			c0.5,0.2,0.5,0.2,1.1,0.2c0.5-0.1,0.5-0.7,0-0.8C-104.5,387.3-105.1,386.8-106.2,386.8L-106.2,386.8z"/>
	</g>
	<g>
		<path d="M-158.7,397.9c0.2,0,0.3-0.3,0.1-0.3c-0.3-0.2-0.5-0.6-0.7-0.8c-0.2-0.3-0.4-0.5-0.6-0.8c-0.3-0.6-0.6-1.1-1.1-1.5
			c-0.2-0.2-0.5,0.1-0.3,0.3c0.5,0.5,0.8,1.3,1.3,1.8c0.2,0.3,0.5,0.6,0.8,0.9C-159,397.7-158.9,397.8-158.7,397.9L-158.7,397.9z"/>
	</g>
	<g>
		<path d="M-158.8,395.8c0.3,0.2,0.8-0.1,0.5-0.5c-0.3-0.5-0.5-1-0.8-1.6c-0.2-0.4-0.5-1-1-0.9c-0.2,0.1-0.4,0.4-0.2,0.6
			c0.1,0.1,0.1,0.4,0.2,0.5c0.1,0.2,0.2,0.4,0.3,0.6C-159.5,395-159.2,395.5-158.8,395.8L-158.8,395.8z"/>
	</g>
	<g>
		<path d="M-157.7,394.2c0.3,0,0.4-0.4,0.3-0.6c-0.2-0.1-0.3-0.5-0.4-0.7c-0.1-0.2-0.3-0.5-0.4-0.7c-0.3-0.6-0.5-1.5-1.2-1.6
			c-0.2,0-0.5,0.1-0.5,0.4c0,0.8,0.5,1.5,1,2.1C-158.6,393.6-158.3,394.2-157.7,394.2L-157.7,394.2z"/>
	</g>
	<g>
		<path d="M-157.2,392c0.3,0.4,0.9,0.1,0.5-0.5c-0.2-0.5-0.5-1-0.8-1.5c-0.1-0.2,0-0.1,0-0.3c0-0.1-0.1-0.3-0.3-0.3
			c-0.1-0.1-0.3,0-0.4,0.1c-0.3,0.4-0.1,0.8,0.1,1.1C-157.8,391.1-157.5,391.5-157.2,392L-157.2,392z"/>
	</g>
	<g>
		<path d="M-156,391.3c0.4,0.4,1-0.2,0.6-0.7c-0.2-0.2-0.1-0.6-0.2-0.8c-0.1-0.3-0.3-0.7-0.5-1c-0.2-0.5-0.9-0.2-1,0.3
			c0,0.5,0.4,0.8,0.6,1.2C-156.4,390.7-156.3,391-156,391.3L-156,391.3z"/>
	</g>
	<g>
		<path d="M-154.5,390.6c0.4,0,0.6-0.6,0.2-0.7c0-0.1-0.1-0.1-0.1-0.1c0.1,0.1,0.1,0.3,0.2,0.4c0-0.3-0.1-0.5-0.2-0.8
			c-0.1-0.3-0.1-0.6-0.3-0.8c-0.2-0.3-0.7-0.4-0.9,0c-0.4,0.7,0.3,1.2,0.6,1.8c0.1,0.1,0.3,0.2,0.4,0.2H-154.5L-154.5,390.6z"/>
	</g>
	<g>
		<path d="M-153.4,390.1C-153.4,390.1-153.3,390.1-153.4,390.1c0.1-0.3,0-0.6-0.1-0.9c-0.2-0.3-0.2-0.6-0.3-1
			c-0.1-0.7-1.1-0.5-1.1,0.1c0,0.4,0.3,0.7,0.6,1C-154,389.5-153.6,389.7-153.4,390.1L-153.4,390.1z"/>
	</g>
	<g>
		<path d="M-151.8,389.5c0.1-0.1,0.2-0.4,0.1-0.6c-0.3-0.2-0.4-0.7-0.4-1.1c0-0.1,0,0.1,0,0c0-0.2,0-0.3,0-0.4c0-0.1,0,0.1,0,0.1
			c0-0.1,0-0.2-0.1-0.3c-0.2-0.3-0.5-0.4-0.8-0.3s-0.4,0.3-0.5,0.5C-153.7,388.1-152.7,390.1-151.8,389.5L-151.8,389.5z"/>
	</g>
	<g>
		<path d="M-151.1,389.1c0.2-0.2,0.2-0.4-0.1-0.5c-0.2-0.3-0.2-0.5-0.2-0.9c-0.2,0.3-0.3,0.5-0.5,0.7c0.3-0.1,0.8,0.3,1,0.5
			c0.1-0.1,0.2-0.1,0.3-0.2c-0.1-0.3-0.4-0.5-0.5-0.8c-0.1-0.2-0.1-0.5-0.2-0.8c-0.3,0.2-0.6,0.5-0.9,0.7c0.4,0.2,0.8,0.4,1.1,0.7
			c0.3,0.3,0.6,0.3,0.9,0.2c0.2-0.1,0.4-0.2,0.4-0.5c0-0.2,0-0.6-0.1-0.7c0-0.2-0.1-0.2-0.3,0c-0.3,0.1-0.3,0.1-0.1,0.2
			c0.1,0.1,0.2,0.1,0.3,0.2c0.3,0.3,0.5,0.7,1.1,0.7c0.7-0.1,0.9-1,0.2-1.2c-0.1,0-0.4-0.5-0.6-0.6c-0.3-0.2-0.6-0.4-0.9-0.4
			c-0.4,0.1-0.8,0.4-0.8,0.8c-0.1,0.3,0.2,0.6,0.2,0.9c0.1-0.1,0.3-0.3,0.4-0.5h-0.1c0.1,0.1,0.3,0.1,0.4,0.1c0.2,0,0-0.1-0.1-0.2
			c-0.1-0.1-0.2-0.2-0.3-0.3c-0.3-0.2-0.6-0.4-0.9-0.6c-0.7-0.3-1.2,0.6-0.6,1.1c0.1,0.1,0.1,0.3,0.2,0.4c0.1,0.1,0.2,0.2,0.3,0.3
			c0.3,0.2,0.6,0.3,0.9,0.4c0.2,0.1,0.3-0.2,0.2-0.3c-0.2-0.2-0.3-0.6-0.5-0.9c-0.2-0.2-0.3-0.4-0.6-0.6c-0.2-0.3-0.8-0.1-0.9,0.2
			c-0.2,0.5-0.1,1,0.2,1.4S-151.5,389.3-151.1,389.1L-151.1,389.1z"/>
	</g>
	<g>
		<path d="M-101.9,388.6c0.1,0.6,0.9,0.4,0.9-0.3c0-0.3-0.3-0.6-0.4-0.9c-0.2-0.3-0.8-0.2-0.8,0.1C-102.3,388-102,388.2-101.9,388.6
			L-101.9,388.6z"/>
	</g>
	<g>
		<path d="M-99.2,389.2c0.4,0,0.5-0.6,0-0.7c-0.7-0.2-0.8-1.4-1.2-1.9c-0.2-0.3-0.6-0.3-0.7,0.1c-0.2,0.5,0.3,1.2,0.6,1.6
			C-100.2,388.8-99.8,389.2-99.2,389.2L-99.2,389.2z"/>
	</g>
	<g>
		<path d="M-97.2,389.1c0.2-0.1,0.2-0.5,0-0.5c-0.9-0.1-1-1.4-1.6-2c-0.2-0.2-0.6-0.1-0.7,0.2c-0.2,0.6,0.4,1.2,0.8,1.7
			C-98.4,388.9-97.8,389.4-97.2,389.1L-97.2,389.1z"/>
	</g>
	<g>
		<path d="M-96.2,389.4c0.4,0.3,0.9-0.4,0.5-0.6c-0.3-0.3-0.5-0.7-0.7-1.1c-0.2-0.2-0.3-0.5-0.4-0.7c-0.1,0-0.1-0.1-0.1-0.1
			c0,0.1,0,0.1,0,0c-0.1-0.1-0.1-0.2-0.1-0.2c-0.2-0.5-0.9-0.1-0.8,0.4c0.1,0.4,0.5,0.9,0.7,1.3C-96.8,388.8-96.6,389.1-96.2,389.4
			L-96.2,389.4z"/>
	</g>
	<g>
		<path d="M-94.8,389.1c0.4,0.4,0.9-0.1,0.6-0.6c-0.2-0.4-0.6-1.1-0.8-1.6c-0.1-0.1-0.1-0.2-0.1-0.3c0,0,0,0,0-0.1
			c0-0.2-0.1-0.1-0.1-0.3c0,0.4,0,0-0.1-0.1s-0.3-0.1-0.4-0.1c-0.1,0.1-0.3,0.1-0.4,0.3c-0.2,0.6,0.1,1.1,0.4,1.6
			C-95.5,388.3-95.2,388.8-94.8,389.1L-94.8,389.1z"/>
	</g>
	<g>
		<path d="M-93.2,389.1c0.3,0.2,0.8-0.3,0.8-0.6c-0.2-0.4-0.4-0.7-0.6-1.1c-0.1-0.1-0.2-0.3-0.2-0.4c-0.1-0.1-0.1-0.2-0.1-0.2
			c-0.1-0.2,0,0-0.1,0.1c0-0.1,0-0.3-0.1-0.4c-0.2-0.2-0.6-0.2-0.8,0c-0.3,0.2-0.2,0.6-0.1,0.9C-94.1,388.1-93.8,388.7-93.2,389.1
			L-93.2,389.1z"/>
	</g>
	<g>
		<path d="M-90.8,389.4c0.4,0,0.5-0.6,0.1-0.8c-0.2-0.1-0.4-0.6-0.5-0.8c-0.2-0.4-0.3-0.8-0.8-0.9c-0.4-0.1-0.6,0.3-0.6,0.6
			c0.1,0.5,0.5,0.9,0.8,1.3C-91.5,389.1-91.3,389.4-90.8,389.4L-90.8,389.4z"/>
	</g>
	<g>
		<path d="M-88.8,390.4c0.3,0,0.4-0.5,0.2-0.7c-0.2-0.1-0.3-0.9-0.4-1.1c-0.3-0.6-0.5-1.1-0.6-1.7c0-0.4-0.6-0.3-0.7,0
			c-0.3,0.9,0.1,1.6,0.5,2.3C-89.5,389.7-89.5,390.3-88.8,390.4L-88.8,390.4z"/>
	</g>
	<g>
		<path d="M-85.9,390.6c0.2-0.1,0.2-0.4,0-0.5c-0.3-0.1-0.5-1.1-0.6-1.4c-0.2-0.5-0.4-1-0.5-1.6c0-0.1-0.2-0.3-0.4-0.2
			c-1,0.3-0.2,1.6,0.1,2.2C-87,389.6-86.7,390.8-85.9,390.6L-85.9,390.6z"/>
	</g>
	<g>
		<path d="M-84.8,390.7c0.1,0.5,1,0.4,1-0.2c0-0.5-0.3-1-0.4-1.5s-0.2-1-0.2-1.5c-0.1,0.1-0.1,0.3-0.2,0.4l0.1-0.1
			c0.2-0.2,0.2-0.6-0.1-0.7h-0.1c-0.1-0.1-0.5-0.1-0.6,0.1C-86.1,388.2-85.1,389.7-84.8,390.7L-84.8,390.7z"/>
	</g>
	<g>
		<path d="M-82,390.8c0.6,0.1,0.8-0.7,0.2-0.9c0.2,0,0-0.1,0-0.2c0-0.1-0.1-0.2-0.1-0.3c-0.1-0.1-0.1-0.3-0.2-0.5
			c-0.1-0.3-0.2-0.6-0.3-1c0-0.3,0-0.6-0.2-0.9c-0.2-0.3-0.7-0.3-0.8,0c-0.4,0.7,0.1,1.7,0.4,2.4C-82.8,389.9-82.6,390.7-82,390.8
			L-82,390.8z"/>
	</g>
	<g>
		<path d="M-80.5,389.8c0.1,0.4,0.7,0.3,0.7,0c0-0.5-0.2-0.9-0.3-1.3c0-0.2-0.1-0.3-0.1-0.5c0-0.2,0.1-0.3,0-0.5s-0.3-0.4-0.5-0.3
			C-81.9,387.6-80.7,389.1-80.5,389.8L-80.5,389.8z"/>
	</g>
	<g>
		<path d="M-78.3,389.8c0.3,0.4,1-0.1,0.8-0.6c-0.5-0.7-0.3-1.8-1-2.4c-0.2-0.1-0.5-0.1-0.6,0.1c-0.3,0.6,0,1.1,0.2,1.6
			C-78.8,389-78.6,389.4-78.3,389.8L-78.3,389.8z"/>
	</g>
	<g>
		<path d="M-72.5,390.3c0.3,0.2,0.5-0.2,0.5-0.4c-0.2-0.4-0.3-0.8-0.4-1.2c-0.2-0.5-0.1-1.1-0.3-1.6c-0.2-0.4-0.8-0.4-0.9,0
			c-0.2,0.6,0.1,1.4,0.3,2C-73.2,389.5-72.9,390-72.5,390.3L-72.5,390.3z"/>
	</g>
	<g>
		<path d="M-69.2,390.2c0.3-0.4-0.3-0.7-0.6-0.5c0.3-0.2,0.3,0.1,0.1-0.2c-0.1,0-0.1-0.1-0.2-0.2c-0.1-0.2-0.2-0.4-0.3-0.6
			c-0.1-0.2-0.2-0.5-0.3-0.7c0-0.3,0-0.5,0-0.8c-0.1-0.2-0.4-0.3-0.6-0.2c-0.9,0.5-0.2,1.8,0.2,2.5C-70.5,390-69.8,391-69.2,390.2
			L-69.2,390.2z"/>
	</g>
	<g>
		<path d="M-68.1,390.6c0.3,0.5,1.1,0.1,0.7-0.5c-0.3-0.7-0.6-1.4-0.8-2.1c0-0.2,0-0.4-0.1-0.5c0-0.1,0-0.2,0-0.2
			c-0.3,0.2-0.4,0.3-0.2,0.3c0.1,0,0.1,0,0.2,0c0.2,0,0.3-0.3,0.2-0.4c-0.4-0.7-1.2-0.3-1.1,0.5C-69.1,388.7-68.6,389.7-68.1,390.6
			L-68.1,390.6z"/>
	</g>
	<g>
		<path d="M-66.2,389.8c0-0.4-0.7-0.4-0.3,0c0-0.7,1.1,0.4,1,0.3c0.3,0.3,0.8,0.1,0.7-0.4c-0.6-2.5-0.3-0.3,0,0
			c0.8,0.8,0.5,0.7,1.4,1.3c0.4,0.2,0.8-0.1,0.7-0.5c-0.3-1.1-0.7-0.6-0.1-0.1c0.3,0.3,0.8,0,0.7-0.4c-0.4-1.5-0.8-0.5,0.1-0.2
			c-0.5-0.1,1.6,1,1.2,0.8c0.3,0.1,0.9-0.2,0.7-0.6c-0.5-1.3-0.4-0.7,1,0c0.4,0.2,0.8-0.1,0.8-0.5c0-1.5-1.1-0.6,1.1,0.5
			c0.3,0.1,0.9,0,0.8-0.5c-0.1-0.8,0,0.3,1.4,0.4c0.5,0,0.7-0.5,0.5-0.8c-0.4-0.6-0.2-0.5,0.5,0.3c0.7,0.1,1.4,0.3,2.1,0.6
			c0.1-0.3,0.2-0.7,0.3-1c-1.7-0.3-3.9-0.5-1,0.1c0.4,0.1,0.6,0.2,0.9,0.2c0.5,0.1,1.1,0.1,1.6,0.1c2.5,0.1,4.9,0.1,7.4,0.1
			c17.2,0.1,34.3,0.2,51.5,0.2c11.1,0,22.6,0.8,33.7,0.2c0.8-0.1,1-1.3,0.2-1.4c-3.9-0.6-8.1-0.1-12-0.1c-28.3,0-56.6,0.6-84.9,0.1
			c0,0.5,0,1,0,1.5c5.7-0.6,11.5-0.2,17.1-0.2c32.8-0.1,65.5-0.2,98.2,0.2c0.9,0,1.2-1.5,0.2-1.7c-1.5-0.3-3-0.6-4.5-0.7
			c0,0.5,0,1.1,0,1.7c2.7,0.1,6.6,0.4,9.3,1.3c0-0.6,0.1-1.1,0.2-1.7c-1-0.1-2.1-0.3-3.1-0.4c-1.2-0.1-1.5,1.3-0.5,1.7
			c1.7,0.7,7.5,2.1,9,1c0.9-0.7,0-2.2-0.9-1.5c-1.1,0.8-6.5-0.7-7.6-1.2c-0.2,0.6-0.3,1.1-0.5,1.7c1.4,0.2,2.2,0.3,3.6,0.5
			c1,0.1,1.1-1.4,0.2-1.7c-2.9-1-6.7-1.3-9.8-1.4c-1.1-0.1-1.1,1.6,0,1.7c1.4,0.2,2.8,0.4,4.1,0.7c0-0.6,0.1-1.1,0.2-1.7
			c-7.4-0.1-14.9-0.3-22.3-0.3c-16.9-0.1-33.8,0.1-50.7,0.2c-9.4,0-18.7,0.1-28.1,0.1c-4.7,0-9.5-0.3-14.1,0.2c-0.9,0.1-1,1.5,0,1.5
			c4.8,0.1,9.5,0.1,14.3,0.1c16.5-0.1,33-0.1,49.5-0.2c7.5,0,14.9-0.1,22.4-0.1c3.4,0,7-0.4,10.3,0.1c0.1-0.5,0.1-0.9,0.2-1.4
			c-4.1,0.2-8.3-0.2-12.4-0.2c-17.4,0-34.7,0-52.1,0c-7.4,0-14.7,0-22,0c-2.1,0-4.2,0.1-6.3,0c-1.9-0.1-3.9-0.9-5.7-0.7
			c-0.4,0.1-0.8,0.6-0.4,0.9c1.1,1,2.9,1.4,4.3,1.7c0.7,0.1,0.9-0.8,0.3-1c-1.2-0.5-2.4-1-3.7-0.9c-0.4,0-0.7,0.4-0.5,0.8
			c0.5,0.8,0.1,0.5-1.1-1c-0.4-0.3-0.9,0.2-0.8,0.6c-0.1-0.3-1.3-1.1-1.6-1.3c-0.4-0.3-0.9,0.2-0.8,0.6c0.4,1.4,0.1,0.3-1-0.3
			c-0.4-0.2-1,0.2-0.8,0.6c0.8,2.4,0.3,0.8-0.9-0.5c-0.3-0.3-0.8-0.1-0.8,0.3c0.2,1.5,1.1,1.5-0.3-0.2c-0.3-0.3-0.8,0-0.7,0.4
			c1,2.6,0-0.5-1-1.1c-0.3-0.2-0.7,0-0.7,0.4c0.1,1.1,1.1,1.7-0.1,0.3c-0.2-0.3-0.6,0.1-0.6,0.4c0,0.6,0.1,1.1,0.3,1.7
			c0.1,0.4,0.7,0.3,0.7-0.1V389.8L-66.2,389.8z"/>
	</g>
	<g>
		<path d="M69.5,391.6c0.1,0.2,0.4,0.2,0.4,0.2c0.3-0.5-0.1-1.1-0.2-1.6c-0.1-0.4-0.1-0.7-0.2-1c-0.1-0.1-0.1-0.2-0.1-0.3
			s0-0.1,0-0.2c0-0.1,0-0.1-0.1,0.1c0.3,0,0.6-0.2,0.5-0.5c-0.1-0.5-0.5-0.8-1-0.6c-0.5,0.1-0.6,0.6-0.5,1
			C68.5,389.7,69,390.7,69.5,391.6L69.5,391.6z"/>
	</g>
	<g>
		<path d="M71,391.7c0.2,0.3,0.6,0.2,0.7,0c0.2-0.3,0.1-0.8,0-1.2c0-0.2,0-0.4,0-0.6c0-0.1,0-0.2,0-0.2c0-0.1,0-0.1-0.1,0.1
			c0-0.1,0.1-0.1,0.1-0.2c0.1-0.2,0.1-0.5-0.1-0.7c-0.3-0.3-0.8-0.3-1.1,0.1c-0.2,0.3-0.2,0.6-0.1,1C70.5,390.6,70.8,391.2,71,391.7
			L71,391.7z"/>
	</g>
	<g>
		<path d="M72.7,392.8c0.6,0,0.6-0.8,0-1h-0.1c0.2,0.2,0.3,0.3,0.4,0.5c0-0.7,0-1.3,0-2c0-0.3,0-0.7,0.1-1c0-0.3-0.1,0.2,0-0.1
			c0-0.1,0.1-0.2,0.1-0.3c0.1-0.3-0.2-0.7-0.5-0.7c-0.7,0.1-1,0.6-1,1.3c-0.1,1,0.1,2,0.4,2.9c0.1,0.3,0.3,0.4,0.5,0.4H72.7
			L72.7,392.8z"/>
	</g>
	<g>
		<path d="M74.9,392.4c0.5-0.1,0.3-0.9-0.1-1.1c0.4,0.1,0.1,0.3,0.2,0c0-0.1,0-0.3,0-0.4c0-0.2,0.1-0.5,0.1-0.7c0-0.2,0-0.5,0.1-0.7
			c0.1-0.3,0.3-0.5,0.4-0.8c0-0.3-0.2-0.6-0.5-0.6c-1.3,0-1.3,1.6-1.3,2.5C73.8,391.3,73.9,392.6,74.9,392.4L74.9,392.4z"/>
	</g>
	<g>
		<path d="M76.8,391.9c0.1,0.4,0.7,0.4,0.8,0c0.1-0.7,0.2-1.4,0.1-2c0-0.4-0.3-1-0.1-1.4c0.1-0.3-0.2-0.6-0.5-0.5
			c-0.6,0.3-0.7,0.8-0.6,1.4c0.1,0.4,0.2,0.7,0.2,1.1C76.7,391,76.7,391.4,76.8,391.9L76.8,391.9z"/>
	</g>
	<g>
		<path d="M79.3,391.4c-0.3,0.5,0.4,0.8,0.8,0.4c0.3-0.2,0.4-0.6,0.4-1c0-0.4,0.3-0.7,0.2-1.2c-0.1-0.2-0.3-0.3-0.5-0.3
			c-0.6,0-0.8,0.4-0.9,0.9c0,0.2,0,0.5,0,0.7C79.3,391.1,79.4,391.2,79.3,391.4L79.3,391.4z"/>
	</g>
	<g>
		<path d="M82.6,393.2c0.1,0,0.2-0.2,0.3-0.3c-0.1,0-0.1,0-0.1,0c0,0.1,0,0.2,0,0.3c0.2-0.4,0.4-0.7,0.6-1.1
			c0.2-0.6,0.8-1.2,0.8-1.9c0-0.5-0.7-0.8-1-0.3c-0.2,0.3-0.4,0.5-0.6,0.9c-0.2,0.3-0.2,0.6-0.3,0.9c-0.1,0.4-0.3,0.9-0.1,1.3
			c0.1,0.1,0.2,0.2,0.3,0.2H82.6L82.6,393.2z"/>
	</g>
	<g>
		<path d="M85.9,393c-0.2,0.2-0.2,0.6,0.1,0.7h0.1c0.1,0,0.3,0,0.4-0.2c0.2-0.5,0.7-0.7,1-1c0.4-0.4,0.8-0.9,0.7-1.5
			c0-0.3-0.5-0.5-0.7-0.3c-0.5,0.3-0.7,0.9-1.1,1.3c-0.4,0.4-0.7,0.7-0.6,1.3c0.1-0.1,0.1-0.3,0.2-0.4C86,393,85.9,393,85.9,393
			L85.9,393z"/>
	</g>
	<g>
		<path d="M88.8,394.6c0.1,0.2,0.5,0.2,0.5-0.2c0.1-0.2,0.7-0.3,0.9-0.4c0.5-0.2,1-0.3,1.5-0.5c0.4-0.1,0.3-0.7-0.1-0.7
			c-0.8,0-1.5,0.3-2.1,0.7C89.1,393.8,88.6,394.1,88.8,394.6L88.8,394.6z"/>
	</g>
	<g>
		<path d="M90.3,395.8c-0.2,0.2,0.1,0.6,0.4,0.4c0.3-0.1,0.8,0,1.1-0.1c0.4-0.1,0.8-0.1,1.2-0.2c0.6,0,1.3-0.1,1.7-0.7
			c0.1-0.3-0.2-0.7-0.5-0.6s-0.7,0.1-1,0.2c-0.4,0.1-0.8,0.2-1.2,0.3s-0.8,0.3-1.2,0.4C90.6,395.6,90.5,395.6,90.3,395.8L90.3,395.8
			z"/>
	</g>
	<g>
		<path d="M91.8,397.7c-0.3,0.3,0,0.7,0.4,0.5c0.5-0.1,1-0.3,1.6-0.4c0.7-0.1,1.4-0.1,2.1-0.3c0.5-0.1,0.5-0.8,0-0.9
			c-0.9-0.1-1.6,0-2.4,0.2C92.8,397,92.4,397.3,91.8,397.7L91.8,397.7z"/>
	</g>
	<g>
		<path d="M92.6,400.7c-0.6,0-0.6,0.9,0,0.9c1.3,0,2.8,0,4.2-0.3c0.3-0.1,0.3-0.5,0-0.6C95.5,400.4,94,400.7,92.6,400.7L92.6,400.7z
			"/>
	</g>
	<g>
		<path d="M93.6,404.4c-0.6,0-0.6,0.9,0,0.8c1,0,1.9,0.1,2.8-0.1c0.3,0,0.3-0.5,0-0.6C95.4,404.4,94.5,404.4,93.6,404.4L93.6,404.4z
			"/>
	</g>
	<g>
		<path d="M93.7,407.6c-0.6,0-0.6,1.1,0,1c0.8,0,1.5,0,2.3-0.1c0.5-0.1,0.5-0.7,0-0.8C95.3,407.6,94.5,407.6,93.7,407.6L93.7,407.6z
			"/>
	</g>
	<g>
		<path d="M76.9,391.8c0.2-0.1,0.1-0.3,0.2-0.2c-1.3,0-2.6,0-3.9-0.1c0,0.4,0,0.8,0,1.2c1.1,0,2.1,0.4,3.1,0.3
			c0.4,0,0.8-0.5,0.5-0.9c-0.8-1.3-3-0.9-4.1-1.9c-0.1,0.4-0.1,0.8-0.2,1.2c0.2-0.1,1.9,0.6,2.3,0.7c1.2,0.3,2.5,0.7,3.7,1
			c0.1-0.5,0.3-0.9,0.4-1.4c-1.2-0.2-2.3-0.6-3.4-0.8c-0.9-0.1-1.2,1.1-0.4,1.4c2.4,1,5.9,1.8,8.5,1.4c0.4-0.1,0.4-0.8,0-0.9
			c-2.7-0.4-5.7-0.9-8.2-1.9c-0.1,0.5-0.3,0.9-0.4,1.4c1.2,0.2,2.3,0.6,3.4,0.8c0.7,0.1,1.3-0.9,0.5-1.3c-1.5-0.7-3.2-1.1-4.8-1.6
			c-0.8-0.3-2-0.8-2.7-0.1c-0.4,0.4-0.2,0.9,0.2,1.2c0.5,0.5,1.2,0.6,1.9,0.8c0.2,0,1.9,0.3,2,0.5c0.2-0.3,0.3-0.6,0.5-0.9
			c-1,0.1-2.1-0.3-3.1-0.3c-0.8,0.1-0.7,1.3,0,1.2C74.5,392.5,75.5,392.1,76.9,391.8L76.9,391.8z"/>
	</g>
	<g>
		<path d="M-68.7,390.2c0.4-0.1,0.3-0.8-0.1-0.7c-1.6,0.2-3.8,0.2-5.4-0.2c-0.5-0.1-1,0.4-0.7,0.9l0.1,0.1c0.2-0.3,0.3-0.6,0.5-0.9
			c-1,0.1-2.2,0.5-3.2,0.1c0,0.5,0,1,0,1.5c0.4-0.1,0.9-0.2,1.3-0.4c0.7-0.3,0.6-1.4-0.2-1.4c-4.3,0.2-8.5-0.3-12.8-1.1
			c-0.5-0.1-1,0.7-0.4,0.9c4.2,1.8,8.7,1.6,13.2,1.6c-0.1-0.5-0.1-0.9-0.2-1.4c-0.5,0.1-0.9,0.2-1.4,0.3c-0.8,0.2-0.7,1.3,0,1.5
			c1.4,0.5,2.4-0.1,3.8-0.4c0.5-0.1,0.5-0.6,0.4-0.9c-0.1-0.1-0.1-0.1-0.1-0.2c-0.2,0.3-0.5,0.6-0.7,0.9
			C-72.8,391-70.5,390.6-68.7,390.2L-68.7,390.2z"/>
	</g>
</g>
</svg>
