<?xml version="1.0" encoding="utf-8"?>
<!-- Generator: Adobe Illustrator 19.0.0, SVG Export Plug-In . SVG Version: 6.00 Build 0)  -->
<svg version="1.2" baseProfile="tiny" id="Слой_2"
	 xmlns="http://www.w3.org/2000/svg" xmlns:xlink="http://www.w3.org/1999/xlink" x="0px" y="0px" viewBox="0 0 137 42.9"
	 xml:space="preserve">
<path fill="#FF4E63" d="M133.2,18.6c0.1,0.7,0.3,1.3,0.4,2c0.6,0,1.1,0.4,1.6,0.7c0.2,0.1,0.3,0.2,0.5,0.3c0-0.5,0-1.1-0.1-1.6
	c0,0,0,0,0,0c-0.8-0.2-1.5-0.8-2.2-1.3C133.4,18.7,133.3,18.6,133.2,18.6z"/>
<path fill="#FF4E63" d="M132.7,16c0.1,0.4,0.2,0.9,0.3,1.3c0.3,0.3,0.6,0.5,1,0.8c0.6,0.5,1.3,1,1.7,1.6c0-0.6-0.1-1.3-0.1-1.9
	c-0.8-0.3-1.5-0.8-2.1-1.3C133.2,16.3,132.9,16.2,132.7,16z"/>
<path fill="#FF4E63" d="M132.2,13.2c0.1,0.5,0.2,1,0.3,1.5c0.4,0.3,0.8,0.8,1.2,1.1c0.6,0.4,1.2,0.8,1.7,1.3
	c-0.1-0.6-0.1-1.2-0.2-1.8c-0.8-0.4-1.5-0.9-2.3-1.5C132.7,13.6,132.4,13.4,132.2,13.2z"/>
<path fill="#FF4E63" d="M132.1,11.4c-0.1-0.1-0.2-0.1-0.3-0.2c0,0.2,0.1,0.5,0.1,0.7c0.5,0.4,1,0.9,1.5,1.2c0.6,0.5,1.2,1,1.8,1.5
	c0-0.3-0.1-0.6-0.1-0.9c0-0.2-0.1-0.5-0.1-0.7c-0.5-0.1-0.8-0.5-1.2-0.7C133.2,12,132.7,11.7,132.1,11.4z"/>
<path fill="#FF4E63" d="M131.6,9.4c0,0.3,0.1,0.6,0.1,0.8c0,0,0.1,0.1,0.1,0.1c0.5,0.3,1,0.6,1.5,0.9c0.4,0.3,1,0.6,1.5,1
	c-0.1-0.5-0.3-1-0.4-1.5c-0.6-0.3-1.3-0.5-1.9-0.9C132.2,9.7,131.9,9.5,131.6,9.4z"/>
<path fill="#FF4E63" d="M133,9.2c0.4,0.2,0.7,0.5,1,0.8c-0.1-0.4-0.3-0.8-0.5-1.2c-0.7-0.3-1.4-0.6-2.1-1c0,0-0.1,0-0.1-0.1
	c0,0.2,0.1,0.4,0.1,0.5C132,8.3,132.6,8.9,133,9.2z"/>
<path fill="#FF4E63" d="M4.3,34.4c-0.3-0.3-0.6-0.6-0.8-0.8c0.3,0.8,0.7,1.6,1.2,2.4c0.3,0.5,0.6,1,1,1.4
	C5.1,36.4,4.6,35.3,4.3,34.4C4.3,34.4,4.3,34.4,4.3,34.4z"/>
<path fill="#FF4E63" d="M7.7,36.3c-0.5-0.2-1-0.4-1.5-0.6c-0.2-0.1-0.4-0.3-0.7-0.4c0.3,0.6,0.6,1.1,0.9,1.7
	c0.5,0.9,1.2,1.7,1.7,2.5c0.7,0.5,1.5,0.8,2.4,1.2c-0.5-0.5-0.9-1.1-1.3-1.5C8.6,38.3,8.1,37.4,7.7,36.3z"/>
<path fill="#FF4E63" d="M10.7,37.1C9.8,37,9,36.8,8.2,36.5c0.6,0.8,1.2,1.6,1.9,2.4c0.6,0.7,1.5,1.3,1.9,2.2
	c0.4,0.1,0.9,0.2,1.3,0.3c-0.3-0.3-0.6-0.7-0.8-1.1C11.9,39.4,11.1,38.3,10.7,37.1z"/>
<path fill="#FF4E63" d="M13,37.4c-0.5,0-1-0.1-1.4-0.2c0.5,0.6,0.9,1.4,1.3,2c0.3,0.5,0.7,1.1,1.1,1.6c0.2,0.3,0.5,0.5,0.7,0.7
	c0.3,0,0.7,0.1,1,0.1c-0.3-0.3-0.6-0.7-0.8-1C14.2,39.7,13.4,38.6,13,37.4z"/>
<path fill="#FF4E63" d="M16.1,39.7c-0.4-0.6-0.9-1.4-1.1-2.2c-0.2,0-0.3,0-0.5,0c-0.3,0-0.6,0-0.8-0.1c0.5,0.7,0.9,1.4,1.3,2.1
	c0.6,0.9,1.2,1.5,2,2.2c0.1,0,0.2,0,0.4,0c0.2,0,0.3,0,0.5,0C17.2,41.3,16.6,40.4,16.1,39.7z"/>
<path fill="#FF4E63" stroke="#FF4E63" stroke-miterlimit="10" d="M119.1,35.1c-0.3,0-0.5,0-0.8,0.1c0,0.1,0.1,0.2,0.1,0.3
	c0,0.1-0.1,0.1-0.1,0.1c-0.1-0.1-0.2-0.3-0.3-0.4c-0.2,0-0.4,0-0.5,0c0.2,0.2,0.4,0.5,0.5,0.8c0.2,0.3,0.4,0.6,0.4,1
	c0,0.1-0.1,0.1-0.2,0.1c-0.3-0.2-0.5-0.6-0.7-0.9c-0.2-0.3-0.4-0.6-0.6-0.9c-15.7,0.9-74.3,2.2-90,2.4c-2,0-3.9,0-5.9,0
	c0.6,1,1.1,2,1.7,3c0,0,0,0.1,0,0c-0.8-0.9-1.5-1.9-2-3c-0.5,0-0.9,0-1.4,0c0,0,0,0,0,0c0.3,0.5,0.5,1,0.8,1.5
	c0.3,0.5,0.7,1,1.1,1.5c0.1,0.1,0,0.1-0.1,0.1c-0.8-0.8-1.7-1.9-2.1-3c0-0.1,0-0.1,0-0.1c-0.5,0-1,0-1.5,0c0.7,1.3,1.5,2.5,2.5,3.7
	c0.1,0.1,0,0.3-0.2,0.2c-1.3-1-2.2-2.4-2.9-3.9c-0.4,0-0.8,0-1.2,0c0.4,0.5,0.7,1.2,1,1.7c0.6,0.8,1.4,1.5,1.7,2.4
	c0,0.1,0,0.1,0,0.2c8.4,0,59.7-2.2,68-2.7c9.1-0.6,18.3-1.1,27.4-1.7c2.1-0.1,4.2-0.3,6.3-0.4c-0.3-0.4-0.5-0.8-0.8-1.2
	C119.4,35.6,119.2,35.3,119.1,35.1z M24.4,40.2c-0.4-0.6-1-1.1-1.3-1.8c-0.1-0.2,0.2-0.3,0.3-0.2c0.5,0.5,0.8,1.2,1.2,1.8
	C24.7,40.3,24.5,40.4,24.4,40.2z"/>
<path fill="#FF4E63" d="M120.4,35c-0.2,0-0.4,0-0.7,0c0.1,0.2,0.2,0.4,0.3,0.6c0.2,0.4,0.4,0.9,0.5,1.3c0.4,0,0.9-0.1,1.3-0.1
	c-0.3-0.3-0.6-0.7-0.9-1C120.9,35.6,120.6,35.3,120.4,35z"/>
<path fill="#FF4E63" d="M122.2,34.9c-0.3,0-0.5,0-0.8,0.1c0.1,0.2,0.2,0.3,0.3,0.5c0.3,0.4,0.6,0.9,0.7,1.4c0.4,0,0.8-0.1,1.3-0.1
	c-0.3-0.4-0.6-0.7-0.9-1.1C122.5,35.5,122.3,35.2,122.2,34.9z"/>
<path fill="#FF4E63" d="M124.4,34.7c-0.5,0-0.9,0.1-1.4,0.1c0.1,0.2,0.2,0.3,0.3,0.5c0.3,0.5,0.5,1,0.7,1.5c0.7,0,1.3-0.1,2-0.1
	c-0.4-0.4-0.8-0.8-1.1-1.2C124.7,35.2,124.5,35,124.4,34.7z"/>
<path fill="#FF4E63" d="M125.2,34.7c0.1,0.1,0.2,0.3,0.3,0.4c0.3,0.5,0.6,1,0.9,1.5c0.5,0,1-0.1,1.5-0.1c-0.6-0.6-1.1-1.3-1.6-2
	C125.9,34.6,125.6,34.6,125.2,34.7z"/>
<path fill="#FF4E63" d="M128.5,34.1c-0.5,0.1-0.9,0.2-1.4,0.3c0.5,0.7,0.9,1.4,1.3,2.1c0.6,0,1.2,0,1.7-0.1
	c-0.3-0.4-0.5-0.7-0.8-1.1C129,34.9,128.7,34.5,128.5,34.1z"/>
<path fill="#FF4E63" d="M130.3,33.4c-0.3,0.2-0.7,0.3-1,0.5c0.5,0.7,1,1.7,1.2,2.5c0.6-0.1,1.1-0.2,1.6-0.4c-0.4-0.4-0.7-1-1.1-1.6
	C130.8,34.1,130.6,33.7,130.3,33.4z"/>
<path fill="#FF4E63" d="M133.9,34.2c-0.4-0.5-0.9-0.9-1.3-1.4c-0.2-0.2-0.4-0.4-0.5-0.7c-0.1,0.1-0.1,0.2-0.2,0.2
	c-0.2,0.2-0.5,0.4-0.8,0.6c0.2,0.3,0.4,0.6,0.5,0.8c0.4,0.6,0.8,1.3,0.9,2c0,0,0.1,0,0.1,0c0.7-0.4,1.1-0.9,1.5-1.6
	C134,34.2,133.9,34.3,133.9,34.2z"/>
<path fill="#FF4E63" d="M133.6,31c-0.1-0.1-0.3-0.2-0.4-0.4c-0.2,0.3-0.4,0.6-0.6,0.9c0.2,0.3,0.4,0.5,0.6,0.8
	c0.4,0.5,0.7,1.1,1,1.6c0,0,0,0,0,0c0.2-0.3,0.4-0.7,0.5-1c0.1-0.3,0.3-0.7,0.4-1c0,0,0,0,0,0C134.5,31.8,134,31.4,133.6,31z"/>
<path fill="#FF4E63" d="M133.8,29.1c-0.1,0.3-0.2,0.6-0.3,0.9c0.2,0.2,0.4,0.4,0.6,0.6c0.4,0.4,0.8,0.7,1,1.2
	c0.1-0.4,0.2-0.9,0.3-1.3c-0.2-0.2-0.4-0.4-0.6-0.6C134.4,29.6,134,29.4,133.8,29.1z"/>
<path fill="#FF4E63" d="M134.1,26.9c0,0.6-0.1,1.2-0.3,1.8c0,0,0,0,0,0c0.4,0.1,0.8,0.5,1.1,0.8c0.1,0.1,0.3,0.3,0.4,0.4
	c0.1-0.5,0.1-1.1,0.2-1.6c-0.4-0.3-0.7-0.6-1.1-0.9C134.4,27.2,134.3,27,134.1,26.9z"/>
<path fill="#FF4E63" d="M134.1,24.6c0,0.4,0,0.9,0,1.3c0.3,0.3,0.5,0.7,0.7,1c0.2,0.4,0.5,0.7,0.8,1c0-0.4,0.1-0.8,0.1-1.1
	c0-0.4,0-0.8,0-1.2c-0.5-0.4-1.1-0.8-1.6-1.3C134.1,24.4,134.1,24.5,134.1,24.6z"/>
<path fill="#FF4E63" d="M134.8,21.9c-0.4-0.2-0.8-0.4-1.1-0.6c0.1,0.7,0.2,1.4,0.3,2.1c0.2,0.2,0.3,0.4,0.5,0.5
	c0.4,0.4,0.8,0.9,1.3,1.4c0-1,0-1.9,0-2.9C135.4,22.3,135.1,22,134.8,21.9z"/>
<path fill="#FF4E63" d="M23.4,38.3c-0.1-0.1-0.3,0-0.3,0.2c0.3,0.7,0.9,1.2,1.3,1.8c0.1,0.1,0.3,0,0.2-0.1
	C24.2,39.5,23.9,38.8,23.4,38.3z"/>
<path fill="#FF4E63" stroke="#FF4E63" stroke-miterlimit="10" d="M13.5,36.6c7.8,0.5,15.7,0,23.5-0.1c15-0.3,73.2-1.5,88.2-2.8
	c1.7-0.1,3.4-0.5,4.8-1.2c0-0.2,0.2-0.3,0.3-0.2c0,0,0,0,0,0c0.9-0.6,1.7-1.3,2.2-2.3c-0.1-0.2,0-0.3,0.2-0.3
	c0.2-0.4,0.3-0.8,0.4-1.3c0.6-3.3-0.5-7-1.1-10.2c-0.5-2.7-0.9-5.4-1.5-8.1c-0.1-0.1-0.1-0.2-0.1-0.4c0,0,0-0.1,0-0.1
	c-0.2-0.9-0.4-1.9-0.6-2.8c-0.3-1.2-0.7-2-1.2-2.7c-0.2,0-0.3-0.1-0.5-0.1c-0.4-0.1-0.5-0.4-0.5-0.7c-1.7-1.3-4.2-1.4-6.8-1.6
	c-14.7-1-72.4,1.4-87,2.8c-7.6,0.7-15.3,0.5-22.9,1.2C9.1,5.8,7,5.8,5.2,6.3c-2.6,0.8-3.4,3-3.5,5.5c-0.2,2.3-0.1,6.8,0,9.2
	c0,0,0,0,0,0c0,0.3,0,0.5,0,0.8c0.1-0.5,0.2-1.1,0.3-1.6c0.1-0.3,0.5-0.2,0.4,0.1c-0.2,1.5-0.5,3.2-0.6,4.9c0.1,1.7,0.3,3.3,0.6,5
	c0.3,1,0.8,1.9,1.5,2.7C6.3,35.6,10.1,36.4,13.5,36.6z"/>
<path d="M134.5,25.9c0-0.2-0.8-6.6-0.9-7c-0.1-0.3-3-15.7-3.8-16c-0.1-0.1-0.1-0.1-0.1-0.2c-2-2.2-5.5-2.3-8.2-2.5
	c-4.4-0.3-8.8-0.3-13.3-0.1c-9,0.4-60.9,1.6-69.9,2.5c-10.2,1-20.5,0.9-30.7,2C4.5,5,1.9,5.8,0.8,8.8c-1.4,3.8-0.6,10.7-0.5,14.6
	c0,0.4,0.3,0.6,0.6,0.6c0,2.6,0.2,5.2,0.8,7.7c0.7,1.9,2.7,3.1,2.7,3.3c4.2,2.3,11.1,2.6,17.9,2.6c1.5,0,3,0,4.5,0
	c15.4-0.1,72.1-1.4,89.2-2.3c3.2-0.2,12.8-1,14.3-2c1.8-0.6,2.9-2.4,3-2.6C133.4,30.8,134.5,29.1,134.5,25.9z M133.1,28.2
	c-0.1,0.5-0.2,0.9-0.4,1.3c-0.1,0.1-0.2,0.2-0.2,0.3c-0.5,1-1.3,1.8-2.2,2.3c0,0,0,0,0,0c-0.2-0.1-0.3,0.1-0.4,0.2
	c-1.4,0.7-3.1,1.1-4.8,1.2c-15,1.3-73.3,2.5-88.3,2.8c-7.8,0.1-15.7,0.6-23.5,0.1c-3.4-0.2-7.2-1-9.5-3.7C3.2,32,2.7,31,2.3,30.1
	c-0.3-1.6-0.5-3.3-0.6-4.9c0.1-1.7,0.3-3.3,0.6-4.9c0-0.3-0.4-0.4-0.4-0.1c-0.1,0.5-0.2,1.1-0.3,1.6c0-0.3,0-0.5,0-0.8c0,0,0,0,0,0
	c-0.1-2.3-0.2-6.8,0-9.1c0.2-2.4,1-4.6,3.5-5.4c1.8-0.6,3.9-0.6,5.7-0.8c7.6-0.7,15.3-0.5,22.9-1.2c14.6-1.4,72.4-3.8,87.1-2.8
	c2.6,0.2,5.1,0.3,6.8,1.6c-0.1,0.3,0.1,0.6,0.5,0.7c0.2,0,0.3,0.1,0.5,0.1c0.5,0.7,1,1.5,1.2,2.7c0.2,0.9,0.4,1.9,0.6,2.8
	c0,0,0,0.1,0,0.1c0,0.1,0.1,0.3,0.1,0.4c0.5,2.7,0.9,5.4,1.5,8.1C132.6,21.2,133.7,24.9,133.1,28.2z"/>
<path fill="none" d="M120,35.6c0.2,0.4,0.4,0.9,0.5,1.3c0.4,0,0.9-0.1,1.3-0.1c-0.3-0.3-0.6-0.7-0.9-1c-0.2-0.2-0.4-0.5-0.6-0.8
	c-0.2,0-0.4,0-0.7,0.1C119.8,35.3,119.9,35.5,120,35.6z"/>
<path fill="none" d="M15,39.5c0.6,0.9,1.2,1.5,2,2.2c0.1,0,0.2,0,0.4,0c0.2,0,0.3,0,0.5,0c-0.8-0.5-1.3-1.4-1.8-2.1
	c-0.4-0.6-0.9-1.4-1.1-2.1c-0.4,0-0.9-0.1-1.3-0.1C14.1,38.1,14.5,38.8,15,39.5z"/>
<path fill="none" d="M134,27.8c0,0.3-0.1,0.6-0.1,0.8c0,0,0,0,0,0c0.4,0.1,0.8,0.5,1.1,0.8c0.1,0.1,0.3,0.3,0.4,0.4
	c0.1-0.5,0.1-1.1,0.2-1.6c-0.4-0.3-0.7-0.6-1.1-0.9c-0.1-0.1-0.3-0.3-0.4-0.5c0,0.1,0,0.2,0,0.3c0,0.1,0,0.2,0,0.3
	C134,27.5,134,27.7,134,27.8z"/>
<path fill="none" d="M121.6,35.4c0.3,0.4,0.6,0.9,0.7,1.4c0.4,0,0.8-0.1,1.3-0.1c-0.3-0.4-0.6-0.7-0.9-1.1c-0.2-0.2-0.4-0.5-0.5-0.8
	c-0.3,0-0.5,0.1-0.8,0.1C121.4,35.1,121.5,35.2,121.6,35.4z"/>
<path fill="none" d="M133.9,30.5c0.4,0.4,0.8,0.7,1,1.2c0.1-0.4,0.2-0.9,0.3-1.3c-0.2-0.2-0.4-0.4-0.6-0.6c-0.3-0.3-0.7-0.5-0.9-0.7
	c-0.1,0.4-0.2,0.7-0.3,1C133.6,30.2,133.8,30.4,133.9,30.5z"/>
<path fill="none" d="M123.2,35.3c0.3,0.5,0.5,1,0.7,1.5c0.7,0,1.3-0.1,2-0.1c-0.4-0.4-0.8-0.8-1.1-1.2c-0.2-0.2-0.4-0.4-0.5-0.7
	c-0.4,0-0.9,0.1-1.3,0.1c0,0,0,0-0.1,0C123,34.9,123.1,35.1,123.2,35.3z"/>
<path fill="none" d="M131,33c0.2,0.3,0.3,0.6,0.5,0.8c0.4,0.6,0.8,1.3,0.9,2c0,0,0.1,0,0.1,0c0.7-0.4,1.1-0.9,1.5-1.6
	c0,0-0.1,0-0.1,0c-0.4-0.5-0.9-0.9-1.3-1.4c-0.2-0.2-0.3-0.4-0.5-0.6C131.7,32.4,131.4,32.7,131,33z"/>
<path fill="none" d="M3.9,34.6c0.2,0.4,0.4,0.9,0.7,1.3c0.3,0.5,0.6,1,1,1.4c-0.4-0.7-0.7-1.4-1-2.1c0,0,0,0,0,0
	C4.5,35.1,4.2,34.9,3.9,34.6z"/>
<path fill="none" d="M118.4,35.4c0,0.1-0.1,0.1-0.1,0.1c-0.1-0.1-0.1-0.2-0.2-0.2c-0.2,0-0.4,0-0.6,0c0.1,0.2,0.3,0.4,0.4,0.6
	c0.2,0.3,0.4,0.6,0.4,1c0,0.1-0.1,0.1-0.2,0.1c-0.3-0.2-0.5-0.6-0.7-0.9c-0.2-0.2-0.3-0.5-0.5-0.8c-0.4,0-0.9,0.1-1.2,0.1
	c-17.1,0.9-73.6,2.2-88.9,2.3c-1.5,0-3,0-4.5,0c-0.4,0-0.8,0-1.3,0c0.5,0.9,1,1.9,1.6,2.8c0,0,0,0.1,0,0c-0.7-0.8-1.4-1.8-1.9-2.8
	c-0.5,0-0.9,0-1.4,0c0.2,0.5,0.4,0.9,0.7,1.4c0.3,0.5,0.7,1,1.1,1.5c0.1,0.1,0,0.1-0.1,0.1c-0.8-0.8-1.7-1.9-2-3c-0.5,0-1,0-1.5,0
	c0.7,1.3,1.5,2.4,2.4,3.6c0.1,0.1,0,0.3-0.2,0.2c-1.2-1-2.2-2.4-2.9-3.8c-0.4,0-0.8,0-1.2-0.1c0.4,0.5,0.7,1.1,1,1.6
	c0.6,0.8,1.4,1.5,1.7,2.4c0,0.1,0,0.1,0,0.2c8.4,0,59.7-2.2,68-2.7c9.1-0.6,18.3-1.1,27.4-1.7c2.1-0.1,4.2-0.3,6.3-0.4
	c-0.3-0.4-0.5-0.8-0.8-1.2c-0.1-0.2-0.3-0.4-0.4-0.6c-0.3,0-0.5,0-0.8,0.1C118.3,35.3,118.3,35.3,118.4,35.4z"/>
<path fill="none" d="M6.4,36.9c0.5,0.9,1.2,1.7,1.7,2.5c0.7,0.5,1.5,0.8,2.4,1.2c-0.5-0.5-0.9-1.1-1.3-1.5c-0.6-0.8-1.2-1.7-1.5-2.7
	C7,36.2,6.3,36,5.7,35.7C6,36.1,6.2,36.5,6.4,36.9z"/>
<path fill="none" d="M10,38.9c0.6,0.7,1.5,1.3,1.9,2.2c0.4,0.1,0.9,0.2,1.3,0.3c-0.3-0.3-0.6-0.7-0.8-1.1c-0.6-1-1.4-2.1-1.8-3.2
	c-0.5-0.1-0.9-0.2-1.3-0.3c-0.4-0.1-0.7-0.2-1.1-0.3C8.7,37.3,9.3,38.1,10,38.9z"/>
<path fill="none" d="M132.4,31.6c0.2,0.2,0.3,0.5,0.5,0.7c0.4,0.5,0.7,1.1,1,1.6c0,0,0,0,0,0c0.2-0.3,0.4-0.7,0.5-1
	c0.1-0.3,0.3-0.7,0.4-1c0,0,0,0,0,0c-0.5-0.2-1-0.6-1.4-1c-0.1-0.1-0.2-0.2-0.4-0.3c-0.1,0.1-0.1,0.1-0.1,0.1
	C133,30.9,132.8,31.2,132.4,31.6z"/>
<path fill="none" d="M129.4,33.7c-0.1,0-0.2,0.1-0.3,0.1c0.5,0.7,1,1.7,1.2,2.5c0.6-0.1,1.1-0.2,1.6-0.4c-0.4-0.4-0.7-1-1.1-1.6
	c-0.2-0.3-0.5-0.7-0.7-1c-0.1,0-0.1,0.1-0.2,0.1C129.9,33.5,129.7,33.6,129.4,33.7z"/>
<path fill="none" d="M135.1,14.7c0-0.3-0.1-0.6-0.1-0.9c0-0.2-0.1-0.5-0.1-0.7c-0.5-0.1-0.8-0.5-1.2-0.7c-0.5-0.3-1-0.6-1.5-0.9
	c-0.1-0.1-0.2-0.1-0.3-0.2c0,0.2,0.1,0.5,0.1,0.7c0.5,0.4,1,0.9,1.5,1.2C133.9,13.6,134.5,14.1,135.1,14.7z"/>
<path fill="none" d="M134,9.9c-0.1-0.4-0.3-0.8-0.5-1.2c-0.7-0.3-1.4-0.6-2.1-1c0,0-0.1,0-0.1-0.1c0,0.2,0.1,0.4,0.1,0.5
	c0.6,0.1,1.1,0.6,1.6,0.9C133.3,9.4,133.7,9.6,134,9.9z"/>
<path fill="none" d="M134.7,12.2c-0.1-0.5-0.3-1-0.4-1.5c-0.6-0.3-1.3-0.5-1.9-0.9c-0.3-0.2-0.6-0.3-0.9-0.5c0,0.3,0.1,0.6,0.1,0.8
	c0,0,0.1,0.1,0.1,0.1c0.5,0.3,1,0.6,1.5,0.9C133.6,11.4,134.2,11.7,134.7,12.2z"/>
<path fill="none" d="M135.3,17c-0.1-0.6-0.1-1.2-0.2-1.8c-0.8-0.4-1.5-0.9-2.3-1.5c-0.2-0.2-0.5-0.4-0.8-0.6c0.1,0.5,0.2,1,0.3,1.5
	c0.4,0.3,0.8,0.8,1.2,1.1C134.2,16.2,134.8,16.6,135.3,17z"/>
<path fill="none" d="M134.7,21.8c-0.4-0.2-0.8-0.4-1.1-0.6c0.1,0.7,0.2,1.4,0.3,2.1c0.2,0.2,0.3,0.4,0.5,0.5
	c0.4,0.4,0.8,0.9,1.3,1.4c0-1,0-1.9,0-2.9C135.3,22.2,135,22,134.7,21.8z"/>
<path fill="none" d="M134,24.5c0,0.4,0,0.9,0,1.3c0.3,0.3,0.5,0.7,0.7,1c0.2,0.4,0.5,0.7,0.8,1c0-0.4,0.1-0.8,0.1-1.1
	c0-0.4,0-0.8,0-1.2c-0.5-0.4-1.1-0.8-1.6-1.3C134,24.4,134,24.5,134,24.5z"/>
<path fill="none" d="M135.6,21.6c0-0.5,0-1.1-0.1-1.6c0,0,0,0,0,0c-0.8-0.2-1.5-0.8-2.2-1.3c-0.1-0.1-0.1-0.1-0.2-0.2
	c0.1,0.7,0.3,1.3,0.4,2c0.6,0,1.1,0.4,1.6,0.7C135.3,21.3,135.4,21.5,135.6,21.6z"/>
<path fill="none" d="M135.5,19.6c0-0.6-0.1-1.3-0.1-1.9c-0.8-0.3-1.5-0.8-2.1-1.3c-0.2-0.1-0.4-0.3-0.6-0.5c0.1,0.4,0.2,0.9,0.3,1.3
	c0.3,0.3,0.6,0.5,1,0.8C134.4,18.5,135.1,19,135.5,19.6z"/>
<path fill="none" d="M128.4,34.1c-0.5,0.1-0.9,0.2-1.4,0.3c0.5,0.7,0.9,1.4,1.3,2.1c0.6,0,1.2,0,1.7-0.1c-0.3-0.4-0.5-0.7-0.8-1.1
	C128.9,34.9,128.6,34.5,128.4,34.1z"/>
<path fill="none" d="M12.9,37.4c-0.5,0-1-0.1-1.4-0.2c0.5,0.6,0.9,1.4,1.3,2c0.3,0.5,0.7,1.1,1.1,1.6c0.2,0.3,0.5,0.5,0.7,0.7
	c0.3,0,0.7,0.1,1,0.1c-0.3-0.3-0.6-0.7-0.8-1C14.1,39.7,13.3,38.5,12.9,37.4z"/>
<path fill="none" d="M125.1,34.6c0.1,0.1,0.2,0.3,0.3,0.4c0.3,0.5,0.6,1,0.9,1.5c0.5,0,1-0.1,1.5-0.1c-0.6-0.6-1.1-1.3-1.6-2
	C125.8,34.5,125.5,34.6,125.1,34.6z"/>
<path d="M22.7,40.5c-0.6-0.9-1.1-1.8-1.6-2.8c-0.1,0-0.2,0-0.3,0C21.2,38.8,21.9,39.7,22.7,40.5C22.6,40.6,22.7,40.5,22.7,40.5z"/>
<path d="M118.4,35.4c0-0.1,0-0.1-0.1-0.2c-0.1,0-0.1,0-0.2,0c0.1,0.1,0.1,0.2,0.2,0.2C118.3,35.5,118.4,35.5,118.4,35.4z"/>
<path d="M118.1,37c0.1,0.1,0.2,0,0.2-0.1c0-0.4-0.2-0.7-0.4-1c-0.1-0.2-0.3-0.4-0.4-0.6c-0.2,0-0.4,0-0.6,0c0.1,0.3,0.3,0.5,0.5,0.8
	C117.6,36.4,117.8,36.7,118.1,37z"/>
<path d="M21.2,40.6c-0.4-0.5-0.8-1-1.1-1.5c-0.3-0.4-0.5-0.9-0.7-1.4c-0.1,0-0.2,0-0.3,0C19.4,38.8,20.3,39.9,21.2,40.6
	C21.2,40.7,21.3,40.6,21.2,40.6z"/>
<path d="M19.8,41.4c0.1,0.1,0.3,0,0.2-0.2c-0.9-1.2-1.7-2.3-2.4-3.6c-0.2,0-0.4,0-0.6,0C17.7,39.1,18.6,40.5,19.8,41.4z"/>
<path d="M1.6,31.1c0-0.1,0-0.2-0.1-0.3C1.6,30.9,1.6,31,1.6,31.1z"/>
<path d="M136,11.8c-0.8-3.9-2.9-7.5-6.6-9c-0.1-0.1-0.1-0.1-0.1-0.2c0,0-0.1,0-0.1-0.1c0,0.1,0,0.1-0.1,0.2c0,0,0.1,0.1,0.1,0.1
	c0.1,0.1,0.1,0.1,0.1,0.2c0.9,0.3,3.7,15.7,3.8,16c0.1,0.4,0.9,6.8,0.9,7c0,0.4,0,0.7,0,1.1c0-0.1,0-0.2,0-0.3
	c0.1,0.2,0.3,0.3,0.4,0.5c0.3,0.3,0.7,0.6,1.1,0.9c0,0.5-0.1,1.1-0.2,1.6c-0.1-0.2-0.3-0.3-0.4-0.4c-0.3-0.3-0.7-0.7-1.1-0.8
	c0,0,0,0,0,0c0,0.2-0.1,0.3-0.1,0.5c0.3,0.3,0.7,0.5,0.9,0.7c0.2,0.2,0.4,0.4,0.6,0.6c-0.1,0.4-0.2,0.9-0.3,1.3
	c-0.3-0.4-0.7-0.8-1-1.2c-0.2-0.2-0.3-0.3-0.5-0.5c-0.1,0.3-0.2,0.6-0.3,0.7c0.1,0.1,0.3,0.2,0.4,0.3c0.4,0.4,0.9,0.8,1.4,1
	c0,0,0,0,0,0c-0.1,0.3-0.2,0.7-0.4,1c-0.2,0.4-0.3,0.7-0.5,1c0,0,0,0,0,0c-0.4-0.5-0.7-1.1-1-1.6c-0.2-0.2-0.3-0.5-0.5-0.7
	c-0.1,0.2-0.3,0.3-0.4,0.5c0.2,0.2,0.3,0.4,0.5,0.6c0.4,0.5,0.9,0.9,1.3,1.4c0,0,0.1,0,0.1,0c-0.4,0.6-0.8,1.1-1.5,1.6
	c0,0-0.1,0-0.1,0c-0.1-0.7-0.5-1.4-0.9-2c-0.1-0.2-0.3-0.5-0.5-0.8c-0.2,0.2-0.5,0.3-0.8,0.4c0.2,0.3,0.5,0.7,0.7,1
	c0.3,0.5,0.6,1.1,1.1,1.6c-0.5,0.2-1,0.3-1.6,0.4c-0.3-0.9-0.7-1.8-1.2-2.5c0.1,0,0.2-0.1,0.3-0.1c-1.3,0.4-3.8,0.8-6.4,1.1
	c0.4,0,0.9-0.1,1.3-0.1c0.1,0.2,0.3,0.4,0.5,0.7c0.4,0.4,0.7,0.8,1.1,1.2c-0.7,0-1.3,0.1-2,0.1c-0.3-0.5-0.5-1-0.7-1.5
	c-0.1-0.2-0.2-0.3-0.3-0.5c-0.3,0-0.6,0.1-0.8,0.1c0.1,0.3,0.3,0.5,0.5,0.8c0.3,0.4,0.6,0.7,0.9,1.1c-0.4,0-0.8,0.1-1.3,0.1
	c-0.1-0.5-0.5-1-0.7-1.4c-0.1-0.1-0.1-0.3-0.2-0.4c-0.3,0-0.6,0.1-1,0.1c0.2,0.3,0.4,0.6,0.6,0.8c0.2,0.3,0.5,0.7,0.9,1
	c-0.4,0-0.9,0.1-1.3,0.1c-0.2-0.4-0.3-0.9-0.5-1.3c-0.1-0.2-0.2-0.3-0.2-0.5c-0.2,0-0.4,0-0.6,0.1c0.1,0.2,0.3,0.4,0.4,0.6
	c0.2,0.4,0.5,0.8,0.8,1.2c-2.1,0.1-4.2,0.3-6.3,0.4c-9.1,0.6-18.3,1.1-27.4,1.7c-8.3,0.5-59.7,2.7-68,2.7c0,0,0-0.1,0-0.2
	c-0.4-0.9-1.2-1.6-1.7-2.4c-0.3-0.5-0.6-1.1-1-1.6c-0.3,0-0.6,0-0.9-0.1c0.2,0.8,0.7,1.5,1.1,2.1c0.5,0.7,1,1.6,1.8,2.1
	c-0.2,0-0.3,0-0.5,0c-0.1,0-0.2,0-0.4,0c-0.8-0.7-1.4-1.3-2-2.2c-0.4-0.7-0.8-1.4-1.3-2.1c-1.5-0.1-3-0.3-4.4-0.6
	c0.4,0.1,0.9,0.2,1.3,0.3c0.4,1.1,1.2,2.2,1.8,3.2c0.2,0.3,0.5,0.8,0.8,1.1c-0.4-0.1-0.9-0.2-1.3-0.3c-0.4-0.8-1.3-1.5-1.9-2.2
	c-0.6-0.8-1.2-1.6-1.8-2.4c-0.2,0-0.3-0.1-0.5-0.1c0.4,1,0.9,1.9,1.5,2.7c0.4,0.5,0.8,1,1.3,1.5c-0.8-0.3-1.6-0.7-2.4-1.2
	c-0.5-0.9-1.1-1.7-1.7-2.5c-0.3-0.4-0.5-0.8-0.7-1.2c-0.4-0.2-0.8-0.4-1.2-0.6c0.3,0.7,0.6,1.4,1,2.1c-0.4-0.4-0.7-0.9-1-1.4
	c-0.3-0.4-0.5-0.8-0.7-1.3c-0.6-0.5-1.6-1.4-2.1-2.6c1.2,4.6,3.8,8.5,9,10.1c4.3,1.3,9,0.8,13.5,0.5c5.8-0.4,11.6-0.7,17.4-1.1
	c11.3-0.7,65.5-2.6,76.7-3.3c2.7-0.2,5.3-0.3,8-0.5c2-0.1,4.6,0.2,6.4-0.7c3.1-1.5,3.8-6.1,4-9.1C137.2,22.6,137.1,16.9,136,11.8z
	 M14.5,41.5c-0.2-0.3-0.5-0.5-0.7-0.7c-0.4-0.5-0.8-1.1-1.1-1.6c-0.4-0.6-0.8-1.4-1.3-2c0.5,0.1,0.9,0.1,1.4,0.2
	c0.4,1.2,1.2,2.3,1.8,3.3c0.2,0.4,0.5,0.7,0.8,1C15.2,41.6,14.9,41.6,14.5,41.5z M126.2,36.5c-0.3-0.5-0.5-1-0.9-1.5
	c-0.1-0.1-0.2-0.3-0.3-0.4c0.4,0,0.7-0.1,1.1-0.1c0.5,0.7,1,1.3,1.6,2C127.3,36.5,126.8,36.5,126.2,36.5z M128.2,36.4
	c-0.4-0.7-0.8-1.4-1.3-2.1c0.5-0.1,0.9-0.2,1.4-0.3c0.3,0.4,0.6,0.8,0.8,1.2c0.3,0.4,0.5,0.8,0.8,1.1
	C129.4,36.4,128.8,36.4,128.2,36.4z M131.2,7.6c0,0,0.1,0,0.1,0.1c0.7,0.4,1.4,0.7,2.1,1c0.2,0.4,0.4,0.8,0.5,1.2
	c-0.3-0.3-0.7-0.5-1-0.8c-0.5-0.3-1-0.8-1.6-0.9C131.3,8,131.3,7.8,131.2,7.6z M131.6,10.1c0-0.3-0.1-0.6-0.1-0.8
	c0.3,0.2,0.6,0.3,0.9,0.5c0.6,0.3,1.2,0.6,1.9,0.9c0.2,0.5,0.3,1,0.4,1.5c-0.4-0.4-1-0.8-1.5-1c-0.5-0.3-1-0.6-1.5-0.9
	C131.7,10.2,131.7,10.1,131.6,10.1z M131.8,11.2c0.1,0.1,0.2,0.1,0.3,0.2c0.5,0.3,1,0.6,1.5,0.9c0.4,0.3,0.8,0.6,1.2,0.7
	c0,0.2,0.1,0.5,0.1,0.7c0,0.3,0.1,0.6,0.1,0.9c-0.6-0.5-1.2-1-1.8-1.5c-0.5-0.4-0.9-0.9-1.5-1.2C131.8,11.6,131.8,11.4,131.8,11.2z
	 M132.1,13.1c0.3,0.2,0.6,0.4,0.8,0.6c0.7,0.5,1.5,1,2.3,1.5c0.1,0.6,0.1,1.2,0.2,1.8c-0.6-0.5-1.2-0.9-1.7-1.3
	c-0.4-0.3-0.8-0.7-1.2-1.1C132.3,14.1,132.2,13.6,132.1,13.1z M132.6,15.9c0.2,0.2,0.4,0.3,0.6,0.5c0.7,0.5,1.4,1,2.1,1.3
	c0.1,0.6,0.1,1.3,0.1,1.9c-0.4-0.6-1.1-1.1-1.7-1.6c-0.3-0.3-0.6-0.5-1-0.8C132.8,16.8,132.7,16.3,132.6,15.9z M133.1,18.5
	c0.1,0.1,0.2,0.1,0.2,0.2c0.7,0.5,1.4,1.1,2.2,1.3c0,0,0,0,0,0c0,0.5,0,1.1,0.1,1.6c-0.2-0.1-0.4-0.2-0.5-0.3
	c-0.5-0.3-1-0.7-1.6-0.7C133.4,19.8,133.3,19.1,133.1,18.5z M135.6,26.7c0,0.4,0,0.8-0.1,1.1c-0.3-0.3-0.5-0.7-0.8-1
	c-0.2-0.3-0.4-0.7-0.7-1c0-0.4,0-0.9,0-1.3c0-0.1,0-0.2,0-0.3c0.5,0.4,1.1,0.8,1.6,1.3C135.6,25.9,135.6,26.3,135.6,26.7z
	 M134.4,23.8c-0.1-0.1-0.3-0.3-0.5-0.5c-0.1-0.7-0.2-1.4-0.3-2.1c0.4,0.2,0.8,0.4,1.1,0.6c0.3,0.2,0.6,0.4,0.9,0.6c0,1,0,1.9,0,2.9
	C135.2,24.7,134.8,24.2,134.4,23.8z"/>
<path d="M134,27.8c0-0.1,0-0.3,0-0.4C134,27.5,134,27.7,134,27.8z"/>
<path d="M19.1,37.7c0-0.1,0-0.1,0-0.1c-0.5,0-1,0-1.5,0c0,0,0.1,0.1,0.1,0.1C18.1,37.7,18.6,37.7,19.1,37.7
	C19.1,37.7,19.1,37.7,19.1,37.7z"/>
<path d="M16.9,37.5c-0.4,0-0.8,0-1.2,0c0,0,0,0.1,0,0.1c0.4,0,0.8,0,1.2,0.1C17,37.6,16.9,37.6,16.9,37.5z"/>
<path d="M8.2,36.5c0.4,0.1,0.7,0.2,1.1,0.3C8.9,36.7,8.5,36.6,8.2,36.5C8.1,36.5,8.1,36.5,8.2,36.5z"/>
<path d="M4.2,34.3c-0.3-0.3-0.6-0.6-0.8-0.8c0.1,0.4,0.3,0.7,0.5,1.1c0.3,0.3,0.6,0.5,0.6,0.5c0,0,0,0,0,0
	C4.4,34.9,4.3,34.6,4.2,34.3C4.2,34.3,4.2,34.3,4.2,34.3z"/>
<path d="M1.8,31.9c0,0,0,0.1,0.1,0.1c-0.1-0.3-0.1-0.6-0.2-0.9C1.6,31.4,1.7,31.6,1.8,31.9z"/>
<path d="M14.5,37.5c-0.3,0-0.6,0-0.8-0.1c0,0,0,0,0,0c0.4,0,0.9,0.1,1.3,0.1c0,0,0,0,0-0.1C14.8,37.5,14.6,37.5,14.5,37.5z"/>
<path d="M6.2,35.7c-0.2-0.1-0.4-0.3-0.7-0.4c0.1,0.1,0.2,0.3,0.2,0.4C6.3,36,7,36.2,7.7,36.4c0,0,0-0.1,0-0.1
	C7.1,36.1,6.6,35.9,6.2,35.7z"/>
<path d="M20.7,37.5c-0.5,0-0.9,0-1.4,0c0,0,0,0,0,0c0,0,0,0.1,0.1,0.2c0.5,0,0.9,0,1.4,0C20.7,37.7,20.7,37.6,20.7,37.5z"/>
<path d="M131.7,32.3c-0.2,0.2-0.5,0.4-0.8,0.6c0,0,0,0,0,0.1c0.4-0.3,0.7-0.6,1-0.9c0,0,0,0,0-0.1C131.9,32.1,131.8,32.2,131.7,32.3
	z"/>
<path d="M134,27.1c0,0.1,0,0.2,0,0.3C134,27.3,134,27.2,134,27.1z"/>
<path d="M117.9,35.1c-0.2,0-0.4,0-0.5,0c0,0.1,0.1,0.1,0.1,0.2c0.2,0,0.4,0,0.6,0C118,35.2,118,35.1,117.9,35.1z"/>
<path d="M133.4,30C133.4,30,133.4,30,133.4,30c0.2-0.2,0.3-0.5,0.4-0.9c0,0,0,0,0,0C133.6,29.3,133.5,29.7,133.4,30z"/>
<path d="M132.2,29.8C132.2,29.8,132.2,29.8,132.2,29.8C132.2,29.7,132.2,29.7,132.2,29.8C132.2,29.7,132.2,29.7,132.2,29.8z"/>
<path d="M2.3,20.3c-0.1,0.8-0.2,1.5-0.3,2.4C2.1,21.9,2.2,21.1,2.3,20.3C2.3,20.4,2.3,20.4,2.3,20.3z"/>
<path d="M133.8,28.6C133.8,28.6,133.8,28.6,133.8,28.6c0.1-0.3,0.1-0.5,0.2-0.8C133.9,28.1,133.9,28.3,133.8,28.6z"/>
<path d="M118.2,35.1c0,0,0,0.1,0.1,0.1c0.3,0,0.5,0,0.8-0.1c0,0-0.1-0.1-0.1-0.1C118.7,35,118.5,35.1,118.2,35.1z"/>
<path d="M119.7,35c0,0,0,0.1,0.1,0.1c0.2,0,0.4,0,0.7-0.1c0,0,0-0.1-0.1-0.1C120.1,35,119.9,35,119.7,35z"/>
<path d="M122.9,34.8C123,34.8,123,34.8,122.9,34.8C123,34.8,123,34.8,122.9,34.8C122.9,34.8,122.9,34.8,122.9,34.8z"/>
<path d="M129.4,33.7c0.3-0.1,0.5-0.2,0.6-0.2c0.1,0,0.1-0.1,0.2-0.1c0,0,0,0,0,0C130,33.5,129.7,33.6,129.4,33.7z"/>
<path d="M132.4,31.6C132.4,31.6,132.4,31.6,132.4,31.6c0.4-0.4,0.6-0.7,0.6-0.7c0,0,0-0.1,0.1-0.1c0,0,0,0-0.1-0.1
	C132.8,31,132.6,31.3,132.4,31.6z"/>
<path d="M121.3,34.9C121.3,34.9,121.3,34.9,121.3,34.9c0.3,0,0.6,0,0.8,0c0,0,0,0,0,0C121.8,34.8,121.6,34.9,121.3,34.9z"/>
</svg>
