<?xml version="1.0" encoding="utf-8"?>
<!-- Generator: Adobe Illustrator 19.0.0, SVG Export Plug-In . SVG Version: 6.00 Build 0)  -->
<svg version="1.2" baseProfile="tiny" id="Layer_1" xmlns="http://www.w3.org/2000/svg" xmlns:xlink="http://www.w3.org/1999/xlink"
	 x="0px" y="0px" viewBox="-114 380.2 365.1 80.7" xml:space="preserve">
<g>
	<path fill="#9DCB45" d="M251,406.7c-0.1,8.5-1,16.8-0.8,25.3c0.1,6.4-3.5,12-5.6,18.2c-1.8,5.1-6.6,6.2-12.3,7.7
		c-5.5,2.1-12.8,2.7-17.8,2.8c-31.9,0.5-63.8-0.6-95.7-0.6c-34.5,0-68.9-1.1-103.4-1.1c-9,0-17.9-1.1-26.9-1.2
		c-8.6,0-17.4-0.3-26-0.7c-8.3-0.4-17-1-25.3-0.9c-9.6,0.1-18.4,1.5-28.1,0.6c-0.9-0.1-1.3-0.7-1.2-1.2c-3.3-0.6-6.3-1.8-8.6-3.6
		c-4.8-2-9.3-5.9-11.5-8.8c-3-4-1.5-10.2-0.9-14.6c1-6.4,1.5-12.6,1.9-19c0.3-5.4-0.8-12.7,2.4-17.7c1.7-2.6,4.6-5.2,8.3-6.3
		c7.7-2.3,15.2-4.5,23.5-5.1c11.4-0.8,23.5,0,34.9,0c1.5,0,3.1,0,4.7,0c0.4,0,0.9,0,1.3,0c0.1,0,0.1,0,0.2,0c5.5,0,11.1,0,16.6,0
		c0.2-0.2,0.5-0.3,1-0.3c2.1,0,4.1,0,6.2,0.1c0.2,0,0.3,0,0.5,0.1c1,0,2,0.1,3,0.1c0.5,0,1.1,0,1.6,0c17-0.2,34.1,0.5,51.2,0.8
		c0.1,0,0.3,0,0.5,0h0.1c5.4,0.1,10.8,0.2,16.2,0.2c23.3,0,46.6,0.6,69.9,0.7c10,0.1,19.9,1.2,29.9,1.2c7.8,0,15.6,0.3,23.3,0.4
		c0.6-0.5,1.8-0.6,2.4,0c1.5,0,3.1,0,4.6,0c4.9-0.1,9.7-0.7,14.6-0.2c4.1,0.4,8,1.5,12,2c0.1,0,0.1,0,0.2,0c0.3-0.2,0.8-0.1,1.1,0.1
		c4.6,0.4,9.4,0.2,13.8,1c3.9,0.7,7.2,2.4,10.3,4.2c2.6,1.5,5.9,2.8,6.9,5.2C251.4,399.4,251.1,403.3,251,406.7z"/>
	<g>
		<path d="M-81.8,456.3c0.9,0,0.9-0.9,0.2-1.1c-10.6-0.4-19.8-2.8-20.6-11.4c-0.5-5.8,0-11.8,0-17.6c0-5.2-0.4-10.4,0.1-15.6
			c0.4-5.5,0.4-11.8,3.5-16.9c6.5-10.5,26.8-8.2,39.8-9.2c7.3-0.5,14.7-0.2,22-0.2c7.6,0,15.2-0.5,22.8-0.5c13,0,25.8,0.4,38.7,0.6
			c13.4,0.2,26.7,1.9,40.2,2.2c28.5,0.6,57.1,0.8,85.6,0.6c13.8-0.1,27.1,1.2,40.8,2c6.4,0.4,12.8,0.7,19.2,0.9
			c7.4,0.2,21.2-0.3,26,4.6c4.5,4.6,3.3,12.2,3.2,17.6c-0.1,5-0.1,10.1-0.1,15.1c-0.1,4.8-0.1,9.5-1,14.3
			c-0.8,4.3-0.8,10.4-5.2,13.5c-4.7,3.3-14.3,3.7-20.3,3.7c-6.8,0-13.5,0-20.3,0c-14.3,0-28.5,0-42.8,0c-26.6-0.1-53.3-1.1-79.9-1
			c-12.7,0.1-25.3-0.6-38-0.6c-7.6,0.1-15.2,0.3-22.8,0.1c-6.5-0.2-12.9-1.1-19.5-1.2c-13.8-0.2-27.9-0.5-41.8-1.3
			c-13.1-0.7-26,0.7-39-0.1c-1.6-0.1-1.6,1.7,0,1.8c9.6,0.9,18.5-0.5,28.1-0.6c8.3-0.1,17,0.5,25.3,0.9c8.6,0.4,17.4,0.6,26,0.7
			c9,0.1,17.8,1.2,26.9,1.2c34.5,0.1,68.9,1.1,103.4,1.1c31.9,0,63.8,1.1,95.7,0.6c7.8-0.2,21-1.6,24.6-7.5c1.2-2.1,0.5-4.6,1-6.8
			c0.5-2,0.8-3.9,1.2-5.9c1-4.7,0.6-9.5,0.6-14.2c0-6.3,0.3-12.7,0.2-19c-0.1-4-0.5-8.5-2.9-12.2c-4.8-7.3-20.9-6.4-30.2-6.6
			c-14.9-0.4-29.6-2.2-44.4-2.7c-16.4-0.5-33,0-49.4,0c-16.3,0-32.6-0.2-48.9-0.5c-15.7-0.3-31.5-1.7-47.2-2.2
			c-29.7-1-59.4,0.5-89.1,0.5c-9.6,0-23.5,1.2-29.4,7.5c-2.4,2.7-3.4,6.6-3.8,9.7c-0.7,5.3-1.2,10.6-1.2,15.9c0,6.1,0,12.1,0,18.2
			c0,4.3-1.1,9.3,0.8,13.4C-100.5,455.1-90.9,456.4-81.8,456.3"/>
		<path d="M-96,453.3c0.8,0.1,1.2-0.8,0.4-0.9c-4.6-0.8-9.4-4.7-11.9-7.3c-3.3-3.4-3.9-6-3.9-10c-0.1-5.7,1.3-11.4,2.2-17
			c1.1-7-0.8-14.4,1-21.3c0.5-2.3,1.6-4,3.3-5.9c2.9-3.2,5.9-4.1,10.5-5.5c17.8-5,36.3-3.7,55.2-3.7c9.8,0,19.6-0.1,29.4,0
			c4.4,0,8.7-0.4,13.1-0.4c4.2,0,8.4,0.7,12.6,0.8c19.9,0.4,39.9,0.7,59.8,0.7c10.5,0,20.8,0.7,31.3,0.7c9.8,0,19.6-0.2,29.3,0
			c16.7,0.3,33.3,1.4,50,1.4c4.8,0,9.4-0.4,14.2-0.5c4.9,0,9.5,1.1,14.2,1.9c3.3,0.6,6.6,0.9,9.9,1.2c7.4,0.7,11.6,1.8,17.4,5.1
			c8,4.6,6.3,11.3,6.3,18c0,6-0.7,11.9-0.7,18c0,4,0.3,7.6-1.6,11.5c-1,2.2-2,4.1-2.7,6.3c-1.4,4.2-2.3,7-8.9,9
			c-2.6,0.8-5.5,1.1-8.1,1.9c-1.6,0.5-0.2,2.2,1.4,1.7c7.6-2.4,14.5-2.5,16.8-9c2.2-6.2,5.7-11.8,5.6-18.2
			c-0.2-8.5,0.7-16.8,0.8-25.3c0-3.3,0.4-7.3-1-10.5c-1-2.4-4.2-3.7-6.9-5.2c-3.2-1.7-6.4-3.5-10.3-4.2c-4.8-0.9-10.2-0.4-15.1-1.1
			c-4-0.6-7.9-1.6-12-2c-4.9-0.5-9.7,0.2-14.6,0.2c-10.1,0.1-20.1-0.4-30.2-0.4c-10,0-19.9-1.2-29.9-1.2
			c-23.4-0.1-46.6-0.7-69.9-0.7c-22.7,0-45.4-1.2-68-1c-11.7,0.1-23.4,0-35.1,0c-11.4,0-23.5-0.8-34.9,0c-8.3,0.6-15.8,2.8-23.5,5.1
			c-3.7,1.1-6.6,3.7-8.3,6.3c-3.2,5.1-2.1,12.4-2.4,17.8c-0.4,6.4-1,12.6-1.9,19c-0.6,4.4-2.1,10.6,0.9,14.6
			C-109.3,447-102.3,452.5-96,453.3"/>
		<path d="M-61.4,382.5c1.1-0.3,0.6-1.5-0.5-0.8c-2.7,0.6-5.6-0.5-8,0.5c-1.1,0.5-0.5,1.6,0.7,1.7c6.6,0.5,14,1.7,20.4-0.1
			c1.4-0.4,1.3-2.2-0.4-2c-5.7,0.5-12.9,1.1-18.6,0.4v2.2c4.6-1,10-0.7,14.8-1c2.1-0.1,2.1-2.4,0-2.3c-8,0.5-15.8,0.5-23.8,0
			c-2.1-0.1-2,2.1,0,2.3c0.4,0,0.7,0.1,1.1,0.1c-0.1-0.8-0.3-1.5-0.4-2.3c-1.5,0.3-2.3,0.2-3.5,0.7c-1.5,0.6-0.7,2,0.8,2.1
			c5.7,0.4,11.4,0.4,17.1,0.4c3,0,5.9,0.2,8.6-0.8c1.5-0.6,0.6-2-0.8-2.1c-0.5,0-1-0.1-1.5-0.1v2.2c6.4-0.1,12.8-0.7,19.2-0.8
			c2-0.1,2-2.2,0-2.2c-5.5,0.1-10.7,0.2-16,1.2c-1.6,0.3-1.2,2,0.4,2c8.3-0.1,16.5-0.4,24.8-0.8c1.8-0.1,1.8-2,0-2
			c-1.9,0-3.4,0.2-5.2,0.6c-1.8,0.4-1.1,2.1,0.7,1.9c5.9-0.5,14.6,0.5,20-1.3c1.4-0.4,0.5-1.7-0.7-1.8c-2.1-0.2-4.1-0.1-6.2-0.1
			c-1.8,0.1-1.8,2,0,2c7.4,0.1,14.7,0.6,22.1,0.7v-1.9c-1,0-2,0-3,0c-1.7,0-1.7,1.9,0,1.9c3,0,5.9,0,8.8,0c1.8,0,1.8-2,0-2
			c-10.4,0-20.9-0.3-31.3,0.4c0.1,0.7,0.3,1.3,0.4,2c7.3-1.1,14.9,0,22.2,0.2c7,0.2,14,0,21,0c1.7,0,1.7-1.8,0-1.8
			c-7.8,0-15.7,0-23.6-0.3c-6.8-0.3-13.6-1.1-20.3-0.1c-1.5,0.2-1.2,2.1,0.4,2c10.3-0.7,20.9-0.4,31.3-0.4v-2c-3,0-5.9,0-8.8,0
			c-1.7,0-1.7,1.9,0,1.9c1,0,2,0,3,0c1.7,0,1.7-1.9,0-1.9c-7.4-0.1-14.7-0.6-22.1-0.7v2c2.1,0,4.1,0,6.2,0.1
			c-0.2-0.6-0.5-1.2-0.7-1.8c-2.3,0.7-7.1,0.4-9.7,0.5c-3.3,0.2-6.4,0.3-9.6,0.6c0.2,0.6,0.5,1.3,0.7,1.9c1.4-0.4,2.9-0.6,4.4-0.5
			v-2c-8.3,0.3-16.5,0.6-24.8,0.7c0.1,0.7,0.3,1.3,0.4,2c5.1-0.9,10.1-1.1,15.3-1v-2.2c-6.4,0.1-12.8,0.7-19.2,0.7
			c-2.1,0-2,2.1,0,2.2c0.5,0,1,0.1,1.5,0.1c-0.3-0.7-0.5-1.4-0.8-2.1c-2.9,1.1-7.8,0.5-11,0.5c-4.4-0.1-8.7-0.1-13.1-0.5
			c0.3,0.7,0.5,1.4,0.8,2.1c0.4-0.2,2.2-0.4,2.7-0.5c2-0.4,1.2-2.2-0.4-2.3c-0.4,0-0.7-0.1-1.1-0.1v2.3c8,0.5,15.8,0.5,23.8,0v-2.3
			c-5.2,0.3-10.7,0-15.7,1.1c-1.4,0.3-1.7,2,0,2.2c6.3,0.7,13.6,0,19.9-0.6c-0.3-0.7-0.5-1.3-0.8-2c-6.2,1.8-13.3,0.6-19.7,0.2
			c0.3,0.5,0.5,1.1,0.7,1.7C-66.7,382.5-63.5,383-61.4,382.5"/>
		<path d="M20.4,382.2C20.3,382.2,20.3,382.2,20.4,382.2c2.2,0.1,4.4,0.7,6.3,1.3c0.2-0.3,0.4-0.6,0.6-0.9c-0.6-0.1-1.1-0.3-1.6-0.4
			c-0.2,0.4-0.3,0.9-0.5,1.3c2.9,0.2,5.6,1,8.4,1.5c1.1,0.2,1.9-1,0.8-1.3c-0.3-0.1-0.7-0.2-1-0.3c-0.2,0.5-0.3,0.9-0.5,1.4
			c2.8-0.1,5.1,0.8,8,0.5c0.4-0.1,0.7-0.4,0.7-0.7c0,0,4.9,0,5.6-0.1c0.4-0.1,0.8-0.5,0.6-0.8c0-0.1-0.1-0.2-0.1-0.3
			c-0.2-0.3-0.7-0.4-1.1-0.2c-0.9,0.5-4.9,0.1-6.3,0.3c-0.7,0.2-0.6,0.4-1,0.5c-2,0.3-4.3-0.7-6.4-0.7c-0.9,0.1-1.5,1.1-0.5,1.4
			l1,0.3c0.3-0.4,0.5-0.9,0.8-1.3c-3-0.6-5.9-1.3-9-1.4c-1.2,0-1.3,1.2-0.3,1.4c1.1,0.3,0.9,0.3,2.1,0.2c0.9,0,0.9-1,0-1
			C24.7,382.8,22.7,382.1,20.4,382.2"/>
		<path d="M-99.4,394.4c0.5,0.1,0.6-0.4,0.3-0.6c-0.6-0.1-1.1-0.5-1.6-0.8c-0.5-0.3-1.1-0.6-1.5-0.9c-0.8-0.6-1.4-1.2-2.5-1.6
			c-0.6-0.2-1,0.4-0.5,0.6c1,0.5,1.7,1.4,2.8,1.9c0.6,0.3,1.2,0.6,1.8,0.9C-100.2,394.1-99.9,394.3-99.4,394.4"/>
		<path d="M-99.2,392.2c0.7,0.2,1.3-0.4,0.9-0.6c-0.7-0.6-1.3-1.2-1.9-1.8c-0.6-0.6-1.2-1.1-2.2-0.9c-0.5,0-0.6,0.5-0.3,0.7
			c0.5,0.3,0.9,0.8,1.3,1.2C-100.8,391.3-100.1,391.9-99.2,392.2"/>
		<path d="M-97,390.3c0.6,0,0.8-0.5,0.3-0.8c-0.3-0.2-0.6-0.6-0.9-0.8c-0.3-0.2-0.5-0.5-0.8-0.7c-0.7-0.7-1.5-1.8-2.8-1.8
			c-0.5,0-0.8,0.4-0.7,0.7c0.3,0.9,1.4,1.7,2.4,2.3C-98.8,389.7-98,390.4-97,390.3"/>
		<path d="M-95.6,388.1c0.5,0.4,1.6-0.2,1.1-0.8c-0.6-0.6-1.3-1.1-1.9-1.7l-0.1-0.1c-0.2-0.2-0.2,0-0.2,0.4c0.1,0,0.2-0.2,0.2-0.3
			c0.1-0.3-0.1-0.4-0.4-0.6c-0.2-0.1-0.6-0.1-0.8,0c-0.9,0.4-0.5,1.1,0,1.5C-97,387.1-96.3,387.6-95.6,388.1"/>
		<path d="M-92.9,387.3c0.8,0.3,1.8-0.5,1.1-0.8c-0.4-0.2-0.4-0.8-0.7-1.1c-0.3-0.4-0.7-0.8-1.1-1.1c-0.4-0.4-1.3-0.3-1.6,0.1
			c-0.5,0.8,0.2,1.2,0.9,1.7C-93.8,386.5-93.6,387-92.9,387.3"/>
		<path d="M-89.8,386.4c1,0,1-0.8,0.3-1.1c-0.1,0-0.2-0.1-0.3-0.1l0.6,0.6c0-0.7-0.8-1.5-1.4-2c-0.4-0.3-1.1-0.3-1.4,0
			c-0.5,0.4-0.5,0.9,0,1.4c0.3,0.3,0.9,0.5,1.2,0.9c0.1,0.2,0.4,0.3,0.7,0.3C-90,386.4-89.9,386.4-89.8,386.4"/>
		<path d="M-87.2,385.7c0,0.1,0.2,0.1,0.3-0.1c0-0.3-0.2-0.7-0.5-1c-0.2-0.2-0.4-0.3-0.6-0.5c-0.2-0.2-0.1-0.4-0.3-0.1
			c0.2-0.3,0.2-0.5-0.1-0.8c-0.1-0.1-0.1-0.1-0.1-0.1c-0.3-0.2-0.9-0.3-1.3-0.1c-0.5,0.2-0.6,0.6-0.5,0.9c0.1,0.5,0.7,0.9,1.3,1.1
			C-88.5,385.2-87.5,385.3-87.2,385.7"/>
		<path d="M-83.8,385.2c0.4-0.2,0.5-0.5,0.1-0.9c-0.3-0.2-0.6-0.4-0.8-0.7c-0.1-0.1-0.1-0.2-0.2-0.4c0-0.1-0.1-0.1,0,0
			c-0.1-0.1,0.3-0.4-0.1,0.2c0.7-1-1.3-1.9-2.3-0.9c-0.7,0.7,0.1,1.6,0.8,2.1C-85.8,385-84.6,385.6-83.8,385.2"/>
		<path d="M-82.3,384.8c0.4-0.1,0.8-0.5,0.5-0.7c-0.1-0.2-0.3-0.3-0.4-0.4c-0.2-0.2,0-0.5-0.2-0.1c-0.4,0.2-0.8,0.3-1.2,0.5
			c1.1-0.1,1.8,0.1,2.9,0.4c0.1-0.2,0.2-0.3,0.3-0.4c-0.4-0.3-1-0.6-1.3-1c-0.3-0.3-0.4-0.6-0.7-0.9c-0.5,0.4-1,0.7-1.5,1.1
			c0.8,0.3,1.6,0.5,2.4,0.8c0.7,0.2,1.1,0.3,1.8,0.2c0.5-0.1,0.8-0.4,0.8-0.7c0-0.2-0.1-0.7-0.3-0.8c-0.2,0.1-0.5,0.3-0.7,0.4
			c0.2,0,0.3,0.1,0.4,0.1c0.2,0,0.4,0,0.5,0.1c0.9,0.4,1.2,0.8,2.3,0.8c1.2-0.1,1.5-1.4,0.3-1.6c-0.7-0.1-1.2-0.6-1.8-0.8
			c-0.6-0.2-1.2-0.4-1.8-0.3c-0.8,0.1-1.3,0.5-1.4,1s0.4,0.8,0.5,1.2c0.2-0.3,0.5-0.6,0.7-0.9c0.5-0.1,0.4,0,0-0.2
			c-0.2-0.1-0.4-0.2-0.7-0.3c-0.7-0.3-1.4-0.5-2.1-0.6c-1.2-0.1-2,1-0.8,1.5c0.5,0.2,0.8,0.7,1.4,0.9c0.5,0.2,1.2,0.2,1.8,0.3
			c0.3,0,0.3-0.3,0.2-0.4c-0.9-0.8-1.6-1.6-2.9-2c-0.6-0.2-1.5,0.2-1.6,0.7C-85.2,383.6-83.8,385.2-82.3,384.8"/>
		<path d="M30.2,384.2c0.3,0.8,1.8,0.4,1.6-0.3c-0.1-0.4-0.6-0.6-0.9-1c-0.3-0.4-1.3-0.4-1.4,0.1c0,0.2,0,0.5,0.2,0.7
			C29.8,383.9,30.1,384,30.2,384.2"/>
		<path d="M36.3,384.9c0.8,0,1-0.9,0.1-1c-1.6-0.1-2.1-1.3-3-2.1c-0.4-0.4-1.1-0.2-1.3,0.2c-0.3,0.7,0.6,1.5,1.3,1.9
			C34.2,384.5,35.2,384.9,36.3,384.9"/>
		<path d="M40.7,384.8c0.4-0.1,0.6-0.7,0-0.8c-1-0.1-1.6-0.5-2.3-1c-0.5-0.4-0.9-1-1.6-1.3c-0.5-0.2-1.2,0.1-1.2,0.5
			c0,0.8,1.1,1.5,1.9,1.9C38.3,384.6,39.6,385.1,40.7,384.8"/>
		<path d="M43.2,385.1c0.9,0.3,1.7-0.6,0.7-1c-1.1-0.5-1.8-1.5-2.6-2.2c0,0.3-0.1,0.5-0.1,0.8l0.1-0.1c0.3-0.3,0.3-0.7-0.2-0.9H41
			c-0.6-0.3-1.6,0.2-1.3,0.7c0.3,0.6,1,1,1.5,1.5C41.8,384.4,42.4,384.8,43.2,385.1"/>
		<path d="M46.6,384.9c0.7,0.3,1.6-0.5,0.8-0.9c-0.5-0.3-1-0.7-1.4-1.1c-0.3-0.3-0.5-0.5-0.7-0.8c-0.1,0-0.1-0.1-0.1-0.1
			s-0.3,0.5-0.1,0.3c0.1-0.1,0.2-0.2,0.2-0.3c0.1-0.3-0.1-0.7-0.6-0.8c-0.8-0.1-1.4,0.3-1.4,0.9c0,0.5,0.4,0.9,0.8,1.2
			C44.8,383.9,45.7,384.5,46.6,384.9"/>
		<path d="M50,384.7c0.8,0.3,1.7-0.4,1.2-1c-0.6-0.4-1-0.7-1.4-1.2c-0.1-0.1-0.3-0.3-0.4-0.4c-0.3-0.2-0.1-0.1-0.2,0.1
			c0.1-0.2,0.2-0.4,0-0.5c-0.4-0.3-1.2-0.5-1.7-0.1c-0.5,0.3-0.4,0.8-0.1,1.2C48,383.6,48.8,384.3,50,384.7"/>
		<path d="M55.3,385.2c0.9-0.1,1.1-1,0.2-1.1c-0.6-0.1-1-0.6-1.4-0.9c-0.6-0.5-0.9-0.9-1.9-1c-0.5,0-1,0.4-0.8,0.8
			c0.3,0.6,1,1.1,1.7,1.5S54.4,385.2,55.3,385.2"/>
		<path d="M59.9,386.2c0.6,0,1-0.7,0.3-0.9c-0.5-0.2-0.7-1-1.1-1.3c-0.5-0.4-1.1-1.1-1.2-1.7c-0.1-0.6-1.2-0.4-1.4,0
			c-0.5,0.9,0.4,1.8,1.2,2.5C58.3,385.4,58.7,386.2,59.9,386.2"/>
		<path d="M66.5,386.4c0.5-0.1,0.4-0.5,0-0.6c-0.8-0.2-1.1-1.1-1.5-1.6c-0.5-0.6-1-1.1-1.1-1.7c0-0.2-0.4-0.3-0.6-0.3
			c-0.8,0-1.2,0.6-1,1.1s0.7,0.9,1.2,1.4C64.2,385.4,65.1,386.7,66.5,386.4"/>
		<path d="M69.2,386.4c0.4,0.7,2,0.6,1.9-0.2c0-0.6-0.6-0.9-0.8-1.5c-0.1-0.3-0.3-0.6-0.4-0.9c-0.1-0.1-0.2-0.2-0.2-0.3
			c-0.1-0.1,0.1-0.2-0.1-0.1c0.4-0.2,0.3-0.7-0.2-0.9c-0.1,0-0.1-0.1-0.2-0.1c-0.4-0.2-1-0.1-1.3,0.1c-0.9,0.6-0.5,1.4-0.1,2.1
			c0.2,0.3,0.4,0.7,0.6,1C68.6,385.9,69.1,386.1,69.2,386.4"/>
		<path d="M75.9,386.6c0.9,0.1,1-0.9,0.1-1.2c-0.4-0.1-0.8-0.9-1-1.2c-0.3-0.3-0.6-0.6-0.7-1c-0.1-0.3-0.1-0.7-0.4-1
			c-0.3-0.4-1.1-0.4-1.4,0c-0.8,1,0.3,2.1,1,2.9C74.1,385.8,74.7,386.5,75.9,386.6"/>
		<path d="M79,385.5c0.3,0.6,1.5,0.3,1.3-0.2c-0.1-0.5-0.5-1-0.8-1.4c-0.1-0.1-0.3-0.4-0.3-0.4c0-0.2,0.1-0.4,0-0.6
			c-0.1-0.2-0.4-0.4-0.7-0.4c-0.9,0-1.4,0.7-1.1,1.3C77.7,384.4,78.6,384.9,79,385.5"/>
		<path d="M84.2,385.7c0.7,0.4,1.7-0.5,1.2-1c-0.6-0.4-0.6-0.8-0.9-1.3s-0.6-1-1.3-1.3c-0.3-0.1-0.8-0.1-1,0.2
			c-0.5,0.7,0.2,1.3,0.6,1.9C83.1,384.8,83.4,385.3,84.2,385.7"/>
		<path d="M97.4,386.1c0.4,0.1,0.9-0.3,0.5-0.5c-0.4-0.5-0.7-0.9-1-1.4c-0.3-0.7-0.3-1.3-0.6-1.9c-0.3-0.6-1.3-0.3-1.5,0.1
			c-0.4,0.7,0.2,1.6,0.7,2.3C95.9,385.3,96.5,385.9,97.4,386.1"/>
		<path d="M104.5,386.1c0.6-0.5-0.2-1.1-0.9-0.7c0.2-0.1,0.1,0-0.1-0.1c-0.1-0.1-0.3-0.2-0.4-0.3c-0.2-0.2-0.5-0.4-0.7-0.6
			c-0.2-0.2-0.4-0.4-0.5-0.6c-0.1-0.2-0.3-0.3-0.3-0.5c0-0.2,0.1-0.3,0.1-0.5c0-0.3-0.4-0.6-0.9-0.5c-2.1,0.5-0.6,2.2,0.3,2.9
			C101.8,385.8,103.3,386.9,104.5,386.1"/>
		<path d="M107.4,386.4c0.7,0.6,2.2,0,1.6-0.7c-0.7-0.7-1.4-1.5-1.9-2.3c-0.1-0.2-0.2-0.4-0.3-0.5c-0.1-0.2,0.1-0.3-0.1,0.1
			c-0.1,0.2-0.3,0.2,0.2,0.1c0.4,0,0.4-0.4,0.2-0.6c-1-0.8-2.7-0.3-2.2,0.8C105.4,384.4,106.4,385.5,107.4,386.4"/>
		<path d="M111.5,385.5c-0.1-0.6-1.3-0.6-1.3-0.7c0-1,2,0.3,2.5,0.5c0.5,0.2,1.3-0.1,1.1-0.6c-0.6-1.4,1.6,1,3.4,1.6
			c0.7,0.3,1.8-0.2,1.5-0.8c-0.6-1-1.4-1.8-2.1-2.7c-0.5,0.3-0.9,0.6-1.3,0.9c1.4,0.7,2,1.6,3.3,2.2c0.8,0.3,1.9-0.3,1.6-0.9
			c-0.3-0.7-0.6-1.3-0.9-2c-0.6,0.2-1.1,0.5-1.7,0.7c1.9,1,3.6,1.9,5.8,2.4c1,0.3,1.8-0.6,1.3-1.2c-0.6-0.7-1.1-1.4-1.6-2.2
			c-0.5,0.5-0.9,0.9-1.4,1.3c3.1,0.9,2.4,0.8,5.5,1.6c0.7,0.2,1.4-0.2,1.6-0.6c0-0.2,0.1-0.4,0.2-0.5c0.2-0.3,0-0.7-0.3-0.9
			c-0.5-0.3-0.9-0.6-1.3-1c-0.6,0.4-1.3,0.7-1.9,1.1c2.4,0.8,3.6,1.5,6.2,2c1,0.2,1.7-0.4,1.6-1.1c-0.1-0.6-0.2-0.8-0.6-1.4
			c-0.6,0.5-1.2,0.9-1.8,1.3c1.9,0.6,3.5,1,5.6,1.1c0.9,0,1.6-0.8,1.1-1.4c-0.4-0.3-0.6-0.6-1-0.9c-0.3,0.5-0.6,1.1-0.9,1.6
			c2.5-0.1,5.5,0.4,7.8,0.9c0.2-0.6,0.5-1.2,0.7-1.8c-2.7-0.3-6.6-0.6-9-1.6c-0.3,0.6-0.5,1.2-0.7,1.8c6.7-0.3,13.4,1.9,20.2,1.7
			c1.9,0,1.8-1.9,0-2c-5.2-0.5-10.8-0.3-16.1-0.3v1.9c9.4-0.3,18.8,0.2,28.1,0.3c1.6,0,2-1.8,0.4-2c-3.3-0.3-6.7-0.7-10.1-0.8v2.1
			c6.8,0.1,14.7,0.4,21.3,1.5c0.1-0.7,0.3-1.5,0.4-2.2c-2.6-0.1-5.1-0.3-7.7-0.5c-1.9-0.2-2,1.8-0.4,2.2c3.7,0.9,7.7,0.9,11.6,1.1
			c2.5,0.1,6.2,0.9,8.6,0c1.8-0.7,0.2-2.7-1.7-2c-1.5,0.5-6.2-0.3-8-0.4c-3.2-0.1-6.5-0.2-9.6-0.9c-0.1,0.7-0.3,1.5-0.4,2.2
			c2.6,0.2,5.1,0.4,7.7,0.5c1.8,0.1,2.1-1.9,0.4-2.2c-6.8-1.2-15.2-1.6-22.2-1.5c-1.9,0-1.9,2,0,2.1c3.2,0.1,6.3,0.4,9.4,0.7
			c0.1-0.6,0.3-1.3,0.4-2c-9.4-0.1-18.7-0.5-28.1-0.1c-1.7,0.1-1.7,1.9,0,1.9c5.3,0,10.8,0,16.1,0.4v-2c-6.8,0.2-13.5-2-20.2-1.6
			c-1.3,0.1-1.9,1.3-0.7,1.8c2.7,1.2,6.6,1.5,9.6,1.8c1.7,0.2,2.4-1.4,0.7-1.8c-2.7-0.6-5.7-1-8.5-0.9c-1.1,0.1-1.7,1-0.9,1.6
			c0.2,0.2,0.4,0.3,0.6,0.5c0.3-0.5,0.7-0.9,1.1-1.4c-1.6,0-3-0.3-4.3-0.9c-1.2-0.4-2.3,0.4-1.8,1.3c0.2,0.4,0.3,0.7,0.4,1
			c0.5-0.3,1.1-0.7,1.6-1.1c-2.1-0.4-3.7-1.2-5.6-1.9c-1-0.3-2.1,0.3-1.9,1.1c0,0,0.6,1.4,0.9,1.1c0.4-0.4-1.9-1.4-3.4-1.8
			c-1.1-0.2-1.8,0.7-1.4,1.3c0.5,0.8,1.1,1.5,1.7,2.2c0.4-0.4,0.9-0.8,1.3-1.2c-2.1-0.4-3.6-1.3-5.3-2.2c-0.9-0.4-1.7,0.3-1.6,0.9
			c0.2,0.8,0.7,1.5,1,2.2c0.5-0.3,1.1-0.6,1.6-0.9c-1.2-0.5-2.1-1.5-3.4-2c-0.9-0.4-1.7,0.3-1.3,0.9c0.5,0.9,1.1,1.7,1.7,2.5
			c0.5-0.3,1-0.5,1.5-0.8c-2.6-0.9-3.5-2.5-6-3.2c-0.7-0.2-1.2,0.4-1.1,0.8c0.3,1.4,2.2,1.5-0.4,0c-0.6-0.4-1.6,0-1.4,0.6
			c0.4,1.1,0.3,1,1,2c0.2,0.5,1.3,0.3,1.2-0.2V385.5"/>
		<path d="M186.4,387.9c0.2,0.2,0.6,0.2,0.8,0.1c0.6-0.6-0.3-1.4-0.6-2c-0.2-0.4-0.4-0.7-0.6-1.1l-0.2-0.4c0,0.1-0.1,0.2-0.2,0.3
			c0.1,0,0.3,0,0.4,0c0.5,0,0.9-0.3,0.7-0.6c-0.6-1.4-3.3-0.8-2.9,0.6c0.1,0.5,0.6,1,0.9,1.5c0.3,0.3,0.6,0.7,0.9,1
			C185.8,387.5,186.2,387.6,186.4,387.9"/>
		<path d="M189.9,388c0.3,0.4,1.1,0.3,1.2,0.1c0.5-0.6-0.1-1.4-0.2-2c0,0-0.1-0.4,0-0.2c0-0.1,0,0,0,0c-0.1,0-0.4,0.3,0,0
			c0.7-0.4,0.4-1.2-0.5-1.4c-1.6-0.3-2.1,1-1.7,1.8c0.2,0.4,0.4,0.8,0.7,1.1c0.1,0.2,0.2,0.3,0.3,0.4
			C189.8,387.8,189.8,387.9,189.9,388C190.1,388.2,189.9,387.9,189.9,388"/>
		<path d="M193.6,389.3c1.1,0,1.2-1.1,0.3-1.4c-0.1-0.1-0.2-0.1-0.3-0.1c0.2,0.3,0.5,0.5,0.7,0.7c-0.1-0.7-0.2-1.4-0.2-2.2
			c0-0.4,0-0.7,0.1-1c0-0.1-0.4,0.4,0,0.1c0.1-0.1,0.2-0.2,0.3-0.3c0.2-0.3,0.1-0.9-0.6-1c-3.6-0.4-2.2,3.4-1.5,4.7
			c0.1,0.3,0.5,0.5,0.9,0.5C193.4,389.3,193.5,389.3,193.6,389.3"/>
		<path d="M198.4,388.9c1.1-0.1,0.7-1.2-0.1-1.3c0.6,0,0.1,0.2,0.2-0.1c0-0.1,0-0.3,0-0.4c0-0.2,0.1-0.5,0.1-0.7
			c0-0.2,0-0.4,0.2-0.6c0.3-0.3,0.8-0.5,1-1c0.2-0.4-0.1-0.7-0.6-0.8c-1.1-0.3-2.1,0.3-2.6,1c-0.4,0.5-0.4,1.1-0.4,1.6
			C196.2,387.6,196.5,389.1,198.4,388.9"/>
		<path d="M203.2,388.2c0.1,0.6,1.3,0.5,1.5-0.1c0.2-0.7,0.4-1.5,0.2-2.2c-0.1-0.3-0.6-0.9-0.3-1.3c0.3-0.3,0-0.8-0.6-0.8
			c-1.2,0.1-1.6,0.8-1.4,1.6c0.1,0.3,0.3,0.7,0.4,1C203.1,387,203,387.6,203.2,388.2"/>
		<path d="M209,387.5c-0.7,0.5,0.2,1.2,1,0.9c0.4-0.1,0.8-0.4,0.9-0.7c0.1-0.3,0-0.6,0.1-0.8c0.1-0.4,0.6-0.5,0.6-0.9
			c0-0.4-0.3-0.7-0.8-0.8c-0.4-0.1-0.8,0-1.1,0.2c-0.5,0.3-0.7,0.8-0.8,1.2C208.9,386.8,209.1,387.4,209,387.5"/>
		<path d="M216.1,389.6c0.2,0,0.3-0.2,0.3-0.3c0,0,0.1-0.1,0.2-0.2c0.2-0.1,0.3-0.2,0.4-0.3c0.2-0.2,0.4-0.4,0.6-0.6
			c0.6-0.7,1.9-1.1,1.8-2c-0.1-0.8-1.4-1.1-2-0.4c-0.1,0.2-0.5,0.3-0.7,0.4c-0.3,0.2-0.5,0.5-0.7,0.7c-0.3,0.3-0.5,0.8-0.6,1
			c-0.2,0.5-0.7,1.2-0.1,1.7c0.1,0.1,0.4,0.2,0.6,0.1C216,389.6,216,389.6,216.1,389.6"/>
		<path d="M223.7,389.4c-0.4,0.1-0.3,0.7,0.2,0.9c0.1,0,0.2,0,0.3,0c0.3,0.1,0.6,0,0.8-0.2c0.4-0.5,1.4-0.6,2-0.9
			c0.9-0.4,1.9-0.9,1.8-1.7c-0.1-0.5-0.8-0.8-1.4-0.6c-0.9,0.3-1.5,1-2.3,1.4c-0.8,0.4-1.6,0.8-1.4,1.6c0.1-0.2,0.2-0.4,0.3-0.6
			C223.9,389.3,223.8,389.4,223.7,389.4"/>
		<path d="M230.4,391.2c0.2,0.3,1,0.2,0.9-0.2c0-0.2,5-0.9,5.4-1c0.8-0.2,0.6-1-0.2-1c-1.6,0-3.3,0.4-4.8,0.9
			C230.9,390.1,230,390.5,230.4,391.2"/>
		<path d="M234,392.3c-0.5,0.3-0.2,0.9,0.6,0.8c0.7-0.2,1.7,0,2.5-0.1c1-0.1,2.1-0.1,3.1-0.2c1.2-0.1,2.5-0.2,3.4-0.8
			c0.6-0.4,0-1-0.7-0.9c-1.5,0.2-3.1,0.2-4.5,0.4c-1.1,0.1-2.1,0.3-3.2,0.5C234.7,392.1,234.4,392.1,234,392.3"/>
		<path d="M237.4,394.5c-0.6,0.2-0.4,0.9,0.3,0.9c1.3-0.1,2.6-0.3,3.9-0.4c1.6-0.1,3.1-0.1,4.7-0.3c0.9-0.1,0.9-1.2,0-1.3
			C243.4,393,240,393.5,237.4,394.5"/>
		<path d="M238.8,397.8c-1,0-1,1.2,0,1.2c3.2,0,6.6,0,9.7-0.4c0.6-0.1,0.6-0.7,0-0.8C245.3,397.4,242,397.8,238.8,397.8"/>
		<path d="M241.1,401.8c-1.1,0-1.1,1.2,0,1.2c2.1,0,4.1,0,6.2-0.2c0.6,0,0.6-0.7,0-0.8C245.3,401.8,243.2,401.8,241.1,401.8"/>
		<path d="M241.5,405.4c-1.2,0-1.2,1.4,0,1.4c1.8,0,3.5-0.1,5.3-0.2c0.9,0,0.9-0.9,0-1C245,405.4,243.3,405.4,241.5,405.4"/>
		<path d="M203.2,388.1c0.3-0.1,0.2-0.4-0.2-0.5c-2.9-0.1-5.9,0-8.9-0.2v1.6c2.4,0,4.6,0.4,7,0.4c1,0,1.5-0.9,0.8-1.4
			c-2.1-1.5-6.8-0.9-9.4-2.1v1.8c0.9-0.3,4.4,0.6,5.4,0.8c2.8,0.4,5.7,0.7,8.5,1.1c0.2-0.6,0.3-1.3,0.4-1.9
			c-2.5-0.3-4.8-0.7-7.3-0.9c-1.6-0.2-2.4,1.5-0.7,1.8c5.9,1.1,13,2,19.1,1.5c1.1-0.1,1.1-1.1,0-1.2c-6.1-0.6-12.4-1-18.4-2.1
			c-0.2,0.7-0.3,1.3-0.4,1.9c2.4,0.2,4.9,0.7,7.3,0.9c1.7,0.1,2.4-1.5,0.7-1.9c-3.4-0.7-7-1.1-10.5-1.6c-1.5-0.3-4-0.9-5.5-0.2
			c-0.9,0.4-1,1.4,0,1.8c1.4,0.5,2.9,0.6,4.4,0.8c1,0.2,4.3,0.3,4.9,0.7c0.3-0.5,0.5-0.9,0.8-1.4c-2.3,0-4.6-0.3-7-0.3
			c-1.4,0.1-1.4,1.7,0,1.6C197.4,388.9,200.1,388.5,203.2,388.1"/>
		<path d="M105.7,386c0.8-0.1,0.6-1-0.3-1c-4,0.1-8.6,0.1-12.5-0.3c-1.1-0.1-1.9,0.7-1.1,1.3c0.1,0.1,0.1,0.1,0.2,0.2
			c0.3-0.4,0.5-0.9,0.8-1.3c-2.3,0.1-5,0.5-7.3,0v2c1.1-0.1,2.1-0.3,3.1-0.5c1.5-0.2,1.2-1.8-0.3-1.8c-9.9,0.3-19.6-0.5-29.5-1.2
			c-1.2-0.1-1.3,1.1-0.3,1.3c9.7,2.1,19.8,1.6,29.8,1.7c-0.1-0.6-0.2-1.2-0.3-1.8c-1,0.1-1.9,0.2-2.8,0.3c-1.5,0.2-2.1,1.8-0.4,2.1
			c3,0.5,5.4-0.1,8.4-0.5c0.7-0.1,1.1-0.8,0.7-1.2l-0.2-0.2c-0.5,0.4-0.9,0.8-1.3,1.2C96.6,387,101.5,386.5,105.7,386"/>
	</g>
</g>
</svg>
