<?xml version="1.0" encoding="utf-8"?>
<!-- Generator: Adobe Illustrator 19.0.0, SVG Export Plug-In . SVG Version: 6.00 Build 0)  -->
<svg version="1.2" baseProfile="tiny" id="Layer_1" xmlns="http://www.w3.org/2000/svg" xmlns:xlink="http://www.w3.org/1999/xlink"
	 x="0px" y="0px" viewBox="0 0 8.5 8" xml:space="preserve">
<g>
	<path d="M1.5,0.6c-2.5,1.2-1.4,5-0.6,6.9c0.2,0.4,0.7,0.3,0.9,0c1.3,0.8,3.3,0.4,4.7,0c2.5-0.7,2.1-4.1,1.3-6c-0.4-1-1-1.4-2.1-1.5
		C4.5-0.1,2.7,0,1.5,0.6 M7,1.8c0.7,1.4,1,4.5-0.8,5C5.1,7.1,3,7.6,1.9,6.9C1.4,5.7,0.6,3.6,1.2,2.5C1.9,0.8,6.2,0.2,7,1.8"/>
</g>
</svg>
