<?xml version="1.0" encoding="utf-8"?>
<!-- Generator: Adobe Illustrator 19.0.0, SVG Export Plug-In . SVG Version: 6.00 Build 0)  -->
<svg version="1.1" id="Layer_1" xmlns="http://www.w3.org/2000/svg" xmlns:xlink="http://www.w3.org/1999/xlink" x="0px" y="0px"
	 viewBox="-140 267.1 313.8 307.8" style="enable-background:new -140 267.1 313.8 307.8;" xml:space="preserve">
<style type="text/css">
	.st0{fill:#FFCC2B;stroke:#FFCD2D;stroke-miterlimit:10;}
	.st1{fill:none;}
	.st2{fill:#FFFFFF;stroke:#FFFFFF;stroke-width:2;stroke-miterlimit:10;}
</style>
<path class="st0" d="M-55.1,305.1c-50.3,26.4-80.9,83-74.6,142.1c3.6,33.7,18.8,65.3,43.6,87c24.9,21.7,57.6,33.1,89.9,29.1
	c4.7-0.6,9.6,4.2,2.7,5.1c-3.9,0.5-7.9,0.8-11.8,0.9c30.3,1.1,61.5,0,89.4-13.4c27.4-13.3,47.4-36.7,54.1-68
	c7-32.9,5.6-70.8-6-102.4c-9-24.2-24.5-45.2-43.8-61.2C47.7,290.5-8,280.4-55.1,305.1z"/>
<path d="M97.2,547.5c-2.1,3-4.2,5.9-6.6,8.7c2.3-0.6,4.5-1.3,6.8-2c1.6-2.9,3.3-5.8,4.9-8.7C100.6,546.2,98.9,546.9,97.2,547.5"/>
<path d="M101.3,553c1.8-0.6,3.6-1.3,5.3-1.9c1.8-3.3,3.7-6.6,5.5-10c-0.9,0.4-1.8,0.9-2.7,1.3c-0.5,0.2-1,0.5-1.5,0.7
	C105.7,546.4,103.5,549.7,101.3,553"/>
<path d="M173,452c3-36.2-1.7-73.9-19.9-105.4c-14.2-24.5-35.2-44.5-59.3-58.4c-30.1-17.4-64.4-24.1-97.5-19.7
	c-0.7-0.3-1.9-0.3-2.3,0.1c0,0-0.1,0.1-0.2,0.2c-21.6,3.3-42.6,11.3-61.5,24.4c-23.4,16.1-41.2,38.5-52.1,63.8
	c-20.5,35.3-26.4,79-13.2,120.2c17.1,53.3,64.9,88.6,116.8,91.9c-3.8,0.9-3,4.8,2.2,5.1c38.4,1.9,79.3,1.3,113.9-18.8
	c4.6-2.7,9.1-5.7,13.3-9c1.8-0.9,3.6-1.8,5.3-2.8c14.7-8.4,27.8-19.7,37.3-34.1C166.9,492.6,171.3,472.1,173,452 M163.5,436.4
	c-0.1,2.5-0.2,4.9-0.4,7.3c-3.2,4.1-6.1,8.4-8.8,12.8c0-1.7,0-3.5,0-5.3c0.1,0,0.2-0.1,0.3-0.2C157.6,446.1,160.5,441.3,163.5,436.4
	 M159.5,463.9c-0.2-0.1-0.5-0.2-0.7-0.2c0.9-1.5,1.9-2.9,2.9-4.4c0,0.3-0.1,0.7-0.1,1C160.9,461.5,160.2,462.7,159.5,463.9
	 M156.4,468.3c-0.1,0-0.3,0-0.5-0.1c0.2-0.3,0.4-0.7,0.6-1C156.5,467.6,156.4,467.9,156.4,468.3 M162.3,453.9
	c-3.2,4.3-6.2,8.8-9,13.4c0-0.4,0-0.9,0-1.3l0,0c3-4.5,6-8.8,9.1-13.1C162.4,453.3,162.3,453.6,162.3,453.9 M146,500.8
	c-0.3,0.3-0.5,0.6-0.8,1c0.1-0.3,0.2-0.5,0.3-0.8c0.5-0.6,0.9-1.2,1.4-1.8C146.6,499.7,146.3,500.3,146,500.8 M-129.1,447.2
	c-6.3-59.1,24.3-115.7,74.5-142.2c47.2-24.7,102.8-14.6,143.5,19.2c19.3,16,34.9,37,43.8,61.2c11.6,31.6,13,69.5,6,102.4
	c-6.7,31.3-26.7,54.7-54.1,68c-27.8,13.5-59,14.6-89.3,13.5c3.9-0.1,7.9-0.4,11.8-0.9c6.9-0.9,2-5.7-2.7-5.1
	c-32.3,4-65-7.3-89.9-29.1C-110.3,512.5-125.5,480.8-129.1,447.2 M-53.1,297.5c1.9-2,3.9-3.9,5.8-5.8c-0.9,1.2-1.8,2.5-2.8,3.7
	c-0.3,0.1-0.6,0.1-0.8,0.3c-0.5,0.4-0.8,0.8-0.9,1.3C-52.2,297.1-52.7,297.3-53.1,297.5 M-39.7,285.1c1.3-0.7,2.7-1.3,4.2-1.9
	c-3.2,3.4-6.2,7.1-8.9,10.9c-0.7,0.2-1.3,0.5-2,0.7C-44,291.7-41.8,288.5-39.7,285.1 M-30,280.9c1.6-0.6,3.1-1.2,4.7-1.6
	c-3.8,4.1-7.5,8.2-11.2,12.3c-1.3,0.3-2.5,0.7-3.8,1.1C-37.2,288.5-33.8,284.6-30,280.9 M-20.8,277.8c0.5-0.2,1-0.3,1.5-0.4
	c-2.3,2.2-4.7,4.4-7.1,6.6L-20.8,277.8 M-14.6,276.1c0.7-0.1,1.3-0.3,2-0.4c-4.1,4.3-8.1,8.7-12.2,13c-1.5,0.2-3,0.6-4.5,0.9
	C-24.4,285.2-19.4,280.7-14.6,276.1 M-8.6,274.9c1.2-0.3,2.3-0.5,3.5-0.7c-4,4.4-8.1,8.8-12.1,13.2c-1.3,0.2-2.5,0.4-3.7,0.6
	C-16.8,283.7-12.7,279.3-8.6,274.9 M-1.3,273.7c0.9-0.1,1.8-0.2,2.6-0.3C-2,277.6-5,282-7.8,286.5c-1.9,0.1-3.8,0.3-5.7,0.5
	C-9.4,282.6-5.4,278.1-1.3,273.7 M4.8,273.1c1.2-0.1,2.4-0.2,3.7-0.3c-3.9,4.5-7.7,8.9-11.5,13.4c-0.6,0-1.1,0.1-1.6,0.1
	C-1.7,281.7,1.4,277.3,4.8,273.1 M11.8,272.7c2.4-0.1,4.7-0.1,7.1,0c-3.9,4.2-7.6,8.8-10.8,13.6c-2.6-0.1-5.2-0.1-7.8-0.1
	C4.1,281.7,8,277.2,11.8,272.7 M22.1,272.8c1.3,0,2.7,0.1,4,0.2c-4.1,4.4-7.9,9-11.5,13.7c-1.1-0.1-2.3-0.2-3.5-0.3
	C14.4,281.6,18.1,277,22.1,272.8 M29.2,273.3c3.3,0.4,6.6,0.8,10,1.4c-0.4,0.1-0.7,0.3-0.8,0.5c-2.7,4.8-5.7,9.3-9,13.6
	c-3.9-0.8-7.8-1.4-11.7-1.8C21.3,282.2,25.1,277.7,29.2,273.3 M41.2,275.1c7.2,1.4,14.2,3.3,21.2,6c-3.6,4.3-6,9.9-8.6,14.8
	c-3.2-1.2-6.3-2.3-9.5-3.3c0.8-0.9,1.4-2.1,2.1-3.2l6.3-10.8c0.5-0.9-2.4-1.3-2.9-0.4l-4.5,7.7c-0.9,1.4-2,4.3-3.5,5.9
	c-3.2-0.9-6.5-1.7-9.7-2.4c3.4-4.4,6.4-9,9.1-13.8C41.3,275.4,41.3,275.2,41.2,275.1 M64.8,281.8c4.2,1.6,8.4,3.5,12.5,5.4
	c-3.4,4.9-6.9,9.6-10.6,14.2c-3.4-1.7-6.9-3.3-10.4-4.7C58.9,291.9,61.3,286.2,64.8,281.8 M79.7,288.4c3.6,1.9,7.2,3.9,10.8,6
	c-0.6,0-1.2,0.2-1.4,0.5c-2.9,4.7-5.7,9.4-8.6,14.1c-1.4-0.9-2.7-1.7-4.1-2.5c-2.7-1.5-5.3-2.9-8-4.3c0.5,0,1-0.1,1.2-0.4
	C73.2,297.5,76.5,293,79.7,288.4 M91.9,295.4c3.3,2.1,6.6,4.4,9.7,6.7c-3.3,5-6.2,10.3-8.7,15.7c-3.3-2.6-6.8-5-10.3-7.3
	C85.7,305.5,88.8,300.4,91.9,295.4 M107.1,306.3c2.7,2.2,5.3,4.6,7.9,6.9c-3.2,5.1-6.2,10.4-8.8,15.9c-3.5-3.4-7.2-6.6-11.1-9.7
	c0.1-0.1,0.2-0.2,0.3-0.3c2.4-5.3,5.2-10.5,8.4-15.4C104.9,304.6,106,305.4,107.1,306.3 M117,315.1c3.5,3.4,6.8,6.9,9.9,10.6
	c-3.2,5.2-6.4,10.3-9.6,15.4c-3.1-3.7-6.3-7.2-9.7-10.5c0.6,0,1-0.2,1.2-0.5C111.3,325,114,320,117,315.1 M128.7,327.8
	c3.3,4,6.3,8.1,9.1,12.3c-3.1,5.1-6.5,10-10.2,14.7c-2.7-4-5.5-7.9-8.5-11.6C122.3,338.1,125.5,333,128.7,327.8 M139.5,342.6
	c2.2,3.5,4.3,7.1,6.2,10.8c-2.9,6.1-5.6,12.3-8.3,18.5c-1.4-2.8-2.8-5.6-4.4-8.4c-1.2-2.1-2.5-4.3-3.9-6.4
	C132.8,352.4,136.3,347.6,139.5,342.6 M147.3,356.5c1.8,3.7,3.5,7.4,4.9,11.2c-2.8,7.3-4,15.2-7.8,22c-1.6-4.9-3.4-9.7-5.5-14.4
	C141.6,369,144.4,362.7,147.3,356.5 M153.8,371.9c1.7,4.6,3.1,9.4,4.3,14.4c-1.5,2.5-2.6,5.7-3.8,7.8c-1.9,3.6-3.9,7.1-5.8,10.7
	c-0.9-4-1.9-7.9-3-11.7C150,386.8,151.5,379.2,153.8,371.9 M159.2,390.7c0.7,3.4,1.4,6.9,1.9,10.4c-3.9,5.9-7.3,12.1-10,18.6
	c-0.5-3.7-1.1-7.4-1.8-11.1c0.2-0.1,0.3-0.2,0.4-0.3c2.2-4.1,4.4-8.1,6.6-12.2c0.9-1.7,1.9-3.5,2.8-5.2
	C159.1,390.8,159.2,390.8,159.2,390.7 M161.7,405c0.5,3.5,0.9,6.9,1.2,10.4c-3.4,6.5-6.8,12.9-10.4,19.2c-0.2-3-0.4-6-0.7-8.9
	C154.4,418.4,157.7,411.5,161.7,405 M163.2,420.6c0.2,3.5,0.3,7.1,0.3,10.6c-3.5,5.9-7.1,11.8-10.7,17.7c0-3.3,0-6.5-0.1-9.7
	c0.2-0.1,0.4-0.2,0.5-0.4C156.6,432.8,160,426.7,163.2,420.6"/>
<path d="M-129.5,379.3c-0.1,0.4-0.1,0.9-0.2,1.2c1-0.9,2.1-1.8,3.1-2.8c2.8-3.1,5.7-6.2,8.5-9.3c1-1.3,2.1-2.6,3.1-3.9
	c0.1-0.6,0.3-1.1,0.5-1.7C-119.7,368-124.7,373.6-129.5,379.3"/>
<rect x="-140" y="267.1" class="st1" width="313.8" height="307.8"/>
<g>
	<path class="st2" d="M-46.5,370.4c1-0.9,2-1.9,3-2.8c-0.1-1.9-0.1-3.9-0.1-5.8c-0.9,0.9-1.8,1.9-2.7,2.8
		C-46.5,366.5-46.6,368.5-46.5,370.4z"/>
	<path class="st2" d="M-48.5,372.2c-0.1-1.9-0.1-3.7,0-5.5c-1.1,1.2-2.3,2.3-3.5,3.4c-0.1,1.8,0.1,3.5,0.3,5.2
		C-50.6,374.3-49.5,373.2-48.5,372.2z"/>
	<path class="st2" d="M-57.1,380.8c1.2-1.3,2.5-2.5,3.7-3.7c-0.3-1.7-0.5-3.4-0.6-5.1c-0.8,0.7-1.6,1.5-2.5,2.2
		c-0.1,0.1-0.2,0.1-0.3,0.2C-57.1,376.5-57.2,378.6-57.1,380.8z"/>
	<path class="st2" d="M-58.9,382.6c-0.3-2.2-0.3-4.3-0.1-6.5c-0.9,0.7-1.9,1.3-2.9,2c-0.4,2.5-0.3,5,0.2,7.4
		C-60.8,384.5-59.8,383.5-58.9,382.6z"/>
	<path class="st2" d="M-63.4,387.3c-0.7-2.5-0.9-5.1-0.7-7.7c-1.1,0.7-2.2,1.5-3.3,2.3c-0.5,3.6-1,7.2-1.4,10.8
		c0.1,0.1,0.2,0.1,0.2,0.2C-66.9,391-65.1,389.1-63.4,387.3z"/>
	<path class="st2" d="M-41.5,365.7c0.5-0.4,1-0.8,1.5-1.3v-6.3c-0.5,0.5-1,1.1-1.5,1.6C-41.6,361.7-41.6,363.8-41.5,365.7z"/>
	<path class="st2" d="M-22.5,360.2l-5-5.3c-0.2,2.1,0,4.6-0.1,5.8c0,0.7-0.1,1.4-0.1,2.1c1.7,1.7,3.3,3.3,5,5
		C-23,365.3-23,362.8-22.5,360.2z"/>
	<path class="st2" d="M-38,362.6c0.6-0.6,1.3-1.2,2-1.8c0-2.2-0.1-4.5-0.1-6.8c-0.6,0.7-1.3,1.3-1.9,2V362.6z"/>
	<path class="st2" d="M-20,370.4c1.3,1.3,2.6,2.6,3.9,3.9l-0.2-2.4c-0.1-1.5-0.6-3.4-0.3-4.9c0-0.1,0-0.3,0.1-0.4l-4.3-4.5
		C-21.1,364.8-20.9,367.6-20,370.4z"/>
	<path class="st2" d="M-29.4,357.4c0.1-1.3-0.1-2.8,0.2-4.2l-2-2.1c0.1,2.9,0.1,5.8,0.2,8.7c0.3,0.2,0.6,0.4,0.8,0.6
		c0.2,0.2,0.4,0.4,0.6,0.6C-29.5,359.8-29.5,358.6-29.4,357.4z"/>
	<path class="st2" d="M-47.8,455.5c-0.3-2.7-0.3-5.5-0.1-8.2c-1.3,1.1-2.7,2.2-4,3.3c-0.3,3-0.4,5.9-0.1,8.9
		C-50.6,458.2-49.2,456.9-47.8,455.5z"/>
	<path class="st2" d="M70.3,458.9c1.5,1.3,3.1,2.7,4.6,4c-0.5-3.3-0.8-6.6-0.9-9.9c-0.1-0.1-0.3-0.2-0.4-0.3
		c-1.1-0.9-2.3-1.7-3.4-2.6C69.8,453,69.8,455.9,70.3,458.9z"/>
	<path class="st2" d="M-66,463.9l0.3-2.2c-1.9,1.5-2.7,2.4-3.3,5.2c-0.6,2.5-1.1,5.1-1.5,7.6c1.2-0.8,2.4-1.7,3.6-2.6
		c0-0.1,0.1-0.1,0.1-0.2c0.1-0.3,0.3-0.4,0.5-0.5c0.1-0.9,0-2.4,0-3C-66.2,466.8-66.1,465.3-66,463.9z"/>
	<path class="st2" d="M77,464.8c1.3,1.1,2.6,2.3,3.9,3.4v-7.4c-0.9-2.6-2.6-4.4-4.9-6.2c0.2,3.3,0.6,6.6,1.1,9.9
		C77.1,464.6,77.1,464.7,77,464.8z"/>
	<path class="st2" d="M62.2,443.8c-1.6-1.2-3.1-2.5-4.6-3.7c0.2,0.2,0.3,0.4,0.3,0.7v6.5c0,0.3-0.1,0.4-0.2,0.6
		c1.4,1.3,2.9,2.5,4.3,3.8C61.9,449.1,61.9,446.5,62.2,443.8z"/>
	<path class="st2" d="M68.4,448.8c-1.5-1.2-2.9-2.3-4.3-3.4c-0.3,2.7-0.3,5.5,0.1,8.2c1.3,1.1,2.5,2.2,3.8,3.3
		C67.8,454.2,67.9,451.4,68.4,448.8z"/>
	<path class="st2" d="M-43.5,443.6c-0.8,0.6-1.5,1.3-2.3,1.9c-0.3,2.8-0.4,5.5-0.2,8.3c0.9-0.9,1.7-1.6,2.5-2.4V443.6z"/>
	<path class="st2" d="M-70.9,393.7c0.4-3.2,0.8-6.3,1.2-9.5c-2,3.1-2.2,7.9-2.1,12.3c0.3-0.4,0.7-0.7,1-1.1
		c-0.1-0.2-0.2-0.4-0.2-0.7C-71,394.2-71,393.9-70.9,393.7z"/>
	<path class="st2" d="M-60.5,466.8c-0.1-3-0.2-6.1-0.1-9.2c-0.3,0.2-0.6,0.5-0.9,0.7c-0.8,0.6-1.5,1.2-2.3,1.8l-0.5,6.9
		c0,0.7,0,1.8,0,2.8C-63,468.9-61.7,467.8-60.5,466.8z"/>
	<path class="st2" d="M-9.3,381.1c-0.3-2.7-0.6-5.3-0.9-7.9c0-0.1,0-0.1,0-0.1c-0.6-0.6-1.2-1.3-1.8-1.9l-2.6-2.7
		c0.1,0.3,0.1,0.5,0.1,0.8l0.2,3c0.1,1.4,0.2,2.7,0.3,4.1C-12.4,377.9-10.8,379.5-9.3,381.1z"/>
	<path class="st2" d="M-54.9,462.1c0.4-0.4,0.7-0.7,1.1-1c0-0.2-0.1-0.3-0.1-0.4c-0.3-2.8-0.4-5.6-0.2-8.4c-1.6,1.3-3.1,2.6-4.7,3.8
		c0,1.7,0.2,3.5,0.2,4.1c0,1.7,0.1,3.3,0.1,5C-57.3,464.2-56,463.2-54.9,462.1z"/>
	<path class="st2" d="M16.2,375.2c-0.9,1-1.9,2-2.9,3c-0.3,3.2-0.4,6.5-0.4,9.7c1-1.1,2.1-2.1,3.1-3.2
		C15.8,381.5,15.9,378.3,16.2,375.2z"/>
	<path class="st2" d="M55.2,354.8L55.2,354.8c-0.9-1.4-1.8-2.7-2.7-4.1c-0.3,2.4-0.5,4.7-0.5,7.1c1,1.2,2,2.3,3,3.5
		C54.9,359.1,55,357,55.2,354.8z"/>
	<path class="st2" d="M64.5,372.1c0.1-1.1,0.3-2.2,0.6-3.3c-1.3-1.7-2.6-3.4-3.8-5.1c0,1.2,0.2,2.6,0.2,3.2s0,1.2,0,1.8
		C62.5,369.8,63.5,370.9,64.5,372.1z"/>
	<path class="st2" d="M59.4,362c0-0.2,0.1-0.5,0.1-0.7c-0.8-1.2-1.7-2.4-2.5-3.6c0,1.7,0,4,0,5.9c0.8,0.9,1.6,1.8,2.4,2.7
		C59.4,364.9,59.4,363.4,59.4,362z"/>
	<path class="st2" d="M55.9,446.3v-5.5c0-0.9,1-1.2,1.6-0.8c-0.7-0.7-1.5-1.3-2.2-1.9c-1.3,1.5-2.5,2.9-3.7,4.4
		C53.1,443.8,54.5,445.1,55.9,446.3z"/>
	<path class="st2" d="M82.7,392.8c0.8,0.8,1.5,1.7,2.3,2.6c0-1.3-0.4-2.5-1-3.7l-0.1,0.4C83.7,392.7,83.1,392.9,82.7,392.8z"/>
	<path class="st2" d="M81.9,391.5l0.5-2.3c-1.1-1.5-2.5-3-3.8-4.3c-0.2,1-0.3,2-0.1,3.1c1.1,1.3,2.3,2.6,3.4,3.9
		C81.9,391.8,81.9,391.7,81.9,391.5z"/>
	<path class="st2" d="M70.8,379.3c0-1,0.1-1.9,0.3-2.9c-1.5-1.8-3-3.7-4.4-5.5c-0.2,1.1-0.3,2.2-0.3,3.3
		C67.8,375.9,69.3,377.6,70.8,379.3z"/>
	<path class="st2" d="M-41.5,449c1.1-1.7,1.4-3.7,0-6.2V449z"/>
	<path class="st2" d="M77,383.5c0-0.1,0.1-0.1,0.1-0.2c-0.1-0.2-0.3-0.4-0.4-0.5c-1.3-1.5-2.6-2.9-3.8-4.4c-0.1,1.1,0,2.3,0.2,3.4
		c1.1,1.3,2.3,2.6,3.4,3.9C76.5,385,76.6,384.2,77,383.5z"/>
	<path class="st2" d="M39,363.7l1.5-11.8c-1.7,1.2-3.4,2.6-5,4c-0.4,3.8-0.6,7.5-0.8,11.3C36.1,366,37.5,364.8,39,363.7z"/>
	<path class="st2" d="M11.2,380.4c-1.5,1.5-2.9,3-4.4,4.5c1,2.6,1.1,5.6,1.1,8.5c0.9-1,1.9-2,2.8-3c0-0.1,0.1-0.3,0.3-0.4
		c-0.1,0,0,0,0,0C10.9,386.8,10.9,383.6,11.2,380.4z"/>
	<path class="st2" d="M-1.2,389.1c0.1-1.9,0.3-3.9,0.4-5.9c-0.1-0.2-0.2-0.3-0.4-0.5c-0.4-0.4-0.8-0.9-1.2-1.3
		c-0.2,2.1-0.2,4.2-0.2,6.3L-1.2,389.1z"/>
	<path class="st2" d="M79,399.7c-10.2-11.5-20.3-23.1-30.4-34.6c-14.6,11.6-28,24.4-40.2,38.6c-1.3,1.5-3.9,1.3-5.2,0L-33,367.9
		c-12.5,11-24.1,22.8-35,35.4c6.9,7.4,13.7,14.7,20.6,22.1c3.9,4.1,7.8,8.1,11.5,12.3c2,2.3,3.7,4.6,3.8,7.8
		c0.2,7.5-9.2,14.1-14.1,18.7c-6.4,6-13.3,11.5-20.5,16.6c9.1,11.3,18.3,22.5,27.4,33.7c14.7-11.2,28.9-23,42.6-35.5
		c1.4-1.3,3.8-1.5,5.2,0c10,11.2,20.1,22.5,30.1,33.7c15-10.3,28.1-23,38.8-37.8c-10.5-9.2-21.1-18.5-31.6-27.7
		c-2.4-0.6-4.3-3.9-2.2-6.4C55,426.8,66.9,413.1,79,399.7z"/>
	<path class="st2" d="M20.6,380c-0.3-3.1-0.4-6.1-0.2-9.2c-0.6,0.7-1.3,1.3-1.9,2c-0.5,3.3-0.7,6.6-0.6,9.9
		C18.8,381.8,19.7,380.9,20.6,380z"/>
	<path class="st2" d="M26.9,364.3c-1.4,1.4-2.8,2.8-4.2,4.3c-0.4,3.3-0.4,6.5-0.2,9.7c1.3-1.3,2.6-2.5,3.9-3.7
		C26.3,371.1,26.4,367.7,26.9,364.3z"/>
	<path class="st2" d="M47,357.2c0.1-3.3,0.4-6.5,1-9.8c-1.9,0.8-3.6,1.8-5.3,2.9c-0.5,3.8-1,7.6-1.5,11.4c1.7-1.4,3.5-2.8,5.3-4.2
		C46.7,357.4,46.8,357.3,47,357.2z"/>
	<path class="st2" d="M-3.6,379.9c-1.4-1.5-2.8-2.9-4.2-4.4c0.3,2.6,0.6,5.2,0.9,7.8c0.8,0.8,1.6,1.6,2.4,2.4c0-1.6,0.1-3.3,0.2-4.9
		C-4.3,380.4-4,380.1-3.6,379.9z"/>
	<path class="st2" d="M32.8,368.9c0.1-3.6,0.3-7.3,0.6-11c-1.4,1.3-2.7,2.6-4,3.9c-0.7,3.7-1,7.3-1,11
		C29.8,371.5,31.2,370.2,32.8,368.9z"/>
</g>
<path d="M89.5,399.9c5.1-9.5-6.5-18.4-11.8-25.3c-8.7-10.4-16.6-21.4-23.6-32.9c-0.5-0.9-1.7-1.4-2.8-1.1
	c-9.1,2.9-16.3,8.9-22.9,15.5C20.5,364,12.8,372,5.1,380c-2.5-3-5.8-5.8-8.4-8.5l-25.7-27c-1.3-1.3-3-0.7-3.8,0.5
	c-0.6,0-1.2,0.2-1.7,0.7c-2.2,2.2-4.3,4.4-6.4,6.7c-0.6-0.2-1.3,0.1-1.4,0.9c0,0.2,0,0.4,0,0.6c-1,0.9-1.9,1.9-2.8,2.9
	c-0.5-0.1-1.1,0.1-1.2,0.7c-0.1,0.3-0.1,0.5-0.2,0.8c-1.5,1.6-3,3.2-4.6,4.7c-0.5-0.4-1.3-0.3-1.4,0.5c0,0.4-0.1,0.7-0.1,1
	c-3.6,3.4-7.4,6.7-11.5,9.6c-3.9,2.8-8.9,4.6-10.3,9.6c-1.6,5.9-1.3,12.7-1.2,18.7c0,0.1,0,0.1,0,0.2c-0.1,1.1,0.2,2.2,1,3.1
	c5.7,6.2,11.5,12.3,17.2,18.5c4.1,4.5,9.3,9,13.4,13.8l-0.1,0.1c-7.6,6.5-15.3,12.8-23.2,18.9c-2.6,2-4.6,3.3-5.5,6.5
	c-1.3,5-1.9,10.3-2.8,15.4c-0.2,1.2,0.4,2.2,1.3,2.7c0.1,0.3,0.3,0.6,0.5,0.8c10.7,13.2,21.4,26.3,32.2,39.5
	c0.9,1.1,3.2,1.5,4.4,0.6c15.1-11.4,29.7-23.4,43.7-36c9.4,10.5,18.8,21.1,28.2,31.6c0.3,2.4,2.7,4.5,5.3,2.8
	c17.2-11.2,32-25.3,44.2-41.9c2.9,0.4,5.8-3,3.8-5.6c0.6-1.3,0.3-2.5-0.4-3.4c0.3-6.4,0.1-12.8-4.8-17.4
	c-7.2-6.7-15.7-12.2-23.4-18.5c9.1-10.8,18.4-21.4,28-31.9c0.3-0.4,0.5-0.7,0.7-1.1C88.7,400.9,89.2,400.6,89.5,399.9 M58.6,440
	c1.5,1.2,3.1,2.4,4.6,3.8c-0.3,2.6-0.4,5.2-0.2,7.8c-1.4-1.3-2.9-2.5-4.3-3.8c0.1-0.2,0.2-0.3,0.2-0.6v-6.5
	C58.9,440.4,58.8,440.2,58.6,440 M65,445.1c1.4,1.2,2.9,2.3,4.2,3.3c-0.4,2.7-0.5,5.5-0.3,8.2c-1.3-1.1-2.5-2.2-3.8-3.3
	C64.8,450.6,64.7,447.9,65,445.1 M74.9,452.8c0.1,3.3,0.4,6.6,0.9,9.9c-1.5-1.3-3.1-2.7-4.6-4c-0.5-3-0.5-5.9-0.1-8.8
	c1.1,0.9,2.3,1.7,3.4,2.6C74.6,452.6,74.8,452.7,74.9,452.8 M77,454.4c2.2,1.8,4,3.6,5,6.2v7.4c-1.3-1.1-2.6-2.3-3.9-3.4
	c0-0.1,0-0.2,0-0.3C77.5,461,77.2,457.7,77,454.4 M-68.3,466.8c0.7-2.8,1.4-3.7,3.1-5.2l-0.1,2.1c-0.1,1.5-0.2,2.9-0.3,4.4
	c0,0.6,0.1,2.1,0,3c-0.2,0.1-0.4,0.2-0.5,0.5c0,0.1-0.1,0.1-0.1,0.2c-1.2,0.9-2.4,1.7-3.6,2.6C-69.3,471.8-68.9,469.3-68.3,466.8
	 M-59.6,457.4c-0.1,3.1,0,6.1,0.1,9.2c-1.2,1-2.5,2-3.8,3c0-1-0.1-2,0-2.8l0.5-6.9c0.8-0.6,1.5-1.2,2.3-1.8
	C-60.2,457.9-59.9,457.6-59.6,457.4 M-53,460.6c0,0.1,0.1,0.2,0.2,0.4c-0.4,0.4-0.7,0.7-1.1,1c-1.2,1.1-2.5,2.1-3.7,3.1
	c-0.1-1.7-0.1-3.3-0.1-5c0-0.7-0.2-2.4-0.2-4.1c1.6-1.3,3.1-2.5,4.7-3.8C-53.4,455-53.3,457.8-53,460.6 M-47,447.1
	c-0.3,2.8-0.2,5.5,0.1,8.2c-1.4,1.4-2.8,2.7-4.2,4c-0.2-3-0.2-6,0.1-8.9C-49.7,449.3-48.3,448.2-47,447.1 M-44.9,445.3
	c0.8-0.6,1.5-1.3,2.3-1.9v7.8c-0.8,0.8-1.7,1.6-2.5,2.4C-45.3,450.8-45.2,448.1-44.9,445.3 M-70.9,396.3c-0.1-4.4,0.2-9.2,2.1-12.3
	c-0.4,3.2-0.8,6.3-1.2,9.5c-0.1,0.2-0.1,0.5-0.1,1c0,0.3,0.1,0.5,0.2,0.7C-70.2,395.6-70.6,395.9-70.9,396.3 M-63.2,379.3
	c-0.2,2.6,0,5.2,0.7,7.7c-1.7,1.9-3.5,3.8-5.2,5.7c-0.1-0.1-0.1-0.1-0.2-0.2c0.5-3.6,0.9-7.2,1.4-10.8
	C-65.4,380.8-64.3,380.1-63.2,379.3 M-58.1,375.8c-0.2,2.2-0.1,4.4,0.1,6.5c-0.9,1-1.9,1.9-2.8,2.9c-0.6-2.4-0.6-4.9-0.2-7.4
	C-60,377.1-59.1,376.5-58.1,375.8 M-53.1,371.7c0.1,1.7,0.3,3.4,0.6,5c-1.3,1.3-2.5,2.5-3.7,3.7c-0.1-2.1,0-4.2,0.3-6.3
	c0.1-0.1,0.2-0.1,0.3-0.2C-54.8,373.2-53.9,372.4-53.1,371.7 M-47.6,366.6c-0.1,1.8-0.1,3.6,0,5.5c-1.1,1-2.1,2.1-3.2,3.1
	c-0.2-1.8-0.3-3.5-0.3-5.2C-49.9,368.9-48.8,367.7-47.6,366.6 M-42.7,361.6c0,1.9,0,3.8,0.1,5.8c-1,0.9-2,1.9-3,2.8
	c-0.1-2,0-3.9,0.2-5.8C-44.5,363.5-43.6,362.5-42.7,361.6 M-39.1,364.3c-0.5,0.4-1,0.8-1.5,1.3c-0.1-2,0-4.1,0-6.1
	c0.5-0.5,1-1.1,1.5-1.6V364.3z M-35.2,353.8c0,2.3,0.1,4.6,0.1,6.8c-0.7,0.6-1.3,1.2-2,1.8v-6.6C-36.5,355.1-35.8,354.5-35.2,353.8
	 M-28.3,353.1c-0.2,1.4-0.1,2.9-0.2,4.2c-0.1,1.1-0.1,2.3-0.2,3.5c-0.2-0.2-0.4-0.4-0.6-0.6c-0.2-0.3-0.5-0.4-0.8-0.6
	c-0.1-2.9-0.1-5.8-0.2-8.7L-28.3,353.1z M-21.6,360.1c-0.5,2.6-0.6,5.1-0.2,7.6c-1.7-1.7-3.3-3.3-5-5c0-0.7,0.1-1.4,0.1-2.1
	c0.1-1.2-0.1-3.7,0.1-5.8L-21.6,360.1z M-15.3,374.1c-1.3-1.3-2.6-2.6-3.9-3.9c-0.8-2.7-1-5.5-0.7-8.3l4.3,4.5
	c0,0.1-0.1,0.3-0.1,0.4c-0.3,1.5,0.2,3.4,0.3,4.9L-15.3,374.1z M-9.3,373L-9.3,373c0.3,2.6,0.6,5.3,1,8c-1.6-1.6-3.2-3.1-4.8-4.7
	c-0.1-1.4-0.2-2.7-0.3-4.1l-0.2-3c-0.1-0.3-0.1-0.5-0.1-0.8l2.6,2.7C-10.5,371.7-9.9,372.4-9.3,373 M-7,375.3c1.4,1.5,2.8,3,4.1,4.5
	c-0.3,0.1-0.6,0.4-0.6,0.8c-0.1,1.6-0.2,3.3-0.2,4.9c-0.8-0.8-1.6-1.6-2.4-2.4C-6.4,380.5-6.7,377.9-7,375.3 M-0.3,382.5
	c0.2,0.1,0.3,0.3,0.4,0.5c-0.1,1.9-0.3,3.9-0.4,5.9l-1.4-1.4c0-2.1,0-4.2,0.2-6.3C-1.1,381.6-0.7,382.1-0.3,382.5 M7.7,384.7
	c1.4-1.5,2.9-3,4.5-4.4c-0.2,3.1-0.3,6.3-0.2,9.5c-0.1,0.1-0.1,0.1-0.1,0.1c-0.1,0.1-0.2,0.2-0.3,0.3c-1,1-1.9,2-2.8,3
	C8.8,390.3,8.7,387.2,7.7,384.7 M14.2,378c1-1,2-2,2.9-3c-0.3,3.2-0.4,6.3-0.2,9.5c-1.1,1.1-2.1,2.1-3.1,3.2
	C13.8,384.4,13.9,381.2,14.2,378 M21.4,370.6c-0.2,3.1-0.2,6.2,0.2,9.2c-0.9,0.9-1.8,1.8-2.7,2.7c-0.1-3.3,0.1-6.6,0.6-9.9
	C20.1,371.9,20.8,371.3,21.4,370.6 M23.6,368.4c1.4-1.5,2.8-2.9,4.2-4.3c-0.5,3.4-0.6,6.8-0.5,10.3c-1.3,1.2-2.6,2.5-3.9,3.7
	C23.2,374.8,23.2,371.6,23.6,368.4 M30.2,361.6c1.3-1.3,2.6-2.6,3.9-3.8c-0.2,3.6-0.5,7.3-0.6,11c-1.4,1.2-2.9,2.5-4.3,3.8
	C29.2,368.9,29.5,365.2,30.2,361.6 M36.4,355.7c1.6-1.5,3.2-2.8,4.9-4l-1.5,11.8c-1.4,1.1-2.8,2.3-4.2,3.5
	C35.8,363.2,36.1,359.5,36.4,355.7 M43.5,350.1c1.7-1.1,3.5-2.1,5.2-2.9c-0.6,3.2-0.9,6.5-1,9.8c-0.1,0.1-0.3,0.2-0.4,0.3
	c-1.8,1.4-3.5,2.8-5.3,4.2C42.5,357.7,43,353.9,43.5,350.1 M49.5,365c10.2,11.5,20.3,23,30.4,34.7c-12.1,13.3-23.9,27-35.4,41
	c-2.1,2.6-0.2,5.9,2.2,6.4c10.5,9.2,21.1,18.5,31.6,27.7c-10.7,14.7-23.8,27.5-38.8,37.8c-10-11.2-20.1-22.5-30.1-33.7
	c-1.4-1.5-3.8-1.3-5.2,0c-13.7,12.4-27.9,24.3-42.6,35.5c-9.1-11.3-18.3-22.5-27.4-33.7c7.2-5.1,14.1-10.6,20.5-16.6
	c4.9-4.5,14.2-11.2,14.1-18.7c0-3.2-1.8-5.5-3.8-7.8c-3.7-4.2-7.7-8.2-11.5-12.3c-6.9-7.4-13.7-14.7-20.6-22.1
	c10.8-12.6,22.5-24.4,35-35.4l36.2,35.8c1.3,1.3,3.9,1.5,5.2,0C21.4,389.4,34.9,376.6,49.5,365 M-40.6,442.6c1.4,2.6,1.1,4.5,0,6.2
	V442.6 M58.5,439.8c-0.6-0.4-1.6-0.1-1.6,0.8v5.5c-1.4-1.3-2.9-2.5-4.3-3.8c1.2-1.5,2.5-2.9,3.7-4.4C57,438.6,57.7,439.2,58.5,439.8
	 M53.3,350.5c0.9,1.4,1.8,2.8,2.6,4.2l0,0c-0.1,2.1-0.2,4.3-0.1,6.4c-1-1.2-2-2.3-3-3.5C52.8,355.2,53,352.8,53.3,350.5 M57.9,357.5
	c0.8,1.2,1.7,2.4,2.5,3.6c-0.1,0.2-0.1,0.5-0.1,0.7c0,1.4,0,2.9,0,4.3c-0.8-0.9-1.6-1.8-2.4-2.7C57.8,361.5,57.9,359.2,57.9,357.5
	 M62.2,363.5c1.2,1.7,2.5,3.4,3.8,5.1c-0.3,1.1-0.5,2.2-0.6,3.3c-1-1.1-2-2.3-3-3.4c0-0.6,0-1.2,0-1.8S62.2,364.8,62.2,363.5
	 M67.6,370.7c1.4,1.8,2.9,3.6,4.4,5.4c-0.2,1-0.3,1.9-0.3,2.9c-1.5-1.6-2.9-3.3-4.4-5C67.3,372.9,67.4,371.8,67.6,370.7 M77.5,382.6
	c0.1,0.1,0.2,0.3,0.3,0.5c0,0-0.1,0.1-0.1,0.2c-0.2,0.7-0.3,1.5-0.4,2.2c-1.1-1.3-2.3-2.6-3.4-3.9c-0.2-1.1-0.3-2.3-0.2-3.4
	C75,379.7,76.2,381.2,77.5,382.6 M79.5,384.7c1.2,1.3,2.6,2.8,3.8,4.3l-0.5,2.3c0,0.1,0,0.3,0,0.4c-1.1-1.3-2.3-2.6-3.4-3.9
	C79.3,386.8,79.3,385.7,79.5,384.7 M84.8,391.5c0.6,1.2,1,2.4,0.9,3.6c-0.8-0.8-1.5-1.7-2.3-2.6c0.5,0.2,1.2,0.1,1.3-0.6L84.8,391.5
	"/>
</svg>
