<?xml version="1.0" encoding="utf-8"?>
<!-- Generator: Adobe Illustrator 19.0.0, SVG Export Plug-In . SVG Version: 6.00 Build 0)  -->
<svg version="1.2" baseProfile="tiny" id="Layer_1" xmlns="http://www.w3.org/2000/svg" xmlns:xlink="http://www.w3.org/1999/xlink"
	 x="0px" y="0px" viewBox="-140 267.1 313.8 307.8" xml:space="preserve">
<g>
	<path fill="#FFFFFF" d="M177.6,406v8C177.6,411.3,177.6,408.7,177.6,406z"/>
	<path fill="#FFFFFF" d="M-47.1,546.3c-0.5-0.4-0.8-0.8-0.9-1.3c-0.4-0.1-0.9-0.3-1.3-0.5c1.9,2,3.9,3.9,5.8,5.8
		c-0.9-1.2-1.8-2.5-2.8-3.7C-46.6,546.5-46.9,546.5-47.1,546.3z"/>
	<path fill="#FFFFFF" d="M-42.6,547.2c2.4,3.1,4.6,6.3,6.7,9.7c1.3,0.7,2.7,1.3,4.2,1.9c-3.2-3.4-6.2-7.1-8.9-10.9
		C-41.3,547.7-41.9,547.4-42.6,547.2z"/>
	<path fill="#FFFFFF" d="M-25.5,552.4c4.9,4.4,9.9,8.9,14.7,13.5c0.7,0.1,1.3,0.3,2,0.4c-4.1-4.3-8.1-8.7-12.2-13
		C-22.5,553.1-24,552.7-25.5,552.4z"/>
	<path fill="#FFFFFF" d="M-17,564.2c0.5,0.2,1,0.3,1.5,0.4c-2.3-2.2-4.7-4.4-7.1-6.6L-17,564.2z"/>
	<path fill="#FFFFFF" d="M-36.5,549.3c3.1,4.2,6.5,8.1,10.3,11.8c1.6,0.6,3.1,1.2,4.7,1.6c-3.8-4.1-7.5-8.2-11.2-12.3
		C-34,550.1-35.2,549.7-36.5,549.3z"/>
	<path fill="#FFFFFF" d="M165.4,381.7c-0.7-1.2-1.4-2.4-2.1-3.6c-0.2,0.1-0.5,0.2-0.7,0.2c0.9,1.5,1.9,2.9,2.9,4.4
		C165.5,382.4,165.4,382,165.4,381.7z"/>
	<path fill="#FFFFFF" d="M166.1,388.1c-3.2-4.3-6.2-8.8-9-13.4c0,0.4,0,0.9,0,1.3c3,4.5,6,8.8,9.1,13.1
		C166.2,388.7,166.1,388.4,166.1,388.1z"/>
	<path fill="#FFFFFF" d="M156.5,402.8c0.2,0.1,0.4,0.2,0.5,0.4c3.4,6,6.8,12.1,10,18.2c0.2-3.5,0.3-7.1,0.3-10.6
		c-3.5-5.9-7.1-11.8-10.7-17.7C156.6,396.4,156.6,399.6,156.5,402.8z"/>
	<path fill="#FFFFFF" d="M160.2,373.7c-0.1,0-0.3,0-0.5,0.1c0.2,0.3,0.4,0.7,0.6,1C160.3,374.4,160.2,374.1,160.2,373.7z"/>
	<path fill="#FFFFFF" d="M-17.1,554c4.1,4.3,8.2,8.7,12.3,13.1c1.2,0.3,2.3,0.5,3.5,0.7c-4-4.4-8.1-8.8-12.1-13.2
		C-14.7,554.4-15.9,554.2-17.1,554z"/>
	<path fill="#FFFFFF" d="M158.1,390.8c0.1,0,0.2,0.1,0.3,0.2c3,4.9,5.9,9.7,8.9,14.6c-0.1-2.5-0.2-4.9-0.4-7.3
		c-3.2-4.1-6.1-8.4-8.8-12.8C158.1,387.2,158.1,389,158.1,390.8z"/>
	<path fill="#FFFFFF" d="M152.3,437.2c-0.9,4-1.9,7.9-3,11.7c4.5,6.3,6,13.9,8.3,21.2c1.7-4.6,3.1-9.4,4.3-14.4
		c-1.5-2.5-2.6-5.7-3.8-7.8C156.2,444.3,154.2,440.8,152.3,437.2z"/>
	<path fill="#FFFFFF" d="M111.4,511.4c0.6,0,1,0.2,1.2,0.5c2.5,5.1,5.2,10.1,8.2,15c3.5-3.4,6.8-6.9,9.9-10.6
		c-3.2-5.2-6.4-10.3-9.6-15.4C118,504.6,114.8,508.1,111.4,511.4z"/>
	<path fill="#FFFFFF" d="M98.9,522.6c0.1,0.1,0.2,0.2,0.3,0.3c2.4,5.3,5.2,10.5,8.4,15.4c1.1-0.9,2.2-1.7,3.3-2.6
		c2.7-2.2,5.3-4.6,7.9-6.9c-3.2-5.1-6.2-10.4-8.8-15.9C106.5,516.3,102.8,519.5,98.9,522.6z"/>
	<path fill="#FFFFFF" d="M86.4,531.5c3.1,5,6.2,10.1,9.3,15.1c3.3-2.1,6.6-4.4,9.7-6.7c-3.3-5-6.2-10.3-8.7-15.7
		C93.4,526.8,89.9,529.2,86.4,531.5z"/>
	<path fill="#FFFFFF" d="M122.9,498.8c3.2,5.1,6.4,10.2,9.6,15.4c3.3-4,6.3-8.1,9.1-12.3c-3.1-5.1-6.5-10-10.2-14.7
		C128.7,491.2,125.9,495.1,122.9,498.8z"/>
	<path fill="#FFFFFF" d="M142.7,466.7c2.7,6.3,5.5,12.6,8.4,18.8c1.8-3.7,3.5-7.4,4.9-11.2c-2.8-7.3-4-15.2-7.8-22
		C146.6,457.2,144.8,462,142.7,466.7z"/>
	<path fill="#FFFFFF" d="M153.1,433.4c0.2,0.1,0.3,0.2,0.4,0.3c2.2,4.1,4.4,8.1,6.6,12.2c0.9,1.7,1.9,3.5,2.8,5.2
		c0,0.1,0.1,0.1,0.1,0.2c0.7-3.4,1.4-6.9,1.9-10.4c-3.9-5.9-7.3-12.1-10-18.6C154.4,426,153.8,429.7,153.1,433.4z"/>
	<path fill="#FFFFFF" d="M-9.7,555c4.1,4.4,8.1,8.9,12.2,13.3c0.9,0.1,1.8,0.2,2.6,0.3c-3.3-4.2-6.3-8.6-9.1-13.1
		C-5.9,555.4-7.8,555.2-9.7,555z"/>
	<path fill="#FFFFFF" d="M155.6,416.3c2.6,7.3,5.9,14.2,9.9,20.7c0.5-3.5,0.9-6.9,1.2-10.4c-3.4-6.5-6.8-12.9-10.4-19.2
		C156.1,410.4,155.9,413.4,155.6,416.3z"/>
	<path fill="#FFFFFF" d="M84.3,533c-1.4,0.9-2.7,1.7-4.1,2.5c-2.7,1.5-5.3,2.9-8,4.3c0.5,0,1,0.1,1.2,0.4c3.6,4.3,6.9,8.8,10.1,13.4
		c3.6-1.9,7.2-3.9,10.8-6c-0.6,0-1.2-0.2-1.4-0.5C90,542.4,87.2,537.7,84.3,533z"/>
	<path fill="#FFFFFF" d="M136.8,478.5c-1.2,2.1-2.5,4.3-3.9,6.4c3.7,4.7,7.2,9.5,10.4,14.5c2.2-3.5,4.3-7.1,6.2-10.8
		c-2.9-6.1-5.6-12.3-8.3-18.5C139.8,472.9,138.4,475.7,136.8,478.5z"/>
	<path fill="#FFFFFF" d="M14.9,555.6c3.3,4.8,7,9.4,11,13.6c1.3,0,2.7-0.1,4-0.2c-4.1-4.4-7.9-9-11.5-13.7
		C17.3,555.4,16.1,555.5,14.9,555.6z"/>
	<path fill="#FFFFFF" d="M4.1,555.8c3.8,4.5,7.7,9,11.5,13.5c2.4,0.1,4.7,0.1,7.1,0c-3.9-4.2-7.6-8.8-10.8-13.6
		C9.3,555.8,6.7,555.8,4.1,555.8z"/>
	<path fill="#FFFFFF" d="M42.2,566.8c-2.7-4.8-5.7-9.3-9-13.6c-3.9,0.8-7.8,1.4-11.7,1.8c3.6,4.8,7.4,9.3,11.5,13.7
		c3.3-0.4,6.6-0.8,10-1.4C42.6,567.2,42.3,567,42.2,566.8z"/>
	<path fill="#FFFFFF" d="M-0.8,555.7c2.9,4.6,6,9,9.4,13.2c1.2,0.1,2.4,0.2,3.7,0.3c-3.9-4.5-7.7-8.9-11.5-13.4
		C0.2,555.8-0.3,555.7-0.8,555.7z"/>
	<path fill="#FFFFFF" d="M60.1,545.3c2.6,4.8,5,10.5,8.5,14.9c4.2-1.6,8.4-3.5,12.5-5.4c-3.4-4.9-6.9-9.6-10.6-14.2
		C67.1,542.3,63.6,543.9,60.1,545.3z"/>
	<path fill="#FFFFFF" d="M48.1,549.4c0.8,0.9,1.4,2.1,2.1,3.2l6.3,10.8c0.5,0.9-2.4,1.3-2.9,0.4l-4.5-7.7c-0.9-1.4-2-4.3-3.5-5.9
		c-3.2,0.9-6.5,1.7-9.7,2.4c3.4,4.4,6.4,9,9.1,13.8c0.1,0.2,0.1,0.4,0,0.5c7.2-1.4,14.2-3.3,21.2-6c-3.6-4.3-6-9.9-8.6-14.8
		C54.4,547.3,51.3,548.4,48.1,549.4z"/>
</g>
<path fill="#FFCC2B" stroke="#FFCD2D" stroke-miterlimit="10" d="M91,517.2c19.3-16,34.8-37,43.8-61.2c11.6-31.6,13-69.5,6-102.4
	c-6.7-31.3-26.7-54.7-54.1-68c-27.9-13.4-59.1-14.5-89.4-13.4c3.9,0.1,7.9,0.4,11.8,0.9c6.9,0.9,2,5.7-2.7,5.1
	c-32.3-4-65,7.4-89.9,29.1c-24.8,21.7-40,53.3-43.6,87c-6.3,59.1,24.3,115.7,74.6,142.1C-5.4,561.1,50.3,551,91,517.2z"/>
<path d="M99.8,294c1.7,0.6,3.4,1.3,5.1,2c-1.6-2.9-3.3-5.8-4.9-8.7c-2.3-0.7-4.5-1.4-6.8-2C95.6,288.1,97.7,291,99.8,294"/>
<path d="M103.9,288.5c2.2,3.3,4.4,6.6,6.6,9.9c0.5,0.2,1,0.5,1.5,0.7c0.9,0.4,1.8,0.9,2.7,1.3c-1.8-3.4-3.7-6.7-5.5-10
	C107.5,289.8,105.7,289.1,103.9,288.5"/>
<path d="M175.6,389.5c-1.7-20.1-6.1-40.6-17.2-57.5c-9.5-14.4-22.6-25.7-37.3-34.1c-1.7-1-3.5-1.9-5.3-2.8c-4.2-3.3-8.7-6.3-13.3-9
	C67.9,266,27,265.4-11.4,267.3c-5.2,0.3-6,4.2-2.2,5.1c-51.9,3.3-99.7,38.6-116.8,91.9c-13.2,41.2-7.3,84.9,13.2,120.2
	c10.9,25.3,28.7,47.7,52.1,63.8c18.9,13.1,39.9,21.1,61.5,24.4c0.1,0.1,0.2,0.2,0.2,0.2c0.4,0.4,1.6,0.4,2.3,0.1
	c33.1,4.4,67.4-2.3,97.5-19.7c24.1-13.9,45.1-33.9,59.3-58.4C173.9,463.4,178.6,425.7,175.6,389.5 M166.1,405.1
	c-3-4.9-5.9-9.7-8.9-14.6c-0.1-0.1-0.2-0.2-0.3-0.2c0-1.8,0-3.6,0-5.3c2.7,4.4,5.6,8.7,8.8,12.8C165.9,400.2,166,402.6,166.1,405.1
	 M162.1,377.6c0.7,1.2,1.4,2.4,2.1,3.6c0,0.3,0.1,0.7,0.1,1c-1-1.5-2-2.9-2.9-4.4C161.6,377.8,161.9,377.7,162.1,377.6 M159,373.2
	c0,0.4,0.1,0.7,0.1,1.1c-0.2-0.3-0.4-0.7-0.6-1C158.7,373.2,158.9,373.2,159,373.2 M164.9,387.6c0,0.3,0.1,0.6,0.1,1
	c-3.1-4.3-6.1-8.6-9.1-13.1l0,0c0-0.4,0-0.9,0-1.3C158.7,378.8,161.7,383.3,164.9,387.6 M148.6,340.7c0.3,0.5,0.6,1.1,0.9,1.6
	c-0.5-0.6-0.9-1.2-1.4-1.8c-0.1-0.3-0.2-0.5-0.3-0.8C148.1,340.1,148.3,340.4,148.6,340.7 M-126.5,394.3c3.6-33.6,18.8-65.3,43.6-87
	C-58,285.5-25.3,274.2,7,278.2c4.7,0.6,9.6-4.2,2.7-5.1c-3.9-0.5-7.9-0.8-11.8-0.9c30.3-1.1,61.5,0,89.3,13.5
	c27.4,13.3,47.4,36.7,54.1,68c7,32.9,5.6,70.8-6,102.4c-8.9,24.2-24.5,45.2-43.8,61.2C50.8,551.1-4.8,561.2-52,536.5
	C-102.2,510-132.8,453.4-126.5,394.3 M-50.5,544c0.4,0.2,0.9,0.4,1.3,0.5c0.1,0.5,0.4,0.9,0.9,1.3c0.2,0.2,0.5,0.2,0.8,0.3
	c1,1.2,1.9,2.5,2.8,3.7C-46.6,547.9-48.6,546-50.5,544 M-37.1,556.4c-2.1-3.4-4.3-6.6-6.7-9.7c0.7,0.2,1.3,0.5,2,0.7
	c2.7,3.8,5.7,7.5,8.9,10.9C-34.4,557.7-35.8,557.1-37.1,556.4 M-27.4,560.6c-3.8-3.7-7.2-7.6-10.3-11.8c1.3,0.4,2.5,0.8,3.8,1.1
	c3.7,4.1,7.4,8.2,11.2,12.3C-24.3,561.8-25.8,561.2-27.4,560.6 M-18.2,563.7l-5.6-6.2c2.4,2.2,4.8,4.4,7.1,6.6
	C-17.2,564-17.7,563.9-18.2,563.7 M-12,565.4c-4.8-4.6-9.8-9.1-14.7-13.5c1.5,0.3,3,0.7,4.5,0.9c4.1,4.3,8.1,8.7,12.2,13
	C-10.7,565.7-11.3,565.5-12,565.4 M-6,566.6c-4.1-4.4-8.2-8.8-12.3-13.1c1.2,0.2,2.4,0.4,3.7,0.6c4,4.4,8.1,8.8,12.1,13.2
	C-3.7,567.1-4.8,566.9-6,566.6 M1.3,567.8c-4.1-4.4-8.1-8.9-12.2-13.3c1.9,0.2,3.8,0.4,5.7,0.5c2.8,4.5,5.8,8.9,9.1,13.1
	C3.1,568,2.2,567.9,1.3,567.8 M7.4,568.4c-3.4-4.2-6.5-8.6-9.4-13.2c0.5,0,1,0.1,1.6,0.1c3.8,4.5,7.6,8.9,11.5,13.4
	C9.8,568.6,8.6,568.5,7.4,568.4 M14.4,568.8c-3.8-4.5-7.7-9-11.5-13.5c2.6,0,5.2,0,7.8-0.1c3.2,4.8,6.9,9.4,10.8,13.6
	C19.1,568.9,16.8,568.9,14.4,568.8 M24.7,568.7c-4-4.2-7.7-8.8-11-13.6c1.2-0.1,2.4-0.2,3.5-0.3c3.6,4.7,7.4,9.3,11.5,13.7
	C27.4,568.6,26,568.7,24.7,568.7 M31.8,568.2c-4.1-4.4-7.9-8.9-11.5-13.7c3.9-0.4,7.8-1,11.7-1.8c3.3,4.3,6.3,8.8,9,13.6
	c0.1,0.2,0.4,0.4,0.8,0.5C38.4,567.4,35.1,567.8,31.8,568.2 M43.8,566.4c0.1-0.1,0.1-0.3,0-0.5c-2.7-4.8-5.7-9.4-9.1-13.8
	c3.2-0.7,6.5-1.5,9.7-2.4c1.5,1.6,2.6,4.5,3.5,5.9l4.5,7.7c0.5,0.9,3.4,0.5,2.9-0.4L49,552.1c-0.7-1.1-1.3-2.3-2.1-3.2
	c3.2-1,6.3-2.1,9.5-3.3c2.6,4.9,5,10.5,8.6,14.8C58,563.1,51,565,43.8,566.4 M67.4,559.7c-3.5-4.4-5.9-10.1-8.5-14.9
	c3.5-1.4,7-3,10.4-4.7c3.7,4.6,7.2,9.3,10.6,14.2C75.8,556.2,71.6,558.1,67.4,559.7 M82.3,553.1c-3.2-4.6-6.5-9.1-10.1-13.4
	c-0.2-0.3-0.7-0.4-1.2-0.4c2.7-1.4,5.3-2.8,8-4.3c1.4-0.8,2.7-1.6,4.1-2.5c2.9,4.7,5.7,9.4,8.6,14.1c0.2,0.3,0.8,0.5,1.4,0.5
	C89.5,549.2,85.9,551.2,82.3,553.1 M94.5,546.1c-3.1-5-6.2-10.1-9.3-15.1c3.5-2.3,7-4.7,10.3-7.3c2.5,5.4,5.4,10.7,8.7,15.7
	C101.1,541.7,97.8,544,94.5,546.1 M109.7,535.2c-1.1,0.9-2.2,1.7-3.3,2.6c-3.2-4.9-6-10.1-8.4-15.4c-0.1-0.1-0.2-0.2-0.3-0.3
	c3.9-3.1,7.6-6.3,11.1-9.7c2.6,5.5,5.6,10.8,8.8,15.9C115,530.6,112.4,533,109.7,535.2 M119.6,526.4c-3-4.9-5.7-9.9-8.2-15
	c-0.2-0.3-0.6-0.5-1.2-0.5c3.4-3.3,6.6-6.8,9.7-10.5c3.2,5.1,6.4,10.2,9.6,15.4C126.4,519.5,123.1,523,119.6,526.4 M131.3,513.7
	c-3.2-5.2-6.4-10.3-9.6-15.4c3-3.7,5.8-7.6,8.5-11.6c3.7,4.7,7.1,9.6,10.2,14.7C137.6,505.6,134.6,509.7,131.3,513.7 M142.1,498.9
	c-3.2-5-6.7-9.8-10.4-14.5c1.4-2.1,2.7-4.3,3.9-6.4c1.6-2.8,3-5.6,4.4-8.4c2.7,6.2,5.4,12.4,8.3,18.5
	C146.4,491.8,144.3,495.4,142.1,498.9 M149.9,485c-2.9-6.2-5.7-12.5-8.4-18.8c2.1-4.7,3.9-9.5,5.5-14.4c3.8,6.8,5,14.7,7.8,22
	C153.4,477.6,151.7,481.3,149.9,485 M156.4,469.6c-2.3-7.3-3.8-14.9-8.3-21.2c1.1-3.8,2.1-7.7,3-11.7c1.9,3.6,3.9,7.1,5.8,10.7
	c1.2,2.1,2.3,5.3,3.8,7.8C159.5,460.2,158.1,465,156.4,469.6 M161.8,450.8c0-0.1-0.1-0.1-0.1-0.2c-0.9-1.7-1.9-3.5-2.8-5.2
	c-2.2-4.1-4.4-8.1-6.6-12.2c-0.1-0.1-0.2-0.2-0.4-0.3c0.7-3.7,1.3-7.4,1.8-11.1c2.7,6.5,6.1,12.7,10,18.6
	C163.2,443.9,162.5,447.4,161.8,450.8 M164.3,436.5c-4-6.5-7.3-13.4-9.9-20.7c0.3-2.9,0.5-5.9,0.7-8.9c3.6,6.3,7,12.7,10.4,19.2
	C165.2,429.6,164.8,433,164.3,436.5 M165.8,420.9c-3.2-6.1-6.6-12.2-10-18.2c-0.1-0.2-0.3-0.3-0.5-0.4c0.1-3.2,0.1-6.4,0.1-9.7
	c3.6,5.9,7.2,11.8,10.7,17.7C166.1,413.8,166,417.4,165.8,420.9"/>
<path d="M-126.9,462.2c4.8,5.7,9.8,11.3,15,16.5c-0.2-0.6-0.4-1.1-0.5-1.7c-1-1.3-2.1-2.6-3.1-3.9c-2.8-3.1-5.7-6.2-8.5-9.3
	c-1-1-2.1-1.9-3.1-2.8C-127,461.3-127,461.8-126.9,462.2"/>
<rect x="-137.4" y="266.6" fill="none" width="313.8" height="307.8"/>
<g>
	<path fill="#FFFFFF" stroke="#FFFFFF" stroke-width="2" stroke-miterlimit="10" d="M-43.7,476.9c0.9,0.9,1.8,1.9,2.7,2.8
		c0-1.9,0-3.9,0.1-5.8c-1-0.9-2-1.9-3-2.8C-44,473-43.9,475-43.7,476.9z"/>
	<path fill="#FFFFFF" stroke="#FFFFFF" stroke-width="2" stroke-miterlimit="10" d="M-49.1,466.2c-0.2,1.7-0.4,3.4-0.3,5.2
		c1.2,1.1,2.4,2.2,3.5,3.4c-0.1-1.8-0.1-3.6,0-5.5C-46.9,468.3-48,467.2-49.1,466.2z"/>
	<path fill="#FFFFFF" stroke="#FFFFFF" stroke-width="2" stroke-miterlimit="10" d="M-54.2,467.1c0.1,0.1,0.2,0.1,0.3,0.2
		c0.9,0.7,1.7,1.5,2.5,2.2c0.1-1.7,0.3-3.4,0.6-5.1c-1.2-1.2-2.5-2.4-3.7-3.7C-54.6,462.9-54.5,465-54.2,467.1z"/>
	<path fill="#FFFFFF" stroke="#FFFFFF" stroke-width="2" stroke-miterlimit="10" d="M-59.1,456c-0.5,2.4-0.6,4.9-0.2,7.4
		c1,0.7,2,1.3,2.9,2c-0.2-2.2-0.2-4.3,0.1-6.5C-57.2,458-58.2,457-59.1,456z"/>
	<path fill="#FFFFFF" stroke="#FFFFFF" stroke-width="2" stroke-miterlimit="10" d="M-66,448.6c0,0.1-0.1,0.1-0.2,0.2
		c0.4,3.6,0.9,7.2,1.4,10.8c1.1,0.8,2.2,1.6,3.3,2.3c-0.2-2.6,0-5.2,0.7-7.7C-62.5,452.4-64.3,450.5-66,448.6z"/>
	<path fill="#FFFFFF" stroke="#FFFFFF" stroke-width="2" stroke-miterlimit="10" d="M-38.9,481.8c0.5,0.5,1,1.1,1.5,1.6v-6.3
		c-0.5-0.5-1-0.9-1.5-1.3C-39,477.7-39,479.8-38.9,481.8z"/>
	<path fill="#FFFFFF" stroke="#FFFFFF" stroke-width="2" stroke-miterlimit="10" d="M-20.1,473.7c-1.7,1.7-3.3,3.3-5,5
		c0,0.7,0.1,1.4,0.1,2.1c0.1,1.2-0.1,3.7,0.1,5.8l5-5.3C-20.4,478.7-20.4,476.2-20.1,473.7z"/>
	<path fill="#FFFFFF" stroke="#FFFFFF" stroke-width="2" stroke-miterlimit="10" d="M-35.4,485.5c0.6,0.7,1.3,1.3,1.9,2
		c0-2.3,0.1-4.6,0.1-6.8c-0.7-0.6-1.4-1.2-2-1.8V485.5z"/>
	<path fill="#FFFFFF" stroke="#FFFFFF" stroke-width="2" stroke-miterlimit="10" d="M-18.2,479.4l4.3-4.5c-0.1-0.1-0.1-0.3-0.1-0.4
		c-0.3-1.5,0.2-3.4,0.3-4.9l0.2-2.4c-1.3,1.3-2.6,2.6-3.9,3.9C-18.3,473.9-18.5,476.7-18.2,479.4z"/>
	<path fill="#FFFFFF" stroke="#FFFFFF" stroke-width="2" stroke-miterlimit="10" d="M-27,480.5c-0.2,0.2-0.4,0.4-0.6,0.6
		s-0.5,0.4-0.8,0.6c-0.1,2.9-0.1,5.8-0.2,8.7l2-2.1c-0.3-1.4-0.1-2.9-0.2-4.2C-26.9,482.9-26.9,481.7-27,480.5z"/>
	<path fill="#FFFFFF" stroke="#FFFFFF" stroke-width="2" stroke-miterlimit="10" d="M-49.4,382c-0.3,3-0.2,5.9,0.1,8.9
		c1.3,1.1,2.7,2.2,4,3.3c-0.2-2.7-0.2-5.5,0.1-8.2C-46.6,384.6-48,383.3-49.4,382z"/>
	<path fill="#FFFFFF" stroke="#FFFFFF" stroke-width="2" stroke-miterlimit="10" d="M72.8,391.4c1.1-0.9,2.3-1.7,3.4-2.6
		c0.1-0.1,0.3-0.2,0.4-0.3c0.1-3.3,0.4-6.6,0.9-9.9c-1.5,1.3-3.1,2.7-4.6,4C72.4,385.6,72.4,388.5,72.8,391.4z"/>
	<path fill="#FFFFFF" stroke="#FFFFFF" stroke-width="2" stroke-miterlimit="10" d="M-63.7,373.3c0-0.6,0.1-2.1,0-3
		c-0.2-0.1-0.4-0.2-0.5-0.5c0-0.1-0.1-0.1-0.1-0.2c-1.2-0.9-2.4-1.8-3.6-2.6c0.4,2.5,0.9,5.1,1.5,7.6c0.6,2.8,1.4,3.7,3.3,5.2
		l-0.3-2.2C-63.5,376.2-63.6,374.7-63.7,373.3z"/>
	<path fill="#FFFFFF" stroke="#FFFFFF" stroke-width="2" stroke-miterlimit="10" d="M79.7,377c-0.5,3.3-0.9,6.6-1.1,9.9
		c2.3-1.8,4-3.6,4.9-6.2v-7.4c-1.3,1.1-2.6,2.3-3.9,3.4C79.7,376.8,79.7,376.9,79.7,377z"/>
	<path fill="#FFFFFF" stroke="#FFFFFF" stroke-width="2" stroke-miterlimit="10" d="M64.6,389.8c-1.4,1.3-2.9,2.5-4.3,3.8
		c0.1,0.2,0.2,0.3,0.2,0.6v6.5c0,0.3-0.1,0.5-0.3,0.7c1.5-1.2,3-2.5,4.6-3.7C64.5,395,64.5,392.4,64.6,389.8z"/>
	<path fill="#FFFFFF" stroke="#FFFFFF" stroke-width="2" stroke-miterlimit="10" d="M70.6,384.6c-1.3,1.1-2.5,2.2-3.8,3.3
		c-0.4,2.7-0.4,5.5-0.1,8.2c1.4-1.1,2.8-2.2,4.3-3.4C70.5,390.1,70.4,387.3,70.6,384.6z"/>
	<path fill="#FFFFFF" stroke="#FFFFFF" stroke-width="2" stroke-miterlimit="10" d="M-40.9,390.1c-0.8-0.8-1.6-1.5-2.5-2.4
		c-0.2,2.8-0.1,5.5,0.2,8.3c0.8,0.6,1.5,1.3,2.3,1.9V390.1z"/>
	<path fill="#FFFFFF" stroke="#FFFFFF" stroke-width="2" stroke-miterlimit="10" d="M-68.4,446.8c0-0.3,0.1-0.5,0.2-0.7
		c-0.3-0.4-0.7-0.7-1-1.1c-0.1,4.4,0.1,9.2,2.1,12.3c-0.4-3.2-0.8-6.3-1.2-9.5C-68.4,447.6-68.4,447.3-68.4,446.8z"/>
	<path fill="#FFFFFF" stroke="#FFFFFF" stroke-width="2" stroke-miterlimit="10" d="M-61.7,371.7c0,1,0,2.1,0,2.8l0.5,6.9
		c0.8,0.6,1.5,1.2,2.3,1.8c0.3,0.2,0.6,0.5,0.9,0.7c-0.1-3.1,0-6.2,0.1-9.2C-59.1,373.7-60.4,372.6-61.7,371.7z"/>
	<path fill="#FFFFFF" stroke="#FFFFFF" stroke-width="2" stroke-miterlimit="10" d="M-11.4,465.1c-0.1,1.4-0.2,2.7-0.3,4.1l-0.2,3
		c0,0.3,0,0.5-0.1,0.8l2.6-2.7c0.6-0.6,1.2-1.3,1.8-1.9c0,0,0,0,0-0.1c0.3-2.6,0.6-5.2,0.9-7.9C-8.2,462-9.8,463.6-11.4,465.1z"/>
	<path fill="#FFFFFF" stroke="#FFFFFF" stroke-width="2" stroke-miterlimit="10" d="M-55.9,376.3c0,1.7-0.1,3.3-0.1,5
		c0,0.6-0.2,2.4-0.2,4.1c1.6,1.2,3.1,2.5,4.7,3.8c-0.2-2.8-0.1-5.6,0.2-8.4c0-0.1,0.1-0.2,0.1-0.4c-0.4-0.3-0.7-0.6-1.1-1
		C-53.4,378.3-54.7,377.3-55.9,376.3z"/>
	<path fill="#FFFFFF" stroke="#FFFFFF" stroke-width="2" stroke-miterlimit="10" d="M18.6,456.8c-1-1.1-2.1-2.1-3.1-3.2
		c0,3.2,0.1,6.5,0.4,9.7c1,1,2,2,2.9,3C18.5,463.2,18.4,460,18.6,456.8z"/>
	<path fill="#FFFFFF" stroke="#FFFFFF" stroke-width="2" stroke-miterlimit="10" d="M57.6,480.2c-1,1.2-2,2.3-3,3.5
		c0,2.4,0.2,4.7,0.5,7.1c0.9-1.4,1.8-2.7,2.7-4.1l0,0C57.6,484.5,57.5,482.4,57.6,480.2z"/>
	<path fill="#FFFFFF" stroke="#FFFFFF" stroke-width="2" stroke-miterlimit="10" d="M64.1,472.8c0,0.6,0,1.2,0,1.8s-0.2,2-0.2,3.2
		c1.2-1.7,2.5-3.4,3.8-5.1c-0.3-1.1-0.5-2.2-0.6-3.3C66.1,470.6,65.1,471.7,64.1,472.8z"/>
	<path fill="#FFFFFF" stroke="#FFFFFF" stroke-width="2" stroke-miterlimit="10" d="M62,475.2c-0.8,0.9-1.6,1.8-2.4,2.7
		c0,1.9,0,4.2,0,5.9c0.8-1.2,1.7-2.4,2.5-3.6c0-0.2-0.1-0.5-0.1-0.7C62,478.1,62,476.6,62,475.2z"/>
	<path fill="#FFFFFF" stroke="#FFFFFF" stroke-width="2" stroke-miterlimit="10" d="M54.2,399c1.2,1.5,2.4,2.9,3.7,4.4
		c0.7-0.6,1.5-1.2,2.2-1.9c-0.6,0.4-1.6,0.1-1.6-0.8v-5.5C57.1,396.4,55.7,397.7,54.2,399z"/>
	<path fill="#FFFFFF" stroke="#FFFFFF" stroke-width="2" stroke-miterlimit="10" d="M86.5,449.4l0.1,0.4c0.6-1.2,1-2.4,1-3.7
		c-0.8,0.9-1.5,1.8-2.3,2.6C85.7,448.6,86.3,448.8,86.5,449.4z"/>
	<path fill="#FFFFFF" stroke="#FFFFFF" stroke-width="2" stroke-miterlimit="10" d="M84.5,449.6c-1.1,1.3-2.3,2.6-3.4,3.9
		c-0.2,1.1-0.1,2.1,0.1,3.1c1.3-1.3,2.7-2.8,3.8-4.3l-0.5-2.3C84.5,449.8,84.5,449.7,84.5,449.6z"/>
	<path fill="#FFFFFF" stroke="#FFFFFF" stroke-width="2" stroke-miterlimit="10" d="M69,467.3c0,1.1,0.1,2.2,0.3,3.3
		c1.4-1.8,2.9-3.7,4.4-5.5c-0.2-1-0.3-1.9-0.3-2.9C71.9,463.9,70.4,465.6,69,467.3z"/>
	<path fill="#FFFFFF" stroke="#FFFFFF" stroke-width="2" stroke-miterlimit="10" d="M-38.9,398.7c1.4-2.5,1.1-4.5,0-6.2V398.7z"/>
	<path fill="#FFFFFF" stroke="#FFFFFF" stroke-width="2" stroke-miterlimit="10" d="M79.1,455.8c-1.1,1.3-2.3,2.6-3.4,3.9
		c-0.2,1.1-0.3,2.3-0.2,3.4c1.2-1.5,2.5-2.9,3.8-4.4c0.1-0.1,0.3-0.3,0.4-0.5c0-0.1-0.1-0.1-0.1-0.2
		C79.2,457.3,79.1,456.5,79.1,455.8z"/>
	<path fill="#FFFFFF" stroke="#FFFFFF" stroke-width="2" stroke-miterlimit="10" d="M37.3,474.3c0.2,3.8,0.4,7.5,0.8,11.3
		c1.6,1.4,3.3,2.8,5,4l-1.5-11.8C40.1,476.7,38.7,475.5,37.3,474.3z"/>
	<path fill="#FFFFFF" stroke="#FFFFFF" stroke-width="2" stroke-miterlimit="10" d="M13.6,451.5C13.6,451.5,13.5,451.5,13.6,451.5
		c-0.2-0.1-0.3-0.3-0.3-0.4c-0.9-1-1.9-2-2.8-3c0,2.9-0.1,5.9-1.1,8.5c1.5,1.5,2.9,3,4.4,4.5C13.5,457.9,13.5,454.7,13.6,451.5z"/>
	<path fill="#FFFFFF" stroke="#FFFFFF" stroke-width="2" stroke-miterlimit="10" d="M0,453.8c0,2.1,0,4.2,0.2,6.3
		c0.4-0.4,0.8-0.9,1.2-1.3c0.2-0.2,0.3-0.3,0.4-0.5c-0.1-2-0.3-4-0.4-5.9L0,453.8z"/>
	<path fill="#FFFFFF" stroke="#FFFFFF" stroke-width="2" stroke-miterlimit="10" d="M46.2,400.7c-2.1-2.5-0.2-5.8,2.2-6.4
		c10.5-9.2,21.1-18.5,31.6-27.7c-10.7-14.8-23.8-27.5-38.8-37.8c-10,11.2-20.1,22.5-30.1,33.7c-1.4,1.5-3.8,1.3-5.2,0
		C-7.8,350-22,338.2-36.7,327c-9.1,11.2-18.3,22.4-27.4,33.7c7.2,5.1,14.1,10.6,20.5,16.6c4.9,4.6,14.3,11.2,14.1,18.7
		c-0.1,3.2-1.8,5.5-3.8,7.8c-3.7,4.2-7.6,8.2-11.5,12.3c-6.9,7.4-13.7,14.7-20.6,22.1c10.9,12.6,22.5,24.4,35,35.4l36.2-35.8
		c1.3-1.3,3.9-1.5,5.2,0c12.2,14.2,25.6,27,40.2,38.6c10.1-11.5,20.2-23.1,30.4-34.6C69.5,428.4,57.6,414.7,46.2,400.7z"/>
	<path fill="#FFFFFF" stroke="#FFFFFF" stroke-width="2" stroke-miterlimit="10" d="M20.5,458.8c-0.1,3.3,0.1,6.6,0.6,9.9
		c0.6,0.7,1.3,1.3,1.9,2c-0.2-3.1-0.1-6.1,0.2-9.2C22.3,460.6,21.4,459.7,20.5,458.8z"/>
	<path fill="#FFFFFF" stroke="#FFFFFF" stroke-width="2" stroke-miterlimit="10" d="M29,466.9c-1.3-1.2-2.6-2.4-3.9-3.7
		c-0.2,3.2-0.2,6.4,0.2,9.7c1.4,1.5,2.8,2.9,4.2,4.3C29,473.8,28.9,470.4,29,466.9z"/>
	<path fill="#FFFFFF" stroke="#FFFFFF" stroke-width="2" stroke-miterlimit="10" d="M49.1,484c-1.8-1.4-3.6-2.8-5.3-4.2
		c0.5,3.8,1,7.6,1.5,11.4c1.7,1.1,3.4,2.1,5.3,2.9c-0.6-3.3-0.9-6.5-1-9.8C49.4,484.2,49.3,484.1,49.1,484z"/>
	<path fill="#FFFFFF" stroke="#FFFFFF" stroke-width="2" stroke-miterlimit="10" d="M-1.7,460.7c-0.1-1.6-0.2-3.3-0.2-4.9
		c-0.8,0.8-1.6,1.6-2.4,2.4c-0.3,2.6-0.6,5.2-0.9,7.8c1.4-1.5,2.8-2.9,4.2-4.4C-1.4,461.4-1.7,461.1-1.7,460.7z"/>
	<path fill="#FFFFFF" stroke="#FFFFFF" stroke-width="2" stroke-miterlimit="10" d="M31,468.7c0,3.7,0.3,7.3,1,11
		c1.3,1.3,2.6,2.6,4,3.9c-0.3-3.7-0.5-7.4-0.6-11C33.8,471.3,32.4,470,31,468.7z"/>
</g>
<path d="M92.1,441.6c-0.3-0.7-0.8-1-1.4-1.2c-0.2-0.4-0.4-0.7-0.7-1.1c-9.6-10.5-18.9-21.1-28-31.9c7.7-6.3,16.2-11.8,23.4-18.5
	c4.9-4.6,5.1-11,4.8-17.4c0.7-0.9,1-2.1,0.4-3.4c2-2.6-0.9-6-3.8-5.6c-12.2-16.6-27-30.7-44.2-41.9c-2.6-1.7-5,0.4-5.3,2.8
	c-9.4,10.5-18.8,21.1-28.2,31.6c-14-12.6-28.6-24.6-43.7-36c-1.2-0.9-3.5-0.5-4.4,0.6c-10.8,13.2-21.5,26.3-32.2,39.5
	c-0.2,0.2-0.4,0.5-0.5,0.8c-0.9,0.5-1.5,1.5-1.3,2.7c0.9,5.1,1.5,10.4,2.8,15.4c0.9,3.2,2.9,4.5,5.5,6.5
	c7.9,6.1,15.6,12.4,23.2,18.9l0.1,0.1c-4.1,4.8-9.3,9.3-13.4,13.8c-5.7,6.2-11.5,12.3-17.2,18.5c-0.8,0.9-1.1,2-1,3.1
	c0,0.1,0,0.1,0,0.2c-0.1,6-0.4,12.8,1.2,18.7c1.4,5,6.4,6.8,10.3,9.6c4.1,2.9,7.9,6.2,11.5,9.6c0,0.3,0.1,0.6,0.1,1
	c0.1,0.8,0.9,0.9,1.4,0.5c1.6,1.5,3.1,3.1,4.6,4.7c0.1,0.3,0.1,0.5,0.2,0.8c0.1,0.6,0.7,0.8,1.2,0.7c0.9,1,1.8,2,2.8,2.9
	c0,0.2,0,0.4,0,0.6c0.1,0.8,0.8,1.1,1.4,0.9c2.1,2.3,4.2,4.5,6.4,6.7c0.5,0.5,1.1,0.7,1.7,0.7c0.8,1.2,2.5,1.8,3.8,0.5l25.7-27
	c2.6-2.7,5.9-5.5,8.4-8.5c7.7,8,15.4,16,23.3,23.9c6.6,6.6,13.8,12.6,22.9,15.5c1.1,0.3,2.3-0.2,2.8-1.1c7-11.5,14.9-22.5,23.6-32.9
	C85.6,460,97.2,451.1,92.1,441.6 M61.2,401.5c0.2-0.2,0.3-0.4,0.3-0.7v-6.5c0-0.3-0.1-0.4-0.2-0.6c1.4-1.3,2.9-2.5,4.3-3.8
	c-0.2,2.6-0.1,5.2,0.2,7.8C64.3,399.1,62.7,400.3,61.2,401.5 M67.6,396.4c-0.3-2.8-0.2-5.5,0.1-8.2c1.3-1.1,2.5-2.2,3.8-3.3
	c-0.2,2.7-0.1,5.5,0.3,8.2C70.5,394.1,69,395.2,67.6,396.4 M77.5,388.7c-0.1,0.1-0.3,0.2-0.4,0.3c-1.1,0.9-2.3,1.7-3.4,2.6
	c-0.4-2.9-0.4-5.8,0.1-8.8c1.5-1.3,3.1-2.7,4.6-4C77.9,382.1,77.6,385.4,77.5,388.7 M79.6,387.1c0.2-3.3,0.5-6.6,1.1-9.9
	c0-0.1,0-0.2,0-0.3c1.3-1.1,2.6-2.3,3.9-3.4v7.4C83.6,383.5,81.8,385.3,79.6,387.1 M-65.7,374.7c-0.6-2.5-1-5-1.5-7.6
	c1.2,0.9,2.4,1.7,3.6,2.6c0,0.1,0.1,0.1,0.1,0.2c0.1,0.3,0.3,0.4,0.5,0.5c0.1,0.9,0,2.4,0,3c0.1,1.5,0.2,2.9,0.3,4.4l0.1,2.1
	C-64.3,378.4-65,377.5-65.7,374.7 M-57,384.1c-0.3-0.2-0.6-0.5-0.9-0.7c-0.8-0.6-1.5-1.2-2.3-1.8l-0.5-6.9c-0.1-0.8,0-1.8,0-2.8
	c1.3,1,2.6,2,3.8,3C-57,378-57.1,381-57,384.1 M-50.4,380.9c-0.3,2.8-0.4,5.6-0.2,8.4c-1.6-1.3-3.1-2.5-4.7-3.8
	c0-1.7,0.2-3.4,0.2-4.1c0-1.7,0-3.3,0.1-5c1.2,1,2.5,2,3.7,3.1c0.4,0.3,0.7,0.6,1.1,1C-50.3,380.7-50.4,380.8-50.4,380.9
	 M-44.4,394.4c-1.3-1.1-2.7-2.2-4-3.3c-0.3-2.9-0.3-5.9-0.1-8.9c1.4,1.3,2.8,2.6,4.2,4C-44.6,388.9-44.7,391.6-44.4,394.4
	 M-42.3,396.2c-0.3-2.8-0.4-5.5-0.2-8.3c0.8,0.8,1.7,1.6,2.5,2.4v7.8C-40.8,397.5-41.5,396.8-42.3,396.2 M-68.3,445.2
	c0.3,0.4,0.7,0.7,1,1.1c-0.1,0.2-0.2,0.4-0.2,0.7c0,0.5,0,0.8,0.1,1c0.4,3.2,0.8,6.3,1.2,9.5C-68.1,454.4-68.4,449.6-68.3,445.2
	 M-60.6,462.2c-1.1-0.8-2.2-1.5-3.3-2.4c-0.5-3.6-0.9-7.2-1.4-10.8c0.1-0.1,0.1-0.1,0.2-0.2c1.7,1.9,3.5,3.8,5.2,5.7
	C-60.6,457-60.8,459.6-60.6,462.2 M-55.5,465.7c-1-0.7-1.9-1.3-2.9-2c-0.4-2.5-0.4-5,0.2-7.4c0.9,1,1.9,1.9,2.8,2.9
	C-55.6,461.3-55.7,463.5-55.5,465.7 M-50.5,469.8c-0.8-0.7-1.7-1.5-2.5-2.2c-0.1-0.1-0.2-0.1-0.3-0.2c-0.3-2.1-0.4-4.2-0.3-6.3
	c1.2,1.2,2.4,2.4,3.7,3.7C-50.2,466.4-50.4,468.1-50.5,469.8 M-45,474.9c-1.2-1.1-2.3-2.3-3.5-3.4c0-1.7,0.1-3.4,0.3-5.2
	c1.1,1,2.1,2.1,3.2,3.1C-45.1,471.3-45.1,473.1-45,474.9 M-40.1,479.9c-0.9-0.9-1.8-1.9-2.7-2.8c-0.2-1.9-0.3-3.8-0.2-5.8
	c1,0.9,2,1.9,3,2.8C-40.1,476.1-40.1,478-40.1,479.9 M-36.5,483.6c-0.5-0.5-1-1.1-1.5-1.6c0-2-0.1-4.1,0-6.1c0.5,0.5,1,0.9,1.5,1.3
	V483.6z M-32.6,487.7c-0.6-0.7-1.3-1.3-1.9-2v-6.6c0.7,0.6,1.3,1.2,2,1.8C-32.5,483.1-32.6,485.4-32.6,487.7 M-27.7,490.6
	c0.1-2.9,0.1-5.8,0.2-8.7c0.3-0.2,0.6-0.3,0.8-0.6c0.2-0.2,0.4-0.4,0.6-0.6c0.1,1.2,0.1,2.4,0.2,3.5c0.1,1.3,0,2.8,0.2,4.2
	L-27.7,490.6z M-24,486.7c-0.2-2.1,0-4.6-0.1-5.8c0-0.7-0.1-1.4-0.1-2.1c1.7-1.7,3.3-3.3,5-5c-0.4,2.5-0.3,5,0.2,7.6L-24,486.7z
	 M-12.8,469.8c-0.1,1.5-0.6,3.4-0.3,4.9c0,0.1,0.1,0.3,0.1,0.4l-4.3,4.5c-0.3-2.8-0.1-5.6,0.7-8.3c1.3-1.3,2.6-2.6,3.9-3.9
	L-12.8,469.8z M-6.7,468.5c-0.6,0.6-1.2,1.3-1.8,1.9l-2.6,2.7c0-0.3,0-0.5,0.1-0.8l0.2-3c0.1-1.4,0.2-2.7,0.3-4.1
	c1.6-1.6,3.2-3.1,4.8-4.7C-6.1,463.2-6.4,465.9-6.7,468.5L-6.7,468.5 M-4.4,466.2c0.3-2.6,0.6-5.2,0.9-7.8c0.8-0.8,1.6-1.6,2.4-2.4
	c0,1.6,0.1,3.3,0.2,4.9c0,0.4,0.3,0.7,0.6,0.8C-1.6,463.2-3,464.7-4.4,466.2 M2.3,459c-0.4,0.4-0.8,0.9-1.2,1.3
	c-0.2-2.1-0.2-4.2-0.2-6.3l1.4-1.4c0.1,2,0.3,4,0.4,5.9C2.6,458.7,2.5,458.9,2.3,459 M10.3,456.8c1-2.5,1.1-5.6,1.1-8.5
	c0.9,1,1.8,2,2.8,3c0.1,0.1,0.2,0.2,0.3,0.3c0,0,0,0,0.1,0.1c-0.1,3.2,0,6.4,0.2,9.5C13.2,459.8,11.7,458.3,10.3,456.8 M16.8,463.5
	c-0.3-3.2-0.4-6.4-0.4-9.7c1,1.1,2,2.1,3.1,3.2c-0.2,3.2-0.1,6.3,0.2,9.5C18.8,465.5,17.8,464.5,16.8,463.5 M24,470.9
	c-0.6-0.7-1.3-1.3-1.9-2c-0.5-3.3-0.7-6.6-0.6-9.9c0.9,0.9,1.8,1.8,2.7,2.7C23.8,464.7,23.8,467.8,24,470.9 M26.2,473.1
	c-0.4-3.2-0.4-6.4-0.2-9.7c1.3,1.2,2.6,2.5,3.9,3.7c-0.1,3.5,0,6.9,0.5,10.3C29,476,27.6,474.6,26.2,473.1 M32.8,479.9
	c-0.7-3.6-1-7.3-1-11c1.4,1.3,2.9,2.6,4.3,3.8c0.1,3.7,0.4,7.4,0.6,11C35.4,482.5,34.1,481.2,32.8,479.9 M39,485.8
	c-0.3-3.8-0.6-7.5-0.8-11.3c1.4,1.2,2.8,2.4,4.2,3.5l1.5,11.8C42.2,488.6,40.6,487.3,39,485.8 M46.1,491.4c-0.5-3.8-1-7.6-1.5-11.4
	c1.8,1.4,3.5,2.8,5.3,4.2c0.1,0.1,0.3,0.2,0.4,0.3c0.1,3.3,0.4,6.6,1,9.8C49.6,493.5,47.8,492.5,46.1,491.4 M52.1,476.5
	c-14.6-11.6-28.1-24.4-40.2-38.6c-1.3-1.5-3.9-1.3-5.2,0l-36.2,35.8c-12.5-11-24.2-22.8-35-35.4c6.9-7.4,13.7-14.7,20.6-22.1
	c3.8-4.1,7.8-8.1,11.5-12.3c2-2.3,3.8-4.6,3.8-7.8c0.1-7.5-9.2-14.2-14.1-18.7c-6.4-6-13.3-11.5-20.5-16.6
	c9.1-11.2,18.3-22.4,27.4-33.7c14.7,11.2,28.9,23.1,42.6,35.5c1.4,1.3,3.8,1.5,5.2,0c10-11.2,20.1-22.5,30.1-33.7
	c15,10.3,28.1,23.1,38.8,37.8c-10.5,9.2-21.1,18.5-31.6,27.7c-2.4,0.5-4.3,3.8-2.2,6.4c11.5,14,23.3,27.7,35.4,41
	C72.4,453.5,62.3,465,52.1,476.5 M-38,398.9v-6.2C-36.9,394.4-36.6,396.3-38,398.9 M61.1,401.7c-0.8,0.6-1.5,1.2-2.2,1.9
	c-1.2-1.5-2.5-2.9-3.7-4.4c1.4-1.3,2.9-2.5,4.3-3.8v5.5C59.5,401.8,60.5,402.1,61.1,401.7 M55.9,491c-0.3-2.3-0.5-4.7-0.5-7.1
	c1-1.2,2-2.3,3-3.5c-0.1,2.1,0,4.3,0.1,6.4l0,0C57.7,488.2,56.8,489.6,55.9,491 M60.5,484c0-1.7-0.1-4,0-5.9
	c0.8-0.9,1.6-1.8,2.4-2.7c0,1.4,0,2.9,0,4.3c0,0.2,0,0.5,0.1,0.7C62.2,481.6,61.3,482.8,60.5,484 M64.8,478c0-1.3,0.2-2.6,0.2-3.2
	c0-0.6,0-1.2,0-1.8c1-1.1,2-2.3,3-3.4c0.1,1.1,0.3,2.2,0.6,3.3C67.3,474.6,66,476.3,64.8,478 M70.2,470.8c-0.2-1.1-0.3-2.2-0.3-3.3
	c1.5-1.7,2.9-3.4,4.4-5c0,1,0.1,1.9,0.3,2.9C73.1,467.2,71.6,469,70.2,470.8 M80.1,458.9c-1.3,1.4-2.5,2.9-3.8,4.4
	c-0.1-1.1,0-2.3,0.2-3.4c1.1-1.3,2.3-2.6,3.4-3.9c0.1,0.7,0.2,1.5,0.4,2.2c0,0.1,0.1,0.2,0.1,0.2C80.3,458.6,80.2,458.8,80.1,458.9
	 M82.1,456.8c-0.2-1-0.2-2.1-0.1-3.1c1.1-1.3,2.3-2.6,3.4-3.9c0,0.1,0,0.3,0,0.4l0.5,2.3C84.7,454,83.3,455.5,82.1,456.8 M87.4,450
	l-0.1-0.4c-0.1-0.7-0.8-0.8-1.3-0.6c0.8-0.9,1.5-1.8,2.3-2.6C88.4,447.6,88,448.8,87.4,450"/>
</svg>
