<?xml version="1.0" encoding="utf-8"?>
<!-- Generator: Adobe Illustrator 19.0.0, SVG Export Plug-In . SVG Version: 6.00 Build 0)  -->
<svg version="1.2" baseProfile="tiny" id="Layer_1" xmlns="http://www.w3.org/2000/svg" xmlns:xlink="http://www.w3.org/1999/xlink"
	 x="0px" y="0px" viewBox="0 0 313.8 307.8" xml:space="preserve">
<path fill="#FFCC2B" stroke="#FFCD2D" stroke-miterlimit="10" d="M228.4,250.6c19.3-16,34.8-37,43.8-61.2c11.6-31.6,13-69.5,6-102.4
	c-6.7-31.3-26.7-54.7-54.1-68C196.2,5.6,165,4.5,134.7,5.6c3.9,0.1,7.9,0.4,11.8,0.9c6.9,0.9,2,5.7-2.7,5.1
	c-32.3-4-65,7.4-89.9,29.1c-24.8,21.7-40,53.3-43.6,87C4,186.8,34.6,243.4,84.9,269.8C132,294.5,187.7,284.4,228.4,250.6z"/>
<path d="M237.2,27.4c1.7,0.6,3.4,1.3,5.1,2c-1.6-2.9-3.3-5.8-4.9-8.7c-2.3-0.7-4.5-1.4-6.8-2C233,21.5,235.1,24.4,237.2,27.4"/>
<path d="M241.3,21.9c2.2,3.3,4.4,6.6,6.6,9.9c0.5,0.2,1,0.5,1.5,0.7c0.9,0.4,1.8,0.9,2.7,1.3c-1.8-3.4-3.7-6.7-5.5-10
	C244.9,23.2,243.1,22.5,241.3,21.9"/>
<path d="M313,122.9c-1.7-20.1-6.1-40.6-17.2-57.5c-9.5-14.4-22.6-25.7-37.3-34.1c-1.7-1-3.5-1.9-5.3-2.8c-4.2-3.3-8.7-6.3-13.3-9
	C205.3-0.6,164.4-1.2,126,0.7c-5.2,0.3-6,4.2-2.2,5.1C71.9,9.1,24.1,44.4,7,97.7c-13.2,41.2-7.3,84.9,13.2,120.2
	c10.9,25.3,28.7,47.7,52.1,63.8c18.9,13.1,39.9,21.1,61.5,24.4c0.1,0.1,0.2,0.2,0.2,0.2c0.4,0.4,1.6,0.4,2.3,0.1
	c33.1,4.4,67.4-2.3,97.5-19.7c24.1-13.9,45.1-33.9,59.3-58.4C311.3,196.8,316,159.1,313,122.9 M303.5,138.5c-3-4.9-5.9-9.7-8.9-14.6
	c-0.1-0.1-0.2-0.2-0.3-0.2c0-1.8,0-3.6,0-5.3c2.7,4.4,5.6,8.7,8.8,12.8C303.3,133.6,303.4,136,303.5,138.5 M299.5,111
	c0.7,1.2,1.4,2.4,2.1,3.6c0,0.3,0.1,0.7,0.1,1c-1-1.5-2-2.9-2.9-4.4C299,111.2,299.3,111.1,299.5,111 M296.4,106.6
	c0,0.4,0.1,0.7,0.1,1.1c-0.2-0.3-0.4-0.7-0.6-1C296.1,106.6,296.3,106.6,296.4,106.6 M302.3,121c0,0.3,0.1,0.6,0.1,1
	c-3.1-4.3-6.1-8.6-9.1-13.1c0,0,0,0,0,0c0-0.4,0-0.9,0-1.3C296.1,112.2,299.1,116.7,302.3,121 M286,74.1c0.3,0.5,0.6,1.1,0.9,1.6
	c-0.5-0.6-0.9-1.2-1.4-1.8c-0.1-0.3-0.2-0.5-0.3-0.8C285.5,73.5,285.7,73.8,286,74.1 M10.9,127.7c3.6-33.6,18.8-65.3,43.6-87
	c24.9-21.8,57.6-33.1,89.9-29.1c4.7,0.6,9.6-4.2,2.7-5.1c-3.9-0.5-7.9-0.8-11.8-0.9c30.3-1.1,61.5,0,89.3,13.5
	c27.4,13.3,47.4,36.7,54.1,68c7,32.9,5.6,70.8-6,102.4c-8.9,24.2-24.5,45.2-43.8,61.2c-40.7,33.8-96.3,43.9-143.5,19.2
	C35.2,243.4,4.6,186.8,10.9,127.7 M86.9,277.4c0.4,0.2,0.9,0.4,1.3,0.5c0.1,0.5,0.4,0.9,0.9,1.3c0.2,0.2,0.5,0.2,0.8,0.3
	c1,1.2,1.9,2.5,2.8,3.7C90.8,281.3,88.8,279.4,86.9,277.4 M100.3,289.8c-2.1-3.4-4.3-6.6-6.7-9.7c0.7,0.2,1.3,0.5,2,0.7
	c2.7,3.8,5.7,7.5,8.9,10.9C103,291.1,101.6,290.5,100.3,289.8 M110,294c-3.8-3.7-7.2-7.6-10.3-11.8c1.3,0.4,2.5,0.8,3.8,1.1
	c3.7,4.1,7.4,8.2,11.2,12.3C113.1,295.2,111.6,294.6,110,294 M119.2,297.1l-5.6-6.2c2.4,2.2,4.8,4.4,7.1,6.6
	C120.2,297.4,119.7,297.3,119.2,297.1 M125.4,298.8c-4.8-4.6-9.8-9.1-14.7-13.5c1.5,0.3,3,0.7,4.5,0.9c4.1,4.3,8.1,8.7,12.2,13
	C126.7,299.1,126.1,298.9,125.4,298.8 M131.4,300c-4.1-4.4-8.2-8.8-12.3-13.1c1.2,0.2,2.4,0.4,3.7,0.6c4,4.4,8.1,8.8,12.1,13.2
	C133.7,300.5,132.6,300.3,131.4,300 M138.7,301.2c-4.1-4.4-8.1-8.9-12.2-13.3c1.9,0.2,3.8,0.4,5.7,0.5c2.8,4.5,5.8,8.9,9.1,13.1
	C140.5,301.4,139.6,301.3,138.7,301.2 M144.8,301.8c-3.4-4.2-6.5-8.6-9.4-13.2c0.5,0,1,0.1,1.6,0.1c3.8,4.5,7.6,8.9,11.5,13.4
	C147.2,302,146,301.9,144.8,301.8 M151.8,302.2c-3.8-4.5-7.7-9-11.5-13.5c2.6,0,5.2,0,7.8-0.1c3.2,4.8,6.9,9.4,10.8,13.6
	C156.5,302.3,154.2,302.3,151.8,302.2 M162.1,302.1c-4-4.2-7.7-8.8-11-13.6c1.2-0.1,2.4-0.2,3.5-0.3c3.6,4.7,7.4,9.3,11.5,13.7
	C164.8,302,163.4,302.1,162.1,302.1 M169.2,301.6c-4.1-4.4-7.9-8.9-11.5-13.7c3.9-0.4,7.8-1,11.7-1.8c3.3,4.3,6.3,8.8,9,13.6
	c0.1,0.2,0.4,0.4,0.8,0.5C175.8,300.8,172.5,301.2,169.2,301.6 M181.2,299.8c0.1-0.1,0.1-0.3,0-0.5c-2.7-4.8-5.7-9.4-9.1-13.8
	c3.2-0.7,6.5-1.5,9.7-2.4c1.5,1.6,2.6,4.5,3.5,5.9l4.5,7.7c0.5,0.9,3.4,0.5,2.9-0.4l-6.3-10.8c-0.7-1.1-1.3-2.3-2.1-3.2
	c3.2-1,6.3-2.1,9.5-3.3c2.6,4.9,5,10.5,8.6,14.8C195.4,296.5,188.4,298.4,181.2,299.8 M204.8,293.1c-3.5-4.4-5.9-10.1-8.5-14.9
	c3.5-1.4,7-3,10.4-4.7c3.7,4.6,7.2,9.3,10.6,14.2C213.2,289.6,209,291.5,204.8,293.1 M219.7,286.5c-3.2-4.6-6.5-9.1-10.1-13.4
	c-0.2-0.3-0.7-0.4-1.2-0.4c2.7-1.4,5.3-2.8,8-4.3c1.4-0.8,2.7-1.6,4.1-2.5c2.9,4.7,5.7,9.4,8.6,14.1c0.2,0.3,0.8,0.5,1.4,0.5
	C226.9,282.6,223.3,284.6,219.7,286.5 M231.9,279.5c-3.1-5-6.2-10.1-9.3-15.1c3.5-2.3,7-4.7,10.3-7.3c2.5,5.4,5.4,10.7,8.7,15.7
	C238.5,275.1,235.2,277.4,231.9,279.5 M247.1,268.6c-1.1,0.9-2.2,1.7-3.3,2.6c-3.2-4.9-6-10.1-8.4-15.4c-0.1-0.1-0.2-0.2-0.3-0.3
	c3.9-3.1,7.6-6.3,11.1-9.7c2.6,5.5,5.6,10.8,8.8,15.9C252.4,264,249.8,266.4,247.1,268.6 M257,259.8c-3-4.9-5.7-9.9-8.2-15
	c-0.2-0.3-0.6-0.5-1.2-0.5c3.4-3.3,6.6-6.8,9.7-10.5c3.2,5.1,6.4,10.2,9.6,15.4C263.8,252.9,260.5,256.4,257,259.8 M268.7,247.1
	c-3.2-5.2-6.4-10.3-9.6-15.4c3-3.7,5.8-7.6,8.5-11.6c3.7,4.7,7.1,9.6,10.2,14.7C275,239,272,243.1,268.7,247.1 M279.5,232.3
	c-3.2-5-6.7-9.8-10.4-14.5c1.4-2.1,2.7-4.3,3.9-6.4c1.6-2.8,3-5.6,4.4-8.4c2.7,6.2,5.4,12.4,8.3,18.5
	C283.8,225.2,281.7,228.8,279.5,232.3 M287.3,218.4c-2.9-6.2-5.7-12.5-8.4-18.8c2.1-4.7,3.9-9.5,5.5-14.4c3.8,6.8,5,14.7,7.8,22
	C290.8,211,289.1,214.7,287.3,218.4 M293.8,203c-2.3-7.3-3.8-14.9-8.3-21.2c1.1-3.8,2.1-7.7,3-11.7c1.9,3.6,3.9,7.1,5.8,10.7
	c1.2,2.1,2.3,5.3,3.8,7.8C296.9,193.6,295.5,198.4,293.8,203 M299.2,184.2c0-0.1-0.1-0.1-0.1-0.2c-0.9-1.7-1.9-3.5-2.8-5.2
	c-2.2-4.1-4.4-8.1-6.6-12.2c-0.1-0.1-0.2-0.2-0.4-0.3c0.7-3.7,1.3-7.4,1.8-11.1c2.7,6.5,6.1,12.7,10,18.6
	C300.6,177.3,299.9,180.8,299.2,184.2 M301.7,169.9c-4-6.5-7.3-13.4-9.9-20.7c0.3-2.9,0.5-5.9,0.7-8.9c3.6,6.3,7,12.7,10.4,19.2
	C302.6,163,302.2,166.4,301.7,169.9 M303.2,154.3c-3.2-6.1-6.6-12.2-10-18.2c-0.1-0.2-0.3-0.3-0.5-0.4c0.1-3.2,0.1-6.4,0.1-9.7
	c3.6,5.9,7.2,11.8,10.7,17.7C303.5,147.2,303.4,150.8,303.2,154.3"/>
<path d="M10.5,195.6c4.8,5.7,9.8,11.3,15,16.5c-0.2-0.6-0.4-1.1-0.5-1.7c-1-1.3-2.1-2.6-3.1-3.9c-2.8-3.1-5.7-6.2-8.5-9.3
	c-1-1-2.1-1.9-3.1-2.8C10.4,194.7,10.4,195.2,10.5,195.6"/>
<rect fill="none" width="313.8" height="307.8"/>
<g>
	<path fill="#FFFFFF" stroke="#FFFFFF" stroke-width="2" stroke-miterlimit="10" d="M93.7,210.3c0.9,0.9,1.8,1.9,2.7,2.8
		c0-1.9,0-3.9,0.1-5.8c-1-0.9-2-1.9-3-2.8C93.4,206.4,93.5,208.4,93.7,210.3z"/>
	<path fill="#FFFFFF" stroke="#FFFFFF" stroke-width="2" stroke-miterlimit="10" d="M88.3,199.6c-0.2,1.7-0.4,3.4-0.3,5.2
		c1.2,1.1,2.4,2.2,3.5,3.4c-0.1-1.8-0.1-3.6,0-5.5C90.5,201.7,89.4,200.6,88.3,199.6z"/>
	<path fill="#FFFFFF" stroke="#FFFFFF" stroke-width="2" stroke-miterlimit="10" d="M83.2,200.5c0.1,0.1,0.2,0.1,0.3,0.2
		c0.9,0.7,1.7,1.5,2.5,2.2c0.1-1.7,0.3-3.4,0.6-5.1c-1.2-1.2-2.5-2.4-3.7-3.7C82.8,196.3,82.9,198.4,83.2,200.5z"/>
	<path fill="#FFFFFF" stroke="#FFFFFF" stroke-width="2" stroke-miterlimit="10" d="M78.3,189.4c-0.5,2.4-0.6,4.9-0.2,7.4
		c1,0.7,2,1.3,2.9,2c-0.2-2.2-0.2-4.3,0.1-6.5C80.2,191.4,79.2,190.4,78.3,189.4z"/>
	<path fill="#FFFFFF" stroke="#FFFFFF" stroke-width="2" stroke-miterlimit="10" d="M71.4,182c0,0.1-0.1,0.1-0.2,0.2
		c0.4,3.6,0.9,7.2,1.4,10.8c1.1,0.8,2.2,1.6,3.3,2.3c-0.2-2.6,0-5.2,0.7-7.7C74.9,185.8,73.1,183.9,71.4,182z"/>
	<path fill="#FFFFFF" stroke="#FFFFFF" stroke-width="2" stroke-miterlimit="10" d="M98.5,215.2c0.5,0.5,1,1.1,1.5,1.6v-6.3
		c-0.5-0.5-1-0.9-1.5-1.3C98.4,211.1,98.4,213.2,98.5,215.2z"/>
	<path fill="#FFFFFF" stroke="#FFFFFF" stroke-width="2" stroke-miterlimit="10" d="M117.3,207.1c-1.7,1.7-3.3,3.3-5,5
		c0,0.7,0.1,1.4,0.1,2.1c0.1,1.2-0.1,3.7,0.1,5.8l5-5.3C117,212.1,117,209.6,117.3,207.1z"/>
	<path fill="#FFFFFF" stroke="#FFFFFF" stroke-width="2" stroke-miterlimit="10" d="M102,218.9c0.6,0.7,1.3,1.3,1.9,2
		c0-2.3,0.1-4.6,0.1-6.8c-0.7-0.6-1.4-1.2-2-1.8V218.9z"/>
	<path fill="#FFFFFF" stroke="#FFFFFF" stroke-width="2" stroke-miterlimit="10" d="M119.2,212.8l4.3-4.5c-0.1-0.1-0.1-0.3-0.1-0.4
		c-0.3-1.5,0.2-3.4,0.3-4.9l0.2-2.4c-1.3,1.3-2.6,2.6-3.9,3.9C119.1,207.3,118.9,210.1,119.2,212.8z"/>
	<path fill="#FFFFFF" stroke="#FFFFFF" stroke-width="2" stroke-miterlimit="10" d="M110.4,213.9c-0.2,0.2-0.4,0.4-0.6,0.6
		c-0.2,0.2-0.5,0.4-0.8,0.6c-0.1,2.9-0.1,5.8-0.2,8.7l2-2.1c-0.3-1.4-0.1-2.9-0.2-4.2C110.5,216.3,110.5,215.1,110.4,213.9z"/>
	<path fill="#FFFFFF" stroke="#FFFFFF" stroke-width="2" stroke-miterlimit="10" d="M88,115.4c-0.3,3-0.2,5.9,0.1,8.9
		c1.3,1.1,2.7,2.2,4,3.3c-0.2-2.7-0.2-5.5,0.1-8.2C90.8,118,89.4,116.7,88,115.4z"/>
	<path fill="#FFFFFF" stroke="#FFFFFF" stroke-width="2" stroke-miterlimit="10" d="M210.2,124.8c1.1-0.9,2.3-1.7,3.4-2.6
		c0.1-0.1,0.3-0.2,0.4-0.3c0.1-3.3,0.4-6.6,0.9-9.9c-1.5,1.3-3.1,2.7-4.6,4C209.8,119,209.8,121.9,210.2,124.8z"/>
	<path fill="#FFFFFF" stroke="#FFFFFF" stroke-width="2" stroke-miterlimit="10" d="M73.7,106.7c0-0.6,0.1-2.1,0-3
		c-0.2-0.1-0.4-0.2-0.5-0.5c0-0.1-0.1-0.1-0.1-0.2c-1.2-0.9-2.4-1.8-3.6-2.6c0.4,2.5,0.9,5.1,1.5,7.6c0.6,2.8,1.4,3.7,3.3,5.2
		L74,111C73.9,109.6,73.8,108.1,73.7,106.7z"/>
	<path fill="#FFFFFF" stroke="#FFFFFF" stroke-width="2" stroke-miterlimit="10" d="M217.1,110.4c-0.5,3.3-0.9,6.6-1.1,9.9
		c2.3-1.8,4-3.6,4.9-6.2v-7.4c-1.3,1.1-2.6,2.3-3.9,3.4C217.1,110.2,217.1,110.3,217.1,110.4z"/>
	<path fill="#FFFFFF" stroke="#FFFFFF" stroke-width="2" stroke-miterlimit="10" d="M202,123.2c-1.4,1.3-2.9,2.5-4.3,3.8
		c0.1,0.2,0.2,0.3,0.2,0.6v6.5c0,0.3-0.1,0.5-0.3,0.7c1.5-1.2,3-2.5,4.6-3.7C201.9,128.4,201.9,125.8,202,123.2z"/>
	<path fill="#FFFFFF" stroke="#FFFFFF" stroke-width="2" stroke-miterlimit="10" d="M208,118c-1.3,1.1-2.5,2.2-3.8,3.3
		c-0.4,2.7-0.4,5.5-0.1,8.2c1.4-1.1,2.8-2.2,4.3-3.4C207.9,123.5,207.8,120.7,208,118z"/>
	<path fill="#FFFFFF" stroke="#FFFFFF" stroke-width="2" stroke-miterlimit="10" d="M96.5,123.5c-0.8-0.8-1.6-1.5-2.5-2.4
		c-0.2,2.8-0.1,5.5,0.2,8.3c0.8,0.6,1.5,1.3,2.3,1.9V123.5z"/>
	<path fill="#FFFFFF" stroke="#FFFFFF" stroke-width="2" stroke-miterlimit="10" d="M69,180.2c0-0.3,0.1-0.5,0.2-0.7
		c-0.3-0.4-0.7-0.7-1-1.1c-0.1,4.4,0.1,9.2,2.1,12.3c-0.4-3.2-0.8-6.3-1.2-9.5C69,181,69,180.7,69,180.2z"/>
	<path fill="#FFFFFF" stroke="#FFFFFF" stroke-width="2" stroke-miterlimit="10" d="M75.7,105.1c0,1,0,2.1,0,2.8l0.5,6.9
		c0.8,0.6,1.5,1.2,2.3,1.8c0.3,0.2,0.6,0.5,0.9,0.7c-0.1-3.1,0-6.2,0.1-9.2C78.3,107.1,77,106,75.7,105.1z"/>
	<path fill="#FFFFFF" stroke="#FFFFFF" stroke-width="2" stroke-miterlimit="10" d="M126,198.5c-0.1,1.4-0.2,2.7-0.3,4.1l-0.2,3
		c0,0.3,0,0.5-0.1,0.8l2.6-2.7c0.6-0.6,1.2-1.3,1.8-1.9c0,0,0,0,0-0.1c0.3-2.6,0.6-5.2,0.9-7.9C129.2,195.4,127.6,197,126,198.5z"/>
	<path fill="#FFFFFF" stroke="#FFFFFF" stroke-width="2" stroke-miterlimit="10" d="M81.5,109.7c0,1.7-0.1,3.3-0.1,5
		c0,0.6-0.2,2.4-0.2,4.1c1.6,1.2,3.1,2.5,4.7,3.8c-0.2-2.8-0.1-5.6,0.2-8.4c0-0.1,0.1-0.2,0.1-0.4c-0.4-0.3-0.7-0.6-1.1-1
		C84,111.7,82.7,110.7,81.5,109.7z"/>
	<path fill="#FFFFFF" stroke="#FFFFFF" stroke-width="2" stroke-miterlimit="10" d="M156,190.2c-1-1.1-2.1-2.1-3.1-3.2
		c0,3.2,0.1,6.5,0.4,9.7c1,1,2,2,2.9,3C155.9,196.6,155.8,193.4,156,190.2z"/>
	<path fill="#FFFFFF" stroke="#FFFFFF" stroke-width="2" stroke-miterlimit="10" d="M195,213.6c-1,1.2-2,2.3-3,3.5
		c0,2.4,0.2,4.7,0.5,7.1c0.9-1.4,1.8-2.7,2.7-4.1c0,0,0,0,0,0C195,217.9,194.9,215.8,195,213.6z"/>
	<path fill="#FFFFFF" stroke="#FFFFFF" stroke-width="2" stroke-miterlimit="10" d="M201.5,206.2c0,0.6,0,1.2,0,1.8
		c0,0.6-0.2,2-0.2,3.2c1.2-1.7,2.5-3.4,3.8-5.1c-0.3-1.1-0.5-2.2-0.6-3.3C203.5,204,202.5,205.1,201.5,206.2z"/>
	<path fill="#FFFFFF" stroke="#FFFFFF" stroke-width="2" stroke-miterlimit="10" d="M199.4,208.6c-0.8,0.9-1.6,1.8-2.4,2.7
		c0,1.9,0,4.2,0,5.9c0.8-1.2,1.7-2.4,2.5-3.6c0-0.2-0.1-0.5-0.1-0.7C199.4,211.5,199.4,210,199.4,208.6z"/>
	<path fill="#FFFFFF" stroke="#FFFFFF" stroke-width="2" stroke-miterlimit="10" d="M191.6,132.4c1.2,1.5,2.4,2.9,3.7,4.4
		c0.7-0.6,1.5-1.2,2.2-1.9c-0.6,0.4-1.6,0.1-1.6-0.8v-5.5C194.5,129.8,193.1,131.1,191.6,132.4z"/>
	<path fill="#FFFFFF" stroke="#FFFFFF" stroke-width="2" stroke-miterlimit="10" d="M223.9,182.8l0.1,0.4c0.6-1.2,1-2.4,1-3.7
		c-0.8,0.9-1.5,1.8-2.3,2.6C223.1,182,223.7,182.2,223.9,182.8z"/>
	<path fill="#FFFFFF" stroke="#FFFFFF" stroke-width="2" stroke-miterlimit="10" d="M221.9,183c-1.1,1.3-2.3,2.6-3.4,3.9
		c-0.2,1.1-0.1,2.1,0.1,3.1c1.3-1.3,2.7-2.8,3.8-4.3l-0.5-2.3C221.9,183.2,221.9,183.1,221.9,183z"/>
	<path fill="#FFFFFF" stroke="#FFFFFF" stroke-width="2" stroke-miterlimit="10" d="M206.4,200.7c0,1.1,0.1,2.2,0.3,3.3
		c1.4-1.8,2.9-3.7,4.4-5.5c-0.2-1-0.3-1.9-0.3-2.9C209.3,197.3,207.8,199,206.4,200.7z"/>
	<path fill="#FFFFFF" stroke="#FFFFFF" stroke-width="2" stroke-miterlimit="10" d="M98.5,132.1c1.4-2.5,1.1-4.5,0-6.2V132.1z"/>
	<path fill="#FFFFFF" stroke="#FFFFFF" stroke-width="2" stroke-miterlimit="10" d="M216.5,189.2c-1.1,1.3-2.3,2.6-3.4,3.9
		c-0.2,1.1-0.3,2.3-0.2,3.4c1.2-1.5,2.5-2.9,3.8-4.4c0.1-0.1,0.3-0.3,0.4-0.5c0-0.1-0.1-0.1-0.1-0.2
		C216.6,190.7,216.5,189.9,216.5,189.2z"/>
	<path fill="#FFFFFF" stroke="#FFFFFF" stroke-width="2" stroke-miterlimit="10" d="M174.7,207.7c0.2,3.8,0.4,7.5,0.8,11.3
		c1.6,1.4,3.3,2.8,5,4l-1.5-11.8C177.5,210.1,176.1,208.9,174.7,207.7z"/>
	<path fill="#FFFFFF" stroke="#FFFFFF" stroke-width="2" stroke-miterlimit="10" d="M151,184.9C151,184.9,150.9,184.9,151,184.9
		c-0.2-0.1-0.3-0.3-0.3-0.4c-0.9-1-1.9-2-2.8-3c0,2.9-0.1,5.9-1.1,8.5c1.5,1.5,2.9,3,4.4,4.5C150.9,191.3,150.9,188.1,151,184.9z"/>
	<path fill="#FFFFFF" stroke="#FFFFFF" stroke-width="2" stroke-miterlimit="10" d="M137.4,187.2c0,2.1,0,4.2,0.2,6.3
		c0.4-0.4,0.8-0.9,1.2-1.3c0.2-0.2,0.3-0.3,0.4-0.5c-0.1-2-0.3-4-0.4-5.9L137.4,187.2z"/>
	<path fill="#FFFFFF" stroke="#FFFFFF" stroke-width="2" stroke-miterlimit="10" d="M183.6,134.1c-2.1-2.5-0.2-5.8,2.2-6.4
		c10.5-9.2,21.1-18.5,31.6-27.7c-10.7-14.8-23.8-27.5-38.8-37.8c-10,11.2-20.1,22.5-30.1,33.7c-1.4,1.5-3.8,1.3-5.2,0
		c-13.7-12.5-27.9-24.3-42.6-35.5c-9.1,11.2-18.3,22.4-27.4,33.7c7.2,5.1,14.1,10.6,20.5,16.6c4.9,4.6,14.3,11.2,14.1,18.7
		c-0.1,3.2-1.8,5.5-3.8,7.8c-3.7,4.2-7.6,8.2-11.5,12.3c-6.9,7.4-13.7,14.7-20.6,22.1c10.9,12.6,22.5,24.4,35,35.4l36.2-35.8
		c1.3-1.3,3.9-1.5,5.2,0c12.2,14.2,25.6,27,40.2,38.6c10.1-11.5,20.2-23.1,30.4-34.6C206.9,161.8,195,148.1,183.6,134.1z"/>
	<path fill="#FFFFFF" stroke="#FFFFFF" stroke-width="2" stroke-miterlimit="10" d="M157.9,192.2c-0.1,3.3,0.1,6.6,0.6,9.9
		c0.6,0.7,1.3,1.3,1.9,2c-0.2-3.1-0.1-6.1,0.2-9.2C159.7,194,158.8,193.1,157.9,192.2z"/>
	<path fill="#FFFFFF" stroke="#FFFFFF" stroke-width="2" stroke-miterlimit="10" d="M166.4,200.3c-1.3-1.2-2.6-2.4-3.9-3.7
		c-0.2,3.2-0.2,6.4,0.2,9.7c1.4,1.5,2.8,2.9,4.2,4.3C166.4,207.2,166.3,203.8,166.4,200.3z"/>
	<path fill="#FFFFFF" stroke="#FFFFFF" stroke-width="2" stroke-miterlimit="10" d="M186.5,217.4c-1.8-1.4-3.6-2.8-5.3-4.2
		c0.5,3.8,1,7.6,1.5,11.4c1.7,1.1,3.4,2.1,5.3,2.9c-0.6-3.3-0.9-6.5-1-9.8C186.8,217.6,186.7,217.5,186.5,217.4z"/>
	<path fill="#FFFFFF" stroke="#FFFFFF" stroke-width="2" stroke-miterlimit="10" d="M135.7,194.1c-0.1-1.6-0.2-3.3-0.2-4.9
		c-0.8,0.8-1.6,1.6-2.4,2.4c-0.3,2.6-0.6,5.2-0.9,7.8c1.4-1.5,2.8-2.9,4.2-4.4C136,194.8,135.7,194.5,135.7,194.1z"/>
	<path fill="#FFFFFF" stroke="#FFFFFF" stroke-width="2" stroke-miterlimit="10" d="M168.4,202.1c0,3.7,0.3,7.3,1,11
		c1.3,1.3,2.6,2.6,4,3.9c-0.3-3.7-0.5-7.4-0.6-11C171.2,204.7,169.8,203.4,168.4,202.1z"/>
</g>
<path d="M229.5,175c-0.3-0.7-0.8-1-1.4-1.2c-0.2-0.4-0.4-0.7-0.7-1.1c-9.6-10.5-18.9-21.1-28-31.9c7.7-6.3,16.2-11.8,23.4-18.5
	c4.9-4.6,5.1-11,4.8-17.4c0.7-0.9,1-2.1,0.4-3.4c2-2.6-0.9-6-3.8-5.6C212,79.3,197.2,65.2,180,54c-2.6-1.7-5,0.4-5.3,2.8
	c-9.4,10.5-18.8,21.1-28.2,31.6c-14-12.6-28.6-24.6-43.7-36c-1.2-0.9-3.5-0.5-4.4,0.6C87.6,66.2,76.9,79.3,66.2,92.5
	c-0.2,0.2-0.4,0.5-0.5,0.8c-0.9,0.5-1.5,1.5-1.3,2.7c0.9,5.1,1.5,10.4,2.8,15.4c0.9,3.2,2.9,4.5,5.5,6.5
	c7.9,6.1,15.6,12.4,23.2,18.9c0,0,0.1,0.1,0.1,0.1c-4.1,4.8-9.3,9.3-13.4,13.8c-5.7,6.2-11.5,12.3-17.2,18.5c-0.8,0.9-1.1,2-1,3.1
	c0,0.1,0,0.1,0,0.2c-0.1,6-0.4,12.8,1.2,18.7c1.4,5,6.4,6.8,10.3,9.6c4.1,2.9,7.9,6.2,11.5,9.6c0,0.3,0.1,0.6,0.1,1
	c0.1,0.8,0.9,0.9,1.4,0.5c1.6,1.5,3.1,3.1,4.6,4.7c0.1,0.3,0.1,0.5,0.2,0.8c0.1,0.6,0.7,0.8,1.2,0.7c0.9,1,1.8,2,2.8,2.9
	c0,0.2,0,0.4,0,0.6c0.1,0.8,0.8,1.1,1.4,0.9c2.1,2.3,4.2,4.5,6.4,6.7c0.5,0.5,1.1,0.7,1.7,0.7c0.8,1.2,2.5,1.8,3.8,0.5l25.7-27
	c2.6-2.7,5.9-5.5,8.4-8.5c7.7,8,15.4,16,23.3,23.9c6.6,6.6,13.8,12.6,22.9,15.5c1.1,0.3,2.3-0.2,2.8-1.1c7-11.5,14.9-22.5,23.6-32.9
	C223,193.4,234.6,184.5,229.5,175 M198.6,134.9c0.2-0.2,0.3-0.4,0.3-0.7v-6.5c0-0.3-0.1-0.4-0.2-0.6c1.4-1.3,2.9-2.5,4.3-3.8
	c-0.2,2.6-0.1,5.2,0.2,7.8C201.7,132.5,200.1,133.7,198.6,134.9 M205,129.8c-0.3-2.8-0.2-5.5,0.1-8.2c1.3-1.1,2.5-2.2,3.8-3.3
	c-0.2,2.7-0.1,5.5,0.3,8.2C207.9,127.5,206.4,128.6,205,129.8 M214.9,122.1c-0.1,0.1-0.3,0.2-0.4,0.3c-1.1,0.9-2.3,1.7-3.4,2.6
	c-0.4-2.9-0.4-5.8,0.1-8.8c1.5-1.3,3.1-2.7,4.6-4C215.3,115.5,215,118.8,214.9,122.1 M217,120.5c0.2-3.3,0.5-6.6,1.1-9.9
	c0-0.1,0-0.2,0-0.3c1.3-1.1,2.6-2.3,3.9-3.4v7.4C221,116.9,219.2,118.7,217,120.5 M71.7,108.1c-0.6-2.5-1-5-1.5-7.6
	c1.2,0.9,2.4,1.7,3.6,2.6c0,0.1,0.1,0.1,0.1,0.2c0.1,0.3,0.3,0.4,0.5,0.5c0.1,0.9,0,2.4,0,3c0.1,1.5,0.2,2.9,0.3,4.4l0.1,2.1
	C73.1,111.8,72.4,110.9,71.7,108.1 M80.4,117.5c-0.3-0.2-0.6-0.5-0.9-0.7c-0.8-0.6-1.5-1.2-2.3-1.8l-0.5-6.9c-0.1-0.8,0-1.8,0-2.8
	c1.3,1,2.6,2,3.8,3C80.4,111.4,80.3,114.4,80.4,117.5 M87,114.3c-0.3,2.8-0.4,5.6-0.2,8.4c-1.6-1.3-3.1-2.5-4.7-3.8
	c0-1.7,0.2-3.4,0.2-4.1c0-1.7,0-3.3,0.1-5c1.2,1,2.5,2,3.7,3.1c0.4,0.3,0.7,0.6,1.1,1C87.1,114.1,87,114.2,87,114.3 M93,127.8
	c-1.3-1.1-2.7-2.2-4-3.3c-0.3-2.9-0.3-5.9-0.1-8.9c1.4,1.3,2.8,2.6,4.2,4C92.8,122.3,92.7,125,93,127.8 M95.1,129.6
	c-0.3-2.8-0.4-5.5-0.2-8.3c0.8,0.8,1.7,1.6,2.5,2.4v7.8C96.6,130.9,95.9,130.2,95.1,129.6 M69.1,178.6c0.3,0.4,0.7,0.7,1,1.1
	c-0.1,0.2-0.2,0.4-0.2,0.7c0,0.5,0,0.8,0.1,1c0.4,3.2,0.8,6.3,1.2,9.5C69.3,187.8,69,183,69.1,178.6 M76.8,195.6
	c-1.1-0.8-2.2-1.5-3.3-2.4c-0.5-3.6-0.9-7.2-1.4-10.8c0.1-0.1,0.1-0.1,0.2-0.2c1.7,1.9,3.5,3.8,5.2,5.7
	C76.8,190.4,76.6,193,76.8,195.6 M81.9,199.1c-1-0.7-1.9-1.3-2.9-2c-0.4-2.5-0.4-5,0.2-7.4c0.9,1,1.9,1.9,2.8,2.9
	C81.8,194.7,81.7,196.9,81.9,199.1 M86.9,203.2c-0.8-0.7-1.7-1.5-2.5-2.2c-0.1-0.1-0.2-0.1-0.3-0.2c-0.3-2.1-0.4-4.2-0.3-6.3
	c1.2,1.2,2.4,2.4,3.7,3.7C87.2,199.8,87,201.5,86.9,203.2 M92.4,208.3c-1.2-1.1-2.3-2.3-3.5-3.4c0-1.7,0.1-3.4,0.3-5.2
	c1.1,1,2.1,2.1,3.2,3.1C92.3,204.7,92.3,206.5,92.4,208.3 M97.3,213.3c-0.9-0.9-1.8-1.9-2.7-2.8c-0.2-1.9-0.3-3.8-0.2-5.8
	c1,0.9,2,1.9,3,2.8C97.3,209.5,97.3,211.4,97.3,213.3 M100.9,217c-0.5-0.5-1-1.1-1.5-1.6c0-2-0.1-4.1,0-6.1c0.5,0.5,1,0.9,1.5,1.3
	V217z M104.8,221.1c-0.6-0.7-1.3-1.3-1.9-2v-6.6c0.7,0.6,1.3,1.2,2,1.8C104.9,216.5,104.8,218.8,104.8,221.1 M109.7,224
	c0.1-2.9,0.1-5.8,0.2-8.7c0.3-0.2,0.6-0.3,0.8-0.6c0.2-0.2,0.4-0.4,0.6-0.6c0.1,1.2,0.1,2.4,0.2,3.5c0.1,1.3,0,2.8,0.2,4.2
	L109.7,224z M113.4,220.1c-0.2-2.1,0-4.6-0.1-5.8c0-0.7-0.1-1.4-0.1-2.1c1.7-1.7,3.3-3.3,5-5c-0.4,2.5-0.3,5,0.2,7.6L113.4,220.1z
	 M124.6,203.2c-0.1,1.5-0.6,3.4-0.3,4.9c0,0.1,0.1,0.3,0.1,0.4l-4.3,4.5c-0.3-2.8-0.1-5.6,0.7-8.3c1.3-1.3,2.6-2.6,3.9-3.9
	L124.6,203.2z M130.7,201.9c-0.6,0.6-1.2,1.3-1.8,1.9l-2.6,2.7c0-0.3,0-0.5,0.1-0.8l0.2-3c0.1-1.4,0.2-2.7,0.3-4.1
	c1.6-1.6,3.2-3.1,4.8-4.7C131.3,196.6,131,199.3,130.7,201.9C130.7,201.9,130.7,201.9,130.7,201.9 M133,199.6
	c0.3-2.6,0.6-5.2,0.9-7.8c0.8-0.8,1.6-1.6,2.4-2.4c0,1.6,0.1,3.3,0.2,4.9c0,0.4,0.3,0.7,0.6,0.8C135.8,196.6,134.4,198.1,133,199.6
	 M139.7,192.4c-0.4,0.4-0.8,0.9-1.2,1.3c-0.2-2.1-0.2-4.2-0.2-6.3l1.4-1.4c0.1,2,0.3,4,0.4,5.9C140,192.1,139.9,192.3,139.7,192.4
	 M147.7,190.2c1-2.5,1.1-5.6,1.1-8.5c0.9,1,1.8,2,2.8,3c0.1,0.1,0.2,0.2,0.3,0.3c0,0,0,0,0.1,0.1c-0.1,3.2,0,6.4,0.2,9.5
	C150.6,193.2,149.1,191.7,147.7,190.2 M154.2,196.9c-0.3-3.2-0.4-6.4-0.4-9.7c1,1.1,2,2.1,3.1,3.2c-0.2,3.2-0.1,6.3,0.2,9.5
	C156.2,198.9,155.2,197.9,154.2,196.9 M161.4,204.3c-0.6-0.7-1.3-1.3-1.9-2c-0.5-3.3-0.7-6.6-0.6-9.9c0.9,0.9,1.8,1.8,2.7,2.7
	C161.2,198.1,161.2,201.2,161.4,204.3 M163.6,206.5c-0.4-3.2-0.4-6.4-0.2-9.7c1.3,1.2,2.6,2.5,3.9,3.7c-0.1,3.5,0,6.9,0.5,10.3
	C166.4,209.4,165,208,163.6,206.5 M170.2,213.3c-0.7-3.6-1-7.3-1-11c1.4,1.3,2.9,2.6,4.3,3.8c0.1,3.7,0.4,7.4,0.6,11
	C172.8,215.9,171.5,214.6,170.2,213.3 M176.4,219.2c-0.3-3.8-0.6-7.5-0.8-11.3c1.4,1.2,2.8,2.4,4.2,3.5l1.5,11.8
	C179.6,222,178,220.7,176.4,219.2 M183.5,224.8c-0.5-3.8-1-7.6-1.5-11.4c1.8,1.4,3.5,2.8,5.3,4.2c0.1,0.1,0.3,0.2,0.4,0.3
	c0.1,3.3,0.4,6.6,1,9.8C187,226.9,185.2,225.9,183.5,224.8 M189.5,209.9c-14.6-11.6-28.1-24.4-40.2-38.6c-1.3-1.5-3.9-1.3-5.2,0
	l-36.2,35.8c-12.5-11-24.2-22.8-35-35.4c6.9-7.4,13.7-14.7,20.6-22.1c3.8-4.1,7.8-8.1,11.5-12.3c2-2.3,3.8-4.6,3.8-7.8
	c0.1-7.5-9.2-14.2-14.1-18.7c-6.4-6-13.3-11.5-20.5-16.6c9.1-11.2,18.3-22.4,27.4-33.7c14.7,11.2,28.9,23.1,42.6,35.5
	c1.4,1.3,3.8,1.5,5.2,0c10-11.2,20.1-22.5,30.1-33.7c15,10.3,28.1,23.1,38.8,37.8c-10.5,9.2-21.1,18.5-31.6,27.7
	c-2.4,0.5-4.3,3.8-2.2,6.4c11.5,14,23.3,27.7,35.4,41C209.8,186.9,199.7,198.4,189.5,209.9 M99.4,132.3v-6.2
	C100.5,127.8,100.8,129.7,99.4,132.3 M198.5,135.1c-0.8,0.6-1.5,1.2-2.2,1.9c-1.2-1.5-2.5-2.9-3.7-4.4c1.4-1.3,2.9-2.5,4.3-3.8v5.5
	C196.9,135.2,197.9,135.5,198.5,135.1 M193.3,224.4c-0.3-2.3-0.5-4.7-0.5-7.1c1-1.2,2-2.3,3-3.5c-0.1,2.1,0,4.3,0.1,6.4c0,0,0,0,0,0
	C195.1,221.6,194.2,223,193.3,224.4 M197.9,217.4c0-1.7-0.1-4,0-5.9c0.8-0.9,1.6-1.8,2.4-2.7c0,1.4,0,2.9,0,4.3c0,0.2,0,0.5,0.1,0.7
	C199.6,215,198.7,216.2,197.9,217.4 M202.2,211.4c0-1.3,0.2-2.6,0.2-3.2c0-0.6,0-1.2,0-1.8c1-1.1,2-2.3,3-3.4
	c0.1,1.1,0.3,2.2,0.6,3.3C204.7,208,203.4,209.7,202.2,211.4 M207.6,204.2c-0.2-1.1-0.3-2.2-0.3-3.3c1.5-1.7,2.9-3.4,4.4-5
	c0,1,0.1,1.9,0.3,2.9C210.5,200.6,209,202.4,207.6,204.2 M217.5,192.3c-1.3,1.4-2.5,2.9-3.8,4.4c-0.1-1.1,0-2.3,0.2-3.4
	c1.1-1.3,2.3-2.6,3.4-3.9c0.1,0.7,0.2,1.5,0.4,2.2c0,0.1,0.1,0.2,0.1,0.2C217.7,192,217.6,192.2,217.5,192.3 M219.5,190.2
	c-0.2-1-0.2-2.1-0.1-3.1c1.1-1.3,2.3-2.6,3.4-3.9c0,0.1,0,0.3,0,0.4l0.5,2.3C222.1,187.4,220.7,188.9,219.5,190.2 M224.8,183.4
	l-0.1-0.4c-0.1-0.7-0.8-0.8-1.3-0.6c0.8-0.9,1.5-1.8,2.3-2.6C225.8,181,225.4,182.2,224.8,183.4"/>
</svg>
