<svg xmlns="http://www.w3.org/2000/svg" xmlns:xlink="http://www.w3.org/1999/xlink" preserveAspectRatio="xMidYMid" width="255.85" height="113.94" viewBox="0 0 255.85 113.94">
  <defs>
    <style>
      .cls-1 {
        fill: #737373;
        fill-rule: evenodd;
      }
    </style>
  </defs>
  <path d="M254.537,87.832 C253.655,88.632 252.452,89.046 250.927,89.073 L245.216,89.073 L245.216,74.143 L247.185,74.143 L247.185,80.234 L250.896,80.234 C252.455,80.254 253.672,80.654 254.547,81.434 C255.422,82.213 255.859,83.273 255.859,84.612 C255.859,85.959 255.418,87.032 254.537,87.832 ZM253.096,82.594 C252.573,82.108 251.830,81.858 250.866,81.844 L247.185,81.844 L247.185,87.463 L250.784,87.463 C251.761,87.463 252.522,87.203 253.065,86.682 C253.609,86.162 253.880,85.463 253.880,84.587 C253.880,83.744 253.619,83.080 253.096,82.594 ZM233.960,86.231 C234.637,87.189 235.584,87.668 236.800,87.668 C237.894,87.668 238.733,87.420 239.318,86.925 C239.902,86.429 240.290,85.566 240.482,84.336 L242.461,84.336 C242.276,85.915 241.693,87.133 240.712,87.991 C239.731,88.849 238.427,89.278 236.800,89.278 C235.037,89.278 233.623,88.646 232.560,87.381 C231.497,86.116 230.966,84.424 230.966,82.305 L230.966,80.870 C230.966,79.482 231.214,78.262 231.709,77.209 C232.205,76.156 232.907,75.348 233.817,74.784 C234.726,74.220 235.778,73.938 236.975,73.938 C238.561,73.938 239.832,74.381 240.789,75.266 C241.746,76.151 242.303,77.377 242.461,78.942 L240.482,78.942 C240.311,77.749 239.940,76.885 239.369,76.350 C238.798,75.815 238.000,75.548 236.975,75.548 C235.717,75.548 234.731,76.013 234.017,76.944 C233.302,77.874 232.945,79.198 232.945,80.915 L232.945,82.362 C232.945,83.984 233.283,85.274 233.960,86.231 ZM219.690,74.143 L229.072,74.143 L229.072,75.753 L221.659,75.753 L221.659,80.562 L228.129,80.562 L228.129,82.172 L221.659,82.172 L221.659,87.463 L229.175,87.463 L229.175,89.073 L219.690,89.073 L219.690,74.143 ZM224.491,58.609 L224.675,52.333 L219.774,64.423 L218.267,64.423 L213.376,52.364 L213.570,58.609 L213.570,64.423 L211.602,64.423 L211.602,49.493 L214.145,49.493 L219.025,61.675 L223.906,49.493 L226.460,49.493 L226.460,64.423 L224.491,64.423 L224.491,58.609 ZM219.287,43.433 L219.287,39.773 L208.572,39.773 L208.572,43.444 L206.603,43.444 L206.593,38.163 L207.813,38.163 C208.455,37.438 208.966,36.466 209.346,35.246 C209.725,34.026 209.963,32.687 210.058,31.231 L210.387,24.843 L219.318,24.843 L219.318,38.163 L221.266,38.163 L221.245,43.433 L219.287,43.433 ZM217.339,26.453 L212.283,26.453 L212.068,30.846 C211.979,32.563 211.752,34.027 211.386,35.238 C211.020,36.449 210.578,37.424 210.058,38.163 L217.339,38.163 L217.339,26.453 ZM206.111,0.193 L215.494,0.193 L215.494,1.803 L208.080,1.803 L208.080,6.612 L214.550,6.612 L214.550,8.222 L208.080,8.222 L208.080,13.513 L215.596,13.513 L215.596,15.123 L206.111,15.123 L206.111,0.193 ZM195.130,24.843 L204.512,24.843 L204.512,26.453 L197.098,26.453 L197.098,31.262 L203.569,31.262 L203.569,32.872 L197.098,32.872 L197.098,38.163 L204.615,38.163 L204.615,39.773 L195.130,39.773 L195.130,24.843 ZM200.213,14.467 C199.310,15.041 198.257,15.328 197.054,15.328 C195.878,15.328 194.836,15.039 193.927,14.461 C193.018,13.884 192.312,13.060 191.809,11.990 C191.307,10.920 191.049,9.682 191.035,8.273 L191.035,7.197 C191.035,5.761 191.285,4.493 191.784,3.392 C192.283,2.292 192.989,1.449 193.901,0.865 C194.814,0.280 195.858,-0.012 197.034,-0.012 C198.230,-0.012 199.285,0.277 200.197,0.855 C201.110,1.432 201.812,2.270 202.304,3.367 C202.797,4.464 203.043,5.741 203.043,7.197 L203.043,8.140 C203.043,9.603 202.797,10.879 202.304,11.970 C201.812,13.060 201.115,13.892 200.213,14.467 ZM201.084,7.176 C201.084,5.406 200.729,4.047 200.018,3.100 C199.307,2.153 198.312,1.680 197.034,1.680 C195.790,1.680 194.810,2.153 194.096,3.100 C193.382,4.047 193.014,5.361 192.994,7.043 L192.994,8.140 C192.994,9.856 193.354,11.204 194.076,12.185 C194.797,13.166 195.790,13.657 197.054,13.657 C198.326,13.657 199.310,13.193 200.007,12.267 C200.705,11.341 201.064,10.013 201.084,8.283 L201.084,7.176 ZM192.525,29.406 C192.525,30.855 192.072,31.971 191.166,32.754 C190.261,33.537 188.963,33.928 187.275,33.928 L183.758,33.928 L183.758,39.773 L181.789,39.773 L181.789,24.843 L187.296,24.843 C188.929,24.843 190.209,25.260 191.136,26.094 C192.062,26.928 192.525,28.032 192.525,29.406 ZM189.715,27.285 C189.155,26.751 188.386,26.474 187.408,26.453 L183.758,26.453 L183.758,32.318 L187.296,32.318 C188.348,32.318 189.155,32.070 189.715,31.574 C190.276,31.077 190.556,30.360 190.556,29.422 C190.556,28.531 190.276,27.819 189.715,27.285 ZM186.015,8.222 L178.489,8.222 L178.489,15.123 L176.520,15.123 L176.520,0.193 L178.489,0.193 L178.489,6.612 L186.015,6.612 L186.015,0.193 L187.994,0.193 L187.994,15.123 L186.015,15.123 L186.015,8.222 ZM170.936,8.222 L163.409,8.222 L163.409,15.123 L161.440,15.123 L161.440,0.193 L163.409,0.193 L163.409,6.612 L170.936,6.612 L170.936,0.193 L172.915,0.193 L172.915,15.123 L170.936,15.123 L170.936,8.222 ZM149.375,0.193 L158.757,0.193 L158.757,1.803 L151.343,1.803 L151.343,6.612 L157.814,6.612 L157.814,8.222 L151.343,8.222 L151.343,13.513 L158.860,13.513 L158.860,15.123 L149.375,15.123 L149.375,0.193 ZM150.810,50.498 C151.627,51.168 152.035,52.159 152.035,53.472 C152.035,54.169 151.837,54.786 151.440,55.322 C151.044,55.859 150.504,56.274 149.820,56.568 C150.627,56.794 151.264,57.223 151.733,57.855 C152.201,58.488 152.435,59.241 152.435,60.116 C152.435,61.456 152.001,62.509 151.133,63.274 C150.265,64.040 149.038,64.423 147.452,64.423 L142.273,64.423 L142.273,49.493 L147.154,49.493 C148.774,49.493 149.993,49.828 150.810,50.498 ZM144.242,62.813 L147.493,62.813 C148.409,62.813 149.132,62.576 149.661,62.100 C150.191,61.625 150.456,60.971 150.456,60.137 C150.456,58.339 149.478,57.440 147.523,57.440 L144.242,57.440 L144.242,62.813 ZM149.338,51.663 C148.860,51.290 148.132,51.103 147.154,51.103 L144.242,51.103 L144.242,55.861 L147.216,55.861 C148.077,55.861 148.766,55.645 149.282,55.214 C149.798,54.782 150.056,54.196 150.056,53.456 C150.056,52.634 149.817,52.036 149.338,51.663 ZM144.438,37.630 C144.828,37.630 145.123,37.739 145.325,37.958 C145.527,38.177 145.628,38.450 145.628,38.778 C145.628,39.093 145.527,39.356 145.325,39.568 C145.123,39.780 144.828,39.886 144.438,39.886 C144.048,39.886 143.756,39.780 143.561,39.568 C143.367,39.356 143.269,39.093 143.269,38.778 C143.269,38.450 143.367,38.177 143.561,37.958 C143.756,37.739 144.048,37.630 144.438,37.630 ZM145.659,8.555 C146.128,9.188 146.362,9.941 146.362,10.816 C146.362,12.156 145.928,13.209 145.060,13.974 C144.191,14.740 142.964,15.123 141.378,15.123 L136.200,15.123 L136.200,0.193 L141.081,0.193 C142.701,0.193 143.920,0.528 144.737,1.198 C145.553,1.868 145.962,2.859 145.962,4.172 C145.962,4.869 145.764,5.486 145.367,6.022 C144.971,6.559 144.431,6.974 143.747,7.268 C144.554,7.494 145.191,7.923 145.659,8.555 ZM143.983,4.156 C143.983,3.334 143.744,2.736 143.265,2.363 C142.787,1.990 142.058,1.803 141.081,1.803 L138.169,1.803 L138.169,6.561 L141.143,6.561 C142.004,6.561 142.692,6.345 143.209,5.914 C143.725,5.482 143.983,4.896 143.983,4.156 ZM141.450,8.140 L138.169,8.140 L138.169,13.513 L141.419,13.513 C142.335,13.513 143.058,13.276 143.588,12.800 C144.118,12.325 144.383,11.671 144.383,10.837 C144.383,9.039 143.405,8.140 141.450,8.140 ZM138.504,25.505 C139.417,26.082 140.119,26.920 140.611,28.017 C141.103,29.114 141.349,30.391 141.349,31.847 L141.349,32.790 C141.349,34.253 141.103,35.529 140.611,36.620 C140.119,37.710 139.422,38.542 138.519,39.117 C137.617,39.691 136.564,39.978 135.361,39.978 C134.185,39.978 133.143,39.689 132.234,39.111 C131.324,38.534 130.619,37.710 130.116,36.640 C129.614,35.570 129.356,34.332 129.342,32.923 L129.342,31.847 C129.342,30.411 129.592,29.143 130.091,28.042 C130.590,26.942 131.295,26.099 132.208,25.515 C133.121,24.930 134.165,24.638 135.341,24.638 C136.537,24.638 137.591,24.927 138.504,25.505 ZM135.341,26.330 C134.096,26.330 133.117,26.803 132.403,27.750 C131.688,28.697 131.321,30.011 131.301,31.693 L131.301,32.790 C131.301,34.506 131.661,35.854 132.382,36.835 C133.103,37.816 134.096,38.307 135.361,38.307 C136.633,38.307 137.617,37.843 138.314,36.917 C139.011,35.991 139.370,34.663 139.391,32.933 L139.391,31.826 C139.391,30.056 139.035,28.697 138.324,27.750 C137.613,26.803 136.619,26.330 135.341,26.330 ZM128.943,15.123 L126.984,15.123 L126.984,1.803 L122.196,1.803 L122.196,0.193 L133.742,0.193 L133.742,1.803 L128.943,1.803 L128.943,15.123 ZM125.254,25.848 C126.071,26.518 126.480,27.509 126.480,28.822 C126.480,29.519 126.281,30.136 125.885,30.672 C125.488,31.209 124.948,31.625 124.265,31.918 C125.071,32.144 125.709,32.573 126.177,33.205 C126.645,33.838 126.879,34.591 126.879,35.466 C126.879,36.806 126.445,37.859 125.577,38.624 C124.709,39.390 123.482,39.773 121.896,39.773 L116.718,39.773 L116.718,24.843 L121.599,24.843 C123.219,24.843 124.437,25.178 125.254,25.848 ZM118.687,38.163 L121.937,38.163 C122.853,38.163 123.576,37.926 124.106,37.450 C124.635,36.975 124.900,36.321 124.900,35.487 C124.900,33.689 123.923,32.790 121.968,32.790 L118.687,32.790 L118.687,38.163 ZM123.783,27.013 C123.304,26.640 122.576,26.453 121.599,26.453 L118.687,26.453 L118.687,31.211 L121.660,31.211 C122.522,31.211 123.210,30.995 123.726,30.564 C124.242,30.132 124.501,29.546 124.501,28.806 C124.501,27.984 124.261,27.386 123.783,27.013 ZM112.105,12.281 C112.782,13.239 113.728,13.718 114.945,13.718 C116.039,13.718 116.878,13.470 117.463,12.975 C118.047,12.479 118.435,11.616 118.626,10.386 L120.605,10.386 C120.421,11.965 119.838,13.183 118.857,14.041 C117.876,14.899 116.572,15.328 114.945,15.328 C113.182,15.328 111.768,14.696 110.705,13.431 C109.642,12.166 109.111,10.474 109.111,8.355 L109.111,6.920 C109.111,5.532 109.358,4.312 109.854,3.259 C110.350,2.206 111.052,1.398 111.961,0.834 C112.870,0.270 113.923,-0.012 115.120,-0.012 C116.705,-0.012 117.977,0.431 118.934,1.316 C119.891,2.201 120.448,3.427 120.605,4.992 L118.626,4.992 C118.455,3.799 118.085,2.935 117.514,2.400 C116.943,1.865 116.145,1.598 115.120,1.598 C113.862,1.598 112.876,2.063 112.161,2.994 C111.447,3.924 111.090,5.248 111.090,6.965 L111.090,8.412 C111.090,10.034 111.428,11.324 112.105,12.281 ZM101.555,9.278 L98.038,9.278 L98.038,15.123 L96.069,15.123 L96.069,0.193 L101.575,0.193 C103.209,0.193 104.489,0.610 105.415,1.444 C106.341,2.278 106.805,3.382 106.805,4.756 C106.805,6.205 106.352,7.321 105.446,8.104 C104.540,8.887 103.243,9.278 101.555,9.278 ZM103.995,2.635 C103.434,2.101 102.665,1.824 101.688,1.803 L98.038,1.803 L98.038,7.668 L101.575,7.668 C102.628,7.668 103.434,7.420 103.995,6.924 C104.555,6.427 104.836,5.710 104.836,4.772 C104.836,3.881 104.555,3.169 103.995,2.635 ZM99.452,25.966 C100.409,26.851 100.966,28.077 101.123,29.642 L99.144,29.642 C98.973,28.449 98.602,27.585 98.031,27.050 C97.461,26.515 96.663,26.248 95.637,26.248 C94.379,26.248 93.393,26.713 92.679,27.644 C91.964,28.574 91.607,29.898 91.607,31.615 L91.607,33.062 C91.607,34.684 91.946,35.974 92.622,36.931 C93.299,37.889 94.246,38.368 95.463,38.368 C96.556,38.368 97.396,38.120 97.980,37.625 C98.565,37.129 98.953,36.266 99.144,35.036 L101.123,35.036 C100.938,36.615 100.356,37.833 99.375,38.691 C98.394,39.549 97.090,39.978 95.463,39.978 C93.699,39.978 92.286,39.346 91.223,38.081 C90.160,36.816 89.628,35.124 89.628,33.005 L89.628,31.570 C89.628,30.182 89.876,28.962 90.372,27.909 C90.867,26.856 91.570,26.048 92.479,25.484 C93.388,24.920 94.441,24.638 95.637,24.638 C97.223,24.638 98.494,25.081 99.452,25.966 ZM90.259,11.216 L84.004,11.216 L82.599,15.123 L80.569,15.123 L86.270,0.193 L87.993,0.193 L93.704,15.123 L91.684,15.123 L90.259,11.216 ZM87.131,2.623 L84.599,9.606 L89.674,9.606 L87.131,2.623 ZM76.608,15.123 L71.204,8.417 L69.389,8.417 L69.389,15.123 L67.420,15.123 L67.420,0.193 L69.389,0.193 L69.389,6.776 L70.927,6.776 L76.146,0.193 L78.597,0.193 L72.896,7.432 L79.017,15.123 L76.608,15.123 ZM55.304,0.193 L64.686,0.193 L64.686,1.803 L57.273,1.803 L57.273,6.612 L63.743,6.612 L63.743,8.222 L57.273,8.222 L57.273,13.513 L64.789,13.513 L64.789,15.123 L55.304,15.123 L55.304,0.193 ZM57.877,26.094 C58.803,26.928 59.266,28.032 59.266,29.406 C59.266,30.855 58.813,31.971 57.907,32.754 C57.001,33.537 55.704,33.928 54.016,33.928 L50.499,33.928 L50.499,39.773 L48.530,39.773 L48.530,24.843 L54.037,24.843 C55.670,24.843 56.950,25.260 57.877,26.094 ZM54.149,26.453 L50.499,26.453 L50.499,32.318 L54.037,32.318 C55.089,32.318 55.896,32.070 56.456,31.574 C57.017,31.077 57.297,30.360 57.297,29.422 C57.297,28.531 57.017,27.819 56.456,27.285 C55.896,26.751 55.127,26.474 54.149,26.453 ZM49.687,1.803 L44.335,1.803 L44.068,7.724 C43.965,9.708 43.762,11.199 43.458,12.198 C43.154,13.197 42.708,13.931 42.120,14.399 C41.532,14.868 40.746,15.109 39.761,15.123 L39.115,15.123 L39.115,13.513 L39.525,13.492 C40.161,13.445 40.650,13.238 40.992,12.872 C41.333,12.506 41.593,11.924 41.771,11.124 C41.949,10.324 42.075,9.094 42.150,7.432 L42.458,0.193 L51.656,0.193 L51.656,15.123 L49.687,15.123 L49.687,1.803 ZM44.074,25.966 C45.031,26.851 45.588,28.077 45.745,29.642 L43.766,29.642 C43.595,28.449 43.224,27.585 42.653,27.050 C42.083,26.515 41.284,26.248 40.259,26.248 C39.001,26.248 38.015,26.713 37.301,27.644 C36.586,28.574 36.229,29.898 36.229,31.615 L36.229,33.062 C36.229,34.684 36.568,35.974 37.244,36.931 C37.921,37.889 38.868,38.368 40.085,38.368 C41.178,38.368 42.018,38.120 42.602,37.625 C43.187,37.129 43.574,36.266 43.766,35.036 L45.745,35.036 C45.560,36.615 44.977,37.833 43.997,38.691 C43.016,39.549 41.712,39.978 40.085,39.978 C38.321,39.978 36.908,39.346 35.845,38.081 C34.782,36.816 34.250,35.124 34.250,33.005 L34.250,31.570 C34.250,30.182 34.498,28.962 34.994,27.909 C35.489,26.856 36.192,26.048 37.101,25.484 C38.010,24.920 39.063,24.638 40.259,24.638 C41.845,24.638 43.116,25.081 44.074,25.966 ZM39.813,49.493 L39.813,64.423 L37.844,64.423 L37.844,52.918 L30.492,64.423 L28.513,64.423 L28.513,49.493 L30.492,49.493 L30.492,60.998 L37.844,49.493 L39.813,49.493 ZM30.852,74.815 C31.765,74.230 32.809,73.938 33.985,73.938 C35.181,73.938 36.236,74.227 37.148,74.805 C38.061,75.382 38.763,76.220 39.255,77.317 C39.748,78.414 39.994,79.691 39.994,81.147 L39.994,82.090 C39.994,83.553 39.748,84.829 39.255,85.920 C38.763,87.010 38.066,87.842 37.164,88.417 C36.261,88.991 35.209,89.278 34.005,89.278 C32.830,89.278 31.787,88.989 30.878,88.411 C29.969,87.834 29.263,87.010 28.761,85.940 C28.258,84.870 28.000,83.632 27.986,82.223 L27.986,81.147 C27.986,79.711 28.236,78.443 28.735,77.342 C29.234,76.242 29.940,75.399 30.852,74.815 ZM29.945,82.090 C29.945,83.806 30.305,85.154 31.027,86.135 C31.748,87.116 32.741,87.607 34.005,87.607 C35.277,87.607 36.261,87.144 36.959,86.217 C37.656,85.291 38.015,83.963 38.035,82.233 L38.035,81.126 C38.035,79.356 37.680,77.997 36.969,77.050 C36.258,76.103 35.263,75.630 33.985,75.630 C32.741,75.630 31.761,76.103 31.047,77.050 C30.333,77.997 29.965,79.311 29.945,80.993 L29.945,82.090 ZM20.451,83.228 L16.934,83.228 L16.934,89.073 L14.965,89.073 L14.965,74.143 L20.472,74.143 C22.105,74.143 23.385,74.560 24.312,75.394 C25.238,76.228 25.701,77.332 25.701,78.706 C25.701,80.155 25.248,81.271 24.342,82.054 C23.437,82.837 22.139,83.228 20.451,83.228 ZM22.892,76.585 C22.331,76.051 21.562,75.774 20.584,75.753 L16.934,75.753 L16.934,81.618 L20.472,81.618 C21.524,81.618 22.331,81.370 22.892,80.874 C23.452,80.377 23.732,79.660 23.732,78.722 C23.732,77.831 23.452,77.119 22.892,76.585 ZM9.336,75.753 L1.974,75.753 L1.974,89.073 L0.005,89.073 L0.005,74.143 L11.315,74.143 L11.315,89.073 L9.336,89.073 L9.336,75.753 ZM45.788,50.134 C46.697,49.570 47.750,49.288 48.946,49.288 C50.532,49.288 51.803,49.731 52.761,50.616 C53.717,51.501 54.275,52.727 54.432,54.292 L52.453,54.292 C52.282,53.099 51.911,52.235 51.340,51.700 C50.769,51.165 49.971,50.898 48.946,50.898 C47.688,50.898 46.702,51.363 45.988,52.294 C45.273,53.224 44.916,54.548 44.916,56.265 L44.916,57.712 C44.916,59.334 45.255,60.624 45.931,61.581 C46.608,62.539 47.555,63.018 48.772,63.018 C49.865,63.018 50.705,62.770 51.289,62.275 C51.874,61.779 52.261,60.916 52.453,59.686 L54.432,59.686 C54.247,61.265 53.664,62.483 52.684,63.341 C51.703,64.199 50.399,64.628 48.772,64.628 C47.008,64.628 45.595,63.996 44.532,62.731 C43.469,61.466 42.937,59.774 42.937,57.655 L42.937,56.220 C42.937,54.832 43.185,53.612 43.681,52.559 C44.176,51.506 44.879,50.698 45.788,50.134 ZM45.081,80.726 L46.620,80.726 L51.839,74.143 L54.289,74.143 L48.588,81.382 L54.710,89.073 L52.300,89.073 L46.896,82.367 L45.081,82.367 L45.081,89.073 L43.113,89.073 L43.113,74.143 L45.081,74.143 L45.081,80.726 ZM58.207,74.815 C59.119,74.230 60.163,73.938 61.339,73.938 C62.535,73.938 63.590,74.227 64.502,74.805 C65.415,75.382 66.117,76.220 66.610,77.317 C67.102,78.414 67.348,79.691 67.348,81.147 L67.348,82.090 C67.348,83.553 67.102,84.829 66.610,85.920 C66.117,87.010 65.420,87.842 64.518,88.417 C63.615,88.991 62.563,89.278 61.360,89.278 C60.184,89.278 59.141,88.989 58.232,88.411 C57.323,87.834 56.617,87.010 56.115,85.940 C55.612,84.870 55.354,83.632 55.341,82.223 L55.341,81.147 C55.341,79.711 55.590,78.443 56.089,77.342 C56.588,76.242 57.294,75.399 58.207,74.815 ZM57.299,82.090 C57.299,83.806 57.660,85.154 58.381,86.135 C59.102,87.116 60.095,87.607 61.360,87.607 C62.631,87.607 63.615,87.144 64.313,86.217 C65.010,85.291 65.369,83.963 65.389,82.233 L65.389,81.126 C65.389,79.356 65.034,77.997 64.323,77.050 C63.612,76.103 62.617,75.630 61.339,75.630 C60.095,75.630 59.116,76.103 58.401,77.050 C57.687,77.997 57.320,79.311 57.299,80.993 L57.299,82.090 ZM66.596,51.103 L59.234,51.103 L59.234,64.423 L57.265,64.423 L57.265,49.493 L68.575,49.493 L68.575,64.423 L66.596,64.423 L66.596,51.103 ZM71.355,38.163 L71.355,39.773 L61.871,39.773 L61.871,24.843 L71.253,24.843 L71.253,26.453 L63.839,26.453 L63.839,31.262 L70.310,31.262 L70.310,32.872 L63.839,32.872 L63.839,38.163 L71.355,38.163 ZM72.385,80.562 L79.912,80.562 L79.912,74.143 L81.891,74.143 L81.891,89.073 L79.912,89.073 L79.912,82.172 L72.385,82.172 L72.385,89.073 L70.417,89.073 L70.417,74.143 L72.385,74.143 L72.385,80.562 ZM76.530,99.434 C77.439,98.870 78.492,98.588 79.688,98.588 C81.274,98.588 82.545,99.031 83.502,99.916 C84.459,100.801 85.017,102.027 85.174,103.592 L83.195,103.592 C83.024,102.399 82.653,101.535 82.082,101.000 C81.511,100.465 80.713,100.198 79.688,100.198 C78.430,100.198 77.444,100.663 76.730,101.594 C76.015,102.524 75.658,103.848 75.658,105.565 L75.658,107.012 C75.658,108.634 75.997,109.924 76.673,110.881 C77.350,111.839 78.297,112.318 79.514,112.318 C80.607,112.318 81.447,112.070 82.031,111.575 C82.616,111.079 83.003,110.216 83.195,108.986 L85.174,108.986 C84.989,110.565 84.406,111.783 83.426,112.641 C82.445,113.499 81.141,113.928 79.514,113.928 C77.750,113.928 76.337,113.296 75.274,112.031 C74.211,110.766 73.679,109.074 73.679,106.955 L73.679,105.520 C73.679,104.132 73.927,102.912 74.423,101.859 C74.918,100.806 75.621,99.998 76.530,99.434 ZM84.965,80.870 C84.965,79.482 85.213,78.262 85.708,77.209 C86.204,76.156 86.906,75.348 87.815,74.784 C88.725,74.220 89.777,73.938 90.974,73.938 C92.559,73.938 93.831,74.381 94.788,75.266 C95.745,76.151 96.302,77.377 96.459,78.942 L94.480,78.942 C94.310,77.749 93.939,76.885 93.368,76.350 C92.797,75.815 91.999,75.548 90.974,75.548 C89.716,75.548 88.730,76.013 88.015,76.944 C87.301,77.874 86.944,79.198 86.944,80.915 L86.944,82.362 C86.944,83.984 87.282,85.274 87.959,86.231 C88.636,87.189 89.582,87.668 90.799,87.668 C91.893,87.668 92.732,87.420 93.317,86.925 C93.901,86.429 94.289,85.566 94.480,84.336 L96.459,84.336 C96.275,85.915 95.692,87.133 94.711,87.991 C93.730,88.849 92.426,89.278 90.799,89.278 C89.036,89.278 87.622,88.646 86.559,87.381 C85.496,86.116 84.965,84.424 84.965,82.305 L84.965,80.870 ZM88.469,49.493 L97.667,49.493 L97.667,64.423 L95.698,64.423 L95.698,51.103 L90.346,51.103 L90.079,57.024 C89.976,59.008 89.773,60.499 89.469,61.498 C89.165,62.497 88.719,63.231 88.131,63.699 C87.543,64.168 86.757,64.409 85.772,64.423 L85.126,64.423 L85.126,62.813 L85.536,62.792 C86.172,62.745 86.661,62.538 87.003,62.172 C87.345,61.806 87.604,61.224 87.782,60.424 C87.960,59.624 88.086,58.394 88.161,56.732 L88.469,49.493 ZM77.659,49.288 C78.855,49.288 79.910,49.577 80.822,50.155 C81.735,50.732 82.437,51.570 82.929,52.667 C83.422,53.764 83.668,55.041 83.668,56.497 L83.668,57.440 C83.668,58.903 83.422,60.179 82.929,61.270 C82.437,62.360 81.740,63.192 80.838,63.767 C79.935,64.341 78.883,64.628 77.679,64.628 C76.504,64.628 75.461,64.339 74.552,63.761 C73.643,63.184 72.937,62.360 72.435,61.290 C71.932,60.220 71.674,58.982 71.660,57.573 L71.660,56.497 C71.660,55.061 71.910,53.793 72.409,52.692 C72.908,51.592 73.614,50.749 74.526,50.165 C75.439,49.580 76.483,49.288 77.659,49.288 ZM73.619,57.440 C73.619,59.156 73.979,60.504 74.701,61.485 C75.422,62.466 76.415,62.957 77.679,62.957 C78.951,62.957 79.935,62.493 80.633,61.567 C81.330,60.641 81.689,59.313 81.709,57.583 L81.709,56.476 C81.709,54.706 81.354,53.347 80.643,52.400 C79.932,51.453 78.937,50.980 77.659,50.980 C76.415,50.980 75.435,51.453 74.721,52.400 C74.007,53.347 73.639,54.661 73.619,56.343 L73.619,57.440 ZM76.087,35.246 C76.466,34.026 76.704,32.687 76.799,31.231 L77.127,24.843 L86.059,24.843 L86.059,38.163 L88.007,38.163 L87.986,43.433 L86.028,43.433 L86.028,39.773 L75.313,39.773 L75.313,43.444 L73.344,43.444 L73.334,38.163 L74.554,38.163 C75.196,37.438 75.707,36.466 76.087,35.246 ZM84.080,38.163 L84.080,26.453 L79.024,26.453 L78.809,30.846 C78.720,32.563 78.493,34.027 78.127,35.238 C77.761,36.449 77.319,37.424 76.799,38.163 L84.080,38.163 ZM102.016,99.798 C102.832,100.468 103.241,101.459 103.241,102.772 C103.241,103.469 103.042,104.086 102.646,104.622 C102.250,105.159 101.709,105.575 101.026,105.868 C101.833,106.094 102.470,106.523 102.938,107.155 C103.407,107.788 103.641,108.541 103.641,109.416 C103.641,110.756 103.207,111.809 102.339,112.574 C101.470,113.340 100.243,113.723 98.657,113.723 L93.479,113.723 L93.479,98.793 L98.360,98.793 C99.980,98.793 101.199,99.128 102.016,99.798 ZM95.448,112.113 L98.698,112.113 C99.614,112.113 100.337,111.876 100.867,111.400 C101.397,110.925 101.662,110.271 101.662,109.437 C101.662,107.639 100.684,106.740 98.729,106.740 L95.448,106.740 L95.448,112.113 ZM95.448,105.161 L98.422,105.161 C99.283,105.161 99.971,104.945 100.488,104.514 C101.004,104.082 101.262,103.496 101.262,102.756 C101.262,101.934 101.022,101.336 100.544,100.963 C100.066,100.590 99.337,100.403 98.360,100.403 L95.448,100.403 L95.448,105.161 ZM102.314,89.027 C101.900,89.201 101.383,89.288 100.761,89.288 C100.220,89.288 99.875,89.257 99.725,89.196 L99.786,87.637 L100.720,87.678 C101.437,87.678 101.971,87.333 102.319,86.643 L102.576,86.109 L102.965,85.197 L97.879,74.143 L100.084,74.143 L103.950,82.808 L107.385,74.143 L109.671,74.143 L104.390,86.581 C104.035,87.374 103.703,87.936 103.396,88.268 C103.088,88.600 102.728,88.852 102.314,89.027 ZM116.000,100.044 C116.926,100.878 117.389,101.982 117.389,103.356 C117.389,104.805 116.937,105.921 116.031,106.704 C115.125,107.487 113.828,107.878 112.139,107.878 L108.622,107.878 L108.622,113.723 L106.654,113.723 L106.654,98.793 L112.160,98.793 C113.794,98.793 115.074,99.210 116.000,100.044 ZM108.622,106.268 L112.160,106.268 C113.213,106.268 114.019,106.020 114.580,105.524 C115.140,105.027 115.421,104.310 115.421,103.372 C115.421,102.481 115.140,101.769 114.580,101.235 C114.019,100.701 113.250,100.424 112.273,100.403 L108.622,100.403 L108.622,106.268 ZM114.259,26.453 L109.461,26.453 L109.461,39.773 L107.502,39.773 L107.502,26.453 L102.713,26.453 L102.713,24.843 L114.259,24.843 L114.259,26.453 ZM111.771,86.822 C112.113,86.456 112.373,85.874 112.551,85.074 C112.728,84.274 112.855,83.044 112.930,81.382 L113.238,74.143 L122.435,74.143 L122.435,89.073 L120.467,89.073 L120.467,75.753 L115.114,75.753 L114.847,81.674 C114.745,83.658 114.541,85.149 114.237,86.148 C113.933,87.147 113.487,87.881 112.899,88.349 C112.311,88.818 111.525,89.059 110.541,89.073 L109.895,89.073 L109.895,87.463 L110.305,87.442 C110.941,87.395 111.429,87.188 111.771,86.822 ZM106.996,64.423 L101.285,64.423 L101.285,49.493 L103.254,49.493 L103.254,55.584 L106.966,55.584 C108.524,55.604 109.741,56.004 110.616,56.784 C111.491,57.563 111.929,58.623 111.929,59.962 C111.929,61.309 111.488,62.382 110.606,63.182 C109.724,63.982 108.521,64.396 106.996,64.423 ZM109.950,59.937 C109.950,59.094 109.688,58.430 109.165,57.944 C108.642,57.458 107.899,57.208 106.935,57.194 L103.254,57.194 L103.254,62.813 L106.853,62.813 C107.830,62.813 108.591,62.553 109.134,62.032 C109.678,61.512 109.950,60.813 109.950,59.937 ZM124.889,60.257 C124.889,61.598 124.390,62.661 123.392,63.448 C122.394,64.235 121.061,64.628 119.393,64.628 C118.402,64.628 117.501,64.452 116.691,64.100 C115.881,63.748 115.250,63.247 114.799,62.598 C114.348,61.948 114.123,61.176 114.123,60.280 L116.091,60.280 C116.091,61.064 116.402,61.716 117.024,62.237 C117.646,62.758 118.436,63.018 119.393,63.018 C120.466,63.018 121.322,62.769 121.962,62.270 C122.601,61.771 122.920,61.111 122.920,60.291 C122.920,58.541 121.837,57.649 119.670,57.614 L117.824,57.614 L117.824,56.004 L119.660,56.004 C120.658,55.984 121.413,55.758 121.926,55.326 C122.438,54.895 122.695,54.285 122.695,53.497 C122.695,52.703 122.406,52.071 121.828,51.602 C121.251,51.133 120.439,50.898 119.393,50.898 C118.518,50.898 117.785,51.140 117.194,51.624 C116.602,52.108 116.307,52.707 116.307,53.420 L114.338,53.420 C114.338,52.627 114.555,51.917 114.989,51.288 C115.423,50.659 116.030,50.168 116.809,49.816 C117.588,49.464 118.450,49.288 119.393,49.288 C121.061,49.288 122.356,49.662 123.279,50.410 C124.202,51.158 124.664,52.198 124.664,53.530 C124.664,54.221 124.452,54.849 124.028,55.416 C123.604,55.983 123.013,56.431 122.254,56.758 C124.011,57.347 124.889,58.513 124.889,60.257 ZM124.981,98.793 L130.692,113.723 L128.672,113.723 L127.247,109.816 L120.992,109.816 L119.587,113.723 L117.557,113.723 L123.258,98.793 L124.981,98.793 ZM126.663,108.206 L124.120,101.223 L121.587,108.206 L126.663,108.206 ZM133.262,103.530 C133.269,104.570 133.506,105.318 133.975,105.776 C134.443,106.234 135.234,106.463 136.348,106.463 C137.647,106.463 138.970,106.278 140.317,105.909 L140.317,98.793 L142.296,98.793 L142.296,113.723 L140.317,113.723 L140.317,107.529 C139.599,107.735 138.946,107.877 138.358,107.955 C137.770,108.034 137.100,108.073 136.348,108.073 C134.646,108.073 133.382,107.704 132.554,106.967 C131.727,106.229 131.304,105.099 131.283,103.576 L131.283,98.793 L133.262,98.793 L133.262,103.530 ZM128.022,80.234 L131.734,80.234 C133.293,80.254 134.509,80.654 135.385,81.434 C136.259,82.213 136.697,83.273 136.697,84.612 C136.697,85.959 136.256,87.032 135.374,87.832 C134.492,88.632 133.289,89.046 131.765,89.073 L126.053,89.073 L126.053,74.143 L128.022,74.143 L128.022,80.234 ZM128.022,87.463 L131.621,87.463 C132.599,87.463 133.359,87.203 133.903,86.682 C134.446,86.162 134.718,85.463 134.718,84.587 C134.718,83.744 134.457,83.080 133.934,82.594 C133.411,82.108 132.667,81.858 131.703,81.844 L128.022,81.844 L128.022,87.463 ZM130.063,50.165 C130.976,49.580 132.020,49.288 133.196,49.288 C134.392,49.288 135.447,49.577 136.359,50.155 C137.272,50.732 137.974,51.570 138.467,52.667 C138.959,53.764 139.205,55.041 139.205,56.497 L139.205,57.440 C139.205,58.903 138.959,60.179 138.467,61.270 C137.974,62.360 137.277,63.192 136.375,63.767 C135.472,64.341 134.420,64.628 133.217,64.628 C132.041,64.628 130.998,64.339 130.089,63.761 C129.180,63.184 128.474,62.360 127.972,61.290 C127.469,60.220 127.211,58.982 127.197,57.573 L127.197,56.497 C127.197,55.061 127.447,53.793 127.946,52.692 C128.445,51.592 129.151,50.749 130.063,50.165 ZM129.156,57.440 C129.156,59.156 129.516,60.504 130.238,61.485 C130.959,62.466 131.952,62.957 133.217,62.957 C134.488,62.957 135.472,62.493 136.170,61.567 C136.867,60.641 137.226,59.313 137.246,57.583 L137.246,56.476 C137.246,54.706 136.891,53.347 136.180,52.400 C135.469,51.453 134.474,50.980 133.196,50.980 C131.952,50.980 130.973,51.453 130.258,52.400 C129.544,53.347 129.177,54.661 129.156,56.343 L129.156,57.440 ZM141.102,89.073 L141.102,75.753 L136.314,75.753 L136.314,74.143 L147.859,74.143 L147.859,75.753 L143.061,75.753 L143.061,89.073 L141.102,89.073 ZM148.235,99.465 C149.147,98.880 150.191,98.588 151.367,98.588 C152.563,98.588 153.618,98.877 154.531,99.455 C155.443,100.032 156.146,100.870 156.638,101.967 C157.130,103.064 157.376,104.341 157.376,105.797 L157.376,106.740 C157.376,108.203 157.130,109.479 156.638,110.570 C156.146,111.660 155.448,112.492 154.546,113.067 C153.644,113.641 152.591,113.928 151.388,113.928 C150.212,113.928 149.169,113.639 148.260,113.061 C147.351,112.484 146.645,111.660 146.143,110.590 C145.640,109.520 145.382,108.282 145.369,106.873 L145.369,105.797 C145.369,104.361 145.618,103.093 146.117,101.992 C146.616,100.892 147.322,100.049 148.235,99.465 ZM147.327,106.740 C147.327,108.456 147.688,109.804 148.409,110.785 C149.130,111.766 150.123,112.257 151.388,112.257 C152.659,112.257 153.644,111.793 154.341,110.867 C155.038,109.941 155.397,108.613 155.417,106.883 L155.417,105.776 C155.417,104.006 155.062,102.647 154.351,101.700 C153.640,100.753 152.645,100.280 151.367,100.280 C150.123,100.280 149.144,100.753 148.429,101.700 C147.715,102.647 147.348,103.961 147.327,105.643 L147.327,106.740 ZM150.358,89.073 L150.358,74.143 L152.337,74.143 L152.337,85.648 L159.689,74.143 L161.658,74.143 L161.658,89.073 L159.689,89.073 L159.689,77.568 L152.337,89.073 L150.358,89.073 ZM167.868,110.975 L172.749,98.793 L175.303,98.793 L175.303,113.723 L173.334,113.723 L173.334,107.909 L173.518,101.633 L168.617,113.723 L167.110,113.723 L162.219,101.664 L162.413,107.909 L162.413,113.723 L160.445,113.723 L160.445,98.793 L162.988,98.793 L167.868,110.975 ZM165.080,64.423 L163.654,60.516 L157.399,60.516 L155.995,64.423 L153.964,64.423 L159.666,49.493 L161.388,49.493 L167.100,64.423 L165.080,64.423 ZM160.527,51.923 L157.994,58.906 L163.070,58.906 L160.527,51.923 ZM154.763,39.773 L154.763,24.843 L166.073,24.843 L166.073,39.773 L164.094,39.773 L164.094,26.453 L156.732,26.453 L156.732,39.773 L154.763,39.773 ZM170.798,83.228 L167.280,83.228 L167.280,89.073 L165.312,89.073 L165.312,74.143 L170.818,74.143 C172.452,74.143 173.732,74.560 174.658,75.394 C175.584,76.228 176.048,77.332 176.048,78.706 C176.048,80.155 175.595,81.271 174.689,82.054 C173.783,82.837 172.486,83.228 170.798,83.228 ZM173.238,76.585 C172.677,76.051 171.908,75.774 170.931,75.753 L167.280,75.753 L167.280,81.618 L170.818,81.618 C171.871,81.618 172.677,81.370 173.238,80.874 C173.798,80.377 174.079,79.660 174.079,78.722 C174.079,77.831 173.798,77.119 173.238,76.585 ZM180.938,64.423 L178.959,64.423 L178.959,57.522 L171.433,57.522 L171.433,64.423 L169.464,64.423 L169.464,49.493 L171.433,49.493 L171.433,55.912 L178.959,55.912 L178.959,49.493 L180.938,49.493 L180.938,64.423 ZM179.208,38.163 L179.208,39.773 L169.723,39.773 L169.723,24.843 L179.106,24.843 L179.106,26.453 L171.692,26.453 L171.692,31.262 L178.162,31.262 L178.162,32.872 L171.692,32.872 L171.692,38.163 L179.208,38.163 ZM183.557,82.808 L186.992,74.143 L189.278,74.143 L183.997,86.581 C183.642,87.374 183.310,87.936 183.003,88.268 C182.695,88.600 182.335,88.852 181.921,89.027 C181.507,89.201 180.990,89.288 180.368,89.288 C179.827,89.288 179.482,89.257 179.332,89.196 L179.393,87.637 L180.327,87.678 C181.044,87.678 181.578,87.333 181.926,86.643 L182.182,86.109 L182.572,85.197 L177.486,74.143 L179.691,74.143 L183.557,82.808 ZM179.561,111.580 C179.951,111.580 180.246,111.689 180.448,111.908 C180.650,112.127 180.750,112.400 180.750,112.728 C180.750,113.043 180.650,113.306 180.448,113.518 C180.246,113.730 179.951,113.836 179.561,113.836 C179.171,113.836 178.879,113.730 178.684,113.518 C178.489,113.306 178.392,113.043 178.392,112.728 C178.392,112.400 178.489,112.127 178.684,111.908 C178.879,111.689 179.171,111.580 179.561,111.580 ZM193.828,85.648 L201.180,74.143 L203.149,74.143 L203.149,89.073 L201.180,89.073 L201.180,77.568 L193.828,89.073 L191.849,89.073 L191.849,74.143 L193.828,74.143 L193.828,85.648 ZM193.913,52.918 L186.561,64.423 L184.582,64.423 L184.582,49.493 L186.561,49.493 L186.561,60.998 L193.913,49.493 L195.882,49.493 L195.882,64.423 L193.913,64.423 L193.913,52.918 ZM196.422,71.544 C196.682,71.814 197.061,71.949 197.561,71.949 C198.039,71.949 198.413,71.816 198.683,71.549 C198.953,71.282 199.088,70.906 199.088,70.421 L200.626,70.421 C200.626,71.251 200.344,71.919 199.780,72.423 C199.217,72.927 198.476,73.179 197.561,73.179 C196.644,73.179 195.903,72.925 195.335,72.418 C194.768,71.910 194.484,71.244 194.484,70.421 L196.033,70.421 C196.033,70.900 196.162,71.274 196.422,71.544 ZM209.021,62.813 L209.021,64.423 L199.536,64.423 L199.536,49.493 L208.918,49.493 L208.918,51.103 L201.505,51.103 L201.505,55.912 L207.975,55.912 L207.975,57.522 L201.505,57.522 L201.505,62.813 L209.021,62.813 ZM217.232,75.753 L212.433,75.753 L212.433,89.073 L210.474,89.073 L210.474,75.753 L205.686,75.753 L205.686,74.143 L217.232,74.143 L217.232,75.753 Z" class="cls-1"/>
</svg>
