<svg xmlns="http://www.w3.org/2000/svg" xmlns:xlink="http://www.w3.org/1999/xlink" preserveAspectRatio="xMidYMid" width="283" height="96.31" viewBox="0 0 283 96.31">
  <defs>
    <style>
      .cls-1 {
        fill: gray;
        fill-rule: evenodd;
      }
    </style>
  </defs>
  <path d="M282.355,92.995 L282.355,87.016 L282.407,80.886 L279.567,92.995 L279.070,92.995 L276.240,80.933 L276.293,86.978 L276.293,92.995 L275.648,92.995 L275.648,79.264 L276.502,79.264 L279.316,91.382 L282.140,79.264 L282.999,79.264 L282.999,92.995 L282.355,92.995 ZM279.674,53.538 C279.535,53.538 279.425,53.467 279.347,53.326 C279.268,53.184 279.229,53.004 279.229,52.783 C279.229,52.563 279.268,52.376 279.347,52.222 C279.425,52.068 279.535,51.991 279.674,51.991 C279.814,51.991 279.924,52.068 280.004,52.222 C280.085,52.376 280.125,52.563 280.125,52.783 C280.125,53.004 280.085,53.184 280.004,53.326 C279.924,53.467 279.814,53.538 279.674,53.538 ZM277.827,21.945 L273.484,33.696 L272.834,33.696 L272.834,19.965 L273.484,19.965 L273.484,31.706 L277.827,19.965 L278.472,19.965 L278.472,33.696 L277.827,33.696 L277.827,21.945 ZM277.062,39.731 L277.712,39.731 L277.712,53.462 L277.062,53.462 L277.062,46.880 L272.703,46.880 L272.703,53.462 L272.058,53.462 L272.058,39.731 L272.703,39.731 L272.703,45.899 L277.062,45.899 L277.062,39.731 ZM270.770,33.696 L267.611,27.246 L266.563,27.246 L266.563,33.696 L265.919,33.696 L265.919,19.965 L266.563,19.965 L266.563,26.265 L267.579,26.265 L270.529,19.965 L271.341,19.965 L268.208,26.713 L271.572,33.696 L270.770,33.696 ZM270.159,39.731 L270.159,53.462 L269.514,53.462 L269.514,41.712 L265.171,53.462 L264.521,53.462 L264.521,39.731 L265.171,39.731 L265.171,51.473 L269.514,39.731 L270.159,39.731 ZM262.015,33.696 L261.370,33.696 L261.370,20.946 L258.761,20.946 L258.761,19.965 L264.629,19.965 L264.629,20.946 L262.015,20.946 L262.015,33.696 ZM256.737,33.112 C256.287,33.627 255.766,33.885 255.176,33.885 C254.285,33.885 253.566,33.311 253.017,32.164 C252.469,31.016 252.195,29.468 252.195,27.519 L252.195,26.104 C252.195,24.853 252.318,23.745 252.564,22.780 C252.811,21.815 253.159,21.073 253.610,20.554 C254.060,20.036 254.579,19.776 255.166,19.776 C255.752,19.776 256.270,20.031 256.719,20.540 C257.168,21.049 257.515,21.769 257.759,22.700 C258.004,23.630 258.131,24.709 258.142,25.935 L258.142,27.576 C258.142,28.839 258.020,29.949 257.777,30.905 C257.535,31.860 257.188,32.596 256.737,33.112 ZM257.497,26.086 C257.497,24.432 257.289,23.137 256.874,22.200 C256.458,21.263 255.889,20.795 255.166,20.795 C254.457,20.795 253.892,21.265 253.471,22.205 C253.050,23.145 252.839,24.457 252.839,26.142 L252.839,27.576 C252.839,29.204 253.049,30.494 253.468,31.447 C253.887,32.400 254.457,32.876 255.176,32.876 C255.906,32.876 256.475,32.406 256.884,31.466 C257.293,30.526 257.497,29.217 257.497,27.538 L257.497,26.086 ZM248.326,33.696 L245.806,33.696 L245.806,19.965 L250.406,19.965 L250.406,20.946 L246.455,20.946 L246.455,25.925 L248.347,25.925 C248.867,25.925 249.318,26.081 249.698,26.392 C250.079,26.703 250.370,27.150 250.571,27.731 C250.772,28.313 250.872,29.000 250.872,29.792 C250.872,31.005 250.647,31.960 250.196,32.654 C249.746,33.349 249.122,33.696 248.326,33.696 ZM249.740,27.695 C249.419,27.182 248.968,26.919 248.389,26.906 L246.455,26.906 L246.455,32.715 L248.341,32.715 C248.932,32.715 249.393,32.453 249.725,31.927 C250.056,31.401 250.222,30.681 250.222,29.768 C250.222,28.899 250.062,28.208 249.740,27.695 ZM243.140,29.839 L239.677,29.839 L238.891,33.696 L238.215,33.696 L241.102,19.965 L241.715,19.965 L244.602,33.696 L243.931,33.696 L243.140,29.839 ZM241.406,21.380 L239.876,28.858 L242.936,28.858 L241.406,21.380 ZM235.558,28.104 L233.620,28.104 L233.620,33.696 L232.975,33.696 L232.975,19.965 L235.574,19.965 C236.367,19.965 236.993,20.330 237.452,21.059 C237.912,21.788 238.141,22.791 238.141,24.067 C238.141,25.356 237.920,26.351 237.479,27.052 C237.037,27.753 236.397,28.104 235.558,28.104 ZM237.007,21.810 C236.680,21.247 236.217,20.958 235.616,20.946 L233.620,20.946 L233.620,27.123 L235.574,27.123 C236.199,27.123 236.676,26.855 237.004,26.320 C237.333,25.785 237.497,25.039 237.497,24.082 C237.497,23.131 237.334,22.374 237.007,21.810 ZM228.926,33.696 L226.406,33.696 L226.406,19.965 L231.006,19.965 L231.006,20.946 L227.055,20.946 L227.055,25.925 L228.947,25.925 C229.467,25.925 229.918,26.081 230.298,26.392 C230.679,26.703 230.970,27.150 231.171,27.731 C231.372,28.313 231.472,29.000 231.472,29.792 C231.472,31.005 231.247,31.960 230.796,32.654 C230.346,33.349 229.722,33.696 228.926,33.696 ZM230.340,27.695 C230.019,27.182 229.568,26.919 228.989,26.906 L227.055,26.906 L227.055,32.715 L228.941,32.715 C229.532,32.715 229.993,32.453 230.325,31.927 C230.656,31.401 230.822,30.681 230.822,29.768 C230.822,28.899 230.662,28.208 230.340,27.695 ZM229.587,60.478 L225.510,60.478 L225.510,65.665 L229.078,65.665 L229.078,66.646 L225.510,66.646 L225.510,72.248 L229.613,72.248 L229.613,73.229 L224.866,73.229 L224.866,59.497 L229.587,59.497 L229.587,60.478 ZM223.409,33.112 C222.958,33.627 222.438,33.885 221.847,33.885 C220.957,33.885 220.237,33.311 219.689,32.164 C219.140,31.016 218.866,29.468 218.866,27.519 L218.866,26.104 C218.866,24.853 218.989,23.745 219.235,22.780 C219.482,21.815 219.830,21.073 220.281,20.554 C220.731,20.036 221.250,19.776 221.837,19.776 C222.424,19.776 222.941,20.031 223.390,20.540 C223.839,21.049 224.186,21.769 224.430,22.700 C224.675,23.630 224.802,24.709 224.813,25.935 L224.813,27.576 C224.813,28.839 224.691,29.949 224.449,30.905 C224.206,31.860 223.859,32.596 223.409,33.112 ZM224.168,26.086 C224.168,24.432 223.960,23.137 223.545,22.200 C223.129,21.263 222.560,20.795 221.837,20.795 C221.128,20.795 220.563,21.265 220.142,22.205 C219.721,23.145 219.510,24.457 219.510,26.142 L219.510,27.576 C219.510,29.204 219.720,30.494 220.139,31.447 C220.558,32.400 221.128,32.876 221.847,32.876 C222.577,32.876 223.147,32.406 223.555,31.466 C223.964,30.526 224.168,29.217 224.168,27.538 L224.168,26.086 ZM219.503,51.473 L223.847,39.731 L224.491,39.731 L224.491,53.462 L223.847,53.462 L223.847,41.712 L219.503,53.462 L218.854,53.462 L218.854,39.731 L219.503,39.731 L219.503,51.473 ZM223.587,60.478 L220.972,60.478 L220.972,73.229 L220.328,73.229 L220.328,60.478 L217.718,60.478 L217.718,59.497 L223.587,59.497 L223.587,60.478 ZM217.311,72.187 C216.860,72.881 216.237,73.229 215.440,73.229 L212.925,73.229 L212.925,59.497 L213.570,59.497 L213.570,65.458 L215.461,65.458 C215.982,65.458 216.432,65.613 216.813,65.924 C217.194,66.236 217.485,66.682 217.685,67.264 C217.886,67.845 217.987,68.532 217.987,69.324 C217.987,70.538 217.761,71.492 217.311,72.187 ZM216.855,67.227 C216.534,66.714 216.083,66.451 215.503,66.438 L213.570,66.438 L213.570,72.248 L215.456,72.248 C216.046,72.248 216.507,71.985 216.839,71.459 C217.171,70.933 217.337,70.214 217.337,69.301 C217.337,68.432 217.176,67.740 216.855,67.227 ZM214.461,14.006 C214.321,14.006 214.212,13.935 214.134,13.793 C214.055,13.652 214.016,13.471 214.016,13.251 C214.016,13.031 214.055,12.844 214.134,12.690 C214.212,12.536 214.321,12.459 214.461,12.459 C214.601,12.459 214.711,12.536 214.791,12.690 C214.872,12.844 214.912,13.031 214.912,13.251 C214.912,13.471 214.872,13.652 214.791,13.793 C214.711,13.935 214.601,14.006 214.461,14.006 ZM214.392,33.696 L213.747,33.696 L213.747,21.945 L209.404,33.696 L208.754,33.696 L208.754,19.965 L209.404,19.965 L209.404,31.706 L213.747,19.965 L214.392,19.965 L214.392,33.696 ZM211.615,19.012 C211.161,19.012 210.795,18.791 210.517,18.348 C210.240,17.904 210.101,17.318 210.101,16.589 L210.635,16.589 C210.635,17.111 210.722,17.510 210.895,17.786 C211.067,18.063 211.308,18.201 211.615,18.201 C211.922,18.201 212.162,18.057 212.335,17.768 C212.508,17.478 212.595,17.085 212.595,16.589 L213.129,16.589 C213.129,17.312 212.992,17.896 212.718,18.343 C212.444,18.789 212.076,19.012 211.615,19.012 ZM211.567,13.345 C211.117,13.861 210.596,14.119 210.006,14.119 C209.115,14.119 208.396,13.545 207.847,12.398 C207.299,11.250 207.025,9.702 207.025,7.753 L207.025,6.338 C207.025,5.087 207.148,3.979 207.394,3.014 C207.640,2.049 207.989,1.307 208.439,0.788 C208.890,0.269 209.409,0.010 209.996,0.010 C210.582,0.010 211.100,0.265 211.549,0.774 C211.998,1.283 212.345,2.003 212.589,2.934 C212.833,3.864 212.961,4.942 212.972,6.168 L212.972,7.809 C212.972,9.073 212.850,10.183 212.607,11.139 C212.365,12.094 212.018,12.830 211.567,13.345 ZM212.327,6.319 C212.327,4.666 212.119,3.371 211.704,2.434 C211.288,1.497 210.719,1.029 209.996,1.029 C209.286,1.029 208.721,1.499 208.301,2.439 C207.880,3.379 207.669,4.691 207.669,6.376 L207.669,7.809 C207.669,9.438 207.879,10.728 208.298,11.681 C208.717,12.633 209.286,13.110 210.006,13.110 C210.736,13.110 211.305,12.640 211.714,11.700 C212.123,10.760 212.327,9.450 212.327,7.772 L212.327,6.319 ZM207.132,27.576 C207.132,28.839 207.010,29.949 206.768,30.905 C206.525,31.860 206.178,32.596 205.728,33.112 C205.277,33.627 204.756,33.885 204.166,33.885 C203.275,33.885 202.556,33.311 202.008,32.164 C201.459,31.016 201.185,29.468 201.185,27.519 L201.185,26.104 C201.185,24.853 201.308,23.745 201.554,22.780 C201.801,21.815 202.149,21.073 202.600,20.554 C203.050,20.036 203.569,19.776 204.156,19.776 C204.743,19.776 205.260,20.031 205.709,20.540 C206.158,21.049 206.505,21.769 206.749,22.700 C206.994,23.630 207.121,24.709 207.132,25.935 L207.132,27.576 ZM206.487,26.086 C206.487,24.432 206.279,23.137 205.864,22.200 C205.448,21.263 204.879,20.795 204.156,20.795 C203.447,20.795 202.882,21.265 202.461,22.205 C202.040,23.145 201.829,24.457 201.829,26.142 L201.829,27.576 C201.829,29.204 202.039,30.494 202.458,31.447 C202.877,32.400 203.447,32.876 204.166,32.876 C204.896,32.876 205.466,32.406 205.874,31.466 C206.283,30.526 206.487,29.217 206.487,27.538 L206.487,26.086 ZM205.777,10.066 C205.777,11.278 205.559,12.226 205.124,12.907 C204.690,13.589 204.084,13.930 203.309,13.930 L200.757,13.930 L200.757,0.199 L203.010,0.199 C203.828,0.199 204.448,0.502 204.870,1.109 C205.293,1.717 205.504,2.611 205.504,3.794 C205.504,4.505 205.397,5.123 205.182,5.648 C204.967,6.174 204.673,6.550 204.299,6.776 C204.743,6.952 205.100,7.345 205.371,7.954 C205.641,8.564 205.777,9.268 205.777,10.066 ZM204.412,5.672 C204.707,5.234 204.855,4.597 204.855,3.759 C204.855,2.877 204.702,2.227 204.396,1.808 C204.091,1.389 203.629,1.180 203.010,1.180 L201.402,1.180 L201.402,6.357 L203.162,6.357 C203.700,6.338 204.117,6.110 204.412,5.672 ZM204.669,8.077 C204.360,7.584 203.933,7.338 203.388,7.338 L201.402,7.338 L201.402,12.949 L203.335,12.949 C203.887,12.949 204.325,12.697 204.648,12.191 C204.971,11.686 205.132,10.985 205.132,10.087 C205.132,9.240 204.978,8.570 204.669,8.077 ZM200.801,33.696 L200.000,33.696 L196.840,27.246 L195.792,27.246 L195.792,33.696 L195.148,33.696 L195.148,19.965 L195.792,19.965 L195.792,26.265 L196.809,26.265 L199.759,19.965 L200.571,19.965 L197.438,26.713 L200.801,33.696 ZM196.863,13.930 L196.219,13.930 L196.219,1.180 L193.610,1.180 L193.610,0.199 L199.478,0.199 L199.478,1.180 L196.863,1.180 L196.863,13.930 ZM188.454,11.722 C188.854,12.666 189.395,13.138 190.076,13.138 C190.750,13.138 191.258,12.847 191.600,12.266 C191.943,11.684 192.154,10.812 192.234,9.648 L192.884,9.648 C192.797,11.095 192.509,12.201 192.022,12.968 C191.535,13.735 190.886,14.119 190.076,14.119 C189.510,14.119 189.010,13.864 188.575,13.355 C188.140,12.846 187.804,12.124 187.566,11.190 C187.329,10.257 187.208,9.190 187.205,7.989 L187.205,6.206 C187.205,4.987 187.323,3.905 187.561,2.962 C187.798,2.019 188.140,1.291 188.585,0.779 C189.030,0.266 189.543,0.010 190.123,0.010 C190.940,0.010 191.585,0.406 192.059,1.198 C192.532,1.991 192.807,3.088 192.884,4.490 L192.234,4.490 C192.074,2.157 191.370,0.991 190.123,0.991 C189.431,0.991 188.880,1.457 188.470,2.388 C188.059,3.319 187.854,4.606 187.854,6.248 L187.854,7.928 C187.854,9.514 188.054,10.778 188.454,11.722 ZM182.276,19.965 L186.997,19.965 L186.997,20.946 L182.920,20.946 L182.920,26.133 L186.488,26.133 L186.488,27.114 L182.920,27.114 L182.920,32.715 L187.023,32.715 L187.023,33.696 L182.276,33.696 L182.276,19.965 ZM185.638,17.259 L185.638,13.930 L179.885,13.930 L179.885,17.259 L179.240,17.259 L179.240,12.949 L179.748,12.949 C180.136,12.220 180.450,11.156 180.689,9.757 C180.928,8.358 181.072,6.826 181.121,5.159 L181.257,0.199 L185.475,0.199 L185.475,12.949 L186.287,12.949 L186.282,17.259 L185.638,17.259 ZM184.831,1.180 L181.876,1.180 L181.771,5.115 C181.725,6.751 181.592,8.258 181.370,9.636 C181.148,11.014 180.857,12.119 180.498,12.949 L184.831,12.949 L184.831,1.180 ZM179.740,19.965 L180.390,19.965 L180.390,33.696 L179.740,33.696 L179.740,27.444 C179.024,27.802 178.336,27.981 177.676,27.981 C176.810,27.981 176.170,27.645 175.758,26.973 C175.346,26.301 175.135,25.268 175.124,23.874 L175.124,19.965 L175.774,19.965 L175.774,23.813 C175.778,24.926 175.930,25.735 176.233,26.241 C176.535,26.747 177.016,27.000 177.676,27.000 C178.343,27.000 179.031,26.821 179.740,26.463 L179.740,19.965 ZM173.438,0.199 L178.158,0.199 L178.158,1.180 L174.082,1.180 L174.082,6.367 L177.650,6.367 L177.650,7.347 L174.082,7.347 L174.082,12.949 L178.185,12.949 L178.185,13.930 L173.438,13.930 L173.438,0.199 ZM173.525,33.696 L172.881,33.696 L172.881,21.945 L168.537,33.696 L167.887,33.696 L167.887,19.965 L168.537,19.965 L168.537,31.706 L172.881,19.965 L173.525,19.965 L173.525,33.696 ZM169.475,8.338 L167.536,8.338 L167.536,13.930 L166.892,13.930 L166.892,0.199 L169.491,0.199 C170.284,0.199 170.910,0.563 171.369,1.293 C171.828,2.022 172.058,3.025 172.058,4.301 C172.058,5.590 171.837,6.585 171.395,7.286 C170.953,7.987 170.313,8.338 169.475,8.338 ZM170.924,2.044 C170.597,1.480 170.133,1.192 169.533,1.180 L167.536,1.180 L167.536,7.357 L169.491,7.357 C170.116,7.357 170.593,7.089 170.921,6.554 C171.249,6.019 171.414,5.273 171.414,4.315 C171.414,3.365 171.250,2.607 170.924,2.044 ZM167.268,51.689 L167.268,52.868 C167.268,54.176 167.024,55.229 166.535,56.028 L166.163,55.537 C166.480,54.770 166.645,53.975 166.655,53.151 L166.655,51.689 L167.268,51.689 ZM163.983,33.696 L163.339,33.696 L163.339,20.946 L160.730,20.946 L160.730,19.965 L166.598,19.965 L166.598,20.946 L163.983,20.946 L163.983,33.696 ZM160.953,11.722 C161.353,12.666 161.894,13.138 162.575,13.138 C163.249,13.138 163.757,12.847 164.100,12.266 C164.442,11.684 164.653,10.812 164.734,9.648 L165.383,9.648 C165.296,11.095 165.009,12.201 164.522,12.968 C164.034,13.735 163.385,14.119 162.575,14.119 C162.009,14.119 161.509,13.864 161.074,13.355 C160.639,12.846 160.303,12.124 160.065,11.190 C159.828,10.257 159.707,9.190 159.704,7.989 L159.704,6.206 C159.704,4.987 159.823,3.905 160.060,2.962 C160.298,2.019 160.639,1.291 161.084,0.779 C161.530,0.266 162.042,0.010 162.622,0.010 C163.440,0.010 164.085,0.406 164.558,1.198 C165.031,1.991 165.307,3.088 165.383,4.490 L164.734,4.490 C164.573,2.157 163.869,0.991 162.622,0.991 C161.931,0.991 161.380,1.457 160.969,2.388 C160.559,3.319 160.354,4.606 160.354,6.248 L160.354,7.928 C160.354,9.514 160.554,10.778 160.953,11.722 ZM158.794,20.946 L154.476,20.946 L154.476,33.696 L153.832,33.696 L153.832,19.965 L159.438,19.965 L159.438,33.696 L158.794,33.696 L158.794,20.946 ZM151.054,0.199 L155.775,0.199 L155.775,1.180 L151.698,1.180 L151.698,6.367 L155.266,6.367 L155.266,7.347 L151.698,7.347 L151.698,12.949 L155.801,12.949 L155.801,13.930 L151.054,13.930 L151.054,0.199 ZM148.037,13.345 C147.587,13.861 147.066,14.119 146.476,14.119 C145.585,14.119 144.866,13.545 144.317,12.398 C143.769,11.250 143.495,9.702 143.495,7.753 L143.495,6.338 C143.495,5.087 143.618,3.979 143.864,3.014 C144.110,2.049 144.459,1.307 144.909,0.788 C145.360,0.269 145.879,0.010 146.466,0.010 C147.052,0.010 147.570,0.265 148.019,0.774 C148.468,1.283 148.815,2.003 149.059,2.934 C149.304,3.864 149.431,4.942 149.442,6.168 L149.442,7.809 C149.442,9.073 149.320,10.183 149.077,11.139 C148.835,12.094 148.488,12.830 148.037,13.345 ZM148.797,6.319 C148.797,4.666 148.589,3.371 148.174,2.434 C147.758,1.497 147.189,1.029 146.466,1.029 C145.756,1.029 145.192,1.499 144.771,2.439 C144.350,3.379 144.139,4.691 144.139,6.376 L144.139,7.809 C144.139,9.438 144.349,10.728 144.768,11.681 C145.187,12.633 145.756,13.110 146.476,13.110 C147.206,13.110 147.775,12.640 148.184,11.700 C148.593,10.760 148.797,9.450 148.797,7.772 L148.797,6.319 ZM145.401,20.965 C145.875,21.757 146.150,22.854 146.226,24.256 L145.577,24.256 C145.416,21.923 144.712,20.757 143.465,20.757 C142.774,20.757 142.223,21.223 141.812,22.154 C141.402,23.085 141.197,24.372 141.197,26.014 L141.197,27.694 C141.197,29.280 141.397,30.545 141.797,31.488 C142.197,32.432 142.737,32.904 143.418,32.904 C144.092,32.904 144.600,32.613 144.943,32.032 C145.285,31.450 145.496,30.578 145.577,29.415 L146.226,29.415 C146.139,30.861 145.852,31.967 145.365,32.734 C144.877,33.501 144.228,33.885 143.418,33.885 C142.852,33.885 142.352,33.630 141.917,33.121 C141.482,32.612 141.146,31.890 140.909,30.957 C140.671,30.023 140.550,28.956 140.547,27.755 L140.547,25.972 C140.547,24.753 140.666,23.671 140.903,22.728 C141.141,21.785 141.482,21.057 141.928,20.545 C142.373,20.033 142.885,19.776 143.465,19.776 C144.283,19.776 144.928,20.172 145.401,20.965 ZM141.237,7.347 L136.878,7.347 L136.878,13.930 L136.234,13.930 L136.234,0.199 L136.878,0.199 L136.878,6.367 L141.237,6.367 L141.237,0.199 L141.887,0.199 L141.887,13.930 L141.237,13.930 L141.237,7.347 ZM133.698,7.347 L129.339,7.347 L129.339,13.930 L128.694,13.930 L128.694,0.199 L129.339,0.199 L129.339,6.367 L133.698,6.367 L133.698,0.199 L134.348,0.199 L134.348,13.930 L133.698,13.930 L133.698,7.347 ZM122.608,0.199 L127.328,0.199 L127.328,1.180 L123.252,1.180 L123.252,6.367 L126.820,6.367 L126.820,7.347 L123.252,7.347 L123.252,12.949 L127.355,12.949 L127.355,13.930 L122.608,13.930 L122.608,0.199 ZM121.085,10.066 C121.085,11.278 120.867,12.226 120.433,12.907 C119.998,13.589 119.393,13.930 118.617,13.930 L116.066,13.930 L116.066,0.199 L118.318,0.199 C119.136,0.199 119.756,0.502 120.178,1.109 C120.601,1.717 120.812,2.611 120.812,3.794 C120.812,4.505 120.705,5.123 120.490,5.648 C120.275,6.174 119.981,6.550 119.607,6.776 C120.051,6.952 120.408,7.345 120.679,7.954 C120.949,8.564 121.085,9.268 121.085,10.066 ZM119.720,5.672 C120.015,5.234 120.163,4.597 120.163,3.759 C120.163,2.877 120.010,2.227 119.704,1.808 C119.399,1.389 118.937,1.180 118.318,1.180 L116.710,1.180 L116.710,6.357 L118.470,6.357 C119.008,6.338 119.425,6.110 119.720,5.672 ZM119.977,8.077 C119.668,7.584 119.241,7.338 118.696,7.338 L116.710,7.338 L116.710,12.949 L118.643,12.949 C119.195,12.949 119.633,12.697 119.956,12.191 C120.279,11.686 120.440,10.985 120.440,10.087 C120.440,9.240 120.286,8.570 119.977,8.077 ZM117.281,33.696 L116.490,29.839 L113.027,29.839 L112.241,33.696 L111.565,33.696 L114.452,19.965 L115.065,19.965 L117.952,33.696 L117.281,33.696 ZM114.756,21.380 L113.226,28.858 L116.286,28.858 L114.756,21.380 ZM112.172,13.930 L111.527,13.930 L111.527,1.180 L108.918,1.180 L108.918,0.199 L114.786,0.199 L114.786,1.180 L112.172,1.180 L112.172,13.930 ZM103.762,11.722 C104.162,12.666 104.703,13.138 105.384,13.138 C106.058,13.138 106.566,12.847 106.908,12.266 C107.251,11.684 107.462,10.812 107.542,9.648 L108.192,9.648 C108.105,11.095 107.817,12.201 107.330,12.968 C106.843,13.735 106.194,14.119 105.384,14.119 C104.818,14.119 104.318,13.864 103.883,13.355 C103.448,12.846 103.112,12.124 102.874,11.190 C102.637,10.257 102.516,9.190 102.513,7.989 L102.513,6.206 C102.513,4.987 102.631,3.905 102.869,2.962 C103.106,2.019 103.448,1.291 103.893,0.779 C104.339,0.266 104.851,0.010 105.431,0.010 C106.248,0.010 106.894,0.406 107.367,1.198 C107.840,1.991 108.115,3.088 108.192,4.490 L107.542,4.490 C107.382,2.157 106.678,0.991 105.431,0.991 C104.739,0.991 104.188,1.457 103.778,2.388 C103.367,3.319 103.162,4.606 103.162,6.248 L103.162,7.928 C103.162,9.514 103.362,10.778 103.762,11.722 ZM103.177,26.380 C102.918,25.758 102.789,24.998 102.789,24.100 C102.789,22.807 103.017,21.794 103.473,21.062 C103.929,20.331 104.571,19.965 105.398,19.965 L107.714,19.965 L107.714,33.696 L107.065,33.696 L107.065,28.094 L104.869,28.094 L103.203,33.696 L102.506,33.696 L104.303,27.774 C103.811,27.466 103.435,27.002 103.177,26.380 ZM105.215,27.114 L107.065,27.114 L107.065,20.946 L105.377,20.946 C104.756,20.946 104.276,21.218 103.939,21.763 C103.602,22.307 103.434,23.084 103.434,24.091 C103.434,24.998 103.592,25.728 103.908,26.282 C104.224,26.836 104.660,27.114 105.215,27.114 ZM102.138,46.818 C101.696,47.520 101.056,47.870 100.218,47.870 L98.279,47.870 L98.279,53.462 L97.635,53.462 L97.635,39.731 L100.234,39.731 C101.027,39.731 101.653,40.096 102.112,40.825 C102.571,41.555 102.801,42.557 102.801,43.834 C102.801,45.122 102.580,46.117 102.138,46.818 ZM101.667,41.576 C101.340,41.013 100.876,40.725 100.276,40.712 L98.279,40.712 L98.279,46.889 L100.234,46.889 C100.859,46.889 101.336,46.622 101.664,46.086 C101.992,45.551 102.156,44.805 102.156,43.848 C102.156,42.897 101.993,42.140 101.667,41.576 ZM98.710,8.338 L96.771,8.338 L96.771,13.930 L96.127,13.930 L96.127,0.199 L98.725,0.199 C99.518,0.199 100.144,0.563 100.604,1.293 C101.063,2.022 101.293,3.025 101.293,4.301 C101.293,5.590 101.072,6.585 100.630,7.286 C100.188,7.987 99.548,8.338 98.710,8.338 ZM100.158,2.044 C99.832,1.480 99.368,1.192 98.767,1.180 L96.771,1.180 L96.771,7.357 L98.725,7.357 C99.350,7.357 99.827,7.089 100.156,6.554 C100.484,6.019 100.648,5.273 100.648,4.315 C100.648,3.365 100.485,2.607 100.158,2.044 ZM96.451,26.345 L96.640,19.965 L101.120,19.965 L101.120,33.696 L100.475,33.696 L100.475,20.946 L97.253,20.946 L97.075,26.627 C97.005,28.660 96.898,30.137 96.753,31.058 C96.608,31.980 96.402,32.647 96.134,33.059 C95.867,33.471 95.505,33.684 95.047,33.696 L94.775,33.696 L94.775,32.725 L94.984,32.715 C95.344,32.684 95.615,32.480 95.796,32.102 C95.978,31.724 96.119,31.113 96.218,30.266 C96.318,29.420 96.395,28.113 96.451,26.345 ZM93.442,10.073 L89.978,10.073 L89.193,13.930 L88.517,13.930 L91.404,0.199 L92.017,0.199 L94.903,13.930 L94.233,13.930 L93.442,10.073 ZM91.707,1.613 L90.178,9.092 L93.237,9.092 L91.707,1.613 ZM88.792,19.965 L93.009,19.965 L93.009,32.715 L93.821,32.715 L93.816,37.025 L93.172,37.025 L93.172,33.696 L87.419,33.696 L87.419,37.025 L86.774,37.025 L86.774,32.715 L87.283,32.715 C87.670,31.986 87.984,30.922 88.223,29.523 C88.462,28.124 88.606,26.592 88.655,24.926 L88.792,19.965 ZM88.032,32.715 L92.365,32.715 L92.365,20.946 L89.410,20.946 L89.305,24.882 C89.260,26.518 89.126,28.025 88.904,29.403 C88.682,30.781 88.392,31.885 88.032,32.715 ZM86.849,13.930 L83.690,7.479 L82.642,7.479 L82.642,13.930 L81.998,13.930 L81.998,0.199 L82.642,0.199 L82.642,6.499 L83.659,6.499 L86.608,0.199 L87.420,0.199 L84.287,6.947 L87.651,13.930 L86.849,13.930 ZM75.901,0.199 L80.622,0.199 L80.622,1.180 L76.545,1.180 L76.545,6.367 L80.113,6.367 L80.113,7.347 L76.545,7.347 L76.545,12.949 L80.648,12.949 L80.648,13.930 L75.901,13.930 L75.901,0.199 ZM75.792,24.256 C75.632,21.923 74.928,20.757 73.681,20.757 C72.989,20.757 72.438,21.223 72.028,22.154 C71.617,23.085 71.412,24.372 71.412,26.014 L71.412,27.694 C71.412,29.280 71.612,30.545 72.012,31.488 C72.412,32.432 72.953,32.904 73.634,32.904 C74.308,32.904 74.816,32.613 75.158,32.032 C75.501,31.450 75.712,30.578 75.792,29.415 L76.442,29.415 C76.355,30.861 76.067,31.967 75.580,32.734 C75.093,33.501 74.444,33.885 73.634,33.885 C73.068,33.885 72.568,33.630 72.133,33.121 C71.698,32.612 71.362,31.890 71.124,30.957 C70.887,30.023 70.766,28.956 70.763,27.755 L70.763,25.972 C70.763,24.753 70.881,23.671 71.119,22.728 C71.356,21.785 71.698,21.057 72.143,20.545 C72.589,20.033 73.101,19.776 73.681,19.776 C74.498,19.776 75.144,20.172 75.617,20.965 C76.090,21.757 76.365,22.854 76.442,24.256 L75.792,24.256 ZM73.368,1.180 L70.146,1.180 L69.968,6.861 C69.898,8.894 69.791,10.371 69.646,11.292 C69.501,12.214 69.295,12.881 69.028,13.293 C68.760,13.705 68.398,13.918 67.940,13.930 L67.668,13.930 L67.668,12.959 L67.878,12.949 C68.237,12.918 68.508,12.713 68.690,12.336 C68.871,11.958 69.012,11.346 69.111,10.500 C69.211,9.654 69.289,8.347 69.345,6.579 L69.533,0.199 L74.013,0.199 L74.013,13.930 L73.368,13.930 L73.368,1.180 ZM70.119,20.946 L67.505,20.946 L67.505,33.696 L66.860,33.696 L66.860,20.946 L64.251,20.946 L64.251,19.965 L70.119,19.965 L70.119,20.946 ZM59.444,51.255 C59.844,52.198 60.385,52.670 61.066,52.670 C61.740,52.670 62.248,52.380 62.591,51.798 C62.933,51.216 63.144,50.344 63.224,49.181 L63.874,49.181 C63.787,50.627 63.500,51.734 63.012,52.501 C62.525,53.268 61.876,53.651 61.066,53.651 C60.500,53.651 60.000,53.396 59.565,52.887 C59.130,52.378 58.794,51.656 58.556,50.723 C58.319,49.789 58.198,48.722 58.195,47.521 L58.195,45.739 C58.195,44.519 58.313,43.437 58.551,42.494 C58.788,41.551 59.130,40.824 59.575,40.311 C60.021,39.799 60.533,39.543 61.113,39.543 C61.930,39.543 62.576,39.939 63.049,40.731 C63.522,41.523 63.797,42.620 63.874,44.022 L63.224,44.022 C63.064,41.690 62.360,40.523 61.113,40.523 C60.421,40.523 59.870,40.989 59.460,41.920 C59.050,42.852 58.844,44.138 58.844,45.780 L58.844,47.460 C58.844,49.046 59.044,50.311 59.444,51.255 ZM58.515,19.965 L63.235,19.965 L63.235,20.946 L59.159,20.946 L59.159,26.133 L62.727,26.133 L62.727,27.114 L59.159,27.114 L59.159,32.715 L63.262,32.715 L63.262,33.696 L58.515,33.696 L58.515,19.965 ZM59.668,63.600 C59.668,64.889 59.447,65.884 59.006,66.585 C58.564,67.286 57.924,67.636 57.085,67.636 L55.147,67.636 L55.147,73.229 L54.502,73.229 L54.502,59.497 L57.101,59.497 C57.894,59.497 58.520,59.862 58.979,60.591 C59.439,61.321 59.668,62.323 59.668,63.600 ZM57.143,60.478 L55.147,60.478 L55.147,66.655 L57.101,66.655 C57.726,66.655 58.203,66.388 58.531,65.853 C58.860,65.317 59.024,64.571 59.024,63.614 C59.024,62.663 58.861,61.906 58.534,61.342 C58.207,60.779 57.744,60.491 57.143,60.478 ZM55.455,52.878 C55.004,53.393 54.484,53.651 53.893,53.651 C53.003,53.651 52.283,53.077 51.735,51.930 C51.186,50.783 50.912,49.234 50.912,47.285 L50.912,45.871 C50.912,44.620 51.035,43.511 51.282,42.546 C51.528,41.581 51.876,40.839 52.327,40.321 C52.777,39.802 53.296,39.543 53.883,39.543 C54.470,39.543 54.988,39.797 55.436,40.306 C55.885,40.816 56.232,41.536 56.476,42.466 C56.721,43.397 56.848,44.475 56.859,45.701 L56.859,47.342 C56.859,48.606 56.738,49.715 56.495,50.671 C56.252,51.627 55.905,52.362 55.455,52.878 ZM56.214,45.852 C56.214,44.198 56.007,42.903 55.591,41.966 C55.175,41.029 54.606,40.561 53.883,40.561 C53.174,40.561 52.609,41.031 52.188,41.971 C51.767,42.911 51.557,44.223 51.557,45.908 L51.557,47.342 C51.557,48.970 51.766,50.261 52.185,51.213 C52.605,52.166 53.174,52.642 53.893,52.642 C54.623,52.642 55.193,52.172 55.601,51.232 C56.010,50.292 56.214,48.983 56.214,47.304 L56.214,45.852 ZM56.027,28.094 L53.832,28.094 L52.166,33.696 L51.469,33.696 L53.266,27.774 C52.773,27.466 52.398,27.002 52.139,26.380 C51.881,25.758 51.752,24.998 51.752,24.100 C51.752,22.807 51.980,21.794 52.435,21.062 C52.891,20.331 53.533,19.965 54.361,19.965 L56.677,19.965 L56.677,33.696 L56.027,33.696 L56.027,28.094 ZM56.027,20.946 L54.340,20.946 C53.718,20.946 53.239,21.218 52.902,21.763 C52.565,22.307 52.396,23.084 52.396,24.091 C52.396,24.998 52.554,25.728 52.870,26.282 C53.186,26.836 53.622,27.114 54.178,27.114 L56.027,27.114 L56.027,20.946 ZM49.433,27.114 L45.074,27.114 L45.074,33.696 L44.430,33.696 L44.430,19.965 L45.074,19.965 L45.074,26.133 L49.433,26.133 L49.433,19.965 L50.083,19.965 L50.083,33.696 L49.433,33.696 L49.433,27.114 ZM48.655,39.731 L49.304,39.731 L49.304,53.462 L48.655,53.462 L48.655,46.880 L44.295,46.880 L44.295,53.462 L43.651,53.462 L43.651,39.731 L44.295,39.731 L44.295,45.899 L48.655,45.899 L48.655,39.731 ZM38.343,19.965 L43.064,19.965 L43.064,20.946 L38.988,20.946 L38.988,26.133 L42.556,26.133 L42.556,27.114 L38.988,27.114 L38.988,32.715 L43.090,32.715 L43.090,33.696 L38.343,33.696 L38.343,19.965 ZM41.517,39.731 L42.287,39.731 L39.761,46.502 L42.365,53.462 L41.590,53.462 L39.368,47.464 L37.136,53.462 L36.372,53.462 L38.981,46.502 L36.450,39.731 L37.220,39.731 L39.368,45.541 L41.517,39.731 ZM35.817,27.717 L35.869,21.587 L33.029,33.696 L32.532,33.696 L29.702,21.634 L29.755,27.679 L29.755,33.696 L29.110,33.696 L29.110,19.965 L29.964,19.965 L32.778,32.084 L35.602,19.965 L36.461,19.965 L36.461,33.696 L35.817,33.696 L35.817,27.717 ZM26.567,21.945 L22.223,33.696 L21.573,33.696 L21.573,19.965 L22.223,19.965 L22.223,31.706 L26.567,19.965 L27.211,19.965 L27.211,33.696 L26.567,33.696 L26.567,21.945 ZM22.765,43.327 C22.765,44.037 22.657,44.656 22.442,45.181 C22.228,45.706 21.933,46.082 21.560,46.308 C22.003,46.484 22.360,46.877 22.631,47.487 C22.902,48.096 23.037,48.800 23.037,49.598 C23.037,50.811 22.820,51.758 22.385,52.440 C21.950,53.122 21.345,53.462 20.569,53.462 L18.018,53.462 L18.018,39.731 L20.271,39.731 C21.088,39.731 21.708,40.035 22.131,40.642 C22.553,41.249 22.765,42.144 22.765,43.327 ZM18.662,52.482 L20.596,52.482 C21.147,52.482 21.585,52.229 21.908,51.724 C22.231,51.219 22.393,50.517 22.393,49.620 C22.393,48.772 22.238,48.102 21.929,47.609 C21.620,47.117 21.193,46.870 20.648,46.870 L18.662,46.870 L18.662,52.482 ZM21.657,41.340 C21.351,40.921 20.889,40.712 20.271,40.712 L18.662,40.712 L18.662,45.889 L20.423,45.889 C20.961,45.871 21.377,45.642 21.672,45.205 C21.967,44.767 22.115,44.129 22.115,43.291 C22.115,42.409 21.962,41.759 21.657,41.340 ZM17.601,28.104 L15.662,28.104 L15.662,33.696 L15.018,33.696 L15.018,19.965 L17.616,19.965 C18.409,19.965 19.035,20.330 19.495,21.059 C19.954,21.788 20.184,22.791 20.184,24.067 C20.184,25.356 19.963,26.351 19.521,27.052 C19.079,27.753 18.439,28.104 17.601,28.104 ZM19.049,21.810 C18.723,21.247 18.259,20.958 17.658,20.946 L15.662,20.946 L15.662,27.123 L17.616,27.123 C18.241,27.123 18.718,26.855 19.047,26.320 C19.375,25.785 19.539,25.039 19.539,24.082 C19.539,23.131 19.376,22.374 19.049,21.810 ZM16.405,45.701 L16.405,47.342 C16.405,48.606 16.284,49.715 16.041,50.671 C15.798,51.627 15.452,52.362 15.001,52.878 C14.551,53.393 14.030,53.651 13.440,53.651 C12.549,53.651 11.830,53.077 11.281,51.930 C10.733,50.783 10.459,49.234 10.459,47.285 L10.459,45.871 C10.459,44.620 10.582,43.511 10.828,42.546 C11.074,41.581 11.423,40.839 11.873,40.321 C12.324,39.802 12.843,39.543 13.429,39.543 C14.016,39.543 14.534,39.797 14.983,40.306 C15.432,40.816 15.778,41.536 16.023,42.466 C16.267,43.397 16.395,44.475 16.405,45.701 ZM15.761,45.852 C15.761,44.198 15.553,42.903 15.137,41.966 C14.722,41.029 14.152,40.561 13.429,40.561 C12.720,40.561 12.155,41.031 11.734,41.971 C11.314,42.911 11.103,44.223 11.103,45.908 L11.103,47.342 C11.103,48.970 11.313,50.261 11.732,51.213 C12.151,52.166 12.720,52.642 13.440,52.642 C14.170,52.642 14.739,52.172 15.148,51.232 C15.557,50.292 15.761,48.983 15.761,47.304 L15.761,45.852 ZM12.478,20.946 L8.161,20.946 L8.161,33.696 L7.516,33.696 L7.516,19.965 L13.122,19.965 L13.122,33.696 L12.478,33.696 L12.478,20.946 ZM8.842,53.462 L8.197,53.462 L8.197,40.712 L3.880,40.712 L3.880,53.462 L3.235,53.462 L3.235,39.731 L8.842,39.731 L8.842,53.462 ZM4.849,80.263 C5.322,81.055 5.597,82.153 5.674,83.555 L5.024,83.555 C4.864,81.222 4.160,80.056 2.913,80.056 C2.221,80.056 1.670,80.521 1.260,81.453 C0.849,82.384 0.644,83.671 0.644,85.313 L0.644,86.993 C0.644,88.578 0.844,89.843 1.244,90.787 C1.644,91.731 2.185,92.203 2.866,92.203 C3.540,92.203 4.048,91.912 4.390,91.330 C4.733,90.749 4.944,89.876 5.024,88.713 L5.674,88.713 C5.587,90.159 5.299,91.266 4.812,92.033 C4.325,92.800 3.676,93.183 2.866,93.183 C2.300,93.183 1.799,92.929 1.365,92.420 C0.930,91.910 0.594,91.189 0.356,90.255 C0.118,89.322 -0.002,88.254 -0.006,87.053 L-0.006,85.271 C-0.006,84.051 0.113,82.970 0.351,82.027 C0.588,81.084 0.930,80.356 1.375,79.844 C1.820,79.331 2.333,79.075 2.913,79.075 C3.730,79.075 4.375,79.471 4.849,80.263 ZM10.735,91.005 L15.078,79.264 L15.723,79.264 L15.723,92.995 L15.078,92.995 L15.078,81.244 L10.735,92.995 L10.085,92.995 L10.085,79.264 L10.735,79.264 L10.735,91.005 ZM18.267,85.431 L22.626,85.431 L22.626,79.264 L23.276,79.264 L23.276,92.995 L22.626,92.995 L22.626,86.412 L18.267,86.412 L18.267,92.995 L17.622,92.995 L17.622,79.264 L18.267,79.264 L18.267,85.431 ZM29.281,40.712 L25.204,40.712 L25.204,45.899 L28.772,45.899 L28.772,46.880 L25.204,46.880 L25.204,52.482 L29.307,52.482 L29.307,53.462 L24.560,53.462 L24.560,39.731 L29.281,39.731 L29.281,40.712 ZM26.284,79.844 C26.729,79.331 27.242,79.075 27.821,79.075 C28.639,79.075 29.284,79.471 29.757,80.263 C30.231,81.055 30.506,82.153 30.583,83.555 L29.933,83.555 C29.772,81.222 29.068,80.056 27.821,80.056 C27.130,80.056 26.579,80.521 26.168,81.453 C25.758,82.384 25.553,83.671 25.553,85.313 L25.553,86.993 C25.553,88.578 25.753,89.843 26.153,90.787 C26.553,91.731 27.093,92.203 27.774,92.203 C28.448,92.203 28.957,91.912 29.299,91.330 C29.641,90.749 29.853,89.876 29.933,88.713 L30.583,88.713 C30.495,90.159 30.208,91.266 29.721,92.033 C29.234,92.800 28.585,93.183 27.774,93.183 C27.208,93.183 26.708,92.929 26.273,92.420 C25.838,91.910 25.502,91.189 25.265,90.255 C25.027,89.322 24.907,88.254 24.903,87.053 L24.903,85.271 C24.903,84.051 25.022,82.970 25.259,82.027 C25.497,81.084 25.838,80.356 26.284,79.844 ZM35.124,40.825 C35.583,41.555 35.813,42.557 35.813,43.834 C35.813,45.122 35.592,46.117 35.150,46.818 C34.708,47.520 34.068,47.870 33.230,47.870 L31.291,47.870 L31.291,53.462 L30.647,53.462 L30.647,39.731 L33.245,39.731 C34.038,39.731 34.664,40.096 35.124,40.825 ZM31.291,46.889 L33.245,46.889 C33.871,46.889 34.347,46.622 34.676,46.086 C35.004,45.551 35.168,44.805 35.168,43.848 C35.168,42.897 35.005,42.140 34.678,41.576 C34.352,41.013 33.888,40.725 33.287,40.712 L31.291,40.712 L31.291,46.889 ZM37.177,80.244 L34.562,80.244 L34.562,92.995 L33.918,92.995 L33.918,80.244 L31.308,80.244 L31.308,79.264 L37.177,79.264 L37.177,80.244 ZM42.933,80.357 C43.392,81.087 43.622,82.090 43.622,83.366 C43.622,84.655 43.401,85.650 42.959,86.351 C42.517,87.052 41.877,87.402 41.039,87.402 L39.101,87.402 L39.101,92.995 L38.456,92.995 L38.456,79.264 L41.055,79.264 C41.848,79.264 42.474,79.628 42.933,80.357 ZM39.101,86.422 L41.055,86.422 C41.680,86.422 42.157,86.154 42.485,85.619 C42.813,85.084 42.978,84.337 42.978,83.380 C42.978,82.429 42.814,81.672 42.488,81.109 C42.161,80.545 41.697,80.257 41.097,80.244 L39.101,80.244 L39.101,86.422 ZM40.914,73.229 L40.914,59.497 L46.521,59.497 L46.521,73.229 L45.876,73.229 L45.876,60.478 L41.559,60.478 L41.559,73.229 L40.914,73.229 ZM45.031,79.264 L47.515,88.062 L49.684,79.264 L50.444,79.264 L47.494,90.760 L47.305,91.410 C46.935,92.599 46.390,93.193 45.671,93.193 C45.457,93.193 45.293,93.158 45.178,93.089 L45.236,92.146 C45.309,92.190 45.456,92.212 45.676,92.212 C46.109,92.212 46.456,91.813 46.718,91.014 L46.849,90.590 L47.180,89.364 L44.293,79.264 L45.031,79.264 ZM53.163,72.248 L53.163,73.229 L48.416,73.229 L48.416,59.497 L53.136,59.497 L53.136,60.478 L49.060,60.478 L49.060,65.665 L52.628,65.665 L52.628,66.646 L49.060,66.646 L49.060,72.248 L53.163,72.248 ZM52.391,85.563 L53.407,85.563 L56.357,79.264 L57.169,79.264 L54.036,86.012 L57.400,92.995 L56.598,92.995 L53.439,86.544 L52.391,86.544 L52.391,92.995 L51.747,92.995 L51.747,79.264 L52.391,79.264 L52.391,85.563 ZM59.287,92.014 L63.604,92.014 L63.604,79.264 L64.249,79.264 L64.249,91.995 L64.998,91.995 L64.951,96.305 L64.354,96.305 L64.354,92.995 L58.637,92.995 L58.637,79.264 L59.287,79.264 L59.287,92.014 ZM61.048,59.497 L65.769,59.497 L65.769,60.478 L61.693,60.478 L61.693,65.665 L65.261,65.665 L65.261,66.646 L61.693,66.646 L61.693,72.248 L65.795,72.248 L65.795,73.229 L61.048,73.229 L61.048,59.497 ZM66.980,91.005 L71.324,79.264 L71.968,79.264 L71.968,92.995 L71.324,92.995 L71.324,81.244 L66.980,92.995 L66.331,92.995 L66.331,79.264 L66.980,79.264 L66.980,91.005 ZM67.209,53.462 L67.209,40.712 L64.600,40.712 L64.600,39.731 L70.468,39.731 L70.468,40.712 L67.854,40.712 L67.854,53.462 L67.209,53.462 ZM67.495,76.558 L66.851,76.558 L66.851,72.248 L67.359,72.248 C67.747,71.519 68.060,70.455 68.299,69.055 C68.539,67.657 68.683,66.124 68.732,64.458 L68.868,59.497 L73.086,59.497 L73.086,72.248 L73.898,72.248 L73.892,76.558 L73.248,76.558 L73.248,73.229 L67.495,73.229 L67.495,76.558 ZM72.441,72.248 L72.441,60.478 L69.486,60.478 L69.381,64.414 C69.336,66.050 69.202,67.557 68.981,68.935 C68.759,70.313 68.468,71.417 68.108,72.248 L72.441,72.248 ZM77.401,39.731 L77.401,53.462 L76.751,53.462 L76.751,46.880 L72.392,46.880 L72.392,53.462 L71.748,53.462 L71.748,39.731 L72.392,39.731 L72.392,45.899 L76.751,45.899 L76.751,39.731 L77.401,39.731 ZM78.588,80.244 L74.512,80.244 L74.512,85.431 L78.080,85.431 L78.080,86.412 L74.512,86.412 L74.512,92.014 L78.615,92.014 L78.615,92.995 L73.868,92.995 L73.868,79.264 L78.588,79.264 L78.588,80.244 ZM78.057,73.229 L78.057,59.497 L83.664,59.497 L83.664,73.229 L83.019,73.229 L83.019,60.478 L78.702,60.478 L78.702,73.229 L78.057,73.229 ZM83.928,77.641 C83.654,78.088 83.286,78.311 82.825,78.311 C82.371,78.311 82.005,78.089 81.728,77.646 C81.450,77.203 81.311,76.617 81.311,75.887 L81.846,75.887 C81.846,76.409 81.932,76.808 82.105,77.085 C82.278,77.362 82.518,77.500 82.825,77.500 C83.133,77.500 83.373,77.355 83.546,77.066 C83.719,76.777 83.805,76.384 83.805,75.887 L84.339,75.887 C84.339,76.610 84.202,77.195 83.928,77.641 ZM84.052,47.497 C84.253,48.079 84.353,48.766 84.353,49.558 C84.353,50.772 84.128,51.726 83.677,52.420 C83.227,53.115 82.603,53.462 81.807,53.462 L79.292,53.462 L79.292,39.731 L79.936,39.731 L79.936,45.691 L81.828,45.691 C82.348,45.691 82.799,45.847 83.180,46.158 C83.560,46.469 83.851,46.916 84.052,47.497 ZM81.870,46.672 L79.936,46.672 L79.936,52.482 L81.823,52.482 C82.413,52.482 82.874,52.219 83.206,51.693 C83.538,51.167 83.704,50.448 83.704,49.535 C83.704,48.665 83.543,47.974 83.222,47.461 C82.900,46.948 82.450,46.685 81.870,46.672 ZM77.784,24.100 C77.784,22.807 78.012,21.794 78.468,21.062 C78.923,20.331 79.565,19.965 80.393,19.965 L82.709,19.965 L82.709,33.696 L82.059,33.696 L82.059,28.094 L79.864,28.094 L78.198,33.696 L77.501,33.696 L79.298,27.774 C78.806,27.466 78.430,27.002 78.172,26.380 C77.913,25.758 77.784,24.998 77.784,24.100 ZM78.902,26.282 C79.219,26.836 79.654,27.114 80.210,27.114 L82.059,27.114 L82.059,20.946 L80.372,20.946 C79.750,20.946 79.271,21.218 78.934,21.763 C78.597,22.307 78.428,23.084 78.428,24.091 C78.428,24.998 78.586,25.728 78.902,26.282 ZM80.614,91.005 L84.958,79.264 L85.602,79.264 L85.602,92.995 L84.958,92.995 L84.958,81.244 L80.614,92.995 L79.965,92.995 L79.965,79.264 L80.614,79.264 L80.614,91.005 ZM86.255,39.731 L86.255,53.462 L85.611,53.462 L85.611,39.731 L86.255,39.731 ZM85.559,73.229 L85.559,59.497 L88.157,59.497 C88.950,59.497 89.576,59.862 90.036,60.591 C90.495,61.321 90.725,62.323 90.725,63.600 C90.725,64.889 90.504,65.884 90.062,66.585 C89.620,67.286 88.980,67.636 88.142,67.636 L86.203,67.636 L86.203,73.229 L85.559,73.229 ZM88.157,66.655 C88.783,66.655 89.259,66.388 89.588,65.853 C89.916,65.317 90.080,64.571 90.080,63.614 C90.080,62.663 89.917,61.906 89.590,61.342 C89.264,60.779 88.800,60.491 88.199,60.478 L86.203,60.478 L86.203,66.655 L88.157,66.655 ZM91.056,91.005 L95.400,79.264 L96.044,79.264 L96.044,92.995 L95.400,92.995 L95.400,81.244 L91.056,92.995 L90.406,92.995 L90.406,79.264 L91.056,79.264 L91.056,91.005 ZM92.789,53.462 L90.567,47.464 L88.335,53.462 L87.570,53.462 L90.180,46.502 L87.649,39.731 L88.419,39.731 L90.567,45.541 L92.715,39.731 L93.486,39.731 L90.960,46.502 L93.564,53.462 L92.789,53.462 ZM92.115,73.229 L92.115,59.497 L92.764,59.497 L92.764,71.239 L97.108,59.497 L97.752,59.497 L97.752,73.229 L97.108,73.229 L97.108,61.478 L92.764,73.229 L92.115,73.229 ZM103.319,71.616 L106.143,59.497 L107.002,59.497 L107.002,73.229 L106.358,73.229 L106.358,67.249 L106.410,61.119 L103.571,73.229 L103.073,73.229 L100.244,61.167 L100.296,67.212 L100.296,73.229 L99.652,73.229 L99.652,59.497 L100.506,59.497 L103.319,71.616 ZM106.460,92.995 L105.815,92.995 L105.815,80.244 L101.498,80.244 L101.498,92.995 L100.854,92.995 L100.854,79.264 L106.460,79.264 L106.460,92.995 ZM103.551,53.462 L102.875,53.462 L105.762,39.731 L106.375,39.731 L109.262,53.462 L108.591,53.462 L107.800,49.605 L104.337,49.605 L103.551,53.462 ZM107.595,48.624 L106.066,41.146 L104.536,48.624 L107.595,48.624 ZM112.832,80.357 C113.291,81.087 113.521,82.090 113.521,83.366 C113.521,84.655 113.300,85.650 112.858,86.351 C112.416,87.052 111.776,87.402 110.938,87.402 L108.999,87.402 L108.999,92.995 L108.355,92.995 L108.355,79.264 L110.954,79.264 C111.746,79.264 112.372,79.628 112.832,80.357 ZM108.999,86.422 L110.954,86.422 C111.579,86.422 112.056,86.154 112.384,85.619 C112.712,85.084 112.876,84.337 112.876,83.380 C112.876,82.429 112.713,81.672 112.386,81.109 C112.060,80.545 111.596,80.257 110.995,80.244 L108.999,80.244 L108.999,86.422 ZM108.884,59.497 L113.605,59.497 L113.605,60.478 L109.529,60.478 L109.529,65.665 L113.097,65.665 L113.097,66.646 L109.529,66.646 L109.529,72.248 L113.631,72.248 L113.631,73.229 L108.884,73.229 L108.884,59.497 ZM116.135,79.853 C116.585,79.334 117.104,79.075 117.691,79.075 C118.278,79.075 118.795,79.330 119.244,79.839 C119.693,80.348 120.040,81.068 120.284,81.998 C120.529,82.929 120.656,84.007 120.667,85.233 L120.667,86.874 C120.667,88.138 120.545,89.248 120.303,90.203 C120.060,91.159 119.713,91.895 119.263,92.410 C118.812,92.926 118.292,93.183 117.701,93.183 C116.811,93.183 116.091,92.610 115.543,91.462 C114.994,90.315 114.720,88.767 114.720,86.818 L114.720,85.403 C114.720,84.152 114.843,83.044 115.089,82.079 C115.336,81.114 115.684,80.372 116.135,79.853 ZM115.365,86.874 C115.365,88.503 115.574,89.793 115.993,90.746 C116.412,91.698 116.982,92.174 117.701,92.174 C118.431,92.174 119.001,91.704 119.409,90.764 C119.818,89.825 120.022,88.515 120.022,86.836 L120.022,85.384 C120.022,83.731 119.814,82.436 119.399,81.499 C118.983,80.562 118.414,80.093 117.691,80.093 C116.982,80.093 116.417,80.563 115.996,81.503 C115.575,82.443 115.365,83.756 115.365,85.441 L115.365,86.874 ZM122.934,85.563 L123.950,85.563 L126.900,79.264 L127.712,79.264 L124.579,86.012 L127.943,92.995 L127.141,92.995 L123.982,86.544 L122.934,86.544 L122.934,92.995 L122.289,92.995 L122.289,79.264 L122.934,79.264 L122.934,85.563 ZM129.741,79.853 C130.192,79.334 130.710,79.075 131.297,79.075 C131.884,79.075 132.402,79.330 132.851,79.839 C133.299,80.348 133.646,81.068 133.891,81.998 C134.135,82.929 134.263,84.007 134.273,85.233 L134.273,86.874 C134.273,88.138 134.152,89.248 133.909,90.203 C133.666,91.159 133.319,91.895 132.869,92.410 C132.418,92.926 131.898,93.183 131.308,93.183 C130.417,93.183 129.697,92.610 129.149,91.462 C128.601,90.315 128.326,88.767 128.326,86.818 L128.326,85.403 C128.326,84.152 128.449,83.044 128.696,82.079 C128.942,81.114 129.290,80.372 129.741,79.853 ZM128.971,86.874 C128.971,88.503 129.180,89.793 129.600,90.746 C130.019,91.698 130.588,92.174 131.308,92.174 C132.038,92.174 132.607,91.704 133.016,90.764 C133.424,89.825 133.629,88.515 133.629,86.836 L133.629,85.384 C133.629,83.731 133.421,82.436 133.005,81.499 C132.589,80.562 132.020,80.093 131.297,80.093 C130.588,80.093 130.023,80.563 129.602,81.503 C129.181,82.443 128.971,83.756 128.971,85.441 L128.971,86.874 ZM128.597,73.229 L128.597,59.497 L129.241,59.497 L129.241,65.665 L133.601,65.665 L133.601,59.497 L134.250,59.497 L134.250,73.229 L133.601,73.229 L133.601,66.646 L129.241,66.646 L129.241,73.229 L128.597,73.229 ZM131.979,20.946 L129.364,20.946 L129.364,33.696 L128.720,33.696 L128.720,20.946 L126.111,20.946 L126.111,19.965 L131.979,19.965 L131.979,20.946 ZM125.582,39.543 C126.399,39.543 127.045,39.939 127.518,40.731 C127.991,41.523 128.266,42.620 128.343,44.022 L127.693,44.022 C127.533,41.690 126.829,40.523 125.582,40.523 C124.890,40.523 124.339,40.989 123.929,41.920 C123.518,42.852 123.313,44.138 123.313,45.780 L123.313,47.460 C123.313,49.046 123.513,50.311 123.913,51.255 C124.313,52.198 124.854,52.670 125.535,52.670 C126.209,52.670 126.717,52.380 127.059,51.798 C127.402,51.216 127.613,50.344 127.693,49.181 L128.343,49.181 C128.256,50.627 127.968,51.734 127.481,52.501 C126.994,53.268 126.345,53.651 125.535,53.651 C124.969,53.651 124.469,53.396 124.034,52.887 C123.599,52.378 123.263,51.656 123.025,50.723 C122.788,49.789 122.667,48.722 122.664,47.521 L122.664,45.739 C122.664,44.519 122.782,43.437 123.020,42.494 C123.257,41.551 123.599,40.824 124.044,40.311 C124.490,39.799 125.002,39.543 125.582,39.543 ZM127.257,72.248 L127.257,73.229 L122.510,73.229 L122.510,59.497 L127.231,59.497 L127.231,60.478 L123.155,60.478 L123.155,65.665 L126.723,65.665 L126.723,66.646 L123.155,66.646 L123.155,72.248 L127.257,72.248 ZM116.138,39.731 L116.138,53.462 L115.488,53.462 L115.488,46.880 L111.129,46.880 L111.129,53.462 L110.485,53.462 L110.485,39.731 L111.129,39.731 L111.129,45.899 L115.488,45.899 L115.488,39.731 L116.138,39.731 ZM119.975,59.497 L120.624,59.497 L120.624,73.229 L119.975,73.229 L119.975,66.646 L115.615,66.646 L115.615,73.229 L114.971,73.229 L114.971,59.497 L115.615,59.497 L115.615,65.665 L119.975,65.665 L119.975,59.497 ZM118.520,51.689 L118.520,52.868 C118.520,54.176 118.275,55.229 117.786,56.028 L117.414,55.537 C117.732,54.770 117.896,53.975 117.906,53.151 L117.906,51.689 L118.520,51.689 ZM124.828,19.965 L124.828,33.696 L124.178,33.696 L124.178,27.114 L119.819,27.114 L119.819,33.696 L119.175,33.696 L119.175,19.965 L119.819,19.965 L119.819,26.133 L124.178,26.133 L124.178,19.965 L124.828,19.965 ZM132.495,53.651 C131.929,53.651 131.428,53.396 130.993,52.887 C130.559,52.378 130.222,51.656 129.985,50.723 C129.747,49.789 129.627,48.722 129.623,47.521 L129.623,45.739 C129.623,44.519 129.742,43.437 129.980,42.494 C130.217,41.551 130.559,40.824 131.004,40.311 C131.449,39.799 131.962,39.543 132.542,39.543 C133.359,39.543 134.004,39.939 134.478,40.731 C134.951,41.523 135.226,42.620 135.303,44.022 L134.653,44.022 C134.492,41.690 133.789,40.523 132.542,40.523 C131.850,40.523 131.299,40.989 130.889,41.920 C130.478,42.852 130.273,44.138 130.273,45.780 L130.273,47.460 C130.273,49.046 130.473,50.311 130.873,51.255 C131.273,52.198 131.813,52.670 132.495,52.670 C133.169,52.670 133.677,52.380 134.019,51.798 C134.362,51.216 134.573,50.344 134.653,49.181 L135.303,49.181 C135.216,50.627 134.928,51.734 134.441,52.501 C133.954,53.268 133.305,53.651 132.495,53.651 ZM136.530,85.431 L140.889,85.431 L140.889,79.264 L141.539,79.264 L141.539,92.995 L140.889,92.995 L140.889,86.412 L136.530,86.412 L136.530,92.995 L135.885,92.995 L135.885,79.264 L136.530,79.264 L136.530,85.431 ZM141.138,61.478 L136.795,73.229 L136.145,73.229 L136.145,59.497 L136.795,59.497 L136.795,71.239 L141.138,59.497 L141.783,59.497 L141.783,73.229 L141.138,73.229 L141.138,61.478 ZM138.262,21.945 L133.918,33.696 L133.268,33.696 L133.268,19.965 L133.918,19.965 L133.918,31.706 L138.262,19.965 L138.906,19.965 L138.906,33.696 L138.262,33.696 L138.262,21.945 ZM142.384,53.462 L141.713,53.462 L140.922,49.605 L137.459,49.605 L136.673,53.462 L135.997,53.462 L138.884,39.731 L139.497,39.731 L142.384,53.462 ZM137.658,48.624 L140.718,48.624 L139.188,41.146 L137.658,48.624 ZM144.547,79.844 C144.992,79.331 145.505,79.075 146.085,79.075 C146.902,79.075 147.547,79.471 148.021,80.263 C148.494,81.055 148.769,82.153 148.846,83.555 L148.196,83.555 C148.035,81.222 147.332,80.056 146.085,80.056 C145.393,80.056 144.842,80.521 144.432,81.453 C144.021,82.384 143.816,83.671 143.816,85.313 L143.816,86.993 C143.816,88.578 144.016,89.843 144.416,90.787 C144.816,91.731 145.356,92.203 146.037,92.203 C146.712,92.203 147.220,91.912 147.562,91.330 C147.904,90.749 148.116,89.876 148.196,88.713 L148.846,88.713 C148.758,90.159 148.471,91.266 147.984,92.033 C147.497,92.800 146.848,93.183 146.037,93.183 C145.472,93.183 144.971,92.929 144.536,92.420 C144.102,91.910 143.765,91.189 143.528,90.255 C143.290,89.322 143.170,88.254 143.166,87.053 L143.166,85.271 C143.166,84.051 143.285,82.970 143.523,82.027 C143.760,81.084 144.102,80.356 144.547,79.844 ZM150.260,79.264 L152.743,88.062 L154.912,79.264 L155.672,79.264 L152.722,90.760 L152.533,91.410 C152.163,92.599 151.618,93.193 150.899,93.193 C150.686,93.193 150.522,93.158 150.406,93.089 L150.464,92.146 C150.537,92.190 150.684,92.212 150.904,92.212 C151.337,92.212 151.685,91.813 151.947,91.014 L152.078,90.590 L152.408,89.364 L149.521,79.264 L150.260,79.264 ZM157.334,39.731 L157.334,53.462 L156.690,53.462 L156.690,41.712 L152.346,53.462 L151.696,53.462 L151.696,39.731 L152.346,39.731 L152.346,51.473 L156.690,39.731 L157.334,39.731 ZM150.413,73.229 L149.769,73.229 L149.769,59.497 L150.623,59.497 L153.437,71.616 L156.261,59.497 L157.120,59.497 L157.120,73.229 L156.475,73.229 L156.475,67.249 L156.528,61.119 L153.688,73.229 L153.190,73.229 L150.361,61.167 L150.413,67.212 L150.413,73.229 ZM143.323,52.482 L143.831,52.482 C144.219,51.752 144.532,50.688 144.772,49.289 C145.011,47.890 145.155,46.358 145.204,44.692 L145.340,39.731 L149.558,39.731 L149.558,52.482 L150.370,52.482 L150.365,56.792 L149.720,56.792 L149.720,53.462 L143.967,53.462 L143.967,56.792 L143.323,56.792 L143.323,52.482 ZM148.913,52.482 L148.913,40.712 L145.958,40.712 L145.854,44.648 C145.808,46.284 145.675,47.791 145.453,49.169 C145.231,50.547 144.940,51.651 144.580,52.482 L148.913,52.482 ZM148.429,72.248 L148.429,73.229 L143.682,73.229 L143.682,59.497 L148.403,59.497 L148.403,60.478 L144.327,60.478 L144.327,65.665 L147.895,65.665 L147.895,66.646 L144.327,66.646 L144.327,72.248 L148.429,72.248 ZM152.482,32.715 L152.482,33.696 L147.735,33.696 L147.735,19.965 L152.456,19.965 L152.456,20.946 L148.380,20.946 L148.380,26.133 L151.948,26.133 L151.948,27.114 L148.380,27.114 L148.380,32.715 L152.482,32.715 ZM156.656,91.401 C156.837,91.023 156.978,90.411 157.077,89.565 C157.177,88.719 157.255,87.411 157.311,85.643 L157.499,79.264 L161.979,79.264 L161.979,92.995 L161.334,92.995 L161.334,80.244 L158.112,80.244 L157.934,85.926 C157.864,87.958 157.757,89.435 157.612,90.357 C157.467,91.279 157.261,91.946 156.994,92.358 C156.726,92.770 156.364,92.982 155.906,92.995 L155.634,92.995 L155.634,92.023 L155.844,92.014 C156.203,91.983 156.474,91.778 156.656,91.401 ZM164.887,39.731 L164.887,53.462 L164.237,53.462 L164.237,46.880 L159.878,46.880 L159.878,53.462 L159.233,53.462 L159.233,39.731 L159.878,39.731 L159.878,45.899 L164.237,45.899 L164.237,39.731 L164.887,39.731 ZM161.568,65.637 C161.568,64.386 161.691,63.278 161.937,62.312 C162.183,61.347 162.532,60.605 162.982,60.087 C163.433,59.568 163.952,59.309 164.539,59.309 C165.125,59.309 165.643,59.563 166.092,60.073 C166.541,60.582 166.888,61.302 167.132,62.232 C167.377,63.163 167.504,64.241 167.515,65.467 L167.515,67.108 C167.515,68.372 167.393,69.482 167.150,70.437 C166.908,71.393 166.561,72.128 166.110,72.644 C165.660,73.160 165.139,73.417 164.549,73.417 C163.658,73.417 162.939,72.844 162.390,71.696 C161.842,70.549 161.568,69.001 161.568,67.051 L161.568,65.637 ZM162.212,67.108 C162.212,68.736 162.422,70.027 162.841,70.979 C163.260,71.932 163.829,72.408 164.549,72.408 C165.279,72.408 165.848,71.938 166.257,70.998 C166.666,70.058 166.870,68.749 166.870,67.070 L166.870,65.618 C166.870,63.964 166.662,62.669 166.247,61.732 C165.831,60.796 165.262,60.327 164.539,60.327 C163.829,60.327 163.265,60.797 162.844,61.737 C162.423,62.677 162.212,63.990 162.212,65.675 L162.212,67.108 ZM164.496,85.224 L166.387,85.224 C166.908,85.224 167.358,85.379 167.739,85.691 C168.120,86.002 168.411,86.448 168.611,87.030 C168.812,87.611 168.913,88.298 168.913,89.090 C168.913,90.304 168.687,91.258 168.237,91.953 C167.786,92.648 167.163,92.995 166.366,92.995 L163.852,92.995 L163.852,79.264 L164.496,79.264 L164.496,85.224 ZM164.496,92.014 L166.382,92.014 C166.972,92.014 167.433,91.751 167.765,91.225 C168.097,90.700 168.263,89.980 168.263,89.067 C168.263,88.198 168.102,87.507 167.781,86.993 C167.460,86.480 167.009,86.217 166.429,86.205 L164.496,86.205 L164.496,92.014 ZM168.645,79.264 L174.513,79.264 L174.513,80.244 L171.898,80.244 L171.898,92.995 L171.254,92.995 L171.254,80.244 L168.645,80.244 L168.645,79.264 ZM176.867,40.712 L174.252,40.712 L174.252,53.462 L173.608,53.462 L173.608,40.712 L170.998,40.712 L170.998,39.731 L176.867,39.731 L176.867,40.712 ZM171.341,60.290 C170.789,60.290 170.333,60.554 169.974,61.084 C169.614,61.614 169.434,62.286 169.434,63.100 L168.790,63.100 C168.790,62.371 168.900,61.718 169.120,61.143 C169.340,60.568 169.648,60.118 170.044,59.794 C170.441,59.471 170.873,59.309 171.341,59.309 C172.165,59.309 172.812,59.639 173.280,60.299 C173.748,60.959 173.982,61.896 173.982,63.109 C173.982,63.807 173.858,64.430 173.610,64.977 C173.362,65.524 173.028,65.929 172.609,66.193 C173.601,66.671 174.097,67.775 174.097,69.503 C174.097,70.692 173.848,71.641 173.350,72.352 C172.853,73.062 172.183,73.417 171.341,73.417 C170.831,73.417 170.367,73.243 169.947,72.894 C169.528,72.545 169.212,72.073 168.999,71.479 C168.786,70.885 168.679,70.198 168.679,69.419 L169.324,69.419 C169.324,70.296 169.514,71.018 169.895,71.586 C170.276,72.153 170.758,72.436 171.341,72.436 C172.001,72.436 172.518,72.174 172.892,71.650 C173.266,71.126 173.453,70.422 173.453,69.537 C173.453,68.601 173.287,67.903 172.955,67.442 C172.623,66.980 172.111,66.743 171.420,66.731 L170.445,66.731 L170.445,65.731 L171.388,65.731 C172.024,65.725 172.508,65.500 172.840,65.056 C173.171,64.612 173.337,63.952 173.337,63.076 C173.337,62.214 173.164,61.534 172.819,61.036 C172.473,60.538 171.980,60.290 171.341,60.290 ZM176.254,65.665 L180.613,65.665 L180.613,59.497 L181.263,59.497 L181.263,73.229 L180.613,73.229 L180.613,66.646 L176.254,66.646 L176.254,73.229 L175.609,73.229 L175.609,59.497 L176.254,59.497 L176.254,65.665 ZM176.452,91.005 L180.795,79.264 L181.440,79.264 L181.440,92.995 L180.795,92.995 L180.795,81.244 L176.452,92.995 L175.802,92.995 L175.802,79.264 L176.452,79.264 L176.452,91.005 ZM178.146,53.462 L178.146,39.731 L180.745,39.731 C181.538,39.731 182.164,40.096 182.623,40.825 C183.082,41.555 183.312,42.557 183.312,43.834 C183.312,45.122 183.091,46.117 182.649,46.818 C182.207,47.520 181.567,47.870 180.729,47.870 L178.790,47.870 L178.790,53.462 L178.146,53.462 ZM180.745,46.889 C181.370,46.889 181.847,46.622 182.175,46.086 C182.503,45.551 182.668,44.805 182.668,43.848 C182.668,42.897 182.504,42.140 182.178,41.576 C181.851,41.013 181.387,40.725 180.787,40.712 L178.790,40.712 L178.790,46.889 L180.745,46.889 ZM185.991,59.497 L188.878,73.229 L188.207,73.229 L187.416,69.371 L183.953,69.371 L183.167,73.229 L182.491,73.229 L185.378,59.497 L185.991,59.497 ZM187.212,68.391 L185.682,60.912 L184.152,68.391 L187.212,68.391 ZM187.816,80.357 C188.276,81.087 188.505,82.090 188.505,83.366 C188.505,84.655 188.284,85.650 187.843,86.351 C187.401,87.052 186.761,87.402 185.922,87.402 L183.984,87.402 L183.984,92.995 L183.339,92.995 L183.339,79.264 L185.938,79.264 C186.731,79.264 187.357,79.628 187.816,80.357 ZM183.984,86.422 L185.938,86.422 C186.563,86.422 187.040,86.154 187.368,85.619 C187.697,85.084 187.861,84.337 187.861,83.380 C187.861,82.429 187.698,81.672 187.371,81.109 C187.044,80.545 186.581,80.257 185.980,80.244 L183.984,80.244 L183.984,86.422 ZM189.915,79.264 L192.398,88.062 L194.567,79.264 L195.327,79.264 L192.377,90.760 L192.189,91.410 C191.818,92.599 191.273,93.193 190.554,93.193 C190.341,93.193 190.177,93.158 190.061,93.089 L190.119,92.146 C190.192,92.190 190.339,92.212 190.559,92.212 C190.992,92.212 191.340,91.813 191.602,91.014 L191.733,90.590 L192.063,89.364 L189.176,79.264 L189.915,79.264 ZM194.963,73.229 L191.803,66.778 L190.755,66.778 L190.755,73.229 L190.111,73.229 L190.111,59.497 L190.755,59.497 L190.755,65.797 L191.772,65.797 L194.722,59.497 L195.534,59.497 L192.401,66.246 L195.764,73.229 L194.963,73.229 ZM189.439,52.482 L189.439,53.462 L184.692,53.462 L184.692,39.731 L189.412,39.731 L189.412,40.712 L185.336,40.712 L185.336,45.899 L188.904,45.899 L188.904,46.880 L185.336,46.880 L185.336,52.482 L189.439,52.482 ZM189.200,31.488 C189.600,32.432 190.141,32.904 190.822,32.904 C191.496,32.904 192.004,32.613 192.347,32.032 C192.689,31.450 192.900,30.578 192.981,29.415 L193.630,29.415 C193.543,30.861 193.256,31.967 192.768,32.734 C192.281,33.501 191.632,33.885 190.822,33.885 C190.256,33.885 189.756,33.630 189.321,33.121 C188.886,32.612 188.550,31.890 188.312,30.957 C188.075,30.023 187.954,28.956 187.951,27.755 L187.951,25.972 C187.951,24.753 188.070,23.671 188.307,22.728 C188.545,21.785 188.886,21.057 189.331,20.545 C189.777,20.033 190.289,19.776 190.869,19.776 C191.686,19.776 192.332,20.172 192.805,20.965 C193.278,21.757 193.553,22.854 193.630,24.256 L192.981,24.256 C192.820,21.923 192.116,20.757 190.869,20.757 C190.178,20.757 189.627,21.223 189.216,22.154 C188.806,23.085 188.600,24.372 188.600,26.014 L188.600,27.694 C188.600,29.280 188.800,30.545 189.200,31.488 ZM198.800,39.731 L198.800,52.510 L199.523,52.510 L199.476,56.773 L198.905,56.773 L198.905,53.462 L190.773,53.462 L190.773,39.731 L191.423,39.731 L191.423,52.482 L194.472,52.482 L194.472,39.731 L195.117,39.731 L195.117,52.482 L198.156,52.482 L198.156,39.731 L198.800,39.731 ZM197.563,60.087 C198.013,59.568 198.532,59.309 199.119,59.309 C199.706,59.309 200.223,59.563 200.672,60.073 C201.121,60.582 201.468,61.302 201.712,62.232 C201.957,63.163 202.084,64.241 202.095,65.467 L202.095,67.108 C202.095,68.372 201.973,69.482 201.731,70.437 C201.488,71.393 201.141,72.128 200.691,72.644 C200.240,73.160 199.719,73.417 199.129,73.417 C198.238,73.417 197.519,72.844 196.971,71.696 C196.422,70.549 196.148,69.001 196.148,67.051 L196.148,65.637 C196.148,64.386 196.271,63.278 196.517,62.312 C196.764,61.347 197.112,60.605 197.563,60.087 ZM196.792,67.108 C196.792,68.736 197.002,70.027 197.421,70.979 C197.840,71.932 198.410,72.408 199.129,72.408 C199.859,72.408 200.429,71.938 200.837,70.998 C201.246,70.058 201.450,68.749 201.450,67.070 L201.450,65.618 C201.450,63.964 201.242,62.669 200.827,61.732 C200.411,60.796 199.842,60.327 199.119,60.327 C198.410,60.327 197.845,60.797 197.424,61.737 C197.003,62.677 196.792,63.990 196.792,65.675 L196.792,67.108 ZM199.491,78.311 C199.037,78.311 198.671,78.089 198.393,77.646 C198.115,77.203 197.976,76.617 197.976,75.887 L198.511,75.887 C198.511,76.409 198.597,76.808 198.770,77.085 C198.943,77.362 199.183,77.500 199.491,77.500 C199.798,77.500 200.038,77.355 200.211,77.066 C200.384,76.777 200.470,76.384 200.470,75.887 L201.005,75.887 C201.005,76.610 200.868,77.195 200.594,77.641 C200.319,78.088 199.952,78.311 199.491,78.311 ZM197.280,91.005 L201.623,79.264 L202.268,79.264 L202.268,92.995 L201.623,92.995 L201.623,81.244 L197.280,92.995 L196.630,92.995 L196.630,79.264 L197.280,79.264 L197.280,91.005 ZM209.430,80.244 L206.816,80.244 L206.816,92.995 L206.171,92.995 L206.171,80.244 L203.562,80.244 L203.562,79.264 L209.430,79.264 L209.430,80.244 ZM201.530,53.462 L200.880,53.462 L200.880,39.731 L201.530,39.731 L201.530,51.473 L205.873,39.731 L206.518,39.731 L206.518,53.462 L205.873,53.462 L205.873,41.712 L201.530,53.462 ZM214.070,39.731 L214.070,53.462 L213.421,53.462 L213.421,46.880 L209.062,46.880 L209.062,53.462 L208.417,53.462 L208.417,39.731 L209.062,39.731 L209.062,45.899 L213.421,45.899 L213.421,39.731 L214.070,39.731 ZM207.626,73.229 L207.128,73.229 L204.299,61.167 L204.352,67.212 L204.352,73.229 L203.707,73.229 L203.707,59.497 L204.561,59.497 L207.375,71.616 L210.199,59.497 L211.058,59.497 L211.058,73.229 L210.413,73.229 L210.413,67.249 L210.466,61.119 L207.626,73.229 ZM215.431,80.244 L211.354,80.244 L211.354,85.431 L214.922,85.431 L214.922,86.412 L211.354,86.412 L211.354,92.014 L215.457,92.014 L215.457,92.995 L210.710,92.995 L210.710,79.264 L215.431,79.264 L215.431,80.244 ZM217.765,79.844 C218.211,79.331 218.723,79.075 219.303,79.075 C220.120,79.075 220.766,79.471 221.239,80.263 C221.712,81.055 221.987,82.153 222.064,83.555 L221.415,83.555 C221.254,81.222 220.550,80.056 219.303,80.056 C218.612,80.056 218.060,80.521 217.650,81.453 C217.240,82.384 217.034,83.671 217.034,85.313 L217.034,86.993 C217.034,88.578 217.234,89.843 217.634,90.787 C218.034,91.731 218.575,92.203 219.256,92.203 C219.930,92.203 220.438,91.912 220.781,91.330 C221.123,90.749 221.334,89.876 221.415,88.713 L222.064,88.713 C221.977,90.159 221.690,91.266 221.202,92.033 C220.715,92.800 220.066,93.183 219.256,93.183 C218.690,93.183 218.190,92.929 217.755,92.420 C217.320,91.910 216.984,91.189 216.746,90.255 C216.509,89.322 216.388,88.254 216.385,87.053 L216.385,85.271 C216.385,84.051 216.503,82.970 216.741,82.027 C216.979,81.084 217.320,80.356 217.765,79.844 ZM224.203,85.224 L226.094,85.224 C226.615,85.224 227.065,85.379 227.446,85.691 C227.827,86.002 228.118,86.448 228.319,87.030 C228.519,87.611 228.620,88.298 228.620,89.090 C228.620,90.304 228.395,91.258 227.944,91.953 C227.493,92.648 226.870,92.995 226.073,92.995 L223.559,92.995 L223.559,79.264 L224.203,79.264 L224.203,85.224 ZM224.203,92.014 L226.089,92.014 C226.679,92.014 227.141,91.751 227.472,91.225 C227.804,90.700 227.970,89.980 227.970,89.067 C227.970,88.198 227.809,87.507 227.488,86.993 C227.167,86.480 226.716,86.217 226.136,86.205 L224.203,86.205 L224.203,92.014 ZM234.860,39.731 L234.860,52.463 L235.609,52.463 L235.562,56.773 L234.965,56.773 L234.965,53.462 L229.248,53.462 L229.248,39.731 L229.898,39.731 L229.898,52.482 L234.215,52.482 L234.215,39.731 L234.860,39.731 ZM231.922,60.077 C232.367,59.565 232.879,59.309 233.459,59.309 C234.277,59.309 234.922,59.705 235.395,60.497 C235.868,61.289 236.144,62.386 236.220,63.788 L235.571,63.788 C235.410,61.456 234.706,60.290 233.459,60.290 C232.768,60.290 232.217,60.755 231.806,61.686 C231.396,62.618 231.191,63.904 231.191,65.547 L231.191,67.227 C231.191,68.812 231.391,70.077 231.791,71.021 C232.190,71.965 232.731,72.436 233.412,72.436 C234.086,72.436 234.594,72.146 234.937,71.564 C235.279,70.983 235.490,70.110 235.571,68.947 L236.220,68.947 C236.133,70.393 235.846,71.500 235.359,72.267 C234.871,73.034 234.222,73.417 233.412,73.417 C232.846,73.417 232.346,73.163 231.911,72.653 C231.476,72.144 231.140,71.423 230.902,70.489 C230.665,69.555 230.544,68.488 230.541,67.287 L230.541,65.505 C230.541,64.285 230.660,63.204 230.897,62.261 C231.135,61.317 231.476,60.590 231.922,60.077 ZM234.087,79.844 C234.532,79.331 235.045,79.075 235.625,79.075 C236.442,79.075 237.087,79.471 237.561,80.263 C238.034,81.055 238.309,82.153 238.386,83.555 L237.736,83.555 C237.575,81.222 236.872,80.056 235.625,80.056 C234.933,80.056 234.382,80.521 233.972,81.453 C233.561,82.384 233.356,83.671 233.356,85.313 L233.356,86.993 C233.356,88.578 233.556,89.843 233.956,90.787 C234.356,91.731 234.896,92.203 235.577,92.203 C236.252,92.203 236.760,91.912 237.102,91.330 C237.444,90.749 237.656,89.876 237.736,88.713 L238.386,88.713 C238.298,90.159 238.011,91.266 237.524,92.033 C237.037,92.800 236.388,93.183 235.577,93.183 C235.012,93.183 234.511,92.929 234.076,92.420 C233.642,91.910 233.305,91.189 233.068,90.255 C232.830,89.322 232.710,88.254 232.706,87.053 L232.706,85.271 C232.706,84.051 232.825,82.970 233.063,82.027 C233.300,81.084 233.642,80.356 234.087,79.844 ZM237.715,59.497 L238.359,59.497 L238.359,65.458 L240.251,65.458 C240.771,65.458 241.222,65.613 241.602,65.924 C241.983,66.236 242.274,66.682 242.475,67.264 C242.676,67.845 242.776,68.532 242.776,69.324 C242.776,70.538 242.551,71.492 242.100,72.187 C241.650,72.881 241.026,73.229 240.230,73.229 L237.715,73.229 L237.715,59.497 ZM238.359,72.248 L240.245,72.248 C240.836,72.248 241.297,71.985 241.629,71.459 C241.960,70.933 242.126,70.214 242.126,69.301 C242.126,68.432 241.966,67.740 241.644,67.227 C241.323,66.714 240.872,66.451 240.293,66.438 L238.359,66.438 L238.359,72.248 ZM241.465,49.605 L238.002,49.605 L237.216,53.462 L236.540,53.462 L239.427,39.731 L240.040,39.731 L242.927,53.462 L242.256,53.462 L241.465,49.605 ZM239.731,41.146 L238.201,48.624 L241.261,48.624 L239.731,41.146 ZM246.889,80.174 C247.312,80.781 247.523,81.676 247.523,82.859 C247.523,83.570 247.416,84.188 247.201,84.713 C246.986,85.239 246.692,85.614 246.318,85.841 C246.762,86.017 247.119,86.410 247.389,87.019 C247.660,87.629 247.795,88.332 247.795,89.130 C247.795,90.343 247.578,91.290 247.143,91.972 C246.708,92.654 246.103,92.995 245.328,92.995 L242.776,92.995 L242.776,79.264 L245.029,79.264 C245.846,79.264 246.466,79.567 246.889,80.174 ZM243.421,92.014 L245.354,92.014 C245.906,92.014 246.343,91.761 246.666,91.256 C246.989,90.751 247.151,90.049 247.151,89.152 C247.151,88.305 246.996,87.635 246.687,87.142 C246.378,86.649 245.951,86.403 245.406,86.403 L243.421,86.403 L243.421,92.014 ZM243.421,85.422 L245.181,85.422 C245.719,85.403 246.135,85.175 246.431,84.737 C246.726,84.299 246.873,83.661 246.873,82.824 C246.873,81.942 246.721,81.292 246.415,80.873 C246.109,80.454 245.647,80.244 245.029,80.244 L243.421,80.244 L243.421,85.422 ZM246.733,47.870 L244.794,47.870 L244.794,53.462 L244.150,53.462 L244.150,39.731 L246.749,39.731 C247.541,39.731 248.168,40.096 248.627,40.825 C249.086,41.555 249.316,42.557 249.316,43.834 C249.316,45.122 249.095,46.117 248.653,46.818 C248.211,47.520 247.571,47.870 246.733,47.870 ZM248.671,43.848 C248.671,42.897 248.508,42.140 248.182,41.576 C247.855,41.013 247.391,40.725 246.791,40.712 L244.794,40.712 L244.794,46.889 L246.749,46.889 C247.374,46.889 247.851,46.622 248.179,46.086 C248.507,45.551 248.671,44.805 248.671,43.848 ZM253.795,80.357 C254.255,81.087 254.484,82.090 254.484,83.366 C254.484,84.655 254.263,85.650 253.822,86.351 C253.380,87.052 252.740,87.402 251.901,87.402 L249.963,87.402 L249.963,92.995 L249.318,92.995 L249.318,79.264 L251.917,79.264 C252.710,79.264 253.336,79.628 253.795,80.357 ZM249.963,86.422 L251.917,86.422 C252.542,86.422 253.019,86.154 253.347,85.619 C253.676,85.084 253.840,84.337 253.840,83.380 C253.840,82.429 253.677,81.672 253.350,81.109 C253.023,80.545 252.560,80.257 251.959,80.244 L249.963,80.244 L249.963,86.422 ZM250.852,49.605 L250.066,53.462 L249.390,53.462 L252.277,39.731 L252.890,39.731 L255.777,53.462 L255.106,53.462 L254.315,49.605 L250.852,49.605 ZM252.581,41.146 L251.051,48.624 L254.110,48.624 L252.581,41.146 ZM258.058,79.264 L260.945,92.995 L260.274,92.995 L259.483,89.138 L256.020,89.138 L255.234,92.995 L254.558,92.995 L257.445,79.264 L258.058,79.264 ZM259.279,88.157 L257.749,80.678 L256.219,88.157 L259.279,88.157 ZM257.010,53.462 L257.010,39.731 L262.616,39.731 L262.616,53.462 L261.971,53.462 L261.971,40.712 L257.654,40.712 L257.654,53.462 L257.010,53.462 ZM261.865,83.111 C261.869,84.224 262.022,85.034 262.324,85.540 C262.626,86.046 263.107,86.299 263.767,86.299 C264.434,86.299 265.122,86.120 265.832,85.761 L265.832,79.264 L266.481,79.264 L266.481,92.995 L265.832,92.995 L265.832,86.742 C265.116,87.101 264.427,87.280 263.767,87.280 C262.901,87.280 262.262,86.944 261.850,86.272 C261.437,85.600 261.226,84.567 261.216,83.173 L261.216,79.264 L261.865,79.264 L261.865,83.111 ZM269.504,79.853 C269.954,79.334 270.473,79.075 271.060,79.075 C271.647,79.075 272.165,79.330 272.613,79.839 C273.062,80.348 273.409,81.068 273.653,81.998 C273.898,82.929 274.025,84.007 274.036,85.233 L274.036,86.874 C274.036,88.138 273.915,89.248 273.672,90.203 C273.429,91.159 273.082,91.895 272.632,92.410 C272.181,92.926 271.661,93.183 271.070,93.183 C270.180,93.183 269.460,92.610 268.912,91.462 C268.363,90.315 268.089,88.767 268.089,86.818 L268.089,85.403 C268.089,84.152 268.212,83.044 268.459,82.079 C268.705,81.114 269.053,80.372 269.504,79.853 ZM268.734,86.874 C268.734,88.503 268.943,89.793 269.362,90.746 C269.782,91.698 270.351,92.174 271.070,92.174 C271.800,92.174 272.370,91.704 272.778,90.764 C273.187,89.825 273.391,88.515 273.391,86.836 L273.391,85.384 C273.391,83.731 273.184,82.436 272.768,81.499 C272.352,80.562 271.783,80.093 271.060,80.093 C270.351,80.093 269.786,80.563 269.365,81.503 C268.944,82.443 268.734,83.756 268.734,85.441 L268.734,86.874 Z" class="cls-1"/>
</svg>
