<svg xmlns="http://www.w3.org/2000/svg" xmlns:xlink="http://www.w3.org/1999/xlink" preserveAspectRatio="xMidYMid" width="1272.47" height="136.38" viewBox="0 0 1272.47 136.38">
  <defs>
    <style>
      .cls-1 {
        fill: #000;
        opacity: 0.7;
        fill-rule: evenodd;
      }
    </style>
  </defs>
  <path d="M1271.863,122.647 C1271.466,123.397 1270.884,123.772 1270.118,123.772 C1269.351,123.772 1268.776,123.397 1268.393,122.647 C1268.009,121.896 1267.818,120.964 1267.818,119.850 C1267.818,118.688 1268.009,117.720 1268.393,116.945 C1268.776,116.171 1269.351,115.783 1270.118,115.783 C1270.884,115.783 1271.466,116.171 1271.863,116.945 C1272.259,117.720 1272.458,118.688 1272.458,119.850 C1272.458,120.964 1272.259,121.896 1271.863,122.647 ZM1258.138,102.782 L1258.501,80.558 L1248.858,123.373 L1245.892,123.373 L1236.269,80.667 L1236.652,102.782 L1236.652,123.373 L1232.778,123.373 L1232.778,70.499 L1237.782,70.499 L1247.385,113.641 L1256.988,70.499 L1262.012,70.499 L1262.012,123.373 L1258.138,123.373 L1258.138,102.782 ZM1221.433,121.049 C1219.658,123.082 1217.586,124.099 1215.219,124.099 C1212.906,124.099 1210.854,123.077 1209.066,121.031 C1207.277,118.985 1205.888,116.068 1204.900,112.279 C1203.911,108.490 1203.403,104.102 1203.377,99.115 L1203.377,95.302 C1203.377,90.218 1203.867,85.727 1204.849,81.829 C1205.831,77.931 1207.220,74.947 1209.015,72.877 C1210.811,70.807 1212.865,69.773 1215.179,69.773 C1217.532,69.773 1219.607,70.796 1221.403,72.841 C1223.198,74.887 1224.580,77.853 1225.549,81.738 C1226.517,85.624 1227.001,90.145 1227.001,95.302 L1227.001,98.643 C1227.001,103.824 1226.517,108.345 1225.549,112.206 C1224.580,116.068 1223.208,119.015 1221.433,121.049 ZM1223.148,95.229 C1223.148,88.959 1222.448,84.147 1221.050,80.794 C1219.651,77.441 1217.694,75.764 1215.179,75.764 C1212.731,75.764 1210.804,77.441 1209.399,80.794 C1207.993,84.147 1207.270,88.801 1207.230,94.757 L1207.230,98.643 C1207.230,104.720 1207.939,109.495 1209.358,112.969 C1210.777,116.443 1212.731,118.180 1215.219,118.180 C1217.721,118.180 1219.658,116.540 1221.029,113.259 C1222.401,109.979 1223.107,105.276 1223.148,99.151 L1223.148,95.229 ZM1193.697,101.439 C1192.285,102.165 1191.000,102.668 1189.844,102.946 C1188.687,103.224 1187.369,103.364 1185.889,103.364 C1182.540,103.364 1180.052,102.058 1178.425,99.446 C1176.797,96.834 1175.963,92.832 1175.923,87.439 L1175.923,70.499 L1179.817,70.499 L1179.817,87.276 C1179.830,90.956 1180.297,93.607 1181.219,95.229 C1182.140,96.851 1183.697,97.662 1185.889,97.662 C1188.445,97.662 1191.047,97.008 1193.697,95.701 L1193.697,70.499 L1197.591,70.499 L1197.591,123.373 L1193.697,123.373 L1193.697,101.439 ZM1168.313,109.537 L1156.006,109.537 L1153.242,123.373 L1149.248,123.373 L1160.465,70.499 L1163.854,70.499 L1175.091,123.373 L1171.117,123.373 L1168.313,109.537 ZM1162.159,79.105 L1157.176,103.836 L1167.163,103.836 L1162.159,79.105 ZM1138.902,102.674 L1131.982,102.674 L1131.982,123.373 L1128.109,123.373 L1128.109,70.499 L1138.943,70.499 C1142.157,70.499 1144.675,71.976 1146.498,74.929 C1148.320,77.883 1149.232,81.793 1149.232,86.659 C1149.232,91.792 1148.341,95.744 1146.559,98.516 C1144.776,101.288 1142.224,102.674 1138.902,102.674 ZM1143.704,79.147 C1142.601,77.255 1141.088,76.273 1139.165,76.200 L1131.982,76.200 L1131.982,96.972 L1138.943,96.972 C1141.014,96.972 1142.601,96.093 1143.704,94.335 C1144.807,92.577 1145.358,90.036 1145.358,86.713 C1145.358,83.561 1144.807,81.039 1143.704,79.147 ZM1122.437,108.121 C1122.437,112.866 1121.583,116.594 1119.875,119.306 C1118.167,122.017 1115.752,123.373 1112.632,123.373 L1102.444,123.373 L1102.444,70.499 L1112.047,70.499 C1115.235,70.499 1117.632,71.685 1119.239,74.058 C1120.846,76.431 1121.650,79.941 1121.650,84.589 C1121.650,87.058 1121.260,89.243 1120.480,91.144 C1119.700,93.044 1118.637,94.515 1117.293,95.556 C1118.879,96.355 1120.134,97.874 1121.055,100.113 C1121.976,102.353 1122.437,105.022 1122.437,108.121 ZM1117.757,84.534 C1117.757,81.623 1117.286,79.506 1116.344,78.184 C1115.403,76.862 1113.970,76.200 1112.047,76.200 L1106.318,76.200 L1106.318,93.050 L1112.168,93.050 C1113.863,93.050 1115.218,92.286 1116.233,90.758 C1117.249,89.229 1117.757,87.155 1117.757,84.534 ZM1112.773,98.643 L1106.318,98.643 L1106.318,117.671 L1112.713,117.671 C1114.515,117.671 1115.937,116.831 1116.980,115.148 C1118.022,113.465 1118.543,111.147 1118.543,108.193 C1118.543,101.826 1116.620,98.643 1112.773,98.643 ZM1069.378,113.310 C1070.710,116.702 1072.573,118.398 1074.967,118.398 C1077.118,118.398 1078.770,117.521 1079.920,115.765 C1081.070,114.010 1081.833,110.953 1082.209,106.595 L1086.103,106.595 C1085.740,112.188 1084.593,116.504 1082.663,119.542 C1080.733,122.580 1078.168,124.099 1074.967,124.099 C1071.497,124.099 1068.716,121.860 1066.624,117.381 C1064.533,112.902 1063.487,106.910 1063.487,99.405 L1063.487,94.321 C1063.487,89.407 1063.975,85.085 1064.950,81.357 C1065.925,77.629 1067.307,74.766 1069.096,72.768 C1070.884,70.771 1072.956,69.773 1075.310,69.773 C1078.430,69.773 1080.932,71.340 1082.815,74.475 C1084.698,77.611 1085.794,81.950 1086.103,87.494 L1082.209,87.494 C1081.873,83.269 1081.143,80.209 1080.020,78.315 C1078.897,76.421 1077.327,75.474 1075.310,75.474 C1072.835,75.474 1070.895,77.122 1069.489,80.417 C1068.084,83.713 1067.381,88.401 1067.381,94.482 L1067.381,99.607 C1067.381,105.350 1068.047,109.918 1069.378,113.310 ZM1038.633,123.373 L1027.395,123.373 L1027.395,70.499 L1031.269,70.499 L1031.269,92.070 L1038.572,92.070 C1041.639,92.142 1044.033,93.559 1045.754,96.318 C1047.476,99.078 1048.337,102.831 1048.337,107.576 C1048.337,112.346 1047.469,116.146 1045.734,118.979 C1043.999,121.811 1041.632,123.276 1038.633,123.373 ZM1042.900,100.427 C1041.871,98.705 1040.408,97.820 1038.512,97.771 L1031.269,97.771 L1031.269,117.671 L1038.350,117.671 C1040.274,117.671 1041.770,116.750 1042.839,114.906 C1043.908,113.063 1044.443,110.590 1044.443,107.485 C1044.443,104.502 1043.929,102.149 1042.900,100.427 ZM1005.510,113.310 C1006.841,116.702 1008.704,118.398 1011.098,118.398 C1013.250,118.398 1014.901,117.521 1016.051,115.765 C1017.201,114.010 1017.964,110.953 1018.341,106.595 L1022.235,106.595 C1021.872,112.188 1020.725,116.504 1018.795,119.542 C1016.865,122.580 1014.299,124.099 1011.098,124.099 C1007.628,124.099 1004.847,121.860 1002.756,117.381 C1000.665,112.902 999.619,106.910 999.619,99.405 L999.619,94.321 C999.619,89.407 1000.106,85.085 1001.082,81.357 C1002.057,77.629 1003.439,74.766 1005.227,72.768 C1007.016,70.771 1009.087,69.773 1011.441,69.773 C1014.561,69.773 1017.063,71.340 1018.946,74.475 C1020.829,77.611 1021.925,81.950 1022.235,87.494 L1018.341,87.494 C1018.005,83.269 1017.275,80.209 1016.152,78.315 C1015.029,76.421 1013.459,75.474 1011.441,75.474 C1008.966,75.474 1007.026,77.122 1005.621,80.417 C1004.215,83.713 1003.513,88.401 1003.513,94.482 L1003.513,99.607 C1003.513,105.350 1004.178,109.918 1005.510,113.310 ZM977.706,70.499 L996.166,70.499 L996.166,76.200 L981.580,76.200 L981.580,93.232 L994.310,93.232 L994.310,98.933 L981.580,98.933 L981.580,117.671 L996.368,117.671 L996.368,123.373 L977.706,123.373 L977.706,70.499 ZM963.675,123.373 L959.822,123.373 L959.822,76.200 L950.400,76.200 L950.400,70.499 L973.117,70.499 L973.117,76.200 L963.675,76.200 L963.675,123.373 ZM941.791,82.628 L927.326,123.373 L923.432,123.373 L923.432,70.499 L927.326,70.499 L927.326,111.244 L941.791,70.499 L945.665,70.499 L945.665,123.373 L941.791,123.373 L941.791,82.628 ZM934.670,67.085 C932.867,67.085 931.408,66.186 930.292,64.388 C929.175,62.590 928.617,60.233 928.617,57.317 L931.664,57.317 C931.664,59.011 931.919,60.337 932.430,61.293 C932.941,62.250 933.688,62.727 934.670,62.727 C935.611,62.727 936.347,62.255 936.879,61.311 C937.410,60.367 937.676,59.036 937.676,57.317 L940.702,57.317 C940.702,60.257 940.147,62.620 939.038,64.406 C937.928,66.193 936.472,67.085 934.670,67.085 ZM906.288,120.522 C905.682,121.697 904.973,122.592 904.159,123.209 C903.345,123.827 902.326,124.135 901.103,124.135 C900.040,124.135 899.361,124.026 899.065,123.809 L899.186,118.289 L901.022,118.434 C902.434,118.434 903.483,117.212 904.169,114.766 L904.674,112.878 L905.440,109.646 L895.433,70.499 L899.771,70.499 L907.377,101.185 L914.135,70.499 L918.634,70.499 L908.244,114.548 C907.545,117.357 906.893,119.348 906.288,120.522 ZM915.309,54.002 C914.542,54.002 913.967,53.627 913.584,52.877 C913.200,52.126 913.009,51.194 913.009,50.080 C913.009,48.918 913.200,47.950 913.584,47.175 C913.967,46.401 914.542,46.013 915.309,46.013 C916.075,46.013 916.657,46.401 917.054,47.175 C917.450,47.950 917.649,48.918 917.649,50.080 C917.649,51.194 917.450,52.126 917.054,52.877 C916.657,53.627 916.075,54.002 915.309,54.002 ZM903.973,51.279 C902.198,53.312 900.126,54.329 897.759,54.329 C895.446,54.329 893.395,53.307 891.606,51.261 C889.817,49.215 888.429,46.298 887.440,42.509 C886.451,38.720 885.944,34.332 885.917,29.345 L885.917,25.532 C885.917,20.448 886.408,15.957 887.390,12.059 C888.371,8.161 889.760,5.177 891.556,3.107 C893.351,1.037 895.406,0.003 897.719,0.003 C900.073,0.003 902.147,1.026 903.943,3.071 C905.739,5.117 907.120,8.083 908.089,11.968 C909.057,15.854 909.541,20.375 909.541,25.532 L909.541,28.873 C909.541,34.054 909.057,38.575 908.089,42.436 C907.120,46.298 905.749,49.245 903.973,51.279 ZM905.688,25.459 C905.688,19.189 904.989,14.377 903.590,11.024 C902.191,7.671 900.234,5.994 897.719,5.994 C895.271,5.994 893.344,7.671 891.939,11.024 C890.533,14.377 889.811,19.031 889.770,24.987 L889.770,28.873 C889.770,34.950 890.479,39.725 891.899,43.199 C893.317,46.673 895.271,48.410 897.759,48.410 C900.261,48.410 902.198,46.770 903.570,43.489 C904.942,40.209 905.648,35.506 905.688,29.381 L905.688,25.459 ZM892.876,86.659 C892.876,91.792 891.984,95.744 890.202,98.516 C888.420,101.288 885.868,102.674 882.546,102.674 L875.626,102.674 L875.626,123.373 L871.753,123.373 L871.753,70.499 L882.586,70.499 C885.801,70.499 888.319,71.976 890.142,74.929 C891.964,77.883 892.876,81.793 892.876,86.659 ZM887.348,79.147 C886.245,77.255 884.732,76.273 882.808,76.200 L875.626,76.200 L875.626,96.972 L882.586,96.972 C884.658,96.972 886.245,96.093 887.348,94.335 C888.450,92.577 889.002,90.036 889.002,86.713 C889.002,83.561 888.450,81.039 887.348,79.147 ZM881.332,38.351 C881.332,43.096 880.477,46.824 878.770,49.536 C877.061,52.247 874.647,53.603 871.527,53.603 L861.339,53.603 L861.339,0.729 L870.942,0.729 C874.129,0.729 876.527,1.915 878.134,4.288 C879.741,6.661 880.545,10.171 880.545,14.819 C880.545,17.288 880.155,19.473 879.375,21.374 C878.595,23.274 877.532,24.745 876.187,25.786 C877.774,26.585 879.028,28.104 879.950,30.343 C880.871,32.583 881.332,35.252 881.332,38.351 ZM876.651,14.764 C876.651,11.853 876.180,9.736 875.239,8.414 C874.297,7.092 872.865,6.430 870.942,6.430 L865.212,6.430 L865.212,23.280 L871.063,23.280 C872.757,23.280 874.112,22.516 875.128,20.988 C876.143,19.459 876.651,17.385 876.651,14.764 ZM871.668,28.873 L865.212,28.873 L865.212,47.901 L871.608,47.901 C873.410,47.901 874.832,47.061 875.874,45.378 C876.917,43.695 877.438,41.377 877.438,38.423 C877.438,32.056 875.514,28.873 871.668,28.873 ZM864.828,123.373 L860.954,123.373 L860.954,82.628 L846.489,123.373 L842.595,123.373 L842.595,70.499 L846.489,70.499 L846.489,111.244 L860.954,70.499 L864.828,70.499 L864.828,123.373 ZM847.308,53.603 L843.454,53.603 L843.454,6.430 L834.033,6.430 L834.033,0.729 L856.749,0.729 L856.749,6.430 L847.308,6.430 L847.308,53.603 ZM814.431,43.540 C815.762,46.932 817.625,48.628 820.019,48.628 C822.171,48.628 823.822,47.751 824.972,45.995 C826.122,44.240 826.885,41.183 827.262,36.825 L831.155,36.825 C830.792,42.418 829.646,46.734 827.716,49.772 C825.786,52.810 823.220,54.329 820.019,54.329 C816.549,54.329 813.768,52.090 811.677,47.611 C809.585,43.132 808.540,37.140 808.540,29.635 L808.540,24.551 C808.540,19.637 809.027,15.315 810.002,11.587 C810.977,7.859 812.359,4.996 814.148,2.998 C815.937,1.001 818.008,0.003 820.362,0.003 C823.482,0.003 825.984,1.570 827.867,4.705 C829.750,7.841 830.846,12.180 831.155,17.724 L827.262,17.724 C826.925,13.499 826.196,10.439 825.073,8.545 C823.950,6.651 822.379,5.704 820.362,5.704 C817.887,5.704 815.947,7.352 814.542,10.647 C813.136,13.943 812.433,18.631 812.433,24.712 L812.433,29.837 C812.433,35.580 813.099,40.148 814.431,43.540 ZM816.329,107.576 C816.329,112.346 815.461,116.146 813.726,118.979 C811.991,121.811 809.624,123.276 806.625,123.373 L795.387,123.373 L795.387,70.499 L799.261,70.499 L799.261,92.070 L806.564,92.070 C809.631,92.142 812.024,93.559 813.746,96.318 C815.468,99.078 816.329,102.831 816.329,107.576 ZM810.891,100.427 C809.863,98.705 808.400,97.820 806.503,97.771 L799.261,97.771 L799.261,117.671 L806.342,117.671 C808.265,117.671 809.762,116.750 810.831,114.906 C811.900,113.063 812.435,110.590 812.435,107.485 C812.435,104.502 811.920,102.149 810.891,100.427 ZM801.728,66.567 L801.728,53.603 L780.646,53.603 L780.646,66.603 L776.772,66.603 L776.752,47.901 L779.153,47.901 C780.417,45.336 781.422,41.891 782.169,37.570 C782.915,33.249 783.382,28.509 783.571,23.353 L784.216,0.729 L801.789,0.729 L801.789,47.901 L805.622,47.901 L805.582,66.567 L801.728,66.567 ZM797.895,6.430 L787.949,6.430 L787.525,21.986 C787.350,28.069 786.903,33.254 786.184,37.543 C785.464,41.832 784.593,45.285 783.571,47.901 L797.895,47.901 L797.895,6.430 ZM754.421,0.729 L772.881,0.729 L772.881,6.430 L758.295,6.430 L758.295,23.462 L771.025,23.462 L771.025,29.163 L758.295,29.163 L758.295,47.901 L773.083,47.901 L773.083,53.603 L754.421,53.603 L754.421,0.729 ZM763.725,70.499 L753.335,114.548 C752.635,117.357 751.983,119.348 751.378,120.522 C750.773,121.697 750.063,122.592 749.250,123.209 C748.436,123.827 747.417,124.135 746.193,124.135 C745.130,124.135 744.451,124.026 744.155,123.809 L744.277,118.289 L746.112,118.434 C747.525,118.434 748.574,117.212 749.260,114.766 L749.764,112.878 L750.531,109.646 L740.524,70.499 L744.862,70.499 L752.467,101.185 L759.226,70.499 L763.725,70.499 ZM739.228,32.904 L732.308,32.904 L732.308,53.603 L728.434,53.603 L728.434,0.729 L739.268,0.729 C742.482,0.729 745.001,2.206 746.823,5.159 C748.646,8.113 749.557,12.023 749.557,16.889 C749.557,22.022 748.666,25.974 746.884,28.746 C745.102,31.518 742.549,32.904 739.228,32.904 ZM744.029,9.377 C742.926,7.485 741.413,6.503 739.490,6.430 L732.308,6.430 L732.308,27.202 L739.268,27.202 C741.339,27.202 742.926,26.323 744.029,24.565 C745.132,22.807 745.684,20.266 745.684,16.943 C745.684,13.791 745.132,11.269 744.029,9.377 ZM738.012,87.494 L734.118,87.494 C733.781,83.269 733.052,80.209 731.929,78.315 C730.806,76.421 729.236,75.474 727.218,75.474 C724.743,75.474 722.803,77.122 721.398,80.417 C719.992,83.713 719.289,88.401 719.289,94.482 L719.289,99.607 C719.289,105.350 719.955,109.918 721.287,113.310 C722.618,116.702 724.481,118.398 726.875,118.398 C729.027,118.398 730.678,117.521 731.828,115.765 C732.978,114.010 733.741,110.953 734.118,106.595 L738.012,106.595 C737.648,112.188 736.502,116.504 734.572,119.542 C732.642,122.580 730.076,124.099 726.875,124.099 C723.405,124.099 720.624,121.860 718.533,117.381 C716.441,112.902 715.396,106.910 715.396,99.405 L715.396,94.321 C715.396,89.407 715.883,85.085 716.858,81.357 C717.833,77.629 719.215,74.766 721.004,72.768 C722.793,70.771 724.864,69.773 727.218,69.773 C730.338,69.773 732.840,71.340 734.723,74.475 C736.606,77.611 737.702,81.950 738.012,87.494 ZM706.490,43.540 C707.821,46.932 709.684,48.628 712.078,48.628 C714.230,48.628 715.881,47.751 717.031,45.995 C718.181,44.240 718.944,41.183 719.321,36.825 L723.214,36.825 C722.851,42.418 721.704,46.734 719.775,49.772 C717.844,52.810 715.279,54.329 712.078,54.329 C708.608,54.329 705.827,52.090 703.736,47.611 C701.644,43.132 700.599,37.140 700.599,29.635 L700.599,24.551 C700.599,19.637 701.086,15.315 702.061,11.587 C703.036,7.859 704.418,4.996 706.207,2.998 C707.996,1.001 710.067,0.003 712.421,0.003 C715.541,0.003 718.043,1.570 719.926,4.705 C721.809,7.841 722.905,12.180 723.214,17.724 L719.321,17.724 C718.984,13.499 718.255,10.439 717.132,8.545 C716.009,6.651 714.438,5.704 712.421,5.704 C709.946,5.704 708.006,7.352 706.601,10.647 C705.195,13.943 704.492,18.631 704.492,24.712 L704.492,29.837 C704.492,35.580 705.158,40.148 706.490,43.540 ZM705.714,70.499 L709.607,70.499 L709.607,123.373 L705.714,123.373 L705.714,98.933 L690.905,98.933 L690.905,123.373 L687.032,123.373 L687.032,70.499 L690.905,70.499 L690.905,93.232 L705.714,93.232 L705.714,70.499 ZM667.069,0.729 L685.529,0.729 L685.529,6.430 L670.942,6.430 L670.942,23.462 L683.673,23.462 L683.673,29.163 L670.942,29.163 L670.942,47.901 L685.731,47.901 L685.731,53.603 L667.069,53.603 L667.069,0.729 ZM669.432,69.773 C671.786,69.773 673.860,70.796 675.656,72.841 C677.452,74.887 678.834,77.853 679.802,81.738 C680.770,85.624 681.255,90.145 681.255,95.302 L681.255,98.643 C681.255,103.824 680.770,108.345 679.802,112.206 C678.834,116.068 677.462,119.015 675.686,121.049 C673.911,123.082 671.840,124.099 669.472,124.099 C667.159,124.099 665.108,123.077 663.319,121.031 C661.530,118.985 660.142,116.068 659.153,112.279 C658.165,108.490 657.657,104.102 657.630,99.115 L657.630,95.302 C657.630,90.218 658.121,85.727 659.103,81.829 C660.084,77.931 661.473,74.947 663.269,72.877 C665.064,70.807 667.119,69.773 669.432,69.773 ZM661.483,94.757 L661.483,98.643 C661.483,104.720 662.193,109.495 663.612,112.969 C665.031,116.443 666.984,118.180 669.472,118.180 C671.974,118.180 673.911,116.540 675.283,113.259 C676.655,109.979 677.361,105.276 677.401,99.151 L677.401,95.229 C677.401,88.959 676.702,84.147 675.303,80.794 C673.904,77.441 671.947,75.764 669.432,75.764 C666.984,75.764 665.057,77.441 663.652,80.794 C662.246,84.147 661.524,88.801 661.483,94.757 ZM655.723,51.279 C653.948,53.312 651.877,54.329 649.510,54.329 C647.196,54.329 645.145,53.307 643.356,51.261 C641.567,49.215 640.179,46.298 639.190,42.509 C638.202,38.720 637.694,34.332 637.667,29.345 L637.667,25.532 C637.667,20.448 638.158,15.957 639.140,12.059 C640.121,8.161 641.510,5.177 643.306,3.107 C645.101,1.037 647.156,0.003 649.469,0.003 C651.823,0.003 653.898,1.026 655.693,3.071 C657.489,5.117 658.871,8.083 659.839,11.968 C660.807,15.854 661.292,20.375 661.292,25.532 L661.292,28.873 C661.292,34.054 660.807,38.575 659.839,42.436 C658.871,46.298 657.499,49.245 655.723,51.279 ZM657.438,25.459 C657.438,19.189 656.739,14.377 655.340,11.024 C653.941,7.671 651.984,5.994 649.469,5.994 C647.021,5.994 645.094,7.671 643.689,11.024 C642.283,14.377 641.561,19.031 641.520,24.987 L641.520,28.873 C641.520,34.950 642.230,39.725 643.649,43.199 C645.068,46.673 647.021,48.410 649.510,48.410 C652.011,48.410 653.948,46.770 655.320,43.489 C656.692,40.209 657.398,35.506 657.438,29.381 L657.438,25.459 ZM637.742,93.813 L640.768,93.813 L651.037,70.499 L655.859,70.499 L644.642,96.137 L656.686,123.373 L651.945,123.373 L641.313,99.623 L637.742,99.623 L637.742,123.373 L633.869,123.373 L633.869,70.499 L637.742,70.499 L637.742,93.813 ZM628.051,29.163 L613.242,29.163 L613.242,53.603 L609.369,53.603 L609.369,0.729 L613.242,0.729 L613.242,23.462 L628.051,23.462 L628.051,0.729 L631.944,0.729 L631.944,53.603 L628.051,53.603 L628.051,29.163 ZM616.170,69.773 C618.524,69.773 620.599,70.796 622.394,72.841 C624.190,74.887 625.572,77.853 626.540,81.738 C627.508,85.624 627.993,90.145 627.993,95.302 L627.993,98.643 C627.993,103.824 627.508,108.345 626.540,112.206 C625.572,116.068 624.200,119.015 622.424,121.049 C620.649,123.082 618.578,124.099 616.211,124.099 C613.897,124.099 611.846,123.077 610.057,121.031 C608.268,118.985 606.880,116.068 605.891,112.279 C604.903,108.490 604.395,104.102 604.368,99.115 L604.368,95.302 C604.368,90.218 604.859,85.727 605.841,81.829 C606.822,77.931 608.211,74.947 610.007,72.877 C611.802,70.807 613.857,69.773 616.170,69.773 ZM608.221,98.643 C608.221,104.720 608.931,109.495 610.350,112.969 C611.769,116.443 613.722,118.180 616.211,118.180 C618.712,118.180 620.649,116.540 622.021,113.259 C623.393,109.979 624.099,105.276 624.139,99.151 L624.139,95.229 C624.139,88.959 623.440,84.147 622.041,80.794 C620.642,77.441 618.685,75.764 616.170,75.764 C613.722,75.764 611.795,77.441 610.390,80.794 C608.984,84.147 608.262,88.801 608.221,94.757 L608.221,98.643 ZM598.645,29.163 L583.837,29.163 L583.837,53.603 L579.963,53.603 L579.963,0.729 L583.837,0.729 L583.837,23.462 L598.645,23.462 L598.645,0.729 L602.539,0.729 L602.539,53.603 L598.645,53.603 L598.645,29.163 ZM597.386,74.929 C599.208,77.883 600.119,81.793 600.119,86.659 C600.119,91.792 599.228,95.744 597.446,98.516 C595.664,101.288 593.112,102.674 589.790,102.674 L582.870,102.674 L582.870,123.373 L578.996,123.373 L578.996,70.499 L589.830,70.499 C593.045,70.499 595.563,71.976 597.386,74.929 ZM582.870,96.972 L589.830,96.972 C591.901,96.972 593.488,96.093 594.591,94.335 C595.694,92.577 596.246,90.036 596.246,86.713 C596.246,83.561 595.694,81.039 594.591,79.147 C593.488,77.255 591.975,76.273 590.052,76.200 L582.870,76.200 L582.870,96.972 ZM556.480,0.729 L574.940,0.729 L574.940,6.430 L560.353,6.430 L560.353,23.462 L573.084,23.462 L573.084,29.163 L560.353,29.163 L560.353,47.901 L575.141,47.901 L575.141,53.603 L556.480,53.603 L556.480,0.729 ZM550.808,38.351 C550.808,43.096 549.954,46.824 548.246,49.536 C546.538,52.247 544.123,53.603 541.003,53.603 L530.815,53.603 L530.815,0.729 L540.418,0.729 C543.606,0.729 546.003,1.915 547.610,4.288 C549.217,6.661 550.021,10.171 550.021,14.819 C550.021,17.288 549.631,19.473 548.851,21.374 C548.071,23.274 547.008,24.745 545.663,25.786 C547.250,26.585 548.505,28.104 549.426,30.343 C550.347,32.583 550.808,35.252 550.808,38.351 ZM546.127,14.764 C546.127,11.853 545.656,9.736 544.715,8.414 C543.774,7.092 542.341,6.430 540.418,6.430 L534.688,6.430 L534.688,23.280 L540.539,23.280 C542.234,23.280 543.589,22.516 544.604,20.988 C545.620,19.459 546.127,17.385 546.127,14.764 ZM541.144,28.873 L534.688,28.873 L534.688,47.901 L541.084,47.901 C542.886,47.901 544.308,47.061 545.351,45.378 C546.393,43.695 546.914,41.377 546.914,38.423 C546.914,32.056 544.991,28.873 541.144,28.873 ZM531.751,123.373 L527.877,123.373 L527.877,102.782 L528.240,80.558 L518.597,123.373 L515.631,123.373 L506.008,80.667 L506.391,102.782 L506.391,123.373 L502.518,123.373 L502.518,70.499 L507.521,70.499 L517.124,113.641 L526.727,70.499 L531.751,70.499 L531.751,123.373 ZM516.784,53.603 L512.931,53.603 L512.931,6.430 L503.509,6.430 L503.509,0.729 L526.226,0.729 L526.226,6.430 L516.784,6.430 L516.784,53.603 ZM483.907,43.540 C485.238,46.932 487.101,48.628 489.495,48.628 C491.647,48.628 493.298,47.751 494.448,45.995 C495.598,44.240 496.361,41.183 496.738,36.825 L500.632,36.825 C500.269,42.418 499.122,46.734 497.192,49.772 C495.262,52.810 492.696,54.329 489.495,54.329 C486.025,54.329 483.244,52.090 481.153,47.611 C479.061,43.132 478.016,37.140 478.016,29.635 L478.016,24.551 C478.016,19.637 478.503,15.315 479.478,11.587 C480.453,7.859 481.835,4.996 483.624,2.998 C485.413,1.001 487.484,0.003 489.838,0.003 C492.958,0.003 495.460,1.570 497.343,4.705 C499.226,7.841 500.322,12.180 500.632,17.724 L496.738,17.724 C496.402,13.499 495.672,10.439 494.549,8.545 C493.426,6.651 491.856,5.704 489.838,5.704 C487.363,5.704 485.423,7.352 484.018,10.647 C482.612,13.943 481.909,18.631 481.909,24.712 L481.909,29.837 C481.909,35.580 482.575,40.148 483.907,43.540 ZM463.397,32.904 L456.477,32.904 L456.477,53.603 L452.603,53.603 L452.603,0.729 L463.437,0.729 C466.652,0.729 469.170,2.206 470.993,5.159 C472.815,8.113 473.726,12.023 473.726,16.889 C473.726,22.022 472.835,25.974 471.053,28.746 C469.271,31.518 466.719,32.904 463.397,32.904 ZM468.198,9.377 C467.095,7.485 465.582,6.503 463.659,6.430 L456.477,6.430 L456.477,27.202 L463.437,27.202 C465.508,27.202 467.095,26.323 468.198,24.565 C469.301,22.807 469.853,20.266 469.853,16.943 C469.853,13.791 469.301,11.269 468.198,9.377 ZM453.770,111.244 L468.236,70.499 L472.109,70.499 L472.109,123.373 L468.236,123.373 L468.236,82.628 L453.770,123.373 L449.877,123.373 L449.877,70.499 L453.770,70.499 L453.770,111.244 ZM441.420,39.767 L429.113,39.767 L426.349,53.603 L422.355,53.603 L433.572,0.729 L436.961,0.729 L448.199,53.603 L444.224,53.603 L441.420,39.767 ZM435.267,9.335 L430.284,34.066 L440.270,34.066 L435.267,9.335 ZM424.270,93.232 L439.078,93.232 L439.078,70.499 L442.972,70.499 L442.972,123.373 L439.078,123.373 L439.078,98.933 L424.270,98.933 L424.270,123.373 L420.396,123.373 L420.396,70.499 L424.270,70.499 L424.270,93.232 ZM414.759,53.603 L404.127,29.853 L400.556,29.853 L400.556,53.603 L396.683,53.603 L396.683,0.729 L400.556,0.729 L400.556,24.043 L403.582,24.043 L413.851,0.729 L418.673,0.729 L407.456,26.367 L419.500,53.603 L414.759,53.603 ZM373.104,0.729 L391.564,0.729 L391.564,6.430 L376.978,6.430 L376.978,23.462 L389.708,23.462 L389.708,29.163 L376.978,29.163 L376.978,47.901 L391.766,47.901 L391.766,53.603 L373.104,53.603 L373.104,0.729 ZM384.198,74.058 C385.805,76.431 386.608,79.941 386.608,84.589 C386.608,87.058 386.218,89.243 385.438,91.144 C384.658,93.044 383.595,94.515 382.251,95.556 C383.838,96.355 385.092,97.874 386.013,100.113 C386.934,102.353 387.395,105.022 387.395,108.121 C387.395,112.866 386.541,116.594 384.833,119.306 C383.125,122.017 380.710,123.373 377.590,123.373 L367.402,123.373 L367.402,70.499 L377.005,70.499 C380.193,70.499 382.590,71.685 384.198,74.058 ZM371.276,117.671 L377.671,117.671 C379.473,117.671 380.895,116.831 381.938,115.148 C382.980,113.465 383.502,111.147 383.502,108.193 C383.502,101.826 381.578,98.643 377.732,98.643 L371.276,98.643 L371.276,117.671 ZM371.276,93.050 L377.126,93.050 C378.821,93.050 380.176,92.286 381.191,90.758 C382.207,89.229 382.715,87.155 382.715,84.534 C382.715,81.623 382.244,79.506 381.302,78.184 C380.361,76.862 378.928,76.200 377.005,76.200 L371.276,76.200 L371.276,93.050 ZM362.317,6.430 L351.786,6.430 L351.262,27.400 C351.060,34.426 350.660,39.708 350.061,43.245 C349.463,46.782 348.585,49.381 347.428,51.041 C346.272,52.701 344.725,53.555 342.788,53.603 L341.517,53.603 L341.517,47.901 L342.324,47.829 C343.575,47.660 344.537,46.927 345.209,45.632 C345.882,44.337 346.393,42.273 346.742,39.440 C347.092,36.608 347.341,32.250 347.489,26.367 L348.094,0.729 L366.191,0.729 L366.191,53.603 L362.317,53.603 L362.317,6.430 ZM349.802,69.773 C352.156,69.773 354.231,70.796 356.026,72.841 C357.822,74.887 359.204,77.853 360.172,81.738 C361.141,85.624 361.625,90.145 361.625,95.302 L361.625,98.643 C361.625,103.824 361.141,108.345 360.172,112.206 C359.204,116.068 357.832,119.015 356.057,121.049 C354.281,123.082 352.210,124.099 349.843,124.099 C347.529,124.099 345.478,123.077 343.689,121.031 C341.900,118.985 340.512,116.068 339.523,112.279 C338.535,108.490 338.027,104.102 338.000,99.115 L338.000,95.302 C338.000,90.218 338.491,85.727 339.473,81.829 C340.454,77.931 341.843,74.947 343.639,72.877 C345.435,70.807 347.489,69.773 349.802,69.773 ZM341.853,98.643 C341.853,104.720 342.563,109.495 343.982,112.969 C345.401,116.443 347.354,118.180 349.843,118.180 C352.344,118.180 354.281,116.540 355.653,113.259 C357.025,109.979 357.731,105.276 357.771,99.151 L357.771,95.229 C357.771,88.959 357.072,84.147 355.673,80.794 C354.274,77.441 352.317,75.764 349.802,75.764 C347.354,75.764 345.428,77.441 344.022,80.794 C342.617,84.147 341.894,88.801 341.853,94.757 L341.853,98.643 ZM330.765,119.921 C328.801,122.707 326.178,124.099 322.897,124.099 C320.946,124.099 319.174,123.476 317.581,122.229 C315.987,120.982 314.746,119.209 313.858,116.909 C312.971,114.609 312.527,111.874 312.527,108.702 L316.400,108.702 C316.400,111.476 317.012,113.785 318.236,115.630 C319.460,117.476 321.014,118.398 322.897,118.398 C325.008,118.398 326.693,117.514 327.951,115.747 C329.208,113.980 329.837,111.643 329.837,108.738 C329.837,102.541 327.705,99.381 323.441,99.260 L319.810,99.260 L319.810,93.559 L323.421,93.559 C325.385,93.486 326.871,92.686 327.880,91.157 C328.889,89.629 329.393,87.470 329.393,84.680 C329.393,81.866 328.825,79.629 327.688,77.967 C326.552,76.305 324.955,75.474 322.897,75.474 C321.175,75.474 319.732,76.331 318.569,78.045 C317.406,79.758 316.824,81.879 316.824,84.407 L312.951,84.407 C312.951,81.599 313.377,79.082 314.232,76.854 C315.086,74.627 316.279,72.890 317.813,71.643 C319.346,70.396 321.041,69.773 322.897,69.773 C326.178,69.773 328.727,71.097 330.543,73.747 C332.359,76.396 333.267,80.080 333.267,84.797 C333.267,87.241 332.850,89.467 332.016,91.475 C331.182,93.483 330.018,95.068 328.526,96.229 C331.982,98.312 333.710,102.443 333.710,108.619 C333.710,113.368 332.728,117.135 330.765,119.921 ZM298.742,123.373 L287.504,123.373 L287.504,70.499 L291.378,70.499 L291.378,92.070 L298.681,92.070 C301.748,92.142 304.141,93.559 305.863,96.318 C307.585,99.078 308.446,102.831 308.446,107.576 C308.446,112.346 307.578,116.146 305.843,118.979 C304.108,121.811 301.741,123.276 298.742,123.373 ZM303.009,100.427 C301.980,98.705 300.517,97.820 298.620,97.771 L291.378,97.771 L291.378,117.671 L298.459,117.671 C300.382,117.671 301.879,116.750 302.948,114.906 C304.017,113.063 304.552,110.590 304.552,107.485 C304.552,104.502 304.037,102.149 303.009,100.427 ZM276.772,76.200 L266.241,76.200 L265.716,97.170 C265.515,104.196 265.114,109.478 264.516,113.015 C263.917,116.553 263.040,119.151 261.883,120.811 C260.726,122.471 259.180,123.325 257.243,123.373 L255.972,123.373 L255.972,117.671 L256.779,117.599 C258.030,117.430 258.991,116.697 259.664,115.402 C260.336,114.107 260.847,112.043 261.197,109.210 C261.547,106.378 261.796,102.020 261.944,96.137 L262.549,70.499 L280.646,70.499 L280.646,123.373 L276.772,123.373 L276.772,76.200 ZM247.815,121.049 C246.040,123.082 243.968,124.099 241.601,124.099 C239.288,124.099 237.237,123.077 235.448,121.031 C233.659,118.985 232.270,116.068 231.282,112.279 C230.293,108.490 229.785,104.102 229.759,99.115 L229.759,95.302 C229.759,90.218 230.249,85.727 231.231,81.829 C232.213,77.931 233.602,74.947 235.397,72.877 C237.193,70.807 239.247,69.773 241.561,69.773 C243.914,69.773 245.989,70.796 247.785,72.841 C249.580,74.887 250.962,77.853 251.931,81.738 C252.899,85.624 253.383,90.145 253.383,95.302 L253.383,98.643 C253.383,103.824 252.899,108.345 251.931,112.206 C250.962,116.068 249.590,119.015 247.815,121.049 ZM249.530,95.229 C249.530,88.959 248.830,84.147 247.432,80.794 C246.033,77.441 244.076,75.764 241.561,75.764 C239.113,75.764 237.186,77.441 235.781,80.794 C234.375,84.147 233.652,88.801 233.612,94.757 L233.612,98.643 C233.612,104.720 234.321,109.495 235.740,112.969 C237.159,116.443 239.113,118.180 241.601,118.180 C244.103,118.180 246.040,116.540 247.412,113.259 C248.783,109.979 249.490,105.276 249.530,99.151 L249.530,95.229 ZM220.059,76.200 L205.574,76.200 L205.574,123.373 L201.700,123.373 L201.700,70.499 L223.953,70.499 L223.953,123.373 L220.059,123.373 L220.059,76.200 ZM179.661,113.310 C180.993,116.702 182.855,118.398 185.249,118.398 C187.401,118.398 189.052,117.521 190.202,115.765 C191.352,114.010 192.115,110.953 192.492,106.595 L196.386,106.595 C196.023,112.188 194.876,116.504 192.946,119.542 C191.016,122.580 188.450,124.099 185.249,124.099 C181.779,124.099 178.998,121.860 176.907,117.381 C174.816,112.902 173.770,106.910 173.770,99.405 L173.770,94.321 C173.770,89.407 174.257,85.085 175.233,81.357 C176.208,77.629 177.590,74.766 179.379,72.768 C181.167,70.771 183.239,69.773 185.592,69.773 C188.713,69.773 191.214,71.340 193.097,74.475 C194.980,77.611 196.076,81.950 196.386,87.494 L192.492,87.494 C192.156,83.269 191.426,80.209 190.303,78.315 C189.180,76.421 187.610,75.474 185.592,75.474 C183.118,75.474 181.177,77.122 179.772,80.417 C178.366,83.713 177.664,88.401 177.664,94.482 L177.664,99.607 C177.664,105.350 178.329,109.918 179.661,113.310 ZM164.009,82.628 L149.544,123.373 L145.650,123.373 L145.650,70.499 L149.544,70.499 L149.544,111.244 L164.009,70.499 L167.883,70.499 L167.883,123.373 L164.009,123.373 L164.009,82.628 ZM125.940,136.337 L125.940,123.373 L104.858,123.373 L104.858,136.373 L100.984,136.373 L100.964,117.671 L103.365,117.671 C104.629,115.106 105.634,111.661 106.381,107.340 C107.127,103.019 107.594,98.279 107.783,93.123 L108.429,70.499 L126.001,70.499 L126.001,117.671 L129.834,117.671 L129.794,136.337 L125.940,136.337 ZM122.107,76.200 L112.161,76.200 L111.737,91.756 C111.562,97.839 111.115,103.024 110.396,107.313 C109.676,111.602 108.805,115.055 107.783,117.671 L122.107,117.671 L122.107,76.200 ZM78.633,70.499 L97.093,70.499 L97.093,76.200 L82.507,76.200 L82.507,93.232 L95.237,93.232 L95.237,98.933 L82.507,98.933 L82.507,117.671 L97.295,117.671 L97.295,123.373 L78.633,123.373 L78.633,70.499 ZM63.440,102.674 L56.520,102.674 L56.520,123.373 L52.646,123.373 L52.646,70.499 L63.480,70.499 C66.694,70.499 69.213,71.976 71.035,74.929 C72.858,77.883 73.769,81.793 73.769,86.659 C73.769,91.792 72.878,95.744 71.096,98.516 C69.314,101.288 66.762,102.674 63.440,102.674 ZM68.241,79.147 C67.138,77.255 65.625,76.273 63.702,76.200 L56.520,76.200 L56.520,96.972 L63.480,96.972 C65.551,96.972 67.138,96.093 68.241,94.335 C69.344,92.577 69.896,90.036 69.896,86.713 C69.896,83.561 69.344,81.039 68.241,79.147 ZM29.163,70.499 L47.623,70.499 L47.623,76.200 L33.036,76.200 L33.036,93.232 L45.767,93.232 L45.767,98.933 L33.036,98.933 L33.036,117.671 L47.824,117.671 L47.824,123.373 L29.163,123.373 L29.163,70.499 ZM18.352,76.200 L3.867,76.200 L3.867,123.373 L-0.007,123.373 L-0.007,70.499 L22.246,70.499 L22.246,123.373 L18.352,123.373 L18.352,76.200 ZM404.755,70.499 L415.992,123.373 L412.017,123.373 L409.213,109.537 L396.907,109.537 L394.143,123.373 L390.148,123.373 L401.365,70.499 L404.755,70.499 ZM408.063,103.836 L403.060,79.105 L398.077,103.836 L408.063,103.836 ZM497.494,76.200 L482.908,76.200 L482.908,93.232 L495.638,93.232 L495.638,98.933 L482.908,98.933 L482.908,117.671 L497.696,117.671 L497.696,123.373 L479.034,123.373 L479.034,70.499 L497.494,70.499 L497.494,76.200 ZM572.079,123.373 L568.186,123.373 L568.186,76.200 L553.700,76.200 L553.700,123.373 L549.827,123.373 L549.827,70.499 L572.079,70.499 L572.079,123.373 ZM767.547,115.402 C768.219,114.107 768.730,112.043 769.080,109.210 C769.430,106.378 769.679,102.020 769.827,96.137 L770.432,70.499 L788.529,70.499 L788.529,123.373 L784.655,123.373 L784.655,76.200 L774.124,76.200 L773.599,97.170 C773.398,104.196 772.997,109.478 772.399,113.015 C771.800,116.553 770.923,119.151 769.766,120.811 C768.609,122.471 767.063,123.325 765.126,123.373 L763.855,123.373 L763.855,117.671 L764.662,117.599 C765.913,117.430 766.874,116.697 767.547,115.402 ZM815.215,70.499 L837.931,70.499 L837.931,76.200 L828.490,76.200 L828.490,123.373 L824.636,123.373 L824.636,76.200 L815.215,76.200 L815.215,70.499 Z" class="cls-1"/>
</svg>
