<svg xmlns="http://www.w3.org/2000/svg" xmlns:xlink="http://www.w3.org/1999/xlink" preserveAspectRatio="xMidYMid" width="226.94" height="209.35" viewBox="0 0 226.94 209.35">
  <defs>
    <style>
      .cls-1 {
        fill: #000;
        opacity: 0.7;
        fill-rule: evenodd;
      }
    </style>
  </defs>
  <path d="M226.756,21.247 C226.632,21.465 226.462,21.574 226.247,21.574 C226.032,21.574 225.863,21.465 225.742,21.247 C225.621,21.029 225.561,20.750 225.561,20.411 C225.561,20.072 225.621,19.784 225.742,19.546 C225.863,19.309 226.032,19.190 226.247,19.190 C226.462,19.190 226.632,19.309 226.756,19.546 C226.879,19.784 226.941,20.072 226.941,20.411 C226.941,20.750 226.879,21.029 226.756,21.247 ZM226.906,167.762 C226.906,169.632 226.559,171.102 225.864,172.173 C225.170,173.244 224.209,173.779 222.981,173.779 L219.105,173.779 L219.105,152.616 L220.099,152.616 L220.099,161.802 L223.014,161.802 C223.816,161.802 224.510,162.042 225.097,162.522 C225.684,163.001 226.132,163.689 226.442,164.586 C226.751,165.482 226.906,166.541 226.906,167.762 ZM225.162,164.529 C224.666,163.738 223.972,163.333 223.078,163.314 L220.099,163.314 L220.099,172.267 L223.006,172.267 C223.915,172.267 224.626,171.862 225.138,171.052 C225.649,170.242 225.905,169.133 225.905,167.725 C225.905,166.386 225.657,165.321 225.162,164.529 ZM221.787,20.556 C221.092,21.351 220.290,21.748 219.381,21.748 C218.008,21.748 216.899,20.864 216.054,19.096 C215.208,17.327 214.786,14.941 214.786,11.937 L214.786,9.757 C214.786,7.828 214.976,6.121 215.355,4.633 C215.735,3.146 216.272,2.002 216.966,1.203 C217.661,0.403 218.460,0.004 219.364,0.004 C220.269,0.004 221.067,0.396 221.759,1.181 C222.450,1.966 222.985,3.075 223.362,4.509 C223.738,5.944 223.935,7.605 223.951,9.495 L223.951,12.024 C223.951,13.972 223.764,15.682 223.390,17.155 C223.016,18.628 222.481,19.762 221.787,20.556 ZM222.958,9.728 C222.958,7.179 222.637,5.183 221.997,3.739 C221.356,2.295 220.479,1.573 219.364,1.573 C218.272,1.573 217.401,2.298 216.752,3.746 C216.103,5.195 215.779,7.218 215.779,9.815 L215.779,12.024 C215.779,14.534 216.102,16.523 216.748,17.991 C217.394,19.459 218.272,20.193 219.381,20.193 C220.506,20.193 221.383,19.469 222.013,18.020 C222.643,16.571 222.958,14.553 222.958,11.966 L222.958,9.728 ZM212.237,12.247 C212.654,13.187 212.862,14.271 212.862,15.501 C212.862,17.371 212.527,18.831 211.857,19.881 C211.187,20.932 210.254,21.457 209.059,21.457 L205.126,21.457 L205.126,0.294 L208.599,0.294 C209.858,0.294 210.814,0.762 211.465,1.698 C212.117,2.634 212.442,4.013 212.442,5.836 C212.442,6.931 212.277,7.884 211.946,8.694 C211.615,9.503 211.161,10.083 210.585,10.431 C211.269,10.703 211.819,11.308 212.237,12.247 ZM210.759,8.730 C211.214,8.055 211.441,7.072 211.441,5.781 C211.441,4.422 211.206,3.420 210.735,2.774 C210.263,2.129 209.552,1.806 208.599,1.806 L206.120,1.806 L206.120,9.786 L208.833,9.786 C209.662,9.757 210.304,9.405 210.759,8.730 ZM209.180,11.297 L206.120,11.297 L206.120,19.946 L209.099,19.946 C209.950,19.946 210.624,19.557 211.122,18.778 C211.620,17.999 211.869,16.918 211.869,15.535 C211.869,14.229 211.631,13.196 211.154,12.437 C210.678,11.677 210.020,11.297 209.180,11.297 ZM199.125,21.457 L198.132,21.457 L198.132,1.806 L194.110,1.806 L194.110,0.294 L203.154,0.294 L203.154,1.806 L199.125,1.806 L199.125,21.457 ZM186.164,18.055 C186.780,19.509 187.614,20.237 188.663,20.237 C189.702,20.237 190.486,19.788 191.013,18.892 C191.541,17.996 191.866,16.651 191.990,14.859 L192.992,14.859 C192.857,17.087 192.414,18.793 191.663,19.975 C190.912,21.157 189.912,21.748 188.663,21.748 C187.791,21.748 187.020,21.356 186.350,20.571 C185.680,19.786 185.161,18.674 184.795,17.235 C184.429,15.796 184.243,14.151 184.238,12.300 L184.238,9.553 C184.238,7.673 184.421,6.007 184.787,4.553 C185.153,3.100 185.680,1.978 186.366,1.188 C187.052,0.399 187.842,0.004 188.736,0.004 C189.996,0.004 190.990,0.614 191.720,1.835 C192.449,3.056 192.873,4.747 192.992,6.908 L191.990,6.908 C191.743,3.313 190.658,1.515 188.736,1.515 C187.670,1.515 186.821,2.233 186.188,3.668 C185.556,5.104 185.239,7.087 185.239,9.618 L185.239,12.207 C185.239,14.651 185.548,16.600 186.164,18.055 ZM181.823,26.588 L181.823,21.457 L172.957,21.457 L172.957,26.588 L171.963,26.588 L171.963,19.946 L172.747,19.946 C173.344,18.822 173.827,17.182 174.196,15.026 C174.565,12.870 174.787,10.508 174.862,7.940 L175.072,0.294 L181.573,0.294 L181.573,19.946 L182.824,19.946 L182.816,26.588 L181.823,26.588 ZM180.579,1.806 L176.025,1.806 L175.864,7.872 C175.794,10.393 175.588,12.716 175.246,14.840 C174.904,16.964 174.456,18.666 173.901,19.946 L180.579,19.946 L180.579,1.806 ZM163.020,0.294 L170.296,0.294 L170.296,1.806 L164.013,1.806 L164.013,9.800 L169.513,9.800 L169.513,11.312 L164.013,11.312 L164.013,19.946 L170.336,19.946 L170.336,21.457 L163.020,21.457 L163.020,0.294 ZM163.275,51.922 L162.281,51.922 L162.281,33.811 L155.587,51.922 L154.586,51.922 L154.586,30.759 L155.587,30.759 L155.587,48.855 L162.281,30.759 L163.275,30.759 L163.275,51.922 ZM156.913,12.838 L153.925,12.838 L153.925,21.457 L152.932,21.457 L152.932,0.294 L156.937,0.294 C158.159,0.294 159.124,0.856 159.832,1.980 C160.540,3.105 160.894,4.650 160.894,6.617 C160.894,8.604 160.553,10.137 159.872,11.217 C159.191,12.298 158.205,12.838 156.913,12.838 ZM159.146,3.138 C158.642,2.269 157.927,1.825 157.002,1.806 L153.925,1.806 L153.925,11.326 L156.937,11.326 C157.901,11.326 158.635,10.914 159.142,10.089 C159.647,9.264 159.901,8.114 159.901,6.639 C159.901,5.174 159.649,4.007 159.146,3.138 ZM151.538,57.024 L151.538,51.922 L142.729,51.922 L142.729,30.759 L143.730,30.759 L143.730,50.410 L150.384,50.410 L150.384,30.759 L151.377,30.759 L151.377,50.381 L152.532,50.381 L152.459,57.024 L151.538,57.024 ZM143.779,18.055 C144.395,19.509 145.229,20.237 146.278,20.237 C147.317,20.237 148.101,19.788 148.628,18.892 C149.156,17.996 149.481,16.651 149.605,14.859 L150.607,14.859 C150.472,17.087 150.029,18.793 149.278,19.975 C148.527,21.157 147.527,21.748 146.278,21.748 C145.406,21.748 144.635,21.356 143.965,20.571 C143.295,19.786 142.776,18.674 142.410,17.235 C142.044,15.796 141.859,14.151 141.853,12.300 L141.853,9.553 C141.853,7.673 142.036,6.007 142.402,4.553 C142.768,3.100 143.295,1.978 143.981,1.188 C144.667,0.399 145.457,0.004 146.351,0.004 C147.611,0.004 148.605,0.614 149.335,1.835 C150.064,3.056 150.488,4.747 150.607,6.908 L149.605,6.908 C149.358,3.313 148.273,1.515 146.351,1.515 C145.285,1.515 144.436,2.233 143.803,3.668 C143.171,5.104 142.855,7.087 142.855,9.618 L142.855,12.207 C142.855,14.651 143.163,16.600 143.779,18.055 ZM147.045,82.386 L146.011,82.386 L144.792,76.441 L139.454,76.441 L138.243,82.386 L137.201,82.386 L141.651,61.223 L142.595,61.223 L147.045,82.386 ZM139.761,74.930 L144.477,74.930 L142.119,63.403 L139.761,74.930 ZM138.832,33.811 L132.137,51.922 L131.136,51.922 L131.136,30.759 L132.137,30.759 L132.137,48.855 L138.832,30.759 L139.825,30.759 L139.825,51.922 L138.832,51.922 L138.832,33.811 ZM128.522,0.294 L135.797,0.294 L135.797,1.806 L129.515,1.806 L129.515,9.800 L135.014,9.800 L135.014,11.312 L129.515,11.312 L129.515,19.946 L135.838,19.946 L135.838,21.457 L128.522,21.457 L128.522,0.294 ZM129.084,57.053 L128.090,57.053 L128.090,51.922 L119.224,51.922 L119.224,57.053 L118.231,57.053 L118.231,50.410 L119.014,50.410 C119.612,49.286 120.095,47.646 120.463,45.490 C120.832,43.334 121.054,40.972 121.130,38.404 L121.340,30.759 L127.840,30.759 L127.840,50.410 L129.092,50.410 L129.084,57.053 ZM126.847,32.270 L122.292,32.270 L122.131,38.336 C122.061,40.858 121.855,43.180 121.513,45.304 C121.171,47.428 120.723,49.130 120.169,50.410 L126.847,50.410 L126.847,32.270 ZM123.872,20.556 C123.178,21.351 122.376,21.748 121.466,21.748 C120.093,21.748 118.984,20.864 118.139,19.096 C117.294,17.327 116.871,14.941 116.871,11.937 L116.871,9.757 C116.871,7.828 117.061,6.121 117.441,4.633 C117.820,3.146 118.357,2.002 119.052,1.203 C119.746,0.403 120.545,0.004 121.450,0.004 C122.354,0.004 123.152,0.396 123.844,1.181 C124.536,1.966 125.070,3.075 125.447,4.509 C125.824,5.944 126.020,7.605 126.037,9.495 L126.037,12.024 C126.037,13.972 125.849,15.682 125.475,17.155 C125.101,18.628 124.567,19.762 123.872,20.556 ZM125.043,9.728 C125.043,7.179 124.723,5.183 124.082,3.739 C123.442,2.295 122.564,1.573 121.450,1.573 C120.357,1.573 119.486,2.298 118.838,3.746 C118.189,5.195 117.865,7.218 117.865,9.815 L117.865,12.024 C117.865,14.534 118.188,16.523 118.834,17.991 C119.480,19.459 120.357,20.193 121.466,20.193 C122.591,20.193 123.469,19.469 124.098,18.020 C124.728,16.571 125.043,14.553 125.043,11.966 L125.043,9.728 ZM109.288,30.759 L116.563,30.759 L116.563,32.270 L110.281,32.270 L110.281,40.265 L115.780,40.265 L115.780,41.776 L110.281,41.776 L110.281,50.410 L116.604,50.410 L116.604,51.922 L109.288,51.922 L109.288,30.759 ZM113.392,11.312 L106.673,11.312 L106.673,21.457 L105.680,21.457 L105.680,0.294 L106.673,0.294 L106.673,9.800 L113.392,9.800 L113.392,0.294 L114.393,0.294 L114.393,21.457 L113.392,21.457 L113.392,11.312 ZM106.387,51.922 L105.394,51.922 L105.394,42.707 L105.475,33.259 L101.098,51.922 L100.331,51.922 L95.970,33.331 L96.051,42.648 L96.051,51.922 L95.058,51.922 L95.058,30.759 L96.374,30.759 L100.710,49.436 L105.063,30.759 L106.387,30.759 L106.387,51.922 ZM101.772,11.312 L95.053,11.312 L95.053,21.457 L94.060,21.457 L94.060,0.294 L95.053,0.294 L95.053,9.800 L101.772,9.800 L101.772,0.294 L102.773,0.294 L102.773,21.457 L101.772,21.457 L101.772,11.312 ZM97.268,60.932 C98.173,60.932 98.971,61.325 99.662,62.110 C100.354,62.894 100.888,64.004 101.265,65.438 C101.642,66.872 101.839,68.534 101.855,70.424 L101.855,72.953 C101.855,74.901 101.668,76.611 101.294,78.084 C100.919,79.557 100.385,80.691 99.691,81.485 C98.996,82.280 98.194,82.677 97.284,82.677 C95.912,82.677 94.802,81.793 93.957,80.024 C93.112,78.256 92.690,75.870 92.690,72.866 L92.690,70.685 C92.690,68.757 92.879,67.049 93.259,65.562 C93.638,64.074 94.175,62.931 94.870,62.131 C95.564,61.332 96.364,60.932 97.268,60.932 ZM93.683,70.743 L93.683,72.953 C93.683,75.463 94.006,77.451 94.652,78.919 C95.298,80.388 96.175,81.122 97.284,81.122 C98.409,81.122 99.287,80.397 99.917,78.949 C100.547,77.500 100.862,75.482 100.862,72.895 L100.862,70.656 C100.862,68.108 100.541,66.112 99.901,64.668 C99.260,63.224 98.382,62.502 97.268,62.502 C96.175,62.502 95.305,63.227 94.656,64.675 C94.007,66.124 93.683,68.147 93.683,70.743 ZM91.463,93.199 L84.809,93.199 L84.809,112.850 L83.816,112.850 L83.816,91.687 L92.456,91.687 L92.456,112.850 L91.463,112.850 L91.463,93.199 ZM84.679,0.294 L91.955,0.294 L91.955,1.806 L85.672,1.806 L85.672,9.800 L91.172,9.800 L91.172,11.312 L85.672,11.312 L85.672,19.946 L91.995,19.946 L91.995,21.457 L84.679,21.457 L84.679,0.294 ZM87.879,51.922 L86.878,51.922 L86.878,43.288 L83.495,43.288 L80.927,51.922 L79.853,51.922 L82.623,42.794 C81.863,42.320 81.285,41.604 80.886,40.646 C80.488,39.688 80.289,38.516 80.289,37.132 C80.289,35.138 80.640,33.578 81.343,32.450 C82.045,31.323 83.034,30.759 84.310,30.759 L87.879,30.759 L87.879,51.922 ZM86.878,32.270 L84.278,32.270 C83.320,32.270 82.581,32.690 82.061,33.530 C81.542,34.369 81.282,35.565 81.282,37.118 C81.282,38.516 81.526,39.641 82.013,40.495 C82.500,41.349 83.172,41.776 84.028,41.776 L86.878,41.776 L86.878,32.270 ZM81.706,12.247 C82.123,13.187 82.332,14.271 82.332,15.501 C82.332,17.371 81.997,18.831 81.327,19.881 C80.657,20.932 79.724,21.457 78.529,21.457 L74.596,21.457 L74.596,0.294 L78.069,0.294 C79.328,0.294 80.284,0.762 80.935,1.698 C81.586,2.634 81.912,4.013 81.912,5.836 C81.912,6.931 81.747,7.884 81.416,8.694 C81.085,9.503 80.631,10.083 80.055,10.431 C80.739,10.703 81.289,11.308 81.706,12.247 ZM80.229,8.730 C80.683,8.055 80.911,7.072 80.911,5.781 C80.911,4.422 80.675,3.420 80.204,2.774 C79.733,2.129 79.021,1.806 78.069,1.806 L75.589,1.806 L75.589,9.786 L78.303,9.786 C79.132,9.757 79.774,9.405 80.229,8.730 ZM78.650,11.297 L75.589,11.297 L75.589,19.946 L78.569,19.946 C79.420,19.946 80.094,19.557 80.592,18.778 C81.090,17.999 81.339,16.918 81.339,15.535 C81.339,14.229 81.101,13.196 80.624,12.437 C80.148,11.677 79.490,11.297 78.650,11.297 ZM76.949,32.299 C77.679,33.520 78.102,35.211 78.221,37.372 L77.220,37.372 C76.972,33.777 75.887,31.980 73.965,31.980 C72.899,31.980 72.050,32.697 71.418,34.133 C70.785,35.568 70.469,37.551 70.469,40.082 L70.469,42.671 C70.469,45.115 70.777,47.064 71.393,48.519 C72.010,49.974 72.843,50.701 73.893,50.701 C74.932,50.701 75.715,50.253 76.243,49.356 C76.770,48.460 77.096,47.116 77.220,45.323 L78.221,45.323 C78.086,47.552 77.644,49.257 76.893,50.439 C76.142,51.622 75.142,52.212 73.893,52.212 C73.021,52.212 72.249,51.820 71.579,51.035 C70.909,50.250 70.391,49.138 70.025,47.699 C69.659,46.260 69.473,44.616 69.468,42.765 L69.468,40.017 C69.468,38.138 69.651,36.471 70.017,35.017 C70.383,33.564 70.909,32.442 71.595,31.653 C72.282,30.863 73.072,30.468 73.965,30.468 C75.225,30.468 76.220,31.078 76.949,32.299 ZM68.595,21.457 L67.601,21.457 L67.601,1.806 L63.580,1.806 L63.580,0.294 L72.624,0.294 L72.624,1.806 L68.595,1.806 L68.595,21.457 ZM55.634,18.055 C56.250,19.509 57.083,20.237 58.133,20.237 C59.172,20.237 59.955,19.788 60.483,18.892 C61.011,17.996 61.336,16.651 61.460,14.859 L62.461,14.859 C62.327,17.087 61.884,18.793 61.133,19.975 C60.382,21.157 59.382,21.748 58.133,21.748 C57.261,21.748 56.490,21.356 55.820,20.571 C55.149,19.786 54.631,18.674 54.265,17.235 C53.899,15.796 53.713,14.151 53.708,12.300 L53.708,9.553 C53.708,7.673 53.891,6.007 54.257,4.553 C54.623,3.100 55.149,1.978 55.836,1.188 C56.522,0.399 57.312,0.004 58.206,0.004 C59.466,0.004 60.460,0.614 61.190,1.835 C61.919,3.056 62.343,4.747 62.461,6.908 L61.460,6.908 C61.212,3.313 60.128,1.515 58.206,1.515 C57.140,1.515 56.291,2.233 55.658,3.668 C55.026,5.104 54.709,7.087 54.709,9.618 L54.709,12.207 C54.709,14.651 55.017,16.600 55.634,18.055 ZM56.272,31.645 C56.964,32.430 57.498,33.540 57.875,34.974 C58.252,36.408 58.448,38.070 58.465,39.959 L58.465,42.488 C58.465,44.436 58.278,46.147 57.903,47.619 C57.529,49.092 56.995,50.226 56.300,51.021 C55.606,51.815 54.804,52.212 53.894,52.212 C52.521,52.212 51.412,51.328 50.567,49.560 C49.722,47.792 49.299,45.405 49.299,42.401 L49.299,41.951 L47.135,41.951 L47.135,51.922 L46.142,51.922 L46.142,30.759 L47.135,30.759 L47.135,40.483 L49.299,40.483 C49.299,38.370 49.489,36.573 49.869,35.090 C50.248,33.607 50.785,32.466 51.480,31.667 C52.174,30.868 52.974,30.468 53.878,30.468 C54.782,30.468 55.580,30.860 56.272,31.645 ZM51.266,34.211 C50.617,35.659 50.293,37.682 50.293,40.279 L50.293,42.488 C50.293,44.998 50.616,46.987 51.262,48.455 C51.908,49.923 52.785,50.657 53.894,50.657 C55.019,50.657 55.897,49.933 56.527,48.484 C57.156,47.036 57.471,45.018 57.471,42.430 L57.471,40.192 C57.471,37.643 57.151,35.647 56.510,34.203 C55.870,32.760 54.992,32.038 53.878,32.038 C52.785,32.038 51.914,32.762 51.266,34.211 ZM47.847,12.838 L44.859,12.838 L44.859,21.457 L43.866,21.457 L43.866,0.294 L47.871,0.294 C49.093,0.294 50.058,0.856 50.766,1.980 C51.474,3.105 51.828,4.650 51.828,6.617 C51.828,8.604 51.487,10.137 50.806,11.217 C50.125,12.298 49.139,12.838 47.847,12.838 ZM50.079,3.138 C49.576,2.269 48.861,1.825 47.936,1.806 L44.859,1.806 L44.859,11.326 L47.871,11.326 C48.834,11.326 49.569,10.914 50.075,10.089 C50.581,9.264 50.834,8.114 50.834,6.639 C50.834,5.174 50.583,4.007 50.079,3.138 ZM39.728,15.513 L34.390,15.513 L33.179,21.457 L32.137,21.457 L36.586,0.294 L37.531,0.294 L41.980,21.457 L40.947,21.457 L39.728,15.513 ZM37.055,2.475 L34.697,14.001 L39.413,14.001 L37.055,2.475 ZM29.567,21.457 L24.698,11.515 L23.083,11.515 L23.083,21.457 L22.090,21.457 L22.090,0.294 L23.083,0.294 L23.083,10.004 L24.649,10.004 L29.196,0.294 L30.447,0.294 L25.619,10.695 L30.803,21.457 L29.567,21.457 ZM12.693,0.294 L19.969,0.294 L19.969,1.806 L13.686,1.806 L13.686,9.800 L19.185,9.800 L19.185,11.312 L13.686,11.312 L13.686,19.946 L20.009,19.946 L20.009,21.457 L12.693,21.457 L12.693,0.294 ZM19.514,30.759 L19.514,51.922 L18.521,51.922 L18.521,33.811 L11.827,51.922 L10.826,51.922 L10.826,30.759 L11.827,30.759 L11.827,48.855 L18.521,30.759 L19.514,30.759 ZM3.209,170.376 C3.826,171.831 4.659,172.558 5.709,172.558 C6.748,172.558 7.531,172.110 8.058,171.214 C8.586,170.317 8.912,168.973 9.036,167.180 L10.037,167.180 C9.902,169.409 9.459,171.114 8.709,172.296 C7.958,173.479 6.957,174.070 5.709,174.070 C4.837,174.070 4.065,173.677 3.395,172.892 C2.725,172.108 2.207,170.996 1.841,169.557 C1.475,168.118 1.289,166.473 1.283,164.622 L1.283,161.875 C1.283,159.995 1.466,158.328 1.833,156.875 C2.199,155.421 2.725,154.300 3.411,153.510 C4.098,152.720 4.888,152.325 5.781,152.325 C7.041,152.325 8.036,152.936 8.765,154.157 C9.494,155.378 9.918,157.069 10.037,159.229 L9.036,159.229 C8.788,155.634 7.703,153.837 5.781,153.837 C4.715,153.837 3.866,154.555 3.234,155.990 C2.601,157.425 2.285,159.408 2.285,161.939 L2.285,164.529 C2.285,166.972 2.593,168.922 3.209,170.376 ZM8.790,1.806 L3.824,1.806 L3.549,10.563 C3.442,13.695 3.276,15.971 3.053,17.392 C2.829,18.813 2.512,19.841 2.100,20.476 C1.688,21.111 1.129,21.438 0.424,21.457 L0.004,21.457 L0.004,19.960 L0.327,19.946 C0.882,19.897 1.299,19.582 1.579,19.000 C1.859,18.418 2.076,17.476 2.229,16.171 C2.382,14.867 2.502,12.852 2.588,10.127 L2.879,0.294 L9.783,0.294 L9.783,21.457 L8.790,21.457 L8.790,1.806 ZM24.510,143.315 L23.517,143.315 L23.517,123.663 L16.863,123.663 L16.863,143.315 L15.870,143.315 L15.870,122.152 L24.510,122.152 L24.510,143.315 ZM23.142,154.019 C23.794,154.955 24.119,156.334 24.119,158.157 C24.119,159.253 23.954,160.206 23.623,161.015 C23.292,161.825 22.838,162.404 22.262,162.753 C22.946,163.024 23.496,163.630 23.914,164.569 C24.331,165.508 24.539,166.593 24.539,167.823 C24.539,169.692 24.204,171.152 23.534,172.203 C22.864,173.254 21.931,173.779 20.736,173.779 L16.803,173.779 L16.803,152.616 L20.276,152.616 C21.535,152.616 22.491,153.084 23.142,154.019 ZM17.797,172.267 L20.776,172.267 C21.627,172.267 22.301,171.878 22.799,171.099 C23.297,170.321 23.546,169.240 23.546,167.856 C23.546,166.550 23.308,165.518 22.832,164.758 C22.355,163.999 21.697,163.619 20.857,163.619 L17.797,163.619 L17.797,172.267 ZM17.797,162.107 L20.510,162.107 C21.339,162.078 21.981,161.726 22.436,161.052 C22.891,160.377 23.118,159.394 23.118,158.103 C23.118,156.744 22.883,155.742 22.412,155.096 C21.940,154.451 21.229,154.128 20.276,154.128 L17.797,154.128 L17.797,162.107 ZM35.210,112.850 L34.217,112.850 L34.217,93.199 L27.563,93.199 L27.563,112.850 L26.570,112.850 L26.570,91.687 L35.210,91.687 L35.210,112.850 ZM33.787,154.302 C34.494,155.426 34.848,156.972 34.848,158.939 C34.848,160.925 34.508,162.459 33.827,163.539 C33.146,164.620 32.159,165.160 30.867,165.160 L27.880,165.160 L27.880,173.779 L26.886,173.779 L26.886,152.616 L30.892,152.616 C32.114,152.616 33.079,153.178 33.787,154.302 ZM27.880,163.648 L30.892,163.648 C31.855,163.648 32.590,163.236 33.096,162.411 C33.602,161.586 33.855,160.436 33.855,158.960 C33.855,157.495 33.604,156.328 33.100,155.460 C32.597,154.591 31.882,154.147 30.956,154.128 L27.880,154.128 L27.880,163.648 ZM40.356,152.616 L44.806,173.779 L43.772,173.779 L42.553,167.834 L37.215,167.834 L36.004,173.779 L34.962,173.779 L39.412,152.616 L40.356,152.616 ZM42.238,166.323 L39.880,154.796 L37.522,166.323 L42.238,166.323 ZM46.224,158.546 C46.230,160.261 46.465,161.509 46.931,162.289 C47.397,163.069 48.138,163.459 49.156,163.459 C50.184,163.459 51.244,163.183 52.337,162.631 L52.337,152.616 L53.339,152.616 L53.339,173.779 L52.337,173.779 L52.337,164.142 C51.234,164.695 50.173,164.971 49.156,164.971 C47.821,164.971 46.835,164.453 46.200,163.417 C45.565,162.382 45.239,160.790 45.223,158.641 L45.223,152.616 L46.224,152.616 L46.224,158.546 ZM50.221,183.974 C50.907,183.184 51.697,182.790 52.591,182.790 C53.850,182.790 54.845,183.400 55.574,184.621 C56.304,185.842 56.728,187.533 56.846,189.694 L55.845,189.694 C55.597,186.099 54.513,184.301 52.591,184.301 C51.525,184.301 50.675,185.019 50.043,186.454 C49.410,187.890 49.094,189.873 49.094,192.404 L49.094,194.993 C49.094,197.437 49.402,199.386 50.019,200.841 C50.635,202.295 51.468,203.022 52.518,203.022 C53.557,203.022 54.340,202.574 54.868,201.678 C55.395,200.782 55.721,199.437 55.845,197.644 L56.846,197.644 C56.712,199.873 56.269,201.579 55.518,202.761 C54.767,203.943 53.767,204.534 52.518,204.534 C51.646,204.534 50.875,204.142 50.204,203.357 C49.534,202.572 49.016,201.460 48.650,200.021 C48.284,198.582 48.098,196.937 48.093,195.086 L48.093,192.339 C48.093,190.459 48.276,188.793 48.642,187.339 C49.008,185.885 49.534,184.764 50.221,183.974 ZM55.817,162.078 C55.817,160.150 56.007,158.442 56.386,156.955 C56.766,155.467 57.303,154.324 57.997,153.524 C58.692,152.725 59.491,152.325 60.395,152.325 C61.300,152.325 62.098,152.718 62.790,153.503 C63.481,154.287 64.016,155.397 64.393,156.831 C64.769,158.265 64.966,159.927 64.982,161.817 L64.982,164.346 C64.982,166.293 64.795,168.004 64.421,169.477 C64.047,170.950 63.512,172.083 62.818,172.878 C62.123,173.673 61.321,174.070 60.412,174.070 C59.039,174.070 57.930,173.186 57.085,171.417 C56.239,169.649 55.817,167.263 55.817,164.259 L55.817,162.078 ZM56.810,164.346 C56.810,166.856 57.133,168.844 57.779,170.312 C58.425,171.780 59.302,172.515 60.412,172.515 C61.537,172.515 62.414,171.790 63.044,170.342 C63.674,168.893 63.989,166.875 63.989,164.288 L63.989,162.049 C63.989,159.501 63.668,157.505 63.028,156.061 C62.387,154.617 61.510,153.895 60.395,153.895 C59.302,153.895 58.432,154.619 57.783,156.068 C57.134,157.517 56.810,159.540 56.810,162.136 L56.810,164.346 ZM64.646,201.176 L71.341,183.080 L72.334,183.080 L72.334,204.243 L71.341,204.243 L71.341,186.133 L64.646,204.243 L63.645,204.243 L63.645,183.080 L64.646,183.080 L64.646,201.176 ZM68.460,164.506 L68.460,173.779 L67.467,173.779 L67.467,152.616 L68.783,152.616 L73.120,171.294 L77.472,152.616 L78.796,152.616 L78.796,173.779 L77.803,173.779 L77.803,164.564 L77.884,155.116 L73.507,173.779 L72.740,173.779 L68.380,155.189 L68.460,164.506 ZM72.415,79.319 L79.109,61.223 L80.103,61.223 L80.103,82.386 L79.109,82.386 L79.109,64.275 L72.415,82.386 L71.414,82.386 L71.414,61.223 L72.415,61.223 L72.415,79.319 ZM69.862,143.315 L69.862,122.152 L70.856,122.152 L70.856,131.658 L77.574,131.658 L77.574,122.152 L78.575,122.152 L78.575,143.315 L77.574,143.315 L77.574,133.169 L70.856,133.169 L70.856,143.315 L69.862,143.315 ZM69.652,91.687 L76.153,91.687 L76.153,111.339 L77.404,111.339 L77.396,117.981 L76.403,117.981 L76.403,112.850 L67.537,112.850 L67.537,117.981 L66.543,117.981 L66.543,111.339 L67.327,111.339 C67.924,110.215 68.407,108.575 68.776,106.419 C69.145,104.263 69.367,101.901 69.442,99.333 L69.652,91.687 ZM68.481,111.339 L75.160,111.339 L75.160,93.199 L70.605,93.199 L70.444,99.265 C70.374,101.786 70.168,104.109 69.826,106.233 C69.484,108.357 69.036,110.059 68.481,111.339 ZM69.426,62.735 L65.397,62.735 L65.397,82.386 L64.403,82.386 L64.403,62.735 L60.382,62.735 L60.382,61.223 L69.426,61.223 L69.426,62.735 ZM68.476,32.270 L64.446,32.270 L64.446,51.922 L63.453,51.922 L63.453,32.270 L59.432,32.270 L59.432,30.759 L68.476,30.759 L68.476,32.270 ZM62.791,121.861 C63.695,121.861 64.493,122.253 65.185,123.038 C65.876,123.823 66.411,124.933 66.788,126.367 C67.164,127.801 67.361,129.463 67.377,131.352 L67.377,133.881 C67.377,135.829 67.190,137.540 66.816,139.012 C66.442,140.485 65.908,141.619 65.213,142.414 C64.519,143.208 63.716,143.605 62.807,143.605 C61.434,143.605 60.325,142.721 59.480,140.953 C58.635,139.185 58.212,136.798 58.212,133.794 L58.212,131.614 C58.212,129.686 58.402,127.978 58.781,126.490 C59.161,125.003 59.698,123.859 60.392,123.060 C61.087,122.261 61.886,121.861 62.791,121.861 ZM59.205,131.672 L59.205,133.881 C59.205,136.391 59.528,138.380 60.174,139.848 C60.820,141.316 61.698,142.050 62.807,142.050 C63.932,142.050 64.809,141.326 65.439,139.877 C66.069,138.429 66.384,136.411 66.384,133.823 L66.384,131.585 C66.384,129.036 66.064,127.040 65.423,125.596 C64.782,124.153 63.905,123.431 62.791,123.431 C61.698,123.431 60.827,124.155 60.178,125.604 C59.529,127.052 59.205,129.075 59.205,131.672 ZM64.876,93.199 L58.593,93.199 L58.593,101.193 L64.093,101.193 L64.093,102.705 L58.593,102.705 L58.593,111.339 L64.916,111.339 L64.916,112.850 L57.600,112.850 L57.600,91.687 L64.876,91.687 L64.876,93.199 ZM52.443,62.131 C53.137,61.332 53.936,60.932 54.841,60.932 C55.745,60.932 56.543,61.325 57.235,62.110 C57.927,62.894 58.461,64.004 58.838,65.438 C59.215,66.872 59.411,68.534 59.427,70.424 L59.427,72.953 C59.427,74.901 59.240,76.611 58.866,78.084 C58.492,79.557 57.958,80.691 57.263,81.485 C56.569,82.280 55.767,82.677 54.857,82.677 C53.484,82.677 52.375,81.793 51.530,80.024 C50.685,78.256 50.262,75.870 50.262,72.866 L50.262,70.685 C50.262,68.757 50.452,67.049 50.832,65.562 C51.211,64.074 51.748,62.931 52.443,62.131 ZM51.255,72.953 C51.255,75.463 51.578,77.451 52.224,78.919 C52.870,80.388 53.748,81.122 54.857,81.122 C55.982,81.122 56.860,80.397 57.489,78.949 C58.119,77.500 58.434,75.482 58.434,72.895 L58.434,70.656 C58.434,68.108 58.114,66.112 57.473,64.668 C56.833,63.224 55.955,62.502 54.841,62.502 C53.748,62.502 52.877,63.227 52.229,64.675 C51.580,66.124 51.255,68.147 51.255,70.743 L51.255,72.953 ZM48.907,143.315 L48.907,122.152 L49.901,122.152 L49.901,131.861 L51.467,131.861 L56.014,122.152 L57.265,122.152 L52.436,132.552 L57.620,143.315 L56.385,143.315 L51.516,133.373 L49.901,133.373 L49.901,143.315 L48.907,143.315 ZM54.412,93.373 C55.120,94.498 55.474,96.043 55.474,98.010 C55.474,99.997 55.133,101.530 54.452,102.610 C53.771,103.691 52.785,104.231 51.493,104.231 L48.505,104.231 L48.505,112.850 L47.512,112.850 L47.512,91.687 L51.517,91.687 C52.739,91.687 53.704,92.249 54.412,93.373 ZM48.505,102.719 L51.517,102.719 C52.481,102.719 53.215,102.307 53.722,101.482 C54.227,100.657 54.481,99.507 54.481,98.032 C54.481,96.567 54.229,95.400 53.726,94.531 C53.222,93.662 52.508,93.218 51.582,93.199 L48.505,93.199 L48.505,102.719 ZM47.352,62.909 C48.060,64.033 48.414,65.579 48.414,67.546 C48.414,69.532 48.073,71.066 47.392,72.146 C46.711,73.227 45.725,73.767 44.433,73.767 L41.445,73.767 L41.445,82.386 L40.452,82.386 L40.452,61.223 L44.457,61.223 C45.679,61.223 46.644,61.785 47.352,62.909 ZM41.445,72.255 L44.457,72.255 C45.421,72.255 46.155,71.843 46.662,71.018 C47.167,70.193 47.421,69.043 47.421,67.568 C47.421,66.102 47.169,64.935 46.666,64.067 C46.162,63.198 45.447,62.754 44.522,62.735 L41.445,62.735 L41.445,72.255 ZM46.407,131.352 L46.407,133.881 C46.407,135.829 46.220,137.540 45.846,139.012 C45.471,140.485 44.937,141.619 44.243,142.414 C43.548,143.208 42.746,143.605 41.836,143.605 C40.464,143.605 39.354,142.721 38.509,140.953 C37.664,139.185 37.242,136.798 37.242,133.794 L37.242,131.614 C37.242,129.686 37.431,127.978 37.811,126.490 C38.190,125.003 38.727,123.859 39.422,123.060 C40.116,122.261 40.916,121.861 41.820,121.861 C42.725,121.861 43.523,122.253 44.214,123.038 C44.906,123.823 45.440,124.933 45.817,126.367 C46.194,127.801 46.391,129.463 46.407,131.352 ZM45.414,131.585 C45.414,129.036 45.093,127.040 44.453,125.596 C43.812,124.153 42.935,123.431 41.820,123.431 C40.727,123.431 39.857,124.155 39.208,125.604 C38.559,127.052 38.235,129.075 38.235,131.672 L38.235,133.881 C38.235,136.391 38.558,138.380 39.204,139.848 C39.850,141.316 40.727,142.050 41.836,142.050 C42.961,142.050 43.839,141.326 44.469,139.877 C45.099,138.429 45.414,136.411 45.414,133.823 L45.414,131.585 ZM45.447,111.339 L45.447,112.850 L38.131,112.850 L38.131,91.687 L45.406,91.687 L45.406,93.199 L39.124,93.199 L39.124,101.193 L44.623,101.193 L44.623,102.705 L39.124,102.705 L39.124,111.339 L45.447,111.339 ZM27.431,143.315 L27.431,122.152 L31.436,122.152 C32.658,122.152 33.623,122.714 34.331,123.838 C35.039,124.962 35.393,126.507 35.393,128.474 C35.393,130.461 35.053,131.994 34.372,133.075 C33.691,134.155 32.704,134.695 31.412,134.695 L28.424,134.695 L28.424,143.315 L27.431,143.315 ZM31.436,133.184 C32.400,133.184 33.135,132.771 33.641,131.946 C34.147,131.122 34.400,129.971 34.400,128.496 C34.400,127.031 34.148,125.864 33.645,124.995 C33.141,124.127 32.427,123.683 31.501,123.663 L28.424,123.663 L28.424,133.184 L31.436,133.184 ZM37.531,82.386 L36.538,82.386 L36.538,62.735 L29.884,62.735 L29.884,82.386 L28.891,82.386 L28.891,61.223 L37.531,61.223 L37.531,82.386 ZM23.435,51.922 L22.442,51.922 L22.442,30.759 L23.758,30.759 L28.094,49.436 L32.447,30.759 L33.771,30.759 L33.771,51.922 L32.778,51.922 L32.778,42.707 L32.859,33.259 L28.482,51.922 L27.715,51.922 L23.354,33.331 L23.435,42.648 L23.435,51.922 ZM43.988,50.410 L43.988,51.922 L36.672,51.922 L36.672,30.759 L43.947,30.759 L43.947,32.270 L37.665,32.270 L37.665,40.265 L43.164,40.265 L43.164,41.776 L37.665,41.776 L37.665,50.410 L43.988,50.410 ZM76.255,192.586 L82.973,192.586 L82.973,183.080 L83.974,183.080 L83.974,204.243 L82.973,204.243 L82.973,194.098 L76.255,194.098 L76.255,204.243 L75.261,204.243 L75.261,183.080 L76.255,183.080 L76.255,192.586 ZM90.140,73.176 C90.557,74.115 90.766,75.200 90.766,76.430 C90.766,78.299 90.431,79.759 89.761,80.810 C89.090,81.861 88.158,82.386 86.963,82.386 L83.030,82.386 L83.030,61.223 L86.502,61.223 C87.762,61.223 88.718,61.691 89.369,62.626 C90.020,63.562 90.346,64.941 90.346,66.764 C90.346,67.860 90.181,68.813 89.850,69.622 C89.518,70.432 89.065,71.011 88.489,71.360 C89.172,71.631 89.723,72.237 90.140,73.176 ZM88.662,69.659 C89.117,68.984 89.345,68.001 89.345,66.710 C89.345,65.351 89.109,64.349 88.638,63.703 C88.167,63.058 87.455,62.735 86.502,62.735 L84.023,62.735 L84.023,70.714 L86.737,70.714 C87.566,70.685 88.207,70.334 88.662,69.659 ZM87.084,72.226 L84.023,72.226 L84.023,80.874 L87.003,80.874 C87.854,80.874 88.528,80.485 89.026,79.706 C89.524,78.928 89.773,77.847 89.773,76.463 C89.773,75.157 89.535,74.125 89.058,73.365 C88.582,72.606 87.924,72.226 87.084,72.226 ZM83.195,142.428 C82.525,141.643 82.007,140.531 81.641,139.092 C81.275,137.653 81.089,136.009 81.084,134.158 L81.084,131.410 C81.084,129.531 81.267,127.864 81.633,126.410 C81.999,124.957 82.525,123.835 83.212,123.045 C83.898,122.256 84.688,121.861 85.582,121.861 C86.841,121.861 87.836,122.471 88.565,123.692 C89.295,124.913 89.719,126.604 89.837,128.765 L88.836,128.765 C88.588,125.170 87.504,123.373 85.582,123.373 C84.516,123.373 83.666,124.090 83.034,125.526 C82.401,126.961 82.085,128.944 82.085,131.475 L82.085,134.064 C82.085,136.508 82.393,138.457 83.010,139.912 C83.626,141.367 84.459,142.094 85.509,142.094 C86.548,142.094 87.331,141.646 87.859,140.749 C88.386,139.853 88.712,138.509 88.836,136.716 L89.837,136.716 C89.703,138.945 89.260,140.650 88.509,141.832 C87.758,143.015 86.758,143.605 85.509,143.605 C84.637,143.605 83.866,143.213 83.195,142.428 ZM87.162,170.712 L93.856,152.616 L94.849,152.616 L94.849,173.779 L93.856,173.779 L93.856,155.668 L87.162,173.779 L86.161,173.779 L86.161,152.616 L87.162,152.616 L87.162,170.712 ZM88.611,183.974 C89.297,183.184 90.087,182.790 90.981,182.790 C92.240,182.790 93.235,183.400 93.965,184.621 C94.694,185.842 95.118,187.533 95.236,189.694 L94.235,189.694 C93.987,186.099 92.903,184.301 90.981,184.301 C89.915,184.301 89.066,185.019 88.433,186.454 C87.800,187.890 87.484,189.873 87.484,192.404 L87.484,194.993 C87.484,197.437 87.792,199.386 88.409,200.841 C89.025,202.295 89.858,203.022 90.908,203.022 C91.947,203.022 92.730,202.574 93.258,201.678 C93.785,200.782 94.111,199.437 94.235,197.644 L95.236,197.644 C95.102,199.873 94.659,201.579 93.908,202.761 C93.157,203.943 92.157,204.534 90.908,204.534 C90.036,204.534 89.265,204.142 88.595,203.357 C87.924,202.572 87.406,201.460 87.040,200.021 C86.674,198.582 86.488,196.937 86.483,195.086 L86.483,192.339 C86.483,190.459 86.666,188.793 87.032,187.339 C87.398,185.885 87.924,184.764 88.611,183.974 ZM93.001,143.620 C92.673,143.620 92.420,143.567 92.242,143.460 L92.331,142.007 C92.444,142.075 92.670,142.108 93.009,142.108 C93.677,142.108 94.213,141.493 94.616,140.262 L94.818,139.608 L95.327,137.719 L90.878,122.152 L92.016,122.152 L95.844,135.713 L99.187,122.152 L100.358,122.152 L95.811,139.870 L95.521,140.873 C94.950,142.704 94.110,143.620 93.001,143.620 ZM105.399,184.592 L101.370,184.592 L101.370,204.243 L100.376,204.243 L100.376,184.592 L96.355,184.592 L96.355,183.080 L105.399,183.080 L105.399,184.592 ZM103.013,171.417 C102.168,169.649 101.745,167.263 101.745,164.259 L101.745,162.078 C101.745,160.150 101.935,158.442 102.315,156.955 C102.694,155.467 103.231,154.324 103.926,153.524 C104.620,152.725 105.419,152.325 106.324,152.325 C107.228,152.325 108.026,152.718 108.718,153.503 C109.410,154.287 109.944,155.397 110.321,156.831 C110.698,158.265 110.894,159.927 110.910,161.817 L110.910,164.346 C110.910,166.293 110.723,168.004 110.349,169.477 C109.975,170.950 109.441,172.083 108.746,172.878 C108.052,173.673 107.250,174.070 106.340,174.070 C104.967,174.070 103.858,173.186 103.013,171.417 ZM106.340,172.515 C107.465,172.515 108.343,171.790 108.972,170.342 C109.602,168.893 109.917,166.875 109.917,164.288 L109.917,162.049 C109.917,159.501 109.597,157.505 108.956,156.061 C108.316,154.617 107.438,153.895 106.324,153.895 C105.231,153.895 104.360,154.619 103.712,156.068 C103.063,157.517 102.738,159.540 102.738,162.136 L102.738,164.346 C102.738,166.856 103.061,168.844 103.707,170.312 C104.353,171.780 105.231,172.515 106.340,172.515 ZM114.271,184.766 C114.979,185.890 115.333,187.436 115.333,189.403 C115.333,191.390 114.993,192.923 114.312,194.003 C113.631,195.084 112.644,195.624 111.352,195.624 L108.364,195.624 L108.364,204.243 L107.371,204.243 L107.371,183.080 L111.376,183.080 C112.598,183.080 113.563,183.642 114.271,184.766 ZM108.364,194.112 L111.376,194.112 C112.340,194.112 113.075,193.700 113.581,192.875 C114.087,192.050 114.340,190.900 114.340,189.425 C114.340,187.959 114.088,186.793 113.585,185.924 C113.082,185.055 112.367,184.611 111.441,184.592 L108.364,184.592 L108.364,194.112 ZM117.505,183.080 L121.333,196.642 L124.676,183.080 L125.847,183.080 L121.300,200.799 L121.010,201.801 C120.439,203.633 119.599,204.549 118.490,204.549 C118.162,204.549 117.909,204.495 117.731,204.389 L117.820,202.935 C117.933,203.003 118.159,203.037 118.498,203.037 C119.166,203.037 119.702,202.422 120.105,201.191 L120.307,200.537 L120.816,198.647 L116.367,183.080 L117.505,183.080 ZM128.848,192.790 L130.415,192.790 L134.961,183.080 L136.213,183.080 L131.384,193.481 L136.568,204.243 L135.332,204.243 L130.463,194.301 L128.848,194.301 L128.848,204.243 L127.855,204.243 L127.855,183.080 L128.848,183.080 L128.848,192.790 ZM139.477,202.732 L146.130,202.732 L146.130,183.080 L147.124,183.080 L147.124,202.703 L148.278,202.703 L148.206,209.345 L147.285,209.345 L147.285,204.243 L138.475,204.243 L138.475,183.080 L139.477,183.080 L139.477,202.732 ZM146.730,173.779 L145.737,173.779 L145.737,152.616 L146.730,152.616 L146.730,162.325 L148.297,162.325 L152.843,152.616 L154.095,152.616 L149.266,163.016 L154.450,173.779 L153.214,173.779 L148.345,163.837 L146.730,163.837 L146.730,173.779 ZM151.334,201.176 L158.028,183.080 L159.021,183.080 L159.021,204.243 L158.028,204.243 L158.028,186.133 L151.334,204.243 L150.332,204.243 L150.332,183.080 L151.334,183.080 L151.334,201.176 ZM156.309,171.417 C155.464,169.649 155.041,167.263 155.041,164.259 L155.041,162.078 C155.041,160.150 155.231,158.442 155.611,156.955 C155.990,155.467 156.527,154.324 157.222,153.524 C157.916,152.725 158.715,152.325 159.620,152.325 C160.524,152.325 161.322,152.718 162.014,153.503 C162.706,154.287 163.240,155.397 163.617,156.831 C163.994,158.265 164.190,159.927 164.207,161.817 L164.207,164.346 C164.207,166.293 164.019,168.004 163.645,169.477 C163.271,170.950 162.737,172.083 162.042,172.878 C161.348,173.673 160.546,174.070 159.636,174.070 C158.263,174.070 157.154,173.186 156.309,171.417 ZM159.636,172.515 C160.761,172.515 161.639,171.790 162.269,170.342 C162.898,168.893 163.213,166.875 163.213,164.288 L163.213,162.049 C163.213,159.501 162.893,157.505 162.252,156.061 C161.612,154.617 160.734,153.895 159.620,153.895 C158.527,153.895 157.656,154.619 157.008,156.068 C156.359,157.517 156.035,159.540 156.035,162.136 L156.035,164.346 C156.035,166.856 156.358,168.844 157.004,170.312 C157.650,171.780 158.527,172.515 159.636,172.515 ZM169.224,184.592 L162.942,184.592 L162.942,192.586 L168.441,192.586 L168.441,194.098 L162.942,194.098 L162.942,202.732 L169.265,202.732 L169.265,204.243 L161.949,204.243 L161.949,183.080 L169.224,183.080 L169.224,184.592 ZM172.347,201.176 L179.041,183.080 L180.034,183.080 L180.034,204.243 L179.041,204.243 L179.041,186.133 L172.347,204.243 L171.345,204.243 L171.345,183.080 L172.347,183.080 L172.347,201.176 ZM181.893,161.802 L184.808,161.802 C185.610,161.802 186.304,162.042 186.891,162.522 C187.478,163.001 187.926,163.689 188.236,164.586 C188.545,165.482 188.700,166.541 188.700,167.762 C188.700,169.632 188.353,171.102 187.658,172.173 C186.964,173.244 186.003,173.779 184.775,173.779 L180.899,173.779 L180.899,152.616 L181.893,152.616 L181.893,161.802 ZM181.893,172.267 L184.800,172.267 C185.709,172.267 186.420,171.862 186.931,171.052 C187.443,170.242 187.699,169.133 187.699,167.725 C187.699,166.386 187.451,165.321 186.956,164.529 C186.460,163.738 185.766,163.333 184.872,163.314 L181.893,163.314 L181.893,172.267 ZM183.080,201.976 C183.295,201.976 183.465,202.095 183.589,202.332 C183.713,202.570 183.775,202.858 183.775,203.197 C183.775,203.536 183.713,203.815 183.589,204.033 C183.465,204.251 183.295,204.360 183.080,204.360 C182.865,204.360 182.697,204.251 182.575,204.033 C182.454,203.815 182.394,203.536 182.394,203.197 C182.394,202.858 182.454,202.570 182.575,202.332 C182.697,202.095 182.865,201.976 183.080,201.976 ZM188.286,152.616 L197.331,152.616 L197.331,154.128 L193.301,154.128 L193.301,173.779 L192.308,173.779 L192.308,154.128 L188.286,154.128 L188.286,152.616 ZM196.042,142.428 C195.372,141.643 194.854,140.531 194.488,139.092 C194.122,137.653 193.936,136.009 193.931,134.158 L193.931,131.410 C193.931,129.531 194.114,127.864 194.480,126.410 C194.846,124.957 195.372,123.835 196.058,123.045 C196.745,122.256 197.535,121.861 198.428,121.861 C199.688,121.861 200.683,122.471 201.412,123.692 C202.142,124.913 202.566,126.604 202.684,128.765 L201.683,128.765 C201.435,125.170 200.350,123.373 198.428,123.373 C197.363,123.373 196.513,124.090 195.881,125.526 C195.248,126.961 194.932,128.944 194.932,131.475 L194.932,134.064 C194.932,136.508 195.240,138.457 195.857,139.912 C196.473,141.367 197.306,142.094 198.356,142.094 C199.395,142.094 200.178,141.646 200.706,140.749 C201.233,139.853 201.559,138.509 201.683,136.716 L202.684,136.716 C202.549,138.945 202.107,140.650 201.356,141.832 C200.605,143.015 199.605,143.605 198.356,143.605 C197.484,143.605 196.712,143.213 196.042,142.428 ZM206.578,154.128 L200.296,154.128 L200.296,162.122 L205.795,162.122 L205.795,163.634 L200.296,163.634 L200.296,172.267 L206.619,172.267 L206.619,173.779 L199.303,173.779 L199.303,152.616 L206.578,152.616 L206.578,154.128 ZM210.177,153.510 C210.863,152.720 211.653,152.325 212.547,152.325 C213.806,152.325 214.801,152.936 215.530,154.157 C216.260,155.378 216.684,157.069 216.802,159.229 L215.801,159.229 C215.553,155.634 214.469,153.837 212.547,153.837 C211.481,153.837 210.632,154.555 209.999,155.990 C209.366,157.425 209.050,159.408 209.050,161.939 L209.050,164.529 C209.050,166.972 209.358,168.922 209.975,170.376 C210.591,171.831 211.424,172.558 212.474,172.558 C213.513,172.558 214.296,172.110 214.824,171.214 C215.351,170.317 215.677,168.973 215.801,167.180 L216.802,167.180 C216.668,169.409 216.225,171.114 215.474,172.296 C214.723,173.479 213.723,174.070 212.474,174.070 C211.602,174.070 210.831,173.677 210.161,172.892 C209.490,172.108 208.972,170.996 208.606,169.557 C208.240,168.118 208.054,166.473 208.049,164.622 L208.049,161.875 C208.049,159.995 208.232,158.328 208.598,156.875 C208.964,155.421 209.490,154.300 210.177,153.510 ZM210.979,132.057 C211.566,132.537 212.014,133.225 212.323,134.121 C212.633,135.018 212.788,136.076 212.788,137.297 C212.788,139.167 212.440,140.638 211.746,141.709 C211.052,142.779 210.091,143.315 208.863,143.315 L204.987,143.315 L204.987,122.152 L205.980,122.152 L205.980,131.338 L208.896,131.338 C209.698,131.338 210.392,131.578 210.979,132.057 ZM205.980,141.803 L208.887,141.803 C209.797,141.803 210.508,141.398 211.019,140.588 C211.531,139.777 211.786,138.668 211.786,137.261 C211.786,135.921 211.539,134.856 211.043,134.065 C210.548,133.274 209.854,132.869 208.960,132.849 L205.980,132.849 L205.980,141.803 ZM200.176,48.855 L206.870,30.759 L207.863,30.759 L207.863,51.922 L206.870,51.922 L206.870,33.811 L200.176,51.922 L199.174,51.922 L199.174,30.759 L200.176,30.759 L200.176,48.855 ZM202.751,82.502 C202.535,82.502 202.367,82.393 202.246,82.175 C202.125,81.957 202.064,81.679 202.064,81.340 C202.064,81.001 202.125,80.712 202.246,80.475 C202.367,80.237 202.535,80.119 202.751,80.119 C202.966,80.119 203.136,80.237 203.259,80.475 C203.383,80.712 203.445,81.001 203.445,81.340 C203.445,81.679 203.383,81.957 203.259,82.175 C203.136,82.393 202.966,82.502 202.751,82.502 ZM195.333,112.850 L194.340,112.850 L194.340,91.687 L195.656,91.687 L199.992,110.365 L204.345,91.687 L205.669,91.687 L205.669,112.850 L204.676,112.850 L204.676,103.635 L204.757,94.187 L200.380,112.850 L199.613,112.850 L195.252,94.260 L195.333,103.577 L195.333,112.850 ZM199.799,82.386 L198.798,82.386 L198.798,73.752 L195.415,73.752 L192.847,82.386 L191.773,82.386 L194.542,73.259 C193.783,72.785 193.205,72.068 192.806,71.110 C192.408,70.152 192.209,68.981 192.209,67.597 C192.209,65.603 192.560,64.042 193.263,62.914 C193.965,61.787 194.954,61.223 196.230,61.223 L199.799,61.223 L199.799,82.386 ZM198.798,62.735 L196.198,62.735 C195.240,62.735 194.501,63.155 193.981,63.994 C193.462,64.833 193.202,66.030 193.202,67.582 C193.202,68.980 193.446,70.106 193.933,70.960 C194.420,71.814 195.092,72.241 195.948,72.241 L198.798,72.241 L198.798,62.735 ZM184.959,91.687 L192.235,91.687 L192.235,93.199 L185.952,93.199 L185.952,101.193 L191.451,101.193 L191.451,102.705 L185.952,102.705 L185.952,111.339 L192.275,111.339 L192.275,112.850 L184.959,112.850 L184.959,91.687 ZM192.500,141.803 L192.500,143.315 L185.184,143.315 L185.184,122.152 L192.460,122.152 L192.460,123.663 L186.178,123.663 L186.178,131.658 L191.677,131.658 L191.677,133.169 L186.178,133.169 L186.178,141.803 L192.500,141.803 ZM189.618,61.223 L189.618,82.386 L188.625,82.386 L188.625,64.275 L181.930,82.386 L180.929,82.386 L180.929,61.223 L181.930,61.223 L181.930,79.319 L188.625,61.223 L189.618,61.223 ZM167.893,120.684 C167.193,120.684 166.629,120.342 166.201,119.659 C165.773,118.976 165.559,118.072 165.559,116.948 L166.383,116.948 C166.383,117.752 166.516,118.368 166.783,118.794 C167.049,119.220 167.419,119.434 167.893,119.434 C168.367,119.434 168.737,119.211 169.003,118.765 C169.270,118.319 169.403,117.714 169.403,116.948 L170.227,116.948 C170.227,118.062 170.015,118.964 169.593,119.652 C169.170,120.340 168.603,120.684 167.893,120.684 ZM163.484,143.315 L163.484,122.152 L164.485,122.152 L164.485,140.248 L171.179,122.152 L172.173,122.152 L172.173,143.315 L171.179,143.315 L171.179,125.204 L164.485,143.315 L163.484,143.315 ZM175.754,180.362 C176.228,180.362 176.598,180.139 176.865,179.694 C177.131,179.248 177.265,178.642 177.265,177.877 L178.088,177.877 C178.088,178.991 177.877,179.892 177.454,180.580 C177.032,181.268 176.465,181.612 175.754,181.612 C175.055,181.612 174.491,181.271 174.063,180.587 C173.635,179.904 173.421,179.001 173.421,177.877 L174.244,177.877 C174.244,178.681 174.378,179.296 174.644,179.723 C174.911,180.149 175.281,180.362 175.754,180.362 ZM174.344,112.850 L173.343,112.850 L173.343,91.687 L174.344,91.687 L174.344,109.784 L181.038,91.687 L182.031,91.687 L182.031,112.850 L181.038,112.850 L181.038,94.740 L174.344,112.850 ZM178.190,143.315 L178.190,123.663 L174.168,123.663 L174.168,122.152 L183.212,122.152 L183.212,123.663 L179.183,123.663 L179.183,143.315 L178.190,143.315 ZM167.685,173.779 L166.692,173.779 L166.692,152.616 L168.008,152.616 L172.344,171.294 L176.697,152.616 L178.021,152.616 L178.021,173.779 L177.028,173.779 L177.028,164.564 L177.108,155.116 L172.732,173.779 L171.965,173.779 L167.604,155.189 L167.685,164.506 L167.685,173.779 ZM161.709,112.850 L161.709,91.687 L162.702,91.687 L162.702,101.193 L169.420,101.193 L169.420,91.687 L170.422,91.687 L170.422,112.850 L169.420,112.850 L169.420,102.705 L162.702,102.705 L162.702,112.850 L161.709,112.850 ZM162.961,61.223 L167.410,82.386 L166.376,82.386 L165.157,76.441 L159.820,76.441 L158.608,82.386 L157.567,82.386 L162.016,61.223 L162.961,61.223 ZM164.842,74.930 L162.484,63.403 L160.126,74.930 L164.842,74.930 ZM159.603,93.199 L153.321,93.199 L153.321,101.193 L158.820,101.193 L158.820,102.705 L153.321,102.705 L153.321,111.339 L159.644,111.339 L159.644,112.850 L152.328,112.850 L152.328,91.687 L159.603,91.687 L159.603,93.199 ZM153.134,122.152 L156.962,135.713 L160.305,122.152 L161.475,122.152 L156.929,139.870 L156.639,140.873 C156.068,142.704 155.228,143.620 154.119,143.620 C153.791,143.620 153.538,143.567 153.360,143.460 L153.449,142.007 C153.562,142.075 153.788,142.108 154.127,142.108 C154.795,142.108 155.330,141.493 155.734,140.262 L155.936,139.608 L156.445,137.719 L151.995,122.152 L153.134,122.152 ZM141.701,101.193 L148.420,101.193 L148.420,91.687 L149.421,91.687 L149.421,112.850 L148.420,112.850 L148.420,102.705 L141.701,102.705 L141.701,112.850 L140.708,112.850 L140.708,91.687 L141.701,91.687 L141.701,101.193 ZM143.000,143.315 L143.000,122.152 L147.005,122.152 C148.227,122.152 149.192,122.714 149.900,123.838 C150.608,124.962 150.962,126.507 150.962,128.474 C150.962,130.461 150.621,131.994 149.940,133.075 C149.259,134.155 148.273,134.695 146.981,134.695 L143.993,134.695 L143.993,143.315 L143.000,143.315 ZM147.005,133.184 C147.969,133.184 148.704,132.771 149.210,131.946 C149.716,131.122 149.969,129.971 149.969,128.496 C149.969,127.031 149.717,125.864 149.214,124.995 C148.710,124.127 147.996,123.683 147.070,123.663 L143.993,123.663 L143.993,133.184 L147.005,133.184 ZM142.802,173.779 L141.583,167.834 L136.245,167.834 L135.034,173.779 L133.993,173.779 L138.442,152.616 L139.387,152.616 L143.836,173.779 L142.802,173.779 ZM138.910,154.796 L136.552,166.323 L141.268,166.323 L138.910,154.796 ZM140.072,122.152 L140.072,143.315 L139.079,143.315 L139.079,125.204 L132.385,143.315 L131.384,143.315 L131.384,122.152 L132.385,122.152 L132.385,140.248 L139.079,122.152 L140.072,122.152 ZM128.427,91.687 L128.427,112.850 L127.433,112.850 L127.433,103.635 L127.514,94.187 L123.137,112.850 L122.370,112.850 L118.010,94.260 L118.091,103.577 L118.091,112.850 L117.097,112.850 L117.097,91.687 L118.414,91.687 L122.750,110.365 L127.102,91.687 L128.427,91.687 ZM117.668,62.131 C118.363,61.332 119.162,60.932 120.067,60.932 C120.971,60.932 121.769,61.325 122.461,62.110 C123.153,62.894 123.687,64.004 124.064,65.438 C124.441,66.872 124.637,68.534 124.653,70.424 L124.653,72.953 C124.653,74.901 124.466,76.611 124.092,78.084 C123.718,79.557 123.184,80.691 122.489,81.485 C121.795,82.280 120.993,82.677 120.083,82.677 C118.710,82.677 117.601,81.793 116.756,80.024 C115.911,78.256 115.488,75.870 115.488,72.866 L115.488,70.685 C115.488,68.757 115.678,67.049 116.057,65.562 C116.437,64.074 116.974,62.931 117.668,62.131 ZM116.481,72.953 C116.481,75.463 116.804,77.451 117.450,78.919 C118.096,80.388 118.974,81.122 120.083,81.122 C121.208,81.122 122.086,80.397 122.715,78.949 C123.345,77.500 123.660,75.482 123.660,72.895 L123.660,70.656 C123.660,68.108 123.340,66.112 122.699,64.668 C122.059,63.224 121.181,62.502 120.067,62.502 C118.974,62.502 118.103,63.227 117.454,64.675 C116.806,66.124 116.481,68.147 116.481,70.743 L116.481,72.953 ZM118.956,132.057 C119.543,132.537 119.991,133.225 120.301,134.121 C120.610,135.018 120.765,136.076 120.765,137.297 C120.765,139.167 120.418,140.638 119.723,141.709 C119.029,142.779 118.068,143.315 116.841,143.315 L112.965,143.315 L112.965,122.152 L113.958,122.152 L113.958,131.338 L116.873,131.338 C117.675,131.338 118.369,131.578 118.956,132.057 ZM113.958,141.803 L116.865,141.803 C117.775,141.803 118.485,141.398 118.997,140.588 C119.508,139.777 119.764,138.668 119.764,137.261 C119.764,135.921 119.516,134.856 119.021,134.065 C118.526,133.274 117.831,132.869 116.938,132.849 L113.958,132.849 L113.958,141.803 ZM121.056,168.038 C121.056,169.869 120.672,171.332 119.905,172.427 C119.138,173.522 118.105,174.070 116.808,174.070 C116.022,174.070 115.306,173.801 114.660,173.263 C114.014,172.725 113.527,171.999 113.199,171.083 C112.870,170.167 112.706,169.109 112.706,167.907 L113.699,167.907 C113.699,169.259 113.993,170.373 114.579,171.247 C115.166,172.121 115.909,172.558 116.808,172.558 C117.826,172.558 118.622,172.154 119.198,171.346 C119.774,170.539 120.062,169.453 120.062,168.089 C120.062,166.647 119.807,165.571 119.295,164.860 C118.784,164.149 117.995,163.784 116.929,163.764 L115.427,163.764 L115.427,162.224 L116.881,162.224 C117.861,162.214 118.606,161.867 119.118,161.183 C119.629,160.498 119.885,159.481 119.885,158.132 C119.885,156.802 119.618,155.754 119.085,154.987 C118.552,154.220 117.793,153.837 116.808,153.837 C115.957,153.837 115.255,154.245 114.700,155.062 C114.146,155.879 113.869,156.914 113.869,158.168 L112.876,158.168 C112.876,157.044 113.045,156.039 113.384,155.152 C113.723,154.266 114.198,153.573 114.810,153.074 C115.420,152.575 116.087,152.325 116.808,152.325 C118.079,152.325 119.074,152.834 119.796,153.851 C120.517,154.869 120.878,156.313 120.878,158.183 C120.878,159.258 120.687,160.218 120.305,161.061 C119.922,161.904 119.408,162.529 118.762,162.936 C120.291,163.672 121.056,165.373 121.056,168.038 ZM120.352,122.152 L129.396,122.152 L129.396,123.663 L125.366,123.663 L125.366,143.315 L124.373,143.315 L124.373,123.663 L120.352,123.663 L120.352,122.152 ZM123.386,173.779 L123.386,152.616 L124.380,152.616 L124.380,162.122 L131.098,162.122 L131.098,152.616 L132.099,152.616 L132.099,173.779 L131.098,173.779 L131.098,163.634 L124.380,163.634 L124.380,173.779 L123.386,173.779 ZM114.170,91.687 L114.170,112.850 L113.177,112.850 L113.177,94.740 L106.482,112.850 L105.481,112.850 L105.481,91.687 L106.482,91.687 L106.482,109.784 L113.177,91.687 L114.170,91.687 ZM112.996,82.386 L112.003,82.386 L112.003,62.735 L105.349,62.735 L105.349,82.386 L104.355,82.386 L104.355,61.223 L112.996,61.223 L112.996,82.386 ZM110.078,143.315 L109.085,143.315 L109.085,123.663 L104.119,123.663 L103.844,132.420 C103.737,135.552 103.571,137.829 103.348,139.249 C103.124,140.670 102.807,141.698 102.395,142.333 C101.983,142.968 101.425,143.295 100.719,143.315 L100.299,143.315 L100.299,141.817 L100.622,141.803 C101.177,141.755 101.594,141.439 101.874,140.858 C102.154,140.276 102.371,139.333 102.524,138.029 C102.678,136.724 102.797,134.709 102.883,131.985 L103.174,122.152 L110.078,122.152 L110.078,143.315 ZM95.377,112.850 L95.377,91.687 L99.382,91.687 C100.604,91.687 101.569,92.249 102.277,93.373 C102.985,94.498 103.339,96.043 103.339,98.010 C103.339,99.997 102.998,101.530 102.317,102.610 C101.636,103.691 100.650,104.231 99.358,104.231 L96.370,104.231 L96.370,112.850 L95.377,112.850 ZM99.382,102.719 C100.346,102.719 101.081,102.307 101.587,101.482 C102.093,100.657 102.346,99.507 102.346,98.032 C102.346,96.567 102.094,95.400 101.591,94.531 C101.087,93.662 100.373,93.218 99.447,93.199 L96.370,93.199 L96.370,102.719 L99.382,102.719 ZM134.632,82.386 L129.762,72.444 L128.147,72.444 L128.147,82.386 L127.154,82.386 L127.154,61.223 L128.147,61.223 L128.147,70.932 L129.714,70.932 L134.260,61.223 L135.512,61.223 L130.683,71.624 L135.867,82.386 L134.632,82.386 ZM138.643,111.339 L138.643,112.850 L131.327,112.850 L131.327,91.687 L138.603,91.687 L138.603,93.199 L132.320,93.199 L132.320,101.193 L137.819,101.193 L137.819,102.705 L132.320,102.705 L132.320,111.339 L138.643,111.339 ZM156.469,76.645 C156.469,78.476 156.086,79.939 155.319,81.034 C154.552,82.129 153.519,82.677 152.222,82.677 C151.436,82.677 150.720,82.408 150.074,81.870 C149.428,81.332 148.941,80.606 148.612,79.690 C148.284,78.774 148.120,77.716 148.120,76.514 L149.113,76.514 C149.113,77.866 149.406,78.980 149.993,79.854 C150.580,80.728 151.323,81.165 152.222,81.165 C153.239,81.165 154.036,80.761 154.612,79.954 C155.188,79.146 155.476,78.060 155.476,76.696 C155.476,75.254 155.220,74.178 154.709,73.467 C154.197,72.756 153.409,72.391 152.343,72.371 L150.841,72.371 L150.841,70.831 L152.295,70.831 C153.274,70.821 154.020,70.474 154.531,69.790 C155.043,69.105 155.298,68.089 155.298,66.739 C155.298,65.410 155.032,64.361 154.499,63.594 C153.966,62.827 153.207,62.444 152.222,62.444 C151.371,62.444 150.669,62.852 150.114,63.669 C149.560,64.486 149.283,65.521 149.283,66.775 L148.289,66.775 C148.289,65.651 148.459,64.646 148.798,63.759 C149.137,62.873 149.612,62.180 150.223,61.681 C150.834,61.182 151.500,60.932 152.222,60.932 C153.492,60.932 154.488,61.441 155.210,62.458 C155.931,63.476 156.292,64.920 156.292,66.790 C156.292,67.866 156.101,68.825 155.718,69.668 C155.336,70.511 154.822,71.136 154.176,71.543 C155.705,72.279 156.469,73.980 156.469,76.645 ZM174.915,30.759 L174.915,51.922 L173.914,51.922 L173.914,41.776 L167.195,41.776 L167.195,51.922 L166.202,51.922 L166.202,30.759 L167.195,30.759 L167.195,40.265 L173.914,40.265 L173.914,30.759 L174.915,30.759 ZM178.008,61.223 L178.008,82.386 L177.007,82.386 L177.007,72.241 L170.289,72.241 L170.289,82.386 L169.295,82.386 L169.295,61.223 L170.289,61.223 L170.289,70.729 L177.007,70.729 L177.007,61.223 L178.008,61.223 ZM179.349,48.519 C179.966,49.974 180.799,50.701 181.849,50.701 C182.888,50.701 183.671,50.253 184.199,49.356 C184.726,48.460 185.052,47.116 185.176,45.323 L186.177,45.323 C186.042,47.552 185.600,49.257 184.849,50.439 C184.098,51.622 183.098,52.212 181.849,52.212 C180.977,52.212 180.205,51.820 179.535,51.035 C178.865,50.250 178.347,49.138 177.981,47.699 C177.615,46.260 177.429,44.616 177.424,42.765 L177.424,40.017 C177.424,38.138 177.606,36.471 177.973,35.017 C178.339,33.564 178.865,32.442 179.551,31.653 C180.238,30.863 181.028,30.468 181.921,30.468 C183.181,30.468 184.176,31.078 184.905,32.299 C185.634,33.520 186.058,35.211 186.177,37.372 L185.176,37.372 C184.928,33.777 183.843,31.980 181.921,31.980 C180.855,31.980 180.006,32.697 179.374,34.133 C178.741,35.568 178.425,37.551 178.425,40.082 L178.425,42.671 C178.425,45.115 178.733,47.064 179.349,48.519 ZM195.994,51.922 L191.124,41.980 L189.509,41.980 L189.509,51.922 L188.516,51.922 L188.516,30.759 L189.509,30.759 L189.509,40.468 L191.076,40.468 L195.622,30.759 L196.874,30.759 L192.045,41.159 L197.229,51.922 L195.994,51.922 ZM218.107,50.410 L218.107,51.922 L210.791,51.922 L210.791,30.759 L218.066,30.759 L218.066,32.270 L211.784,32.270 L211.784,40.265 L217.283,40.265 L217.283,41.776 L211.784,41.776 L211.784,50.410 L218.107,50.410 Z" class="cls-1"/>
</svg>
