<?xml version="1.0" encoding="utf-8"?>
<!-- Generator: Adobe Illustrator 19.0.0, SVG Export Plug-In . SVG Version: 6.00 Build 0)  -->
<svg version="1.2" baseProfile="tiny" id="Layer_1" xmlns="http://www.w3.org/2000/svg" xmlns:xlink="http://www.w3.org/1999/xlink"
	 x="0px" y="0px" viewBox="0 0 72.6 73.8" xml:space="preserve">
<g>
	<path fill="#FC4D67" d="M58.4,29c-3-5.7-7.2-10.9-10.9-15.7C46.4,11.9,37.7,0,37.7,0S27.2,12.7,22.4,19.7
		c-5.4,7.9-10.7,17.5-8.6,27.7c1.7,8.2,7.6,15.1,15.4,18c2.7,1,5.6,1.5,8.5,1.5c8.3,0,16.1-4.5,20.6-11.4
		C63.5,47.2,62.8,37.5,58.4,29"/>
	<g>
		<path d="M11.4,71.1c7.7-10,16-19.4,25.1-28.1c4.1-3.9,8.3-7.7,12.6-11.3c0.7-0.6,15.5-12.3,16.2-11.5c1.5,1.8,4-0.8,2.6-2.6
			c-4.5-5.5-25,14.6-28.5,17.7C27.9,45.7,17.6,57.1,8.3,69.3C6.8,71.1,10,72.9,11.4,71.1"/>
		<path d="M0.9,18.4c27.1,12,50.6,30.7,68.2,54.7c1.4,1.9,4.5,0.1,3.1-1.8c-17.9-24.4-41.7-43.7-69.5-56C0.7,14.3-1.2,17.4,0.9,18.4
			"/>
	</g>
</g>
</svg>
