<?xml version="1.0" encoding="utf-8"?>
<!-- Generator: Adobe Illustrator 19.0.0, SVG Export Plug-In . SVG Version: 6.00 Build 0)  -->
<svg version="1.2" baseProfile="tiny" id="Layer_1" xmlns="http://www.w3.org/2000/svg" xmlns:xlink="http://www.w3.org/1999/xlink"
	 x="0px" y="0px" viewBox="0 0 199.8 144.1" xml:space="preserve">
	 <style>
	 	.hand{
	 		animation: apperaring 2s linear 2s;
	 	}
	 	@keyframes apperaring{
	 		0%{
	 			opacity: 0;
	 		}
	 		100%{
	 			opacity:1;
	 		}
	 	}
	 	.water{
	 		animation: falling 4s linear 2s;
	 	}
	 	@keyframes falling{
		 	0%{
		 		transform: translateY(-200px);
		 		opacity: 0;
		 	}
			60%{
				transform: translateY(-100px);
				opacity: 1;
			}
		 	100%{
		 		transform: translateY(0);
		 	}
	 	}
	 </style>
<g>
	<g class="water">
		<path fill="#80A2D4" d="M182.4,34.9c-3.6-6.8-8.7-13.1-13.1-18.9c-1.3-1.7-11.8-16-11.8-16s-12.6,15.3-18.4,23.7
			c-6.5,9.5-12.9,21.1-10.4,33.3c2,9.8,9.1,18.1,18.5,21.6c3.3,1.2,6.8,1.8,10.2,1.8c10,0,19.4-5.4,24.7-13.7
			C188.6,56.8,187.7,45.1,182.4,34.9"/>
		<path fill="#80A2D4" d="M162.2,75.1c-16.7,0-30.2-13.5-30.2-30.2c0-0.2,0-0.3,0-0.5c-0.7,2.4-1.1,4.9-1.1,7.5
			c0,14.3,11.6,25.9,25.9,25.9c4.8,0,9.4-1.3,13.2-3.7C167.5,74.8,164.9,75.1,162.2,75.1"/>
	</g>
	<g class="hand">
		<path fill="#F7D5A9" d="M113,138.8c0,0,9.6,6.2,16.6,4.3c5.1-1.4,4.2-3.6,8.4-4.1c19.8-2.1,58.3-4,58.3-4s-0.5-6.8-9.3-8.5
			l-60.6,10.7L113,138.8z"/>
		<path fill="#E0B285" d="M193.3,129.6l-11,0.4l-48.8,9.3c0,0-2,3.9-9,3.6c-1.7-0.1-3.5-0.3-4.6-0.7c-0.4-0.1-0.7-0.3-1.1-0.4
			c-1.7-0.7-2.4-1.6-2.4-1.6s3.4-1.1,8.6-2.8l1.3-0.2l60.6-10.7C189.9,127.1,191.9,128.3,193.3,129.6z"/>
		<path fill="#F7D5A9" d="M55,139.3c0,0,3.1,0.1,16.6-2.4c13.4-2.5,44.8,5.3,50.6,5.6c8.1,0.4,11.1-3.6,11.1-3.6l46.5-10.3l20-1.1
			c0,0-3.4-11.5-21-9.9c-3.5,0.5-32,4.2-32,4.2l-23.9-7.7c0,0,23,3.6,26.2,3c0.7-0.1,7.9-1.4,7.9-8c0-6.6-10.3-7.3-10.3-7.3
			l-24.1-1.5c0,0-18.8-10.1-29.2-10.1C83,90.2,64.3,97,64.3,97h-8.7L55,139.3z"/>
		<polygon fill="#E0B285" points="122.9,114.1 117.9,112.5 126.3,114.6 		"/>
		<path fill="#FFCB2A" d="M0,91c0,19.7,6.2,38,16.8,53h52.7V84H0.3C0.1,86.3,0,88.7,0,91z"/>
	</g>
</g>
</svg>
