<?xml version="1.0" encoding="utf-8"?>
<!-- Generator: Adobe Illustrator 19.0.0, SVG Export Plug-In . SVG Version: 6.00 Build 0)  -->
<svg version="1.2" baseProfile="tiny" id="Layer_1" xmlns="http://www.w3.org/2000/svg" xmlns:xlink="http://www.w3.org/1999/xlink"
	 x="0px" y="0px" viewBox="0 0 23.6 39.4" xml:space="preserve">
<g>
	<path fill="#FFFFFF" d="M19.9,1.1c-2.5-0.3-6-0.4-8.9,0.7c-2.9,1.2-4.7,3-5.7,5c-1,1.9-0.5,7-0.4,7.7c0.1,0.7,0,1.3-0.6,1.6
		c-0.5,0.3-3.6,0.2-3.8,0.2c-0.2,0.1,0.2,6.5,0.3,6.6c0.2,0.2,3.4,0.2,3.9,0.6c0.4,0.3,0.5,3.2,0.6,5.2c0.1,2,0.1,7.8,0.2,7.9
		c0.1,0.2,1.5,0.2,1.6,0.2c0.1-0.1-0.5-0.5-0.6-0.6c-0.2-0.2-0.2-0.4,0-0.6c0.2-0.2,0.7,0.4,1,0.8C7.9,36.8,7.8,37,7.8,37
		S8,37,8.3,37c0.2,0,3.9,0.3,4,0.2c0.1,0-2.6-3.4-2.7-3.7c-0.1-0.2,0-0.9,0.2-1c0.2-0.1,2.8,4.2,3,4.4c0.2,0.2,0.4,0.2,0.6,0.2
		c0.2,0,0.2-0.2,0.2-0.3c0-0.2-3.1-4.9-3.2-5c0-0.2,0.2-0.8,0.2-0.8c0.1,0,3,4.6,3,4.7c0.1,0.1,0-0.9,0-1.1c0-0.2-2.7-4-2.8-4.2
		c-0.1-0.2,0-1,0.2-1c0.2,0,2.6,4.2,2.6,4.2c0.1,0.1,0.2-1.5,0.1-1.6c-0.1-0.1-2.4-3.7-2.5-3.9c0-0.2,0.1-0.8,0.2-0.9
		c0.2-0.1,2.2,3.8,2.3,3.8c0.2,0.1,0.1-0.7,0.1-0.9s-2-3.1-2.1-3.4c-0.1-0.2,0-1,0.2-1c0.1,0,1.8,3.2,1.9,3.4c0.1,0.1,0-1.4,0-1.6
		c0-0.2-1.6-2.4-1.7-2.6c-0.1-0.2,0.2-0.6,0.2-0.7c0.1-0.1,1.3,2.1,1.4,2.2c0.2,0.2,0.2-1,0.1-1.2c0-0.2-1.3-1.6-1.4-1.8
		c-0.1-0.2,0.1-0.6,0.2-0.6c0.2,0,1,1.6,1,1.7c0.1,0-0.1-1.4,0-1.7c0.1-0.2,1.8-0.2,1.9-0.2c0.1,0-0.6-1-0.6-1.2
		c-0.1-0.2,0.2-0.5,0.3-0.5c0.2,0,1,1.6,1,1.7c0.1,0.1,0.9,0.2,1,0.1c0.2-0.1-1.3-1.8-1.4-2c-0.2-0.2,0.2-0.5,0.3-0.6
		c0.2-0.1,1.4,2.2,1.7,2.4c0.2,0.3,0.6,0.2,0.6,0.2c0.1-0.1-1.4-2.6-1.6-2.8c-0.2-0.2,0.3-0.4,0.5-0.4c0.2,0,1.8,3,1.9,3.2
		c0.2,0.1,0.6-0.2,0.6-0.2c0-0.1-2-3-2.2-3.2c-0.2-0.2-0.1-0.7,0.2-0.7c0.2,0,1.9,3.1,2.1,3.2c0.2,0,0.2-1,0.2-1.2
		c0-0.1-1.8-2.7-2-3c-0.2-0.2,0.2-0.6,0.2-0.6c0.1-0.1,1.8,2.9,1.9,3c0.1,0.2,0.3-0.4,0.3-0.5c0-0.1-1.5-2.4-1.7-2.6
		c-0.2-0.2,0.1-0.6,0.2-0.7c0.1-0.1,1.5,2.4,1.6,2.5c0.1,0.1,0.2-0.6,0.2-0.8c0-0.2-1.5-2.3-1.6-2.5c-0.1-0.2-0.6-0.1-1.8-0.2
		c-1,0-3.9-0.1-4.2-0.1c-0.3,0-0.3-2.1-0.2-3.2c0.2-1.1,1.3-3.2,3.3-3.9c2.1-0.7,5.6-0.3,6-0.4C23,7.8,23,4.2,22.6,3
		C22.6,1.9,22.4,1.4,19.9,1.1z M6.7,17.8c-0.2,0-2.7,0-2.9-0.1c-0.2-0.1-0.2-0.3-0.2-0.4C3.6,17,3.9,17,4.3,17
		c0.3,0,1.6,0.2,1.6-0.1c0-0.2,0-0.8,0.2-0.8c0.2,0,0.7-0.1,0.9,0.2C6.9,16.5,7,17.8,6.7,17.8z M9.4,36.8c-0.2,0-1.5-1.5-1.8-1.9
		c-0.2-0.4-0.2-0.6,0.1-0.6c0.2-0.1,1.8,1.8,2,2.1C9.9,36.6,9.7,36.8,9.4,36.8z M11.1,36c0.2,0.3,0.5,0.6,0.2,0.8
		c-0.2,0.2-0.4,0.1-0.6-0.2c-0.2-0.3-1.9-2.5-1.9-2.5c-0.1-0.2,0.3-0.6,0.4-0.5C9.2,33.6,11,35.7,11.1,36z M10.9,4.8
		c-0.2,0-1.8,0.5-2.9,2.3C7,9,7.1,11.3,7,11.3c-0.2,0-0.4,0.1-0.6,0c-0.2-0.1-0.2-0.6-0.2-1.4c0-0.8,0.2-1.8,1-3
		c0.8-1.3,2-2.2,2.6-2.6c0.6-0.3,1.3-0.6,1.3-0.2C11.1,4.4,11.1,4.8,10.9,4.8z M14.8,8.8c-0.2,0.1-1.1,0.5-1.4,1.2
		c-0.3,0.7-0.3,1.5-0.5,1.6c-0.2,0.1-0.3,0.2-0.6,0.1c-0.2-0.1-0.3-0.6-0.2-1c0.2-0.4,0.8-1.5,1.2-1.9c0.3-0.4,1-0.6,1.2-0.6
		C14.7,8.2,14.9,8.7,14.8,8.8z M22.3,5.1c0,0.6-0.6,0.3-0.7,0.2c-0.2-0.1-0.1-2.1-0.2-2.3c-0.1-0.2-0.3-0.2-0.6-0.2
		c-0.3-0.1-1.6-0.2-1.8-0.3c-0.2-0.1,0-0.8,0.3-0.7c0.4,0.1,2.5,0.3,2.8,0.5C22.3,2.4,22.3,4.6,22.3,5.1z"/>
	<path fill="#FFFFFF" d="M21.3,17.1c0.1-0.1,0.3-0.6,0.2-0.8c-0.2-0.2-0.7-0.9-0.9-0.9c-0.1,0-0.2,0.2-0.1,0.4
		C20.6,16,21.2,17.2,21.3,17.1z"/>
	<path fill="#FFFFFF" d="M7.8,34.2c-0.2,0.1-0.3,0.2-0.1,0.6c0.2,0.4,1.5,1.9,1.8,1.9c0.2,0,0.5-0.2,0.3-0.5C9.5,36,8,34.2,7.8,34.2
		z"/>
	<path fill="#FFFFFF" d="M9.1,33.6c-0.1-0.1-0.5,0.3-0.4,0.5c0,0,1.7,2.2,1.9,2.5c0.2,0.3,0.5,0.4,0.6,0.2c0.2-0.2-0.1-0.5-0.2-0.8
		C11,35.7,9.2,33.6,9.1,33.6z"/>
	<g>
		<path d="M23.4,1.9C23.2,0.2,19.2,0,16.9,0c-2.3,0-4.7,0.2-7.8,1.9C5.9,3.6,4.9,6.5,4.4,8.2c-0.3,1.8,0.2,7,0.2,7.1
			c0,0.2-2.4,0.2-3.4,0.2c-1,0.1-1.1,0.5-1.2,0.7c-0.1,0.2,0.4,7,0.4,7l0.3,2.4c0.6,0.3,3.1,0.2,3.5,0.2c0.5,0.1,0.6,0.7,0.6,2.4
			c0.1,1.7,0.3,8.2,0.3,9.5c0.1,1.4,0.6,1.4,2.1,1.4s7,0.2,7.4,0.2c0.3,0,0.6-0.4,0.6-1.7c0-1.3,0.4-11.8,0.5-12
			c0.1-0.2,0.9,0,1.6,0c0.7,0,4.2-0.2,4.8-0.3c0.6-0.1,0.9-6.4,0.9-8.4s-1.4-2.2-2.2-2.2C20,14.7,16,15,15.8,14.7
			c-0.2-0.2,0.8-3.3,2.1-3.9c1.4-0.6,4.6-0.3,5-0.2c0.4,0.1,0.7-0.9,0.7-1.6C23.6,8.2,23.6,3.6,23.4,1.9 M20.6,15.4
			c0.2,0,0.7,0.6,0.9,0.9c0.2,0.2-0.1,0.7-0.2,0.8c-0.1,0.1-0.7-1.1-0.8-1.3C20.4,15.7,20.5,15.4,20.6,15.4 M22.6,7.8
			c-0.4,0.1-3.9-0.3-6,0.4c-2,0.7-3.1,2.8-3.3,3.9c-0.2,1.1-0.2,3.2,0.2,3.2c0.3,0,3.2,0.1,4.2,0.1c1.1,0.1,1.7,0,1.8,0.2
			c0.1,0.2,1.6,2.3,1.6,2.5c0,0.2-0.2,0.9-0.2,0.8c-0.1-0.1-1.5-2.6-1.6-2.5c-0.1,0.1-0.4,0.5-0.2,0.7c0.2,0.2,1.7,2.6,1.7,2.6
			c0,0.1-0.2,0.6-0.3,0.5c-0.1-0.2-1.8-3.1-1.9-3c-0.1,0.1-0.4,0.4-0.2,0.6c0.2,0.2,2,2.9,2,3c0,0.2,0,1.2-0.2,1.2
			c-0.2-0.1-1.8-3.2-2.1-3.2c-0.3,0-0.4,0.6-0.2,0.7s2.2,3.1,2.2,3.2c0,0.1-0.5,0.3-0.6,0.2c-0.2-0.2-1.8-3.2-1.9-3.2
			S16.8,20,17,20.2c0.2,0.2,1.7,2.7,1.6,2.8c-0.1,0-0.4,0.2-0.6-0.2c-0.2-0.2-1.5-2.5-1.7-2.4c-0.2,0.1-0.5,0.4-0.3,0.6
			c0.2,0.2,1.6,1.9,1.4,2c-0.2,0.1-1,0-1-0.1c-0.1-0.1-0.9-1.7-1-1.7s-0.4,0.3-0.3,0.5c0.1,0.2,0.7,1.2,0.6,1.2
			c-0.1,0-1.8-0.1-1.9,0.2c-0.1,0.2,0.1,1.7,0,1.7c-0.1-0.1-0.9-1.7-1-1.7c-0.2,0-0.3,0.5-0.2,0.6c0.1,0.2,1.4,1.7,1.4,1.8
			c0.1,0.2,0.1,1.4-0.1,1.2c-0.1-0.2-1.3-2.3-1.4-2.2c-0.1,0.1-0.3,0.6-0.2,0.7c0.1,0.2,1.7,2.4,1.7,2.6s0.1,1.7,0,1.6
			c-0.1-0.2-1.8-3.4-1.9-3.4c-0.2,0-0.2,0.7-0.2,1c0.1,0.2,2.1,3.2,2.1,3.4s0.1,1-0.1,0.9c-0.1-0.1-2.2-3.9-2.3-3.8
			c-0.1,0.1-0.2,0.6-0.2,0.9c0.1,0.2,2.4,3.8,2.5,3.9c0.1,0.1,0,1.7-0.1,1.6c-0.1-0.1-2.5-4.2-2.6-4.2c-0.2,0-0.2,0.7-0.2,1
			c0.1,0.2,2.8,4,2.8,4.2c0,0.2,0.1,1.2,0,1.1c-0.1-0.1-3-4.7-3-4.7c-0.1,0-0.2,0.6-0.2,0.8c0.1,0.2,3.2,4.9,3.2,5
			c0,0.2,0,0.3-0.2,0.3c-0.2,0-0.4,0-0.6-0.2c-0.2-0.2-2.8-4.5-3-4.4c-0.2,0.1-0.2,0.7-0.2,1c0.1,0.2,2.8,3.7,2.7,3.7
			c-0.1,0.1-3.8-0.2-4-0.2C8,37,7.8,37,7.8,37s0.2-0.2-0.2-0.6c-0.3-0.4-0.9-1-1-0.8c-0.2,0.2-0.2,0.4,0,0.6
			c0.2,0.2,0.7,0.6,0.6,0.6c-0.1,0.1-1.5,0-1.6-0.2c-0.1-0.2-0.1-5.9-0.2-7.9c-0.1-2-0.2-4.9-0.6-5.2c-0.5-0.3-3.8-0.4-3.9-0.6
			c-0.2-0.2-0.6-6.6-0.3-6.6c0.2-0.1,3.4,0.1,3.8-0.2C5,15.8,5.1,15.2,5,14.5c-0.1-0.7-0.6-5.8,0.4-7.7c1-1.9,2.8-3.8,5.7-5
			c2.9-1.1,6.4-1,8.9-0.7c2.5,0.3,2.7,0.8,2.7,1.9C23,4.2,23,7.8,22.6,7.8 M6,16.1c-0.2,0-0.2,0.6-0.2,0.8c0,0.2-1.3,0.1-1.6,0.1
			c-0.3,0-0.6,0.1-0.6,0.3c0,0.1,0,0.3,0.2,0.4c0.2,0.1,2.6,0.1,2.9,0.1c0.2,0,0.2-1.3,0.2-1.5C6.7,16,6.2,16.1,6,16.1 M9.8,4.3
			C9.1,4.6,7.9,5.6,7.1,6.9c-0.7,1.2-1,2.2-1,3c0,0.8,0.1,1.4,0.2,1.4c0.2,0.1,0.4,0,0.6,0c0.2,0,0-2.3,1-4.2c1-1.8,2.6-2.3,2.9-2.3
			c0.2,0,0.2-0.4,0.2-0.7C11.1,3.8,10.4,4,9.8,4.3 M14.6,8.2c-0.2-0.1-0.9,0.2-1.2,0.6c-0.4,0.4-1,1.5-1.2,1.9c-0.2,0.4-0.1,1,0.2,1
			c0.2,0.1,0.4,0,0.6-0.1c0.2-0.1,0.2-0.9,0.5-1.6c0.3-0.7,1.3-1.1,1.4-1.2C14.9,8.7,14.7,8.2,14.6,8.2 M19.3,1.8
			C19,1.7,18.7,2.4,19,2.5c0.2,0.1,1.4,0.2,1.8,0.3c0.3,0.1,0.6,0,0.6,0.2c0.1,0.2,0,2.2,0.2,2.3c0.2,0.1,0.7,0.3,0.7-0.2
			c0-0.6,0.1-2.7-0.2-2.9C21.8,2.1,19.7,1.8,19.3,1.8 M7.8,34.2c-0.2,0.1-0.3,0.2-0.1,0.6c0.2,0.4,1.5,1.9,1.8,1.9
			c0.2,0,0.5-0.2,0.3-0.5C9.5,36,8,34.2,7.8,34.2 M9.1,33.6c-0.1-0.1-0.5,0.3-0.4,0.5c0,0,1.7,2.2,1.9,2.5c0.2,0.3,0.5,0.4,0.6,0.2
			c0.2-0.2-0.1-0.5-0.2-0.8C11,35.7,9.2,33.6,9.1,33.6"/>
	</g>
</g>
</svg>
