<?xml version="1.0" encoding="utf-8"?>
<!-- Generator: Adobe Illustrator 19.0.0, SVG Export Plug-In . SVG Version: 6.00 Build 0)  -->
<svg version="1.2" baseProfile="tiny" id="Layer_1" xmlns="http://www.w3.org/2000/svg" xmlns:xlink="http://www.w3.org/1999/xlink"
	 x="0px" y="0px" viewBox="-285 401.5 23.6 39.4" xml:space="preserve">
<g>
	<path fill="#4359AC" d="M-265.1,402.6c-2.5-0.3-6-0.4-8.9,0.7c-2.9,1.2-4.7,3-5.7,5c-1,1.9-0.5,7-0.4,7.7c0.1,0.7,0,1.3-0.6,1.6
		c-0.5,0.3-3.6,0.2-3.8,0.2c-0.2,0.1,0.2,6.5,0.3,6.6c0.2,0.2,3.4,0.2,3.9,0.6c0.4,0.3,0.5,3.2,0.6,5.2c0.1,2,0.1,7.8,0.2,7.9
		c0.1,0.2,1.5,0.2,1.6,0.2c0.1-0.1-0.5-0.5-0.6-0.6c-0.2-0.2-0.2-0.4,0-0.6c0.2-0.2,0.7,0.4,1,0.8c0.4,0.4,0.3,0.6,0.3,0.6
		s0.2,0,0.5,0c0.2,0,3.9,0.3,4,0.2c0.1,0-2.6-3.4-2.7-3.7c-0.1-0.2,0-0.9,0.2-1c0.2-0.1,2.8,4.2,3,4.4c0.2,0.2,0.4,0.2,0.6,0.2
		c0.2,0,0.2-0.2,0.2-0.3c0-0.2-3.1-4.9-3.2-5c0-0.2,0.2-0.8,0.2-0.8c0.1,0,3,4.6,3,4.7c0.1,0.1,0-0.9,0-1.1c0-0.2-2.7-4-2.8-4.2
		c-0.1-0.2,0-1,0.2-1s2.6,4.2,2.6,4.2c0.1,0.1,0.2-1.5,0.1-1.6c-0.1-0.1-2.4-3.7-2.5-3.9c0-0.2,0.1-0.8,0.2-0.9
		c0.2-0.1,2.2,3.8,2.3,3.8c0.2,0.1,0.1-0.7,0.1-0.9c0-0.2-2-3.1-2.1-3.4c-0.1-0.2,0-1,0.2-1c0.1,0,1.8,3.2,1.9,3.4
		c0.1,0.1,0-1.4,0-1.6c0-0.2-1.6-2.4-1.7-2.6s0.2-0.6,0.2-0.7c0.1-0.1,1.3,2.1,1.4,2.2c0.2,0.2,0.2-1,0.1-1.2c0-0.2-1.3-1.6-1.4-1.8
		s0.1-0.6,0.2-0.6c0.2,0,1,1.6,1,1.7c0.1,0-0.1-1.4,0-1.7c0.1-0.2,1.8-0.2,1.9-0.2s-0.6-1-0.6-1.2c-0.1-0.2,0.2-0.5,0.3-0.5
		c0.2,0,1,1.6,1,1.7c0.1,0.1,0.9,0.2,1,0.1c0.2-0.1-1.3-1.8-1.4-2c-0.2-0.2,0.2-0.5,0.3-0.6c0.2-0.1,1.4,2.2,1.7,2.4
		c0.2,0.3,0.6,0.2,0.6,0.2c0.1-0.1-1.4-2.6-1.6-2.8c-0.2-0.2,0.3-0.4,0.5-0.4c0.2,0,1.8,3,1.9,3.2c0.2,0.1,0.6-0.2,0.6-0.2
		c0-0.1-2-3-2.2-3.2c-0.2-0.2-0.1-0.7,0.2-0.7c0.2,0,1.9,3.1,2.1,3.2c0.2,0,0.2-1,0.2-1.2c0-0.1-1.8-2.7-2-3
		c-0.2-0.2,0.2-0.6,0.2-0.6c0.1-0.1,1.8,2.9,1.9,3c0.1,0.2,0.3-0.4,0.3-0.5s-1.5-2.4-1.7-2.6c-0.2-0.2,0.1-0.6,0.2-0.7
		s1.5,2.4,1.6,2.5s0.2-0.6,0.2-0.8c0-0.2-1.5-2.3-1.6-2.5c-0.1-0.2-0.6-0.1-1.8-0.2c-1,0-3.9-0.1-4.2-0.1c-0.3,0-0.3-2.1-0.2-3.2
		c0.2-1.1,1.3-3.2,3.3-3.9c2.1-0.7,5.6-0.3,6-0.4c0.7,0.2,0.7-3.4,0.3-4.6C-262.4,403.4-262.6,402.9-265.1,402.6z M-278.3,419.3
		c-0.2,0-2.7,0-2.9-0.1c-0.2-0.1-0.2-0.3-0.2-0.4c0-0.3,0.3-0.3,0.7-0.3c0.3,0,1.6,0.2,1.6-0.1c0-0.2,0-0.8,0.2-0.8
		c0.2,0,0.7-0.1,0.9,0.2C-278.1,418-278,419.3-278.3,419.3z M-275.6,438.3c-0.2,0-1.5-1.5-1.8-1.9c-0.2-0.4-0.2-0.6,0.1-0.6
		c0.2-0.1,1.8,1.8,2,2.1C-275.1,438.1-275.3,438.3-275.6,438.3z M-273.9,437.5c0.2,0.3,0.5,0.6,0.2,0.8c-0.2,0.2-0.4,0.1-0.6-0.2
		c-0.2-0.3-1.9-2.5-1.9-2.5c-0.1-0.2,0.3-0.6,0.4-0.5C-275.8,435.1-274,437.2-273.9,437.5z M-274.1,406.3c-0.2,0-1.8,0.5-2.9,2.3
		c-1,1.9-0.9,4.2-1,4.2c-0.2,0-0.4,0.1-0.6,0c-0.2-0.1-0.2-0.6-0.2-1.4c0-0.8,0.2-1.8,1-3c0.8-1.3,2-2.2,2.6-2.6
		c0.6-0.3,1.3-0.6,1.3-0.2C-273.9,405.9-273.9,406.3-274.1,406.3z M-270.2,410.3c-0.2,0.1-1.1,0.5-1.4,1.2c-0.3,0.7-0.3,1.5-0.5,1.6
		c-0.2,0.1-0.3,0.2-0.6,0.1c-0.2-0.1-0.3-0.6-0.2-1c0.2-0.4,0.8-1.5,1.2-1.9c0.3-0.4,1-0.6,1.2-0.6S-270.1,410.2-270.2,410.3z
		 M-262.7,406.6c0,0.6-0.6,0.3-0.7,0.2c-0.2-0.1-0.1-2.1-0.2-2.3c-0.1-0.2-0.3-0.2-0.6-0.2c-0.3-0.1-1.6-0.2-1.8-0.3
		c-0.2-0.1,0-0.8,0.3-0.7c0.4,0.1,2.5,0.3,2.8,0.5C-262.7,403.9-262.7,406.1-262.7,406.6z"/>
	<path fill="#FFFFFF" d="M-263.7,418.6c0.1-0.1,0.3-0.6,0.2-0.8c-0.2-0.2-0.7-0.9-0.9-0.9c-0.1,0-0.2,0.2-0.1,0.4
		S-263.8,418.7-263.7,418.6z"/>
	<path fill="#FFFFFF" d="M-277.2,435.7c-0.2,0.1-0.3,0.2-0.1,0.6c0.2,0.4,1.5,1.9,1.8,1.9c0.2,0,0.5-0.2,0.3-0.5
		C-275.5,437.5-277,435.7-277.2,435.7z"/>
	<path fill="#FFFFFF" d="M-275.9,435.1c-0.1-0.1-0.5,0.3-0.4,0.5c0,0,1.7,2.2,1.9,2.5c0.2,0.3,0.5,0.4,0.6,0.2
		c0.2-0.2-0.1-0.5-0.2-0.8C-274,437.2-275.8,435.1-275.9,435.1z"/>
	<g>
		<path d="M-261.6,403.4c-0.2-1.7-4.2-1.9-6.5-1.9c-2.3,0-4.7,0.2-7.8,1.9c-3.2,1.7-4.2,4.6-4.7,6.3c-0.3,1.8,0.2,7,0.2,7.1
			c0,0.2-2.4,0.2-3.4,0.2c-1,0.1-1.1,0.5-1.2,0.7s0.4,7,0.4,7l0.3,2.4c0.6,0.3,3.1,0.2,3.5,0.2c0.5,0.1,0.6,0.7,0.6,2.4
			c0.1,1.7,0.3,8.2,0.3,9.5c0.1,1.4,0.6,1.4,2.1,1.4s7,0.2,7.4,0.2c0.3,0,0.6-0.4,0.6-1.7c0-1.3,0.4-11.8,0.5-12
			c0.1-0.2,0.9,0,1.6,0c0.7,0,4.2-0.2,4.8-0.3s0.9-6.4,0.9-8.4s-1.4-2.2-2.2-2.2c-0.8,0-4.8,0.3-5,0c-0.2-0.2,0.8-3.3,2.1-3.9
			c1.4-0.6,4.6-0.3,5-0.2s0.7-0.9,0.7-1.6C-261.4,409.7-261.4,405.1-261.6,403.4 M-264.4,416.9c0.2,0,0.7,0.6,0.9,0.9
			c0.2,0.2-0.1,0.7-0.2,0.8c-0.1,0.1-0.7-1.1-0.8-1.3C-264.6,417.2-264.5,416.9-264.4,416.9 M-262.4,409.3c-0.4,0.1-3.9-0.3-6,0.4
			c-2,0.7-3.1,2.8-3.3,3.9c-0.2,1.1-0.2,3.2,0.2,3.2c0.3,0,3.2,0.1,4.2,0.1c1.1,0.1,1.7,0,1.8,0.2c0.1,0.2,1.6,2.3,1.6,2.5
			c0,0.2-0.2,0.9-0.2,0.8c-0.1-0.1-1.5-2.6-1.6-2.5c-0.1,0.1-0.4,0.5-0.2,0.7c0.2,0.2,1.7,2.6,1.7,2.6c0,0.1-0.2,0.6-0.3,0.5
			c-0.1-0.2-1.8-3.1-1.9-3s-0.4,0.4-0.2,0.6c0.2,0.2,2,2.9,2,3c0,0.2,0,1.2-0.2,1.2c-0.2-0.1-1.8-3.2-2.1-3.2
			c-0.3,0-0.4,0.6-0.2,0.7c0.2,0.1,2.2,3.1,2.2,3.2s-0.5,0.3-0.6,0.2c-0.2-0.2-1.8-3.2-1.9-3.2s-0.8,0.3-0.6,0.5
			c0.2,0.2,1.7,2.7,1.6,2.8c-0.1,0-0.4,0.2-0.6-0.2c-0.2-0.2-1.5-2.5-1.7-2.4c-0.2,0.1-0.5,0.4-0.3,0.6c0.2,0.2,1.6,1.9,1.4,2
			c-0.2,0.1-1,0-1-0.1c-0.1-0.1-0.9-1.7-1-1.7s-0.4,0.3-0.3,0.5s0.7,1.2,0.6,1.2c-0.1,0-1.8-0.1-1.9,0.2c-0.1,0.2,0.1,1.7,0,1.7
			c-0.1-0.1-0.9-1.7-1-1.7c-0.2,0-0.3,0.5-0.2,0.6c0.1,0.2,1.4,1.7,1.4,1.8c0.1,0.2,0.1,1.4-0.1,1.2c-0.1-0.2-1.3-2.3-1.4-2.2
			c-0.1,0.1-0.3,0.6-0.2,0.7c0.1,0.2,1.7,2.4,1.7,2.6s0.1,1.7,0,1.6c-0.1-0.2-1.8-3.4-1.9-3.4c-0.2,0-0.2,0.7-0.2,1
			c0.1,0.2,2.1,3.2,2.1,3.4c0,0.2,0.1,1-0.1,0.9c-0.1-0.1-2.2-3.9-2.3-3.8c-0.1,0.1-0.2,0.6-0.2,0.9c0.1,0.2,2.4,3.8,2.5,3.9
			s0,1.7-0.1,1.6c-0.1-0.1-2.5-4.2-2.6-4.2c-0.2,0-0.2,0.7-0.2,1c0.1,0.2,2.8,4,2.8,4.2c0,0.2,0.1,1.2,0,1.1c-0.1-0.1-3-4.7-3-4.7
			c-0.1,0-0.2,0.6-0.2,0.8c0.1,0.2,3.2,4.9,3.2,5c0,0.2,0,0.3-0.2,0.3c-0.2,0-0.4,0-0.6-0.2s-2.8-4.5-3-4.4s-0.2,0.7-0.2,1
			c0.1,0.2,2.8,3.7,2.7,3.7c-0.1,0.1-3.8-0.2-4-0.2c-0.5-0.3-0.7-0.3-0.7-0.3s0.2-0.2-0.2-0.6c-0.3-0.4-0.9-1-1-0.8
			c-0.2,0.2-0.2,0.4,0,0.6c0.2,0.2,0.7,0.6,0.6,0.6c-0.1,0.1-1.5,0-1.6-0.2c-0.1-0.2-0.1-5.9-0.2-7.9s-0.2-4.9-0.6-5.2
			c-0.5-0.3-3.8-0.4-3.9-0.6c-0.2-0.2-0.6-6.6-0.3-6.6c0.2-0.1,3.4,0.1,3.8-0.2c0.6-0.3,0.7-0.9,0.6-1.6c-0.1-0.7-0.6-5.8,0.4-7.7
			s2.8-3.8,5.7-5c2.9-1.1,6.4-1,8.9-0.7c2.5,0.3,2.7,0.8,2.7,1.9C-262,405.7-262,409.3-262.4,409.3 M-279,417.6
			c-0.2,0-0.2,0.6-0.2,0.8c0,0.2-1.3,0.1-1.6,0.1c-0.3,0-0.6,0.1-0.6,0.3c0,0.1,0,0.3,0.2,0.4c0.2,0.1,2.6,0.1,2.9,0.1
			c0.2,0,0.2-1.3,0.2-1.5C-278.3,417.5-278.8,417.6-279,417.6 M-275.2,405.8c-0.7,0.3-1.9,1.3-2.7,2.6c-0.7,1.2-1,2.2-1,3
			c0,0.8,0.1,1.4,0.2,1.4c0.2,0.1,0.4,0,0.6,0c0.2,0,0-2.3,1-4.2c1-1.8,2.6-2.3,2.9-2.3c0.2,0,0.2-0.4,0.2-0.7
			C-273.9,405.3-274.6,405.5-275.2,405.8 M-270.4,409.7c-0.2-0.1-0.9,0.2-1.2,0.6c-0.4,0.4-1,1.5-1.2,1.9c-0.2,0.4-0.1,1,0.2,1
			c0.2,0.1,0.4,0,0.6-0.1s0.2-0.9,0.5-1.6c0.3-0.7,1.3-1.1,1.4-1.2C-270.1,410.2-270.3,409.7-270.4,409.7 M-265.7,403.3
			c-0.3-0.1-0.6,0.6-0.3,0.7c0.2,0.1,1.4,0.2,1.8,0.3c0.3,0.1,0.6,0,0.6,0.2c0.1,0.2,0,2.2,0.2,2.3c0.2,0.1,0.7,0.3,0.7-0.2
			c0-0.6,0.1-2.7-0.2-2.9C-263.2,403.6-265.3,403.3-265.7,403.3 M-277.2,435.7c-0.2,0.1-0.3,0.2-0.1,0.6c0.2,0.4,1.5,1.9,1.8,1.9
			c0.2,0,0.5-0.2,0.3-0.5C-275.5,437.5-277,435.7-277.2,435.7 M-275.9,435.1c-0.1-0.1-0.5,0.3-0.4,0.5c0,0,1.7,2.2,1.9,2.5
			c0.2,0.3,0.5,0.4,0.6,0.2c0.2-0.2-0.1-0.5-0.2-0.8C-274,437.2-275.8,435.1-275.9,435.1"/>
	</g>
</g>
</svg>
