<?xml version="1.0" encoding="utf-8"?>
<!-- Generator: Adobe Illustrator 21.1.0, SVG Export Plug-In . SVG Version: 6.00 Build 0)  -->
<svg version="1.2" baseProfile="tiny" id="Слой_1"
	 xmlns="http://www.w3.org/2000/svg" xmlns:xlink="http://www.w3.org/1999/xlink" x="0px" y="0px" viewBox="0 0 493.9 108.1"
	 overflow="scroll" xml:space="preserve">
<path stroke="#000000" stroke-miterlimit="10" d="M490.1,51.2c-0.2-2.2-1.9-4-4.1-4.1c-8.2-0.6-14.4-0.6-18.8,0.2
	c-4.9,0.8-8.5,2.8-10.9,5.9c-0.2-0.9-0.7-1.7-1.5-2.4c-1-0.8-2.2-1.2-3.5-1l-9.9,1.4c-2.1,0.3-3.8,2.1-3.9,4.3l-0.2,4.8l-4.9,4.1
	l-0.7-10.1c-0.2-2.2-1.9-3.9-4.1-4.1L416.2,49c-1.3-0.1-2.6,0.3-3.5,1.2c-0.9,0.9-1.5,2.1-1.4,3.4l0.7,18.7c-0.4,0-0.9,0-1.3,0
	L402,49.4c-0.6-1.7-2.2-2.8-4-2.9L384.1,46c-2.1-0.1-3.9,1.3-4.5,3.3l-2.4,8.3v-5.7c0-2.1-1.4-3.9-3.4-4.4
	c-1.5-0.4-4.6-0.4-14.2-0.2c-1.8,0-3.3,0.1-3.9,0.1c-2.6,0-5.6,0.1-9,0.4c-3.2,0.2-5.5,0.4-7,0.4c-1.4,0-2.7,0.7-3.5,1.7
	c-0.8-0.6-1.7-1-2.7-1l-30.9-0.2h0c-2.4,0-4.4,1.9-4.5,4.4l-0.1,4.6l-1.4-1.4c-0.2-0.2-0.4-0.4-0.6-0.5c-3-2.2-6.5-4.1-10.4-5.5
	c-4.4-1.6-9.6-1.6-15.5,0c-6,1.7-11,5.1-14.8,10.3c-1.2,1.6-2.1,3.2-2.9,4.7l-5-12.8c-0.7-1.7-2.2-2.8-4-2.8L229.8,49
	c-1.8-0.1-3.4,0.9-4.2,2.5l-2.7,5.5c-0.2,0-0.4,0.1-0.6,0.2c-0.3,0.2-0.6,0.3-0.8,0.5c-0.3,0.1-0.6,0.2-0.9,0.3
	c-0.1-0.3-0.3-0.5-0.4-0.8l-5.7-8c-0.7-1-1.9-1.7-3.1-1.8c-1.2-0.2-2.5,0.2-3.5,1l-5.2,4.4l0-0.3c0.1-1.3-0.4-2.6-1.4-3.6
	c-1-0.9-2.3-1.4-3.6-1.2L185,48.9c-1.1,0.1-2.1,0.6-2.8,1.4c-0.9-0.5-1.8-0.7-2.8-0.5l-9.9,1.4c-2.1,0.3-3.8,2.1-3.9,4.3l-0.2,4.8
	l-4.9,4.1l-0.7-10.1c-0.2-2.2-1.9-3.9-4.1-4.1L144.2,49c-1.3-0.1-2.6,0.3-3.5,1.2c-0.8,0.7-1.2,1.7-1.3,2.8c0,0-0.1,0.1-0.1,0.1
	c-0.6-1.7-2.1-2.9-4-3L121,49.2c-1.3-0.1-2.5,0.4-3.4,1.2c0,0,0,0,0,0c-0.9-0.7-2-1.1-3.1-1l-14,0.8c-0.4-1.9-2-3.4-4-3.6
	c-12.9-1.1-13.1-1-14.5-0.1c-1.3,0.8-2.2,2.2-2.2,3.8l0,0.1c-0.4,0-0.8-0.1-1.3-0.1c-0.1-1.2-0.6-2.4-1.5-3.2
	c-0.4-0.4-0.9-0.6-1.4-0.8c1.5-0.4,2.8-1.6,3.2-3.2l2.4-9.7l0.7,0c2-0.1,3.7-1.5,4.1-3.4c0.5-1.8-0.3-3.8-1.9-4.8
	c0.2-1.8-0.7-3.6-2.4-4.5l-0.1-0.1c0,0,0,0,0-0.1c0.1-1.8-0.9-3.6-2.6-4.4L45.8,0.9C44.9,0.5,44,0.4,43,0.6L10.2,6.8
	c-1.8,0.4-3.3,1.8-3.6,3.7c-0.3,1.9,0.6,3.7,2.2,4.7l12.6,7.3l-2,7.8c0,0.2-0.1,0.4-0.1,0.5c-0.1,0.2-0.1,0.3-0.1,0.5l-0.4,0.1
	c-0.8,0.2-1.6,0.4-2.7,0.8C12.1,33.8,8,37.6,3.7,43.8c-1.1,1.6-1.1,3.8,0.1,5.3l9.7,12.5c0.8,1.1,2.1,1.7,3.4,1.7l-0.6,4.8
	c-1.2-0.2-2.4,0-3.5,0.7L2.4,76.1c-1.7,1.2-2.3,3.3-1.7,5.2c0.7,1.9,1.3,3.4,2.1,4.5c0.8,1.2,2,2.5,10.1,7.3
	c5.6,3.3,11.5,5.6,17.4,6.9c1.7,0.4,3.3,0.5,4.9,0.5c5,0,9.8-1.7,14.3-5.2c3.5-2.7,6.3-5.9,8.4-9.6l0.2,7.3c0,1.2,0.6,2.4,1.5,3.2
	c0.8,0.7,1.9,1.1,3,1.1c0.1,0,0.3,0,0.4,0l13.3-1.2c1.4-0.1,2.5-0.8,3.3-1.9c0.7,1.5,2.3,2.5,4,2.5h12.9c0.6,0,1.2-0.1,1.7-0.4
	c0.8,0.9,2,1.5,3.3,1.5c0,0,0,0,0.1,0l26.7-0.4l-0.3,5.4c-0.1,1.6,0.7,3,1.9,3.9c0.8,0.5,1.7,0.8,2.6,0.8c0.6,0,1.2-0.1,1.8-0.4
	l4.1-1.8l3.3,1.1c1.4,0.5,3,0.2,4.1-0.7c1.2-0.9,1.9-2.3,1.8-3.8l-0.3-6.4l9.5,0.8c1.3,0.1,2.6-0.4,3.5-1.3c0.9-0.9,1.4-2.2,1.4-3.5
	l-0.1-2.1l3.5-2.6v5.6c0,1.2,0.5,2.4,1.4,3.3c0.8,0.8,2,1.2,3.1,1.2c0.1,0,0.1,0,0.2,0l12.1-0.5c0.7,0,1.4-0.3,2-0.6
	c0.5,0.2,1,0.3,1.5,0.3l10.4,0.3c1.2,0,2.4-0.4,3.3-1.3c0.9-0.8,1.4-2,1.4-3.2v0l3.6,3.7c0.9,0.9,2,1.3,3.2,1.3c0.2,0,0.5,0,0.7-0.1
	c1.4-0.2,2.7-1.1,3.3-2.4l0.7-1.4l11.6,5c0.6,0.2,1.2,0.4,1.8,0.4c0.6,0,1.2-0.1,1.8-0.4c1.1-0.5,2-1.4,2.4-2.6l5.6-15.8l5.3,14.9
	c0.8,2.1,3,3.4,5.2,2.9l12.8-2.7c1.2-0.3,2.3-1.1,2.9-2.2c1.8,1.3,3.8,2.3,5.7,3c2.9,1.1,5.8,1.6,8.9,1.6c1.1,0,2.1-0.1,3.2-0.2
	c4.2-0.5,8.3-2.1,12.3-4.7c2-1.4,3.8-2.8,5.5-4.5l-0.1,1.9c-0.1,2.4,1.8,4.5,4.2,4.6l13.6,0.8c1.1,0.1,2.1-0.3,3-0.9
	c0.8,0.8,1.9,1.2,3,1.2c0.1,0,0.2,0,0.3,0l13.6-0.8c0.7,0,1.3-0.3,1.9-0.6c0.7,0.5,1.6,0.9,2.6,0.9l28.7,0.8c0,0,0.1,0,0.1,0
	c0.3,0,0.7,0,1-0.1c0.3,0.1,0.6,0.1,0.9,0.1l44.5,1.1c0,0,0.1,0,0.1,0c1.2,0,2.3-0.5,3.1-1.3l11.1,0.9c1.3,0.1,2.6-0.4,3.5-1.3
	c0.9-0.9,1.4-2.2,1.4-3.5l-0.1-2.1l3.5-2.6v5.6c0,1.2,0.5,2.4,1.4,3.3c0.8,0.8,2,1.2,3.1,1.2c0.1,0,0.1,0,0.2,0l12.1-0.5
	c1.5-0.1,2.8-0.9,3.6-2.1l3,3.5c0.9,1,2.1,1.5,3.4,1.5h0c1.3,0,2.5-0.6,3.4-1.5l4.9-5.6l0.3,2.5c0.3,2.3,2.2,4,4.5,4
	c0,0,0.1,0,0.1,0l12-0.3c1.2,0,2.4-0.6,3.2-1.5s1.2-2.1,1.2-3.4L490.1,51.2z"/>
<path fill="#FFFFFF" d="M84.2,50.9L84,69.3l-9.3,0.6L74,51l-12.1,1.2v10.1l0.8,31l13.3-1.2l-0.4-13.3l8.1,0.2v13.6h12.9l-0.4-41.1
	C88.4,50.9,84.4,50.7,84.2,50.9z"/>
<polygon fill="#FFFFFF" points="143.1,102.7 142.4,86.8 134.1,86.8 135,54.9 120.8,54.1 121.4,86.3 115.7,86.7 113.6,86.5 
	114.7,54.3 100.4,55.2 101.5,93.8 133,93.3 132.5,103.5 138.2,101 "/>
<path fill="#FFFFFF" d="M180,54.6l1.6,37.9L169.5,93V78.5l-12.6,9.4l0.2,4.5l-12-1l-1.4-37.6l11.5,1.1l1.4,18.9l13.1-11.1L170,56
	L180,54.6z"/>
<path fill="#FFFFFF" d="M451.9,54.6l1.6,37.9L441.5,93V78.5l-12.6,9.4l0.2,4.5l-12-1l-1.4-37.6l11.5,1.1l1.4,18.9l13.1-11.1L442,56
	L451.9,54.6z"/>
<path fill="#FFFFFF" d="M198.2,52.4l-0.8,11.1l13.4-11.3l5.7,8l-17.2,12.3l13.5,9.8L207.3,93l-11.4-11.6v11.1l-10.4-0.3V53.8
	L198.2,52.4z"/>
<path fill="#FFFFFF" d="M229.6,53.8l13.4,0.5l14.5,36.5l-12.8,2.7l-9.5-26.9l-9.9,27.8L212.4,89L229.6,53.8z"/>
<path fill="#FFFFFF" d="M297.2,81.1c-2.1,3-4.8,5.7-8.2,8s-6.8,3.6-10.3,4s-6.8,0-10-1.2c-3.2-1.2-6.2-3.2-9.1-6.1
	c-2.9-2.9-4.6-6.2-5-10c-0.5-3.8,0.9-7.9,4.2-12.3c3.3-4.4,7.4-7.3,12.4-8.7c5-1.4,9.3-1.4,12.8-0.1c3.5,1.3,6.6,2.9,9.2,4.9l2,2.1
	l1.7,2.6C299.2,72.4,299.3,78,297.2,81.1z M283.2,68.2c-3.6-2.2-6.5-3.1-8.8-2.6c-2.3,0.4-4.1,1.8-5.4,4.2s-1.3,4.5-0.1,6.4
	c1.2,1.9,3.4,3.1,6.5,3.6c3.1,0.5,5.6-0.3,7.6-2.4C284.9,75.2,285,72.2,283.2,68.2z"/>
<polygon fill="#FFFFFF" points="334.5,90.6 333.4,53.7 302.5,53.4 301.4,90.3 315,91.2 314.2,61.6 316.2,61.5 321.6,61.8 
	320.8,91.4 "/>
<path fill="#FFFFFF" d="M351.9,59.6l-0.2,9.4l12.6-0.1v0.2l-1,6.7L351.9,74v0.2l1.4,7.5l14.3-1.3l0.4,11.3l-28.7-0.8l-0.6-15.5
	l0.9-22.5c1.6,0,4.1-0.1,7.4-0.4c3.3-0.3,6.2-0.4,8.6-0.3s15.2-0.5,17.1,0v8.9L351.9,59.6z"/>
<path fill="#FFFFFF" d="M413.5,79.4l-5.2,0l-10.5-28.1l-13.9-0.5l-8.3,28.8l-5.9,0c0,0,0.1,4,0.2,12l44.5,1.1L413.5,79.4z
	 M389.7,64.2l4.9,15.3l-7.4,0L389.7,64.2z"/>
<path fill="#FFFFFF" d="M476.9,94.8l-1.4-12.5l-11.6,13.2l-8.5-9.6l9.6-9.6c-3.5-2.7-5.7-4.9-6.7-6.4c-1-1.6-1.4-3.5-1.3-5.8
	c0.1-2.3,1-4.7,2.6-7.1s4.5-4,8.5-4.7c4-0.7,9.9-0.7,17.7-0.1l3.2,42.6L476.9,94.8z M469,64.4c-0.1,2.3,0.6,4.1,2.2,5.4
	c1.6,1.3,2.3,2,5.3,2l0.2-10.9C471.7,60.9,469.1,62.1,469,64.4z"/>
<polygon fill="#FFFFFF" points="77.7,27 45,31.2 81.7,29.4 "/>
<polygon fill="#FFFFFF" points="75.8,23.1 45,31.2 79.7,25.2 "/>
<polygon fill="#FFFFFF" points="43.9,5.4 11.1,11.6 45,31.2 77.2,20.8 "/>
<path fill="#FFFFFF" d="M63.4,33l-19.2,1.2L25.9,23.6l-2,8c0,0.2-0.1,0.3-0.1,0.5c-0.1,0.2-0.2,0.4-0.2,0.6
	c-1,4.1,6.5,9.6,16.9,12.2c10.4,2.6,19.6,1.4,20.6-2.7c0-0.2,0.1-0.4,0.1-0.6c0.1-0.2,0.1-0.3,0.2-0.5L63.4,33z"/>
<path fill="#FFFFFF" d="M51.9,49.3c-0.2-0.3-7.2,0.9-14.2-1.3C28,44.9,21.8,40,20.6,35.9c-1.1,0.3-1.7,0.3-2.7,0.8
	c-3.2,1.3-6.7,4.7-10.5,10.1l9.7,12.5c7.2-5.4,14.7-3.7,17.7-1.4c2,1.6,3.2,4.3,3.8,6.8L21.9,60l-1.1,9.7l17.5,2.4
	c0.4,6.2-11.1,13.7-22.8,0.8L5,80.2c0.5,1.5,1.1,2.7,1.6,3.5c0.5,0.8,3.4,2.8,8.6,5.9c5.2,3.1,10.6,5.2,16.1,6.4
	c5.5,1.2,10.7-0.1,15.5-3.8c4.8-3.7,8.1-8.4,9.7-14s1.9-10.7,0.8-15.3C56.3,58.2,54.5,53.7,51.9,49.3z"/>
<polygon fill="#FFFFFF" points="71.4,32.4 76.9,32.3 74.4,42.5 72.7,38.9 69.1,45.1 "/>
<path fill="#FFFFFF" d="M84.2,50.9L84,69.3l-9.3,0.6L74,51l-12.1,1.2v10.1l0.8,31l13.3-1.2l-0.4-13.3l8.1,0.2v13.6h12.9l-0.4-41.1
	C88.4,50.9,84.4,50.7,84.2,50.9z"/>
<polygon fill="#FFFFFF" points="143.1,102.7 142.4,86.8 134.1,86.8 135,54.9 120.8,54.1 121.4,86.3 115.7,86.7 113.6,86.5 
	114.7,54.3 100.4,55.2 101.5,93.8 133,93.3 132.5,103.5 138.2,101 "/>
<path fill="#FFFFFF" d="M180,54.6l1.6,37.9L169.5,93V78.5l-12.6,9.4l0.2,4.5l-12-1l-1.4-37.6l11.5,1.1l1.4,18.9l13.1-11.1L170,56
	L180,54.6z"/>
<path fill="#FFFFFF" d="M451.9,54.6l1.6,37.9L441.5,93V78.5l-12.6,9.4l0.2,4.5l-12-1l-1.4-37.6l11.5,1.1l1.4,18.9l13.1-11.1L442,56
	L451.9,54.6z"/>
<path fill="#FFFFFF" d="M198.2,52.4l-0.8,11.1l13.4-11.3l5.7,8l-17.2,12.3l13.5,9.8L207.3,93l-11.4-11.6v11.1l-10.4-0.3V53.8
	L198.2,52.4z"/>
<path fill="#FFFFFF" d="M229.6,53.8l13.4,0.5l14.5,36.5l-12.8,2.7l-9.5-26.9l-9.9,27.8L212.4,89L229.6,53.8z"/>
<path fill="#FFFFFF" d="M297.2,81.1c-2.1,3-4.8,5.7-8.2,8s-6.8,3.6-10.3,4s-6.8,0-10-1.2c-3.2-1.2-6.2-3.2-9.1-6.1
	c-2.9-2.9-4.6-6.2-5-10c-0.5-3.8,0.9-7.9,4.2-12.3c3.3-4.4,7.4-7.3,12.4-8.7c5-1.4,9.3-1.4,12.8-0.1c3.5,1.3,6.6,2.9,9.2,4.9l2,2.1
	l1.7,2.6C299.2,72.4,299.3,78,297.2,81.1z M283.2,68.2c-3.6-2.2-6.5-3.1-8.8-2.6c-2.3,0.4-4.1,1.8-5.4,4.2s-1.3,4.5-0.1,6.4
	c1.2,1.9,3.4,3.1,6.5,3.6c3.1,0.5,5.6-0.3,7.6-2.4C284.9,75.2,285,72.2,283.2,68.2z"/>
<polygon fill="#FFFFFF" points="334.5,90.6 333.4,53.7 302.5,53.4 301.4,90.3 315,91.2 314.2,61.6 316.2,61.5 321.6,61.8 
	320.8,91.4 "/>
<path fill="#FFFFFF" d="M351.9,59.6l-0.2,9.4l12.6-0.1v0.2l-1,6.7L351.9,74v0.2l1.4,7.5l14.3-1.3l0.4,11.3l-28.7-0.8l-0.6-15.5
	l0.9-22.5c1.6,0,4.1-0.1,7.4-0.4c3.3-0.3,6.2-0.4,8.6-0.3s15.2-0.5,17.1,0v8.9L351.9,59.6z"/>
<path fill="#FFFFFF" d="M413.5,79.4l-5.2,0l-10.5-28.1l-13.9-0.5l-8.3,28.8l-5.9,0c0,0,0.1,4,0.2,12l44.5,1.1L413.5,79.4z
	 M389.7,64.2l4.9,15.3l-7.4,0L389.7,64.2z"/>
<path fill="#FFFFFF" d="M476.9,94.8l-1.4-12.5l-11.6,13.2l-8.5-9.6l9.6-9.6c-3.5-2.7-5.7-4.9-6.7-6.4c-1-1.6-1.4-3.5-1.3-5.8
	c0.1-2.3,1-4.7,2.6-7.1s4.5-4,8.5-4.7c4-0.7,9.9-0.7,17.7-0.1l3.2,42.6L476.9,94.8z M469,64.4c-0.1,2.3,0.6,4.1,2.2,5.4
	c1.6,1.3,2.3,2,5.3,2l0.2-10.9C471.7,60.9,469.1,62.1,469,64.4z"/>
<polygon fill="#FFFFFF" points="77.7,27 45,31.2 81.7,29.4 "/>
<polygon fill="#FFFFFF" points="75.8,23.1 45,31.2 79.7,25.2 "/>
<polygon fill="#FFFFFF" points="43.9,5.4 11.1,11.6 45,31.2 77.2,20.8 "/>
<path fill="#FFFFFF" d="M63.4,33l-19.2,1.2L25.9,23.6l-2,8c0,0.2-0.1,0.3-0.1,0.5c-0.1,0.2-0.2,0.4-0.2,0.6
	c-1,4.1,6.5,9.6,16.9,12.2c10.4,2.6,19.6,1.4,20.6-2.7c0-0.2,0.1-0.4,0.1-0.6c0.1-0.2,0.1-0.3,0.2-0.5L63.4,33z"/>
<path fill="#FFFFFF" d="M51.9,49.3c-0.2-0.3-7.2,0.9-14.2-1.3C28,44.9,21.8,40,20.6,35.9c-1.1,0.3-1.7,0.3-2.7,0.8
	c-3.2,1.3-6.7,4.7-10.5,10.1l9.7,12.5c7.2-5.4,14.7-3.7,17.7-1.4c2,1.6,3.2,4.3,3.8,6.8L21.9,60l-1.1,9.7l17.5,2.4
	c0.4,6.2-11.1,13.7-22.8,0.8L5,80.2c0.5,1.5,1.1,2.7,1.6,3.5c0.5,0.8,3.4,2.8,8.6,5.9c5.2,3.1,10.6,5.2,16.1,6.4
	c5.5,1.2,10.7-0.1,15.5-3.8c4.8-3.7,8.1-8.4,9.7-14s1.9-10.7,0.8-15.3C56.3,58.2,54.5,53.7,51.9,49.3z"/>
<polygon fill="#FFFFFF" points="71.4,32.4 76.9,32.3 74.4,42.5 72.7,38.9 69.1,45.1 "/>
</svg>
