<?xml version="1.0" encoding="utf-8"?>
<!-- Generator: Adobe Illustrator 19.0.0, SVG Export Plug-In . SVG Version: 6.00 Build 0)  -->
<svg version="1.2" baseProfile="tiny" id="Layer_1" xmlns="http://www.w3.org/2000/svg" xmlns:xlink="http://www.w3.org/1999/xlink"
	 x="0px" y="0px" viewBox="0 0 40.1 67.7" xml:space="preserve">
<g>
	<g>
		<path fill="#FFFFFF" stroke="#FFFFFF" stroke-miterlimit="10" d="M19.5,23.6c4.1,0.4,7.6-3.5,6.8-7.7c-0.5-2.8-1.6-3.7-4.2-3.7
			c-3.3,0-6.1,2.3-6.8,5.5C14.5,21.1,16.1,23.3,19.5,23.6z"/>
		<path fill="#FFFFFF" stroke="#FFFFFF" stroke-miterlimit="10" d="M33.6,35c-0.9,0.1-1.8,0.5-2.6,0.9c-4.9,2.7-10.1,3.8-15.6,2.4
			c-2.4-0.6-4.7-1.7-7-2.8c-2.4-1.1-4.9-0.6-6,1.5c-1.3,2.4-0.5,4.7,2.1,6c2.8,1.4,5.6,2.7,8.5,4c0.5,0.3,1.1,0.5,1.7,0.8
			c-1,0.6-2,1-2.7,1.7c-2.5,2.4-4.9,4.8-7.3,7.3c-0.7,0.7-1.1,1.7-1.4,2.6c-0.6,2.2,1.1,4.4,3.1,4.6C6.7,63,4.6,62.3,6,60.9
			c0.6,1,1.1,1.9,1.7,2.7c0.2,0.3,0.6,0.4,1,0.6c0.1-0.1,0.1-0.2,0.2-0.3c-0.6-0.9-1.2-1.9-1.8-2.8C6.9,60.8,7,60.3,7,59.9
			c0.3,0.2,0.8,0.3,1,0.5c0.7,1,1.3,2,2,3.1c0.4-0.4,0.7-0.7,1-1c-0.7-1.1-1.3-2.1-1.8-3.1c-0.2-0.4-0.1-0.9-0.2-1.4
			c0.4,0.3,0.8,0.5,1.1,0.8c0.6,0.9,1.1,1.9,1.8,2.9c0.4-0.4,0.6-0.7,0.9-1c-0.8-1.1-1.4-2.1-2.2-3.1c-0.5-0.7-0.4-1,0.4-1.3
			c0.8,1.2,1.7,2.4,2.6,3.6c0.3-0.4,0.6-0.6,0.8-0.9c-0.8-1.2-1.7-2.4-2.5-3.7c0.3-0.2,0.5-0.4,0.8-0.6c0.9,1.2,1.7,2.3,2.5,3.5
			c1.1-1-0.1-1.5-0.3-2c-0.4-0.7-0.9-1.4-1.4-2.1c0.3-0.2,0.5-0.4,0.8-0.7c0.8,1.1,1.6,2.2,2.4,3.3c0.3-0.3,0.5-0.6,0.8-0.9
			c-0.6-0.9-1.1-1.8-1.6-2.6c-0.4-0.7-0.4-1.1,0.5-1.3c0.6,1,1.2,2,1.9,3.1c1.1-1.2,1.1-1.2,0.3-2.4c-0.3-0.4-0.6-0.7-0.7-1.1
			c-0.1-0.4,0-0.8,0-1.2c0.1,0,0.3,0,0.4,0c6.6,8,11.4,12.8,13,13.1c-0.5-0.8-1-1.5-1.5-2.3c0.7-0.5,1.1-0.3,1.5,0.3
			c0.4,0.6,0.9,1.2,1.2,1.8c0.5,0.9,1.1,1,1.9,0.4c-0.9-1.1-1.7-2.2-2.5-3.2c0.6-0.6,1-0.5,1.5,0.1c0.6,0.9,1.4,1.7,2.1,2.7
			c0.4-0.5,0.7-0.9,1-1.2c-0.7-0.9-1.4-1.8-2.2-2.7c0.3-0.2,0.7-0.5,0.8-0.4c0.6,0.5,1.1,1.1,1.8,1.8c0.3-1.8-0.3-3.1-1.4-4.2
			c-2-2-4-3.9-5.9-6c-1.7-1.9-3.3-3.9-5-5.9c0.8-0.7,1.3-0.7,1.7,0c0.3,0.5,0.6,1,0.9,1.4c0.2,0.2,0.6,0.2,0.9,0.4
			c0-0.1,0.1-0.2,0.1-0.3c-0.5-0.8-0.9-1.6-1.4-2.3c0.7-0.6,1.1-0.5,1.4,0.2c0.2,0.5,0.5,0.9,0.8,1.3c0.2,0.2,0.5,0.2,0.8,0.3
			l0.1-0.3c-0.5-0.7-0.9-1.5-1.5-2.3c1.9-0.6,1.6,1.5,2.7,1.8c0.3-0.1,0.7-0.3,1.2-0.6c-0.5-0.8-1-1.4-1.5-2.1
			c1.8-0.8,1.7,1.3,2.7,1.6c0.3-0.2,0.8-0.4,1.3-0.7c-0.5-0.7-0.9-1.3-1.4-2c1.7-0.8,1.5,1.2,2.6,1.4c0.3-0.2,0.6-0.4,0.9-0.7
			c-0.4-0.7-0.7-1.2-1-1.9c0.3-0.2,0.6-0.3,0.9-0.4c0.3,0.4,0.6,0.8,1,1.3c0.7-1.6,0.6-3-0.3-4.3C36.5,35.6,35.2,34.8,33.6,35z
			 M6.8,37c-1.2,0.4-2.2,1.2-2.9,2.4c0,0.1-0.2,0.1-0.5,0.4c-0.1-0.5-0.3-0.9-0.2-1.2c0.6-1.3,1.7-2.1,3.1-2.4
			c0.2,0,0.5,0.1,0.7,0.3C7.1,36.5,6.9,37,6.8,37z"/>
		<path fill="#FFFFFF" stroke="#FFFFFF" stroke-miterlimit="10" d="M20.9,32.8c-0.6-0.7-1.1-1.4-1.7-2.1c0.1-0.1,0.1-0.3,0.2-0.4
			c0.4,0.2,0.9,0.2,1.2,0.5c0.5,0.5,0.9,1.1,1.4,1.6c0.2,0.2,0.6,0.3,0.9,0.4c0-0.1,0.1-0.2,0.1-0.3c-0.6-0.9-1.3-1.8-1.9-2.7
			c0.6-0.6,1-0.5,1.4,0.1c0.4,0.6,0.9,1.1,1.3,1.7c0.5,0.7,1,0.8,1.8,0.2c-0.9-1.1-1.7-2.1-2.5-3.1c0.1-0.1,0.2-0.3,0.3-0.4
			c0.4,0.1,0.8,0.2,1.1,0.4c0.8,0.9,1.6,1.8,2.3,2.7c0.6-0.3,1-0.6,1.5-0.8c-1.1-1.1-2-2.2-3-3.2c0.5-0.8,0.9-0.7,1.4-0.2
			c0.8,0.9,1.7,1.8,2.6,2.8c0.5-0.4,0.8-0.7,1.3-1.1c-1.2-1.1-2.3-2.2-3.4-3.3c0.3-0.3,0.6-0.5,1-0.9c1.1,1.2,2,2.3,3.1,3.5
			c0.5-0.5,0.8-0.9,1.3-1.5c-1.3-1.1-2.4-2.1-3.6-3.1c0.4-0.5,0.6-0.7,0.9-1.1c1.2,1.1,2.3,2.1,3.4,3.2c0.8-0.6,0.8-1.3-0.1-2
			c-0.7-0.6-1.2-1.3-1.8-1.9c-0.5-0.5-0.6-1,0.1-1.4c1,1.1,2,2.1,3,3.1c0.1-0.1,0.2-0.1,0.4-0.2c-0.1-0.3-0.2-0.7-0.4-1
			c-0.6-0.8-1.4-1.6-2-2.4c-0.2-0.3-0.2-0.9-0.2-1.3c0.1,0,0.3-0.1,0.4-0.1c0.9,1,1.7,2,2.6,3c0.1-0.1,0.3-0.1,0.4-0.2
			c-0.2-0.5-0.2-1.1-0.5-1.5c-0.5-0.7-1-1.4-1.6-2.1c-0.5-0.6-0.3-1,0.2-1.5c0.7,0.9,1.4,1.7,2.1,2.6c0.7-1.5-0.5-2.1-1.1-2.9
			c-0.7-0.9-0.7-0.9,0-2c0.3,0.5,0.7,0.9,1.1,1.5c0-5.8-5.1-11.9-11.2-13.9c-6.5-2-13.6,0.4-17.6,6c-4,5.7-3.9,13.5,0.1,18.9
			C10.6,31.4,17.2,33.7,20.9,32.8z M10.8,29.1c-0.6-0.8-1.3-1.6-1.9-2.4c-0.1-0.2,0.1-0.6,0.2-1c0.2,0.2,0.5,0.4,0.7,0.6
			c0.4,0.8,0.8,1.7,1.2,2.6L10.8,29.1z M20.1,9.6c4.2,0,7.4,3.3,7.4,7.5c0,4.1-3.4,7.6-7.4,7.6c-4,0-7.6-3.6-7.5-7.6
			C12.6,12.9,15.9,9.6,20.1,9.6z M7.3,10.2c0.8-2.4,2.2-4.3,4.4-5.7c0.2-0.2,0.6-0.1,1-0.1c0.1,0.2,0.3,0.5,0.4,0.7
			c-0.3,0.1-0.7,0.2-0.9,0.3c-1.9,1.2-3.1,3-3.9,5c-0.1,0.3-0.5,0.5-0.8,0.7C7.4,10.9,7.2,10.5,7.3,10.2z"/>
		<path fill="#FFFFFF" stroke="#FFFFFF" stroke-miterlimit="10" d="M6.3,36.1c-1.4,0.3-2.4,1.2-3.1,2.4c-0.1,0.2,0.1,0.7,0.2,1.2
			c0.4-0.2,0.5-0.3,0.5-0.4c0.6-1.2,1.6-1.9,2.9-2.4c0.1,0,0.2-0.5,0.2-0.6C6.8,36.3,6.5,36.1,6.3,36.1z"/>
		<path fill="#FFFFFF" stroke="#FFFFFF" stroke-miterlimit="10" d="M9.1,25.7c-0.1,0.3-0.3,0.8-0.2,1c0.6,0.8,1.2,1.6,1.9,2.4
			l0.1-0.2c-0.4-0.9-0.8-1.7-1.2-2.6C9.6,26.1,9.3,25.9,9.1,25.7z"/>
	</g>
	<g>
		<path d="M0,38.7c0.2-0.3,0.4-0.5,0.6-0.8c1.3-3.6,4.5-4.8,8-3c2.5,1.4,5.2,2.4,8.1,2.9c4.7,0.7,9.1-0.2,13.1-2.6
			c2.8-1.6,5.2-1.3,7.7,0.3c0.3,0.2,0.5,0.5,0.6,0.7c0.7,1.6,1.4,3.3,2.1,4.9v1.7c-0.5,1.8-1.6,3.1-3.3,3.8c-0.7,0.3-1.4,0.7-2.2,1
			c-1.7,0.8-3.4,1.6-4.8,2.2c1.8,2,3.6,4,5.5,6c1.4,1.4,3,2.7,3.6,4.7c0.7,2.2,0.3,4.1-1.3,5.7c-1.7,1.6-3.7,1.7-5.8,0.7
			c-1.1-0.6-2.1-1.3-3-2.1c-1.9-1.8-3.6-3.7-5.4-5.6c-0.7-0.7-1.4-1.5-1.9-2.1c-3,3.1-5.9,6-8.7,8.9c-1.2,1.2-2.7,2.1-4.5,1.8
			C5,67.2,3.1,64.9,2,62c-1-2.5,0.1-4.6,1.9-6.4c2.4-2.3,4.7-4.7,7.1-7.1c-2.5-1.3-4.9-2.7-7.4-3.8C1.9,44,0.5,43,0,41.1V38.7z
			 M17.1,50.6c0.1,0,0.3,0,0.4,0c6.6,8,11.4,12.8,13,13.1c-0.5-0.8-1-1.5-1.5-2.3c0.7-0.5,1.1-0.3,1.5,0.3c0.4,0.6,0.9,1.2,1.2,1.8
			c0.5,0.9,1.1,1,1.9,0.4c-0.9-1.1-1.7-2.2-2.5-3.2c0.6-0.6,1-0.5,1.5,0.1c0.6,0.9,1.4,1.7,2.1,2.7c0.4-0.5,0.7-0.9,1-1.2
			c-0.7-0.9-1.4-1.8-2.2-2.7c0.3-0.2,0.7-0.5,0.8-0.4c0.6,0.5,1.1,1.1,1.8,1.8c0.3-1.8-0.3-3.1-1.4-4.2c-2-2-4-3.9-5.9-6
			c-1.7-1.9-3.3-3.9-5-5.9c0.8-0.7,1.3-0.7,1.7,0c0.3,0.5,0.6,1,0.9,1.4c0.2,0.2,0.6,0.2,0.9,0.4c0-0.1,0.1-0.2,0.1-0.3
			c-0.5-0.8-0.9-1.6-1.4-2.3c0.7-0.6,1.1-0.5,1.4,0.2c0.2,0.5,0.5,0.9,0.8,1.3c0.2,0.2,0.5,0.2,0.8,0.3l0.1-0.3
			c-0.5-0.7-0.9-1.5-1.5-2.3c1.9-0.6,1.6,1.5,2.7,1.8c0.3-0.2,0.7-0.3,1.2-0.6c-0.5-0.8-1-1.4-1.5-2.1c1.8-0.8,1.7,1.3,2.7,1.6
			c0.3-0.2,0.8-0.4,1.3-0.7c-0.5-0.7-0.9-1.3-1.4-2c1.7-0.8,1.5,1.2,2.6,1.4c0.3-0.2,0.6-0.4,0.9-0.7c-0.4-0.7-0.7-1.2-1-1.9
			c0.3-0.2,0.6-0.3,0.9-0.4c0.3,0.4,0.6,0.8,1,1.3c0.7-1.6,0.6-3-0.3-4.3c-0.9-1.3-2.2-2.1-3.8-1.8c-0.9,0.1-1.8,0.5-2.6,0.9
			c-4.9,2.7-10.1,3.8-15.6,2.4c-2.4-0.6-4.7-1.7-7-2.8c-2.4-1.1-4.9-0.6-6,1.5c-1.3,2.4-0.5,4.7,2.1,6c2.8,1.4,5.6,2.7,8.5,4
			c0.5,0.3,1.1,0.5,1.7,0.8c-1,0.6-2,1-2.7,1.7C9,52,6.5,54.4,4.2,56.9c-0.7,0.7-1.1,1.7-1.4,2.6c-0.6,2.2,1.1,4.4,3.1,4.6
			C6.1,63,4,62.4,5.4,60.9c0.6,1,1.1,1.9,1.7,2.7c0.2,0.3,0.6,0.4,1,0.6c0.1-0.1,0.1-0.2,0.2-0.3c-0.6-0.9-1.2-1.9-1.8-2.8
			c-0.2-0.3-0.1-0.8-0.1-1.1c0.3,0.2,0.8,0.3,1,0.5c0.7,1,1.3,2,2,3.1c0.4-0.4,0.7-0.7,1-1c-0.7-1.1-1.3-2.1-1.8-3.1
			c-0.2-0.4-0.1-0.9-0.2-1.4c0.4,0.3,0.8,0.5,1.1,0.8c0.6,0.9,1.1,1.9,1.8,2.9c0.4-0.4,0.6-0.7,0.9-1c-0.8-1.1-1.4-2.1-2.2-3.1
			c-0.5-0.7-0.4-1,0.4-1.3c0.8,1.2,1.7,2.4,2.6,3.6c0.3-0.4,0.6-0.6,0.8-0.9c-0.8-1.2-1.7-2.4-2.5-3.7c0.3-0.2,0.5-0.4,0.8-0.6
			c0.9,1.2,1.7,2.3,2.5,3.5c1.1-1-0.1-1.5-0.3-2c-0.4-0.7-0.9-1.4-1.4-2.1c0.3-0.2,0.5-0.4,0.8-0.7c0.8,1.1,1.6,2.2,2.4,3.3
			c0.3-0.3,0.5-0.6,0.8-0.9c-0.6-0.9-1.1-1.8-1.6-2.6c-0.4-0.7-0.4-1.1,0.5-1.3c0.6,1,1.2,2,1.9,3.1c1.1-1.2,1.1-1.2,0.3-2.4
			c-0.3-0.4-0.6-0.7-0.7-1.1C17,51.4,17.1,51,17.1,50.6"/>
		<path d="M21.5,35.7c-3.7,0-7-1-9.9-3.3c-1.9-1.5-4-3-5.5-4.9C0.2,20.2,1.7,9.2,9.3,3.4c7.5-5.7,18.2-4.2,23.8,3.5
			c2,2.7,3.9,5.3,4.6,8.7C40,26.1,32.3,35.7,21.5,35.7 M25.2,32c-0.9-1.1-1.7-2.1-2.5-3.1c0.1-0.1,0.2-0.3,0.3-0.4
			c0.4,0.1,0.8,0.2,1.1,0.4c0.8,0.9,1.6,1.8,2.3,2.7c0.6-0.3,1-0.6,1.5-0.8c-1.1-1.1-2-2.2-3-3.2c0.5-0.8,0.9-0.7,1.4-0.1
			c0.8,0.9,1.7,1.8,2.6,2.8c0.5-0.4,0.8-0.7,1.3-1.1c-1.2-1.1-2.3-2.2-3.4-3.3c0.3-0.3,0.6-0.5,1-0.9c1.1,1.2,2,2.3,3.1,3.5
			c0.5-0.5,0.8-0.9,1.3-1.5c-1.3-1.1-2.4-2.1-3.6-3.1c0.4-0.5,0.6-0.7,0.9-1.1c1.2,1.1,2.3,2.1,3.4,3.2c0.8-0.6,0.8-1.3-0.1-2
			c-0.7-0.6-1.2-1.3-1.8-1.9c-0.5-0.5-0.6-1,0.1-1.4c1,1.1,2,2.1,3,3.1c0.1-0.1,0.2-0.1,0.4-0.2c-0.1-0.3-0.2-0.7-0.4-1
			c-0.6-0.8-1.4-1.6-2-2.4c-0.2-0.3-0.2-0.9-0.2-1.3c0.1,0,0.3-0.1,0.4-0.1c0.9,1,1.7,2,2.6,3c0.1-0.1,0.3-0.1,0.4-0.2
			C35,21,34.9,20.4,34.6,20c-0.5-0.7-1-1.4-1.6-2.1c-0.5-0.6-0.3-1,0.2-1.5c0.7,0.9,1.4,1.7,2.1,2.6c0.7-1.5-0.5-2.1-1.1-2.9
			c-0.7-0.9-0.7-0.9,0-2c0.3,0.5,0.7,0.9,1.1,1.5c0-5.8-5.1-11.9-11.2-13.9c-6.5-2-13.6,0.4-17.6,6c-4,5.7-3.9,13.5,0.1,18.9
			c3.4,4.7,10,7,13.7,6.1c-0.6-0.7-1.1-1.4-1.7-2.1c0.1-0.1,0.1-0.3,0.2-0.4c0.4,0.2,0.9,0.2,1.2,0.5c0.5,0.5,0.9,1.1,1.4,1.6
			c0.2,0.2,0.6,0.3,0.9,0.4c0-0.1,0.1-0.2,0.1-0.3c-0.6-0.9-1.3-1.8-1.9-2.7c0.6-0.6,1-0.5,1.4,0.1c0.4,0.6,0.9,1.1,1.3,1.7
			C23.8,32.5,24.4,32.5,25.2,32"/>
		<path d="M2.8,39.8c-0.1-0.5-0.3-0.9-0.2-1.2c0.6-1.3,1.7-2.1,3.1-2.4c0.2,0,0.5,0.1,0.7,0.3c0.1,0.1,0,0.5-0.2,0.6
			C5,37.5,4,38.2,3.4,39.4C3.3,39.5,3.2,39.5,2.8,39.8"/>
		<path d="M26.9,17.2c0,4.1-3.4,7.6-7.4,7.6c-4,0-7.6-3.6-7.5-7.6c0-4.2,3.4-7.5,7.6-7.5C23.8,9.7,26.9,12.9,26.9,17.2 M21.5,12.3
			c-3.3,0-6.1,2.3-6.8,5.5c-0.8,3.4,0.8,5.6,4.3,5.9c4.1,0.4,7.6-3.5,6.8-7.7C25.3,13.2,24.2,12.3,21.5,12.3"/>
		<path d="M12.5,5.2c-0.3,0.1-0.7,0.2-0.9,0.3c-1.9,1.2-3.1,3-3.9,5c-0.1,0.3-0.5,0.5-0.8,0.7c-0.1-0.4-0.3-0.8-0.2-1
			C7.5,7.8,9,5.9,11.1,4.6c0.2-0.2,0.6-0.1,1-0.1C12.2,4.7,12.4,5,12.5,5.2"/>
		<path d="M10.2,29.1c-0.6-0.8-1.3-1.6-1.9-2.4c-0.1-0.2,0.1-0.6,0.2-1c0.2,0.2,0.5,0.4,0.7,0.6c0.4,0.8,0.8,1.7,1.2,2.6L10.2,29.1z
			"/>
	</g>
</g>
</svg>
