<?xml version="1.0" encoding="utf-8"?>
<!-- Generator: Adobe Illustrator 19.0.0, SVG Export Plug-In . SVG Version: 6.00 Build 0)  -->
<svg version="1.2" baseProfile="tiny" id="Layer_1" xmlns="http://www.w3.org/2000/svg" xmlns:xlink="http://www.w3.org/1999/xlink"
	 x="0px" y="0px" viewBox="-277 387.2 40.1 67.7" xml:space="preserve">
<g>
	<g>
		<path fill="#F58220" d="M-257.5,410.8c4.1,0.4,7.6-3.5,6.8-7.7c-0.5-2.8-1.6-3.7-4.2-3.7c-3.3,0-6.1,2.3-6.8,5.5
			C-262.5,408.3-260.9,410.5-257.5,410.8z"/>
		<path fill="#F58220" d="M-243.4,422.2c-0.9,0.1-1.8,0.5-2.6,0.9c-4.9,2.7-10.1,3.8-15.6,2.4c-2.4-0.6-4.7-1.7-7-2.8
			c-2.4-1.1-4.9-0.6-6,1.5c-1.3,2.4-0.5,4.7,2.1,6c2.8,1.4,5.6,2.7,8.5,4c0.5,0.3,1.1,0.5,1.7,0.8c-1,0.6-2,1-2.7,1.7
			c-2.5,2.4-4.9,4.8-7.3,7.3c-0.7,0.7-1.1,1.7-1.4,2.6c-0.6,2.2,1.1,4.4,3.1,4.6c0.3-1-1.8-1.7-0.4-3.1c0.6,1,1.1,1.9,1.7,2.7
			c0.2,0.3,0.6,0.4,1,0.6c0.1-0.1,0.1-0.2,0.2-0.3c-0.6-0.9-1.2-1.9-1.8-2.8c-0.2-0.3-0.1-0.8-0.1-1.2c0.3,0.2,0.8,0.3,1,0.5
			c0.7,1,1.3,2,2,3.1c0.4-0.4,0.7-0.7,1-1c-0.7-1.1-1.3-2.1-1.8-3.1c-0.2-0.4-0.1-0.9-0.2-1.4c0.4,0.3,0.8,0.5,1.1,0.8
			c0.6,0.9,1.1,1.9,1.8,2.9c0.4-0.4,0.6-0.7,0.9-1c-0.8-1.1-1.4-2.1-2.2-3.1c-0.5-0.7-0.4-1,0.4-1.3c0.8,1.2,1.7,2.4,2.6,3.6
			c0.3-0.4,0.6-0.6,0.8-0.9c-0.8-1.2-1.7-2.4-2.5-3.7c0.3-0.2,0.5-0.4,0.8-0.6c0.9,1.2,1.7,2.3,2.5,3.5c1.1-1-0.1-1.5-0.3-2
			c-0.4-0.7-0.9-1.4-1.4-2.1c0.3-0.2,0.5-0.4,0.8-0.7c0.8,1.1,1.6,2.2,2.4,3.3c0.3-0.3,0.5-0.6,0.8-0.9c-0.6-0.9-1.1-1.8-1.6-2.6
			c-0.4-0.7-0.4-1.1,0.5-1.3c0.6,1,1.2,2,1.9,3.1c1.1-1.2,1.1-1.2,0.3-2.4c-0.3-0.4-0.6-0.7-0.7-1.1c-0.1-0.4,0-0.8,0-1.2
			c0.1,0,0.3,0,0.4,0c6.6,8,11.4,12.8,13,13.1c-0.5-0.8-1-1.5-1.5-2.3c0.7-0.5,1.1-0.3,1.5,0.3c0.4,0.6,0.9,1.2,1.2,1.8
			c0.5,0.9,1.1,1,1.9,0.4c-0.9-1.1-1.7-2.2-2.5-3.2c0.6-0.6,1-0.5,1.5,0.1c0.6,0.9,1.4,1.7,2.1,2.7c0.4-0.5,0.7-0.9,1-1.2
			c-0.7-0.9-1.4-1.8-2.2-2.7c0.3-0.2,0.7-0.5,0.8-0.4c0.6,0.5,1.1,1.1,1.8,1.8c0.3-1.8-0.3-3.1-1.4-4.2c-2-2-4-3.9-5.9-6
			c-1.7-1.9-3.3-3.9-5-5.9c0.8-0.7,1.3-0.7,1.7,0c0.3,0.5,0.6,1,0.9,1.4c0.2,0.2,0.6,0.2,0.9,0.4c0-0.1,0.1-0.2,0.1-0.3
			c-0.5-0.8-0.9-1.6-1.4-2.3c0.7-0.6,1.1-0.5,1.4,0.2c0.2,0.5,0.5,0.9,0.8,1.3c0.2,0.2,0.5,0.2,0.8,0.3l0.1-0.3
			c-0.5-0.7-0.9-1.5-1.5-2.3c1.9-0.6,1.6,1.5,2.7,1.8c0.3-0.1,0.7-0.3,1.2-0.6c-0.5-0.8-1-1.4-1.5-2.1c1.8-0.8,1.7,1.3,2.7,1.6
			c0.3-0.2,0.8-0.4,1.3-0.7c-0.5-0.7-0.9-1.3-1.4-2c1.7-0.8,1.5,1.2,2.6,1.4c0.3-0.2,0.6-0.4,0.9-0.7c-0.4-0.7-0.7-1.2-1-1.9
			c0.3-0.2,0.6-0.3,0.9-0.4c0.3,0.4,0.6,0.8,1,1.3c0.7-1.6,0.6-3-0.3-4.3C-240.5,422.8-241.8,422-243.4,422.2z M-270.2,424.2
			c-1.2,0.4-2.2,1.2-2.9,2.4c0,0.1-0.2,0.1-0.5,0.4c-0.1-0.5-0.3-0.9-0.2-1.2c0.6-1.3,1.7-2.1,3.1-2.4c0.2,0,0.5,0.1,0.7,0.3
			C-269.9,423.7-270.1,424.2-270.2,424.2z"/>
		<path fill="#F58220" d="M-256.1,420c-0.6-0.7-1.1-1.4-1.7-2.1c0.1-0.1,0.1-0.3,0.2-0.4c0.4,0.2,0.9,0.2,1.2,0.5
			c0.5,0.5,0.9,1.1,1.4,1.6c0.2,0.2,0.6,0.3,0.9,0.4c0-0.1,0.1-0.2,0.1-0.3c-0.6-0.9-1.3-1.8-1.9-2.7c0.6-0.6,1-0.5,1.4,0.1
			s0.9,1.1,1.3,1.7c0.5,0.7,1,0.8,1.8,0.2c-0.9-1.1-1.7-2.1-2.5-3.1c0.1-0.1,0.2-0.3,0.3-0.4c0.4,0.1,0.8,0.2,1.1,0.4
			c0.8,0.9,1.6,1.8,2.3,2.7c0.6-0.3,1-0.6,1.5-0.8c-1.1-1.1-2-2.2-3-3.2c0.5-0.8,0.9-0.7,1.4-0.2c0.8,0.9,1.7,1.8,2.6,2.8
			c0.5-0.4,0.8-0.7,1.3-1.1c-1.2-1.1-2.3-2.2-3.4-3.3c0.3-0.3,0.6-0.5,1-0.9c1.1,1.2,2,2.3,3.1,3.5c0.5-0.5,0.8-0.9,1.3-1.5
			c-1.3-1.1-2.4-2.1-3.6-3.1c0.4-0.5,0.6-0.7,0.9-1.1c1.2,1.1,2.3,2.1,3.4,3.2c0.8-0.6,0.8-1.3-0.1-2c-0.7-0.6-1.2-1.3-1.8-1.9
			c-0.5-0.5-0.6-1,0.1-1.4c1,1.1,2,2.1,3,3.1c0.1-0.1,0.2-0.1,0.4-0.2c-0.1-0.3-0.2-0.7-0.4-1c-0.6-0.8-1.4-1.6-2-2.4
			c-0.2-0.3-0.2-0.9-0.2-1.3c0.1,0,0.3-0.1,0.4-0.1c0.9,1,1.7,2,2.6,3c0.1-0.1,0.3-0.1,0.4-0.2c-0.2-0.5-0.2-1.1-0.5-1.5
			c-0.5-0.7-1-1.4-1.6-2.1c-0.5-0.6-0.3-1,0.2-1.5c0.7,0.9,1.4,1.7,2.1,2.6c0.7-1.5-0.5-2.1-1.1-2.9c-0.7-0.9-0.7-0.9,0-2
			c0.3,0.5,0.7,0.9,1.1,1.5c0-5.8-5.1-11.9-11.2-13.9c-6.5-2-13.6,0.4-17.6,6c-4,5.7-3.9,13.5,0.1,18.9
			C-266.4,418.6-259.8,420.9-256.1,420z M-266.2,416.3c-0.6-0.8-1.3-1.6-1.9-2.4c-0.1-0.2,0.1-0.6,0.2-1c0.2,0.2,0.5,0.4,0.7,0.6
			c0.4,0.8,0.8,1.7,1.2,2.6L-266.2,416.3z M-256.9,396.8c4.2,0,7.4,3.3,7.4,7.5c0,4.1-3.4,7.6-7.4,7.6s-7.6-3.6-7.5-7.6
			C-264.4,400.1-261.1,396.8-256.9,396.8z M-269.7,397.4c0.8-2.4,2.2-4.3,4.4-5.7c0.2-0.2,0.6-0.1,1-0.1c0.1,0.2,0.3,0.5,0.4,0.7
			c-0.3,0.1-0.7,0.2-0.9,0.3c-1.9,1.2-3.1,3-3.9,5c-0.1,0.3-0.5,0.5-0.8,0.7C-269.6,398.1-269.8,397.7-269.7,397.4z"/>
		<path fill="#F58220" d="M-270.7,423.3c-1.4,0.3-2.4,1.2-3.1,2.4c-0.1,0.2,0.1,0.7,0.2,1.2c0.4-0.2,0.5-0.3,0.5-0.4
			c0.6-1.2,1.6-1.9,2.9-2.4c0.1,0,0.2-0.5,0.2-0.6C-270.2,423.5-270.5,423.3-270.7,423.3z"/>
		<path fill="#F58220" d="M-267.9,412.9c-0.1,0.3-0.3,0.8-0.2,1c0.6,0.8,1.2,1.6,1.9,2.4l0.1-0.2c-0.4-0.9-0.8-1.7-1.2-2.6
			C-267.4,413.3-267.7,413.1-267.9,412.9z"/>
	</g>
	<g>
		<path d="M-277,425.9c0.2-0.3,0.4-0.5,0.6-0.8c1.3-3.6,4.5-4.8,8-3c2.5,1.4,5.2,2.4,8.1,2.9c4.7,0.7,9.1-0.2,13.1-2.6
			c2.8-1.6,5.2-1.3,7.7,0.3c0.3,0.2,0.5,0.5,0.6,0.7c0.7,1.6,1.4,3.3,2.1,4.9v1.7c-0.5,1.8-1.6,3.1-3.3,3.8c-0.7,0.3-1.4,0.7-2.2,1
			c-1.7,0.8-3.4,1.6-4.8,2.2c1.8,2,3.6,4,5.5,6c1.4,1.4,3,2.7,3.6,4.7c0.7,2.2,0.3,4.1-1.3,5.7c-1.7,1.6-3.7,1.7-5.8,0.7
			c-1.1-0.6-2.1-1.3-3-2.1c-1.9-1.8-3.6-3.7-5.4-5.6c-0.7-0.7-1.4-1.5-1.9-2.1c-3,3.1-5.9,6-8.7,8.9c-1.2,1.2-2.7,2.1-4.5,1.8
			c-3.4-0.6-5.3-2.9-6.4-5.8c-1-2.5,0.1-4.6,1.9-6.4c2.4-2.3,4.7-4.7,7.1-7.1c-2.5-1.3-4.9-2.7-7.4-3.8c-1.7-0.7-3.1-1.7-3.6-3.6
			V425.9z M-259.9,437.8c0.1,0,0.3,0,0.4,0c6.6,8,11.4,12.8,13,13.1c-0.5-0.8-1-1.5-1.5-2.3c0.7-0.5,1.1-0.3,1.5,0.3
			s0.9,1.2,1.2,1.8c0.5,0.9,1.1,1,1.9,0.4c-0.9-1.1-1.7-2.2-2.5-3.2c0.6-0.6,1-0.5,1.5,0.1c0.6,0.9,1.4,1.7,2.1,2.7
			c0.4-0.5,0.7-0.9,1-1.2c-0.7-0.9-1.4-1.8-2.2-2.7c0.3-0.2,0.7-0.5,0.8-0.4c0.6,0.5,1.1,1.1,1.8,1.8c0.3-1.8-0.3-3.1-1.4-4.2
			c-2-2-4-3.9-5.9-6c-1.7-1.9-3.3-3.9-5-5.9c0.8-0.7,1.3-0.7,1.7,0c0.3,0.5,0.6,1,0.9,1.4c0.2,0.2,0.6,0.2,0.9,0.4
			c0-0.1,0.1-0.2,0.1-0.3c-0.5-0.8-0.9-1.6-1.4-2.3c0.7-0.6,1.1-0.5,1.4,0.2c0.2,0.5,0.5,0.9,0.8,1.3c0.2,0.2,0.5,0.2,0.8,0.3
			l0.1-0.3c-0.5-0.7-0.9-1.5-1.5-2.3c1.9-0.6,1.6,1.5,2.7,1.8c0.3-0.2,0.7-0.3,1.2-0.6c-0.5-0.8-1-1.4-1.5-2.1
			c1.8-0.8,1.7,1.3,2.7,1.6c0.3-0.2,0.8-0.4,1.3-0.7c-0.5-0.7-0.9-1.3-1.4-2c1.7-0.8,1.5,1.2,2.6,1.4c0.3-0.2,0.6-0.4,0.9-0.7
			c-0.4-0.7-0.7-1.2-1-1.9c0.3-0.2,0.6-0.3,0.9-0.4c0.3,0.4,0.6,0.8,1,1.3c0.7-1.6,0.6-3-0.3-4.3c-0.9-1.3-2.2-2.1-3.8-1.8
			c-0.9,0.1-1.8,0.5-2.6,0.9c-4.9,2.7-10.1,3.8-15.6,2.4c-2.4-0.6-4.7-1.7-7-2.8c-2.4-1.1-4.9-0.6-6,1.5c-1.3,2.4-0.5,4.7,2.1,6
			c2.8,1.4,5.6,2.7,8.5,4c0.5,0.3,1.1,0.5,1.7,0.8c-1,0.6-2,1-2.7,1.7c-2.3,2.6-4.8,5-7.1,7.5c-0.7,0.7-1.1,1.7-1.4,2.6
			c-0.6,2.2,1.1,4.4,3.1,4.6c0.2-1.1-1.9-1.7-0.5-3.2c0.6,1,1.1,1.9,1.7,2.7c0.2,0.3,0.6,0.4,1,0.6c0.1-0.1,0.1-0.2,0.2-0.3
			c-0.6-0.9-1.2-1.9-1.8-2.8c-0.2-0.3-0.1-0.8-0.1-1.1c0.3,0.2,0.8,0.3,1,0.5c0.7,1,1.3,2,2,3.1c0.4-0.4,0.7-0.7,1-1
			c-0.7-1.1-1.3-2.1-1.8-3.1c-0.2-0.4-0.1-0.9-0.2-1.4c0.4,0.3,0.8,0.5,1.1,0.8c0.6,0.9,1.1,1.9,1.8,2.9c0.4-0.4,0.6-0.7,0.9-1
			c-0.8-1.1-1.4-2.1-2.2-3.1c-0.5-0.7-0.4-1,0.4-1.3c0.8,1.2,1.7,2.4,2.6,3.6c0.3-0.4,0.6-0.6,0.8-0.9c-0.8-1.2-1.7-2.4-2.5-3.7
			c0.3-0.2,0.5-0.4,0.8-0.6c0.9,1.2,1.7,2.3,2.5,3.5c1.1-1-0.1-1.5-0.3-2c-0.4-0.7-0.9-1.4-1.4-2.1c0.3-0.2,0.5-0.4,0.8-0.7
			c0.8,1.1,1.6,2.2,2.4,3.3c0.3-0.3,0.5-0.6,0.8-0.9c-0.6-0.9-1.1-1.8-1.6-2.6c-0.4-0.7-0.4-1.1,0.5-1.3c0.6,1,1.2,2,1.9,3.1
			c1.1-1.2,1.1-1.2,0.3-2.4c-0.3-0.4-0.6-0.7-0.7-1.1C-260,438.6-259.9,438.2-259.9,437.8"/>
		<path d="M-255.5,422.9c-3.7,0-7-1-9.9-3.3c-1.9-1.5-4-3-5.5-4.9c-5.9-7.3-4.4-18.3,3.2-24.1c7.5-5.7,18.2-4.2,23.8,3.5
			c2,2.7,3.9,5.3,4.6,8.7C-237,413.3-244.7,422.9-255.5,422.9 M-251.8,419.2c-0.9-1.1-1.7-2.1-2.5-3.1c0.1-0.1,0.2-0.3,0.3-0.4
			c0.4,0.1,0.8,0.2,1.1,0.4c0.8,0.9,1.6,1.8,2.3,2.7c0.6-0.3,1-0.6,1.5-0.8c-1.1-1.1-2-2.2-3-3.2c0.5-0.8,0.9-0.7,1.4-0.1
			c0.8,0.9,1.7,1.8,2.6,2.8c0.5-0.4,0.8-0.7,1.3-1.1c-1.2-1.1-2.3-2.2-3.4-3.3c0.3-0.3,0.6-0.5,1-0.9c1.1,1.2,2,2.3,3.1,3.5
			c0.5-0.5,0.8-0.9,1.3-1.5c-1.3-1.1-2.4-2.1-3.6-3.1c0.4-0.5,0.6-0.7,0.9-1.1c1.2,1.1,2.3,2.1,3.4,3.2c0.8-0.6,0.8-1.3-0.1-2
			c-0.7-0.6-1.2-1.3-1.8-1.9c-0.5-0.5-0.6-1,0.1-1.4c1,1.1,2,2.1,3,3.1c0.1-0.1,0.2-0.1,0.4-0.2c-0.1-0.3-0.2-0.7-0.4-1
			c-0.6-0.8-1.4-1.6-2-2.4c-0.2-0.3-0.2-0.9-0.2-1.3c0.1,0,0.3-0.1,0.4-0.1c0.9,1,1.7,2,2.6,3c0.1-0.1,0.3-0.1,0.4-0.2
			c-0.3-0.6-0.4-1.2-0.7-1.6c-0.5-0.7-1-1.4-1.6-2.1c-0.5-0.6-0.3-1,0.2-1.5c0.7,0.9,1.4,1.7,2.1,2.6c0.7-1.5-0.5-2.1-1.1-2.9
			c-0.7-0.9-0.7-0.9,0-2c0.3,0.5,0.7,0.9,1.1,1.5c0-5.8-5.1-11.9-11.2-13.9c-6.5-2-13.6,0.4-17.6,6c-4,5.7-3.9,13.5,0.1,18.9
			c3.4,4.7,10,7,13.7,6.1c-0.6-0.7-1.1-1.4-1.7-2.1c0.1-0.1,0.1-0.3,0.2-0.4c0.4,0.2,0.9,0.2,1.2,0.5c0.5,0.5,0.9,1.1,1.4,1.6
			c0.2,0.2,0.6,0.3,0.9,0.4c0-0.1,0.1-0.2,0.1-0.3c-0.6-0.9-1.3-1.8-1.9-2.7c0.6-0.6,1-0.5,1.4,0.1c0.4,0.6,0.9,1.1,1.3,1.7
			C-253.2,419.7-252.6,419.7-251.8,419.2"/>
		<path d="M-274.2,427c-0.1-0.5-0.3-0.9-0.2-1.2c0.6-1.3,1.7-2.1,3.1-2.4c0.2,0,0.5,0.1,0.7,0.3c0.1,0.1,0,0.5-0.2,0.6
			c-1.2,0.4-2.2,1.1-2.8,2.3C-273.7,426.7-273.8,426.7-274.2,427"/>
		<path d="M-250.1,404.4c0,4.1-3.4,7.6-7.4,7.6s-7.6-3.6-7.5-7.6c0-4.2,3.4-7.5,7.6-7.5C-253.2,396.9-250.1,400.1-250.1,404.4
			 M-255.5,399.5c-3.3,0-6.1,2.3-6.8,5.5c-0.8,3.4,0.8,5.6,4.3,5.9c4.1,0.4,7.6-3.5,6.8-7.7C-251.7,400.4-252.8,399.5-255.5,399.5"
			/>
		<path d="M-264.5,392.4c-0.3,0.1-0.7,0.2-0.9,0.3c-1.9,1.2-3.1,3-3.9,5c-0.1,0.3-0.5,0.5-0.8,0.7c-0.1-0.4-0.3-0.8-0.2-1
			c0.8-2.4,2.3-4.3,4.4-5.6c0.2-0.2,0.6-0.1,1-0.1C-264.8,391.9-264.6,392.2-264.5,392.4"/>
		<path d="M-266.8,416.3c-0.6-0.8-1.3-1.6-1.9-2.4c-0.1-0.2,0.1-0.6,0.2-1c0.2,0.2,0.5,0.4,0.7,0.6c0.4,0.8,0.8,1.7,1.2,2.6
			L-266.8,416.3z"/>
	</g>
</g>
</svg>
