<?xml version="1.0" encoding="utf-8"?>
<!-- Generator: Adobe Illustrator 19.0.0, SVG Export Plug-In . SVG Version: 6.00 Build 0)  -->
<svg version="1.2" baseProfile="tiny" id="Layer_1" xmlns="http://www.w3.org/2000/svg" xmlns:xlink="http://www.w3.org/1999/xlink"
	 x="0px" y="0px" viewBox="0 0 598.5 308.3" xml:space="preserve" preserveAspectRatio="none">
<g>
	<g>
		<path d="M332.8,0h50.3c1.2,0.1,2.4,0.3,3.6,0.3c12.7,0.1,25.4,0.1,38.1,0.4c21,0.4,42,1,63,1.6c13.1,0.4,26.2,0.9,39.3,1.4
			c7.6,0.3,15.1,1.2,22.4,2.5c7.9,1.5,15.4,3.7,22.3,7.1c6.5,3.2,11.4,7.5,14.8,13c3.2,5.2,5,10.7,6,16.4c1,5.7,1.9,11.3,2.7,17
			c0.6,4.6,1.3,9.3,1.5,14c0.3,8.9,0.3,17.9,0.4,26.8c0.1,5.5,0.1,11,0.3,16.6c0.2,7.4,1,14.8,0.9,22.2c0,0.4,0.2,0.7,0.2,1.1v99.5
			c-0.1,0.5-0.2,1-0.3,1.5c-0.1,2.2,0,4.5-0.2,6.7c-0.6,5.4-1.2,10.7-2,16.1c-0.6,4.4-2,8.6-4.3,12.7c-0.4,0.7-0.6,1.4-0.9,2.1
			c-0.7,2.2-1.3,4.5-2.1,6.7c-2.3,6.6-7.6,10.9-15.5,13.3c-4.9,1.5-10,2.2-15.2,2.5c-10.3,0.6-20.6,0.7-30.9,0.8
			c-7.1,0-14.2,0-21.3-0.1c-13-0.2-26.1-0.5-39.1-0.7c-18.2-0.3-36.3-0.7-54.5-0.9c-7.5-0.1-15,0.3-22.5,0.4
			c-16.9,0.3-33.9,1.2-50.8,2.1c-13.2,0.7-26.5,1.5-39.7,2.1c-15.1,0.7-30.1,1.3-45.2,1.7c-20.6,0.5-41.2,0.8-61.8,1.1
			c-9.7,0.1-19.3,0.1-29,0.1c-7.3,0-14.6,0-21.8,0c-1.1,0-2.1,0-3,0.6h-0.3c-1.2-0.3-2.4-0.8-3.5-0.7c-2.7,0.2-5.4,0-8.2-0.1
			c-2-0.1-4.1,0-6.1,0c-13.6-0.3-27.1-0.5-40.7-0.9c-8.1-0.2-16.2-0.6-24.1-1.9c-7.8-1.2-15.2-3.3-21.9-6.8
			c-6.1-3.2-10.8-7.3-13.4-12.8c-0.4-0.8-1.1-1.6-1.8-2.2c-2.3-2.1-4-4.5-5.2-7.1c-1.8-3.9-3.2-7.9-4.1-12
			c-1.6-6.8-3.1-13.6-4.5-20.5c-0.6-2.7-1.2-5.5-1.4-8.2c-0.4-5.9-0.5-11.8-0.7-17.7c-0.3-12.5-0.5-25.1-0.7-37.6
			c-0.2-12.8-0.4-25.6-0.6-38.3c-0.1-4.9-0.3-9.7-0.6-14.6c-0.1-1.3-0.4-2.7-0.6-4v-17.1c0.1-0.7,0.3-1.5,0.3-2.2
			c0.3-10.2,0.7-20.4,0.9-30.6C1.4,65.6,1.4,58.3,2.2,51c0.3-3.1,0.8-6.1,1.4-9.2C5,34,10.2,28.2,18.3,23.8c6.9-3.7,14.4-5.8,22.5-7
			c4.2-0.6,8.4-1,12.6-1.4c0.4-0.1,1.2-0.1,1.3-0.3c0.7-1.2,2-1.2,3.2-1.4c10.4-2,20.8-3.5,31.4-4.5c9-0.8,17.9-1.6,26.9-2.2
			c7.8-0.5,15.6-0.9,23.4-1.2c10.8-0.5,21.6-1.1,32.4-1.6c7.9-0.4,15.8-0.7,23.7-1C208.9,2.8,222,2.4,235.1,2
			c8.6-0.3,17.1-0.5,25.7-0.6c12.9-0.3,25.9-0.5,38.8-0.7c10.4-0.2,20.7-0.2,31.1-0.3C331.4,0.3,332.1,0.1,332.8,0 M65.2,14.8
			c0,0.1,0,0.2,0,0.4c0.6,0,1.2,0,1.9,0c2.7,0,5.5-0.1,8.2,0c0.8,0,1.6,0.1,2.4,0.3c0.3,0.1,0.7,0.5,0.7,0.7c0,0.2-0.4,0.6-0.7,0.7
			c-0.6,0.2-1.3,0.3-2,0.3c-2.7,0-5.5,0.1-8.2,0c-8.3-0.1-16.5,0.3-24.7,1.6c-7.3,1.2-14.2,3.3-20.4,6.8c-6.9,3.9-11.4,9.1-13,15.8
			C8.3,45.9,8,50.4,7.7,55C7.4,62,7.2,69,6.9,76c-0.4,8.2-0.8,16.4-1.3,24.6c-0.5,8,0,15.9,0.8,23.9c0.5,4.9,1,9.8,1.2,14.7
			c0.3,8.3,0.4,16.7,0.6,25C8.4,178.4,8.7,192.7,9,207c0.2,10,0.5,20,0.8,30.1c0.1,2.2,0.3,4.4,0.7,6.6c1.6,8.4,3.7,16.7,6.2,24.9
			c0.9,2.9,1.8,5.7,3.2,8.5c2.6,5.2,7.3,8.7,14.4,9.8c2.2,0.3,4.5,0.5,6.8,0.7c7.2,0.5,14.4,1.1,21.6,1.5c9.8,0.6,19.6,1.1,29.5,1.6
			c8.8,0.4,17.6,0.7,26.4,1c13.5,0.4,27,0.9,40.5,1c18.6,0.1,37.3,0,55.9-0.1c20.3-0.2,40.7-0.5,61-0.8c19.9-0.3,39.7-0.7,59.6-1.1
			c19.3-0.4,38.7-0.8,58-1.1c17.1-0.3,34.1-0.6,51.2-0.8c15.1-0.2,30.3-0.4,45.4-0.7c19.5-0.3,39-0.7,58.5-1.1
			c6.9-0.1,13.9-0.3,20.7-1.3c3.2-0.5,6.2-1.2,9-2.5c3.9-1.9,6.8-4.5,7.8-8.2c0.7-2.4,1.4-4.7,2.3-7.1c2.1-5.3,2.9-10.7,3-16.2
			c0.2-9.2,0.5-18.4,0.6-27.7c0.2-11,0.2-21.9,0.3-32.9c0-5.5,0.1-11.1,0.1-16.6c0-13-0.1-25.9-0.2-38.9c-0.1-6.7-0.7-13.4-1.4-20.1
			c-0.4-3.5-1-7-1-10.5c0-10.3,0.2-20.5,0.2-30.8c0-3.2,0-6.4-0.3-9.5c-0.6-5.1-1.4-10.1-2.2-15.2c-0.8-4.5-1.6-9-2.7-13.4
			c-1.5-6.1-4.8-11.5-10.3-16c-4.4-3.6-9.7-6.2-15.5-8.2c-8.5-2.9-17.5-4.5-26.7-5.2C522.6,5.5,512.8,5,503,4.6
			c-9.9-0.4-19.8-0.6-29.7-0.8c-12.6-0.3-25.2-0.5-37.7-0.7c-22.1-0.3-44.1-0.6-66.2-0.8c-14-0.1-28,0.1-41.9,0.2
			c-15,0.1-30.1,0.3-45.1,0.6c-19.5,0.4-39,0.9-58.5,1.4c-14.7,0.4-29.3,1-44,1.7c-13.8,0.6-27.6,1.3-41.3,2
			c-10.9,0.6-21.7,1.3-32.6,1.9c-11,0.6-22,1.8-32.9,3.4C70.4,13.9,67.8,14.4,65.2,14.8 M527.8,299c1.2-2.9,3.4-5.3,5.5-8.1
			c-2.2,0-4,0-5.9,0c-1.2,0-2.1,0.4-2.7,1.2c-1.4,2.1-2.8,4.3-4.2,6.4c-0.2,0.3-0.3,0.7-0.4,1.1c0.3,0.1,0.4,0.1,0.6,0.1
			c4.9,0,9.8,0,14.7,0c0.8,0,1.1-0.3,1.4-0.8c1.4-2.5,2.9-4.9,4.4-7.3c0.1-0.2,0.2-0.4,0.3-0.8c-0.9,0-1.8,0.1-2.5,0
			c-1.9-0.2-3.1,0.4-4,1.7c-1.4,2-2.8,3.9-4.1,5.8C529.9,299.8,529.7,299.9,527.8,299 M222.1,296.4c-0.9,2.5-0.8,6.8,0.2,8.6
			c3.5,0.2,13.4-0.1,14.8-0.5c-0.3-2.7-0.7-5.4-1.1-8.2c-2.2,0-4.1-0.1-6.2,0c0.4,2.5,0.8,4.8,1.1,7.1c-1.9,0.6-2.3,0.4-2.7-1
			c-0.1-0.5-0.2-0.9-0.3-1.4c-0.3-1.5-0.5-3-0.8-4.6H222.1z M154.9,304.4c-1.8,0.8-2.3,0.7-2.9-0.7c-0.3-0.6-0.5-1.2-0.7-1.9
			c-0.7-1.8-1.4-3.6-2.1-5.3h-3.5c-0.1,3.2,0.6,6.1,2,8.9c2.4,0.3,10.5,0.2,11.8-0.1c-0.7-2.9-1.3-5.9-2-8.8H152
			C153,299.3,153.9,301.8,154.9,304.4 M93.9,294.9c1.4,3.4,2.8,6.7,4.2,10.1c2.1-0.1,4.1,0.5,6.1-0.2c-1.4-3.1-2.8-6.2-4.1-9.3
			c-0.2-0.5-0.6-0.7-1.2-0.7C97.4,294.9,95.9,294.9,93.9,294.9 M552.4,299.2c0.4,0,0.6,0.1,0.9,0.1c2.3-0.1,4.5-0.3,6.8-0.4
			c0.8,0,1.2-0.5,1.6-1c2.1-2.5,4.2-5.1,6.3-7.6c0.2-0.3,0.4-0.5,0.6-1c-0.8,0-1.3,0.1-1.9,0.1c-1.6,0.1-2.7,0.6-3.4,1.8
			c-0.8,1.3-1.7,2.5-2.7,3.8c-0.6,0.8-1.2,1.6-0.5,2.5c-1.9,1-2.4,1.1-4,0.2c1.7-2.4,3.3-4.9,5-7.4c-2.1-0.3-3.4,0.2-4.4,1.6
			c-1.4,2.1-2.7,4.3-4.1,6.5C552.5,298.7,552.5,298.9,552.4,299.2 M211.6,296.5c0.3,2.9,0.7,5.7,1,8.5h6.5v-8.5H211.6z M191.6,305.4
			c-0.4-3-0.8-5.9-1.2-8.8h-6.6c0.5,3,0.9,5.9,1.4,8.8H191.6z M208.9,296.6h-6.6c0.2,2.9,0.4,5.7,1,8.5h6.6
			C209.5,302.3,209.2,299.5,208.9,296.6 M142.6,296.3h-6.7c1,3.1,2,6.1,3,9.1h5.7C143.9,302.4,143.2,299.4,142.6,296.3 M112.5,305.1
			c-1.2-3.4-2.3-6.6-3.4-9.7h-6.3c1.5,3.3,2.9,6.5,4.3,9.7H112.5z M199.5,296.6c-2.1-0.1-4.1-0.2-6.2,0c-0.1,3.1,0.3,5.9,1.2,8.7
			h5.9C200.2,302.4,199.9,299.6,199.5,296.6 M326.4,301.1c0.1-0.6,0.2-1,0.2-1.5c0.1-1.3,0.2-2.5,0.4-3.8c0.1-0.6,0.7-1,1.4-1
			c0.7,0,1.2,0.4,1.2,1.1c0,0.3-0.1,0.7-0.1,1c-0.1,1.3-0.2,2.6-0.3,4c1.9-0.1,3.6-0.2,5.4-0.4c0.1-2,0.2-4,0.3-6h-11.2
			c-0.2,2.2-0.3,4.3-0.5,6.6C324.3,301.2,325.3,301.1,326.4,301.1 M91.1,294.6c-2-0.1-3.9-0.2-6-0.3c1.9,3.7,3.7,7.1,5.4,10.5h4.9
			C93.9,301.3,92.5,298,91.1,294.6 M254.1,296c-0.6,2.5-0.1,6.8,1,8.3c1.7-0.1,3.5,0.1,5.2-0.3c0.3-2.6,0.2-7-0.2-8H254.1z
			 M369.3,293.9c-0.4,1.7-0.8,3.4-1.2,5.1c0.8,0,1.4,0,1.9,0c2.8-0.1,5.7-0.2,8.5-0.3c2.2-0.1,2.2-0.1,2.9-1.8c0.4-1,0.9-2,0.7-3.1
			h-4.9c-0.3,1.2-0.5,2.4-0.8,3.5c-0.3,1.2-0.7,1.4-2.2,1c-0.2-0.1-0.4-0.2-0.6-0.3c0.2-1.4,0.4-2.7,0.6-4.1H369.3z M60.9,292.9
			c0.2,0.4,0.4,0.6,0.5,0.8c2.5,3,5,6.1,7.6,9.1c1.2,1.4,2.3,1.6,4.7,1.1c-2.1-3.3-4.2-6.7-6.2-10c-0.3-0.5-0.8-0.6-1.4-0.7
			C64.4,293.1,62.8,293,60.9,292.9 M516,291.2c-1.6,2.8-3.4,5.5-4.2,8.6h5c1.7-2,5.1-7.6,5.2-8.6H516z M182.5,305.4
			c-0.5-3-0.9-5.9-1.4-8.7h-5.7c-0.3,3.1,0.6,5.9,1.5,8.7H182.5z M125.8,295.9h-5.7c1.1,3.2,2.1,6.3,3.2,9.4h5
			C127.4,302.2,126.6,299.1,125.8,295.9 M111.9,295.7c1.1,3.2,2.2,6.4,3.3,9.5h5.3c-1.1-3.3-2.2-6.4-3.2-9.5H111.9z M77.7,294.1
			c1.6,3.5,3.2,7,4.8,10.4h5c-0.3-0.6-0.4-1-0.7-1.4c-1.1-2.1-2.2-4.2-3.3-6.3c-1.5-2.9-1.5-2.9-5.4-2.8
			C78.1,294,78.1,294,77.7,294.1 M285.1,303.2v-7.7h-6v8C281.2,303.5,283.1,303.3,285.1,303.2 M288.5,303.1c2.2-0.2,4.2,0.1,6.1-0.4
			c0.2-2.5,0.3-4.8,0.5-7.3h-6.6C288,298,288,300.4,288.5,303.1 M162.2,305.5c1.8,0.1,3.4,0.1,5,0c-0.5-3.1-0.9-6-1.4-9
			c-2-0.1-3.7-0.2-5.7,0.1C160.8,299.7,161.5,302.6,162.2,305.5 M303.7,295.2h-5.4c-1.1,2.4-1.3,4.9-0.6,7.5c2-0.1,3.9-0.2,6-0.4
			V295.2z M136.1,305.4c-1-3.2-2-6.3-3-9.4h-2.3h-2c0,2.7,1.5,7.8,2.7,9.4H136.1z M508.7,299.8c1.2-1.7,3.9-7.3,4-8.4
			c-1.3,0-2.6,0-3.8,0c-0.9,0-1.4,0.2-1.7,0.8c-0.9,2-1.9,4-2.8,6c-0.2,0.4-0.2,1-0.3,1.5H508.7z M312.5,301.9
			c0.2-2.3,0.3-4.5,0.5-6.7h-6.3c-0.5,2.4-0.4,4.7,0.1,7.1C308.7,302.1,310.5,302,312.5,301.9 M271.1,295.7
			c-0.3,2.8-0.4,5.4,0.6,8.2c1.8-0.1,3.4-0.2,4.9-0.3c-0.2-2.8-0.3-5.4-0.5-7.9H271.1z M268.6,303.9c-0.2-2.8-0.3-5.4-0.5-8h-5
			c-0.1,2.7-0.3,5.4,0.3,8H268.6z M429.3,297.5c0.3-1.6,0.6-3.1,1-4.8c-1.3,0.1-2.3,0.1-3.3,0.2c-0.4,1.8-0.7,3.5-1.1,5.3H436
			c0.6-1.8,1.1-3.5,1.3-5.4h-4.2c-0.1,0.4-0.3,0.8-0.3,1.2c-0.2,1-0.4,1.9-0.7,2.9c-0.3,1-0.6,1.1-1.9,0.9
			C430,297.7,429.7,297.6,429.3,297.5 M79.6,304.1c-1.5-3.3-2.9-6.4-4.5-9.5c-0.2-0.3-0.6-0.7-1.1-0.8c-1.2-0.3-2.4-0.4-3.8-0.2
			c0.2,0.4,0.3,0.8,0.5,1c1.8,2.8,3.5,5.7,5.3,8.5C76.9,304.5,77.2,304.6,79.6,304.1 M239,296.3c-0.1,2.9,0,5.6,1,8.3h4.1v-8.3H239z
			 M480.4,299.2c1.2-2.4,2.4-4.8,3.5-7.4c-1.6,0-3,0-4.3,0c-0.6,0-1,0.2-1.2,0.7c-1,2-2,4-2.9,6c-0.1,0.2,0,0.4,0,0.7H480.4z
			 M475.7,292.1h-5.8c-1.2,2.2-1.8,4.4-1.9,6.9h4.5C473.5,296.7,474.6,294.5,475.7,292.1 M247,304.6c1.7-0.1,3.1-0.2,4.7-0.3
			c-0.2-2.8-0.4-5.5-0.7-8.2h-4C246.7,299,246.7,301.7,247,304.6 M168.6,296.7c0.1,1,0.2,1.8,0.3,2.7c0.2,1.4,0.3,2.9,0.6,4.3
			c0.4,1.7,1.1,2.1,3.2,2.1c0.6,0,1.1,0,1.5-0.1c-0.6-3.1-1.3-6-1.9-9H168.6z M320.5,301.5c0.2-2.3,0.3-4.4,0.5-6.6h-5.3
			c-0.1,2.3-0.3,4.4-0.4,6.8C317.1,301.6,318.7,301.6,320.5,301.5 M399.4,298.1h7.5c0.3-1.6,0.6-3.1,1-4.8c-2.2,0-4.1,0-6.1,0
			c-0.6,0-0.9,0.4-1.1,0.8C400.3,295.3,399.9,296.6,399.4,298.1 M447.9,292.4c-0.7,2-1.5,4-2.2,6.1h5.4c0.7-2,1.5-4,2.1-6.1H447.9z
			 M483.5,299.3c1.3,0.1,2.4,0.1,3.6,0.2c1.4-2.6,2.8-5.1,4.3-7.8c-1.2,0-2.1,0-3.1,0c-0.9,0-1.4,0.3-1.8,0.9
			C485.2,294.6,484.1,296.8,483.5,299.3 M56.6,302.1c-0.3-0.4-0.5-0.7-0.7-0.9c-2.7-2.7-5.3-5.4-8-8.2c-1.1-1.1-2.6-1.5-4.5-1.3
			c0.2,0.3,0.3,0.6,0.5,0.8c2.8,2.8,5.5,5.5,8.4,8.3C53.3,301.7,54.7,302.1,56.6,302.1 M504.5,291.5c-0.9,0-1.5,0-2,0
			c-1.1-0.1-1.7,0.2-2.2,1c-1.3,1.9-2.4,3.9-3,6.1c-0.1,0.3-0.1,0.6-0.1,1h3.8C502.1,296.9,503.2,294.3,504.5,291.5 M64.7,303.2
			c-0.1-0.3-0.2-0.5-0.4-0.7c-2.5-3.5-5.8-6.5-8.9-9.7c-0.2-0.2-0.5-0.3-0.7-0.3c-0.8-0.1-1.6-0.1-2.8-0.2c0.7,0.7,1.1,1.3,1.6,1.8
			c2.6,2.7,5.4,5.4,7.9,8.2C62.3,303.3,63.3,303.4,64.7,303.2 M539.5,299.8c1.2-0.1,2.2-0.1,3.2-0.2c0.4,0,0.8-0.3,1-0.6
			c1.4-2.7,2.8-5.3,4.2-8c-1.8-0.5-3.1-0.2-4,1.2c-1.3,1.9-2.5,3.9-3.6,5.9C539.9,298.6,539.7,299.1,539.5,299.8 M345.1,300.2
			c1.7-0.1,3.2-0.2,4.8-0.3c0.5-1.8,1.1-3.6,1.4-5.5h-5.5C345,296.2,344.6,298,345.1,300.2 M415.8,298.1c0.4-1.6,0.8-3.2,1.2-4.9
			h-6.4c-0.3,1.6-0.6,3.2-0.9,4.9H415.8z M555.1,290.6c-1.2,0-2.1,0-3.1,0c-0.7,0-1.1,0.2-1.4,0.7c-1.5,2.2-3,4.4-3.8,6.9
			c-0.1,0.4-0.2,0.9-0.3,1.3c2.6,0.2,2.5,0.2,3.5-1.5c1.1-1.9,2.4-3.7,3.6-5.6C554.1,291.8,554.5,291.3,555.1,290.6 M366.5,294.1h-6
			c-0.2,1.8-0.4,3.5-0.6,5.2h5.4C365.7,297.5,366.1,295.9,366.5,294.1 M337.3,294.5v6c1.6-0.1,3.1-0.1,4.6-0.2c0.3-2,0.5-4,0.8-6
			C340.7,294.4,339,294.4,337.3,294.5 M460.3,298.8c1.9,0.2,3.3,0.3,4.8-0.1c0.6-2.2,1.1-4.2,1.7-6.4h-4.5
			C461.6,294.4,461,296.5,460.3,298.8 M494,299.5c1.2-2.6,2.4-5.2,3.6-7.7c-2.6-0.4-2.7-0.4-4,1.1c-1.3,1.6-2.4,3.3-3,5.2
			c-0.1,0.4-0.2,0.9-0.4,1.4H494z M398.1,293.4c-1.7,0-3.1-0.1-4.5,0c-0.4,0-1.1,0.3-1.2,0.6c-0.6,1.3-1,2.6-1.5,4.1h5.8
			C397.2,296.6,397.6,295.1,398.1,293.4 M438.7,298.3h4.3c0.7-1.9,1.3-3.8,2-5.7h-4.8C439.7,294.5,439.2,296.3,438.7,298.3
			 M457.6,298.6c0.6-2.1,1.2-4.1,1.9-6.3h-3.4c-0.9,2-1.8,4-2.1,6.3H457.6z M423.1,298.1c0.4-1.7,0.7-3.3,1.1-5h-4.5
			c-0.2,0.9-0.4,1.7-0.6,2.5c-0.2,0.8-0.3,1.6-0.5,2.5H423.1z M352.9,299.5h4.2c0.2-1.8,0.4-3.5,0.6-5.3h-3.4
			C353.5,296,352.9,297.7,352.9,299.5 M388.2,298.4c0.5-1.6,1-3.1,1.5-4.8h-4.5c-0.5,1.6-0.9,3.2-1.4,4.8H388.2z M573.8,288.6
			c-0.1-0.1-0.3-0.2-0.4-0.3c-0.5,0.3-1.1,0.5-1.4,0.9c-2.3,2.6-4.6,5.3-6.8,8c-0.2,0.2-0.3,0.5-0.5,0.9c2.1-0.1,3.4-0.8,4.3-2.1
			c1.2-2,2.5-3.9,3.8-5.8C573.2,289.6,573.4,289.1,573.8,288.6 M571.8,295.8c1.6-0.1,2.5-0.7,3.2-1.8c1.2-2,2.5-4.1,3.8-6.1
			c0.2-0.4,0.4-0.7,0.6-1.2c-1.4,0-1.9,0.7-2.4,1.3c-1.3,1.8-2.5,3.7-3.7,5.5C572.8,294.3,572.3,295,571.8,295.8 M45.6,299.5
			c0.1-0.1,0.1-0.2,0.1-0.2c-2.6-2.7-5.1-5.4-7.7-8.1c-0.6-0.6-1.5-0.8-2.9-0.8c2.9,2.6,5.6,4.9,8.2,7.2c-0.2,0.4-0.3,0.6-0.5,1
			C43.8,298.9,44.7,299.2,45.6,299.5 M29.2,288.7c0.2,1.3,1,2.2,2.4,3C30.7,290.6,29.9,289.6,29.2,288.7"/>
		<path fill="#FFFFFF" d="M65.2,14.8c2.6-0.4,5.2-0.9,7.8-1.3c10.9-1.6,21.8-2.8,32.9-3.4c10.9-0.6,21.7-1.4,32.6-1.9
			c13.8-0.7,27.6-1.4,41.3-2c14.7-0.6,29.3-1.2,44-1.7c19.5-0.6,39-1.1,58.5-1.4c15-0.3,30.1-0.4,45.1-0.6c14-0.1,28-0.3,41.9-0.2
			c22.1,0.1,44.2,0.5,66.2,0.8c12.6,0.2,25.2,0.4,37.7,0.7c9.9,0.2,19.8,0.4,29.7,0.8c9.8,0.4,19.5,1,29.3,1.7
			c9.2,0.7,18.2,2.3,26.7,5.2c5.8,2,11.1,4.6,15.5,8.2c5.5,4.5,8.8,9.9,10.3,16c1.1,4.4,2,8.9,2.7,13.4c0.9,5.1,1.7,10.1,2.2,15.2
			c0.4,3.2,0.3,6.4,0.3,9.5c-0.1,10.3-0.3,20.5-0.2,30.8c0,3.5,0.6,7,1,10.5c0.8,6.7,1.4,13.4,1.4,20.1c0.1,13,0.2,25.9,0.2,38.9
			c0,5.5-0.1,11.1-0.1,16.6c-0.1,11-0.1,21.9-0.3,32.9c-0.1,9.2-0.4,18.4-0.6,27.7c-0.1,5.5-0.9,10.9-3,16.2
			c-0.9,2.3-1.6,4.7-2.3,7.1c-1.1,3.7-3.9,6.3-7.8,8.3c-2.8,1.4-5.8,2.1-9,2.5c-6.8,1-13.8,1.2-20.7,1.3c-19.5,0.4-39,0.8-58.5,1.1
			c-15.1,0.3-30.3,0.5-45.4,0.7c-17.1,0.3-34.1,0.5-51.2,0.8c-19.3,0.3-38.7,0.7-58,1.1c-19.9,0.4-39.7,0.8-59.6,1.1
			c-20.3,0.3-40.7,0.7-61,0.8c-18.6,0.2-37.3,0.3-55.9,0.1c-13.5-0.1-27-0.6-40.5-1c-8.8-0.2-17.6-0.6-26.4-1
			c-9.8-0.5-19.6-1-29.5-1.6c-7.2-0.4-14.4-1-21.6-1.5c-2.3-0.2-4.5-0.3-6.8-0.7c-7.1-1.1-11.7-4.6-14.4-9.8
			c-1.4-2.7-2.3-5.6-3.2-8.5c-2.5-8.2-4.6-16.5-6.2-24.9c-0.4-2.2-0.7-4.4-0.7-6.6C9.5,227,9.3,217,9,207
			c-0.3-14.3-0.6-28.6-0.9-42.8c-0.2-8.3-0.2-16.7-0.6-25c-0.2-4.9-0.7-9.8-1.2-14.7c-0.7-7.9-1.2-15.9-0.8-23.9
			C6.1,92.4,6.5,84.2,6.9,76C7.2,69,7.4,62,7.7,55c0.2-4.5,0.5-9.1,1.6-13.5c1.6-6.8,6.1-11.9,13-15.8c6.2-3.5,13-5.6,20.4-6.8
			c8.1-1.3,16.4-1.7,24.7-1.6c2.7,0,5.5,0,8.2,0c0.7,0,1.4-0.1,2-0.3c0.3-0.1,0.7-0.5,0.7-0.7c0-0.2-0.4-0.6-0.7-0.7
			c-0.8-0.2-1.6-0.3-2.4-0.3c-2.7,0-5.5,0-8.2,0c-0.6,0-1.2,0-1.9,0C65.2,15,65.2,14.9,65.2,14.8"/>
		<path fill="#FFFFFF" d="M527.8,299c1.9,0.8,2.1,0.7,3-0.6c1.3-2,2.8-3.9,4.1-5.8c0.9-1.3,2.1-1.9,4-1.7c0.8,0.1,1.6,0,2.5,0
			c-0.1,0.3-0.2,0.6-0.3,0.8c-1.4,2.4-2.9,4.9-4.4,7.3c-0.3,0.5-0.6,0.8-1.4,0.8c-4.9,0-9.8,0-14.7,0c-0.2,0-0.3-0.1-0.6-0.1
			c0.1-0.4,0.2-0.7,0.4-1.1c1.4-2.2,2.8-4.3,4.2-6.4c0.6-0.9,1.5-1.2,2.7-1.2c1.8,0,3.7,0,5.9,0C531.2,293.7,529,296.1,527.8,299"/>
		<path fill="#FFFFFF" d="M222.1,296.4h5c0.3,1.6,0.5,3.1,0.8,4.6c0.1,0.5,0.2,0.9,0.3,1.4c0.4,1.4,0.8,1.5,2.7,1
			c-0.4-2.3-0.7-4.6-1.1-7.1c2.1-0.1,4,0,6.2,0c0.4,2.8,0.7,5.5,1.1,8.2c-1.4,0.4-11.3,0.8-14.8,0.5
			C221.3,303.3,221.1,298.9,222.1,296.4"/>
		<path fill="#FFFFFF" d="M154.9,304.4c-1-2.6-1.9-5.2-2.9-7.9h5.5c0.7,2.9,1.3,5.8,2,8.8c-1.3,0.3-9.4,0.4-11.8,0.1
			c-1.4-2.8-2.1-5.8-2-8.9h3.5c0.7,1.8,1.4,3.6,2.1,5.3c0.2,0.6,0.5,1.3,0.7,1.9C152.6,305.1,153.1,305.2,154.9,304.4"/>
		<path fill="#FFFFFF" d="M93.9,294.9c1.9,0,3.5,0,5.1,0c0.6,0,1,0.2,1.2,0.7c1.4,3.1,2.7,6.1,4.1,9.3c-2.1,0.7-4,0.1-6.1,0.2
			C96.7,301.6,95.3,298.3,93.9,294.9"/>
		<path fill="#FFFFFF" d="M552.4,299.2c0.1-0.3,0.1-0.5,0.2-0.7c1.3-2.2,2.7-4.4,4.1-6.5c0.9-1.4,2.2-1.8,4.4-1.6
			c-1.7,2.5-3.4,4.9-5,7.4c1.7,0.9,2.2,0.9,4-0.2c-0.7-0.9-0.1-1.7,0.5-2.5c0.9-1.2,1.9-2.5,2.7-3.8c0.7-1.2,1.8-1.8,3.4-1.8
			c0.6,0,1.1-0.1,1.9-0.1c-0.3,0.4-0.4,0.7-0.6,1c-2.1,2.5-4.2,5.1-6.3,7.6c-0.4,0.5-0.8,0.9-1.6,1c-2.3,0.1-4.5,0.3-6.8,0.4
			C553,299.4,552.7,299.3,552.4,299.2"/>
		<path fill="#FFFFFF" d="M211.6,296.5h7.4v8.5h-6.5C212.2,302.3,211.9,299.5,211.6,296.5"/>
		<path fill="#FFFFFF" d="M191.6,305.4h-6.4c-0.4-2.9-0.9-5.8-1.4-8.8h6.6C190.8,299.6,191.2,302.4,191.6,305.4"/>
		<path fill="#FFFFFF" d="M208.9,296.6c0.3,2.9,0.6,5.6,0.9,8.5h-6.6c-0.6-2.8-0.8-5.6-1-8.5H208.9z"/>
		<path fill="#FFFFFF" d="M142.6,296.3c0.7,3.1,1.3,6.1,2,9.1h-5.7c-1-3-2-6-3-9.1H142.6z"/>
		<path fill="#FFFFFF" d="M112.5,305.1h-5.4c-1.4-3.2-2.8-6.4-4.3-9.7h6.3C110.2,298.5,111.3,301.8,112.5,305.1"/>
		<path fill="#FFFFFF" d="M199.5,296.6c0.3,2.9,0.7,5.8,1,8.8h-5.9c-0.9-2.8-1.3-5.7-1.2-8.7C195.4,296.5,197.4,296.5,199.5,296.6"
			/>
		<path fill="#FFFFFF" d="M326.4,301.1c-1.1,0.1-2.1,0.2-3.2,0.3c0.2-2.3,0.3-4.4,0.5-6.6h11.2c-0.1,2-0.2,3.9-0.3,6
			c-1.8,0.1-3.5,0.2-5.4,0.4c0.1-1.4,0.2-2.7,0.3-4c0-0.3,0.1-0.7,0.1-1c0-0.7-0.4-1.1-1.2-1.1c-0.7,0-1.3,0.4-1.4,1
			c-0.2,1.3-0.3,2.5-0.4,3.8C326.5,300,326.5,300.4,326.4,301.1"/>
		<path fill="#FFFFFF" d="M91.1,294.6c1.4,3.4,2.8,6.8,4.3,10.2h-4.9c-1.7-3.4-3.5-6.8-5.4-10.5C87.2,294.4,89,294.5,91.1,294.6"/>
		<path fill="#FFFFFF" d="M254.1,296h6c0.4,1,0.5,5.4,0.2,8c-1.7,0.4-3.5,0.3-5.2,0.3C254,302.8,253.5,298.5,254.1,296"/>
		<path fill="#FFFFFF" d="M369.3,293.9h5.1c-0.2,1.4-0.4,2.7-0.6,4.1c0.2,0.1,0.4,0.2,0.6,0.3c1.5,0.4,1.9,0.2,2.2-1
			c0.3-1.1,0.5-2.3,0.8-3.5h4.9c0.3,1.1-0.3,2.1-0.7,3.1c-0.7,1.8-0.7,1.8-2.9,1.8c-2.8,0.1-5.7,0.2-8.5,0.3c-0.6,0-1.1,0-1.9,0
			C368.5,297.3,368.9,295.6,369.3,293.9"/>
		<path fill="#FFFFFF" d="M60.9,292.9c1.9,0.1,3.5,0.2,5.1,0.3c0.6,0,1.1,0.2,1.4,0.7c2.1,3.3,4.2,6.7,6.2,10
			c-2.4,0.5-3.6,0.3-4.7-1.1c-2.5-3-5-6-7.6-9.1C61.3,293.5,61.2,293.3,60.9,292.9"/>
		<path fill="#FFFFFF" d="M516,291.2h6c-0.2,1-3.5,6.6-5.2,8.6h-5C512.6,296.7,514.5,294,516,291.2"/>
		<path fill="#FFFFFF" d="M182.5,305.4H177c-0.9-2.8-1.8-5.7-1.5-8.7h5.7C181.6,299.6,182,302.4,182.5,305.4"/>
		<path fill="#FFFFFF" d="M125.8,295.9c0.8,3.2,1.6,6.2,2.5,9.4h-5c-1-3.1-2.1-6.2-3.2-9.4H125.8z"/>
		<path fill="#FFFFFF" d="M111.9,295.7h5.4c1.1,3.1,2.1,6.3,3.2,9.5h-5.3C114.1,302,113,298.9,111.9,295.7"/>
		<path fill="#FFFFFF" d="M77.7,294.1c0.3-0.1,0.4-0.1,0.4-0.1c3.9-0.1,3.9-0.1,5.4,2.8c1.1,2.1,2.2,4.2,3.3,6.3
			c0.2,0.4,0.4,0.9,0.7,1.4h-5C80.9,301.1,79.3,297.6,77.7,294.1"/>
		<path fill="#FFFFFF" d="M285.1,303.2c-2,0.1-4,0.2-6,0.3v-8h6V303.2z"/>
		<path fill="#FFFFFF" d="M288.5,303.1c-0.5-2.7-0.5-5.1-0.1-7.7h6.6c-0.2,2.4-0.3,4.8-0.5,7.3C292.7,303.2,290.7,302.9,288.5,303.1
			"/>
		<path fill="#FFFFFF" d="M162.2,305.5c-0.7-2.9-1.3-5.9-2-8.9c1.9-0.2,3.7-0.1,5.7-0.1c0.5,3,0.9,5.9,1.4,9
			C165.6,305.7,164,305.7,162.2,305.5"/>
		<path fill="#FFFFFF" d="M303.7,295.2v7.1c-2,0.1-3.9,0.2-6,0.4c-0.8-2.6-0.5-5.1,0.6-7.5H303.7z"/>
		<path fill="#FFFFFF" d="M136.1,305.4h-4.6c-1.2-1.6-2.6-6.7-2.7-9.4h2h2.3C134.1,299.1,135.1,302.2,136.1,305.4"/>
		<path fill="#FFFFFF" d="M508.7,299.8H504c0.1-0.6,0.1-1.1,0.3-1.5c0.9-2,1.9-4,2.8-6c0.3-0.7,0.9-0.9,1.7-0.9c1.3,0,2.5,0,3.8,0
			C512.6,292.4,509.9,298.1,508.7,299.8"/>
		<path fill="#FFFFFF" d="M312.5,301.9c-2,0.1-3.8,0.2-5.7,0.3c-0.5-2.4-0.6-4.7-0.1-7.1h6.3C312.8,297.4,312.7,299.5,312.5,301.9"
			/>
		<path fill="#FFFFFF" d="M271.1,295.7h4.9c0.2,2.5,0.3,5.1,0.5,7.9c-1.5,0.1-3.1,0.2-4.9,0.3C270.8,301.1,270.8,298.5,271.1,295.7"
			/>
		<path fill="#FFFFFF" d="M268.6,303.9h-5.2c-0.7-2.6-0.4-5.2-0.3-8h5C268.3,298.6,268.5,301.1,268.6,303.9"/>
		<path fill="#FFFFFF" d="M429.3,297.5c0.4,0.1,0.7,0.2,0.9,0.3c1.2,0.2,1.6,0,1.9-0.9c0.3-1,0.5-1.9,0.7-2.9
			c0.1-0.4,0.2-0.7,0.3-1.2h4.2c-0.3,1.8-0.8,3.6-1.3,5.4h-10.1c0.4-1.8,0.7-3.5,1.1-5.3c1.1,0,2.1-0.1,3.3-0.2
			C430,294.4,429.7,295.9,429.3,297.5"/>
		<path fill="#FFFFFF" d="M79.6,304.1c-2.4,0.5-2.7,0.4-3.5-1c-1.8-2.8-3.6-5.7-5.3-8.5c-0.2-0.3-0.3-0.6-0.5-1
			c1.4-0.2,2.6-0.2,3.8,0.2c0.4,0.1,0.9,0.5,1.1,0.8C76.6,297.7,78.1,300.9,79.6,304.1"/>
		<path fill="#FFFFFF" d="M239,296.3h5.1v8.3H240C239,301.9,238.9,299.1,239,296.3"/>
		<path fill="#FFFFFF" d="M480.4,299.2h-4.8c0-0.3-0.1-0.5,0-0.7c1-2,1.9-4,2.9-6c0.2-0.4,0.6-0.7,1.2-0.7c1.3,0,2.7,0,4.3,0
			C482.8,294.5,481.6,296.9,480.4,299.2"/>
		<path fill="#FFFFFF" d="M475.7,292.1c-1.2,2.4-2.2,4.6-3.3,6.9H468c0.1-2.4,0.7-4.7,1.9-6.9H475.7z"/>
		<path fill="#FFFFFF" d="M247,304.6c-0.4-3-0.3-5.7,0-8.5h4c0.2,2.7,0.4,5.4,0.7,8.2C250.1,304.5,248.7,304.5,247,304.6"/>
		<path fill="#FFFFFF" d="M168.6,296.7h3.7c0.6,3,1.3,6,1.9,9c-0.4,0-1,0.1-1.5,0.1c-2.1,0-2.8-0.4-3.2-2.1
			c-0.3-1.4-0.4-2.9-0.6-4.3C168.8,298.5,168.7,297.7,168.6,296.7"/>
		<path fill="#FFFFFF" d="M320.5,301.5c-1.8,0.1-3.4,0.1-5.2,0.2c0.1-2.3,0.3-4.5,0.4-6.8h5.3C320.8,297.1,320.6,299.2,320.5,301.5"
			/>
		<path fill="#FFFFFF" d="M399.4,298.1c0.5-1.5,0.9-2.8,1.3-4.1c0.1-0.4,0.4-0.8,1.1-0.8c2,0,3.9,0,6.1,0c-0.4,1.7-0.7,3.2-1,4.8
			H399.4z"/>
		<path fill="#FFFFFF" d="M447.9,292.4h5.3c-0.6,2.1-1.4,4.1-2.1,6.1h-5.4C446.4,296.4,447.1,294.4,447.9,292.4"/>
		<path fill="#FFFFFF" d="M483.5,299.3c0.6-2.5,1.7-4.7,3.1-6.7c0.4-0.6,0.9-0.9,1.8-0.9c0.9,0,1.8,0,3.1,0
			c-1.5,2.6-2.9,5.2-4.3,7.8C485.9,299.4,484.8,299.4,483.5,299.3"/>
		<path fill="#FFFFFF" d="M56.6,302.1c-1.8,0.1-3.3-0.3-4.3-1.3c-2.8-2.7-5.6-5.5-8.4-8.3c-0.2-0.2-0.3-0.5-0.5-0.8
			c1.9-0.1,3.4,0.2,4.5,1.3c2.7,2.7,5.3,5.4,8,8.2C56.1,301.4,56.3,301.7,56.6,302.1"/>
		<path fill="#FFFFFF" d="M504.5,291.5c-1.2,2.8-2.4,5.4-3.5,8.1h-3.8c0-0.3,0-0.7,0.1-1c0.6-2.2,1.7-4.2,3-6.1
			c0.5-0.8,1.1-1.1,2.2-1C503,291.5,503.6,291.5,504.5,291.5"/>
		<path fill="#FFFFFF" d="M64.7,303.2c-1.4,0.2-2.3,0-3.2-0.9c-2.5-2.8-5.3-5.5-7.9-8.2c-0.5-0.5-0.9-1-1.6-1.8
			c1.2,0.1,2,0.1,2.8,0.2c0.3,0,0.6,0.1,0.7,0.3c3.1,3.1,6.4,6.2,8.9,9.7C64.4,302.7,64.5,302.9,64.7,303.2"/>
		<path fill="#FFFFFF" d="M539.5,299.8c0.3-0.7,0.4-1.2,0.7-1.7c1.2-2,2.4-4,3.6-5.9c0.9-1.4,2.1-1.7,4-1.2c-1.4,2.7-2.7,5.3-4.2,8
			c-0.1,0.3-0.6,0.6-1,0.6C541.7,299.8,540.7,299.8,539.5,299.8"/>
		<path fill="#FFFFFF" d="M345.1,300.2c-0.5-2.1,0-4,0.7-5.8h5.5c-0.3,1.9-0.8,3.7-1.4,5.5C348.3,299.9,346.7,300,345.1,300.2"/>
		<path fill="#FFFFFF" d="M415.8,298.1h-6.1c0.3-1.7,0.6-3.3,0.9-4.9h6.4C416.6,294.9,416.2,296.5,415.8,298.1"/>
		<path fill="#FFFFFF" d="M555.1,290.6c-0.5,0.7-1,1.2-1.4,1.8c-1.2,1.8-2.5,3.7-3.6,5.6c-1,1.7-0.9,1.7-3.5,1.5
			c0.1-0.4,0.1-0.9,0.3-1.3c0.8-2.4,2.3-4.7,3.8-6.9c0.3-0.5,0.7-0.7,1.4-0.7C553,290.6,553.9,290.6,555.1,290.6"/>
		<path fill="#FFFFFF" d="M366.5,294.1c-0.4,1.8-0.8,3.4-1.2,5.2h-5.4c0.2-1.7,0.4-3.4,0.6-5.2H366.5z"/>
		<path fill="#FFFFFF" d="M337.3,294.5c1.7-0.1,3.4-0.2,5.4-0.3c-0.3,2.1-0.5,4-0.8,6c-1.6,0.1-3,0.1-4.6,0.2V294.5z"/>
		<path fill="#FFFFFF" d="M460.3,298.8c0.7-2.3,1.3-4.3,2-6.5h4.5c-0.6,2.2-1.1,4.2-1.7,6.4C463.6,299,462.1,298.9,460.3,298.8"/>
		<path fill="#FFFFFF" d="M494,299.5h-3.7c0.1-0.5,0.2-1,0.4-1.4c0.6-1.9,1.7-3.6,3-5.2c1.2-1.5,1.3-1.5,4-1.1
			C496.5,294.4,495.3,296.9,494,299.5"/>
		<path fill="#FFFFFF" d="M398.1,293.4c-0.5,1.7-0.9,3.2-1.3,4.7H391c0.5-1.4,0.9-2.8,1.5-4.1c0.1-0.3,0.8-0.6,1.2-0.6
			C395,293.4,396.4,293.4,398.1,293.4"/>
		<path fill="#FFFFFF" d="M438.7,298.3c0.5-2,1-3.8,1.5-5.7h4.8c-0.7,1.9-1.3,3.8-2,5.7H438.7z"/>
		<path fill="#FFFFFF" d="M457.6,298.6h-3.7c0.3-2.2,1.2-4.2,2.1-6.3h3.4C458.8,294.5,458.2,296.6,457.6,298.6"/>
		<path fill="#FFFFFF" d="M423.1,298.1h-4.5c0.2-0.9,0.3-1.7,0.5-2.5c0.2-0.8,0.4-1.6,0.6-2.5h4.5
			C423.9,294.8,423.5,296.4,423.1,298.1"/>
		<path fill="#FFFFFF" d="M352.9,299.5c0-1.8,0.5-3.5,1.4-5.3h3.4c-0.2,1.8-0.4,3.4-0.6,5.3H352.9z"/>
		<path fill="#FFFFFF" d="M388.2,298.4h-4.4c0.5-1.6,0.9-3.2,1.4-4.8h4.5C389.2,295.3,388.7,296.8,388.2,298.4"/>
		<path fill="#FFFFFF" d="M573.8,288.6c-0.3,0.5-0.6,1-0.9,1.5c-1.3,1.9-2.6,3.9-3.8,5.8c-0.9,1.4-2.2,2.1-4.3,2.1
			c0.2-0.4,0.3-0.7,0.5-0.9c2.3-2.7,4.5-5.3,6.8-8c0.3-0.4,0.9-0.6,1.4-0.9C573.5,288.4,573.6,288.5,573.8,288.6"/>
		<path fill="#FFFFFF" d="M571.8,295.8c0.5-0.7,1-1.5,1.5-2.2c1.2-1.8,2.5-3.7,3.7-5.5c0.5-0.7,1-1.4,2.4-1.3
			c-0.2,0.5-0.4,0.8-0.6,1.2c-1.2,2-2.5,4.1-3.8,6.1C574.4,295,573.5,295.7,571.8,295.8"/>
		<path fill="#FFFFFF" d="M45.6,299.5c-0.9-0.3-1.8-0.6-2.8-0.9c0.2-0.3,0.3-0.6,0.5-1c-2.6-2.3-5.3-4.6-8.2-7.2
			c1.4-0.1,2.3,0.1,2.9,0.8c2.6,2.7,5.1,5.4,7.7,8.1C45.7,299.3,45.6,299.4,45.6,299.5"/>
		<path fill="#FFFFFF" d="M29.2,288.7c0.8,1,1.5,1.9,2.4,3C30.2,290.9,29.4,289.9,29.2,288.7"/>
	</g>
	<path fill="#FFCC2C" d="M78.7,31.7c2.5-0.4,4.9-0.8,7.4-1.1c10.3-1.5,20.6-2.5,31-3.1c10.2-0.6,20.5-1.2,30.7-1.7
		c13-0.6,26-1.2,39-1.7c13.8-0.6,27.7-1.1,41.5-1.5c18.4-0.5,36.8-0.9,55.2-1.3c14.2-0.3,28.4-0.4,42.5-0.5
		c13.2-0.1,26.4-0.2,39.6-0.2c20.8,0.1,41.7,0.4,62.5,0.7c11.9,0.2,23.7,0.4,35.6,0.6c9.3,0.2,18.7,0.4,28,0.7
		c9.2,0.4,18.4,0.8,27.6,1.5c8.7,0.6,17.1,2,25.2,4.6c5.5,1.8,10.4,4.1,14.6,7.3c5.2,4,8.3,8.7,9.7,14.1c1,3.9,1.8,7.9,2.6,11.9
		c0.8,4.5,1.6,9,2.1,13.5c0.3,2.8,0.3,5.6,0.3,8.4c-0.1,9.1-0.3,18.2-0.2,27.2c0,3.1,0.6,6.2,1,9.3c0.7,5.9,1.3,11.8,1.3,17.8
		c0.1,11.5,0.2,23,0.2,34.5c0,4.9-0.1,9.8-0.1,14.7c-0.1,9.7-0.1,19.4-0.3,29.1c-0.1,8.2-0.4,16.3-0.5,24.5
		c-0.1,4.9-0.8,9.7-2.8,14.3c-0.9,2-1.5,4.1-2.2,6.2c-1,3.3-3.6,5.6-7.4,7.3c-2.6,1.2-5.5,1.8-8.5,2.3c-6.5,0.9-13,1.1-19.5,1.2
		c-18.4,0.4-36.8,0.7-55.2,1c-14.3,0.2-28.6,0.4-42.9,0.6c-16.1,0.2-32.2,0.5-48.3,0.7c-18.2,0.3-36.5,0.7-54.7,1
		c-18.7,0.3-37.5,0.7-56.2,1c-19.2,0.3-38.4,0.6-57.5,0.7c-17.6,0.1-35.2,0.2-52.8,0.1c-12.7-0.1-25.5-0.5-38.2-0.8
		c-8.3-0.2-16.6-0.5-24.9-0.8c-9.3-0.4-18.5-0.9-27.8-1.4c-6.8-0.4-13.6-0.9-20.4-1.3c-2.1-0.1-4.3-0.3-6.4-0.6
		c-6.7-1-11.1-4.1-13.6-8.7c-1.3-2.4-2.2-5-3-7.5c-2.4-7.3-4.4-14.6-5.9-22c-0.4-1.9-0.6-3.9-0.7-5.8c-0.3-8.9-0.6-17.7-0.8-26.6
		c-0.3-12.6-0.6-25.3-0.9-37.9c-0.2-7.4-0.2-14.8-0.5-22.1c-0.2-4.3-0.7-8.7-1.1-13c-0.7-7-1.1-14.1-0.7-21.1
		c0.5-7.2,0.8-14.5,1.2-21.7c0.3-6.2,0.5-12.4,0.8-18.6c0.2-4,0.5-8,1.5-12c1.5-6,5.8-10.6,12.3-14c5.8-3.1,12.3-4.9,19.2-6
		c7.7-1.2,15.5-1.5,23.3-1.4c2.6,0,5.2,0,7.7,0c0.6,0,1.3-0.1,1.9-0.3c0.3-0.1,0.6-0.4,0.6-0.6c0-0.2-0.4-0.6-0.6-0.6
		C89.7,32.2,89,32,88.2,32c-2.6,0-5.2,0-7.7,0c-0.6,0-1.2,0-1.8,0C78.7,32,78.7,31.9,78.7,31.7"/>
</g>
</svg>
