<?xml version="1.0" encoding="utf-8"?>
<!-- Generator: Adobe Illustrator 19.0.0, SVG Export Plug-In . SVG Version: 6.00 Build 0)  -->
<svg version="1.2" baseProfile="tiny" id="Слой_2"
	 xmlns="http://www.w3.org/2000/svg" xmlns:xlink="http://www.w3.org/1999/xlink" x="0px" y="0px" viewBox="-250 400.1 94.1 41.8"
	 xml:space="preserve">
<g>
	<path fill="#FF4E63" d="M-157.3,422.6c0,1,0,1.9,0,2.9c-0.4-0.5-0.8-0.9-1.3-1.4c-0.1-0.1-0.3-0.3-0.4-0.5
		c-0.1-0.7-0.2-1.4-0.3-2.1c0.3,0.2,0.8,0.4,1.1,0.6C-157.9,422.2-157.6,422.4-157.3,422.6z"/>
	<path fill="#FF4E63" d="M-157.3,425.7c0,0.4,0,0.8,0,1.2s0,0.8-0.1,1.1c-0.3-0.3-0.5-0.7-0.8-1c-0.2-0.3-0.4-0.7-0.7-1
		c0-0.4,0-0.9,0-1.3c0-0.1,0-0.2,0-0.3C-158.4,424.9-157.8,425.3-157.3,425.7z"/>
	<path fill="#FF4E63" d="M-157.4,420.2c0,0.5,0,1,0.1,1.6c-0.2-0.1-0.4-0.2-0.5-0.3c-0.5-0.3-1-0.7-1.6-0.7c-0.1-0.7-0.3-1.3-0.4-2
		c0.1,0,0.2,0.1,0.2,0.2C-158.9,419.4-158.2,420-157.4,420.2z"/>
	<path fill="#FF4E63" d="M-157.5,417.9c0,0.6,0.1,1.3,0.1,1.9c-0.4-0.6-1.1-1.1-1.7-1.6c-0.3-0.3-0.6-0.5-1-0.8
		c-0.1-0.4-0.2-0.9-0.3-1.3c0.2,0.2,0.5,0.3,0.6,0.4C-159,417.1-158.3,417.6-157.5,417.9z"/>
	<path fill="#FF4E63" d="M-157.4,428.4c0,0.5-0.1,1.1-0.2,1.6c-0.1-0.2-0.3-0.3-0.4-0.4c-0.3-0.3-0.7-0.7-1.1-0.8l0,0
		c0.1-0.6,0.2-1.2,0.3-1.8c0.1,0.2,0.3,0.3,0.4,0.5C-158.1,427.8-157.8,428.1-157.4,428.4z"/>
	<path fill="#FF4E63" d="M-157.8,415.4c0.1,0.6,0.1,1.2,0.2,1.8c-0.5-0.5-1.2-0.9-1.7-1.3c-0.4-0.3-0.8-0.7-1.2-1.1
		c-0.1-0.5-0.2-1-0.3-1.5c0.3,0.2,0.6,0.4,0.8,0.6C-159.3,414.4-158.6,414.9-157.8,415.4z"/>
	<path fill="#FF4E63" d="M-157.7,430.6c-0.1,0.4-0.2,0.9-0.3,1.3c-0.3-0.4-0.7-0.8-1.1-1.2c-0.2-0.2-0.4-0.4-0.6-0.6
		c0.1-0.3,0.2-0.6,0.3-0.9c0.3,0.3,0.7,0.5,1,0.8C-158.1,430.2-157.9,430.4-157.7,430.6z"/>
	<path fill="#FF4E63" d="M-158,414c0.1,0.3,0.1,0.6,0.1,0.9c-0.6-0.5-1.2-1-1.8-1.5c-0.5-0.4-0.9-0.9-1.5-1.2c0-0.2-0.1-0.5-0.1-0.7
		c0.1,0.1,0.2,0.1,0.3,0.2c0.5,0.3,1,0.6,1.5,0.9c0.4,0.3,0.8,0.6,1.2,0.7C-158.1,413.5-158,413.7-158,414z"/>
	<path fill="#FF4E63" d="M-158.1,432.2L-158.1,432.2c-0.1,0.3-0.2,0.7-0.4,1c-0.1,0.4-0.3,0.7-0.5,1l0,0c-0.4-0.5-0.7-1.1-1.1-1.6
		c-0.2-0.3-0.4-0.5-0.6-0.8c0.2-0.3,0.4-0.6,0.6-0.9c0.2,0.1,0.3,0.2,0.5,0.4C-159,431.6-158.6,432-158.1,432.2z"/>
	<path fill="#FF4E63" d="M-158.7,410.9c0.1,0.5,0.3,1,0.4,1.5c-0.4-0.4-1-0.8-1.5-1c-0.5-0.3-1-0.6-1.5-0.9l-0.1-0.1
		c0-0.3-0.1-0.6-0.1-0.8c0.3,0.2,0.6,0.3,0.9,0.5C-159.9,410.3-159.3,410.6-158.7,410.9z"/>
	<path fill="#FF4E63" d="M-159.1,434.4h0.1c-0.4,0.6-0.8,1.1-1.5,1.5h-0.1c-0.1-0.7-0.5-1.4-0.9-2c-0.2-0.3-0.3-0.6-0.5-0.8
		c0.3-0.2,0.6-0.4,0.8-0.6c0.1-0.1,0.2-0.2,0.2-0.2c0.2,0.2,0.4,0.4,0.5,0.6C-160,433.4-159.5,433.9-159.1,434.4z"/>
	<path fill="#FF4E63" d="M-159.4,408.9c0.2,0.4,0.3,0.8,0.5,1.2c-0.3-0.3-0.7-0.5-1-0.8c-0.5-0.3-1-0.8-1.6-0.9
		c0-0.2-0.1-0.4-0.1-0.5l0.1,0.1C-160.9,408.3-160.2,408.6-159.4,408.9z"/>
	<path fill="#FF4E63" d="M-162,434.6c0.3,0.5,0.6,1.1,1.1,1.5c-0.5,0.2-1.1,0.3-1.6,0.4c-0.3-0.9-0.7-1.8-1.2-2.5
		c0.3-0.1,0.7-0.3,1-0.5C-162.5,433.9-162.2,434.2-162,434.6z"/>
	<path fill="#FF4E63" d="M-163.7,435.4c0.3,0.4,0.5,0.8,0.8,1.1c-0.6,0-1.2,0.1-1.8,0.1c-0.4-0.7-0.8-1.4-1.3-2.1
		c0.5-0.1,0.9-0.2,1.4-0.3C-164.3,434.7-164,435.1-163.7,435.4z"/>
	<path fill="#FF4E63" d="M-165.2,436.7c-0.5,0-1,0.1-1.5,0.1c-0.3-0.5-0.5-1-0.9-1.5c-0.1-0.1-0.2-0.3-0.3-0.4
		c0.4,0,0.7-0.1,1.1-0.1C-166.2,435.4-165.7,436-165.2,436.7z"/>
	<path fill="#FF4E63" d="M-167,436.8c-0.7,0-1.3,0.1-2,0.1c-0.3-0.5-0.5-1-0.7-1.5c-0.1-0.2-0.2-0.3-0.3-0.5c0.5,0,0.9-0.1,1.4-0.1
		c0.2,0.2,0.3,0.4,0.5,0.7C-167.8,436-167.4,436.4-167,436.8z"/>
	<path fill="#FF4E63" d="M-169.4,436.9c-0.4,0-0.8,0-1.3,0.1c-0.1-0.5-0.5-1-0.7-1.4c-0.1-0.1-0.2-0.3-0.3-0.5c0.3,0,0.5,0,0.8,0
		c0.1,0.3,0.4,0.6,0.6,0.8C-170,436.2-169.7,436.6-169.4,436.9z"/>
	<path fill="#FF4E63" d="M-171.1,437c-0.4,0-0.9,0-1.3,0.1c-0.2-0.4-0.3-0.9-0.5-1.3c-0.1-0.2-0.2-0.4-0.3-0.6c0.2,0,0.4,0,0.7,0
		c0.2,0.3,0.5,0.6,0.7,0.9C-171.7,436.4-171.5,436.8-171.1,437z"/>
	<path fill="#FF4E63" d="M-172.7,437.1c-0.7,0-1.3,0.1-2,0.1v-0.1c0.1,0,0.1,0,0.1-0.1c-0.1-0.4-0.2-0.7-0.4-1
		c-0.2-0.3-0.3-0.5-0.5-0.8c0.2,0,0.4,0,0.5,0c0.1,0.1,0.2,0.3,0.3,0.4c0,0.1,0.1,0,0.1-0.1c-0.1-0.1-0.1-0.2-0.1-0.3
		c0.3,0,0.5,0,0.8,0c0.1,0.3,0.3,0.5,0.4,0.8C-173.2,436.4-173,436.8-172.7,437.1z"/>
	<path fill="#FF4E63" d="M-174.7,437.2L-174.7,437.2c-1.4,0.1-2.8,0.2-4.3,0.3c-9.1,0.6-18.3,1.1-27.4,1.7
		c-8.3,0.5-16.8,1.5-25.2,1.5v-0.1c-0.4-0.9-1.2-1.6-1.7-2.4c-0.4-0.5-0.7-1.1-1-1.7c0.4,0,0.8,0,1.2,0c0.7,1.5,1.6,2.9,2.9,3.9
		c0.1,0.1,0.3,0,0.2-0.2c-1-1.2-1.8-2.4-2.5-3.7c0.5,0,1,0,1.5,0v0.1c0.3,1.1,1.2,2.2,2.1,3c0.1,0.1,0.1,0,0.1-0.1
		c-0.4-0.5-0.8-1-1.1-1.5c-0.3-0.5-0.5-1-0.8-1.5l0,0c0.5,0,0.9,0,1.4,0c0.4,1.1,1.2,2.1,2,3c0,0,0.1,0,0,0c-0.7-1-1.2-2-1.7-3
		c2,0,3.9,0,5.9,0c15.7-0.1,31.4-0.3,47.1-1.1c0.1,0.4,0.4,0.6,0.6,1C-175.2,436.8-175.1,436.9-174.7,437.2
		C-174.8,437.2-174.7,437.2-174.7,437.2z M-225.7,439.2c0.1,0.1,0.3,0,0.2-0.1c-0.4-0.6-0.7-1.3-1.2-1.8c-0.1-0.1-0.3,0-0.3,0.2
		C-226.8,438.1-226.1,438.6-225.7,439.2z"/>
	<path d="M-225.5,439.1c0.1,0.1-0.1,0.2-0.2,0.1c-0.4-0.6-1-1.1-1.3-1.8c-0.1-0.2,0.2-0.3,0.3-0.2
		C-226.2,437.7-225.9,438.5-225.5,439.1z"/>
	<path fill="#FF4E63" d="M-232.2,440.7c-0.2,0-0.3,0-0.5,0c-0.1,0-0.2,0-0.4,0c-0.8-0.7-1.4-1.3-2-2.2c-0.4-0.7-0.9-1.4-1.4-2.1
		c0.3,0,0.6,0,0.8,0s0.3,0,0.5,0c0.2,0.8,0.7,1.5,1.1,2.2C-233.5,439.4-233,440.2-232.2,440.7z"/>
	<path fill="#FF4E63" d="M-235.3,439.6c0.2,0.4,0.5,0.7,0.8,1c-0.4,0-0.7,0-1-0.1c-0.2-0.3-0.5-0.5-0.7-0.7
		c-0.4-0.5-0.8-1.1-1.1-1.6c-0.4-0.7-0.8-1.4-1.3-2c0.5,0.1,0.9,0.1,1.4,0.2C-236.8,437.5-236,438.7-235.3,439.6z"/>
	<path fill="#FF4E63" d="M-237.7,439.3c0.2,0.3,0.5,0.8,0.8,1.1c-0.4-0.1-0.9-0.2-1.3-0.3c-0.4-0.8-1.3-1.5-1.9-2.2
		c-0.7-0.8-1.3-1.6-1.9-2.4c0.8,0.3,1.6,0.4,2.5,0.6C-239.1,437.2-238.3,438.3-237.7,439.3z"/>
	<path fill="#FF4E63" stroke="#FF4E63" stroke-miterlimit="10" d="M-240.9,438.1c0.4,0.5,0.8,1,1.3,1.5c-0.8-0.3-1.6-0.7-2.3-1.2
		c-0.5-0.9-1.1-1.7-1.7-2.5c-0.3-0.5-0.6-1.1-0.9-1.7c0.2,0.1,0.4,0.3,0.7,0.4c0.5,0.3,1,0.5,1.5,0.6
		C-242.1,436.3-241.5,437.2-240.9,438.1z"/>
	<path fill="#FF4E63" d="M-244.5,436.2c-0.4-0.4-0.7-0.9-1-1.4c-0.5-0.7-0.9-1.5-1.2-2.3c0.3,0.3,0.5,0.6,0.8,0.9l0,0
		C-245.5,434.3-245.1,435.3-244.5,436.2z"/>
	<path d="M-160,464.6c1.1,0,2.2,0,3.3,0C-157.8,464.6-158.9,464.6-160,464.6z"/>
	<g>
		<path fill="none" d="M-173.5,436c-0.2-0.2-0.3-0.5-0.4-0.8c-0.3,0-0.5,0-0.8,0c0,0.1,0.1,0.2,0.1,0.3c0,0.1-0.1,0.1-0.1,0.1
			c-0.1-0.1-0.2-0.3-0.3-0.4c-0.2,0-0.4,0-0.5,0c0.2,0.2,0.4,0.5,0.5,0.8c0.2,0.3,0.4,0.6,0.4,1c0,0.2-0.1,0.2-0.1,0.3
			c0.7,0,1.3-0.1,2-0.1C-173,436.8-173.2,436.4-173.5,436z"/>
		<path fill="none" d="M-171.3,435.5c0.2,0.5,0.5,1,0.7,1.5c0.4,0,0.8-0.1,1.3-0.1c-0.3-0.4-0.6-0.7-0.9-1.1
			c-0.2-0.3-0.4-0.5-0.6-0.8c-0.2,0-0.5,0-0.8,0C-171.5,435.2-171.4,435.4-171.3,435.5z"/>
		<path fill="none" d="M-159.4,420.7c0.6,0,1.1,0.4,1.6,0.7c0.2,0.1,0.4,0.2,0.5,0.3c0-0.4-0.1-1-0.1-1.5c-0.8-0.2-1.5-0.8-2.2-1.3
			c-0.1,0-0.1-0.1-0.2-0.2c0.1,0.6,0.2,1.1,0.3,1.6C-159.5,420.4-159.4,420.6-159.4,420.7z"/>
		<path fill="none" d="M-173.1,435.7c0.3,0.6,0.5,1,0.7,1.4c0.4,0,0.9-0.1,1.3-0.1c-0.3-0.3-0.6-0.7-0.9-1c-0.2-0.3-0.5-0.6-0.7-0.9
			c-0.2,0-0.5,0-0.7,0C-173.3,435.3-173.2,435.5-173.1,435.7z"/>
		<path fill="none" d="M-237.2,438.2c0.3,0.5,0.7,1.1,1.1,1.6c0.2,0.3,0.5,0.5,0.7,0.7c0.2,0.1,0.6,0.1,0.9,0.2
			c-0.3-0.3-0.6-0.7-0.8-1c-0.7-1-1.4-2.1-1.8-3.3c-0.5,0-0.9-0.1-1.4-0.2c0,0,0,0,0,0C-238,436.8-237.6,437.6-237.2,438.2z"/>
		<path fill="none" d="M-242,435.4c0.6,0.8,1.2,1.6,1.9,2.4c0.6,0.7,1.5,1.3,1.9,2.2c0.4,0.2,0.9,0.3,1.3,0.3
			c-0.3-0.3-0.6-0.7-0.8-1.1c-0.6-1-1.4-2.1-1.8-3.2c-0.2-0.1-0.5-0.1-0.8-0.2C-240.9,435.7-241.4,435.6-242,435.4z"/>
		<path fill="none" d="M-229.1,436.4c0.6,1,1.1,2,1.7,3c-0.8-0.9-1.5-1.9-2-3c-0.5,0-0.9,0-1.4,0c0.3,0.5,0.5,1,0.8,1.5
			c0.3,0.5,0.7,1,1.1,1.5c0,0.1,0,0.1-0.1,0.1c-0.8-0.8-1.7-1.9-2.1-3v-0.1c-0.5,0-1,0-1.5,0c0.7,1.3,1.5,2.5,2.5,3.7
			c0.1,0.1-0.1,0.3-0.2,0.2c-1.3-1-2.3-2.4-2.9-3.9c-0.2,0-0.4,0-0.7,0c-0.2,0-0.4,0-0.5,0c0.4,0.5,0.7,1.2,1,1.7
			c0.6,0.8,1.4,1.5,1.7,2.4c0,0.1,0,0.1,0,0.1c8.4,0,16.8-1,25.2-1.5c9.1-0.6,18.3-1.1,27.4-1.7c1.6,0,3,0,4.4-0.1
			c-0.4-0.3-0.6-0.7-0.8-1c-0.2-0.3-0.4-0.6-0.6-1c-15.7,0.9-31.4,1-47.1,1.1h0C-223.2,436.4-225.9,436.4-229.1,436.4z"/>
		<path fill="none" d="M-245.5,434.8c0.3,0.5,0.6,1,1,1.4c-0.5-0.8-0.9-1.7-1.2-2.6c-0.2-0.1-0.5-0.3-0.7-0.5
			C-246.2,433.7-245.9,434.3-245.5,434.8z"/>
		<path fill="none" d="M-174.7,437.3C-174.7,437.2-174.8,437.2-174.7,437.3L-174.7,437.3z"/>
		<path fill="none" d="M-159.8,411.3c0.5,0.3,1.1,0.6,1.5,1.1c-0.1-0.5-0.3-1-0.4-1.5c-0.7-0.3-1.3-0.6-1.9-0.9
			c-0.3-0.2-0.5-0.3-0.8-0.4c0.1,0.5,0.1,0.8,0.1,0.8C-160.8,410.7-160.3,411-159.8,411.3z"/>
		<path fill="none" d="M-170,435c0.1,0.2,0.2,0.3,0.3,0.5c0.3,0.4,0.5,0.9,0.7,1.4c0.7,0,1.3-0.1,2-0.1c-0.4-0.4-0.8-0.8-1.1-1.2
			c-0.2-0.2-0.4-0.4-0.5-0.7c-0.3,0-0.5,0-0.7,0.1C-169.6,435-169.8,435-170,435L-170,435z"/>
		<path fill="none" d="M-159.5,413.3c0.5,0.5,1.1,1,1.6,1.6c0-0.3-0.1-0.6-0.1-0.9s-0.1-0.5-0.1-0.8c-0.5-0.1-0.8-0.4-1.2-0.7
			c-0.5-0.3-1-0.6-1.5-0.9c-0.1,0-0.2-0.1-0.3-0.2c0,0.1,0,0.2,0.1,0.4c0,0.1,0,0.2,0.1,0.3C-160.5,412.5-160,413-159.5,413.3z"/>
		<path fill="none" d="M-160,409.3c0.4,0.3,0.7,0.5,1.1,0.8c-0.2-0.4-0.3-0.8-0.5-1.2c-0.7-0.3-1.4-0.6-2.1-1c0,0-0.1,0-0.1-0.1
			c0,0.2,0.1,0.4,0.1,0.5C-161,408.5-160.5,409-160,409.3z"/>
		<path fill="none" d="M-159.4,415.9c0.6,0.5,1.3,0.9,1.8,1.3c0-0.6-0.1-1.2-0.2-1.8c-0.8-0.4-1.5-0.9-2.3-1.5
			c-0.2-0.2-0.4-0.3-0.6-0.5c0.1,0.5,0.2,1,0.3,1.5C-160.1,415.2-159.8,415.6-159.4,415.9z"/>
		<path fill="none" d="M-159,430.7c0.4,0.4,0.8,0.8,1,1.2c0.1-0.4,0.2-0.9,0.3-1.3c-0.2-0.2-0.4-0.4-0.6-0.6c-0.3-0.3-0.7-0.5-1-0.8
			c-0.1,0.4-0.2,0.7-0.3,0.9C-159.4,430.3-159.2,430.5-159,430.7z"/>
		<path fill="none" d="M-159,423.4c0.2,0.2,0.3,0.4,0.4,0.5c0.5,0.6,0.9,1.1,1.3,1.5c0-0.9,0-1.9,0-2.9c-0.3-0.2-0.6-0.4-0.9-0.6
			c-0.3-0.2-0.8-0.4-1.1-0.6C-159.1,422.1-159,422.9-159,423.4C-159,423.4-159,423.4-159,423.4z"/>
		<path fill="none" d="M-158.9,424.7c0,0.4,0,0.9,0,1.3c0.3,0.3,0.5,0.6,0.7,1c0.2,0.4,0.5,0.7,0.8,1c0.1-0.3,0.1-0.7,0.1-1.1
			c0-0.4,0-0.8,0-1.2c-0.5-0.4-1.1-0.8-1.6-1.3C-158.9,424.5-158.9,424.6-158.9,424.7z"/>
		<path fill="none" d="M-162.7,433.6c-0.3,0.2-0.7,0.3-1,0.5c0.5,0.7,0.9,1.7,1.2,2.5c0.5-0.1,1.1-0.2,1.6-0.5
			c-0.5-0.4-0.7-1-1.1-1.5C-162.2,434.2-162.5,433.9-162.7,433.6z"/>
		<path fill="none" d="M-167.9,434.8c0.1,0.1,0.2,0.3,0.3,0.4c0.4,0.5,0.6,1.1,0.9,1.6c0.5,0,1-0.1,1.5-0.1c-0.6-0.6-1.1-1.3-1.6-2
			C-167.2,434.7-167.5,434.8-167.9,434.8z"/>
		<path fill="none" d="M-164.5,434.3c-0.5,0.1-0.9,0.2-1.4,0.3c0.5,0.7,0.9,1.3,1.3,2.1c0.5-0.1,1.1-0.1,1.7-0.1
			c-0.3-0.4-0.5-0.8-0.8-1.1C-164,435.1-164.3,434.7-164.5,434.3z"/>
		<path fill="none" d="M-160.4,433c-0.2-0.2-0.4-0.4-0.5-0.6c-0.1,0.1-0.1,0.2-0.2,0.2c-0.3,0.2-0.5,0.4-0.8,0.6
			c0.2,0.3,0.4,0.6,0.5,0.8c0.3,0.6,0.8,1.3,0.9,2h0.1c0.6-0.5,1-1,1.4-1.6h-0.1C-159.5,433.9-160,433.5-160.4,433z"/>
		<path fill="none" d="M-234,438.6c-0.4-0.6-0.9-1.4-1.1-2.2c-0.1,0-0.3,0-0.5,0c-0.3,0-0.5,0-0.8,0c0.5,0.7,0.9,1.4,1.4,2.1
			c0.6,0.9,1.2,1.5,2,2.2c0.1,0,0.2,0,0.4,0c0,0,0.2,0,0.4,0C-233,440.2-233.5,439.3-234,438.6z"/>
		<path fill="none" d="M-159.6,416.6c-0.2-0.1-0.4-0.3-0.6-0.4c0.1,0.4,0.2,0.9,0.3,1.3c0.3,0.3,0.7,0.5,1,0.8
			c0.4,0.4,1.1,0.9,1.5,1.5c0-0.6-0.1-1.3-0.1-1.9C-158.3,417.6-159,417.1-159.6,416.6z"/>
		<path fill="none" d="M-243,434c0.8,0.4,1.6,0.6,2.5,0.8s1.7,0.3,2.6,0.4c0.4,0,0.9,0.1,1.3,0.1c5.8,0.4,11.7,0.2,17.6,0
			c2-0.1,3.9-0.1,5.8-0.1c15-0.3,30.2-0.3,45.2-1.6c0.4,0,0.8-0.1,1.3-0.1c0.4-0.1,0.8-0.1,1.2-0.2c0.8-0.2,1.6-0.5,2.3-0.8
			c0-0.2,0.2-0.3,0.3-0.3c0.9-0.6,1.7-1.3,2.2-2.3c-0.1-0.2,0-0.3,0.2-0.4c0-0.2,0.1-0.3,0.2-0.5s0.1-0.4,0.1-0.7
			c0.2-0.8,0.2-1.7,0.2-2.5c0-0.9-0.1-1.7-0.3-2.6c-0.2-1.3-0.5-2.6-0.8-3.8c-0.1-0.4-0.2-0.8-0.2-1.3c-0.1-0.7-0.2-1.4-0.4-2
			c-0.2-1.4-0.5-2.7-0.7-4c-0.1-0.7-0.3-1.4-0.4-2c0-0.1-0.1-0.2-0.1-0.4v-0.1c-0.1-0.5-0.2-0.9-0.3-1.4c-0.1-0.5-0.2-1-0.3-1.4
			c-0.3-1.1-0.7-2-1.2-2.7c0,0-0.1,0-0.2,0c-0.1,0-0.2,0-0.2,0c-0.1,0-0.2-0.1-0.2-0.1c-0.1-0.1-0.2-0.2-0.2-0.4c0-0.1,0-0.1,0-0.2
			c-0.6-0.5-1.4-0.8-2.2-1c-1.1-0.3-2.3-0.4-3.6-0.5c-0.3,0-0.6,0-1-0.1c-14.7-1-29.4,0.2-44,1.6c-2.8,0.3-5.7,0.4-8.5,0.5
			c-4.8,0.2-9.6,0.2-14.3,0.7c-0.5,0.1-1,0.1-1.4,0.2c-1.4,0.2-2.9,0.2-4.3,0.6c-2.5,0.8-3.3,3-3.5,5.4c-0.2,2.3-0.1,6.8,0,9.1v0.8
			c0.1-0.5,0.2-1.1,0.3-1.6c0,0,0.1,0,0.1,0c0.1,0,0.2,0,0.3,0.1c0,0,0,0.1,0,0.1c-0.1,0.8-0.2,1.6-0.3,2.4
			c-0.1,0.8-0.2,1.7-0.2,2.5c0,0.8,0.1,1.7,0.2,2.5c0.1,0.8,0.2,1.6,0.4,2.5c0.3,1,0.8,1.9,1.5,2.7
			C-245.2,432.7-244.2,433.5-243,434z"/>
		<path fill="none" d="M-242.5,435.3c-0.5-0.2-1-0.4-1.5-0.6c-0.2-0.1-0.4-0.3-0.7-0.4c0.3,0.6,0.6,1.1,0.9,1.7
			c0.5,0.8,1.2,1.7,1.7,2.5c0.9,0.4,1.7,0.8,2.5,1.1c-0.5-0.5-0.9-1-1.3-1.5C-241.6,437.2-242.1,436.3-242.5,435.3z"/>
		<path fill="none" d="M-159.9,430.8c-0.2,0.3-0.4,0.7-0.6,0.9c0.2,0.3,0.4,0.5,0.6,0.8c0.4,0.5,0.7,1.1,1.1,1.6
			c0.2-0.3,0.4-0.7,0.5-1c0-0.2,0.1-0.6,0.3-0.9c0,0-0.1,0-0.1,0s0,0,0.1,0c-0.5-0.2-1-0.6-1.4-1
			C-159.5,431.1-159.7,431-159.9,430.8z"/>
		<path fill="none" d="M-158.9,427c0,0.6-0.1,1.2-0.3,1.8c0.4,0.1,0.8,0.5,1.1,0.8c0.3,0.1,0.4,0.3,0.5,0.4c0.1-0.5,0.1-1.1,0.2-1.6
			c-0.4-0.3-0.8-0.6-1.1-0.9C-158.6,427.3-158.8,427.2-158.9,427z"/>
		<path d="M-229.4,436.4c-0.5,0-0.9,0-1.4,0c0,0,0,0,0,0C-230.3,436.4-229.8,436.4-229.4,436.4
			C-229.4,436.4-229.4,436.4-229.4,436.4z"/>
		<path d="M-231.1,436.4c-0.5,0-1,0-1.5,0c0,0,0,0,0,0C-232.1,436.4-231.6,436.4-231.1,436.4L-231.1,436.4z"/>
		<path d="M-240.3,435.9c0.3,0.1,0.6,0.1,0.8,0.2c0,0,0,0,0,0C-239.7,436-240,435.9-240.3,435.9z"/>
		<path d="M-229.1,436.4c3.2,0,5.9,0,5.9,0C-225.2,436.4-227.1,436.4-229.1,436.4C-229.1,436.4-229.1,436.4-229.1,436.4z"/>
		<path d="M-233.2,436.4c-0.2,0-0.4,0-0.7,0C-233.6,436.4-233.4,436.4-233.2,436.4C-233.2,436.4-233.2,436.4-233.2,436.4z"/>
		<polygon points="-238.5,436.2 -238.5,436.2 -238.5,436.2 		"/>
		<path d="M-248.1,418.9c0,0,0.1,0,0.1,0C-248,418.9-248.1,418.9-248.1,418.9z"/>
		<path d="M-219.5,402.1c2.6-0.1,5.1-0.3,7.6-0.6C-214.4,401.7-217,401.9-219.5,402.1z"/>
		<path d="M-238.7,403.1c2.5-0.2,5.1-0.4,7.7-0.5C-233.6,402.7-236.2,402.9-238.7,403.1z"/>
		<path d="M-169.3,434.9c-0.2,0-0.4,0-0.7,0C-169.8,435-169.6,435-169.3,434.9z"/>
		<path d="M-227.2,402.4c2.6-0.1,5.1-0.2,7.7-0.4C-222.1,402.2-224.6,402.3-227.2,402.4z"/>
		<path d="M-250,416c0-0.7,0-1.4,0-2C-250,414.6-250,415.3-250,416z"/>
		<path d="M-201.8,400.8c2.2-0.1,4.5-0.2,6.7-0.2C-197.4,400.7-199.6,400.7-201.8,400.8z"/>
		<path d="M-173.4,435.1C-173.4,435.1-173.4,435.1-173.4,435.1c0.3,0,0.5,0,0.7,0c0,0,0,0,0,0C-172.9,435.1-173.1,435.1-173.4,435.1
			z"/>
		<path d="M-246.6,432.4c0.1,0.3,0.1,0.5,0.2,0.8c0.2,0.2,0.4,0.3,0.7,0.5c0-0.1-0.1-0.2-0.1-0.3
			C-246.1,433-246.4,432.8-246.6,432.4z"/>
		<path d="M-171.4,401.7c1.3,0.1,2.5,0.2,3.6,0.5C-168.9,401.9-170.1,401.8-171.4,401.7z"/>
		<path d="M-165.6,403.4c0,0.1,0.1,0.3,0.2,0.4C-165.5,403.7-165.5,403.6-165.6,403.4z"/>
		<path d="M-161.4,410.3l0.1,0.1c0,0,0-0.4-0.1-0.8c0,0-0.1,0-0.1-0.1C-161.5,409.8-161.4,410.1-161.4,410.3z"/>
		<path d="M-171.6,435C-171.6,435-171.6,435-171.6,435c0.3,0.1,0.6,0,0.8,0c0,0,0,0,0,0C-171.1,435-171.3,435-171.6,435z"/>
		<path d="M-242.5,403.5c1.3-0.2,2.5-0.3,3.8-0.4C-240,403.2-241.2,403.3-242.5,403.5c-3,0.3-5.6,1.2-6.7,4.2
			c-0.6,1.7-0.8,3.9-0.8,6.3c0-2.3,0.2-4.6,0.8-6.3C-248.1,404.7-245.5,403.8-242.5,403.5z"/>
		<path d="M-249.7,422.4c0-1.8-0.2-4.1-0.3-6.4C-249.9,418.3-249.7,420.6-249.7,422.4c0,0.4,0.3,0.6,0.6,0.6
			C-249.4,423-249.7,422.8-249.7,422.4z"/>
		<path d="M-249.1,423c0,2.6,0.1,5.3,0.8,7.8c0,0,0,0,0,0c0,0,0,0,0,0C-248.9,428.3-249.1,425.6-249.1,423z"/>
		<path d="M-162.4,412c0.3,1.4,0.5,2.7,0.7,4C-161.9,414.7-162.1,413.4-162.4,412z"/>
		<path d="M-161.1,419.3c0.3,1.3,0.5,2.6,0.8,3.8C-160.5,421.9-160.8,420.6-161.1,419.3z"/>
		<path d="M-163.5,406.7c0.1,0.5,0.2,0.9,0.3,1.4C-163.3,407.6-163.4,407.1-163.5,406.7c-0.3-1.1-0.7-2-1.2-2.7c0,0-0.1,0-0.2,0
			c0.1,0,0.1,0,0.2,0C-164.2,404.7-163.8,405.6-163.5,406.7z"/>
		<path d="M-160.7,429.9c-0.5,1-1.3,1.7-2.2,2.3C-162,431.6-161.2,430.9-160.7,429.9c-0.1-0.2,0-0.3,0.2-0.4c0-0.2,0.1-0.3,0.1-0.5
			c0,0.2-0.1,0.4-0.2,0.5C-160.7,429.6-160.8,429.7-160.7,429.9z"/>
		<path d="M-160.4,429c0-0.2,0.1-0.4,0.2-0.7c0.2-0.8,0.2-1.7,0.2-2.5c0,0.9,0,1.7-0.2,2.5C-160.3,428.5-160.3,428.8-160.4,429z"/>
		<path d="M-163.2,432.5c-0.7,0.3-1.5,0.6-2.3,0.8C-164.7,433.1-163.9,432.8-163.2,432.5c0-0.2,0.2-0.3,0.3-0.3
			C-163,432.2-163.2,432.3-163.2,432.5z"/>
		<path d="M-213.2,435.3c-1.9,0-3.9,0.1-5.8,0.1C-217.1,435.4-215.1,435.3-213.2,435.3c15-0.3,30.2-0.3,45.2-1.6
			c0.4,0,0.8-0.1,1.3-0.1c-0.4,0.1-0.8,0.1-1.3,0.1C-183,435-198.2,435-213.2,435.3z"/>
		<path d="M-248.1,418.9c-0.1,0.5-0.2,1.1-0.3,1.6C-248.3,420-248.2,419.4-248.1,418.9z"/>
		<path d="M-160.6,414.8c0,0,0.1,0.1,0.1,0.1c-0.1-0.5-0.2-1-0.3-1.5c-0.1,0-0.1-0.1-0.2-0.1C-160.8,413.8-160.7,414.3-160.6,414.8z
			"/>
		<path d="M-159.4,420.7C-159.4,420.7-159.4,420.7-159.4,420.7c0-0.1-0.1-0.3-0.1-0.4C-159.5,420.4-159.4,420.5-159.4,420.7z"/>
		<path d="M-159.6,430.1c0.1-0.2,0.2-0.5,0.3-0.9c0,0,0,0,0,0C-159.4,429.5-159.5,429.8-159.6,430.1z"/>
		<path d="M-159,423.4c0-0.5-0.1-1.3-0.3-2.1c0,0,0,0,0,0C-159.2,422-159.1,422.7-159,423.4z"/>
		<path d="M-161,412.1c0-0.1,0-0.2-0.1-0.3C-161,411.9-161,412-161,412.1C-161,412.1-161,412.1-161,412.1z"/>
		<path d="M-229,439.5C-228.9,439.5-228.9,439.5-229,439.5c-0.3-0.6-0.7-1.1-1-1.6c-0.3-0.5-0.5-1-0.8-1.5c-0.1,0-0.2,0-0.3,0v0.1
			C-230.7,437.6-229.8,438.7-229,439.5z"/>
		<path d="M-229.1,436.4c-0.1,0-0.2,0-0.3,0c0.5,1.1,1.2,2.1,2,3C-228,438.4-228.5,437.4-229.1,436.4z"/>
		<path d="M-224.9,403.7c-4.8,0.2-9.6,0.2-14.3,0.7c-0.5,0.1-1,0.1-1.4,0.2c0.5,0,1-0.1,1.4-0.2C-234.5,404-229.7,403.9-224.9,403.7
			z"/>
		<path d="M-230.3,440.3c0.1,0.1,0.3-0.1,0.2-0.2c-1-1.2-1.8-2.4-2.5-3.7c-0.2,0-0.4,0-0.6,0C-232.6,437.9-231.6,439.3-230.3,440.3z
			"/>
		<path d="M-247.7,419c0,0,0,0.1,0,0.1c-0.1,0.8-0.2,1.6-0.3,2.4c0.1-0.8,0.2-1.6,0.3-2.4C-247.7,419-247.7,419-247.7,419z"/>
		<path d="M-248,418.9c0.1,0,0.2,0,0.3,0.1C-247.8,418.9-247.9,418.8-248,418.9z"/>
		<path d="M-248,421.5c-0.1,0.8-0.2,1.7-0.2,2.5c0.1,0.8,0.1,1.7,0.2,2.5c-0.1-0.8-0.2-1.7-0.2-2.5
			C-248.2,423.1-248.1,422.3-248,421.5z"/>
		<path d="M-159.8,418.7c0,0.3,0.2,0.9,0.3,1.6C-159.6,419.7-159.7,419.2-159.8,418.7z"/>
		<path d="M-157,412c-0.8-3.9-2.9-7.5-6.6-8.9c0-0.1-0.1-0.1-0.1-0.2c-1.9-2.3-5.5-2.3-8.2-2.5c-2.2-0.2-4.4-0.2-6.6-0.2
			c2.2,0,4.4,0.1,6.6,0.2c2.7,0.2,6.3,0.2,8.2,2.5c0,0.1,0.1,0.1,0.1,0.2c0.8,0.3,2,4.8,2,4.7c0,0.1,0.1,0.1,0.1,0.1
			c0.7,0.4,1.4,0.7,2.1,1c0.2,0.4,0.3,0.8,0.5,1.2c-0.4-0.3-0.7-0.5-1.1-0.8c-0.5-0.3-1-0.8-1.5-1c0-0.1-0.1-0.3-0.1-0.5
			c0,0.1,0.1,1,0.2,1.8c0.3,0.2,0.5,0.3,0.8,0.4c0.6,0.3,1.2,0.6,1.9,0.9c0.1,0.5,0.3,1,0.4,1.5c-0.4-0.5-1-0.8-1.5-1.1
			c-0.5-0.3-1-0.6-1.5-0.9c0,0,0.1,0.6,0.3,1.4c0-0.1-0.1-0.3-0.1-0.4c0.1,0.1,0.2,0.2,0.3,0.2c0.5,0.3,1,0.6,1.5,0.9
			c0.4,0.3,0.7,0.6,1.2,0.7c0,0.3,0.1,0.5,0.1,0.8s0.1,0.6,0.1,0.9c-0.5-0.6-1.1-1.1-1.6-1.6c-0.5-0.3-1-0.8-1.5-1.2
			c0.1,0.4,0.2,0.8,0.2,1.3c0.2,0.2,0.5,0.3,0.6,0.5c0.8,0.6,1.5,1.1,2.3,1.5c0.1,0.6,0.2,1.2,0.2,1.8c-0.5-0.4-1.2-0.8-1.8-1.3
			c-0.4-0.3-0.7-0.7-1.1-1c0.3,1.7,0.6,3.4,0.7,3.8c0.1,0.1,0.1,0.2,0.2,0.2c0.7,0.5,1.4,1.1,2.2,1.3c0,0.5,0.1,1.1,0.1,1.5
			c-0.1-0.1-0.3-0.2-0.5-0.3c-0.5-0.3-1-0.7-1.6-0.7c0,0.2,0.1,0.4,0.1,0.6c0.3,0.2,0.8,0.4,1.1,0.6c0.3,0.2,0.6,0.4,0.9,0.6
			c0,1,0,2,0,2.9c-0.4-0.4-0.8-0.9-1.3-1.5c-0.1-0.1-0.2-0.3-0.4-0.5c0,0,0,0,0,0c0,0,0,0,0,0c0.2,0.2,0,4.8-0.2,5.4
			c0,0.1,0,0.3-0.1,0.4c0.3,0.3,0.7,0.5,1,0.8c0.2,0.2,0.4,0.4,0.6,0.6c-0.1,0.4-0.2,0.9-0.3,1.3c-0.2-0.4-0.6-0.8-1-1.2
			c-0.2-0.2-0.4-0.4-0.6-0.6c0,0-1.5,2.7-3.1,3.5c-0.3,0.2-4.7,1.1-6.6,1.4c0.2,0,0.5-0.1,0.7-0.1c0.1,0.3,0.3,0.5,0.5,0.7
			c0.3,0.4,0.7,0.8,1.1,1.2c-0.7,0-1.3,0.1-2,0.1c-0.2-0.5-0.4-1-0.7-1.4c-0.1-0.2-0.2-0.3-0.3-0.5h0h0c-0.1,0-0.3,0-0.8,0
			c0.2,0.3,0.4,0.5,0.6,0.8c0.3,0.4,0.6,0.7,0.9,1.1c-0.5,0-0.9,0.1-1.3,0.1c-0.2-0.5-0.5-1-0.7-1.5c-0.1-0.1-0.2-0.3-0.3-0.4
			c-0.3,0-0.7,0-1.1,0c0.2,0.3,0.5,0.6,0.7,0.9c0.3,0.3,0.6,0.7,0.9,1c-0.4,0-0.9,0.1-1.3,0.1c-0.2-0.4-0.4-0.8-0.7-1.4
			c-0.1-0.2-0.2-0.4-0.3-0.6c-9.5,0.3-36.8,1.2-49.8,1.3h0c15.7-0.1,31.4-0.2,47.1-1.1c0.2,0.4,0.4,0.7,0.6,1c0.2,0.3,0.4,0.7,0.8,1
			c-0.1-0.1,0-0.1,0,0c0-0.1,0.1-0.1,0.1-0.3c0-0.4-0.2-0.7-0.4-1c-0.1-0.3-0.3-0.6-0.5-0.8c0.1,0,0.3,0,0.5,0
			c0.1,0.1,0.2,0.3,0.3,0.4c0,0,0.1,0,0.1-0.1c0-0.1-0.1-0.2-0.1-0.3c0.3,0,0.5,0,0.8,0c0.1,0.3,0.2,0.6,0.4,0.8
			c0.3,0.4,0.5,0.8,0.8,1.2c-0.7,0-1.3,0.1-2,0.1c-1.4,0.1-2.8,0.1-4.4,0.1c-9.1,0.6-18.3,1.1-27.4,1.7c-8.4,0.5-16.8,1.5-25.2,1.5
			c0,0,0,0,0-0.1c-0.3-0.9-1.1-1.6-1.7-2.4c-0.3-0.5-0.6-1.2-1-1.7c0.2,0,0.4,0,0.5,0c-2.2,0-4.1-0.1-4.6-0.2
			c0.5,0.1,0.9,0.2,1.4,0.2c0.4,1.2,1.1,2.3,1.8,3.3c0.2,0.3,0.5,0.7,0.8,1c-0.3-0.1-0.7-0.1-0.9-0.2c-0.2-0.2-0.5-0.4-0.7-0.7
			c-0.4-0.5-0.8-1.1-1.1-1.6c-0.4-0.6-0.8-1.4-1.3-2h0c-0.3,0-0.6-0.1-1-0.2c0.4,1.1,1.2,2.2,1.8,3.2c0.2,0.4,0.5,0.8,0.8,1.1
			c-0.4,0-0.9-0.1-1.3-0.3c-0.4-0.9-1.3-1.5-1.9-2.2c-0.7-0.8-1.3-1.6-1.9-2.4c0.6,0.2,1.1,0.3,1.7,0.5c-1.6-0.4-3.7-1.2-5.4-2.2
			c0.3,0.8,0.7,1.8,1.2,2.6c-0.4-0.4-0.7-0.9-1-1.4c-0.4-0.5-0.7-1-0.9-1.6c-0.9-0.7-1.7-1.5-1.9-2.4c1.2,4.7,3.8,8.7,9.1,10.3
			c4.4,1.3,9,0.8,13.5,0.5c5.8-0.4,11.6-0.7,17.4-1.1c11.2-0.7,22.5-1.4,33.8-2.1c2.7-0.2,5.3-0.3,8-0.5c1.9-0.1,4.6,0.2,6.4-0.7
			c3.1-1.5,3.8-6.1,4-9.1C-155.7,422.9-155.9,417.2-157,412z M-158.9,418.3c-0.3-0.3-0.7-0.5-1-0.8c-0.1-0.4-0.2-0.9-0.3-1.3
			c0.2,0.1,0.4,0.3,0.6,0.4c0.6,0.5,1.3,1,2.1,1.3c0,0.6,0.1,1.3,0.1,1.9C-157.8,419.2-158.5,418.7-158.9,418.3z M-242.1,438.5
			c-0.5-0.8-1.2-1.7-1.7-2.5c-0.3-0.6-0.6-1.1-0.9-1.7c0.3,0.1,0.5,0.3,0.7,0.4c0.5,0.2,1,0.4,1.5,0.6c0.4,1,0.9,1.9,1.6,2.8
			c0.4,0.5,0.8,1,1.3,1.5C-240.4,439.3-241.2,438.9-242.1,438.5z M-232.6,440.7c-0.2,0-0.3,0-0.4,0c-0.8-0.7-1.4-1.3-2-2.2
			c-0.5-0.7-0.9-1.4-1.4-2.1c0.3,0,0.5,0,0.8,0c0.2,0,0.4,0,0.5,0c0.2,0.8,0.7,1.6,1.1,2.2c0.5,0.7,1,1.6,1.8,2.1
			C-232.4,440.7-232.6,440.7-232.6,440.7z M-166.7,436.8c-0.3-0.5-0.5-1.1-0.9-1.6c-0.1-0.1-0.2-0.3-0.3-0.4c0.4,0,0.7-0.1,1.1-0.1
			c0.5,0.7,1,1.4,1.6,2C-165.7,436.7-166.2,436.8-166.7,436.8z M-164.6,436.7c-0.4-0.8-0.8-1.4-1.3-2.1c0.5-0.1,0.9-0.2,1.4-0.3
			c0.2,0.4,0.5,0.8,0.8,1.2c0.3,0.3,0.5,0.7,0.8,1.1C-163.5,436.6-164.1,436.6-164.6,436.7z M-162.5,436.6c-0.3-0.8-0.7-1.8-1.2-2.5
			c0.3-0.2,0.7-0.3,1-0.5c0.2,0.3,0.5,0.6,0.7,1c0.4,0.5,0.6,1.1,1.1,1.5C-161.4,436.4-162,436.5-162.5,436.6z M-160.4,436
			L-160.4,436c-0.2-0.7-0.7-1.4-1-2c-0.1-0.2-0.3-0.5-0.5-0.8c0.3-0.2,0.5-0.4,0.8-0.6c0.1,0,0.1-0.1,0.2-0.2
			c0.1,0.2,0.3,0.4,0.5,0.6c0.4,0.5,0.9,0.9,1.3,1.4h0.1C-159.4,435-159.8,435.5-160.4,436z M-158.3,433.1c-0.1,0.3-0.3,0.7-0.5,1
			c-0.4-0.5-0.7-1.1-1.1-1.6c-0.2-0.3-0.4-0.5-0.6-0.8c0.2-0.2,0.4-0.6,0.6-0.9c0.2,0.2,0.4,0.3,0.5,0.4c0.4,0.4,0.9,0.8,1.4,1
			C-158.2,432.5-158.3,432.9-158.3,433.1z M-157.6,430c-0.1-0.1-0.2-0.3-0.5-0.4c-0.3-0.3-0.7-0.7-1.1-0.8c0.2-0.6,0.3-1.2,0.3-1.8
			c0.1,0.2,0.3,0.3,0.4,0.5c0.3,0.3,0.7,0.6,1.1,0.9C-157.5,428.9-157.5,429.5-157.6,430z M-157.3,426.9c0,0.4,0,0.8-0.1,1.1
			c-0.3-0.3-0.6-0.6-0.8-1c-0.2-0.4-0.4-0.7-0.7-1c0-0.4,0-0.9,0-1.3c0-0.1,0-0.2,0-0.3c0.5,0.5,1.1,0.9,1.6,1.3
			C-157.3,426.1-157.3,426.5-157.3,426.9z"/>
		<path d="M-237.9,435.3c-0.9-0.1-1.7-0.2-2.6-0.4C-239.6,435.1-238.8,435.2-237.9,435.3z"/>
		<path d="M-240.5,434.9c-0.9-0.2-1.7-0.5-2.5-0.8C-242.2,434.4-241.4,434.7-240.5,434.9z"/>
	</g>
</g>
<g>
	<path fill="#FF4E63" stroke="#FF4E63" stroke-miterlimit="10" d="M-161.3,417.8c0.6,3.2,1.7,6.9,1.1,10.2c-0.1,0.5-0.2,0.9-0.4,1.3
		c-0.1,0.1-0.2,0.2-0.2,0.4c-0.5,1-1.3,1.8-2.2,2.3l0,0c-0.2-0.1-0.3,0.1-0.3,0.3c-1.4,0.7-3.1,1.1-4.8,1.2
		c-14.9,1.3-30.2,1.3-45.2,1.6c-7.7,0.1-15.7,0.6-23.4,0.1c-3.4-0.2-7.2-1-9.5-3.7c-0.7-0.8-1.2-1.8-1.5-2.7c-0.3-1.6-0.5-3.3-0.6-5
		c0.1-1.7,0.3-3.3,0.5-4.9c0-0.3-0.4-0.4-0.4-0.1c-0.1,0.5-0.2,1.1-0.3,1.6c0-0.3,0-0.5,0-0.8l0,0c-0.1-2.3-0.2-6.8,0-9.1
		c0.2-2.4,1-4.6,3.5-5.4c1.8-0.6,3.9-0.6,5.7-0.8c7.6-0.8,15.3-0.5,22.8-1.2c14.6-1.4,29.3-2.6,44-1.6c2.6,0.2,5.1,0.3,6.8,1.6
		c0,0.3,0.1,0.6,0.5,0.7c0.2,0,0.3,0.1,0.4,0.1c0.6,0.7,1,1.5,1.2,2.7c0.2,0.9,0.4,1.9,0.6,2.8v0.1c0,0.1,0.1,0.3,0.1,0.4
		C-162.3,412.4-161.8,415.1-161.3,417.8z"/>
	<path d="M-246.4,433.1c-0.1-0.2-0.2-0.5-0.2-0.8c0.2,0.4,0.5,0.6,0.8,0.9c0,0.1,0.1,0.2,0.1,0.3c1.7,1.1,3.8,1.8,5.4,2.2
		c0.3,0.1,0.5,0.1,0.8,0.1c0,0,0,0,0,0c0.4,0.1,0.7,0.1,1,0.2h0l0,0c0,0,0,0,0,0c0.5,0.1,2.4,0.2,4.6,0.2c0.2,0,0.4,0,0.7,0
		c0,0,0,0,0,0c0.2,0,0.4,0,0.6,0c0,0,0,0,0,0c0.5,0,1,0,1.5,0v0c0.1,0,0.2,0,0.3,0c0,0,0,0,0,0c0.5,0,0.9,0,1.4,0c0,0,0,0,0,0
		c0.1,0,0.2,0,0.3,0c0,0,0,0,0,0c2,0,3.9,0,5.9,0c13-0.1,40.3-0.9,49.8-1.3c0,0,0,0,0,0c0.3,0,0.5,0,0.7,0c0,0,0,0,0,0
		c0.4,0,0.8,0,1.1,0c0,0,0,0,0-0.1c0.3,0,0.5,0,0.8,0c0,0,0,0,0,0c0.4,0,0.7,0,0.8,0h0c0.2,0,0.5,0,0.7,0c1.9-0.2,6.4-1.2,6.6-1.4
		c1.6-0.8,3.1-3.5,3.1-3.5c0.1-0.3,0.2-0.6,0.3-0.9c0,0,0,0,0,0c0-0.1,0.1-0.3,0.1-0.4c0.2-0.6,0.4-5.2,0.2-5.4c0,0,0,0,0,0
		c-0.1-0.7-0.2-1.4-0.3-2.1c0,0,0,0,0,0c0-0.2-0.1-0.4-0.1-0.6c0,0,0,0,0,0c0-0.1-0.1-0.3-0.1-0.4c-0.1-0.7-0.3-1.3-0.3-1.6
		c-0.1-0.4-0.4-2.1-0.7-3.8c0,0-0.1-0.1-0.1-0.1c-0.1-0.5-0.2-1-0.3-1.5c0.1,0,0.1,0.1,0.2,0.1c-0.1-0.5-0.2-0.9-0.2-1.3
		c0,0,0,0,0,0c0-0.1,0-0.2,0-0.3c-0.2-0.8-0.3-1.4-0.3-1.4l-0.1-0.1c0-0.2-0.1-0.5-0.1-0.8c0,0,0.1,0,0.1,0.1
		c-0.1-0.7-0.2-1.6-0.2-1.8c0,0.1-1.2-4.4-2-4.7c0-0.1-0.1-0.1-0.1-0.2c-1.9-2.3-5.5-2.3-8.2-2.5c-2.2-0.1-4.4-0.2-6.6-0.2
		c-1.1,0-2.2,0-3.3,0s-2.2,0.1-3.3,0.1c-3.4,0.2-6.7,0.2-10.1,0.3c-2.2,0.1-4.5,0.1-6.7,0.2c-3.3,0.1-6.7,0.3-10.1,0.7
		c-2.5,0.3-5.1,0.4-7.6,0.6s-5.1,0.2-7.7,0.4c-1.3,0.1-2.6,0.1-3.8,0.2c-2.6,0.1-5.1,0.3-7.7,0.5c-1.3,0.1-2.5,0.2-3.8,0.4
		c-3,0.3-5.6,1.2-6.7,4.2c-0.6,1.7-0.8,3.9-0.8,6.3c0,0.7,0,1.3,0,2c0.1,2.4,0.2,4.7,0.3,6.4c0,0.4,0.3,0.6,0.6,0.6
		c0,2.6,0.2,5.3,0.8,7.8c0,0,0,0,0,0C-248,431.7-247.3,432.5-246.4,433.1z M-248,426.5c-0.1-0.8-0.2-1.7-0.2-2.5
		c0-0.9,0.1-1.7,0.2-2.5c0.1-0.8,0.2-1.6,0.3-2.4c0,0,0-0.1,0-0.1c0-0.1-0.2-0.1-0.3-0.1c0,0-0.1,0-0.1,0c-0.1,0.5-0.2,1.1-0.3,1.6
		v-0.8c-0.1-2.3-0.2-6.8,0-9.1c0.2-2.4,1-4.6,3.5-5.4c1.3-0.4,2.8-0.5,4.3-0.6c0.5,0,1-0.1,1.4-0.2c4.7-0.4,9.5-0.5,14.3-0.7
		c2.9-0.1,5.7-0.2,8.5-0.5c14.6-1.4,29.3-2.6,44-1.6c0.3,0,0.6,0,1,0.1c1.3,0.1,2.5,0.2,3.6,0.5c0.8,0.2,1.6,0.5,2.2,1
		c0,0.1,0,0.2,0,0.2c0,0.1,0.1,0.3,0.2,0.4c0.1,0,0.1,0.1,0.2,0.1c0,0,0.1,0,0.2,0c0.1,0,0.2,0,0.2,0c0.5,0.7,0.9,1.6,1.2,2.7
		c0.1,0.5,0.2,0.9,0.3,1.4c0.1,0.5,0.2,0.9,0.3,1.4v0.1c0,0.2,0.1,0.3,0.1,0.4c0.2,0.7,0.3,1.4,0.4,2c0.3,1.4,0.5,2.7,0.7,4
		c0.1,0.7,0.2,1.4,0.4,2c0.1,0.4,0.2,0.8,0.2,1.3c0.3,1.3,0.5,2.6,0.8,3.8c0.1,0.9,0.2,1.7,0.3,2.6c0,0.9,0,1.7-0.2,2.5
		c0,0.3-0.1,0.5-0.2,0.7c-0.1,0.2-0.1,0.4-0.1,0.5c-0.2,0.1-0.3,0.2-0.2,0.4c-0.5,1-1.3,1.7-2.2,2.3c-0.1,0-0.3,0.1-0.3,0.3
		c-0.7,0.3-1.5,0.6-2.3,0.8c-0.4,0.1-0.8,0.2-1.2,0.2s-0.8,0.1-1.3,0.1c-15,1.3-30.2,1.3-45.2,1.6c-1.9,0-3.9,0.1-5.8,0.1
		c-5.9,0.2-11.8,0.3-17.6,0c-0.4,0-0.9-0.1-1.3-0.1c-0.9-0.1-1.7-0.2-2.6-0.4s-1.7-0.5-2.5-0.8c-1.2-0.5-2.3-1.3-3.1-2.3
		c-0.7-0.8-1.2-1.7-1.5-2.7C-247.7,428.1-247.9,427.3-248,426.5z"/>
</g>
</svg>
