<?xml version="1.0" encoding="utf-8"?>
<!-- Generator: Adobe Illustrator 19.0.0, SVG Export Plug-In . SVG Version: 6.00 Build 0)  -->
<svg version="1.2" baseProfile="tiny" id="Слой_1"
	 xmlns="http://www.w3.org/2000/svg" xmlns:xlink="http://www.w3.org/1999/xlink" x="0px" y="0px" viewBox="0 0 131.3 22.6"
	 xml:space="preserve">
<g>
	<path fill="#808080" d="M131.3,10c-5.3,0-8-1.8-10.5-3.3c-2.3-1.4-4.2-2.7-8.3-2.7s-6.1,1.2-8.3,2.7c-2.4,1.6-5.2,3.3-10.5,3.3
		c-5.3,0-8-1.8-10.5-3.3C81.1,5.2,79.1,4,75,4c-4.1,0-6,1.2-8.3,2.7C64.3,8.2,61.5,10,56.3,10c-5.3,0-8-1.8-10.5-3.3
		C43.6,5.2,41.6,4,37.5,4c-4.1,0-6,1.2-8.3,2.7C26.8,8.2,24,10,18.8,10s-8-1.8-10.5-3.3C6,5.2,4.1,4,0,4V0c5.3,0,8,1.8,10.5,3.3
		C12.7,4.8,14.7,6,18.8,6s6-1.2,8.3-2.7C29.5,1.8,32.2,0,37.5,0c5.3,0,8,1.8,10.5,3.3C50.2,4.8,52.2,6,56.3,6c4.1,0,6.1-1.2,8.3-2.7
		C67,1.8,69.8,0,75,0c5.3,0,8,1.8,10.5,3.3C87.7,4.8,89.7,6,93.8,6c4.1,0,6.1-1.2,8.3-2.7c2.4-1.6,5.2-3.3,10.5-3.3s8,1.8,10.5,3.3
		c2.3,1.4,4.2,2.7,8.3,2.7V10z"/>
</g>
<g>
	<path fill="#808080" d="M131.3,22.6c-5.3,0-8-1.8-10.5-3.3c-2.3-1.4-4.2-2.7-8.3-2.7s-6.1,1.2-8.3,2.7c-2.4,1.6-5.2,3.3-10.5,3.3
		c-5.3,0-8-1.8-10.5-3.3c-2.3-1.4-4.2-2.7-8.3-2.7c-4.1,0-6,1.2-8.3,2.7c-2.4,1.6-5.2,3.3-10.5,3.3c-5.3,0-8-1.8-10.5-3.3
		c-2.3-1.4-4.2-2.7-8.3-2.7c-4.1,0-6,1.2-8.3,2.7c-2.4,1.6-5.2,3.3-10.5,3.3s-8-1.8-10.5-3.3C6,17.8,4.1,16.6,0,16.6v-4
		c5.3,0,8,1.8,10.5,3.3c2.3,1.4,4.2,2.7,8.3,2.7s6-1.2,8.3-2.7c2.4-1.6,5.2-3.3,10.5-3.3c5.3,0,8,1.8,10.5,3.3
		c2.3,1.4,4.2,2.7,8.3,2.7c4.1,0,6.1-1.2,8.3-2.7c2.4-1.6,5.2-3.3,10.5-3.3c5.3,0,8,1.8,10.5,3.3c2.3,1.4,4.2,2.7,8.3,2.7
		c4.1,0,6.1-1.2,8.3-2.7c2.4-1.6,5.2-3.3,10.5-3.3s8,1.8,10.5,3.3c2.3,1.4,4.2,2.7,8.3,2.7V22.6z"/>
</g>
</svg>
