<?xml version="1.0" encoding="utf-8"?>
<!-- Generator: Adobe Illustrator 21.1.0, SVG Export Plug-In . SVG Version: 6.00 Build 0)  -->

<svg version="1.2" baseProfile="tiny" id="Слой_2"
	 xmlns="http://www.w3.org/2000/svg" xmlns:xlink="http://www.w3.org/1999/xlink" x="0px" y="0px" viewBox="0 0 94.1 41.8"
	 overflow="scroll" xml:space="preserve">
	 <style>
	<!-- path {
  stroke-dasharray: 1000;
  stroke-dashoffset: 0;
  animation: dash2 10s linear;
}

@keyframes dash2 {
  from {
    stroke-dashoffset: 1000;
  }
  to {
    stroke-dashoffset: 0;
  }
} -->
svg{
	fill: red;
}
</style>
<path d="M93,11.9c-0.8-3.9-2.9-7.5-6.6-9c-0.1-0.1-0.1-0.1-0.1-0.2c-2-2.2-5.5-2.3-8.2-2.5c-4.4-0.3-8.8-0.3-13.2-0.1
	C55.8,0.6,47,0.5,38,1.4c-10.1,1-20.5,0.9-30.6,2C4.5,3.7,1.9,4.6,0.8,7.6c-1.4,3.8-0.6,10.7-0.5,14.7c0,0.4,0.3,0.6,0.6,0.6
	C0.8,30.4,2.7,38.5,10.8,41c4.3,1.3,9,0.8,13.5,0.5c5.8-0.4,11.6-0.7,17.4-1.1c11.3-0.7,22.6-1.4,33.9-2.1c2.7-0.2,5.3-0.3,8-0.5
	c2-0.1,4.6,0.2,6.4-0.7c3.1-1.5,3.8-6.1,4-9.1C94.3,22.8,94.1,17.1,93,11.9z M92.6,20.1c0,0.5,0,1.1,0.1,1.6
	c-0.2-0.1-0.4-0.2-0.5-0.3c-0.5-0.3-1-0.7-1.6-0.7c-0.1-0.7-0.3-1.3-0.4-2c0.1,0.1,0.2,0.1,0.2,0.2C91.1,19.3,91.8,19.9,92.6,20.1
	C92.6,20.1,92.6,20.1,92.6,20.1z M92.6,19.7c-0.4-0.6-1.1-1.1-1.7-1.6c-0.3-0.3-0.6-0.5-1-0.8c-0.1-0.4-0.2-0.9-0.3-1.3
	c0.2,0.2,0.4,0.3,0.6,0.5c0.7,0.5,1.4,1,2.1,1.3C92.5,18.5,92.6,19.1,92.6,19.7z M92.4,17.1c-0.6-0.5-1.2-0.9-1.7-1.3
	c-0.4-0.3-0.8-0.7-1.2-1.1c-0.1-0.5-0.2-1-0.3-1.5c0.3,0.2,0.6,0.4,0.8,0.6c0.7,0.5,1.5,1,2.3,1.5C92.3,15.9,92.4,16.5,92.4,17.1z
	 M92,13.9c0,0.3,0.1,0.6,0.1,0.9c-0.6-0.5-1.2-1-1.8-1.5c-0.5-0.4-0.9-0.9-1.5-1.2c0-0.2-0.1-0.5-0.1-0.7c0.1,0.1,0.2,0.1,0.3,0.2
	c0.5,0.3,1,0.6,1.5,0.9c0.4,0.3,0.8,0.6,1.2,0.7C91.9,13.4,92,13.6,92,13.9z M91.7,12.3c-0.4-0.4-1-0.8-1.5-1
	c-0.5-0.3-1-0.6-1.5-0.9c0,0-0.1-0.1-0.1-0.1c0-0.3-0.1-0.6-0.1-0.8c0.3,0.2,0.6,0.3,0.9,0.5c0.6,0.3,1.2,0.6,1.9,0.9
	C91.5,11.3,91.6,11.8,91.7,12.3z M88.4,7.8c0.7,0.4,1.4,0.7,2.1,1c0.2,0.4,0.4,0.8,0.5,1.2c-0.3-0.3-0.7-0.5-1-0.8
	c-0.5-0.3-1-0.8-1.6-0.9c0-0.2-0.1-0.4-0.1-0.5C88.3,7.8,88.4,7.8,88.4,7.8z M1.8,23.9c0.1-1.7,0.3-3.3,0.6-4.9
	c0-0.3-0.4-0.4-0.4-0.1c-0.1,0.5-0.2,1.1-0.3,1.6c0-0.3,0-0.5,0-0.8c0,0,0,0,0,0c-0.1-2.3-0.2-6.8,0-9.1c0.2-2.4,1-4.6,3.5-5.4
	c1.8-0.6,3.9-0.6,5.7-0.8c7.5-0.7,15.3-0.5,22.8-1.2c14.6-1.4,29.3-2.6,44-1.6c2.6,0.2,5.1,0.3,6.8,1.6c-0.1,0.3,0.1,0.6,0.5,0.7
	c0.2,0,0.3,0.1,0.5,0.1c0.5,0.7,1,1.5,1.2,2.7c0.2,0.9,0.4,1.9,0.6,2.8c0,0,0,0.1,0,0.1c0,0.1,0.1,0.3,0.1,0.4
	c0.5,2.7,0.9,5.4,1.4,8.1c0.6,3.2,1.7,6.9,1.1,10.2c-0.1,0.5-0.2,0.9-0.4,1.3c-0.1,0.1-0.2,0.2-0.2,0.3c-0.5,1-1.2,1.8-2.2,2.3
	c0,0,0,0,0,0c-0.2-0.1-0.3,0.1-0.3,0.2c-1.4,0.7-3.1,1.1-4.8,1.2c-15,1.3-30.2,1.3-45.2,1.6c-7.7,0.1-15.7,0.6-23.4,0.1
	c-3.4-0.2-7.2-1-9.5-3.7c-0.7-0.8-1.2-1.8-1.5-2.7C2,27.2,1.9,25.6,1.8,23.9z M4.5,34.7C4,34,3.6,33.2,3.3,32.4
	c0.3,0.3,0.5,0.6,0.8,0.8c0,0,0,0,0,0c0.3,0.9,0.8,2,1.3,2.9C5.1,35.7,4.8,35.2,4.5,34.7z M8.1,38.4c-0.5-0.9-1.1-1.7-1.7-2.5
	c-0.3-0.5-0.6-1.1-0.9-1.7c0.2,0.1,0.4,0.3,0.7,0.4c0.5,0.2,1,0.4,1.5,0.6c0.4,1,0.9,1.9,1.6,2.8c0.4,0.5,0.8,1,1.3,1.5
	C9.6,39.2,8.8,38.8,8.1,38.4z M11.8,40c-0.4-0.8-1.3-1.5-1.9-2.2c-0.7-0.8-1.3-1.6-1.9-2.4c0.8,0.3,1.6,0.4,2.5,0.6
	c0.4,1.1,1.2,2.2,1.8,3.2c0.2,0.3,0.5,0.8,0.8,1.1C12.7,40.2,12.2,40.1,11.8,40z M14.5,40.5c-0.2-0.3-0.5-0.5-0.7-0.7
	c-0.4-0.5-0.8-1.1-1.1-1.6c-0.4-0.6-0.8-1.4-1.3-2c0.5,0.1,0.9,0.1,1.4,0.2c0.4,1.2,1.2,2.3,1.8,3.3c0.2,0.4,0.5,0.7,0.8,1
	C15.2,40.5,14.8,40.5,14.5,40.5z M17.3,40.6c-0.1,0-0.2,0-0.4,0c-0.8-0.7-1.4-1.3-2-2.2c-0.4-0.7-0.9-1.4-1.3-2.1
	c0.3,0,0.6,0,0.8,0.1c0.2,0,0.3,0,0.5,0c0.2,0.8,0.7,1.5,1.1,2.2c0.5,0.7,1,1.6,1.8,2.1C17.6,40.6,17.4,40.6,17.3,40.6z M71,37.4
	c-9.1,0.6-18.3,1.1-27.4,1.7c-8.3,0.5-16.8,1.5-25.2,1.5c0,0,0-0.1,0-0.2c-0.4-0.9-1.2-1.6-1.7-2.4c-0.4-0.5-0.7-1.1-1-1.7
	c0.4,0,0.8,0,1.2,0c0.7,1.5,1.6,2.9,2.9,3.9c0.1,0.1,0.3,0,0.2-0.2c-0.9-1.2-1.8-2.4-2.5-3.7c0.5,0,1,0,1.5,0c0,0,0,0.1,0,0.1
	c0.3,1.1,1.2,2.2,2.1,3c0.1,0.1,0.1,0,0.1-0.1c-0.4-0.5-0.8-1-1.1-1.5c-0.3-0.5-0.5-1-0.8-1.5c0,0,0,0,0,0c0.5,0,0.9,0,1.4,0
	c0.4,1.1,1.2,2.1,2,3c0,0,0.1,0,0,0c-0.7-0.9-1.2-2-1.7-3c2,0,3.9,0,5.9,0c15.7-0.1,31.4-0.3,47.1-1.1c0.1,0.3,0.4,0.6,0.6,0.9
	c0.2,0.3,0.4,0.7,0.7,0.9c0.1,0.1,0.2,0,0.2-0.1c0-0.4-0.2-0.7-0.4-1c-0.2-0.3-0.3-0.5-0.5-0.8c0.2,0,0.4,0,0.5,0
	c0.1,0.1,0.2,0.3,0.3,0.4c0,0.1,0.1,0,0.1-0.1c0-0.1-0.1-0.2-0.1-0.3c0.3,0,0.5,0,0.8-0.1c0.1,0.3,0.3,0.5,0.5,0.8
	c0.2,0.4,0.5,0.8,0.8,1.2C75.2,37.2,73.1,37.3,71,37.4z M77.6,37c-0.2-0.4-0.3-0.9-0.5-1.3c-0.1-0.2-0.2-0.4-0.3-0.6
	c0.2,0,0.4,0,0.7,0c0.2,0.3,0.5,0.6,0.6,0.9c0.2,0.3,0.5,0.7,0.9,1C78.4,37,78,37,77.6,37z M79.4,36.9c-0.1-0.5-0.5-1-0.7-1.4
	c-0.1-0.1-0.2-0.3-0.3-0.5c0.3,0,0.5,0,0.8-0.1c0.1,0.3,0.4,0.6,0.5,0.8c0.3,0.4,0.6,0.7,0.9,1.1C80.2,36.9,79.8,36.9,79.4,36.9z
	 M81,36.8c-0.3-0.5-0.5-1-0.7-1.5c-0.1-0.2-0.2-0.3-0.3-0.5c0.5,0,0.9-0.1,1.4-0.1c0.1,0.2,0.3,0.4,0.5,0.7c0.4,0.4,0.7,0.8,1.1,1.2
	C82.4,36.7,81.7,36.8,81,36.8z M83.3,36.7c-0.3-0.5-0.5-1-0.9-1.5c-0.1-0.1-0.2-0.3-0.3-0.4c0.4,0,0.7-0.1,1.1-0.1
	c0.5,0.7,1,1.3,1.6,2C84.3,36.6,83.8,36.6,83.3,36.7z M85.3,36.5c-0.4-0.7-0.8-1.4-1.3-2.1c0.5-0.1,0.9-0.2,1.4-0.3
	c0.3,0.4,0.6,0.8,0.8,1.2c0.3,0.4,0.5,0.8,0.8,1.1C86.5,36.5,85.9,36.5,85.3,36.5z M87.5,36.4c-0.3-0.9-0.7-1.8-1.2-2.5
	c0.4-0.1,0.7-0.3,1-0.5c0.3,0.3,0.5,0.7,0.7,1c0.3,0.5,0.6,1.1,1.1,1.6C88.6,36.3,88,36.4,87.5,36.4z M89.5,35.8
	C89.5,35.8,89.4,35.9,89.5,35.8c-0.1-0.7-0.6-1.4-0.9-2c-0.2-0.3-0.3-0.6-0.5-0.8c0.3-0.2,0.5-0.4,0.8-0.6c0.1-0.1,0.1-0.2,0.2-0.2
	c0.2,0.2,0.4,0.4,0.5,0.7c0.4,0.5,0.9,0.9,1.3,1.4c0,0,0.1,0,0.1,0C90.6,34.9,90.2,35.4,89.5,35.8z M91.6,33.1
	c-0.2,0.4-0.3,0.7-0.5,1c0,0,0,0,0,0c-0.4-0.5-0.7-1.1-1-1.6c-0.2-0.3-0.4-0.5-0.6-0.8c0.2-0.3,0.4-0.6,0.6-0.9
	c0.2,0.1,0.3,0.2,0.4,0.4c0.4,0.4,0.9,0.8,1.4,1c0,0,0,0,0,0C91.8,32.4,91.7,32.8,91.6,33.1z M92,31.8c-0.3-0.4-0.7-0.8-1-1.2
	c-0.2-0.2-0.4-0.4-0.6-0.6c0.1-0.3,0.2-0.6,0.3-0.9c0.3,0.3,0.7,0.5,1,0.8c0.2,0.2,0.4,0.4,0.6,0.6C92.3,31,92.2,31.4,92,31.8z
	 M92.4,29.9c-0.1-0.2-0.3-0.3-0.4-0.4c-0.3-0.3-0.7-0.7-1.1-0.8c0,0,0,0,0,0c0.1-0.6,0.2-1.2,0.3-1.8c0.1,0.2,0.3,0.3,0.4,0.5
	c0.3,0.3,0.7,0.6,1.1,0.9C92.6,28.8,92.5,29.4,92.4,29.9z M92.7,26.8c0,0.4,0,0.8-0.1,1.1c-0.3-0.3-0.5-0.7-0.8-1
	c-0.2-0.3-0.4-0.7-0.7-1c0-0.4,0-0.9,0-1.3c0-0.1,0-0.2,0-0.3c0.5,0.4,1.1,0.8,1.6,1.3C92.7,26,92.7,26.4,92.7,26.8z M91.4,23.9
	c-0.1-0.1-0.3-0.3-0.5-0.5c-0.1-0.7-0.2-1.4-0.3-2.1c0.4,0.2,0.8,0.4,1.1,0.6c0.3,0.2,0.6,0.4,0.9,0.6c0,1,0,1.9,0,2.9
	C92.3,24.9,91.9,24.4,91.4,23.9z"/>
<path d="M24.5,39c-0.4-0.6-0.7-1.3-1.2-1.8c-0.1-0.1-0.3,0-0.3,0.2c0.3,0.7,0.9,1.2,1.3,1.8C24.4,39.2,24.6,39.1,24.5,39z"/>
</svg>
