<?xml version="1.0" encoding="utf-8"?>
<!-- Generator: Adobe Illustrator 21.1.0, SVG Export Plug-In . SVG Version: 6.00 Build 0)  -->
<svg version="1.2" baseProfile="tiny" id="Слой_1"
	 xmlns="http://www.w3.org/2000/svg" xmlns:xlink="http://www.w3.org/1999/xlink" x="0px" y="0px" viewBox="0 0 36.1 30.2"
	 overflow="scroll" xml:space="preserve">
<g>
	<g>
		<path fill="none" d="M33,5.3c-1.4,0.4-2.4,0.5-2.6,0.3c-0.2-0.2-0.3-2-1.3-3.4s-2.9-2.1-5.4-1.7c-2.5,0.4-4.4,2-5.4,3.4
			s-1.6,4.5-2.2,5.8c-0.6,1.2-1.2,1.2-2.5,1s-3.5-1.9-5.4-3.5S2.6,2.1,2.5,2.1c-0.1,0-0.6,1.8-0.6,3c0,1.4,0.6,2.7,0.9,2.6
			C3,7.6,3.1,7.9,3.3,8.1s-0.5,2.6,0.1,4.3c0.6,1.8,1.7,2.2,1.9,2.4s-0.1,1.5,0.3,2.7c0.3,1.2,2,1.8,2.1,1.8s0.3,0.4,0.2,0.6
			c-0.1,0.2-1.5,0.6-2.9,1.2c-1.4,0.6-3.4,0.4-3.6,0.4c-0.2,0,1.3,1.3,2.8,2.1S7.6,25,7.7,25s-0.4-1.1-0.6-1.4
			c-0.2-0.2,0.3-0.3,0.5-0.2s1,1.7,1,1.8c0,0.2,0.9,0.2,1,0.3c0.2,0-0.5-1.3-0.6-1.5c0-0.2,0.3-0.4,0.5-0.4s0.9,1.8,1,2
			c0.2,0.2,1,0.3,1.1,0.3c0.2,0-0.7-1.5-0.8-1.8c-0.1-0.2,0.4-0.2,0.6-0.2c0.2,0,1,2,1,2.1c0.1,0.1,0.9,0.1,1,0.1s-0.8-1.7-1-2
			c-0.1-0.3,0.2-0.5,0.4-0.4s1,2,1.1,2.2s0.7,0.2,0.9,0.1c0.2-0.1-0.8-1.9-0.9-2.1c-0.1-0.2,0.3-0.6,0.5-0.5s1.2,2.5,1.3,2.6
			s0.9,0,1-0.1c0.1,0-1-2-1.1-2.2c-0.1-0.1,0.2-0.4,0.3-0.4c0.2,0,1.3,2.4,1.4,2.5c0.1,0.2,0.9-0.1,1-0.2c0.1-0.1-1.2-2.7-1.4-2.9
			s0.3-0.4,0.5-0.4s1.4,2.8,1.5,3c0.2,0.2,0.5-0.1,0.6-0.2c0.1-0.1-1.1-2.2-1.4-2.6c-0.2-0.3,0.3-0.6,0.4-0.6c0.1,0,1.3,2.8,1.4,3
			s0.9-0.3,0.9-0.3s-1.5-2.6-1.7-2.7c-0.2-0.2,0.1-0.6,0.4-0.6c0.2,0,1.8,3,1.8,3.1c0.1,0.1,0.7-0.4,0.8-0.6c0.1-0.2-1.8-3.1-2-3.4
			c-0.1-0.2,0.3-0.7,0.5-0.7s1.9,3.7,2.1,3.8c0.2,0.1,0.6-0.2,0.6-0.4c0.1-0.2-1.7-3.2-1.8-3.5c-0.2-0.3,0.2-0.6,0.3-0.6
			c0.2-0.1,1.9,3.6,2,3.7c0.1,0,0.7-0.8,0.8-0.9c0.1-0.1-1.7-3.3-1.8-3.6c-0.2-0.3,0.3-0.7,0.5-0.7s1.8,3.6,1.8,3.8
			c0.1,0.2,0.5-0.5,0.6-0.6c0.1-0.2-1.5-2.9-1.7-3.3c-0.2-0.4,0.2-0.8,0.3-0.8c0.2,0,1.6,3.5,1.8,3.6c0.1,0,0.6-0.7,0.6-0.8
			s-1.8-3.2-1.9-3.4c-0.2-0.2,0.1-0.9,0.2-0.9c0.2,0,1.8,3.8,1.9,3.9c0.1,0.1,0.5-0.5,0.5-0.7c-0.1-0.2-1.7-3.3-1.8-3.8
			c-0.2-0.5,0.1-0.9,0.2-0.9c0.2,0,1.8,4.1,1.8,4.1c0.1,0,0.3-0.4,0.3-0.6c0-0.2-1.5-3.1-1.6-3.4c-0.1-0.2,0.2-0.6,0.3-0.6
			c0.2,0,1.4,3.3,1.6,3.4c0.2,0.1,0.6-1,0.5-1.3c-0.1-0.2-1.7-2.9-1.7-3s0.3-0.6,0.5-0.6s1.4,2.7,1.5,2.9c0.2,0.2,0.6-0.7,0.6-1
			c0-0.2-1.4-2.3-1.5-2.5s0.2-0.7,0.3-0.7c0.2,0,1.4,2.2,1.4,2.4c0.1,0.2,0.3-0.7,0.3-1c0-0.2-1-1.4-1.1-1.7
			c-0.1-0.2,0.2-0.7,0.4-0.6c0.2,0.1,1,1.7,1,1.8c0.1,0.1,0.2,0,0.2-0.2c0.1-0.2-0.7-1.2-0.8-1.4s0.2-0.5,0.4-0.5
			c0.1,0,0.8,1.3,1,1.4c0.2,0.1,1-0.2,1.9-0.8c1-0.6,1.5-1.6,1.4-1.8c-0.2-0.2-1.5,0.6-1.8,0.6s-0.6-0.4-0.6-0.7s0.6-0.8,1.4-1.5
			c0.8-0.7,1.2-1.5,1.1-1.5C34.8,4.7,34.3,4.8,33,5.3z M4.1,6.8c-0.2,0.1-0.6,0.1-1-0.3C2.6,6.1,2.5,5.3,2.6,4.7
			c0.2-0.6,1-0.7,0.9-0.2S3.3,5.7,3.7,6C3.9,6.4,4.2,6.7,4.1,6.8z M13.7,12.6c-0.9,0-2-0.5-2.6-1c-0.6-0.6-0.3-0.9-0.1-1
			c0.4-0.2,1.1,0.8,1.9,1.2c0.8,0.5,1.5,0,1.8,0.1C15.2,11.9,14.7,12.6,13.7,12.6z M20.1,5.4c-0.2,0.3-0.7,1.2-1,2
			c-0.2,0.7-0.4,1-0.7,0.8C17.9,8,18.6,6.6,19,5.9c0.4-0.7,1.2-1.3,1.4-1.2S20.4,5.2,20.1,5.4z"/>
		<path d="M3.4,4.6C3.5,4,2.7,4.2,2.5,4.8C2.3,5.4,2.5,6.2,3,6.6C3.5,7,3.9,7,4,6.9c0.2-0.1-0.2-0.4-0.5-0.7C3.2,5.8,3.3,5,3.4,4.6z
			"/>
		<path d="M35.3,6.6c0,0,0.5-0.8,0.6-1.3s0.1-1-0.2-1.3c-0.2-0.2-1.2,0.2-2,0.4s-2.3,0.5-2.3,0.5s-1-2.9-2.6-4s-3.6-1.1-5.4-0.7
			c-1.8,0.4-3.9,1.5-4.9,2.7s-1.8,3.5-2.2,4.5c-0.3,1-0.9,2.6-1.6,2.7c-0.6,0.2-1.9-0.3-3-1c-1-0.6-3.8-3-5.3-4.2
			C5,3.6,3,1.4,2.4,1.5C1.8,1.7,1,4,1,5.7S2.4,9,2.4,9c-0.6,2.2-0.2,3.7,0.3,4.9c0.6,1.1,1.8,1.9,1.8,1.9c-0.2,0.7-0.1,1.7,0.2,2.5
			c0.2,0.8,1.7,1.8,1.7,1.8s-0.8,0.6-2.2,1c-1.3,0.4-3.8,0-4.1,0C0,21.1,0,21.5,0,21.9v0.2c0,1.1,0.1,2.6,0.1,2.9
			c0,0.5,0.3,0.9,0.8,1.2c0.4,0.3,3.9,2.1,8.8,3.4c4.9,1.3,8.7,0.2,11.6-1.1c2.9-1.3,6-5.1,8.1-8.2c2-3.1,3.4-7.6,3.4-7.6
			s0.7-0.4,1.8-1.2c1-0.8,1.4-2.2,1.5-3C36.1,7.4,35.3,6.6,35.3,6.6z M33.7,6.2c-0.8,0.7-1.4,1.2-1.4,1.5s0.2,0.7,0.6,0.7
			c0.3,0,1.7-0.8,1.8-0.6C34.9,8,34.3,9,33.3,9.6s-1.8,0.9-1.9,0.8c-0.2-0.1-0.9-1.4-1-1.4c-0.2,0-0.5,0.3-0.4,0.5s0.9,1.2,0.8,1.4
			c-0.1,0.2-0.2,0.2-0.2,0.2c-0.1-0.1-0.9-1.7-1-1.8c-0.2-0.1-0.5,0.4-0.4,0.6c0.2,0.2,1.1,1.5,1.1,1.7s-0.2,1.1-0.3,1
			c-0.1-0.2-1.3-2.4-1.4-2.4c-0.2,0-0.4,0.6-0.3,0.7c0.1,0.2,1.5,2.2,1.5,2.5c0,0.2-0.4,1.1-0.6,1c-0.2-0.2-1.4-2.9-1.5-2.9
			c-0.2,0-0.5,0.5-0.5,0.6c0,0.2,1.6,2.8,1.7,3c0.1,0.2-0.3,1.4-0.5,1.3C28.2,16.3,27,13,26.8,13c-0.2,0-0.4,0.5-0.3,0.6
			c0.1,0.2,1.6,3.1,1.6,3.4c0,0.2-0.2,0.6-0.3,0.6s-1.7-4.1-1.8-4.1c-0.2,0-0.4,0.4-0.2,0.9s1.8,3.5,1.8,3.8c0,0.2-0.4,0.8-0.5,0.7
			S25.3,15,25.2,15c-0.2,0-0.4,0.6-0.2,0.9c0.2,0.2,1.9,3.4,1.9,3.4c0,0.1-0.5,0.8-0.6,0.8c-0.2-0.1-1.6-3.6-1.8-3.6
			s-0.5,0.4-0.3,0.8c0.2,0.4,1.8,3.1,1.7,3.3s-0.5,0.8-0.6,0.6s-1.7-3.8-1.8-3.8c-0.2,0-0.6,0.4-0.5,0.7c0.2,0.3,1.9,3.5,1.8,3.6
			c-0.1,0.1-0.7,0.9-0.8,0.9c-0.1-0.1-1.8-3.8-2-3.7s-0.5,0.3-0.3,0.6s1.9,3.4,1.8,3.5c-0.1,0.2-0.5,0.5-0.6,0.4
			c-0.2-0.1-1.9-3.8-2.1-3.8c-0.2,0-0.6,0.6-0.5,0.7c0.2,0.2,2.1,3.2,2,3.4s-0.7,0.6-0.8,0.6c-0.1-0.1-1.6-3.1-1.8-3.1
			c-0.3,0-0.6,0.5-0.4,0.6c0.2,0.2,1.7,2.7,1.7,2.7s-0.7,0.5-0.9,0.3s-1.4-3-1.4-3c-0.1,0-0.6,0.3-0.4,0.6c0.2,0.3,1.4,2.5,1.4,2.6
			c-0.2,0.1-0.5,0.3-0.6,0.2c-0.2-0.2-1.4-3-1.5-3c-0.2,0-0.6,0.2-0.5,0.4c0.2,0.2,1.4,2.8,1.4,2.9c-0.1,0.1-0.9,0.3-1,0.2
			s-1.2-2.5-1.4-2.5s-0.4,0.3-0.3,0.4c0.1,0.2,1.2,2.2,1.1,2.2c-0.1,0.1-0.9,0.2-1,0.1c-0.1-0.1-1.1-2.5-1.3-2.6s-0.6,0.3-0.5,0.5
			s1,2,0.9,2.1c-0.2,0.1-0.8,0.1-0.9-0.1c-0.1-0.2-1-2.1-1.1-2.2c-0.2-0.1-0.5,0.1-0.4,0.4c0.2,0.3,1,2,1,2c-0.1,0-0.9,0-1-0.1
			s-0.9-2.1-1-2.1C11.4,23.7,11,23.7,11,24c0.1,0.2,1,1.8,0.8,1.8s-1-0.2-1.1-0.3c-0.2-0.2-0.9-2-1-2c-0.2,0-0.5,0.2-0.5,0.4
			c0.1,0.2,0.8,1.5,0.6,1.5c-0.2-0.1-1-0.2-1-0.3c0-0.2-0.8-1.8-1-1.8c-0.2-0.1-0.6,0-0.5,0.2c0.2,0.2,0.6,1.4,0.6,1.4
			c-0.1,0-2-0.6-3.5-1.4c-1.5-0.8-3-2.1-2.8-2.1s2.2,0.2,3.6-0.4c1.4-0.6,2.8-1,2.9-1.2c0.1-0.2-0.2-0.6-0.2-0.6
			c-0.1,0-1.8-0.6-2.1-1.8c-0.4-1.2-0.1-2.6-0.3-2.7c-0.2-0.2-1.4-0.6-1.9-2.4C3,10.5,3.7,8.1,3.5,8C3.3,7.8,3.2,7.5,3,7.6
			S2.1,6.3,2.1,5s0.6-3,0.6-3c0.1,0,3.8,3.5,5.7,5.1s4.2,3.3,5.4,3.5c1.3,0.2,1.8,0.2,2.5-1c0.6-1.3,1.3-4.3,2.2-5.8
			c1-1.4,2.9-3,5.4-3.4s4.4,0.3,5.4,1.7s1,3.2,1.3,3.4c0.2,0.2,1.3,0.1,2.6-0.3C34.5,4.7,35,4.6,35,4.6C34.9,4.7,34.5,5.5,33.7,6.2z
			"/>
		<path d="M18.9,5.9c-0.4,0.7-1,2.1-0.6,2.3c0.3,0.2,0.5-0.1,0.7-0.8c0.2-0.8,0.7-1.7,1-2c0.3-0.2,0.6-0.6,0.3-0.7
			C20.1,4.6,19.3,5.2,18.9,5.9z"/>
		<path d="M14.9,11.8c-0.3-0.1-1,0.4-1.8-0.1c-0.8-0.4-1.5-1.4-1.9-1.2c-0.2,0.1-0.5,0.4,0.1,1s1.7,1,2.6,1
			C14.7,12.6,15.2,11.9,14.9,11.8z"/>
	</g>
</g>
</svg>
