<?xml version="1.0" encoding="utf-8"?>
<!-- Generator: Adobe Illustrator 19.0.0, SVG Export Plug-In . SVG Version: 6.00 Build 0)  -->
<svg version="1.2" baseProfile="tiny" id="Layer_1" xmlns="http://www.w3.org/2000/svg" xmlns:xlink="http://www.w3.org/1999/xlink"
	 x="0px" y="0px" viewBox="-279 405.7 36.1 30.2" xml:space="preserve">
<g>
	<path fill="#1EA1F3" d="M-246.1,410.8c-1.4,0.4-2.4,0.5-2.6,0.3c-0.2-0.2-0.3-2-1.3-3.4c-1-1.4-2.9-2.1-5.4-1.7s-4.4,2-5.4,3.4
		s-1.6,4.5-2.2,5.8c-0.6,1.2-1.2,1.2-2.5,1c-1.3-0.2-3.5-1.9-5.4-3.5c-1.9-1.6-5.6-5.1-5.6-5.1c-0.1,0-0.6,1.8-0.6,3
		c0,1.4,0.6,2.7,0.9,2.6c0.1,0,0.2,0.3,0.4,0.4c0.2,0.2-0.5,2.6,0.1,4.3c0.6,1.8,1.7,2.2,1.9,2.4c0.2,0.2-0.1,1.5,0.3,2.7
		c0.3,1.2,2,1.8,2.1,1.8s0.3,0.4,0.2,0.6c-0.1,0.2-1.5,0.6-2.9,1.2s-3.4,0.4-3.6,0.4c-0.2,0,1.3,1.3,2.8,2.1
		c1.5,0.8,3.4,1.4,3.5,1.4s-0.4-1.1-0.6-1.4c-0.2-0.2,0.3-0.3,0.5-0.2s1,1.7,1,1.8c0,0.2,0.9,0.2,1,0.3c0.2,0-0.5-1.3-0.6-1.5
		c0-0.2,0.3-0.4,0.5-0.4c0.2,0,0.9,1.8,1,2c0.2,0.2,1,0.3,1.1,0.3c0.2,0-0.7-1.5-0.8-1.8c-0.1-0.2,0.4-0.2,0.6-0.2c0.2,0,1,2,1,2.1
		c0.1,0.1,0.9,0.1,1,0.1c0.1,0-0.8-1.7-1-2c-0.1-0.3,0.2-0.5,0.4-0.4c0.2,0.1,1,2,1.1,2.2c0.1,0.2,0.7,0.2,0.9,0.1
		c0.2-0.1-0.8-1.9-0.9-2.1c-0.1-0.2,0.3-0.6,0.5-0.5c0.2,0.1,1.2,2.5,1.3,2.6s0.9,0,1-0.1c0.1,0-1-2-1.1-2.2
		c-0.1-0.1,0.2-0.4,0.3-0.4c0.2,0,1.3,2.4,1.4,2.5c0.1,0.2,0.9-0.1,1-0.2c0.1-0.1-1.2-2.7-1.4-2.9c-0.2-0.2,0.3-0.4,0.5-0.4
		c0.2,0,1.4,2.8,1.5,3c0.2,0.2,0.5-0.1,0.6-0.2s-1.1-2.2-1.4-2.6c-0.2-0.3,0.3-0.6,0.4-0.6s1.3,2.8,1.4,3c0.2,0.2,0.9-0.3,0.9-0.3
		s-1.5-2.6-1.7-2.7c-0.2-0.2,0.1-0.6,0.4-0.6c0.2,0,1.8,3,1.8,3.1c0.1,0.1,0.7-0.4,0.8-0.6c0.1-0.2-1.8-3.1-2-3.4
		c-0.1-0.2,0.3-0.7,0.5-0.7s1.9,3.7,2.1,3.8c0.2,0.1,0.6-0.2,0.6-0.4c0.1-0.2-1.7-3.2-1.8-3.5c-0.2-0.3,0.2-0.6,0.3-0.6
		c0.2-0.1,1.9,3.6,2,3.7c0.1,0,0.7-0.8,0.8-0.9s-1.7-3.3-1.8-3.6c-0.2-0.3,0.3-0.7,0.5-0.7s1.8,3.6,1.8,3.8c0.1,0.2,0.5-0.5,0.6-0.6
		c0.1-0.2-1.5-2.9-1.7-3.3c-0.2-0.4,0.2-0.8,0.3-0.8c0.2,0,1.6,3.5,1.8,3.6c0.1,0,0.6-0.7,0.6-0.8s-1.8-3.2-1.9-3.4
		c-0.2-0.2,0.1-0.9,0.2-0.9c0.2,0,1.8,3.8,1.9,3.9c0.1,0.1,0.5-0.5,0.5-0.7c-0.1-0.2-1.7-3.3-1.8-3.8c-0.2-0.5,0.1-0.9,0.2-0.9
		c0.2,0,1.8,4.1,1.8,4.1c0.1,0,0.3-0.4,0.3-0.6c0-0.2-1.5-3.1-1.6-3.4c-0.1-0.2,0.2-0.6,0.3-0.6c0.2,0,1.4,3.3,1.6,3.4
		c0.2,0.1,0.6-1,0.5-1.3c-0.1-0.2-1.7-2.9-1.7-3c0-0.1,0.3-0.6,0.5-0.6s1.4,2.7,1.5,2.9c0.2,0.2,0.6-0.7,0.6-1
		c0-0.2-1.4-2.3-1.5-2.5c-0.1-0.2,0.2-0.7,0.3-0.7c0.2,0,1.4,2.2,1.4,2.4c0.1,0.2,0.3-0.7,0.3-1c0-0.2-1-1.4-1.1-1.7
		c0.1-0.3,0.4-0.8,0.6-0.7c0.2,0.1,1,1.7,1,1.8c0.1,0.1,0.2,0,0.2-0.2c0.1-0.2-0.7-1.2-0.8-1.4c-0.1-0.2,0.2-0.5,0.4-0.5
		c0.1,0,0.8,1.3,1,1.4s1-0.2,1.9-0.8c1-0.6,1.5-1.6,1.4-1.8c-0.2-0.2-1.5,0.6-1.8,0.6s-0.6-0.4-0.6-0.7c0-0.3,0.6-0.8,1.4-1.5
		c0.8-0.7,1.2-1.5,1.1-1.5C-244.3,410.2-244.8,410.3-246.1,410.8z M-275,412.3c-0.2,0.1-0.6,0.1-1-0.3c-0.5-0.4-0.7-1.2-0.5-1.8
		c0.2-0.6,1-0.7,0.9-0.2s-0.3,1.2,0.1,1.6C-275.2,411.9-274.9,412.2-275,412.3z M-265.3,418c-0.9,0-2-0.5-2.6-1
		c-0.6-0.6-0.3-0.9-0.1-1c0.4-0.2,1.1,0.8,1.9,1.2c0.8,0.5,1.5,0,1.8,0.1C-263.9,417.4-264.4,418-265.3,418z M-259,410.9
		c-0.2,0.3-0.7,1.2-1,2c-0.2,0.7-0.4,1-0.7,0.8c-0.5-0.2,0.2-1.6,0.6-2.3c0.4-0.7,1.2-1.3,1.4-1.2
		C-258.5,410.3-258.7,410.7-259,410.9z"/>
	<g>
		<path d="M-243.9,412.3c0,0,0.5-0.8,0.6-1.3s0.1-1-0.2-1.3c-0.2-0.2-1.2,0.2-2,0.4c-0.8,0.3-2.4,0.6-2.4,0.6s-1-2.9-2.6-4
			c-1.5-1.2-3.5-1.2-5.3-0.8s-3.9,1.5-4.9,2.7c-1,1.2-1.8,3.5-2.2,4.5c-0.3,1-0.9,2.6-1.6,2.7c-0.6,0.2-1.9-0.3-3-1
			c-1-0.6-3.8-3-5.3-4.2c-1.4-1.3-3.4-3.5-4-3.4c-0.6,0.2-1.3,2.5-1.3,4.2c0,1.7,1.4,3.3,1.4,3.3c-0.6,2.2-0.2,3.7,0.3,4.9
			c0.6,1.1,1.8,1.9,1.8,1.9c-0.2,0.7-0.1,1.7,0.2,2.5c0.2,0.8,1.7,1.8,1.7,1.8s-0.8,0.6-2.2,1c-1.3,0.4-3.8,0-4.1,0
			c-0.2,0.1,0,3.4,0,3.9s0.3,0.9,0.8,1.2c0.4,0.3,3.9,2.1,8.8,3.4c4.9,1.3,8.7,0.2,11.6-1.1c2.9-1.3,6-5.1,8.1-8.2
			c2-3.1,3.4-7.6,3.4-7.6s0.7-0.4,1.8-1.2c1-0.8,1.4-2.2,1.5-3C-243.1,413.1-243.9,412.3-243.9,412.3 M-246.3,414.2
			c0.3,0,1.7-0.8,1.8-0.6c0.1,0.2-0.4,1.1-1.4,1.7c-1,0.6-1.8,0.9-1.9,0.8c-0.2-0.1-0.9-1.4-1-1.4c-0.2,0-0.5,0.3-0.4,0.5
			c0.1,0.2,0.9,1.2,0.8,1.4c-0.1,0.2-0.2,0.2-0.2,0.2c-0.1-0.1-0.9-1.7-1-1.8c-0.2-0.1-0.5,0.4-0.4,0.6c0.2,0.2,1.1,1.5,1.1,1.7
			c0,0.2-0.2,1.1-0.3,1c-0.1-0.2-1.3-2.4-1.4-2.4c-0.1,0-0.4,0.6-0.3,0.7c0.1,0.2,1.5,2.2,1.5,2.5c0,0.2-0.4,1.1-0.6,1
			c-0.2-0.2-1.4-2.9-1.5-2.9c-0.2,0-0.5,0.5-0.5,0.6c0,0.2,1.6,2.8,1.7,3c0.1,0.2-0.3,1.4-0.5,1.3c-0.2-0.2-1.5-3.4-1.6-3.4
			c-0.2,0-0.4,0.5-0.3,0.6c0.1,0.2,1.6,3.1,1.6,3.4c0,0.2-0.2,0.6-0.3,0.6c-0.1,0-1.7-4.1-1.8-4.1c-0.2,0-0.4,0.4-0.2,0.9
			s1.8,3.5,1.8,3.8c0,0.2-0.4,0.8-0.5,0.7c-0.1-0.1-1.8-3.9-1.9-3.9s-0.4,0.6-0.2,0.9c0.2,0.2,1.9,3.4,1.9,3.4
			c0,0.1-0.5,0.8-0.6,0.8c-0.2-0.1-1.6-3.6-1.8-3.6s-0.5,0.4-0.3,0.8s1.8,3.1,1.7,3.3c-0.1,0.2-0.5,0.8-0.6,0.6
			c-0.1-0.2-1.7-3.8-1.8-3.8s-0.6,0.4-0.5,0.7c0.2,0.3,1.9,3.5,1.8,3.6c-0.1,0.1-0.7,0.9-0.8,0.9c-0.1-0.1-1.8-3.8-2-3.7
			c-0.2,0.1-0.5,0.3-0.3,0.6c0.2,0.3,1.9,3.4,1.8,3.5c-0.1,0.2-0.5,0.5-0.6,0.4c-0.2-0.1-1.9-3.8-2.1-3.8c-0.2,0-0.6,0.6-0.5,0.7
			c0.2,0.2,2.1,3.2,2,3.4c-0.1,0.2-0.7,0.6-0.8,0.6c-0.1-0.1-1.6-3.1-1.8-3.1c-0.3,0-0.6,0.5-0.4,0.6c0.2,0.2,1.7,2.7,1.7,2.7
			s-0.8,0.6-0.9,0.5c-0.1-0.1-1.4-3-1.4-3c-0.1,0-0.6,0.3-0.4,0.6c0.2,0.3,1.4,2.5,1.4,2.6c-0.2,0.1-0.5,0.3-0.6,0.2
			c-0.2-0.2-1.4-3-1.5-3c-0.2,0-0.6,0.2-0.5,0.4c0.2,0.2,1.4,2.8,1.4,2.9c-0.1,0.1-0.9,0.3-1,0.2c-0.1-0.1-1.2-2.5-1.4-2.5
			c-0.2,0-0.4,0.3-0.3,0.4c0.1,0.2,1.2,2.2,1.1,2.2c-0.1,0.1-0.9,0.2-1,0.1c-0.1-0.1-1.1-2.5-1.3-2.6c-0.2-0.1-0.6,0.3-0.5,0.5
			c0.1,0.2,1,2,0.9,2.1c-0.2,0.1-0.8,0.1-0.9-0.1c-0.1-0.2-1-2.1-1.1-2.2c-0.2-0.1-0.5,0.1-0.4,0.4c0.2,0.3,1,2,1,2
			c-0.1,0-0.9,0-1-0.1c-0.1-0.1-0.9-2.1-1-2.1c-0.2-0.1-0.6-0.1-0.6,0.2c0.1,0.2,1,1.8,0.8,1.8c-0.2,0-1-0.2-1.1-0.3
			c-0.2-0.2-0.9-2-1-2c-0.2,0-0.5,0.2-0.5,0.4c0.1,0.2,0.8,1.5,0.6,1.5c-0.2-0.1-1-0.2-1-0.3c0-0.2-0.8-1.8-1-1.8
			c-0.2-0.1-0.6,0-0.5,0.2c0,0.1,0.5,1.3,0.4,1.3s-2-0.6-3.5-1.4c-1.5-0.8-3-2.1-2.8-2.1c0.2,0,2.2,0.2,3.6-0.4
			c1.4-0.6,2.8-1,2.9-1.2c0.1-0.2-0.2-0.6-0.2-0.6c-0.1,0-1.8-0.6-2.1-1.8c-0.4-1.1-0.1-2.5-0.3-2.6c-0.2-0.2-1.4-0.6-1.9-2.4
			c-0.6-1.8,0.1-4.2-0.1-4.3c-0.2-0.2-0.4-0.5-0.5-0.4c-0.3,0-0.9-1.3-0.9-2.7c0-1.3,0.6-3,0.6-3c0.1,0,3.8,3.5,5.7,5.1
			s4.2,3.3,5.4,3.5c1.3,0.2,1.8,0.2,2.5-1c0.6-1.3,1.3-4.3,2.2-5.8c1-1.4,2.9-3,5.4-3.4c2.5-0.4,4.4,0.3,5.4,1.7s1,3.2,1.3,3.4
			c0.2,0.2,1.3,0.1,2.6-0.3c1.3-0.5,1.8-0.6,1.8-0.6c0.1,0-0.3,0.8-1.1,1.5c-0.8,0.7-1.4,1.2-1.4,1.5
			C-246.9,413.8-246.7,414.2-246.3,414.2 M-275.6,411.8c-0.4-0.3-0.3-1.1-0.2-1.5c0.1-0.6-0.7-0.4-0.9,0.1c-0.2,0.6,0,1.4,0.5,1.8
			c0.5,0.4,0.9,0.4,1,0.3C-275,412.4-275.3,412.1-275.6,411.8 M-264.3,417.5c-0.3-0.1-1,0.4-1.8-0.1c-0.8-0.4-1.5-1.4-1.9-1.2
			c-0.2,0.1-0.5,0.4,0.1,1c0.6,0.6,1.7,1,2.6,1C-264.5,418.3-264,417.6-264.3,417.5 M-258.8,410.4c-0.2-0.1-1,0.5-1.4,1.2
			c-0.4,0.7-1,2.1-0.6,2.3c0.3,0.2,0.5-0.1,0.7-0.8c0.2-0.8,0.7-1.7,1-2C-258.8,410.9-258.6,410.5-258.8,410.4"/>
	</g>
</g>
</svg>
