<?xml version="1.0" encoding="utf-8"?>
<!-- Generator: Adobe Illustrator 19.0.0, SVG Export Plug-In . SVG Version: 6.00 Build 0)  -->
<svg version="1.2" baseProfile="tiny" id="Layer_1" xmlns="http://www.w3.org/2000/svg" xmlns:xlink="http://www.w3.org/1999/xlink"
	 x="0px" y="0px" viewBox="0 0 40 28" xml:space="preserve">
<g>
	<path fill="#FFFFFF" d="M30.6,8.6c0.2-0.1,1.8,1.9,1.9,1.9c0.2,0,0.3-0.2,0.6-0.6c0.2-0.3-1.4-1.8-1.4-2c-0.1-0.2,0.2-0.4,0.4-0.5
		c0.2-0.1,1.7,1.8,1.8,1.8c0.1,0,0.5-0.6,0.5-0.6c0-0.1-1.6-1.9-1.8-2.1c-0.2-0.2,0.1-0.3,0.2-0.5c0.2-0.2,1.8,1.9,2,2
		c0.1,0.1,0.6-0.8,0.6-1c0.1-0.2-1.5-1.5-1.7-1.8C33.6,5,33.8,4.8,34,4.8c0.2-0.1,1.7,1.5,1.8,1.6c0.1,0.1,0.6-0.6,0.6-0.8
		c0-0.2-1.4-1.5-1.5-1.8c-0.2-0.2,0.1-0.6,0.2-0.6c0.2-0.1,1.7,1.8,1.8,1.8c0.1,0.1,0.6-0.6,0.6-0.8C37.4,4,36.2,3,35.9,2.8
		c-0.2-0.3-0.1-0.5,0.2-0.6c0.2-0.1,1.4,1.2,1.6,1.4c0.2,0.2,0.4-0.5,0.4-0.6c0-0.1,0-0.2-0.2-0.4c-0.2-0.1-1.2-1.4-1.5-1.7
		c-0.3-0.2-3.7,0-3.8,0.1c-0.1,0.1-1,1.2-2,2.8c-1,1.6-2.6,3.8-4.2,5.3c-1.6,1.4-2.6,1.8-3.3,1.5c-0.7-0.3-0.8-0.9-0.7-3
		c0.1-2.2,0.1-3.7,0-4.7c-0.1-1-1.5-0.9-3.4-0.8c-1.9,0.1-4.7,0.2-4.8,0.4c0,0.1,0.5,0.7,1,1.6c0.6,0.9,0.4,3,0.6,4.3
		c0.2,1.3,0.2,2.9-0.2,3.8c-0.4,1-1.4,1.3-2.2,1c-0.7-0.3-1.9-1.5-3.2-3.4C8.7,8,6.5,2.9,6.3,2.7C6.2,2.4,3.4,2.5,2.7,2.5
		C2,2.5,1.4,2.7,1.2,3c-0.8,0.9,0.6,4.4,2.2,7.5C5,13.6,6,14.9,7.8,17.3c1.8,2.4,4.5,5,5.6,5.8c1.1,0.9,3.4,1.6,3.4,1.4
		c0.1-0.2-1.6-1.8-1.7-1.9c-0.1-0.2,0.2-0.6,0.4-0.5c0.3,0.1,2.4,2.6,2.6,2.6c0.2,0.1,1,0.1,1.1,0c0.2-0.1-2.5-2.4-2.6-2.6
		c-0.2-0.2-0.1-0.6,0.3-0.6c0.5-0.2,3,3.1,3.1,3.2c0.2,0.1,1,0.2,1.1,0c0.1-0.2-3-3-3.2-3.3c-0.2-0.2,0-0.4,0.3-0.6
		c0.3-0.1,3.4,3.6,3.7,3.7c0.2,0.1,0.6-0.2,0.6-0.3c0.1-0.2-3.4-3.6-3.6-3.8c-0.1-0.2,0.2-0.6,0.4-0.6c0.2,0,3.2,3.6,3.4,3.8
		c0.2,0.2,0.1-1.4,0-1.6c0-0.2-3-2.6-3-2.8c-0.1-0.2,0.1-0.6,0.2-0.7c0.2,0,2.6,2.6,2.6,2.6c0-0.1,0.2-1.1,0.2-1.2
		c0-0.2-1.7-1.8-1.8-2c-0.2-0.2-0.2-0.5,0.2-0.6c0.2-0.1,2.1,2.1,2.1,2.1s0.4-0.6,1-0.6s1.4,0.3,2.7,1.4c1.3,1,3.3,4.1,3.5,4.2
		c0.2,0.2,0.7,0.2,1,0.2c0.2-0.1-3.1-4.2-3.2-4.4c-0.1-0.2,0.1-0.4,0.4-0.3c0.3,0,3.6,4.7,3.7,4.8c0.1,0.1,1,0.1,1.2,0.1
		c0.2,0,0.1-0.3-0.1-0.5c-0.2-0.2-2.6-3-3-3.5c-0.5-0.5-1.1-1-0.8-1.2c0.3-0.1,0.5,0,1.5,1.1c1,1.1,3.1,3.8,3.2,3.9
		c0,0,1,0.1,1.1-0.1c0.2-0.1-0.9-1.3-1.9-2.7c-1-1.4-2.6-2.6-2.9-2.9c-0.2-0.2-0.2-0.6,0.1-0.7c0.2-0.1,1,0.6,2.2,2
		c1.3,1.4,3.1,4.1,3.2,4.2c0.1,0.2,1-0.1,1-0.2c0.1-0.1-4.9-6-5-6.2c-0.2-0.2-0.3-0.5,0-0.6c0.2-0.2,0.7,0.3,1.7,1.6
		c1,1.3,3.8,4.8,3.9,5c0.1,0.2,0.1-0.6-0.4-1.1c-0.2-0.6-0.7-1.6-2.6-4c-1.8-2.4-5.1-5-5.4-5.2C29,13.6,29,13.3,29.4,13
		c0.3-0.3,1.1-0.7,1.3-0.9c0.1-0.2-1.5-1.6-1.5-1.8c0-0.2,0.2-0.2,0.4-0.3c0.2-0.1,1.7,1.6,1.8,1.7c0.2,0.1,0.6-0.3,0.7-0.5
		c0.1-0.2-1.8-1.8-1.8-2.1C30.2,8.8,30.5,8.7,30.6,8.6z M4.6,4.4c-0.2,0-1.3-0.1-1.3,0.1C3.2,4.7,3.8,6.4,3.8,6.6
		C3.7,6.8,3.4,7,3.1,6.8c-0.2-0.2-1-2.7-1-3c0.1-0.2,2.2-0.2,2.4-0.1C4.8,4,4.7,4.4,4.6,4.4z M21.2,5.2c-0.2,0.2-0.6,0.3-0.7,0
		c0-0.3,0-1.2-0.2-1.3c-0.2-0.1-1.8-0.2-2.1-0.2C18,3.6,17.9,3.2,18,3c0.1-0.1,3.1-0.1,3.2,0.1C21.3,3.2,21.4,5,21.2,5.2z"/>
	<g>
		<path d="M32.5,14.9c-0.1-0.2,0.2-0.2,1-1c0.7-0.7,3.1-3.8,5-6.1C40.2,5.5,40,4,39.9,2.6c-0.1-1.4-0.9-2.1-1.7-2.4
			c-0.8-0.3-4.7-0.2-5.4-0.1c-0.6,0.1-1,0.4-1.4,1c-0.4,0.6-2.6,4.1-3.6,5.2c-0.9,1.1-2.8,2.9-3,2.8c-0.2-0.1-0.2-4.6-0.2-5.7
			c-0.2-1-2.2-2-3.4-2.1c-1.3-0.1-6.7,0.2-7.4,0.3c-0.6,0.2-1,0.8-1,1C13,2.9,14.2,4,14.5,4.4c0.3,0.4,0.6,4.3,0.6,6
			c0,1.6-0.6,2.3-0.9,2.2c-0.2-0.1-1.3-0.5-2.5-1.9c-1.3-1.4-4.5-8.2-4.6-8.3C7,2.2,6.4,2.1,4.6,2C2.7,2,0.9,2.2,0.6,2.8
			c-1,1.6-0.5,4.9,0,6.3C1,10.5,1.9,13,3.7,15.7c1.8,2.8,4.5,5.7,7.1,8.2c2.6,2.6,4.6,3.4,5.7,3.8c1.1,0.4,3.2,0.2,5,0.2
			c1.8-0.1,2.5-0.8,2.8-1.7c0.4-0.9,0.3-3.1,0.2-3.4c-0.1-0.2-0.1-1.2,0.3-1.3c0.4,0,0.7,0.5,1.4,1.2c0.6,0.7,1.7,3.6,2.1,3.9
			c0.5,0.3,1.4,0.6,2.9,0.6c1.5,0,4.7-0.1,5.4-0.3c0.6-0.2,2-1.8,2.2-2.9c0.2-1-0.6-2.1-1.3-3.4C36.6,19.2,32.6,15.1,32.5,14.9
			 M37.6,24c-0.1-0.2-3-3.7-3.9-5c-1-1.3-1.4-1.8-1.7-1.6c-0.3,0.2-0.2,0.5,0,0.6c0.2,0.2,5.1,6.1,5,6.2c-0.1,0.1-1,0.3-1,0.2
			c-0.1-0.2-1.9-2.9-3.2-4.2c-1.2-1.4-2-2.1-2.2-2c-0.2,0.1-0.3,0.5-0.1,0.7c0.2,0.2,1.8,1.4,2.9,2.9c1,1.4,2.1,2.6,1.9,2.7
			c-0.2,0.2-1.1,0.1-1.1,0.1c-0.1-0.1-2.2-2.8-3.2-3.9c-1-1.1-1.2-1.2-1.5-1.1c-0.3,0.2,0.3,0.7,0.8,1.2c0.5,0.5,2.9,3.4,3,3.5
			c0.2,0.2,0.2,0.5,0.1,0.5c-0.2,0-1.1,0-1.2-0.1c-0.1-0.1-3.4-4.8-3.7-4.8c-0.3-0.1-0.5,0.2-0.4,0.3c0.1,0.2,3.4,4.3,3.2,4.4
			c-0.2,0.1-0.8,0.1-1-0.2c-0.2-0.2-2.2-3.2-3.5-4.2c-1.3-1-2.1-1.4-2.7-1.4s-1,0.6-1,0.6s-1.8-2.2-2.1-2.1
			c-0.3,0.1-0.3,0.3-0.2,0.6c0.2,0.2,1.8,1.8,1.8,2c0,0.1-0.2,1.1-0.2,1.2c0,0.1-2.4-2.6-2.6-2.6c-0.2,0.1-0.3,0.6-0.2,0.7
			c0.1,0.2,3,2.6,3,2.8c0.1,0.2,0.2,1.8,0,1.6c-0.2-0.2-3.2-3.8-3.4-3.8c-0.2,0-0.5,0.5-0.4,0.6c0.2,0.2,3.7,3.6,3.6,3.8
			c0,0.2-0.3,0.4-0.6,0.3c-0.2-0.1-3.4-3.8-3.7-3.7c-0.3,0.2-0.6,0.3-0.3,0.6c0.2,0.2,3.3,3.1,3.2,3.3c-0.1,0.2-1,0.1-1.1,0
			c-0.2-0.1-2.6-3.4-3.1-3.2c-0.4,0.1-0.5,0.5-0.3,0.6c0.2,0.2,2.8,2.6,2.6,2.6c-0.2,0.1-1,0.1-1.1,0c-0.2-0.1-2.3-2.6-2.6-2.6
			c-0.2-0.1-0.5,0.3-0.4,0.5c0.1,0.2,1.8,1.8,1.7,1.9c-0.1,0.2-2.3-0.6-3.4-1.4c-1.1-0.9-3.8-3.4-5.6-5.8C6,14.9,5,13.6,3.4,10.5
			C1.8,7.4,0.4,3.9,1.2,3C1.4,2.7,2,2.5,2.7,2.5s3.4-0.1,3.6,0.2C6.5,2.9,8.7,8,10,9.8c1.3,1.8,2.5,3,3.2,3.4c0.8,0.3,1.8,0,2.2-1
			c0.4-1,0.4-2.6,0.2-3.8s0-3.4-0.6-4.3c-0.6-0.9-1-1.5-1-1.6C14.2,2.3,17,2.1,18.9,2c1.9-0.1,3.4-0.2,3.4,0.8c0.1,1,0.1,2.5,0,4.7
			c-0.1,2.2,0,2.7,0.7,3c0.7,0.3,1.7-0.1,3.3-1.5c1.6-1.4,3.2-3.7,4.2-5.3c1-1.6,1.9-2.7,2-2.8c0.2-0.1,3.5-0.3,3.8-0.1
			c0.3,0.2,1.4,1.6,1.5,1.7c0.2,0.2,0.2,0.3,0.2,0.4c0,0.1-0.2,0.7-0.4,0.6c-0.2-0.2-1.4-1.4-1.6-1.4c-0.2,0.1-0.3,0.2-0.2,0.6
			C36.2,3,37.4,4,37.4,4.2c0,0.2-0.5,0.9-0.6,0.8c-0.1-0.1-1.5-1.9-1.8-1.8c-0.2,0.1-0.5,0.5-0.2,0.6C35,4,36.3,5.4,36.3,5.6
			c0,0.2-0.5,0.9-0.6,0.8c-0.1-0.1-1.6-1.7-1.8-1.6c-0.2,0.1-0.4,0.2-0.2,0.5c0.2,0.2,1.8,1.5,1.7,1.8c-0.1,0.2-0.6,1.1-0.6,1
			c-0.2-0.1-1.8-2.2-2-2s-0.4,0.3-0.2,0.5c0.2,0.2,1.8,2,1.8,2.1c0,0.1-0.4,0.6-0.5,0.6c-0.1,0-1.6-1.8-1.8-1.8
			c-0.2,0.1-0.5,0.3-0.4,0.5c0.1,0.2,1.7,1.7,1.4,2c-0.2,0.3-0.4,0.6-0.6,0.6c-0.2,0-1.8-2-1.9-1.9c-0.2,0.1-0.5,0.2-0.4,0.5
			c0.1,0.2,1.9,1.9,1.8,2.1c-0.1,0.2-0.6,0.6-0.7,0.5c-0.2-0.1-1.6-1.8-1.8-1.7c-0.2,0.1-0.4,0.1-0.4,0.3c0,0.2,1.6,1.7,1.5,1.8
			c-0.2,0.2-1,0.6-1.3,0.9c-0.3,0.3-0.3,0.6-0.1,0.7c0.2,0.2,3.5,2.8,5.4,5.2c1.8,2.4,2.3,3.4,2.6,4C37.7,23.5,37.7,24.2,37.6,24
			 M4.6,3.8C4.3,3.6,2.2,3.6,2.2,3.9c-0.1,0.2,0.7,2.8,1,3C3.4,7,3.7,6.8,3.8,6.6c0.1-0.2-0.6-1.9-0.5-2.1c0-0.2,1.1-0.1,1.3-0.1
			C4.7,4.4,4.8,4,4.6,3.8 M18,3c-0.1,0.2,0,0.6,0.2,0.6c0.2,0.1,1.9,0.2,2.1,0.2c0.2,0.1,0.2,1,0.2,1.3c0.1,0.3,0.6,0.2,0.7,0
			c0.2-0.2,0.1-1.9,0-2.1C21.1,2.9,18.1,2.9,18,3"/>
	</g>
</g>
</svg>
