<?xml version="1.0" encoding="utf-8"?>
<!-- Generator: Adobe Illustrator 19.0.0, SVG Export Plug-In . SVG Version: 6.00 Build 0)  -->
<svg version="1.2" baseProfile="tiny" id="Слой_1"
	 xmlns="http://www.w3.org/2000/svg" xmlns:xlink="http://www.w3.org/1999/xlink" x="0px" y="0px" viewBox="-259 385.2 76.2 71.7"
	 xml:space="preserve">
<path fill="#FC4D67" d="M-244,398.2c9.4-9.9,18.9,2.7,23.9,0.7c4.6-1.8,3.6-18.6,17.8-12.2c20,9-2.5,22.3,0.5,29.6
	c3.2,7.8,24.2,6,17.8,24.9c-7,20.8-24.6-0.3-33.6,2.8c-6.4,2.2-7.9,16.2-20.3,12.2c-12.4-4,1-17.5-1.8-21.7s-14.6,3.9-18.6-5.6
	c-4-9.5,11.3-11.7,12.8-15.3S-253.3,407.9-244,398.2z"/>
</svg>
