<?xml version="1.0" encoding="utf-8"?>
<!-- Generator: Adobe Illustrator 21.1.0, SVG Export Plug-In . SVG Version: 6.00 Build 0)  -->
<svg version="1.2" baseProfile="tiny" id="Layer_1" xmlns="http://www.w3.org/2000/svg" xmlns:xlink="http://www.w3.org/1999/xlink"
	 x="0px" y="0px" viewBox="0 0 14.1 19.4" overflow="scroll" xml:space="preserve">
<g>
	<path fill="#FC4D67" d="M13.1,8.4C12.3,6.8,11,5.3,9.9,3.9C9.6,3.4,7.1,0,7.1,0S4,3.7,2.6,5.7c-1.6,2.3-3.1,5.1-2.5,8
		c0.5,2.4,2.2,4.4,4.5,5.2c0.8,0.3,1.6,0.4,2.5,0.4c2.4,0,4.7-1.3,6-3.3C14.6,13.7,14.4,10.9,13.1,8.4z"/>
	<path fill="#FC4D67" d="M8.2,18.2c-4,0-7.3-3.3-7.3-7.3c0,0,0-0.1,0-0.1c-0.2,0.6-0.3,1.2-0.3,1.8c0,3.4,2.8,6.2,6.2,6.2
		c1.2,0,2.3-0.3,3.2-0.9C9.5,18.1,8.9,18.2,8.2,18.2z"/>
</g>
</svg>
