<?xml version="1.0" encoding="utf-8"?>
<!-- Generator: Adobe Illustrator 21.1.0, SVG Export Plug-In . SVG Version: 6.00 Build 0)  -->
<svg version="1.2" baseProfile="tiny" id="Layer_1" xmlns="http://www.w3.org/2000/svg" xmlns:xlink="http://www.w3.org/1999/xlink"
	 x="0px" y="0px" viewBox="0 0 406.1 382.3" overflow="scroll" xml:space="preserve">
<path fill="#EFC495" d="M308.7,3.6c5.5-5.1,15.9-4.9,21.9,1.5c6,6.4,6,15.9,0.5,21c0,0-77.1,72.2-81.7,76.5c-4.6,4.3,1,10.9,5.9,6.4
	c4.9-4.6,87.7-82,87.7-82c5.5-5.1,14.8-4.1,20.8,2.3c6,6.4,6.4,15.7,0.9,20.9c0,0-82.6,77.3-87.8,82.1c-5.2,4.9,1.4,11.9,6.5,7.1
	c5.2-4.9,80.7-75.4,80.7-75.4l0,0c5.5-5.1,14.8-4.1,20.8,2.3c6,6.4,6.4,15.7,0.9,20.9l0,0c0,0-76.2,71.3-80.7,75.6
	c-4.5,4.2,1.4,12.6,6.9,7.5c5.5-5.1,68.5-64,68.5-64c5.5-5.1,15.1-4.4,21.1,2c6,6.4,5.8,16.3,0.3,21.4l-68.3,63.9
	c0,0-52.4,51.1-73,64.2c-21.6,13.7-49,3.7-49,3.7l-11.9,10.3l-83-88.7l13.4-12.5l97.6-91.2L308.7,3.6z"/>
<path fill="#F7D5A9" d="M142.6,127.2c15.4-14,83.6-78.1,83.6-78.1s21.9,18.1,4,44.4c-6.8,6.3-35.3,32.9-35.3,32.9
	s10.5,34.3,0.5,55.3c-13.4,28.1-36,46.9-36,46.9l-45.3-48.4l13.4-12.5C127.5,167.6,121.4,146.4,142.6,127.2z"/>
<path fill="#FFCB2A" d="M0,267c10.8,23,25.3,44.8,43.6,64.4c19.9,21.3,42.7,38.3,67.1,51l110.6-103.4L112.2,162.1L0,267z"/>
</svg>
