<?xml version="1.0" encoding="utf-8"?>
<!-- Generator: Adobe Illustrator 21.1.0, SVG Export Plug-In . SVG Version: 6.00 Build 0)  -->
<svg version="1.2" baseProfile="tiny" id="Layer_1" xmlns="http://www.w3.org/2000/svg" xmlns:xlink="http://www.w3.org/1999/xlink"
	 x="0px" y="0px" viewBox="0 0 61.4 61.8" overflow="scroll" xml:space="preserve">
<path fill="#9EC94F" d="M49.7,21.3c-0.2-0.5-0.5-0.9-0.7-1.2c-0.2-0.3-0.3-0.4-0.3-0.4s-0.1-0.2-0.3-0.4c-0.2-0.3-0.5-0.6-0.8-1.1
	c-0.3-0.5-0.8-0.9-1.2-1.5c-0.1-0.1-0.1-0.2-0.2-0.2l5.7-5.5c1-0.9,0.7-2.7-0.6-4c-1.4-1.2-3.3-1.1-4,0l-4.4,6.6
	c-0.5-0.3-0.9-0.6-1.3-0.8c-0.5-0.3-0.9-0.5-1.2-0.6C40,12.1,39.8,12,39.8,12s-0.2-0.1-0.5-0.2c-0.3-0.1-0.7-0.3-1.3-0.5
	c-0.3-0.1-0.5-0.2-0.8-0.3c-0.3-0.1-0.6-0.2-1-0.2c-0.1,0-0.2-0.1-0.3-0.1L37.8,3c0.2-0.7,0-1.3-0.5-1.9C36.8,0.6,36,0.2,35.1,0
	c-0.9-0.2-1.8,0.1-2.4,0.5c-0.6,0.4-1,1-1,1.7l-0.2,7.9c-0.6,0-1.1,0-1.5,0c-0.6,0-1,0-1.3,0.1c-0.3,0-0.5,0.1-0.5,0.1
	s-0.2,0-0.5,0.1c-0.3,0-0.8,0.1-1.3,0.3c-0.6,0.1-1.4,0.4-2.1,0.6l-2.6-7.4c-0.2-0.6-0.8-1.1-1.5-1.3c-0.4-0.1-0.8-0.2-1.2-0.1
	c-0.4,0.1-0.8,0.2-1.2,0.4c-1.7,0.8-2.3,2.6-1.6,3.7l4.1,6.7c-0.5,0.3-0.9,0.6-1.3,0.9c-0.4,0.3-0.8,0.6-1.1,0.8
	c-0.2,0.2-0.4,0.3-0.4,0.3s-0.1,0.1-0.4,0.3c-0.2,0.2-0.6,0.5-1,0.9c-0.4,0.4-0.8,0.9-1.3,1.4c-0.1,0.1-0.1,0.2-0.2,0.3l-6.2-4.8
	C8,12.9,7.3,12.8,6.6,13c-0.4,0.1-0.7,0.3-1,0.5c-0.3,0.3-0.6,0.6-0.8,1c-1,1.6-0.6,3.4,0.6,4l7.1,3.4c-0.2,0.5-0.5,1-0.6,1.4
	c-0.2,0.5-0.4,1-0.5,1.3c-0.1,0.2-0.1,0.3-0.1,0.4s0,0.1,0,0.1s-0.2,0.7-0.5,1.8c-0.1,0.6-0.2,1.2-0.3,1.9c0,0.1,0,0.2,0,0.3
	l-7.9-0.7C1.2,28.3,0,29.7,0,31.5c0,0.9,0.4,1.7,0.8,2.3c0.5,0.5,1.2,0.8,1.8,0.7l7.8-1c0.1,0.5,0.2,1.1,0.2,1.5
	c0.3,1.1,0.5,1.8,0.5,1.8s0,0,0,0.1c0,0.1,0,0.2,0.1,0.4c0.1,0.3,0.3,0.7,0.5,1.3c0.2,0.6,0.5,1.3,0.9,2l-7,3.7
	c-1.2,0.6-1.5,2.4-0.5,4c1.1,1.5,2.8,2,3.9,1.1l6.1-5.1c0.4,0.4,0.7,0.8,1,1.2c0.4,0.4,0.7,0.7,1,0.9c0.2,0.2,0.4,0.3,0.4,0.3
	s0.1,0.1,0.4,0.3c0.3,0.2,0.6,0.5,1.1,0.8c0.4,0.4,1,0.7,1.6,1c0.1,0.1,0.2,0.1,0.3,0.2l-3.9,6.9c-0.3,0.6-0.4,1.3,0,2
	c0.3,0.7,0.9,1.3,1.8,1.7c1.7,0.7,3.5,0.1,3.8-1.2l2.4-7.5c0.5,0.2,1,0.3,1.5,0.4c0.5,0.2,1,0.2,1.3,0.3c0.3,0,0.5,0.1,0.5,0.1
	s0.2,0,0.5,0.1c0.3,0.1,0.8,0.1,1.3,0.1c0.6,0,1.2,0.1,1.9,0c0.1,0,0.2,0,0.3,0l0.4,7.9c0,1.3,1.6,2.4,3.4,2.1
	c0.5-0.1,0.9-0.2,1.2-0.4c0.4-0.2,0.7-0.5,0.9-0.8c0.5-0.6,0.6-1.3,0.5-1.9l-2.1-7.6c0.2-0.1,0.4-0.1,0.6-0.2
	c0.3-0.1,0.6-0.2,0.8-0.3c0.5-0.2,1-0.3,1.3-0.5c0.3-0.1,0.5-0.2,0.5-0.2s0.2-0.1,0.5-0.2c0.3-0.2,0.7-0.3,1.2-0.6
	c0.5-0.3,1.1-0.6,1.6-1c0.1-0.1,0.2-0.1,0.3-0.2l4.6,6.4c0.4,0.5,1,0.8,1.8,0.8c0.4,0,0.8-0.1,1.2-0.2c0.4-0.2,0.7-0.4,1.1-0.7
	c1.4-1.2,1.5-3.1,0.5-4L46.7,45c0.4-0.4,0.7-0.8,1-1.2c0.3-0.4,0.6-0.8,0.8-1.1c0.2-0.3,0.3-0.4,0.3-0.4s0.1-0.2,0.3-0.4
	c0.2-0.3,0.4-0.7,0.7-1.2c0.2-0.5,0.5-1.1,0.8-1.7c0-0.1,0.1-0.2,0.1-0.3l7.3,2.9c0.6,0.2,1.3,0.1,1.9-0.3c0.6-0.4,1.2-1.1,1.4-2
	c0.2-0.9,0.2-1.8-0.2-2.4c-0.3-0.7-0.9-1.1-1.6-1.2l-7.8-1.3c0.1-0.5,0.2-1.1,0.2-1.5C52,31.7,52,31,52,31s0-0.7-0.1-1.9
	c-0.1-0.6-0.2-1.4-0.3-2.2l7.8-1.5c1.4-0.2,2.1-1.9,1.6-3.7c-0.6-1.7-2.2-2.7-3.4-2.1l-7.2,3.1C50.1,22.2,49.9,21.7,49.7,21.3z
	 M47.9,32.5c-0.1,0.9-0.3,2.1-0.6,3.2c-0.1,0.6-0.4,1.1-0.6,1.7c-0.2,0.5-0.5,1-0.7,1.4c-0.2,0.4-0.4,0.7-0.5,0.9
	c-0.1,0.2-0.2,0.4-0.2,0.4s-0.1,0.1-0.2,0.4c-0.2,0.2-0.4,0.5-0.7,0.9c-0.2,0.4-0.6,0.7-1,1.2c-0.4,0.4-0.8,0.8-1.3,1.2
	c-0.4,0.4-1,0.7-1.4,1.1c-0.4,0.3-0.9,0.6-1.3,0.8c-0.4,0.3-0.7,0.4-1,0.5c-0.2,0.1-0.4,0.2-0.4,0.2s-0.1,0.1-0.4,0.2
	c-0.2,0.1-0.6,0.2-1,0.4c-0.2,0.1-0.4,0.2-0.7,0.2c-0.2,0.1-0.5,0.1-0.8,0.2c-0.3,0.1-0.5,0.2-0.8,0.2c-0.3,0-0.6,0.1-0.9,0.1
	c-0.6,0.1-1.2,0.1-1.8,0.2c-0.6,0.1-1.1,0-1.5,0c-0.5,0-0.8,0-1.1-0.1c-0.3,0-0.4-0.1-0.4-0.1s-2.4-0.3-4.6-1.3
	c-0.5-0.3-1.1-0.5-1.6-0.8c-0.5-0.3-0.9-0.5-1.3-0.8c-0.4-0.3-0.7-0.5-0.9-0.6c-0.2-0.2-0.3-0.3-0.3-0.3s-0.1-0.1-0.3-0.3
	c-0.2-0.2-0.5-0.4-0.8-0.8c-0.3-0.3-0.7-0.7-1-1.2c-0.3-0.5-0.7-0.9-1-1.4c-0.6-1-1.2-2.1-1.5-2.9c-0.2-0.4-0.3-0.8-0.4-1
	c-0.1-0.2-0.1-0.4-0.1-0.4c0,0-0.1-0.6-0.4-1.4c-0.1-0.4-0.1-1-0.2-1.5c0-0.6,0-1.2-0.1-1.8c0-0.6,0.1-1.2,0.1-1.8
	c0.1-0.6,0.2-1.1,0.2-1.5c0.2-0.9,0.4-1.4,0.4-1.4c0,0,0-0.2,0.1-0.4c0.1-0.2,0.2-0.6,0.4-1c0.3-0.8,0.8-1.9,1.5-2.9
	c0.3-0.5,0.7-1,1-1.4c0.3-0.4,0.7-0.8,1-1.2c0.3-0.4,0.6-0.6,0.8-0.8c0.2-0.2,0.3-0.3,0.3-0.3s0.1-0.1,0.3-0.3
	c0.2-0.2,0.5-0.4,0.9-0.6c0.3-0.3,0.8-0.5,1.3-0.8c0.5-0.3,1-0.5,1.6-0.8c2.2-1,4.6-1.3,4.6-1.3s0.1,0,0.4-0.1
	c0.3-0.1,0.6,0,1.1-0.1c0.5,0,1-0.1,1.5,0c0.6,0,1.2,0,1.8,0.2c0.3,0,0.6,0.1,0.9,0.1c0.3,0,0.6,0.1,0.8,0.2
	c0.3,0.1,0.5,0.1,0.8,0.2c0.2,0.1,0.5,0.2,0.7,0.2c0.4,0.2,0.8,0.3,1,0.4c0.2,0.1,0.4,0.2,0.4,0.2s0.1,0.1,0.4,0.2
	c0.2,0.1,0.6,0.2,1,0.5c0.4,0.3,0.8,0.5,1.3,0.8c0.4,0.4,1,0.7,1.4,1.1c0.4,0.4,0.9,0.8,1.3,1.2c0.4,0.4,0.8,0.8,1,1.2
	c0.3,0.4,0.5,0.7,0.7,0.9c0.1,0.2,0.2,0.4,0.2,0.4s0.1,0.1,0.2,0.4c0.1,0.2,0.4,0.5,0.5,0.9c0.2,0.4,0.4,0.9,0.7,1.4
	c0.2,0.5,0.4,1.1,0.6,1.7c0.3,1.1,0.5,2.3,0.6,3.2c0,0.9,0.1,1.5,0.1,1.5S47.9,31.6,47.9,32.5z"/>
<path fill="#9EC94F" d="M25,21.2c-3.7,0-6.8,3-6.8,6.8s3,6.8,6.8,6.8c3.7,0,6.8-3,6.8-6.8S28.7,21.2,25,21.2z M25,32.6
	c-2.6,0-4.7-2.1-4.7-4.7s2.1-4.7,4.7-4.7s4.7,2.1,4.7,4.7S27.6,32.6,25,32.6z"/>
<path fill="#9EC94F" d="M34.9,35.1c-2.3,0-4.2,1.9-4.2,4.2c0,2.3,1.9,4.2,4.2,4.2s4.2-1.9,4.2-4.2C39.1,36.9,37.2,35.1,34.9,35.1z
	 M34.9,41.3c-1.2,0-2.1-0.9-2.1-2.1c0-1.2,0.9-2.1,2.1-2.1s2.1,0.9,2.1,2.1C37,40.4,36.1,41.3,34.9,41.3z"/>
<path fill="#9EC94F" d="M40.3,20.8c-2.6,0-4.7,2.1-4.7,4.7s2.1,4.7,4.7,4.7s4.7-2.1,4.7-4.7S42.9,20.8,40.3,20.8z M40.3,28.1
	c-1.4,0-2.6-1.2-2.6-2.6s1.2-2.6,2.6-2.6s2.6,1.2,2.6,2.6S41.7,28.1,40.3,28.1z"/>
</svg>
