<?xml version="1.0" encoding="utf-8"?>
<!-- Generator: Adobe Illustrator 19.0.0, SVG Export Plug-In . SVG Version: 6.00 Build 0)  -->
<svg version="1.2" baseProfile="tiny" id="Layer_1" xmlns="http://www.w3.org/2000/svg" xmlns:xlink="http://www.w3.org/1999/xlink"
	 x="0px" y="0px" viewBox="0 0 42 50" xml:space="preserve">
<path fill="#FFCB2A" d="M40.3,7l-19-6C21.1,1,20.9,1,20.7,1l-19,6C1.3,7.2,1,7.6,1,8v12c0,15.3,6.3,24.5,19.7,29
	c0.1,0,0.2,0.1,0.3,0c0.1,0,0.2,0,0.3,0C34.8,44.5,41,35.3,41,20V8C41,7.6,40.7,7.2,40.3,7z M39,20c0,14.4-5.5,22.7-18,26.9
	C8.6,42.7,3,34.4,3,20V8.8L21,3l18,5.7V20z"/>
</svg>
